<svg xmlns="http://www.w3.org/2000/svg" viewBox="0 0 731 770">
  <path fill="#000" d="M727 2.3c-1.3.7-3.8 3.5-5.5 6.4-8.6 14.5-16.1 23.9-23.8 29.6-1.4 1-1.8 3.7-2.2 15.8-.5 15.5-2.1 25.5-5.4 33.1-1.3 3-1.6 4.9-.9 5.6.6.6.4 2.1-.8 4.3-.9 1.9-3.2 9.4-5 16.7-1.8 7.4-3.7 13.9-4.2 14.5-1.3 1.7-3.6 10.7-2.9 11.3 1.4 1.4 2.6-1.2 5.2-10.8 1.5-5.7 3.4-11.3 4.1-12.5.8-1.2 1.8-4.1 2.3-6.5.6-2.4 1.9-6.5 3.1-9.1 2.3-5.2 4.5-6 7.5-2.7 1.7 1.9 1.7 2.2-.4 8.2-1.2 3.5-3 9-4 12.3-1.1 3.3-3.5 10.5-5.4 16-2 5.5-3.3 10.3-3.1 10.7.3.4 1.3.8 2.3.8 1.4 0 2.6-2.2 5.1-9.8 4.2-12.6 7-23 7-26.3 0-1.5.7-2.9 1.5-3.3.8-.3 1.2-1.2.9-2.1-.9-2.4 1.6-7.5 3.7-7.5 1.7 0 2.1-.6 3.3-6.3.9-4 7.1-16.9 11.1-23.2 1.9-3 3.5-5.7 3.5-6.1 0-.3 1.2-2 2.6-3.7 2.6-3 2.6-3.4 1.8-10.7-1.6-14.9-1.3-33 .7-39.2 2.6-7.8 2.5-7.8-2.1-5.5Zm-3.2 26.3c.5 19.7.2 29.9-.9 30.2-.5.2-.9.8-.9 1.3 0 .6-1.3 2.1-2.9 3.5-1.7 1.4-3.3 3.5-3.7 4.7-.4 1.2-1.7 3.5-2.9 5.2-2.2 2.9-6.5 11.8-7.9 16.2-.6 1.9-1.5 2.3-4.6 2.3-4.6 0-6.3-2.1-4.8-5.9 2.7-7.2 4.5-21 4.2-31.9L699 43l4.9-4.8c4.6-4.4 12.1-13.6 12.1-14.7 0-1.5 5.5-8.5 6.4-8.2.7.2 1.2 5.1 1.4 13.3Z"/>
  <path fill="#FFF" d="M706.1 39.9c-1 .6-1.1 1.3-.2 2.9.6 1.1 1.1 3.2 1.1 4.6 0 2.2-.4 2.6-3 2.6s-2.8.2-2.1 2.2c.4 1.3 1.8 2.5 3.1 2.6 2.1.4 2.2.7 1.6 5.8-.6 4.9-.4 5.4 1.3 5.4 1.5 0 2.2-.9 2.7-3.5.9-4.8 2.7-6.2 5.8-4.2 2.1 1.4 2.5 1.4 3.8 0 1.4-1.3 1.4-1.9.2-4.1-1.2-2.4-1.1-2.9.8-4.9 1.1-1.2 1.8-2.9 1.5-3.7-.7-1.8-5.2-2.2-6.2-.6-1.2 2-3.6.9-5.6-2.5-2.2-3.7-2.6-4-4.8-2.6Z"/>
  <path fill="#000" d="M103.1 10.1c-4.1.6-9.4 1.9-11.7 3-2.4 1-4.8 1.9-5.4 1.9-.6 0-4 1.3-7.5 2.9-7.8 3.6-18.5 11.8-25 19.2-2.6 3-6.2 6.8-7.9 8.4C42 49 40 53 40 56.6c0 1.4-.5 3.5-1.1 4.6-1.5 2.7-3.7 13.2-4 18.9-.3 5.8.8 12.3 3.7 23.7 2.5 9.8 3.9 13.3 7.6 19.2 1.1 1.9 4.1 7 6.6 11.2 2.4 4.2 5.1 7.9 6 8.3 1.2.4 0 2.1-5.4 7.3-3.8 3.6-7.9 8-9.1 9.6-2.7 3.5-3.1 9.4-.7 10.3 1.3.5 1.5 1.5.9 5.8-.5 4-.3 5.5.9 6.5 2 1.6 2 3.6.2 4.3-2.2.9-2.3 4.7-.4 10.4 1 2.9 1.8 5.9 1.8 6.8 0 .8.5 1.5 1 1.5.6 0 1-.9 1-2.1 0-1.3.5-1.9 1.3-1.6 7.8 3.1 9.6 4.1 10.1 5.5.4.9 1.3 2.8 2.1 4.2 2.2 3.7 2 8-.4 8-1 0-2.4-.7-3.1-1.5-.7-.9-1.9-1.4-2.7-1.1-.7.3-1.3-.1-1.3-.9 0-2.5-2.3-6.5-3.7-6.5-.7 0-1.3.2-1.3.5 0 1.6 10.3 17.5 11.3 17.5.7-.1 2.3-.7 3.7-1.5 1.4-.8 3.7-1.4 5.2-1.5 1.6 0 3.3-.9 4.2-2.1 1.1-1.6 2-1.9 3.8-1.3 1.2.4 2.8.8 3.3.8.6.1 2 .7 3.3 1.4 1.4.8 3.5 1.1 5.4.7 5.5-1.3 9.2-1.2 12.6.2 1.8.8 8.4 6.4 14.7 12.6 11.2 11 17.6 16.7 19 16.7 1.6 0 16.3 16.5 16.7 18.8.2 1.2 1.6 1.8 4.3 2 5.2.4 6.8 1.8 5.4 4.4-1.5 2.7.2 4.4 2.9 2.9 1.1-.6 2.7-.8 3.6-.5 1 .4 2.4-.8 4.3-3.7l2.8-4.3-.3-20.5c-.2-22.7-.5-25.1-2.8-25.1-1.3 0-1.5 1-.9 6.7.8 9 1.4 13.4 2.1 15.5.3 1 .2 2.3-.2 3-.5.7-.7 4.7-.5 8.8.3 8-.9 12.7-3.4 13.6-.9.4-3.3-.6-5.5-2.1l-3.9-2.7 2.4-3.2c3.9-5.1 6.4-11.7 5.8-15.4-.6-3.6-2.6-4.5-2.2-1 .1 1.3-.3 3.6-.9 5.1-.7 1.6-1.2 3.3-1.2 4 0 .6-1 2.5-2.2 4.3-1.9 2.8-2.8 3.3-6 3.1-2.1-.1-3.8-.2-3.8-.3 0-.1 1.6-2.8 3.5-6 3.4-5.7 6.7-14.4 5.8-15.4-.7-.8-2.2 2.3-3.9 7.7-1.2 4-2.3 5.7-4.9 7.3-5.7 3.5-7.6-.3-3-5.8 1.4-1.7 2.5-3.2 2.5-3.5 0-.4 1.1-2.3 2.5-4.3 2.9-4.2 3.1-5.4 1-5.4-.8 0-2.2 1.8-3.1 4-.9 2.2-3 5.2-4.6 6.6-5.4 4.5-9.1 1.4-4-3.4 2.5-2.4 6.2-8.1 6.2-9.7 0-.3-.4-.5-.8-.5-.5 0-1.6 1.8-2.4 3.9-1.7 4.3-6.4 7.4-10.1 6.9-2.5-.3-3.7-3.8-1.4-3.8 1.8 0 7.7-5.4 7.7-7 0-.7-1.8.4-4.1 2.5-2.4 2.2-4.7 3.4-5.6 3.1-.8-.3-2.7-.9-4.1-1.3-2.7-.6-3.7-1.5-7-6.2-1.4-2-1.4-2.5-.2-2.9 1.9-.7 8-7.4 8-9 0-2.4-3.1-1.1-7 2.8-2.2 2.2-4.1 4-4.4 4-.2 0-3.5-2.5-7.3-5.6-9.6-8-12-8.8-20.3-7.3-7.7 1.3-13.5.6-15-1.9-.9-1.6-1.1-1.5-2.7.4-3.5 4.2-9.1 5.5-7.6 1.9.3-.8-.2-3.4-1.1-5.6-1.2-3-1.4-4.5-.6-5.4.6-.7.9-3 .6-5.1-.2-2.2-.5-4.4-.5-5-.1-.6-1.3-2.4-2.7-3.9-2.3-2.5-2.4-3.1-1.3-5.1 1-1.9 1-3.1-.1-6.3-1.8-5.5-.9-7.2 3.2-6.4 1.8.3 4.3 1.2 5.4 2 1.2.8 2.6 1.3 3 1.2 2.9-.5 3.1.5 3 16.3-.1 10 .3 16.5.9 16.8.6.3 1.1-2.3 1.3-6.8.2-3.9.5-7.2.8-7.2.3 0 1.7.9 3.1 2 2.9 2.2 8.7 2.8 8.1.7-.3-.6-1.8-1.4-3.4-1.7-3.4-.6-6.1-5.2-6.6-11.5-.4-5.3 1.8-5.3 4.7-.1 3.3 5.8 4 5.2 3-2.7-.7-4.6-.8-4.7-4.2-4.7-4.2 0-10-2.6-11.3-5-.6-1.1-2.7-2-5.8-2.4-5.3-.7-7.7-2.5-8.7-6.8-.5-2.1-.3-2.7 1.4-3.3 2.3-.7 3.5-3.6 3.3-8.4-.1-3.1-2.1-6.9-2.3-4.6-.1.6-.3 3.2-.5 6-.3 3.9-1 5.4-2.9 6.8-1.4 1.1-2.5 2.9-2.5 4.2 0 1.9-.6 2.3-4.1 2.7-2.2.2-4.1.3-4.2.1-.2-.1-.1-2 .1-4.1.3-3.2 1.6-5.2 6.9-10.8l6.5-6.9 10.2-.2c14-.2 20.6 1.7 26.9 7.9 2.6 2.6 4.7 5.6 4.7 6.8 0 1.1 1 3.7 2.3 5.8 2.1 3.4 4.7 10.7 8.1 22.7 1 3.7 1.6 4.5 2.1 3.2 1-2.3 3.7-2.1 9.3.7 2.6 1.3 6.9 2.7 9.7 3.1 4.8.7 11.4 3.4 14.5 6 .8.7 5.4 2.5 10.2 4 9.5 3 11.8 4.8 13.3 10.3.6 1.9 1.5 3.7 2.1 3.9.8.3.7-1.5-.3-5.9-.8-3.4-1.7-6.6-2-7-1.1-1.9-8.2-5.7-11.7-6.3-2.9-.6-3.4-1-2.6-2 .8-.9 3.6-1.3 8.3-1.3 8.8 0 10.8-.7 17.4-6.7 6.8-6 14.2-8.7 22.9-8.2 3.5.1 6.6.6 7 1 .4.3-.7 2.2-2.5 4.2-3 3.4-4.1 7.8-2.2 8.9.4.3 1.4 2.7 2.1 5.3 1.1 4.3 3.8 12 8.9 25.3 1.3 3.4 2.2 4.6 4.1 4.8 1.4.2 3 .8 3.5 1.4.7.7.3.9-1.3.5-1.4-.3-2.5 0-2.8.7-.4 1.1 6.2 17.1 10 24.1.9 1.6 1.6 3.8 1.6 4.7 0 .9.4 1.9.9 2.2.5.3 1.4 1.9 1.9 3.6l1.1 3-9.8-.6c-6.7-.3-12.1 0-17.2 1-13.9 2.8-17 2.9-21.4.7-5.4-2.9-6.2-2.7-8.5 2.1-1.1 2.4-3.2 5.6-4.5 7.1l-2.5 2.8-5.2-1.6c-4.5-1.3-5.4-1.3-6.6-.1-2.4 2.4-.7 4.7 3 4.2 1.8-.2 3.8-.5 4.3-.7.6-.2 2 .2 3.1.9 1.2.6 4.4 1.9 7 2.8 2.7.9 6.3 2.8 7.9 4.3 1.7 1.6 6 4.9 9.8 7.5 3.7 2.6 6.7 5.1 6.7 5.5 0 .4-1.1 1.8-2.5 3.1-2.7 2.5-3.2 6.5-1.2 9.1 1.8 2.4 5.5 4.1 6.2 2.9.3-.5 1.9-1 3.4-1s3.6-.9 4.6-2c1.8-2 4.5-2.7 4.5-1.1 0 1.5 4.1 6.1 5 5.6.5-.3-.2-2.2-1.5-4.2-1.8-2.5-2.5-5-2.5-8.1 0-4 .5-4.9 4.2-8.4 2.3-2.1 4.9-3.8 5.9-3.8s2.1-.5 2.4-1c.9-1.4-2.6-1.2-5.5.4-3.3 1.9-5.8.4-16.3-9.9-4.5-4.4-9.3-8.8-10.6-9.7-1.4-1-2.2-2.1-1.8-2.4.9-.9 24.5-3.2 28.2-2.7 4.7.6 9.8 2.4 11.8 4.1 1.4 1.2 2.2 1.4 3.5.5 2-1.2 1.8-4.9-.4-9.1-2.5-4.9-1.9-5.5 9.5-11 6.1-2.9 11.1-5.2 11.3-5.2.2 0 .3 6.2.4 13.8.1 16 .4 18.6 3.8 34.7 2.9 13.5 3 13.8 1.7 13.1-.5-.3-1.1.1-1.5.9-.3.9 0 1.5.7 1.5 2.4 0 9.7 9.3 9.7 12.3 0 .8.8 2.5 1.9 3.8 2.2 2.8 4.2 11.2 3 13-.4.7-.5 1.7-.2 2.2.5.9-3.4 12.4-5 14.4-1.4 1.9-4.2 1.6-6.3-.8-1.6-1.7-1.6-2.2-.4-2.9.8-.6 1.8-1 2.1-1 1.1 0 6.8-9 5.6-9-.6 0-4.4 2.8-8.4 6.3-4 3.4-10.6 8.9-14.8 12.1-4.1 3.3-7.5 6.3-7.5 6.8 0 1.8-2.9.7-4.4-1.7-1.6-2.5-4.6-3.4-4.6-1.5 0 2 2.9 6.8 4.5 7.4 2.3.9 5.5-.8 10.3-5.3 2.4-2.3 4.7-4.1 5.1-4.1.5 0 2.5-1.6 4.5-3.5 2.1-1.9 4.3-3.5 5.1-3.5.7 0 2.2 1.8 3.3 4.1 1.8 3.5 1.9 4.4.7 6.7-.7 1.5-2.8 6.5-4.6 11.2-1.7 4.7-4.7 11.4-6.6 15-5.4 10.6-10.7 26.2-14.8 43.8l-1.7 7.2 4.6 4.8c5.4 5.5 5.5 7 1.3 19.2-1.4 4.1-3 9.3-3.6 11.6-.6 2.3-2.1 5.2-3.3 6.5-2.7 2.9-4.8 7.2-4.8 9.9 0 1-1.1 3.2-2.5 4.8-1.4 1.7-2.5 3.3-2.5 3.8 0 .4-.7 1.5-1.6 2.5-2.3 2.5-4.4 12.8-3.8 19 .3 3 .7 10.1.9 15.9.5 13.5.9 16.2 2.9 23.6 1.5 5.8 1.7 15.7.2 21.9-1.4 6.4-2.1 8.5-4.2 12.7-1.3 2.6-2.4 6.1-2.4 7.8 0 8.2-5.7 32-7.7 32-.3 0-1.1-.6-1.7-1.4-.6-.8-2.7-1.6-4.6-1.8l-3.5-.3-.2 9.6c-.1 10.7-1.7 15.2-5.9 17.1-2 1-2.4 1.6-1.9 3.9.3 1.5.1 3-.4 3.4-.6.3-1.1 1.4-1.1 2.3 0 .9-1 2.9-2.3 4.4l-2.2 2.7-5.2-3.1c-3.1-1.9-5.3-4.1-5.5-5.3-.5-3.1-4.3-3.1-6.4-.1-2 3.1-2.4 3.1-7.6.6-5-2.4-5.6-2.4-7.9-.4-1.7 1.5-2.2 1.5-7.1 0-2.9-.9-6.6-1.7-8.3-1.8-2.8-.3-3 0-3.5 3.7l-.5 4-4.2-.3c-4.3-.3-4.3-.3-7 5.2-2.6 5.4-2.6 5.6-.9 7.5 1.3 1.5 1.6 2.4.9 3.3-1.1 1.3-.2 11.2 1 12.5.4.3 1.5.7 2.5.8.9.1 2.7.7 4 1.4 1.2.6 2.7.9 3.2.6.6-.4 1.8 1.1 2.6 3.2 2 4.8 4.2 7.3 6.5 7.3 1 0 3.4 1 5.4 2.2 3.4 1.9 5.2 2.1 20.8 2.2 16.7.1 17.4.2 22.9 2.9 3.2 1.6 8.4 4.8 11.6 7.1 11.6 8.6 19.6 10.5 27.5 6.5 5.6-2.8 7.5-4.6 9.9-9.2 2.9-5.8 3.3-12.5 1.3-20.4-1-3.7-2.2-7.6-2.7-8.6-.7-1.3-.3-2 1.7-2.9 1.9-.9 2.5-1.9 2.6-4.7.1-2 .2-4.5.3-5.6.1-1.2 1.5-2.6 3.9-3.7 4.3-2.1 4.8-4.5 1.7-9.6-2.5-4-2.5-4.2-.2-4.2 2.2 0 5.2-3 5.2-5.2 0-2.6 6.5-7.5 10.8-8.3 4.4-.7 7.1-2.9 10.6-8.3 1.3-2.1 3.1-4.3 3.9-5.1.9-.7 1.9-2.9 2.3-5 1-6 1.4-6.9 5.3-11.8 3.8-4.8 5.6-9.9 4.5-12.8-1-2.5-1.9-1.8-6.6 5.2-2.8 4.4-4.9 9-5.7 12.8-.8 3.3-2.4 7.4-3.7 9.1-1.3 1.7-2.4 3.4-2.4 3.8 0 1.1-7.1 7.6-8.4 7.6-.6 0-2.5 1.4-4.3 3-1.8 1.7-3.5 3-3.9 3-1.4 0-11.4 9.2-11.4 10.5 0 2.2-1.6 2.6-4.6 1-1.6-.8-3.5-1.5-4.2-1.5-.7 0-5.2-1.9-10-4.2-10.9-5.2-21.7-13.9-23.3-18.6-1.7-5.3.1-6 4.7-2 5.6 4.9 23.7 15.6 30.8 18.2 5.8 2.1 9.2 2.4 8.1.7-.2-.5 1.1-2.2 3-4 1.9-1.7 3.5-3.7 3.5-4.5 0-.7 1.2-2.4 2.8-3.8 3.3-3.2 6.2-6.7 11.3-13.7 3.9-5.4 5.5-9.7 1.9-5.1-6.7 8.4-8.2 9.9-9.4 9.4-.9-.3-1.7.4-2.1 1.8-.4 1.3-1.4 3-2.1 3.8-.8.8-3.9 4.5-7 8.2-3.1 3.8-5.9 6.8-6.3 6.8-1.1 0-5.1-4-5.1-5.1 0-.5 2.1-3.2 4.7-6 4.4-4.7 5.1-6.8 1.9-5.6-.8.3-3.2 3.1-5.2 6.2-2.3 3.4-4.4 5.5-5.5 5.5-1.1 0-1.9-.4-1.9-.8 0-.5-2.9-2.1-6.5-3.7-5.3-2.4-6.2-3.2-5.2-4.3.9-1.1.7-1.7-.7-2.7-1.9-1.4-4.7-8.5-3.9-9.7.6-1.2 2-1 3.5.4 5.5 5 6.8 6 6.8 5.1 0-.6-1.1-2.6-2.4-4.6-3.9-5.7-4-10.9-.1-5.7 2.8 3.8 5.5 5.8 5.5 4 0-.6-1.8-3-4-5.4-2.6-2.8-4-5.3-4-7 0-2.3.3-2.5 1.9-1.6 1.1.5 3.3 2.3 4.9 4 3.6 3.5 6.6 4.2 3.5.7-3.8-4.3-9.5-14.8-9.7-18-.3-6.7 5.2-2.7 9.3 6.8 1.3 3 4 5 5.2 3.8.6-.6.1-1.9-1.5-3.6-4.6-5-8.6-11.5-8.6-14.2 0-2.3.2-2.4 2-1.5 1.2.6 2.5 2.1 3 3.3.9 2.5 8 9.6 8 8.1 0-.6-1.1-2.5-2.5-4.4-1.4-1.9-2.5-3.8-2.5-4.3s-1.1-2.2-2.5-3.9c-2.2-2.6-3.5-7.8-1.9-7.8.3 0 1.7 1.4 3.1 3 3.7 4.5 4.1 2.8.4-2.2-1.7-2.3-3.1-5.1-3.1-6.2 0-1.7.6-1.3 3.2 1.9 7.3 8.7 8.8 10.1 9.8 8.5.6-1-.1-2.3-3-4.7-4.7-4-10.3-12-9.4-13.5.8-1.2 8 5.6 10 9.4 1.6 3.2 2.9 3.5 3.8 1.2.5-1.2-1.2-3.5-5.7-7.8-6-5.7-10.5-12.1-9.3-13.3.7-.7 6.5 3.9 6.5 5.3.1 1.1 5.1 6.2 5.1 5.2 0-2.2-3.3-7.5-7.3-11.7-5.3-5.6-5.6-6.6-2.5-7.4 1.6-.5 3 .1 4.8 1.8 1.5 1.4 3 2.5 3.6 2.5.5 0-.9-1.6-3.1-3.5-3-2.6-4.9-3.5-7.6-3.5-2.4 0-3.9-.5-4.3-1.6-1-2.6-.7-9.9.5-11.1.8-.8.8-1.7 0-3.2-.7-1.3-1-5.8-.7-12.3.7-16.1 1.4-18.8 5.2-22.5 1.9-1.7 3.4-3.6 3.4-4.2 0-.6.4-1.1.9-1.1s.9-1.2.9-2.6c-.1-3.9 1.9-5.3 3.1-2.1 2.4 6.3 3.5 14.7 2.4 17.8-1.1 2.7-.9 3.6 1.2 6.9 1.3 2.1 2.9 4.1 3.5 4.5 2 1.3 2.1-2.5.1-5.4-2.2-3-2.9-8.1-1.1-8.1.6 0 1 1.1 1 2.3 0 3 1 4 2.7 2.6 1.9-1.6 1.6-4-1-7.9-2.5-3.7-6.7-15.1-6.7-18.2 0-3.3 2.7-1.9 3.8 2.1.7 2.1 2.3 5.5 3.7 7.5 1.4 2 2.5 4 2.5 4.4 0 .4 1.3 2.3 3 4.2 3.5 4.2 3.9 2.5.7-2.8-4.2-6.8-9.7-20.5-9.7-24 0-2 .4-2.3 2.1-1.9 2 .5 2 .3 1.4-4.4-.9-6.7.7-6.3 4.5 1 1.6 3.3 4.8 7.9 7 10.3 2.2 2.4 4 4.6 4 5 0 .5.7.8 1.5.8 1 0-.2-2.3-3.5-7-2.8-3.9-5-7.4-5-7.8 0-.4-1.1-2.4-2.5-4.4-3-4.5-3.2-6.8-.5-6.8 1.3 0 2.6 1.3 3.9 3.7 2.7 5.3 12.6 14.9 13.7 13.2.5-.8-.1-1.8-1.5-2.7-1.2-.8-5.6-5.7-9.8-10.9-5.9-7.4-7.3-9.7-6.2-10.4 2.1-1.3 2.5-1.1 4.4 1.8 2.6 4.4 14.8 15.3 17 15.3 2.3.1 13.3 16.9 18.3 28 1.6 3.6 4.8 10.4 7.1 15.1 2.2 4.7 4.1 9.1 4.1 9.8 0 1.5-1.5 1.4-3-.4-1.4-1.7-12-7.8-12.6-7.2-.3.2 1.7 1.8 4.4 3.6 5.5 3.5 12.5 10.1 11.6 11-.3.3-1-.2-1.5-1.1-1.2-2.1-10.3-6.8-13.2-6.8-1.5 0-.5 1 3.3 3.2 2.9 1.8 5.5 3.9 5.8 4.5.5 1.6-3.4 1.7-4.4.2-1.1-1.8-9.4-4.9-13.8-5.2-6.7-.3-5.7 1.6 1.4 2.8 4.6.7 6.6 1.5 6.8 2.6.4 2.2-7.9 8.9-15.3 12.3-3.3 1.5-6.8 3.2-7.7 3.7-1 .5-2.9.9-4.3.9-2.7 0-9.5 5.4-9.5 7.7 0 .9 1.2.5 3.8-1.5 3.4-2.8 11.2-5.2 11.2-3.6 0 .4-1 2.1-2.3 3.8-2 2.6-5.7 10.6-5.7 12.1 0 .3.4.5 1 .5.5 0 1.9-1.9 3.1-4.2 1.2-2.4 3.5-5.9 5.2-8 4.6-5.7 23.2-20.6 24.3-19.5.8.7-1.5 8.6-3.7 12.9-2.1 4.1-7 8.2-11.8 9.9-2.1.7-3.8 2.4-5.1 5-2.8 5.5-2.5 6.2 1.2 2.6 3.1-3 3.3-3.1 3.6-1.1.2 1.1-.6 4.4-1.8 7.3-2.3 5.9-2.7 10.5-.7 9.9.6-.3 1.3-1.6 1.4-2.9.2-2.9 1.9-9.9 2.6-10.6.3-.3 1-.2 1.6.1.9.6.8 3-.5 9.5-.5 2.1-.3 2.3 1 1.2 1.8-1.5 3.2.7 4.2 6.8.4 2.3 1.1 4.4 1.5 4.7.5.3.9 2.2.9 4.3 0 2 .4 4.1.9 4.6.5.6 1.4 2.8 2.2 5l1.3 4 .8-3.9c.9-4.1-.4-9.1-5.7-23-1.4-3.8-2.8-9.7-3.1-13-.5-5.5-.3-6.7 2.6-11.9 1.7-3.1 3.6-5.7 4.1-5.7 1.9 0 4.9-6.6 4.9-10.6 0-4.9.5-5.5 3.3-4.4 1.2.5 3.4 1.1 4.8 1.4 1.5.3 5.1 2.8 8 5.6l5.4 5 2.7-3.1c2.2-2.5 2.6-3.7 2.1-6.2-.8-4.4-1.1-4.4-2.1-.6-.5 2.3-1.5 3.5-2.8 3.7-2.6.4-3.6-.8-6.6-8.3-13.7-33.2-16-38.3-22.8-49.8-1.9-3.2-4-6.7-4.6-7.8-.6-1.1-2.1-3-3.4-4.4-1.6-1.8-2-2.9-1.4-4.7.4-1.2.8-3.1.9-4.1 0-.9.3-1.8.7-2 .8-.2 4.8 6.6 4.8 8.2 0 .5 1.4 2.3 3 4.1 2.5 2.6 11.7 20.2 15 28.5.4 1.1 2.4 5.4 4.3 9.5s4.5 10.2 5.7 13.5c1.3 3.3 2.7 6.4 3.2 7 1.8 2 .4-7.1-2.7-17.5-2.1-6.7-2.3-10.5-.6-10.5 1.6 0 4.5 8.4 7.1 21 1.6 8.2 2.5 9.1 2.1 2.5-.2-3.6-4.1-20.2-5.2-22.2-.5-1-.9-2.5-.9-3.3 0-2.2 6.4-4.7 11.3-4.3 3.7.3 4.2.6 3.9 2.6-.2 1.2-1.4 4.8-2.8 7.8-3.4 7.8-2.6 14 2.2 17.3 1.9 1.3 3.4 3 3.4 3.7 0 .8.4 1.4.9 1.4 1.4 0 4 7.5 3.5 9.7-.6 2.2 7.9 13.8 10.8 14.8 1 .4 1.7.9 1.7 1.3-.3 2.1.3 3 2.4 3.6 1.3.3 4.1 2.2 6.4 4.3 3.4 3.2 4.1 4.6 4.7 8.9.6 4.8 1.1 5.6 6.4 10 7.6 6.4 7.9 6.8 8.7 12.5.5 3.8 1.2 5.3 2.9 6 2.6 1.2 11 15.5 10.2 17.6-.4 1.1-.1 1.3 1.4.8 1.3-.4 3.4.2 5.8 1.6 4.7 2.9 5.2 3.6 5.2 8s3.2 9 5 7.3c.9-.9.8-1.8-.5-3.8-1.6-2.5-1.6-2.5.9-3.2 1.5-.3 3.9-.2 5.4.4 4.3 1.7 7.6 2.1 9.7 1.2 1.6-.6 1.1-.9-2.4-1.5-10.9-1.8-15.4-6.2-5.2-5 8.4 1 8.3-.8-.1-2.4-7.8-1.4-15.1-4.2-16.3-6.2-.6-.9.1-1 2.6-.6 1.9.4 7.5.9 12.4 1.1 9.6.6 7.7-.2-6-2.4-3.3-.5-7.2-1.3-8.8-1.6-2.2-.5-2.6-.3-2.1.9 1 2.7-3 .9-4.3-2-.9-1.9-1-3-.2-4 .9-1 .8-1.3-.2-1.3-2-.1-6.5-3.7-5.7-4.6.4-.3 3.6.1 7.2 1 6.9 1.7 13.9 2.2 10.1.7-1.1-.5-5.1-1.6-9-2.5-6.5-1.5-10.6-3.8-9.4-5.1.3-.3 4.2 0 8.6.6 8.8 1.2 13.8 1 13.8-.6 0-.6-1.6-1-3.5-1.1-9-.3-17.5-1.7-20.6-3.6-3.9-2.3-4.6-4.4-1.1-3.3 4.3 1.3 7.9 1.5 9.6.5 1.3-.8 1-1-1.4-1-1.6-.1-4.2-.3-5.6-.5-2.7-.3-9.9-3.1-9.9-3.8 0-.2 3.7-.3 8.3-.3 8.6.1 14.1-.9 13.2-2.3-.3-.5-2.4-.5-4.7.1-4.3.9-16.5-.5-20-2.4-3.4-1.7-1.8-2.6 4-2.1 6.2.6 12.3-.6 12.9-2.4.3-.9-2.3-1-9.9-.6-8.9.5-10.5.3-11.7-1.1-.8-.9-1.1-1.9-.8-2.2.6-.6 6.4-1.5 11.4-1.8 6.6-.3 4.3-1.6-3-1.6-9.1 0-12.7-1.1-12.7-4 0-1.9.4-2.1 4.4-1.5 4.8.8 9-.1 8.1-1.6-.4-.5-3-.9-5.9-.9-3.1 0-5.8-.5-6.3-1.3-1-1.2-1.6-4.5-3.2-17.2-.5-3.6-1.9-7.9-3.6-10.8-2.5-4.5-2.7-5.3-2.1-11.9.8-7.5-.7-8.9-2.1-2-.4 2-.8 4-.9 4.4-.1.5-.2 2.1-.3 3.8-.1 2.9-.2 3-5 3-2.7 0-6.2-.5-7.8-1l-2.8-1 2.9 2.6c2.7 2.4 3.5 2.6 8.1 2 5.7-.6 6.8 0 9.9 6.2 1.9 3.7 3.9 21.2 2.5 22.6-1.3 1.4-5.6-1.1-11.4-6.6-4.1-3.9-5.3-5.8-6.8-11.1-1.4-4.7-2.9-7.4-5.4-9.8-4.6-4.4-7.6-10.4-7.4-14.8 0-2 1.1-6.5 2.5-10.1 2.4-6.6 4.8-9 9.1-9 2.3 0 11.7 8.3 12.9 11.5.5 1.1 1 1.5 1.2 1 .3-.6-.7-3.3-2-6-3.1-6-2.2-7.9 2.7-6.3 4.8 1.5 14 3.8 15.5 3.8.6 0 1.2-.5 1.2-1 0-.6-1-1-2.2-1-2.9 0-5.4-1.5-4-2.4.5-.3 5.4-1 10.7-1.6 10.9-1.1 12.1-1.6 10.4-3.6-1.5-1.8.3-2.5 6.7-2.7 5.3-.2 5-.7 6.1 10.5.3 4 .2 6.8-.3 6.8s-2.5 1.5-4.4 3.3c-1.9 1.8-5.1 4.4-7 5.8-4.3 3.2-10 9-10 10.1 0 1.3 4.8-1.5 11.7-6.6 3.3-2.5 6.4-4.6 6.7-4.6.3 0 .6 1 .6 2.1 0 3.3-3.8 8.9-9.9 14.6-5.4 5-5.5 5.2-2.8 5.3 1.9 0 3.9-1.2 6.7-4.1l4-4.2 4.3 4.2c2.3 2.4 5.8 5.1 7.7 6.1 3.7 1.9 9.5 7.7 12.3 12.1.9 1.5 3.8 3.7 6.4 5.1 9.7 4.8 14.1 8.6 17.9 15.4 4.9 8.8 6.3 16.1 6.4 33.1 0 14.2 0 14.2 3.1 18.7 1.7 2.6 3.7 4.6 4.5 4.6 2.3 0 1.7 1.3-2.5 5.4-3.3 3.3-4.1 3.6-5.8 2.6-1.2-.8-1.9-2.4-2-4.5-.1-3.4-4.1-15.5-5.2-15.5-.3 0-.4 2.2-.3 5 .4 5.6-.1 6-3.5 2.8-2.7-2.6-4.3-1.6-2.3 1.5 2.7 4.3 8 15.7 8 17.1 0 .8.4 1.7.9 2.1 1.7 1 9.9-4.3 14.7-9.5 2.6-2.8 5-5 5.4-5 1 0 6 7.3 6 8.7 0 2.8-17.5 15.9-27.5 20.6-10.1 4.7-17.5 6.3-17.5 3.8 0-.3 1.7-1.4 3.8-2.3 2-.9 4.8-2.4 6.2-3.2 1.4-.9 6.9-3.6 12.2-6.1 8.8-4.1 12-6.5 8.6-6.5-1.2 0-10.3 4.5-18.8 9.4-10 5.7-10.9 6.1-12.3 4.7-1-1-.5-1.8 2.3-4.2 1.9-1.6 3.9-2.9 4.6-2.9.6 0 1.9-.9 2.9-2s2.6-2 3.6-2c3 0 3.1-1.8 0-3.9-3.5-2.6-4.3-2.6-4-.4.5 5.3-.9 5.6-3.6 1-2.1-3.6-3.5-4.8-4.7-4.1-.4.3.3 2.2 1.7 4.2 3 4.5 3.1 5.8.4 7.3-1.9 1-2.8.4-8.5-6-4.3-4.6-7-6.8-8-6.4-1.1.4-1.2.9-.3 1.9.7.8.7 1.4.2 1.4-.6 0-.9 1.8-.7 4.1.2 3.1 1.1 4.9 3.8 7.5 2 1.9 3.6 4.1 3.6 4.9 0 .7 1.5 2.3 3.4 3.4 3.5 2.2 4.6 3.9 4.6 7.1 0 2.2 4.8 5.5 7.6 5.2 1.6-.2 2.4.5 3.3 2.9 1 2.8.8 3.6-.8 5.3-1 1.2-2.2 4.3-2.6 7-.6 4.1-1.5 5.7-5.2 9.3-4.6 4.5-13.9 11.3-15.4 11.3-.5 0-1.6 1.4-2.4 3-.9 1.7-2 2.8-2.6 2.4-1.7-1-6.8 1.6-7.5 3.9-.3 1.1-2.2 3.4-4.1 5.2-2.8 2.5-3.4 3.9-3.6 7.5-.2 4.4-.1 4.5 3.1 4.8 4.9.5 6.8-.4 5.2-2.3-1.1-1.3-1.1-2.4 0-5.8 2.2-7.4 2.9-8.6 5.9-10.1 3-1.6 3-1.6 8.1 3.4 2.9 2.8 6.1 5 7.3 5 2.3 0 7.7 4.6 7.7 6.7 0 1.8-11.9 9.3-14.9 9.3-1.8 0-2.2-.4-1.6-1.8.4-.9.9-3.5 1.1-5.7.2-2.6 1-4.4 2.6-5.6 1.2-1 1.9-2.1 1.6-2.5-.8-.7-11.7 6-11.9 7.4-1.2 8-.6 9.6 4.8 11.9 2.6 1 3.7 1.1 5.9.1 2.2-1.1 2.8-1 3.2.1.2.7 1.7 2.7 3.2 4.4 2.6 2.9 2.9 3 5.8 1.8 3.3-1.4 5.2-.9 5.2 1.4 0 .8 1 1.9 2.1 2.6 1.8.9 2.6.7 4.8-1 7.9-6.4 12.9-8 16.9-5.3 2.2 1.4 2.6 1.4 3.6.1.6-.9 2.1-2.1 3.3-2.8 1.2-.6 2-1.7 1.7-2.5-.3-.7.6-3 2-5.1 1.4-2.1 2.6-4.2 2.6-4.7s1.3-.7 3-.3c1.9.4 3 .3 3-.5 0-.6.9-2.3 1.9-3.8 1.1-1.5 2.2-4.4 2.5-6.4.7-4.1 7.9-11.8 13.1-14 1.6-.7 3.6-1.8 4.5-2.6 4.7-4.1 14.5-11 15.2-10.6.7.5 4.8-8 4.8-10 0-.6-1.2-4.1-2.6-7.7-2.5-6.5-2.9-6.8-8.3-9.3-6.2-2.8-12-2.7-15.3.1-.9.8-2.1 1.2-2.6.9-1.6-1-6.4-11.5-5.7-12.6.3-.5-.6-2.2-2-3.6-1.6-1.6-2.8-4-3-6.1-.1-1.9-1.6-5.1-3.2-7.1-2.4-3-2.9-4.4-2.5-7.3.3-3.2.1-3.9-2.4-5-1.6-.8-3.2-2.8-3.8-4.6-1.6-4.7-3.1-5.7-7.9-5.4l-4.3.2-1.2-4.8c-.7-2.6-1.5-9.3-1.8-14.8-.6-10.6-2.5-21.5-4.9-27.2-3.7-8.7-18.7-23.3-24-23.3-.8 0-1.9-1-2.4-2.3-1.2-3-9.9-11-14.2-13.1-6.7-3.1-10.2-6.9-10.2-10.7 0-5.9 1.5-14.3 2.9-16.4.8-1.1 1.4-4.1 1.4-6.8 0-4.5.1-4.7 2-3.7 1.1.6 4.5 3.4 7.4 6.3 3 2.9 7.8 7.3 10.7 9.9 13.9 12 44.9 39.6 48 42.7 1.5 1.4 7.5 6 13.4 10.1s12.6 9.2 14.8 11.2c4.5 4.2 7.4 5.5 8.9 4 1.4-1.4-1.3-6.2-7-12.5-2.6-2.9-5.7-6.6-6.9-8.3-1.3-1.7-3.8-4.6-5.5-6.6-1.8-2-6-7.1-9.3-11.3-3.3-4.3-8.3-10.3-11.1-13.4-2.8-3.1-9.7-11-15.4-17.6-9.5-11.2-20.8-23.5-31.8-34.8l-4.7-4.8 2.3-1.6c1.2-.8 2.2-2 2.2-2.5s1.6-3.2 3.5-6.1c1.9-2.8 3.5-5.6 3.5-6.2 0-.6 1.3-1.8 2.9-2.8 1.8-1 3.1-2.8 3.5-4.8.3-1.7 1.9-4.2 3.5-5.7 2.9-2.5 3-2.6 1.3-5.4-1.4-2.5-1.5-2.9-.1-4 2.1-1.8 8.9-10.3 8.9-11.3 0-.4-1.1-2-2.5-3.7-3.2-3.8-3.2-5.8 0-5.8 7.4 0 20.1-8.5 22-14.7.3-1.3 5.2-5.9 10.8-10.4 9.6-7.7 10.3-8.6 14.6-17.3 6.1-12.2 6-14.6-1.3-29.6-3.1-6.3-5.6-12.2-5.6-13.1 0-3-6.2-14-10.9-19.2-5.8-6.4-7.7-9.2-12.5-18.1-4.1-7.7-4.4-11.9-1-12.4 1.7-.2 2.8.8 4.9 4.5 1.5 2.6 3.8 5.9 5.1 7.3 1.2 1.4 3.4 4.8 4.8 7.6 3.1 6.3 12.6 16.1 16.4 17 1.5.4 3.7 1.3 4.9 2.1 1.3.9 6.3 1.6 13 2l10.9.6 2.5-3c1.4-1.7 3.7-3.4 5-3.7 2.1-.6 7.4-2.9 15.8-7 1.3-.6 3.6-2.4 5-4.1 5.9-6.8 14.2-14.3 17.8-16.2 2.1-1.1 6.3-3.4 9.3-5.1 7.8-4.4 19.1-7 36.8-8.5l15.3-1.3-.6 3c-.4 1.7-1.2 5.3-2 8.1-.8 2.7-2.3 9.2-3.5 14.3-1.2 5.1-3.7 14.2-5.7 20.3-3.3 10.3-3.6 13.9-1.4 13.9.5 0 1.7-3.3 2.6-7.3 1.8-7 6.2-22.2 12.2-41.7 2.8-9 3.1-9.5 6.4-10.5 1.8-.5 4-1.4 4.7-1.9 2.6-1.6 3.5 1 1.9 5.6-3.7 10.2-7.9 24.9-7.3 25.5.3.4-.1 1.4-1 2.4-.8.9-1.7 3.6-1.9 6-.3 2.4-.9 5.3-1.5 6.4-.5 1.1-2.1 6.5-3.4 12-1.9 7.5-2.2 10.1-1.3 10.7 1.9 1.2 2.7.9 2.7-1 0-2.4 2.7-10.9 4.5-14.3.8-1.4 1.2-2.8.9-3.1-.4-.5.6-5.5 2.2-11.3.3-1.1.8-3.4 1.1-5 .2-1.7.8-3.9 1.3-5 1.7-3.9 8.3-29.1 8.6-33.3.5-4.7-.2-5.4-1.6-1.7-.5 1.4-1.7 2.5-2.6 2.5-1 0-2.5.7-3.4 1.5-1.5 1.3-2.2 1.4-4.5.3l-2.8-1.3 2.4-.6c2.4-.6 2.4-.6-.6-1.8-5.5-2.2-10.6-8.6-12-14.9-.7-3.5-1.6-4-3.5-1.7s-9.9 7.5-11.5 7.5c-.8 0-1.7.4-2 1-2.2 3.6-26.6 11.6-31.4 10.3-2.2-.6-6.4-8.4-5.1-9.7 1.5-1.5 3.8.1 3.8 2.9 0 3.3 1.2 4.7 3.1 3.5 1.3-.7 1.2-1.7-.4-6.5-1.7-4.9-1.8-5.7-.5-6.5 2.2-1.4 2.6-1.3 4.5 1.7 1.5 2.2 1.6 3.4.8 6.4l-.9 3.6 6.7-3.3c3.8-1.9 7.3-3.4 7.9-3.4 1.2 0 11.4-5.2 20.5-10.5 3.3-1.9 6.5-3.5 7.2-3.5.6 0 2.3 2 3.7 4.4 1.4 2.4 3.2 4.6 4.1 5 .8.3 1.5 1.2 1.5 2 0 1.7 7.8 9.6 9.5 9.6.6 0 1.4-.3 1.8-.6 1-1-2.1-7.6-4.3-9.1-2.5-1.7-2.6-5.7-.2-7.5 1.1-.8 1.7-2.5 1.6-4.7-.1-1.9.8-5 1.8-6.8 1.1-1.8 1.7-3.3 1.3-3.3-.4 0-.2-.6.4-1.3.6-.8.9-1.6.6-1.8-.8-.8 1.6-8.1 3.1-9.6.8-.8 1.7-2.6 2-4.1.3-1.5 1.4-5.6 2.5-9.1 1-3.5 1.9-7.5 1.9-8.8 0-1.3.7-2.6 1.6-3 .8-.3 1.3-1.2 1-2-.3-.7.3-3.6 1.4-6.4 2.6-6.5 2.5-7.3-.6-8.8-2.2-1-3.1-.9-5.1.4-2.5 1.7-2.3 3.5.5 3.5 3.2 0-3 4.8-8.8 6.9l-5.5 2h4.2c2.3.1 4.5-.4 4.8-.9.7-1.2 4.5-1.4 4.5-.2 0 .4-1.5 2.2-3.2 3.9-3.2 3-9.9 5.3-15.2 5.3-1.4 0-2.6.5-2.6 1.1 0 1.7 11.8.6 15.9-1.4 1.9-.9 3.6-1.5 3.9-1.3.2.3-.3 2.6-1.1 5.3-.8 2.6-2 6.7-2.6 9-1.5 5.5-3.8 6.7-11.2 5.9l-5.7-.6-3.2 5c-1.9 2.9-3.9 5-5 5-3.3 0-9.4-9.5-13.6-21.1-2.5-6.9-2.5-8.9 0-8.9.7 0 2.1-.9 3.1-2 2.2-2.5 3.8-2.1 4.5 1 1.1 4.6 2.6 2.9 4.2-4.9 1.3-6.2 2.5-9.1 5.7-13.5 2.2-3 4.7-5.9 5.3-6.3 1.9-1.2 6.2-7.4 7.7-10.9 1.8-4.5 7.2-7.2 15.9-7.7 4-.3 7.3-.6 7.4-.8 0-.2-.2-1.5-.7-2.8-.7-2.2-1-2.3-6.3-1.6-8.9 1-13.9 3.3-16.4 7.4-1.2 2-2.4 3.8-2.8 4.1-2.8 2.5-9.3 11.7-11.8 16.6-3.1 6.2-10.1 14.4-12.2 14.4-1.8 0-15-7.1-15-8.1 0-1.4 4.3-1.1 6.5.5 2.7 1.8 7.7 2.7 7.3 1.2-.6-1.9-13.8-7.7-18.8-8.3l-4.7-.5-3.4 5.7c-1.9 3.2-3.9 6.6-4.5 7.6-.6 1.1-1.8 2.7-2.7 3.7-1 1-1.7 2.1-1.7 2.5 0 .3-1.4 2.7-3.1 5.2-2.2 3.2-2.8 5-2.1 5.7 1.5 1.5 2.5.6 9.2-8.3 3.4-4.3 6.5-7.9 6.9-7.9.5 0 2.5 3.4 4.4 7.5 2.2 4.6 4.2 7.5 5.2 7.5 1.1 0 1.3-.4.6-1.8-3.9-7.1-7.1-14.9-7.1-17.1 0-3.5 1.1-7.1 2-7.1 1.8 0 4 3.3 4 5.8 0 1.5 1.2 4.7 2.6 7.2 1.4 2.5 3.3 6.3 4.2 8.4 1.5 3.9 8.8 16.7 12.3 21.8 1.1 1.5 1.9 3.6 1.9 4.6 0 1 .9 2.7 2 3.7 1.8 1.6 3 8.5 1.4 8.5-1.4 0-4.4-2.2-4.4-3.3 0-.7-1.9-4.1-4.2-7.7-2.3-3.6-5.7-9.2-7.4-12.5-1.8-3.3-4.2-6.6-5.5-7.5l-2.3-1.5 2.1 3.5c4.9 8 11.3 18.9 11.3 19.4 0 .3-2.8 1.8-6.2 3.4-3.5 1.6-8.4 4.6-11.1 6.6-2.6 2-4.9 3.6-5.2 3.6-.2 0-3.2 1.9-6.5 4.1l-6 4.2-3.6-3.4c-1.9-1.9-5.3-6.4-7.5-10-4-6.7-8.4-11.7-9.5-10.7-.8.8 3.1 8.1 6.4 12 1.5 1.8 3.6 5.2 4.6 7.5 1 2.3 2.7 5 3.7 5.9 2.4 2.2 2.4 4.1 0 5.3-1 .6-3.4 2.9-5.2 5.2-3.1 4-3.2 4.2-1.4 5.5 1 .8 3.5 1.4 5.4 1.4 3.3 0 3.9.5 6.5 5.1 1.5 2.8 2.4 5.4 2 5.8-.5.4-4.7 3.2-9.4 6.1-7.9 4.9-14.4 10.2-24.7 20-2.2 2.2-4.8 4-5.7 4-.9 0-3.8 1.4-6.5 3-5.5 3.4-11.2 4.8-22.4 5.5-6.3.4-7.9.2-8.3-1-.4-.8-1-1.5-1.4-1.5-1.5 0-15-13.7-15-15.2 0-.9-2-3.3-4.5-5.4-2.7-2.2-5.7-5.9-7.2-9-2.3-4.6-3.2-5.5-7.4-7-3.3-1.2-4.8-2.3-4.6-3.3.1-1.2-.9-1.7-4.3-1.9-3-.2-5.6-1.1-7.5-2.7l-3-2.4 7.3-.1c3.9 0 7.2-.4 7.2-.8 0-.5-4.6-1.8-10.2-2.8-8-1.5-10.4-2.3-10.6-3.7-.2-1 .3-1.7 1.3-1.7.9 0 2.3-1.3 3.3-2.9.9-1.6 2.9-3.7 4.4-4.6 3-1.7 3.5-3 1.6-4.1-.7-.4-3.3 1.7-6.7 5.4-6.6 7.2-8.6 7.8-9.4 2.5-.9-5.4-5.8-16.3-7.4-16.3-1.8 0-1.6 2.3.6 7.3 1.1 2.3 2.2 6.8 2.6 9.9.6 5.3.5 5.6-1.4 5.1-1.1-.3-2.6-1.1-3.2-1.9-1.7-2.1-2.9-1.7-2.6.8.2 1.9-.4 2.3-3.8 2.9-2.2.3-5.3 1.1-6.9 1.8-5.8 2.4-19.6-3.6-19.6-8.5 0-.6-.7-2.5-1.6-4.2-1.9-4-2.6-14.4-1.2-20.2.9-4 4.8-12.8 8.5-19.5 2.2-3.9 9.6-10.6 15-13.7 2.8-1.6 5.6-3.5 6.3-4.2.6-.8 3.5-2.4 6.5-3.6 5.6-2.3 6.8-4.5 1.6-3-8.4 2.4-20.3 10.1-29.8 19.2-2.6 2.4-8.7 13.1-9.6 16.8-.3 1.4-1.5 6.4-2.7 11.2l-2 8.7 5.5 10.9c5.2 10.4 5.7 11 10 12.6 3.6 1.4 6.1 1.6 12.3 1.1 4.2-.4 8.7-1.1 10-1.6 3.4-1.3 2.8 1.4-1.2 5.8-3 3.4-8.9 14.6-12.5 24-1.2 2.9-1.5 3.1-4.9 2.6-11.1-1.7-27.9-15.4-47.7-38.7-2.7-3.3-6.7-7.9-8.9-10.3l-3.8-4.3 4.1-4c6.8-6.7 5.4-9.9-4.4-10-4.5 0-10.5-3.2-10.5-5.5 0-.9.9-3.4 2.1-5.7l2.1-4.1 5.2.7c2.9.3 9-.1 13.9-.8 8.8-1.5 17.9-5.6 31.7-14.4 3-2 6.2-3.6 7-3.7.9-.1 5.5-2.8 10.4-6.1 4.8-3.2 10.3-6.9 12.1-8.1 4.6-3 14.5-7 19.7-7.8 2.4-.3 6.5-1.3 9.1-2.2 5.5-1.7 8.9-1.3 16.2 1.9 3.9 1.7 7.1 4.6 14.8 13.3 5.3 6 11.1 13 12.8 15.5 1.7 2.5 8.3 9.6 14.7 15.8l11.6 11.2-2.1 2.1c-1.7 1.8-3.5 2.1-12.2 2.3-5.5.2-10.4.6-10.8.9-1.6 1.7 1.7 2.2 13.9 2.3 11.9.1 13.1-.1 13.6-1.8.6-2.3 2-2.3 5.2.1l2.4 1.9-1.7 4.9c-1.8 5-2.1 14.9-.9 23.3.5 3.3 1.2 4.6 2.6 4.8 1.1.2 1.6 0 1.2-.6-2.5-4-.8-26.1 2.4-31.5 3.2-5.5 6.7-7.4 16.3-9.4 1.5-.3 4.1-1.8 5.8-3.4 1.7-1.6 3.5-2.9 3.9-2.9.5 0 1.6-1 2.4-2.1 1.9-2.7 10.6-12.7 12.8-14.7.9-.9 1.5-1.9 1.2-2.3-.9-1.6-5 1.3-10.4 7.5-8.1 9.1-17.1 15.3-23.4 16.1-2.8.4-6 1.4-7.1 2.1-3 2.2-4.3 1.7-9.9-3.3-2.8-2.5-6.5-5.5-8.2-6.5-1.7-1-4.4-3.7-5.8-6.1-1.5-2.3-5.7-6.5-9.3-9.2-3.5-2.8-8.9-8.2-11.9-12.2-3.1-4-7.7-9.2-10.5-11.7-2.7-2.4-4.9-4.7-4.9-5 0-.3 1.8-1.1 4-1.7 5.3-1.6 6.3-3 6.2-8.4-.1-5.4-1.2-7.6-4.6-9.4-2.6-1.4-4.3-4.4-2.9-4.8 3.2-1.1 11.1-7.4 12.7-10.2 2.5-4.3 2.8-16.8.5-18.1-.8-.5-2.5-1.8-3.8-2.9-1.7-1.5-3.8-2.1-7.1-2.1-3.8 0-5.1-.5-7.5-3-1.6-1.7-3.5-3-4.2-3-.8 0-1.3-1.2-1.3-3.3 0-1.8-.9-6-2.1-9.2-1.2-3.3-2.3-7.1-2.5-8.5-.3-1.4-1.4-3.7-2.4-5.2-2.4-3.3-2.5-4.8-.4-4.8 3.2 0 12.3-8.2 17.6-15.9 4.3-6.1 6.4-12.6 6.3-19.4 0-5.8 0-5.8-5.9-11.2-3.3-3-7.5-6-9.5-6.6-2-.6-4-1.5-4.6-1.9-2-1.5-13.8-4-19.1-4-5.3 0-5.8-.2-10.9-5.1-4.7-4.4-6.2-5.2-12.2-6.5-8.3-1.7-8.3-1.7-8.3-.1 0 .8 2.5 2.1 5.8 3.1 7.6 2.3 11.5 4.1 13.4 6.3 1.8 2 6.1 10.3 5.4 10.3-.3 0 .2 1.9 1 4.2 1.8 5.2 1.3 6.7-3.5 10.6-3.7 3-16.7 10.2-18.4 10.2-2.2 0-11.7 5.3-11.7 6.6 0 2.2 2.8 1.7 10-1.8 3.6-1.7 7.3-3.5 8.3-4 3.4-1.6 6.2-3.4 11.5-7.1 5.8-4.2 6.7-4.2 14.9-.9 3.4 1.4 4.7 2.7 6.7 6.7 1.3 2.7 2.7 5.8 3 6.9.5 1.5.9 1.6 2.2.5 3.5-2.9-1.2-10.4-9.8-15.9-6.5-4.1-6.1-5.3 1.3-4 5 .9 5.7.7 3.9-1.5-.8-1-3-1.5-6.6-1.5-4.2 0-5.4-.3-5.4-1.5 0-3.1 9.3-3.9 14.7-1.3 3.5 1.7 5.2.3 1.8-1.4-3.1-1.6-10.2-3-16.4-3.2-3.8-.1-6.3-2.8-4.4-4.7 1.7-1.7 13.4.7 21.8 4.6 12.2 5.6 19 13.2 17.6 19.6-1.1 4.8-2.9 7.9-4.6 7.9-.9 0-1.5.9-1.5 2.3 0 6.1-23 21.8-41 28-9 3-20.9 5.4-32.3 6.4-10.9 1.1-37.5.6-46.2-.7-3.8-.5-10.2-1.5-14.2-2-9-1.4-17.2-4.6-25.2-9.9-3.4-2.2-6.6-4.1-7-4.1-1.6 0-7.2-6.9-8.1-10.1-3.1-10.5 8.7-25.5 26-32.8 3-1.3 6.3-2.7 7.3-3.2 1.5-.8 1.7-.6 1.1 1.8-1 4.8-1.2 5-4.1 5.7-4 1-11.5 5.5-10.8 6.6.3.5 2 .2 3.8-.7 6.1-3.1 6.7-3.3 8.6-3.3 1.5 0 1.9 1 2.4 4.7.3 2.6 1.2 5.2 2.1 5.8.9.7 1.6 1.9 1.6 2.8 0 1.6 2 2.7 4.8 2.7.9 0 3 .7 4.6 1.5 4.8 2.5 13.6 4.3 24.6 5.1 6.1.4 11.3 1.2 12.5 2 1.1.8 4.3 1.4 7.2 1.4 4.5 0 5.3-.3 5.3-1.8s-.8-1.9-3.7-2c-2.1-.1-6-.7-8.8-1.3-2.7-.7-9.7-1.3-15.4-1.5-12.1-.3-16.4-1.7-22.1-7.3-3.8-3.6-4.3-6.2-1-4 .8.5 2.4.9 3.5.8 1.2 0-.1-1-3.2-2.5-2.9-1.4-5.4-3.3-5.7-4.2-.2-.9-1-4.1-1.6-7.1l-1.3-5.4 4.9-4.4c6.1-5.5 17.1-10.4 32.2-14.3 6.4-1.6 29-4 32.3-3.3 2.2.4 2.9.2 2.9-1 0-2.1-4.2-2.7-17.2-2.3-10.8.4-20.2 2.2-31.1 6.2-2 .8-4.5 1.4-5.3 1.4-3.7 0-13.9 6.1-16.2 9.6-2 3.1-2.7 3.5-5 2.9-4.2-1.2-5.4-.9-12.3 2.9-15.3 8.4-33.2 33.8-27.3 38.7.9.7 2.4 3 3.5 5 2.3 4.7 8.2 10.5 13 13 2 1 3.9 2.7 4.2 3.8.4 1.8.9 1.9 3.4 1 3.5-1.2 10.8.8 10.8 3 0 2.3-7.4 4.2-14.8 3.9-8.1-.3-8.6.1-11.3 9.9-1.7 6.4-1.8 6.5-4.8 5.9-4.2-.9-7.5-4.2-7.3-7.4.1-1.8-.4-2.7-1.6-3-4.2-.9-7.1 9.1-4.3 14.9 2.5 5.2 7.6 8.2 15.4 8.8 7.4.7 13.2-.6 13.2-2.8 0-2.2 5.8-10.7 8.5-12.5 3.6-2.4 3.7 0 .4 7.4-1.6 3.5-3.9 11.2-5 17-1.7 8.4-2.7 11.1-4.8 13.3-2.6 2.7-2.8 2.7-8.4 1.6-3.2-.7-6-.9-6.3-.7-.3.3.4 2.1 1.5 3.9 1.8 2.9 2.9 3.5 7.8 4.4l5.8 1 1.7 6.5c.9 3.6 1.7 7.4 1.8 8.6 0 2.1 2.9 12.5 5.6 20.1.8 2.3 2.8 5.9 4.3 8 2.9 3.9 5.5 5 16.6 6.7 4.1.6 12.3-1 14-2.8.8-.8 3.8-2.2 6.7-3.1 7-2.3 15.2-6.1 21.3-10 5.6-3.6 29.4-15.7 34-17.3 5.1-1.8 10.9-3.2 9.9-2.3-.5.4-4.7 2.8-9.4 5.2-4.6 2.4-9.1 5.2-10 6.1-.8 1-5.3 3.7-10 6.2-4.7 2.4-11.4 6.2-15 8.5-18.2 11.4-34.2 15.3-48.3 11.6-2.6-.7-2.8-.6-2.1 1.9.7 3.1-1 5.8-3.3 4.9-1.1-.4-1.4-1.5-1-3.9.5-2.8.2-3.4-1.6-4-1.2-.3-3-1.3-4-2.2-1.6-1.4-2.1-1.3-6.1 1.6-2.4 1.8-4.9 3.2-5.4 3.2s-2.1 1.5-3.6 3.4l-2.5 3.4 2.8 3.8c1.6 2.2 4.7 5.6 6.9 7.8 2.4 2.3 3.8 4.4 3.5 5.3-.4.9.2 1.6 1.6 2 1.1.3 2.1 1 2.1 1.6 0 .6-1.8 4.6-4 8.9-6 11.5-9 27.1-9.2 48.3-.1 10.1.9 20.5 2.1 20.5.3 0 .7-9.8.7-21.8l.1-21.7 4.1-12.2c4.5-13 8.4-20.5 11.7-22.2 1.5-.8 3.5-.6 7.9.8 5.8 1.8 6.2 2.1 17 15.7 8.9 11.1 13.5 15.9 23.1 23.7 6.6 5.3 12.7 10 13.5 10.4.8.3 4.1 2.8 7.2 5.4 3.1 2.7 6.5 4.9 7.5 4.9s3.6 1.2 5.8 2.7c3.9 2.7 7.1 3.8 20.1 6.8 3.4.8 8.2 2.8 10.7 4.5 6.8 4.6 7.8 3.6 1.9-2-5.3-4.9-9.6-6.8-19.4-8.5-7.9-1.3-4.6-4.4 4.9-4.6 3.2-.1 9.1.5 13.1 1.4 3.9.8 7.2 1.2 7.2.8 0-1.3-12.4-4.5-16.7-4.2-2.4.1-4.3-.2-4.3-.6 0-.5 2.1-2.6 4.7-4.8 6.8-5.8 8.5-7.6 8-8.2-.3-.2-1.4 0-2.5.6-1.6.8-2.1.7-2.6-.5-.3-.8.1-1.7 1-2.1.8-.3 1.3-1.2 1-1.9-.6-1.6 1.8-8.8 4.1-12.4l1.7-2.5.6 2.5c.3 1.4 1.4 2.7 2.5 2.9 6.8 1.3 16.9 13.6 19.4 23.6 1.3 5.1 5 12.3 9.5 18.4 3.6 4.8 3.3 1.9-.5-4.8l-3.1-5.6 5.1 5c2.7 2.7 5.6 6.3 6.2 8 .7 1.6 2.5 5.7 4.1 8.9 1.5 3.3 2.8 6.5 2.8 7.2 0 .7 1.6 4 3.5 7.2 5.8 10 6.9 19.2 3.4 28.6-1.2 3-3.6 6.8-5.3 8.3-6.3 5.6-14.2 12-16.9 13.8-1.5 1-3.4 3.3-4.2 5.2-1.8 4.3-8.4 10.3-11.3 10.3-1.2 0-2.5.7-2.8 1.5-.9 2.2-6.9 3.7-16.3 4-9.1.3-15.4-1.1-20.3-4.7-5.2-3.6-14.7-16.7-19.1-26-2.4-5.1-6-11.7-8-14.7-2-2.9-3.7-5.8-3.7-6.3s-2-4.2-4.4-8.2c-5.7-9.4-14.7-27.3-15.2-30.4-.3-1.4-1.1-3.7-1.9-5.3-3.1-5.9-4.7-12.1-3.5-13.3.8-.8 1.4-.7 2.1.7.6.9 3.3 4 6.2 6.9 2.8 2.8 5.8 6.3 6.7 7.8 1.7 3.1 6.1 10.1 10.6 16.8 4 6 15.1 12 24.3 13.1 5.4.6 7.4 1.6 16 7.5l9.8 6.7h7.4c10.6 0 21.7-2.4 23.4-5 .3-.6 1.4-1.1 2.3-1.1 1.6 0 6.6-3.9 8.9-7 .6-.8 1.4-3.2 1.8-5.3 1.1-5.5-1-4.7-3 1.2-1.4 4.4-2.1 5.1-6.5 7-2.8 1.2-7.2 2.6-9.9 3.1-2.8.5-6.5 1.6-8.4 2.4-2.6 1-5.2 1.2-10.4.6-10.6-1.1-11.5-2-12.8-12.8-.2-1.2-1.7-4.4-3.4-7.1-3.5-5.3-3.7-6.1-1.8-6.1 1.7 0 6 4.7 8.1 8.7.9 1.8 2.3 3.3 3.2 3.3 1.2 0 1.3-.4.3-2.3-2-3.7-11.1-13.7-12.5-13.7-.7 0-1.8-.9-2.4-2-1-1.8-8.9-6.4-9.7-5.7-.2.2 1.8 2.8 4.4 5.8 2.7 3 5.9 7.7 7.2 10.4 1.3 2.8 3 6.2 3.8 7.7 2.4 4.8-.9 7.8-4.7 4.3-1-.9-5-2.2-9-3.1-11.5-2.4-18.1-6.4-25.7-15.9-5-6.2-18.6-26.6-23.8-35.5-1.6-2.8-3.5-5.7-4-6.3-.6-.7-3.2-4.6-5.8-8.7-2.6-4.1-6.2-9.5-8.1-12-1.8-2.5-5.5-7.9-8.4-12.1-5.3-7.8-8.8-11.6-9.8-10.6-.8.8 1.2 4.2 6.5 11.2 4.5 5.7 9.8 13.3 11.3 15.8.4.7 2.6 4.6 5 8.7 4.3 7.3 5.9 13 7.4 26.5.3 2.2 1.3 5.8 2.4 8 2.9 6.3 7 16.5 7 17.6 0 2 7.8 16.8 13.4 25.4 8.6 13.3 9.9 15.4 13.1 22 3.7 7.7 8.6 15.2 15.5 23.9 3 3.8 7.5 9.5 10 12.6 11.5 14.7 18.4 23 19.7 23.4 2.6 1 1.6 3.2-5.8 11.8-2.5 3-2.6 3-5.1 1.4-1.4-.9-3.8-4-5.3-6.9-1.5-2.8-5.1-7.9-7.9-11.2-8.5-9.9-12.3-15.3-22.8-32-3.8-6.1-7.4-11.2-7.9-11.3-.5-.2-.9-.8-.9-1.3 0-.8-1.9-3.9-10.7-17.5-1.1-1.8-1.2-1.8-1.2.4-.1 3.4 3.2 9.7 10.3 19.7 3.6 4.9 10.3 14.6 15 21.5 4.7 6.9 13.5 19.2 19.5 27.5 6.1 8.2 11.1 15.7 11.1 16.5 0 2.8-6 12-7.8 12-2.6 0-3.7-1.1-7.1-7-1.8-3-5.5-9.1-8.2-13.5-6.3-10.2-9.3-16.4-31.2-64-4.7-10.4-4.5-10-5.2-9.3-.5.5 1.7 8.2 3.5 12.3.5 1.1 2.5 5.8 4.4 10.5 3.4 8.5 20.3 42.2 23.6 47 .9 1.4 3.4 5.6 5.5 9.5 2.1 3.8 4.3 7.7 5 8.5.7.8 1.5 3.1 1.9 5.1.4 2.1 1.6 4.9 2.7 6.3 4.2 5.4-1.5 10.6-11.5 10.6-6.5 0-17.8 2.3-18.3 3.7-.3.7.1 2.1.8 2.9 1.3 1.5.2 1.6-13.1 1.2-10.3-.4-15.2-.2-17 .7-3.9 1.9-16 2.5-19.5 1-1.9-.8-5.5-1.1-10.1-.7-8.8.6-13.4-.2-16.2-2.8-1.8-1.7-2.1-2.8-1.6-6.8.9-8.3 3.5-23.6 4.6-27.2 1.3-4 1.9-85 .7-85-.7 0-1.5 3.2-2.2 8.9-.3 2.1-2.3 2.4-4 .6-1.2-1.2-1.4-2.2-.7-3.9.7-1.9.5-2.6-.7-3-.9-.4-1.8-.4-2.1-.2-.8.9-14.9 43.9-16.2 49.6-.7 3-1.8 8.4-2.5 12-.8 3.6-1.8 8.3-2.3 10.5-.6 2.2-1.5 6.9-2.2 10.5-1.1 6.3-3.2 11-4.9 11-1.7 0-30.2-28.8-29.2-29.5 1.1-.6 4.7 1.6 10 6 6.1 5 13.8 12.1 15.4 14.2 2.3 2.8 4.7 3 4.7.3 0-1.1-.4-1.9-.9-1.7-1 .2-17.1-17.6-17.1-19 0-.4-1.3-2.4-2.8-4.3-5.3-6.4-6.9-12-3.6-12 1.2 0 1.4-.5.9-1.8-.4-.9-1-2.9-1.3-4.5-.3-2.1 0-2.7 1.3-2.7s1.6-.6 1.2-2.1c-.9-3.4.3-8 2-7.7.8.2 3.3 3.7 5.5 7.8s5.5 9.3 7.3 11.5c1.8 2.2 3.8 5 4.4 6.2 1.2 2.4 4.1 3.2 4.1 1.2 0-.6-1.7-3.1-3.8-5.5-5.5-6.1-13.3-18-14.5-21.9-1-3.5-.3-8.5 1.3-8.5.5 0 2.3 2.7 4 5.9 3.7 7.4 11.6 18.9 14.1 20.4 2.2 1.3 2.6 6.8.9 11.3-1.2 3-.5 6.3 1 4.8.5-.5 2.2-7.2 3.8-14.9 3.7-17.3 8.7-35.3 11.8-42.2 1.3-2.8 2.4-5.6 2.4-6.1s.7-1.5 1.5-2.2c.9-.7 1.4-1.9 1.1-2.6-.3-.7-.1-1.6.4-1.9 1.2-.7-2.2-6.5-3.8-6.5-1 0-.8.9.7 3.4 1.8 2.9 1.9 3.5.7 4.5s-2 .5-4.5-3c-1.7-2.3-3.1-4.8-3.1-5.5 0-.7-.5-1.4-1.1-1.6-.6-.2-1.3-1.6-1.4-3.1-.4-3-1.9-5.4-4.8-7.5-.9-.7-1.5-1.7-1.2-2.2.3-.5 0-1.8-.7-2.9-2.1-3.5.3-3.7 3.1-.4 1.5 1.8 3.4 3.3 4.2 3.3.8 0 2 .5 2.6 1.1.8.8 1.3.7 1.8-.2.5-.7.1-1.7-.8-2.4-1-.7-1.7-2-1.7-2.9 0-.9-1.1-2.1-2.5-2.6-3.5-1.3-3.3-3.4.3-2.6 2.5.5 2.5.5.7-.7-2.7-1.6-11.7-10.9-11.1-11.4.2-.3 1.5.1 2.8.8 1.2.7 3.7 1.4 5.3 1.6 1.7.2 4.9.6 7.3.9 4.7.7 5.4-.5 2.6-4.4-1.9-2.8-2.8-2.8-5.3 0-1.9 1.9-2.3 2-4.6.8-2.6-1.4-16.7-15.3-17.3-17-1-2.8 6.9.1 11.2 4.2 1.7 1.5 3.9 2.8 5 2.8 2.1-.1 2.1-.1.2-1.5-1.1-.8-6.1-5.2-11.3-9.7-8.7-7.7-10.8-10.8-8.3-12.3.6-.3 1 0 1 .8 0 1.1 5.1 5.7 6.4 5.7.3 0 3.1 2.5 6.2 5.5 5.4 5.1 8.5 7.1 6.7 4.2-.4-.6-.8-1.9-.8-2.6 0-.8-2-3-4.5-4.9-11.1-8.5-17.8-15.2-15.1-15.2.4 0 3 2.2 5.9 4.8 5.3 4.9 12.9 9.5 14.4 8.6.5-.3-1.6-2.3-4.7-4.5-6.2-4.3-18.5-16.2-18.5-17.8 0-.6.6-1.1 1.3-1.1 1.5 0 16.7 14.4 16.7 15.9 0 .6.5 1.1 1.1 1.1.5 0 .7-.5.4-1.1-.4-.6-.1-.9.7-.7 2.6.6 1.9-1.4-1.5-4-9.7-7.6-18.7-15.6-19.2-17.1-.6-2.1 1.1-28.7 2.6-40.1 1.4-10.1 1.6-17.5.6-21.3-.6-2.3-1.2-2.7-4.5-2.7-5.3 0-6.8 1.7-3.8 4.5 2 1.8 2.3 3.2 2.5 9.3.1 4-.1 7.2-.4 7.2-.7 0-4.9-9.6-5.9-13.3-.3-1.5-1.1-2.7-1.6-2.7-1.5 0-1.2 1.6 1.1 7.3 4.7 11.6 5.7 14.4 6.4 17.7.7 3 .6 3.3-.7 2.2-.8-.6-3.3-4.3-5.6-8-3.8-6.4-5.4-11.2-5.6-17.1-.2-3.8-2.6-3.9-2.6 0 0 3.3 1.8 10.7 3.1 12.4 1.8 2.5 5.7 10.5 5.1 10.5-1.7 0-10.5-11.1-13.4-17-2.3-4.8-3.3-6-3.5-4.4-.2 1.1 1.5 6 3.8 10.8 3.3 6.8 5.1 9.3 8.5 11.8 4.2 3 5.7 5.8 3.2 5.8-2.6 0-19.6-18.7-20.7-22.6-.8-3.2-3.1-4.4-3.1-1.7 0 2.1 7.9 12.8 15.9 21.4 3 3.3 5.2 6.1 5 6.3-.2.2-2.2-.2-4.4-.9-4.5-1.6-12.7-9.8-18.1-18.2-1.9-2.8-4.3-5.5-5.4-5.8-2.5-.8-5.7-7.7-10.6-22.4-3.6-10.9-3.8-16.4-.7-17.5 2.5-1 3 0 3.7 7.1.6 5.6 3 15.1 5.3 21.3.5 1.3.7 1.2 1-.2.2-.9-.6-5-1.8-9-2.6-9-3.5-20.8-1.4-20.8 2 0 2.5 1.2 2.6 6.6.1 2.7.5 6.5.9 8.4.4 1.9 1.1 4.7 1.4 6.2.6 2.7 2.9 3.8 4 2 .3-.5-.6-5.3-2-10.7-2.3-9-2.4-13.5-.5-13.5.5 0 1.2 2.3 1.5 5.2.8 5.6 3 10.8 4.7 10.8.7 0 .8-.7.4-1.8-.8-1.7-.8-2.5-.3-7.2.2-2-.1-2.4-1.5-2.2-1.6.3-1.8-.1-1.2-3 .9-4 1-4.2 3-3.5.9.4 1.5 1.8 1.5 3.6 0 3.3 3.7 16.1 5.1 17.5 1.8 1.9 1.8-.2 0-5-1.9-4.9-2.6-10-2.3-16.2.2-3.8 2.2-4.4 2.2-.6 0 1.6.5 2.4 1.3 2.1.7-.2 1.1-1.6.9-3.2-.6-5.2 2.1-2 5.3 6.5 1.8 4.6 3.7 8.6 4.3 8.8 1.4.4 1.6-1 .3-2.4-1.4-1.5-4.9-12.6-5.2-16.6-.6-6.6 1.4-4.5 4 4.2 2.8 9.2 3.7 11 5.3 11 .7 0 .7-.4 0-1.3-1.5-1.8-5.2-15.8-5.2-19.5 0-2.7.4-3.2 2.3-3.2 2 0 2.5.9 4.1 7 .9 3.8 2.9 8.6 4.3 10.7 1.4 2.1 3 5 3.5 6.5 1.1 3.2 2.3 3.6 3.2 1.1.4-1-.4-3-2.3-5.3-5.3-6.6-7.1-11-7.1-17.3 0-7.5 1.7-7.2 4.6.9 3.3 9.3 8 18.7 10.3 20.8 3 2.7 2.6.8-1-4.8-3.7-5.9-6.7-13.8-7.1-18.6-.3-3.4-.2-3.5 3-3.2 4.4.3 3.8-2-.8-2.9-6.9-1.5-18.4 1.5-22.8 5.9-5.8 5.8-12.1 9-20.4 10.4-5.8 1-7.7.9-13.5-.5-5.5-1.5-7.8-1.6-12.2-.7-5.7 1.1-5.7 1.1-13.7 7.7-5.3 4.5-10.9 7.3-14.4 7.3-1.1 0-2 .4-2 .8s-3 .5-6.7.1c-6.1-.7-7-.5-9.1 1.4-2 1.9-2.6 2-4.4.8-1.2-.7-3.5-1.5-5.2-1.8-1.7-.3-4.4-1.2-5.9-2-1.6-.8-3.9-1.3-5.2-1.1-1.3.1-3.1-.4-4.2-1.3-1-.8-4.6-2.4-8-3.4-5.1-1.6-6.2-2.4-6.7-4.5-.8-4.3-4.7-15.3-6.8-19.5-4.4-8.8-6-11.5-6.7-11.5-.4 0-2.7-1.6-5-3.6s-5.7-4-7.4-4.4c-3.3-.7-3.4-1-2.2-6.6.7-3 .5-3.3-2.9-4.4-4.3-1.4-4.8-4-1.1-6.4 2.6-1.7 3.4-4.6 1.3-4.6-2.2 0-12.1-5-13.3-6.7-.9-1.2-1.4-1.3-1.9-.4-.5.7-.6 1.3-.5 1.4.2.1 1.8 1.2 3.6 2.5 1.8 1.2 3.7 2.2 4.2 2.2s1.7.7 2.6 1.6c1.4 1.5 1.4 1.8-1 4.1-1.4 1.4-2.5 2.9-2.5 3.2 0 .4 2 2 4.5 3.6 3.7 2.3 4.4 3.2 3.9 4.9-1 3.3-2 3.9-4.5 2.6-1.4-.8-4.4-1.1-8.1-.7-3.2.3-5.8.2-5.8-.2 0-.3-1.6-2.4-3.5-4.6-1.9-2.2-3.5-4.3-3.5-4.7 0-.3-1.1-1.9-2.4-3.5-7.1-8.6-14.9-29.3-16.2-43.3-.9-9.2 2.1-22.6 7.6-34.3 4-8.5 20.6-25 29.5-29.4 2.2-1.1 5.4-2.8 7-3.7 1.7-.9 3.9-1.6 5-1.6 1.2 0 4.6-.7 7.8-1.5 19.1-5 37.2-2.8 54.7 6.6 4.9 2.6 20 15.5 20 17.1 0 .9-6.1 2.8-7.1 2.2-.5-.3-.9-1.4-.9-2.4 0-2-1.6-3.5-2.4-2.2-.2.4-.1 2.3.3 4.2.6 3 1.3 3.7 5.1 5 3 1 5.2 2.7 6.8 5 3.3 5 6.4 8 7.3 7.4 1.4-.8-.2-11.5-2.2-15.4-4.3-8.4-7.7-12.1-16.6-18-5-3.3-9.6-6-10.2-6-.7 0-3.1-1-5.4-2.1-13.4-6.9-25.2-8.8-40.6-6.8ZM174 47.7c0 1.3-.3 1.3-1.5.3-.8-.7-1.5-1.9-1.5-2.7 0-1.3.3-1.3 1.5-.3.8.7 1.5 1.9 1.5 2.7Zm280.4 47.9c.9.8 1.6 2.1 1.7 2.7 0 .7.2 2.4.4 3.9.2 1.6 0 2.8-.5 2.8-1.3 0-10-6-10-6.9 0-1.1 4.1-4 5.7-4 .6-.1 1.9.6 2.7 1.5Zm-10.3 5.6c2.3 1.3 5.5 3.6 7.3 5.3 1.7 1.6 4.8 4.4 6.9 6.2 3.4 2.9 3.7 3.6 3.7 8.4 0 3.5.6 5.9 1.7 7.1 2.1 2.4 3.7 2.3 3-.2-.3-1.1-.1-1.8.4-1.4.5.3.9 1.8.9 3.5 0 2.5-.4 2.9-2.8 2.9-3.6 0-6.4-3.1-8.2-8.9-1.1-3.2-2.7-5.4-6.5-8.4-5.3-4.2-7.7-7.2-10-12.6-2.2-5-2.2-5.1 3.6-1.9Zm-7.7 1.4c1 2.5.7 5.2-.6 6-.7.5-.9.2-.5-.9 1.3-3.4-5.6-3.6-12.1-.3-6.5 3.3-9.6 7.1-11.3 13.6-1.6 5.7-1.6 8.4-.4 13.6.9 4.2-2.3 7.8-6.3 7-8.1-1.6-10.2-1.8-10.2-.8 0 .6 1.5 1.3 3.3 1.7 1.7.4 4.6 1.2 6.3 1.7 5.3 1.8 12.5-2.1 10.9-5.9-1.1-2.7-1.6-10.4-1-14.1.5-2.9.9-3.2 4.3-3.2 2.7 0 4.1.6 5.8 2.7 2.8 3.5 5 2.5 6.4-2.7 1.4-5.1.9-5.8-2.4-3.6-2.8 1.8-8.3 2.1-10.6.6-1.2-.8-1.2-1.3.2-4.3 2.2-4.6 6.1-5.9 11.4-4.1 2.1.8 4.7 1.4 5.7 1.4 2.4 0 3.8 4.3 3.1 9.1-.6 3.8-.6 3.9 2.3 3.9 2.7 0 3.2.6 6.8 8.6 5.5 12.1 12.1 16.7 20.7 14.4 5.1-1.4 6.3-3.5 1.5-2.6-5.1 1-11.3-.9-13.4-4-.9-1.4-2.6-3-3.8-3.4-1.7-.6-2.1-1.5-1.8-3.2.3-1.6-.7-3.8-3-6.8-4.7-6.2-8.1-13-7-14.1 1.4-1.4 12 10.2 14.3 15.5 1.4 3.3 3.2 5.3 6.7 7.5 2.6 1.7 5.5 3.1 6.4 3.1 3 0 7.9-3.1 7.9-5.1 0-2.5 3-2.5 3.7.1.3 1.1.9 2 1.4 2 .5 0 .9.8.9 1.7 0 1 .7 3.1 1.5 4.7 3.1 5.9.7 11.7-6.1 14.7l-4.5 1.9-4.6-3.5c-2.5-1.9-5.6-3.5-6.8-3.5-2.8 0-9.5-4.8-12-8.6-1-1.6-2-2.3-2.2-1.7-.5 1.3 2.4 7.3 3.5 7.3.4 0 1.3 1.3 2 3 1.1 2.4 1.1 4.1.2 8.6-1.2 5.5-1.1 5.6 2.5 11.5 2 3.2 3.3 6.3 3 6.9-.8 1.3-8-2.3-11.7-5.8-3-2.7-3.6-6.8-1.8-10.3 1.1-2-1.1-12.4-4.5-21.8-1.2-3.3-1.3-4.6-.4-5.7.9-1.1 1.5-1.1 2.5-.3 1.9 1.6 1.7.5-.7-4.2-1.1-2.2-2.5-3.9-3.2-3.6-.6.2-1.9 3.4-2.9 7.1-1.7 6.7-4 12.5-8.5 21.6-1.3 2.5-1.9 4.6-1.5 4.8 3.2 1.1 3.5 2 2.3 6.5-2.1 8.5-1.2 9.6 2 2.7 2.8-5.9 3-7 2.2-11.3-.8-3.9-.7-5.2.8-7.7 2.2-3.6 4.3-3.1 5.8 1.2 2 5.6 1.3 10.4-2.4 17.7-1.9 3.7-3.5 7.5-3.5 8.3 0 2.5-1.2 2.9-3.8 1.2-2.5-1.6-2.6-1.6-5.2 1.6-2.5 3-2.8 3.2-7.5 2.5-2.8-.4-5.3-1-5.8-1.2-.4-.2 1.7-2.7 4.7-5.4 8.5-7.7 12.9-16.9 4.7-9.7-2 1.7-4.8 4.9-6.3 6.9-1.5 2.1-3.6 4.3-4.7 4.9-3.4 1.8-9.9 0-15.4-4.1-2.8-2.2-5.8-3.9-6.5-3.9-2 0-17-10.2-22.1-15-2.4-2.3-4.5-3.9-4.8-3.7-1 1.1 2.8 6.5 8.3 11.9 5.5 5.5 10.7 8.5 24.2 14.4 6.6 2.9 7 4.2 1.2 4.5-1.9.1-6.7.8-10.6 1.5-3.8.7-11 1.8-16 2.4-4.9.6-12 1.5-15.9 2-8.3 1.1-8.4 1-14.1-9.9l-3.8-7.3 4.5-4c2.4-2.2 5.4-4.7 6.6-5.5 1.3-.8 3.6-3.8 5.2-6.7 1.7-2.8 3.9-5.9 5-6.8 1.2-1 2.1-2.4 2.1-3.2 0-.8.7-1.6 1.5-2 .8-.3 1.5-1.3 1.5-2.3 0-1.3-.6-1.1-2.9 1.1s-3.4 2.6-5.3 2c-1.2-.4-2.7-.8-3.3-.9-.5 0-1-2.3-1-5.2 0-2.8-.3-5.5-.7-5.9-2.6-2.5 1.7-10.5 5.8-10.8 1.8-.1 4.2-2 11.6-8.9 2.9-2.6 3.7-2.8 14.2-3.2 20.4-.8 30.1-1.7 35.6-3.2 3-.8 8.4-2.3 12-3.3 8.1-2.3 9.6-2.4 10.4-.4Zm-76.6 7c7.3 2.1-3.7 6.8-13.5 5.8-7.9-.8-11.3.5-14.8 5.8-3.4 5.1-5.6 3.9-4.8-2.5.6-4.3 3.3-8.2 6.8-9.8 2.1-1 22.3-.4 26.3.7Zm-33.8 1.1c0 2.9-4.2 6.8-10 9.3-9.9 4.2-11 4.5-11 2.2 0-4.1 3-8.1 6.8-9.1 2-.5 5.3-1.4 7.2-1.9 4.4-1.3 7-1.4 7-.5Zm18.8 10c-.8 1-2.5 4.5-3.8 7.7-1.9 4.8-3.2 6.4-6.6 8.5-5.4 3.2-7.6 7.6-7.7 15.2 0 3.3-.4 5.9-.9 5.9-1.5 0-.8 1.9 1.4 4 1.9 1.8 2 2.2.8 3.4-1.7 1.6-12.8 3-16.5 2-3.2-.8-2.8-2.3 1.2-4.9 1.7-1.1 3.6-3.5 4.2-5.3.7-1.7 1.8-3.2 2.6-3.2 2.1 0 2.4-1.1 1.5-6-1.3-7.2 3.4-16.3 10-19 1.5-.6 3.4-2.3 4.1-3.7 1.9-3.6 9-8.6 10.3-7.3.6.6.4 1.5-.6 2.7Zm-50.1 8.2c3.4 1.7 5.4 1.4 13.1-2.4 4-2 7.7-3.3 8.2-3 .6.4-1 3-3.6 6.1-3.9 4.5-5.2 5.4-8 5.4-6.2 0-16.4-6.5-16.4-10.4.1-2 .2-1.9 2.3.5 1.2 1.5 3.2 3.2 4.4 3.8Zm51.3 6.6c0 .7-1.1 3.7-2.5 6.7-1.6 3.4-2.5 7.1-2.5 10.4 0 5.5-3.3 11.9-6 11.9-1.2 0-1.4-1.7-1.3-8.5.2-4.7.3-9.7.3-11.2 0-2.5 2.7-5.9 8.1-10 2.3-1.8 3.9-1.6 3.9.7Zm5.8 12.7c.2.8-.6 2.6-1.7 3.9-1.8 2-2.2 2.2-3.1.9-.6-.8-.8-3.1-.5-5 .2-1.9.4-3.7.5-3.9.1-1 4.5 2.8 4.8 4.1Zm114.9 11.9c2.6 2.8 6 5.7 7.5 6.5 3.9 2 6.3 7 4.9 10-1.6 3.6-3.6 2.9-6.5-2-1.4-2.4-5.5-6.7-9.1-9.5-5.3-4.2-6.5-5.7-6.5-8 0-5.5 2.4-4.8 9.7 3Zm.4 13.4c4.1 5.2 2.2 10.2-2.6 7.1-1.4-.9-2.5-2.2-2.5-2.9 0-.8-1.5-3.5-3.4-6.1-2.1-3-3.2-5.5-2.9-6.7.5-1.7 1.1-1.4 5.2 2.3 2.5 2.3 5.3 5.2 6.2 6.3Zm-412.8.9c.3 1.8 1.7 4.5 3.1 5.9 2.7 2.7 3.1 4.3 1.7 6.5-.7 1.2-1.4 1.1-3.9-.2s-9.2-7.1-9.2-8.1c0-.1.7-1.9 1.5-3.9 1.1-2.7 2.1-3.6 3.9-3.6 1.9 0 2.4.7 2.9 3.4Zm276.8-1.7c.8 1 2.1 3.1 2.9 4.8.8 1.6 2.7 5.2 4.3 7.8l2.7 4.9-3.1 9.6c-4.5 13.9-4.7 14.4-6.7 14-2.3-.5-1.9-6.5.9-14.4 2.8-7.8 2.6-9.7-1.5-18.4-2-4.1-3.6-8-3.6-8.7 0-1.9 2.4-1.6 4.1.4Zm-1.4 12.9c2.6 5.8 2.7 6.4 1.2 6.4-.5 0-1.9-2.1-3-4.8-1.2-2.6-2.7-6.1-3.5-7.9-.8-1.7-1.4-4.2-1.3-5.5 0-2.4.2-2 6.6 11.8Zm116.3-6.3c0 .4-1.9.7-4.2.5-4.1-.3-4.3-.4-3.9-3.3.5-4.5 2.2-4.9 5.4-1.3 1.5 1.8 2.7 3.6 2.7 4.1Zm-124.1.9c.7 2.4 1.7 5.3 2.2 6.5.7 2 .5 2.3-1.7 2.3-1.5 0-2.3-.4-1.9-1 .4-.6-.1-3-1-5.5-1.7-4.2-1.5-8.2.3-7.1.5.3 1.4 2.4 2.1 4.8Zm90.1 6.6c0 .5-3.3 2.3-7.2 4.1-4 1.9-8 3.7-8.8 4.2-.8.4-4.6 2.6-8.5 4.7-22.4 12.6-29.2 15.3-38.8 15.7-3.2.1-6.2.8-6.6 1.4-.6.9-1.1.8-2.1-.4-.7-.8-1.9-1.5-2.7-1.5-3.5 0 1.3-10.4 8.1-17.7 3.9-4.3 11.1-6.5 26.1-7.9 18.6-1.7 27-2.6 27.4-3 .8-.8 13.1-.4 13.1.4Zm-359 1.7c.7.8 1.9 1.5 2.6 1.5.8 0 1.4.7 1.4 1.5s.6 1.5 1.3 1.5c2 .1 4.6 4.6 4.4 7.6-.3 2.4-.7 2.9-2.7 2.6-1.4-.1-4.1-1.5-6-3.1-1.9-1.5-4.5-3.3-5.8-4-1.7-.9-2.2-2-2-4.4.3-4.7 4.1-6.4 6.8-3.2Zm272 2.9c0 .8 1.1 2.3 2.5 3.4 1.6 1.3 2.3 2.6 1.9 3.6-.8 2.1-3 2-3.9-.2-1.5-3.5-2.3-8.2-1.4-8.2.5 0 .9.6.9 1.4Zm-3.1 34.2c1.2 1.5 2.1 3.2 2.1 3.9 0 .7 2.1 2.9 4.8 4.8 2.6 2 5.2 4.1 5.8 4.5.5.5 2.1 1.5 3.5 2.2 1.3.6 3.4 2.4 4.6 3.8l2.2 2.6 2.6-2.4c2.7-2.5 4.6-2 2.9.8-2.7 4.2-14.2 5.3-21.2 2-5.5-2.6-14.2-11.1-16.2-15.7-1.2-3-1.1-3.4 1.5-6.1 3.5-3.7 4.8-3.7 7.4-.4Zm326.1 5.1c0 3.3-1.2 6.3-2.5 6.3-.8 0-1.2 2-1.2 6.1-.1 4-.6 6.5-1.4 7-2.1 1.3-2.9 1.1-2.9-.9 0-.9-.9-4.1-2-6.9-1.5-3.9-1.8-6.2-1.2-9l.8-3.8 2.4 3.3c2.9 4 5.5 4.3 4.6.7-.4-1.4-.4-3-.1-3.5 1-1.7 3.5-1.1 3.5.7Zm-417.3 11.4c1.1 2.3 10.1 10.7 15.1 14l2.4 1.6-3.6 2.2c-2 1.3-4.3 2.1-5.3 1.9-1.8-.3-9.6-12.8-10.6-17-.4-1.5-1-3.4-1.4-4.3-1-2.7 2-1.3 3.4 1.6Zm390.6 2.9c2 4.2 2.2 5.2 1 6.2-.8.6-1.7.7-2.2.2-1.5-1.6-4.9-10.2-4.3-10.8 1.5-1.6 3.3-.1 5.5 4.4Zm-5.9.5c2.4 3.7 2 6.8-1.4 9.9-3 2.6-5 2.7-5 .3 0-2-1.7-4-2.8-3.3-.8.4-.8 1.6 0 3.6.7 2.3.7 3.4-.2 4.5-2 2.4-2.7 1.8-3.4-3-.4-2.4-1.1-4.7-1.7-5-.5-.4-.9-1.5-.9-2.7 0-1.6.5-1.9 2.4-1.6 1.8.4 2.6 0 2.9-1.4.9-3.2 3.7-2 5.7 2.4l2 4.3-.3-3.5c-.2-1.9-.7-4.3-1.2-5.3-1.2-2.7 2-2.1 3.9.8Zm-16.1 9.9c1 2.1 1.6 4.5 1.3 5.2-.7 1.7-3.6 1.8-3.6.1 0-.6-.7-2.5-1.5-4.1-1.7-3.2-1.3-6 .8-5.4.6.3 2 2.2 3 4.2Zm-5.9 5.5c2 6.2 2 6.1-.4 6.1-1.2 0-2-.7-2-1.8 0-.9-.7-2.6-1.5-3.6-2.1-2.8-1.9-5.6.4-5.6 1.4 0 2.3 1.3 3.5 4.9Zm36.6 6.5c1.7 2.9 3.9 6.1 5 7.1 2.2 2 1.8 3.7-.8 2.8-2.8-1.1-7.2-4.6-7.2-5.8 0-.5-.9-2.7-1.9-4.7-1.1-1.9-1.7-3.9-1.4-4.2 1.6-1.6 3.5-.1 6.3 4.8Zm-5.7 3.8c1.5 3.4 2.5 6.3 2.3 6.6-.8.7-8.6-.9-8.6-1.9 0-.5-.5-.9-1.1-.9-.6 0-.9.7-.5 1.5.4 1.1-.1 1.5-1.9 1.5-4.9 0-7.6-6.2-3.3-7.6 1.3-.4 2.4-.2 2.6.5.6 1.8 2.2 1.3 2.2-.8 0-1.6 3.3-4.9 5.1-5 .3-.1 1.8 2.7 3.2 6.1Zm-16.3 4.4c1.3 3.4 1.3 3.4-1 3.4-2.6 0-4.8-3.9-2.9-5.1 2.2-1.4 2.9-1.1 3.9 1.7Zm-169.6-1c2.1.8 2 2.7-.2 4.7-2.3 2.1-3.2 1.3-3.2-2.5 0-2.9.6-3.3 3.4-2.2Zm163.4 3.7c.4 3.3-1.1 3.5-3.2.5-1.2-1.7-1.3-2.4-.3-3 1.9-1.2 3.2-.4 3.5 2.5Zm-169.8-.5c0 1 .7 4 1.6 6.6 1.5 4.5 1.5 5.1 0 8.3-1.9 4-3.6 3.5-3.6-1.1 0-1.9-.9-4.5-2.1-6l-2.1-2.7 2.1-2.3c1.1-1.2 2.1-2.8 2.1-3.4 0-.7.5-1.2 1-1.2.6 0 1 .8 1 1.8ZM188.7 279c.6 0 2.3 1 3.6 2.2 1.4 1.3 5.6 4.7 9.4 7.6 8.1 6.1 16 13.9 15.1 14.8-.9.8-7.8-4.8-7.8-6.4 0-1.9-1-1.5-4 1.8-3.2 3.5-7 4-7 1.1 0-2.5 2.8-5.4 4.5-4.7.8.3 1.6-.2 1.9-.9.3-.9-1-2.2-4-3.6-2.4-1.3-5.2-3.1-6.1-4.1-2.4-2.7-3.3-2.2-2.6 1.4.8 4.2.9 4.4 2.8 2.8 1.3-1.1 1.9-1 3.3.4 2.3 2.3.5 5-3.7 5.4-2.7.3-3.1 0-2.8-2 .2-2.1-.2-2.3-3.6-2.1-3.1.2-4-.1-4.4-1.7-.6-2.1-3.6-3.5-5.3-2.5-.5.3-1-.2-1-1.1 0-2.4 8.2-10.5 9.5-9.3.5.5 1.5.9 2.2.9Zm406.7.2c1 3.8.7 4.2-1.4 2.3-2.3-2.1-2.6-4.5-.6-4.5.7 0 1.6 1 2 2.2Zm-6 .4c1 2.7.7 4.4-.9 4.4-2 0-3.7-4.2-2.1-5.2 1.7-1.1 2.3-1 3 .8Zm-163.9 11.8c1.1 1.6 1.5 4.1 1.3 7.2-.3 4.4-.6 4.9-5.2 8.1-2.7 1.9-5.3 3-5.7 2.6-1.7-1.7 4.7-20.3 7-20.3.6 0 1.8 1.1 2.6 2.4Zm-215.7 9.8c1.7 1.7 1.5 2.3-1.4 3.7-2 .9-3 .9-4.1-.1-1.3-1-1.1-1.4.9-3 2.8-2.1 3.1-2.1 4.6-.6Zm5.1 4.7c1.4 2.6-1.2 5-3.4 3.1-1.1-.9-1.2-1.6-.2-3.1 1.5-2.4 2.4-2.4 3.6 0Zm-4.5 9.2c.8 4.2-.9 7.2-3.7 6.3-6.9-2.1-6.2-9.3.9-9.4 1.6 0 2.3.8 2.8 3.1Zm5.6-.1c0 .5-.4 1-1 1-.5 0-1-.5-1-1 0-.6.5-1 1-1 .6 0 1 .4 1 1Zm72.1 49.2c.9 2.5 2.9 6.5 4.6 8.9 1.6 2.4 3.2 5.2 3.6 6.1.4 1 1.3 1.8 2.2 1.8 2 0 1.9 2.2-.3 5.1-1 1.3-2.2 3.2-2.5 4.2-.4 1-1.3 1.7-2.1 1.5-2.1-.5-14.7-20-14.4-22.3.1-1.1-.1-2.6-.6-3.3-.6-1-.3-1.3 1-1 1.1.2 3.7 3.6 6.4 8.4 6 10.8 7.4 12.8 8.8 12.3.7-.2-.6-3-3.4-6.9-5.8-8.3-8.4-13.3-8.4-16.3 0-5.5 2.9-4.6 5.1 1.5Zm-7.9 12.5c.9 1 3 4.4 4.8 7.5 1.7 3.2 4.5 6.9 6.2 8.3 2.6 2.2 2.9 3 2.1 4.8-.9 2-1.2 1.9-5.9-3.2-4.9-5.2-11.4-15.4-11.4-17.9 0-1.8 2.4-1.5 4.2.5Zm-1.4 8.9c1.3 2.5 4.3 7.5 6.7 11.1 4.5 6.5 6.3 10.8 5.1 12-1 1-3.4-1.6-8.3-9-2.5-4-4.8-6.6-5-6-.3.7.9 3.2 2.5 5.5 7.6 11.2 9.8 17.9 6.2 18.6-1.7.3-8-7.6-10.7-13.3-1.6-3.4-3.3-4.6-3.3-2.5 0 2.3 10.4 18.3 12.2 18.8 1 .2 1.8 1.2 1.8 2.1 0 2.4-2.5 5.5-3.8 4.7-.6-.3-4.5-5.4-8.8-11.2-6.5-9-7.7-11.2-7.7-14.6 0-4.1 1.9-6.6 3.7-4.8 1.7 1.7 2.7 1.1 1.6-1-1.7-3.3-.9-8.5 1.3-8.3 1.5.1 1.7-.4 1.3-2.2-.8-3 .2-5.5 1.8-4.9.7.3 2.2 2.5 3.4 5Zm32.4 11.7c2.9 2.8 3.4 3.7 2.6 5.7l-.9 2.3-2.8-2.7c-2.6-2.5-4.8-8.6-3.1-8.6.4 0 2.3 1.5 4.2 3.3Zm-2 8c3.8 3.8 5.3 7.7 2.9 7.7-.8 0-4.7-5.4-7-9.8-1.7-3.2-.7-2.7 4.1 2.1Zm-2.8 4.2c1.5 2.5 3.3 4.5 4.1 4.5.8 0 1.6.7 1.6 1.5.1.8.2 2.1.3 2.7.5 3-.8 2.5-4.4-1.8-4.9-5.5-6.3-8.1-5.6-10 .8-2.1 1.2-1.8 4 3.1Zm-1 8.2c2.6 3.2 5.4 6.6 6.2 7.6 1.1 1.3 1.2 2.3.4 3.7-.6 1.1-1.4 2-1.8 2-.4-.1-2.7-2.6-5.1-5.6-4.4-5.5-6.3-6.6-4-2.2 2.4 4.5 7.2 9.8 9 9.8.9 0 1.9.7 2.3 1.5.6 1.7-.3 7.5-1.3 7.5-1.5-.1-7.2-6-10.5-10.9-4-5.9-5.1-13.1-2-13.1 1.2 0 1.4-.7.9-3-1-4.5.7-3.7 5.9 2.7Zm141.5 10.4c3.9 3.9 3.9 6.3 0 10-2.3 2.1-3.5 2.6-4.7 2-2.4-1.3-14.2-13.7-14.2-14.9 0-.7 3-.9 7.9-.6 7.3.4 8.2.7 11 3.5Zm-135.1 20.8c-.4 3.7-1.9 3.5-7-1.2-5.1-4.6-9.8-12.6-9.8-16.6 0-2.2 1.1-1.4 8.5 6.4 6.5 6.9 8.5 9.6 8.3 11.4Zm-58-6.2c1.7 2.7 3.7 5.6 4.4 6.5 3 4.2-1.7 3.2-7.7-1.6-2.5-2-2.7-2.7-2.1-5.9.4-2 1.1-3.7 1.5-3.7.4 0 2.2 2.1 3.9 4.7Zm50.1 6.6c7.6 7.3 10.2 11.7 6.7 11.7-1.9 0-15.8-15.7-16.4-18.7-.6-2.5 1.2-1.2 9.7 7Zm-1.8 6.7c.8 1.4 2.8 4.2 4.6 6.3 3.4 3.8 4.4 8.7 1.9 8.7-1.6 0-5.5-3.6-11-10.3-2.2-2.6-4.4-4.7-4.8-4.7-1.5 0 1.3 4.1 6 9.2 5.3 5.7 4.1 6.2-2.5 1.2-6.1-4.6-7.3-6.1-7.3-9.7 0-2.4.3-2.8 2-2.4 1.9.5 1.9.3.5-3-1.1-2.6-1.2-4-.4-5.5 1-1.9 1.3-1.7 5.4 2.8 2.4 2.7 4.9 6 5.6 7.4Zm-6.7 13.1c2.5 1.6 4.8 3.4 5.1 4 .4.5 1.9.9 3.5.9 3.7 0 5.4 2.8 4 6.5-.5 1.4-1 3.7-1 5.1 0 1.3-.5 2.4-1.2 2.4-2.1 0-10.8-6.2-12.9-9.1-3.3-4.7-1.8-5.2 3.9-1.4 5.8 3.8 6.2 3.9 6.2 2.7 0-.5-1.2-1.5-2.7-2.3-3.1-1.5-10.4-6.9-11.5-8.3-.8-1.1.1-3.6 1.3-3.6.4 0 2.8 1.4 5.3 3.1Zm6 19.8c.3.4 2 1.1 3.7 1.5 2.2.4 3 1.1 2.7 2.3-.6 3-3.5 2.6-7.5-1.1-3.4-3.2-3.6-3.5-1.6-3.6 1.2 0 2.4.4 2.7.9ZM440 506.6c3.6 4 8.3 9.3 10.5 11.9 2.2 2.6 6 7.1 8.5 9.9 2.5 2.8 9.7 10.9 16 18.1 6.2 7.1 12.2 13.9 13.2 15 1 1.1 4.9 5.7 8.7 10.2 12.6 14.9 11.7 16.1-3.2 4.3-5.6-4.4-12.4-9.7-15.1-11.7-2.7-2.1-5.6-4.5-6.5-5.4-.9-.8-6.1-5.1-11.6-9.4-5.5-4.3-10.7-8.6-11.6-9.4-.9-.9-5.2-4.9-9.5-9-18.1-17.1-30.4-29.5-30.4-30.6 0-.7 1.5-1.6 3.3-1.9 4.7-.9 9.6-4.2 10.8-7.4l1.1-2.7 4.6 5.5c2.6 3 7.6 8.7 11.2 12.6ZM306.1 498c2.1 1.2 2.5 3.5.8 4.5-1.1.8-3.8-2.2-3.9-4.3 0-1.5.6-1.5 3.1-.2Zm7.7 9c1.5 0 3.4.5 4.2 1 1.2.8 1 1.4-1.5 4-1.6 1.6-3.2 3-3.7 3-1.1 0-5.7-7.4-5.1-8.3.3-.5 1.2-.6 2-.3s2.7.6 4.1.6Zm144.9 123.2c-.3.7-.5.2-.5-1.2s.2-1.9.5-1.3c.2.7.2 1.9 0 2.5Zm11.4 6.8c1.8 1.5 2 1.9.8 2-.9 0-2.4-.9-3.4-2-2.3-2.6-.4-2.6 2.6 0Zm-248.2 16.5c1.1 1.9 1.6 3.7 1.2 4-1 .6-2.3-.9-3.9-4.8-1.7-3.9.2-3.4 2.7.8Zm259.5.4c.3.5-1.7 2.8-4.6 5.2-2.8 2.4-6.7 5.8-8.7 7.4-10.1 8.7-20.1 14.7-25.8 15.8-2.3.5-3.8.1-5.5-1.3-2.3-2-2.3-2-.4-3.5 1.1-.8 4.5-2 7.7-2.7 3.1-.6 7.4-2.4 9.5-3.9 2.2-1.5 5.8-4 8.2-5.6 2.3-1.5 7-4.9 10.4-7.6 6-4.6 8.2-5.5 9.2-3.8Zm-54.9 6.1c1.6 1.8 1.6 2 .1 2.6-2.4.9-4.6-.3-4.6-2.6 0-2.6 2.2-2.6 4.5 0Zm53.4 5c-9.6 11.3-32.8 25.2-35.4 21.1-.4-.7 2.1-2.4 6.7-4.5 6.5-3 25.8-17.3 29.7-22 .9-1.1 1.8-1.3 2.4-.7.6.6-.6 2.8-3.4 6.1ZM219 667.5c10.3 7.8 13.3 9.5 23.2 12.8 10.5 3.6 12.6 5.1 11.5 8.1-.6 1.4-1.4 1.6-3.9 1.1-4.4-.8-13.9-4.5-15.8-6-.8-.7-3.5-2.1-6.1-3.2-8.5-3.7-18.2-12.2-17.2-15 .8-2.1 3.5-1.4 8.3 2.2Zm266 1.3c0 3.9-20.7 21.2-25.4 21.2-.7 0-2.5 1.1-4 2.5s-3.1 2.5-3.7 2.5c-.5 0-.9.5-.9 1.1 0 .7 1 .9 2.4.5 3.7-.9 18.6-10.3 22.8-14.3 3.1-3 4-3.4 5.2-2.4 3.8 3.2 4.9 17.5 1.7 22.7l-1.9 3.2 2.3-.2c2-.1 2.4-.9 3.5-6.7 1.3-7.7.7-12.8-2.5-18.6l-2.3-4.2 2.2-2c1.2-1.2 2.5-2.1 2.8-2.1 1 0 4.1 5.4 4.2 7.4.1 1.8 2.2 7 3.4 8.6.2.2.7-.2 1.1-.9.7-1 1.6-.6 4.1 1.6 3.9 3.4 3.3 5.3-1.4 5.3-2.1 0-4 .8-5.2 2.1-1.9 2.1-1.9 2.1 1.1 1.6 1.7-.4 4.7-.9 6.8-1.3 4.7-.8 5-1.4 3.1-5.3-2.3-4.6-1.3-6.1 4.1-6.1 3.2 0 4.7.5 5.1 1.5.4.9 1.3 1.3 2.3 1 2.5-.7 5.1 4.4 5.1 9.9 0 8.7-5.8 15.9-13.7 17.2-3.8.6-3.9.6-6-4.4-2.2-4.9-4.3-7.5-4.3-5.2 0 .6.5 2 1.1 3.2 1 1.8.8 1.9-1.3 1.2-1.2-.4-2.7-1.2-3.3-1.9-1.4-1.6-4.5-2.7-4.5-1.5 0 1.2 2.5 3.5 6.9 6.3 4.5 2.9 5.6 5.5 1.5 3.4-3.9-2-8.6-2.5-9.1-1-.3.7.1 1.3.8 1.3 1.7 0 7.9 4.2 7.9 5.4 0 1-2.8.4-8.9-1.9-2.4-.8-4.6-1.3-4.9-1-1 1 2.2 3.1 6.6 4.4 3.6 1 4.1 1.5 3.1 2.7-.6.8-2.4 1.4-3.9 1.4-2.3 0-2.7.3-2.3 2.4.3 1.3.1 2.6-.4 2.9-.8.5-7.7-.9-14-2.8-1.4-.5-2.3-.3-2.3.3 0 1.1 3.5 2.3 11.5 4 3.5.7 4 1.1 3.7 3.2-.5 3.8-3.1 7.3-5 6.7-1-.3-3.2-1-4.9-1.5-1.8-.6-3.3-.7-3.3-.2 0 .4 1.1 1.1 2.5 1.4 3.3.8 3.2 1.6-1 5.6-1.9 1.8-4 4.9-4.6 6.7-.6 1.8-1.6 3.3-2.4 3.3-1.5 0-2.8-2.7-2-4.1.6-.9-11.4-6.9-13.8-6.9-.6 0-2.5-.8-4.2-1.8-1.6-1-4.2-2.2-5.6-2.5-3.7-.9-7.9-7.7-7.9-12.7 0-4.6-1.3-5.6-5.4-4-2.1.8-2.6 1.5-2.1 3 .9 2.7-.7 2.5-3.5-.4-1.2-1.4-2-3.2-1.7-4 .3-.8 3.4-2.9 6.9-4.5 7.4-3.6 8.1-4.2 13.1-10.3l3.8-4.8 4.1 2.3c13.2 7.3 14.2 7.6 21.1 7.7 8.8 0 7.9-1.5-1.4-2.4-5.9-.5-8.2-1.3-14.2-4.9-4-2.4-8-4.6-9-5-1.5-.6-1.6-1-.5-2.9.7-1.3 2-3.1 2.8-4.1.8-1 1.3-3.1 1.2-4.7-.3-2.5.1-2.9 3-3.5 1.8-.4 4.4-1.5 5.8-2.3 8.4-5.1 13.3-8.7 19.3-14.1 6.7-6 8.7-6.7 8.7-3.3Zm-272.2 4.9c6.7 6.6 13.5 11.6 17.5 12.8 1.8.5 4.5 1.8 6 2.7 1.4 1 3.5 1.8 4.6 1.8 6.1 0 9.8 4.2 6 7.1-1.9 1.4-1.9 1.7-.5 2.2.9.4 1.6 1.1 1.6 1.7 0 1.5-6.3 4-9.9 4-4 0-12.8-4-17.2-7.7-1.8-1.6-4.8-3.9-6.6-5.1-1.7-1.2-4.2-3.9-5.4-6-1.3-2-3.3-5-4.6-6.5-1.3-1.6-2.3-3.5-2.3-4.3 0-2.4 2.7-1.5 5.5 1.8 8.3 10.2 10.3 12.1 15.4 14.8 5 2.7 11.8 5.1 19.1 6.7 4.9 1.1.6-1.5-5.4-3.2-8-2.2-14.6-6.7-23.3-15.6-6.8-6.8-8.3-9.5-6.6-11.2 1-1 .9-1.1 6.1 4Zm-7.8 12.4c2.8 5 10.9 13.9 12.6 13.9.7 0 1.9.6 2.6 1.4 2.8 2.7 9.8 5.6 14.6 6 6.1.4 7.2 1.1 7.2 4.1 0 3-3.2 4-14 4-6.8 0-8.5.3-8.5 1.5 0 1.9 7.5 1.6 16.7-.7 7.2-1.8 9.8-1.1 9.8 2.8 0 2.7-1.1 3-11.1 3-11.7.1-10.5 1.9 1.6 2.3 9.9.3 10.3.6 10.4 7.9.1 5.4-2.3 9.6-5.6 9.7-2.2 0-4-2.8-6.3-9.9-1.2-3.9-2.6-7.1-3.1-7.1-1.4 0-1.1 2 1.7 10.4 2.6 8 2.4 9.5-1.2 9.6-1.5 0-4.6-3.5-3.8-4.3.4-.3-.2-1.7-1.3-3-1-1.4-2.5-4.3-3.3-6.6-.7-2.2-1.7-4.1-2.2-4.1-.4 0-.8.1-.8.2.1 1.4 3.1 11.1 4.5 14.2 1.9 4.4 1.6 5.1-2 4.2-2-.5-3.3-2.2-5.5-6.9-1.5-3.4-3.2-7.4-3.5-9-.4-1.5-1.1-3-1.6-3.3-1.4-.8-1.1 3.9.6 8.5 1.1 3.2 1.1 4.1.2 4.1-2.3 0-9.3-8.4-12.3-14.7-1.6-3.4-3.2-6.2-3.6-6.2-1-.1.2 5.8 1.9 9.3 1.1 2.1 1.2 3.1.4 3.9-1.8 1.8-4.2-.3-8.2-7.2-4-7-6.5-9.8-7.6-8.7-.4.4-.2 1.5.4 2.5.7 1.1 1.9 3.5 2.7 5.5 1.4 3.5 1.4 3.6-.5 3.6-1.2 0-3.4-1.4-4.9-3-3.5-3.7-5.3-3.9-4.4-.5.5 2.2.3 2.5-2 2.5-1.4 0-3.5-.9-4.6-2-2-2-2.1-2-2.4.2-.3 3-9.6 1.3-9.6-1.7 0-.8-.4-1.5-1-1.5-.5 0-1 1.3-1 3 0 2.7-.3 3-3 3-4.4 0-7.7-2.6-9.9-7.6-1.3-2.9-2.6-4.4-3.8-4.4-1 0-3.3-.9-5-2-2.6-1.5-3.3-2.7-3.3-5 0-1.7.5-3 1.3-3.1.6 0 3.7-.1 6.7-.2 4.1-.2 5.5-.6 5.5-1.7 0-.8-1.3-1.7-3-2-3.7-.8-8.7-3.4-10.3-5.3-3.5-4.2 4.4-7.1 11-4.1 3.5 1.6 4 1.6 5.4.2 1.4-1.3 1.2-1.6-1.6-2.8-3.1-1.3-5.5-4.2-4.3-5.4 1.2-1.2 7.7-.6 12.1 1.1 4.2 1.6 4.5 1.6 5.7 0 1.5-2.1 2.5-2.1 9.3 0 5.1 1.6 5.4 1.6 6.3 0 1.5-2.5 4.3-2.1 7 1.1 1.3 1.6 3.1 3.1 4.1 3.5.9.3 1.9 2.2 2.3 4.5.6 3.6 9.3 17.2 11.6 18 2.1.8.6-2.1-3.1-6.2-3.6-3.9-7-10-7-12.6 0-1.9 2.7-1 4.6 1.6 5.1 7.2 11.6 14.3 13.4 14.9 1.5.5 1.9 1.2 1.5 2.3-.4 1-.9 2.6-1.2 3.7-.4 1.8-.3 1.8 1.6-.4 2.9-3.3 2.6-4.9-1.7-9-2.1-2-5-5.3-6.5-7.4-1.6-2-3.4-3.7-4.2-3.7-2.6 0-2.8-4.6-.4-8.9 1.2-2.3 2.8-4.1 3.4-4.1.6 0 2.2 1.9 3.5 4.1ZM192.5 727c.3.5.1 1-.4 1-.6 0-1.1-.5-1.1-1 0-.6.2-1 .4-1 .3 0 .8.4 1.1 1Zm237.5 4.6c0 .8-.4 1.2-1 .9-.5-.3-1-1-1-1.6 0-.5.5-.9 1-.9.6 0 1 .7 1 1.6Zm13.8 15.3c.9.5 2.5 1.2 3.5 1.5 1 .3 1.7 1.2 1.5 2-.4 2-11.7 10.6-13.9 10.6-5.3 0-4.4-7.2 1.5-11.9 4.2-3.4 4.8-3.5 7.4-2.2Zm18 7.8c2.1.9 1.4 1.7-3.5 4.3-2.7 1.3-6 3.7-7.5 5.3-3.6 3.7-6.4 3-7-1.8-.5-4.3-.4-4.4 5.1-8.3 4.2-3.1 4.4-3.1 8-1.6 2 .9 4.2 1.8 4.9 2.1Z"/>
  <path fill="#000" d="M375 116.7c0 .5 1.1 2 2.4 3.2 1.3 1.3 2.7 3.4 3 4.7.5 1.9 1.3 2.4 4 2.4 2.5 0 4.3-1 7.5-4 2.3-2.2 3.8-4 3.4-4.1-.4-.1-2.4 0-4.3.1-3.2.1-7.8-.7-13.7-2.5-1.3-.4-2.3-.3-2.3.2Z"/>
  <path fill="#000" d="M353.8 125.4c-2.5 3-2.6 3.6-1.7 7.2 2.2 8.2 6.5 8.1 8.7-.2 1.2-4.3 1.1-5-.6-7.3-2.5-3.4-3.3-3.4-6.4.3Z"/>
  <path fill="#000" d="M479 139c0 .5.5 1 1 1 .6 0 1-.5 1-1 0-.6-.4-1-1-1-.5 0-1 .4-1 1Z"/>
  <path fill="#000" d="M375.6 141.5c-.9.9-2 3.4-2.6 5.7-1 3.4-.9 4.3.4 5.7 1.5 1.4 1.6 1.2 1.6-1.9 0-1.9.9-4.9 2-6.5 1.1-1.7 2-3.3 2-3.8 0-1.2-1.8-.8-3.4.8Z"/>
  <path fill="#000" d="M368.5 144.9c-.6 2 .3 5.1 1.5 5.1.4 0 1-1.6 1.2-3.5.4-3.8-1.6-5-2.7-1.6Z"/>
  <path fill="#000" d="M390.6 150.6c-.4.9-.4 1.9-.2 2.2.3.2 4.2.8 8.8 1.4 10 1.1 20.1-.6 20.6-3.6.4-1.6-.1-1.7-5-1-5.7 1-14 .9-19.9 0-2.9-.5-3.8-.2-4.3 1Z"/>
  <path fill="#000" d="M402.1 161.3c-1.9.7-3.6 1.8-3.9 2.5-.3 1 .4 1 2.8-.3 2.6-1.3 3.7-1.4 6.6-.5 3.6 1.2 5.5.7 3.8-.9-1.7-1.7-5.8-2-9.3-.8Z"/>
  <path fill="#000" d="M403 166.9c0 .4 1.1.6 2.5.3 1.4-.2 2.5-.6 2.5-.8 0-.2-1.1-.4-2.5-.4s-2.5.4-2.5.9Z"/>
  <path fill="#000" d="M185.6 284.2c-1.2 4.6-.6 5.3 1.9 2.4 2.4-3 2.4-4.6.1-4.6-.8 0-1.6 1-2 2.2Z"/>
  <path fill="#000" d="M449 698.8c0 1.9 5.2 4.8 13.9 7.8 5.3 1.9 10.3 3.4 11.2 3.4.9 0 2.4.9 3.3 1.9 2.1 2.3 4.6 1.7 4.6-1 0-2.3-2.2-3.2-11.5-4.8-3.8-.7-10.2-2.7-14.2-4.6-4-1.9-7.3-3-7.3-2.7Z"/>
  <path fill="#FFF" d="M453.6 718.5c-1.7 2.6-6.8 3.5-8.1 1.5-.3-.5-1.5-1.5-2.6-2-3-1.7-3.7 1.5-.9 4.5 2.5 2.7 1.8 5.1-2.5 7.9-3.6 2.4-3.2 4 .8 3.2 3-.6 3.7-.2 6.6 3.4 2.9 3.6 6 5.2 6.2 3.2 0-.4.2-1.8.3-3.1.3-2.9 3.1-5.1 6.3-5.1 3 0 2.9-1.5-.3-3.7-2.4-1.6-2.6-2.1-2.1-7 .6-6-.9-7.1-3.7-2.8Z"/>
  <path fill="#000" d="M476 724.9c0 1 3.6 2.1 7 2.1 1.9-.1 2.1-.3 1-.9-2.4-1.3-8-2.1-8-1.2Z"/>
  <path fill="#000" d="M465 740c4 2.2 5 2.4 5 1.1 0-.5-1.4-1.4-3.1-2-4.9-1.7-5.8-1.2-1.9.9Z"/>
  <path fill="#000" d="M458 742.5c0 1 7.9 3.9 8.7 3.2.1-.1-1.8-1.2-4.3-2.3-3-1.4-4.4-1.7-4.4-.9Z"/>
  <path fill="#FFF" d="M173.1 696.5c-1.1 1.9-2.6 3.5-3.2 3.5-.6 0-2.7-1.4-4.6-3-6.3-5.6-11.2-2.6-5.4 3.4 1.7 1.7 3.1 3.6 3.1 4.2 0 .5-2 3-4.5 5.6-4.7 4.9-5.5 6.4-3 5.4 1-.3 1.5.1 1.5 1.2.1 1.6.1 1.6 1.4 0 .7-1 2.6-2.2 4.2-2.8 2.7-1.1 3.1-.9 6.5 2.9 4.1 4.7 4.9 5 4.9 1.7 0-1.2.5-3.7 1.1-5.5.9-2.5 1.6-3.1 4-3.1 3.7 0 3.7-1-.2-4.4-2.4-2.1-2.9-3.3-2.4-4.9.4-1.2.9-3.4 1.2-5 .8-4-2-3.5-4.6.8Z"/>
  <path fill="#000" d="M216.5 720c-.8 1.4.3 3 2.1 3 1.6 0 1.6-.2.8-2.4-.7-1.8-2-2.1-2.9-.6Z"/>
  <path fill="#000" d="M109.5 19.8c-.6.4-3 1.7-5.5 2.7-2.5 1.1-5.6 2.7-6.9 3.7-3.1 2.4-4 2.3-5.1-.7-1.7-4.6-4.2-2.9-8.5 5.6-3.4 6.6-4.1 7.1-7.7 5.3-2.5-1.3-2.8-1.3-4.2.8-.8 1.3-2.2 5-3.2 8.3-1.9 6.9-2.7 7.7-7.1 6.9-2.9-.5-3.3-.3-3.9 2.1-.3 1.4-.1 5.2.5 8.3 2.1 10.5 2 11.7-1.1 12-4.2.5-4.7 4.2-1.4 9.2 1.4 2.2 2.6 4.3 2.6 4.6 0 .4 1.2 2.3 2.7 4.2l2.6 3.5-3.4 2.8c-4 3.3-3.6 4.8 3 9.3 2.3 1.5 4.7 4 5.2 5.3.9 2.5 1 2.5 2.9.8s1.9-1.9.3-3.7c-.9-1-3.1-2.6-4.7-3.4-5.2-2.5-6.9-4.2-6.2-6 .4-.9.9-1.4 1.3-1.1 1 1.1 4.3-1.3 4.3-3.1 0-.9-2.3-5.1-5-9.2l-5-7.5 2.9-.8c4-1 4.5-3.3 2.7-12.1-2.4-11.4-2-15.6 1.1-12.5.6.6 2.3.9 3.9.7 2.4-.3 2.8-.8 3.1-3.8.2-1.9 1.1-5.9 1.9-8.9l1.5-5.3 2 2.1c3 3.2 5.6 2.7 7.4-1.7.9-2 2.8-5.7 4.2-8.1l2.6-4.4L92 29l2.8 3.4 4-3.6c3.1-2.8 11.9-7.8 13.7-7.8.2 0 .6 1.6.9 3.5.8 4.1 1.3 4.2 11.5 1.6 8.2-2.2 10.1-1.9 10.1 1.5 0 2.2.3 2.3 8.3 2.6l8.2.3-.3 2.9c-.3 2.8-.2 2.9 3.4 2.3 2-.3 3.9-.8 4.1-1.1 1-1-6.2-6.6-8.7-6.7-1.4-.1-3.4-.2-4.5-.3-1.1-.1-3-.3-4.2-.4-1.4-.1-2.3-1-2.5-2.4-.4-2.7-5.9-4.2-9.8-2.8-1.4.4-4.8 1.1-7.7 1.4-4.8.6-5.2.5-5.5-1.6-.3-2.4-4.4-3.7-6.3-2Z"/>
  <path fill="#000" d="M395.3 27.7c.3.5 2.3 1 4.4 1.1 2.1.1 6.8 1 10.6 1.9 6.3 1.6 6.7 1.9 6.7 4.5V38l-9.2.2c-5.1.1-11.9.2-15 .3-3.1 0-5.9.3-6.3.7-.8.8.4 3 1.3 2.4.4-.2 6.2-.7 13-1 10.4-.5 12.2-.4 12.2.9 0 .9-.9 1.5-2.4 1.5-1.4 0-2.6.7-2.8 1.6-.3 1.6-6.7 4.4-10 4.4-2 0-2.4 1.5-.8 2.5.6.4 5.5-.7 11-2.4 10.8-3.4 13.1-5.2 15.2-12.3.8-2.7.8-4.2.1-4.9-2.5-2.5-29.4-6.6-28-4.2Z"/>
  <path fill="#000" d="M389.5 33.1c-1.7.4 1.6.7 7.5.8 5.8.1 12.3.4 14.5.7 2.9.5 3.7.3 3-.4-1.1-1.3-20.4-2.1-25-1.1Z"/>
  <path fill="#000" d="M349.5 40.3c-1.3 1.1-1.5 1.6-.6 2.2.8.4 2.1-.1 3.4-1.4 1.7-1.6 1.8-2.1.6-2.1-.8 0-2.3.6-3.4 1.3Z"/>
  <path fill="#000" d="M346.8 49c-.3 1.7 0 3.4.6 3.8 3.2 2 29.3 3.4 29.9 1.6.2-1.1-9.7-2.5-17.1-2.4-5.7.1-11.2-2.2-11.2-4.5 0-2.8-1.8-1.5-2.2 1.5Z"/>
  <path fill="#000" d="M339 49.7c0 2.3.9 3.5 4.3 5.6 3.5 2.2 14.3 5.7 18 5.7 1.5 0 2.7.4 2.7.9s-3 .7-6.7.4c-5.8-.3-6.5-.2-4.8.8 1.1.7 5.9 1.5 10.6 1.7 6.9.3 8.8.1 10.1-1.2.9-.9 2.3-1.6 3-1.6.8 0 2.3-.7 3.4-1.5 1.7-1.3 1.2-1.4-5.4-1.5-16 0-31.7-4.1-32.8-8.6-.7-2.8-2.4-3.3-2.4-.7Z"/>
  <path fill="#000" d="M386 51c-3.4.5-4.1.8-2.7 1.4 2.1 1 8.7-.1 8.7-1.4 0-.6-.3-.9-.7-.8-.5 0-2.8.4-5.3.8Z"/>
  <path fill="#000" d="M465.4 51.4c-.3.8-.1 2.3.5 3.5 1.7 3 1.3 8.1-1 13-2 4.5-1.3 7.5 1.1 4.6.7-.8 1.9-1.5 2.6-1.5.8 0 1.4-1 1.4-2.4s.5-2.8 1-3.1c1.7-1.1 1.1-8.2-1.1-11.9-2.2-3.8-3.6-4.5-4.5-2.2Z"/>
  <path fill="#FFF" d="M392 56c-1.1 2.6-1.7 3-5.2 3-3.7 0-4 .2-3.3 2.2 1.7 5.8 1.8 6.8.1 6.8-1 0-1.4.5-1 1.1.3.6 1.9.9 3.4.5 2-.3 3.3.1 4.5 1.4 2.5 2.8 4.3 2.5 4.7-.8.2-2.1.8-2.7 2.8-2.8 4.3-.2 5-.4 5-1.3 0-.4-2-1.6-4.5-2.5l-4.4-1.7.6-4.5c.7-5.1-.8-5.9-2.7-1.4Z"/>
  <path fill="#000" d="M311.7 60.8c-5.3 5.5-6.3 15.4-2.2 21.5 3.4 4.9 7.8 7 30 14.1 5.3 1.7 19.6 3.1 17.5 1.6-.8-.5-2.5-1-3.6-1-3.5 0-21.7-5-24.1-6.6-1.2-.8-3.3-1.4-4.7-1.4-1.5 0-4.9-2.1-9-5.6-6-5.1-6.6-6-6.6-9.4 0-3.8 4.3-13 6.1-13 .5 0 .9-.7.9-1.5 0-2.2-1.3-1.8-4.3 1.3Z"/>
  <path fill="#000" d="M434 61.4c0 .7 1.2 2.2 2.7 3.2 4.3 2.7 5.9 4.6 8.2 9.1 2.3 4.7 4.1 5.6 4.1 2.1 0-4.3-4.1-10.7-8.4-13.3-4.8-2.8-6.6-3.1-6.6-1.1Z"/>
  <path fill="#000" d="M376.6 67.9c-.3.5.5 1.6 1.8 2.4 2.3 1.6 2.3 1.5 1.2-.8-1.2-2.6-2.1-3.1-3-1.6Z"/>
  <path fill="#000" d="M447.3 81.4c-9.8 6.8-35.3 13.9-53.9 15-5.7.4-18.2 1.5-23.4 2.2-1.4.1-3.2.3-4 .3-.9.1-1 .4-.5 1 2.9 2.8 32.1 1.8 46.5-1.5 20.4-4.8 44-15.7 44-20.4 0-1.8-2.4-.9-8.7 3.4Z"/>
  <path fill="#000" d="M270.1 138.4c-3.9 1.4-7 6.4-7.1 11.6 0 2.9.8 4.4 4 7.5 3.5 3.4 4.2 3.7 6.2 2.8 6.1-3 12-4.5 15.3-4 4.5.7 4.5 0 0-1.9-4.4-1.8-8.4-1.8-9.1.1-1 2.4-6.2 1.8-8.9-1-1.4-1.3-2.5-3.1-2.5-4 0-.8 2.1-3.5 4.6-5.9 6.1-5.9 5.1-8-2.5-5.2Z"/>
  <path fill="#FFF" d="M674 148.6c0 5.3-.3 6.5-1.4 6.1-.8-.3-1.7-.3-2 0-.8.9 3.3 6.3 4.8 6.3.9 0 1.3 1.3 1.2 3.6-.1 4.3 2 5.7 3 2 1-4.2 2.8-5 7.3-3.3 2.1.9 4.1 1.3 4.5 1 1.2-1.2.6-3.4-1.1-4-1-.4-2.8-1.3-4-2.1l-2.3-1.4 2.5-3c3.5-4.1 3.1-5-1.6-4.7-3.7.3-4.3 0-5.7-2.6-1.5-3-3-4.5-4.4-4.5-.5 0-.8 3-.8 6.6Z"/>
  <path fill="#000" d="M307 146.5c-2.6 2.8-5.2 3.2-6.9 1.1-2.7-3.2-13.3-2.3-15.6 1.4-1 1.7.1 2.3 2.2 1.2 1.3-.7 3.8-.7 7.8.2 9 1.8 15.5-.3 15.5-5.1 0-1.8-.3-1.7-3 1.2Z"/>
  <path fill="#000" d="M80.7 157.7c-1 .3-2.2 1.6-2.7 2.9-.9 2.2-1.4 2.4-8.5 2.4-11.8 0-8.8 1.6 4.2 2.3 8 .4 12.4.2 13.8-.6 1.9-1.1 1.9-1.2-.5-1.5-3.4-.5-5.4-2.2-4-3.6.5-.5 1-1.4 1-1.8 0-.8-.4-.9-3.3-.1Z"/>
  <path fill="#FFF" d="m282.5 163.1-.7 5.1-3.3-.5c-2.3-.4-3.8-.1-4.6.9-1 1.2-.5 1.7 3 3.1 3.8 1.5 4.2 2 3.7 4.2-1.8 8-1.9 9.1-.3 9.1.9 0 2.4-1.9 3.6-4.5 2.2-4.9 2.8-5.2 5.7-3 2 1.5 6.4 2 6.4.7 0-.4-.9-1.3-2-2-2.9-1.8-2.5-3.4 1.6-7 2.8-2.5 3.3-3.3 2-3.8-.8-.3-2.9.1-4.5.9-3 1.5-3.1 1.5-5.1-1.8-1.1-1.8-2-4-2-4.9 0-.9-.6-1.6-1.4-1.6-.9 0-1.6 1.7-2.1 5.1Z"/>
  <path fill="#000" d="M660 166.5c0 3.3-.2 3.5-2 2.5-2.2-1.2-2.5-.4-1.4 3.6.5 1.9 1.3 2.1 6.3 2 3.5-.1 7.1.5 9.2 1.6 1.9.9 4.7 2.1 6.2 2.7 1.5.6 3 1.8 3.4 2.7 1 2.6-4 6.4-8.3 6.4-3.4 0-4.7 2.1-2.3 3.6 1.5.9.2 9-2.2 13.7-2 3.9-2.5 8.2-1 9.1.4.3 1.3-.6 1.9-1.9.9-2 1.9-2.5 4.9-2.5 4.3 0 5.7-.7 6.6-3.4.6-1.5 1.4-1.7 4.2-1.3 2.3.4 3.8.1 4.6-.9.6-.8 1.5-1.4 2-1.4 1.1 0 6.8-6.2 6.9-7.4 0-.4-1.6-2.3-3.6-4.1-3.5-3.2-3.8-5.5-.9-5.5 1.6 0 4.1-7.2 3.1-9.2-3.6-7.3-5.3-9.3-8-9.6-4-.5-5.7 1.4-2.3 2.7 6.3 2.4 7.4 10.7 2.1 16.2-2.8 2.9-2.5 4.9.7 4.9 2.6 0 4.1 3.9 2.5 6.5-.7 1-2.4 2.2-3.7 2.6-1.3.3-4.9 1.8-8 3.2-7 3.4-7.6 3.4-8.4-.3-.8-3.7-.3-4.5 4.3-7 6.2-3.2 6.2-3.3 6.8-10.8l.6-7.1-6.6-3.1c-3.7-1.6-7.1-3-7.6-3-1.2 0-8-6.8-8-8 0-.6-.4-1-1-1-.5 0-1 1.6-1 3.5Z"/>
  <path fill="#000" d="M672.4 167.4c-.7 2 .2 4.6 1.6 4.6 1.3 0 1.3-4.7 0-5.5-.6-.3-1.3.1-1.6.9Z"/>
  <path fill="#000" d="M305.6 173.5c-.3.9-.3 4.9.1 9 .6 7.7-.2 9.3-2.9 6-2.6-3.1-5.2-5.5-5.6-5.1-.2.2.8 2.8 2.2 5.8l2.6 5.3-3.3 2.7c-3.9 3.3-5.7 3.5-8.1.7-1.3-1.5-2.1-1.8-2.9-1-.7.7-.6 1.6.6 2.9 2.3 2.5 2.1 3.4-.8 6.2-1.4 1.3-2.5 3.3-2.5 4.5 0 2.4 5.4 10.5 7 10.5.5 0 1.8 1 3 2.2 1.1 1.2 2.2 1.9 2.5 1.6.7-.6-4.1-5.8-7.3-7.8-2.2-1.4-2.3-1.6-.8-5.1 1.6-3.9 7.6-10.9 9.3-10.9 1.2 0 11.6 14 10.9 14.7-.5.5-7.5-6.8-7.6-8 0-1.3-2.7-.7-5 1.1-2.1 1.7-2.2 2-.7 4.8.8 1.6 3.2 4.5 5.2 6.4 3.5 3.4 3.6 3.4 6.3 1.8 1.5-.9 4.6-2.6 7-3.7 2.3-1.1 4.2-2.7 4.2-3.5 0-1.9-7.8-21.6-9.2-23.3-.6-.7-.8-2-.4-2.8.5-1.4-1.9-15.3-2.8-16.2-.2-.2-.6.3-1 1.2Zm3.4 27.2c1.2 2.7 3.3 6.3 4.7 8.1 3.4 4.5 1.7 6-2.5 2.1-1.7-1.6-3.2-3.5-3.2-4.2 0-.7-1.4-2.4-3.2-3.9-3.2-2.6-3.2-2.7-1.4-4.7 1.1-1.2 2.2-2.1 2.6-2.1.4 0 1.8 2.1 3 4.7Zm-5.6 12.5c1.7 2.4 2.1 4.8.8 4.8-1.4 0-6.2-5.1-5.7-6.1 1-1.6 3.3-1 4.9 1.3Z"/>
  <path fill="#FFF" d="M452.2 187.2c-.7 2.9-1.4 3.4-5 4-7.5 1.3-8.5 3.2-2.1 4.1 2.3.3 4.5.9 5 1.4.4.4.4 2.8-.2 5.2-.5 2.5-.9 5.6-.7 7 .3 2.5.4 2.5 2.8-1.1 3-4.6 5.1-5.4 8.3-3.4 1.3.9 3.8 1.8 5.5 2l3.1.3-3-4.4c-3.3-4.7-3.2-5.3 1.3-9.3 1.4-1.2 1.5-1.8.5-3.2-1.1-1.3-2.1-1.5-5-.8-3.5.7-3.9.6-5.3-2.1-1.9-3.8-4.1-3.7-5.2.3Z"/>
  <path fill="#000" d="M241 192c0 1.7.4 3.8 1 4.8.5.9 1.4 2.9 2 4.4.5 1.6 1.4 2.8 2 2.8 1.4 0 1.3-1.6-.5-4.9-.8-1.6-1.2-3.1-.9-3.4.6-.5-2.3-6.7-3.1-6.7-.3 0-.5 1.4-.5 3Z"/>
  <path fill="#000" d="M131.6 206c.4 4.5.2 9.1-.5 11.4-.6 2.2-.8 4.2-.6 4.5.7.7 1.5-.4 2-2.7.2-1.1.9-3.1 1.5-4.3 1.7-3.1.8-12.6-1.4-14.7-1.6-1.6-1.7-1.3-1 5.8Z"/>
  <path fill="#000" d="M689 208.5c0 2.5-2.1 6.1-4.3 7.4-1.1.8-6 1.6-10.7 1.9-4.7.2-9.5.8-10.8 1.3-3.4 1.3-3.9 3.9-1.2 6.1 2.1 1.7 2.2 2.1 1 4.6-.7 1.5-1.6 4.3-2.1 6.2-.4 1.9-1.1 4.5-1.4 5.7-.6 2-.4 2.3 1.7 2.3s2.6-.7 3.9-5.6c1.4-5.5 1.6-5.7 5.9-7 2.5-.7 5.7-1.5 7.1-1.8 2.9-.6 4.2-2.6 3-4.5-.6-.8-1.5-.7-3.9.4-3.7 1.9-13 1.1-13.9-1.2-1.1-2.8 2.9-4.3 11.2-4.2 4.4 0 10-.6 12.5-1.4 3.6-1.1 4.6-2 5.2-4.6.5-1.9.4-3.9-.2-5.1-1.2-2.3-3-2.6-3-.5Z"/>
  <path fill="#000" d="M278 215.9c0 2 4.7 6.4 5.9 5.7.9-.6.5-1.6-1.5-3.7-2.8-3-4.4-3.7-4.4-2Z"/>
  <path fill="#FFF" d="m374.3 227.6-4.2 3.6-3-2.1c-2.7-1.9-8.1-2.9-8.1-1.5 0 .4 1.3 2.8 2.9 5.4l2.9 4.7-4.4 2.6c-6.6 4-5.8 6.4 1.5 4.5 4.9-1.2 6.1-.4 6.1 4.4 0 4.5 1.9 4.2 4.1-.6 2.2-5.1 2.2-5.1 5.2-3.5 2 1.2 7.4 1.5 8.4.6.2-.3-1.8-2.8-4.6-5.6l-5-5.1 1.9-4.3c3.5-7.6 2.6-8.4-3.7-3.1Z"/>
  <path fill="#FFF" d="M279 226.6c0 .8.4 2.3.9 3.3.6 1 1.3 4 1.7 6.8.6 4.9.5 5.2-3.5 9.6-2.2 2.4-4.1 4.7-4.1 5.1 0 1.1 2.8.6 7.3-1.3l4.6-2 1.8 6.2c1.5 5 2.3 6.3 4.1 6.5 2 .3 2.2-.1 2.2-4 0-2.4.4-4.8.8-5.3 1.2-1.7 8.1-3.7 10.2-3 1.4.4 2 .2 2-.9 0-.8-.9-1.7-1.9-2.1-3.4-1-7.1-4.6-7.1-6.7 0-1.1.9-3.6 2.1-5.4 1.9-3.2 1.9-5.4-.2-5.4-.5 0-2.9 1.8-5.2 3.9l-4.3 4-2.5-2.7c-1.3-1.5-3.2-3.9-4.2-5.5-1.9-2.9-4.7-3.6-4.7-1.1Z"/>
  <path fill="#000" d="M136.3 230.3c-.5.6-1.5 2.4-2.2 3.8-.7 1.5-2.3 3.2-3.5 3.7-1.8.9-1.8 1.1-.3 1.1 2.1.1 8.7-5.6 8.7-7.5 0-1.9-1.6-2.6-2.7-1.1Z"/>
  <path fill="#000" d="M273.6 232.2c1 3.5 3.3 7.6 4.5 8.4.6.4 1 .3.8-.2-.2-.5-1.2-3-2.3-5.7-1.9-4.7-4.4-6.7-3-2.5Z"/>
  <path fill="#000" d="M270 242.3c0 .8.9 2.2 2 3.2 2.3 2.1 2.5 1.6.8-2-1.2-2.7-2.8-3.4-2.8-1.2Z"/>
  <path fill="#FFF" d="M197 247.5c-4.2 6-5.8 6.8-9.5 4.5-3.2-2-6.6-2.1-7.3-.2-.2.6 1.2 2.4 3.1 4.2l3.4 3.1-1.3 5.5c-1.1 4.8-1 5.6.2 6.1.9.3 2.9-.4 4.6-1.7l3-2.2 3.2 3.1c2.2 2.2 4.2 3.1 6.4 3.1 3.8 0 3.9-.4.7-4.5-2.8-3.8-2.5-4.5 2.6-4.5 2.1 0 5-.5 6.4-1 2.3-.9 2.5-1.3 1.5-2.5-.7-.8-2.1-1.5-3.2-1.5-1 0-3.5-.7-5.4-1.5l-3.6-1.5.7-6.5c.6-5.5.5-6.5-.8-6.5-.9 0-3 2-4.7 4.5Z"/>
  <path fill="#000" d="M313 252.2c-3 5.8-4.8 11.1-8.4 24.3-2.1 7.6-3 32.2-1.6 46 1.6 16.6 1.9 18.5 3.4 18.5.9 0 1.1-1.5.5-6.3-2.4-19.6-1.8-50.2 1-57.2.5-1.1 1.6-5 2.5-8.7.9-3.7 3.2-9.4 5-12.5 1.9-3.2 3-6.1 2.5-6.4-.5-.3-.7-1.3-.3-2.2.3-.9.2-1.7-.4-1.7-.6 0-2.5 2.8-4.2 6.2Z"/>
  <path fill="#FFF" d="M648.4 250.9c0 2.4-.6 4.6-1.7 5.8-2.3 2.6-2.2 2.9 1.3 4.2 2.7.9 3 1.4 3 5 0 2.3.4 4.1.8 4.1 2 0 7.2-3.3 7.2-4.5 0-1.8 3.4-2.8 7-2 1.9.4 3 .3 3-.4 0-.6-.4-1.1-.9-1.1-.4 0-1.9-2-3.2-4.5-2.3-4.4-2.3-4.6-.7-7.5l1.7-3h-4.4c-2.7 0-4.5.5-4.5 1.1 0 1.1-4 .8-7.1-.5-1.4-.6-1.6-.1-1.5 3.3Z"/>
  <path fill="#000" d="M511.4 253.4c-3.8 1.2-14.5 8.7-15.2 10.7-1 2.6 7.2-1.1 8.7-4 1.3-2.4 7.3-5.3 8.5-4.1 1 1 4.6-1.5 4.6-3.2 0-1.1-1.7-.9-6.6.6Z"/>
  <path fill="#000" d="M415.4 256.5c-.7 1.8.3 3.5 2 3.5.7 0 2.3 1.1 3.6 2.5 2.3 2.4 5 3.3 5 1.7 0-.4-1.3-2.4-3-4.3-3.2-4-6.8-5.6-7.6-3.4Z"/>
  <path fill="#FFF" d="M270.4 261.4c-.4.9.2 3.5 1.2 5.8 1.7 3.8 1.7 4.3.2 8.5-1.4 3.8-1.4 4.5-.2 5 .8.3 2.1-.1 3-.8 1.4-1.1 1.8-1 3 .6.8 1 1.4 2.3 1.4 2.7 0 .5.7 2 1.6 3.4 2.6 3.8 4.4 1.5 3.7-4.6l-.6-4.9 4.3-.3c4-.3 7.2-2.8 3.5-2.8-.9 0-2.9-.7-4.4-1.5l-2.8-1.4 1.7-5.3c1-2.9 1.6-5.5 1.4-5.7-.2-.2-2 1.1-4.1 2.8-2.1 1.7-4.2 3.1-4.7 3.1-.6 0-2.5-1.4-4.3-3.2-2.8-2.7-3.3-2.9-3.9-1.4Z"/>
  <path fill="#000" d="M296.4 265.5c-2.6 1.8-.6 6.9 2.8 7.3 3.3.4 6.2-3.2 4.8-5.8-1.2-2.2-5.5-3.1-7.6-1.5Z"/>
  <path fill="#000" d="M543 270.5c-.7.8-.9 2.3-.4 3.7.4 1.3 1.2 7.2 1.9 13.3 1.1 10.8 1.1 10.9 2.3 7 2.1-7.1 1.2-25.5-1.3-25.5-.7 0-1.8.7-2.5 1.5Z"/>
  <path fill="#000" d="M156 277.6c0 2.4 1.9 5.4 3.5 5.4s1.8-1.2.9-4.8c-.7-2.5-4.4-3.1-4.4-.6Z"/>
  <path fill="#000" d="M501 280.3c0 4.5 2.2 8.7 4.5 8.7.8 0 2.4 1.8 3.6 4 1.3 2.2 2.6 4 3.1 4 1.2 0 1-.5-1.2-4.3-2.4-4.1-4.2-9.7-3.1-9.7.5 0 2.5 2.5 4.5 5.5 3.1 4.7 5.6 6.9 5.6 5 0-1-2.6-5.1-5.2-8.3-1.6-1.8-2.8-3.7-2.8-4.2 0-1.7-4.4-5-6.7-5-2 0-2.3.5-2.3 4.3Z"/>
  <path fill="#000" d="M443.8 285.4c-.6 1.5-.8 2.9-.5 3.2.9.9 3.7-1.5 3.7-3.2 0-2.5-2-2.5-3.2 0Z"/>
  <path fill="#000" d="M294.2 289.2c-1.5 1.5-1.6 5.5-.1 6.3 1.6 1 5.6-.3 6.3-2.1 1.4-3.8-3.3-7.1-6.2-4.2Z"/>
  <path fill="#000" d="M285.8 294.2c1.2 1.2 2.5 1.8 2.9 1.4.4-.4-.1-1.4-1.1-2.2-3.1-2.2-4.3-1.7-1.8.8Z"/>
  <path fill="#000" d="M514 299.5c0 .8.7 1.5 1.5 1.5.9 0 1.2-.6.9-1.5-.4-.8-1-1.5-1.5-1.5s-.9.7-.9 1.5Z"/>
  <path fill="#000" d="M236 300.5c0 .2 2.3 2.8 5 5.7 3.4 3.6 5 4.7 5 3.5 0-2.6-2.9-6.6-6.1-8.3-2.9-1.5-3.9-1.7-3.9-.9Z"/>
  <path fill="#000" d="M291.7 309.4c-2 1.5-1.4 4.2 1.3 5.6 1.3.7 2.4.5 3.9-.8 2-1.6 2.1-1.9.6-4-1.8-2.5-3.2-2.7-5.8-.8Z"/>
  <path fill="#000" d="M229.1 311.6c-1.2 1.5-2.1 3.2-2.1 3.9 0 4 8.3 4.7 8.8.8.3-2.1-2.5-7.2-4-7.3-.4 0-1.6 1.2-2.7 2.6Z"/>
  <path fill="#000" d="M243.6 320.7c-.3.3-.6 1.2-.6 2 0 .9 1.5 1.3 4.9 1.3 4.2 0 5.3.5 8.8 3.7 5.4 5.2 9 10.1 10.7 15.1 1.3 3.7 1.3 4.3 0 5.5-.9.6-2.3 2-3.2 2.9-2 2.2-3.1 2.2-8.2.2-3.7-1.5-12-10-13.3-13.6-.2-.7-.7-1-1.1-.6-.4.3 0 2.8.9 5.5 1.7 4.9 4 8.3 5.8 8.3 1.7 0 10.6 4.4 10.7 5.3 0 .5-1.3 2-3 3.4-1.6 1.3-3 2.9-3 3.4 0 1.4 2.8 1 3.7-.5.4-.8 3.9-4.2 7.8-7.6 6.6-5.8 14-16 11.6-16-.6 0-1.6.9-2.3 2-.7 1.1-1.6 2-2 2-.5 0-.8-.9-.8-2s-.7-2-1.5-2-1.5-.8-1.5-1.8-2.8-4.6-6.3-8c-5-4.9-7.2-6.4-10.3-6.9-2.1-.3-4.6-.9-5.5-1.4-.9-.5-1.9-.5-2.3-.2Z"/>
  <path fill="#000" d="M236.7 325c-.8 1.1-1.6 1.8-1.8 1.5-.3-.2-2.2 0-4.4.6-2.8.8-3.5 1.3-2.4 2 1.9 1.2 9.9 1.1 9.9-.1 0-.6 1.4-1 3-1 3.5 0 4.1-2.3 1.1-4-2.8-1.4-3.8-1.3-5.4 1Z"/>
  <path fill="#000" d="M326 324.9c1.6 3.1 16.9 14 21.2 15.2 4.5 1.2 8.8.8 5.3-.5-5.9-2.2-15.4-7.7-20.6-11.9-6.5-5.2-7.5-5.6-5.9-2.8Z"/>
  <path fill="#000" d="M413 324c0 .6 2 1.9 4.4 2.9 2.4 1.1 4.6 2.6 4.9 3.5.4.9 1.4 1.6 2.2 1.6 1.7 0 12.5 9.7 12.5 11.2 0 .5 1.1 2 2.4 3.4 2.9 3.2 4.7 1.4 2-1.9-4.9-5.9-8.3-9.2-12.9-12.7-6.2-4.6-15.5-9.4-15.5-8Z"/>
  <path fill="#000" d="M479 329.3c0 2.4 3.2 9.3 3.7 8 .6-1.6-1.5-8.1-2.8-8.8-.5-.4-.9 0-.9.8Z"/>
  <path fill="#000" d="M245 329.3c-.1 2.4 4.5 8.9 9.8 13.9 5.7 5.5 8.2 7 8.2 4.9 0-1.1-9.9-10.1-11.1-10.1-.5 0-.9-.6-.9-1.3-.1-1.3-5.9-8.7-6-7.4Z"/>
  <path fill="#000" d="M311.9 331.5c-.4 1.7 2.7 16.1 3.8 17.4 1.6 2.1.5-5.7-2-14.4-1-3.5-1.5-4.4-1.8-3Z"/>
  <path fill="#000" d="M322.9 334.8c2.3 4.4 15 12.7 22.7 15 5 1.5 5.4 1.5 5.4.2 0-.6-.7-1-1.5-1-2.1 0-8.4-3-12.9-6.2-2.1-1.6-4.4-2.8-5.1-2.8-.6 0-2.2-1.2-3.6-2.6-1.3-1.4-3.2-3-4.2-3.6-1.6-.8-1.7-.7-.8 1Z"/>
  <path fill="#FFF" d="m616.2 348.8.6 8-4.9.7c-5.9.8-6 2.5-.3 4.1 4.3 1.2 5.4 3.5 3 6-2 2-3.1 6.3-2 7.4.6.6 2.1.4 3.7-.5 1.6-.8 3.2-1.4 3.7-1.2.5.1 1.5-.6 2.2-1.6 1.1-1.5 2-1.7 5.3-.9 2.2.5 4.8 1.3 5.7 1.7 2.8 1.1 3.4-2.2.9-5.5-1.1-1.6-2.1-3.4-2.1-4 0-.6 1.8-3.6 4.1-6.6 2.2-3.1 3.9-5.7 3.7-6-.2-.2-1.8.1-3.4.8-5 1.8-9.8.3-13.4-4.3-1.8-2.1-4.1-4.4-5.2-5-2.1-1.1-2.1-1-1.6 6.9Z"/>
  <path fill="#000" d="M320 342.7c0 1.4 4.4 5.3 5.9 5.3.7 0 1.1-.5.9-1.1-.5-1.4-6.8-5.3-6.8-4.2Z"/>
  <path fill="#000" d="M381 343.4c0 1.1 6 8.9 7.8 10.1.9.7 4.7 2.8 8.4 4.8 10.5 5.7 11.7 4.6 2.5-2.1-11.6-8.5-18.7-13.3-18.7-12.8Z"/>
  <path fill="#FFF" d="M306.6 350.9c.6 4.8.5 5.3-2.1 7.4-1.6 1.2-4.9 3.4-7.4 4.9-2.5 1.5-4.4 2.8-4.1 2.9.3 0 1.4.2 2.5.5 1.1.2 4.1.5 6.7.6 3.4.1 4.5.5 4.1 1.5-.3.8 0 1.3.8 1.1 1-.2 1.4 1.2 1.5 5.4.1 9.2 1.2 8.9 7.6-2.1 1.9-3.2 3.2-4.5 4.5-4.3 4.6.8 12.3 1.4 12.3 1 0-.3-2-2.7-4.5-5.4-2.5-2.6-4.5-5.1-4.5-5.5 0-.4 2.1-2.6 4.6-4.8 5.1-4.4 4.8-4.9-1.8-2.7-8 2.6-11.6 2.9-12.7.9-2-3.5-3.6-5-5.9-5.7-2.2-.7-2.3-.6-1.6 4.3Z"/>
  <path fill="#000" d="M335.1 354.4c-1.6 2 6.9 5.7 10.6 4.7 2.5-.8 2.6-.9.8-1.6-1.1-.4-3.9-1.6-6.2-2.6-3.3-1.4-4.4-1.5-5.2-.5Z"/>
  <path fill="#000" d="M385 353.5c0 4.3 8.9 11.8 20.4 17.1 9.4 4.3 15.3 4.4 6.6.2-9.2-4.6-16.4-9.1-21.8-13.6-2.9-2.4-5.2-4.1-5.2-3.7Z"/>
  <path fill="#000" d="M357.5 361.6c-3.3 1.4-8.7 3-12 3.5-8.4 1.3-9.9 1.9-8.6 3.2 2.4 2.4 28.1-5.2 28.1-8.4 0-1.3-.9-1.1-7.5 1.7Z"/>
  <path fill="#000" d="M396 370.8c.1 3 5.9 6.3 18.2 10.3 9.4 3.1 10.8 3.4 10.8 2 0-.4-2.8-1.9-6.2-3.1-3.5-1.2-8.8-3.4-11.8-4.8s-6.7-3.1-8.2-3.8c-1.6-.7-2.8-1-2.8-.6Z"/>
  <path fill="#000" d="M622.9 380.8c-1.4 3.1-3.1 8.4-3.8 11.7-.7 3.3-2.1 8.2-3.2 11-1 2.7-2.8 8.4-3.8 12.5-1.1 4.1-2.9 10.6-4.1 14.5-3.4 11.3-4.5 15.4-15.9 58.5-2.3 8.5-5.2 18.9-6.5 23-1.3 4.1-3.6 11.5-5.1 16.5-1.4 4.9-3.3 10.8-4 13-2 5.9-4.2 14-6 22.5-.9 4.1-2 8.2-2.5 9.1-.5.9-1.4 4.5-2 8-.6 3.5-2 9.5-3 13.4-1 3.8-1.7 7.2-1.4 7.6.2.4.1.9-.4 1.1-.6.3-1.8 5.2-5.3 22.3-1.6 7.6-8.8 34.5-9.6 35.8-.4.6-2 4.3-3.4 8.2l-2.6 7h-4.4c-3-.1-5.4-.8-7.6-2.4-4.4-3.3-5-6.5-1.9-11 1.4-2 2.8-5 3.1-6.6.4-1.7 1.7-6.2 3-10 2.3-6.9 3.7-11.8 7-24.5.9-3.6 2.3-8.1 3-10 2.3-5.9 6.5-19.8 6.5-21.4 0-.8 1.5-6.1 3.4-11.8 8.7-26.9 14.5-45.8 24-78.8 3.6-12.4 7.5-25.4 8.6-29 2.3-7.4 2.7-8.7 6.5-22.5 1.5-5.5 4-13.8 5.5-18.5 1.5-4.7 3.1-10.1 3.5-12 .4-1.9 1.1-4.1 1.5-5 .7-1.5 1.5-3.8 6-19 1.2-4.1 2.8-9 3.6-10.8 1.8-4.1 1.7-4.9 0-5.5-1-.4-2.3 2.1-4.7 9.6-1.7 5.6-4.2 12.9-5.4 16.2-1.2 3.3-3 9.1-4 13-1 3.8-2.8 9.7-4.1 13-2 5.3-9 29.7-10.8 38-.4 1.6-2.5 8.8-4.7 16-5.2 16.5-8.2 26.4-10.4 34-1 3.3-3.3 10.5-5.1 16-4.2 13-10 31.8-11.4 37.5-.7 2.5-1.7 5.4-2.2 6.5-1.6 2.9-5.8 16.7-5.8 19.1 0 1.1-.4 2.4-.9 3-.6.5-1.4 2.7-2 4.9-2.4 9.4-3.5 13.4-5.7 20.5-1.2 4.1-3.2 10.9-4.2 15-1.1 4.1-3.6 11.7-5.6 16.7-2 5.1-3.6 9.7-3.6 10.3 0 .6-.5 1.9-1.2 2.9-1.7 2.7-.6 4.4 5.9 8.7 4.7 3.1 6.6 3.8 10.1 3.7 5.3-.2 9.2-2.6 9.2-5.6 0-1.2.7-3.6 1.6-5.2.9-1.7 2.7-6.9 4-11.7 1.3-4.8 3.2-10.6 4.3-13 2.4-5.3 5.1-14.8 5.1-18 0-1.3 1.2-5.9 2.6-10.3 1.4-4.4 2.7-10 2.9-12.4.2-2.4 1-5.7 1.8-7.5 1.6-3.3 6.7-25 6.7-28.5 0-1.2.9-4 2-6.3 1.1-2.2 1.7-4.4 1.5-4.9-.3-.4 0-2 .6-3.6.6-1.5 1.3-4.3 1.5-6.1.3-1.8 1.1-5.2 1.8-7.5.8-2.3 1.9-6.7 2.5-9.7.7-3 1.9-6.5 2.7-7.8.9-1.3 1.4-3.2 1.1-4.1-.2-1 .4-3.5 1.4-5.6 1.1-2.1 1.9-4.7 1.9-5.7s.8-4.4 1.9-7.6c1-3.1 3.1-9.8 4.6-14.7 1.5-5 3.3-10.6 4-12.5.7-1.9 2.3-8 3.5-13.5 1.2-5.5 2.7-11.4 3.5-13 1.2-2.7 3.1-9.9 5.5-21.1.5-2.3 1.8-6.9 2.9-10.2 1.2-3.4 2.1-7.3 2.1-8.6 0-1.4 1.4-6.7 3-11.8 1.7-5.1 3-10.2 3-11.5 0-1.2.4-2.4.9-2.7 1.3-.9 1.9-6.6.7-6.6-.6 0-2.3 2.6-3.7 5.8Z"/>
  <path fill="#000" d="M402 380.4c0 1.6 12.2 6.7 17 7.2l5.5.5-7-2.4c-3.8-1.3-8.4-3.1-10.2-4-3.1-1.6-5.3-2.2-5.3-1.3Z"/>
  <path fill="#000" d="M368.6 381.9c-.4.7-.5 1.5-.2 1.8.9.9 1.9-.4 1.4-1.8-.4-1.1-.6-1.1-1.2 0Z"/>
  <path fill="#000" d="M365.6 387.7c.3 1.6 1.7 5.6 3 9.1 1.3 3.4 2.4 6.8 2.4 7.6 0 1.7 4 11.1 8.6 20 1.9 3.7 3.3 7.1 3 7.4-.3.3-.1 1.1.5 1.9 1.5 1.7 3.8 5.8 8.9 15.8 2.2 4.4 4.4 8.7 4.9 9.5.4.8 1.4 2.8 2.2 4.5 1.7 3.4 4.7 4.6 4.5 1.8-.1-1-1.7-4.5-3.7-7.8-1.9-3.3-4.6-8.2-5.9-11-1.3-2.7-4-7.7-6-11-3.1-5.3-5.7-10.6-10.6-22-3.3-7.7-10.4-26.4-10.4-27.4 0-.6-.5-1.1-1-1.1-.6 0-.8 1.2-.4 2.7Z"/>
  <path fill="#000" d="M407.3 388.3c.6 1.8 14.5 6.8 20.7 7.4 6.8.7 5.8-.6-2.5-3.1-15.5-4.8-18.6-5.5-18.2-4.3Z"/>
  <path fill="#000" d="M357 389c0 .5 1.4 3.2 3 5.8 1.7 2.7 3 5.2 3 5.6 0 .4 1.1 3.1 2.4 5.9 3.3 7.3 16.9 44.5 20.1 54.9 2.4 8.2 3.9 10.8 5.2 9.4.5-.4-6.7-22.9-9.5-29.6-.6-1.4-2.5-6.6-4.2-11.5-4.6-13.1-8.4-22.9-9-23.5-.3-.3-2.6-4.4-5-9.3-4.1-7.9-6-10.4-6-7.7Z"/>
  <path fill="#000" d="M352 391.8c0 .7 5.1 13.6 7.1 17.7 1 2.3 6.6 18.6 7.8 23 .5 1.6 1.8 5.5 3 8.5 2.3 5.6 3.9 11.1 9.1 30.8 1 4.1 1.5 4.6 3.4 3.9 1.1-.5 1.3-1.2.5-3.4-.5-1.5-2-6.6-3.3-11.3-7.8-28-13.4-44.2-20.3-58.2-5.1-10.3-7.3-13.7-7.3-11Z"/>
  <path fill="#000" d="M411.7 393.7c-1 .9 1.3 3.3 3.2 3.3.9 0 2.1.4 2.7.9.9.9 11.3 4.1 13.3 4.1.6 0 1.1-.5 1.1-1 0-.6-1-1-2.3-1-3.2 0-12.3-3.3-14.5-5.3-2-1.9-2.6-2-3.5-1Z"/>
  <path fill="#000" d="M259.1 428.2c4.8 9 17 23.9 18.4 22.6.5-.4-1-2.7-3.2-5.1-2.2-2.4-6.6-7.8-9.7-12-5.6-7.6-7.8-9.8-5.5-5.5Z"/>
  <path fill="#000" d="M258 437.4c0 1 5.8 9.3 7 10.1 1.7 1 1.1.1-3-5.5-2.2-2.9-4-5-4-4.6Z"/>
  <path fill="#000" d="M267 449.4c0 1.9 7.4 12.6 9.3 13.4.4.2 1.4 1 2.1 1.8 1.6 1.5 2.1.2 3.1-8 .3-2.1.8-4.2 1.1-4.7 1-1.6-.7-3.1-2.1-1.9-.8.7-1.2 2.7-1.1 5.1.4 5-1.9 6.5-4.3 2.8-2.1-3.2-8.1-9.5-8.1-8.5Z"/>
  <path fill="#000" d="M406.6 474.5c.7 1.8 4.4 4 4.4 2.7 0-1-3.3-4.2-4.3-4.2-.3 0-.4.7-.1 1.5Z"/>
  <path fill="#000" d="M254.1 489.3c-.1 1.1 4.8 10.7 7.1 14 3.7 5.3 3 1.9-1.1-5-5.4-9.1-6-9.9-6-9Z"/>
  <path fill="#000" d="M345.3 517.7c-1.3.2-2.3 1.1-2.3 2 0 1.2.7 1.4 3.8.8 4.3-.8 4.6-1 3.7-2.4-.6-1.1-1.3-1.2-5.2-.4Z"/>
  <path fill="#000" d="M272 525.4c0 .2.7.6 1.5 1 .8.3 1.5.1 1.5-.4 0-.6-.7-1-1.5-1s-1.5.2-1.5.4Z"/>
  <path fill="#000" d="M344 526c-2.8 1.7-.1 2.2 4.2.7l4.3-1.5-3.5-.1c-1.9 0-4.2.3-5 .9Z"/>
  <path fill="#000" d="M279.2 527c2.6 1.5 11 1.7 11.5.2.4-.9-1.3-1.2-6.4-1.2-4.9.1-6.3.3-5.1 1Z"/>
  <path fill="#000" d="M275.5 531.9c2.3.9 12.2.7 13.2-.2.3-.4-2.9-.7-7.3-.6-4.8 0-7.1.3-5.9.8Z"/>
  <path fill="#000" d="M249 542.9c0 6.4-.8 7.4-4.9 5.9-2.6-1-4.1.3-4.1 3.5 0 1-.9 3.7-2 5.9-2.2 4.6-2.1 5.4.8 3.9 1-.6 2.5-3.1 3.2-5.6 1.2-4.3 1.4-4.5 5.1-4.5h3.9v-7.5c0-4.3-.4-7.5-1-7.5s-1 2.6-1 5.9Z"/>
  <path fill="#000" d="M272.5 540c-1.6.4-4.7 1.1-6.7 1.4-2.4.4-3.8 1.2-3.8 2.1 0 1.8 0 1.8 3.8 0 1.7-.9 5.3-1.8 8.1-2.2 2.8-.3 4.8-1 4.5-1.4-.6-1-1.8-1-5.9.1Z"/>
  <path fill="#000" d="M92 551.9c-14.3 5.7-21 8.7-22 10-.3.4-1.9 1.3-3.6 2-2.7 1.1-3.6 1-6.5-.7-3.9-2.1-13.7-4.8-21.4-5.8-1.1-.1-5.4-.9-9.5-1.8s-9.6-1.6-12.2-1.6c-2.6 0-5.8-.4-7.1-.9-2.3-.9-2.5-.7-3.1 3.1-.4 2.2-.5 4.2-.4 4.4.2.1 4.8.7 10.2 1.3 5.5.7 13.1 1.8 17 2.6 8.2 1.7 9.6 1.8 9.6.7 0-.5-3.7-1.4-8.2-2.1-10-1.6-18.8-4-20.8-5.8-1.2-1.1-1-1.3 1.5-1.4 6-.3 10 .3 11.1 1.7.6.8 2.4 1.4 4 1.4s4.9.5 7.4 1.1c2.5.6 7.2 1.7 10.5 2.5 13.9 3 13 2.5 13.3 7.3l.3 4.4-4.1-.7c-2.2-.3-6-1.3-8.3-2.1-4.8-1.7-12.1-2-11.2-.5.3.5 2.5 1 4.8 1s6.8.9 10 2c3.2 1 6.5 1.6 7.4 1.3 1.1-.4 1.4-.2 1.1.8-.3.9-2.5 1.6-5.9 2-3 .3-4.3.7-2.9.8 1.4.1 3.2.6 4 1.1 2.2 1.5-30.3.7-41.7-1-7.7-1.1-9.5-1.1-10.8 0-2.3 1.9.2 3.2 4 2.1 1.6-.4 6.7-.1 11.4.6 4.8.7 15.5 1.5 23.9 1.7 14.9.4 15.4.3 16.2-1.8.7-1.9.9-1.9 1.5-.3.4.9.5 3 .2 4.5-1.1 5.9 3.8 11.9 8.9 10.9 1.5-.2 4.3.7 7.6 2.7 6 3.6 9.1 8.6 7.7 12.3-.4 1.2-.5 3.7-.2 5.6.5 3 1 3.6 3.9 4.2 1.9.3 6.2 1.5 9.6 2.6 7 2.2 26 4.9 35.1 4.9 3.4 0 7.8.4 9.7.8 1.9.5 4.6.5 6 .2l2.5-.7-2.5-.6c-2.1-.5-12.9-1.4-26.5-2.2-10-.6-31.8-5.5-34-7.6-.5-.6-.5-.9.3-.9.7 0 1.2-.7 1.2-1.6 0-1.1.5-1.4 1.6-1 .9.3 2 .6 2.5.6.6 0 .7.4.4 1-.3.6.5 1 1.9 1 1.9 0 2.4-.4 1.9-1.7-.6-1.4 0-1.5 4.3-1 12.8 1.7 19.4 2 19.4.8 0-.6-1.6-1.1-3.7-1.1-4.2 0-18.1-2.3-22.8-3.7-1.9-.6-2.5-1.2-1.7-1.7.7-.4 1.6-.5 2.2-.1.5.3 4.6.5 9.2.5 4.6-.1 9-.1 9.8-.1 29.7 1 35.9 1 36.5.2 1-1.7-2.8-2-29.1-2.4-14.4-.2-25.8-.8-26.9-1.4-1.8-1-1.8-1.1.1-1.6 1-.3 4.4-.6 7.5-.5 3.1 0 6.4-.4 7.3-.9 1.2-.7-.2-1-5.1-1-12.3-.2-22.4-1.4-22-2.7.2-.6 1.3-.9 2.3-.7 1 .1 9.8.3 19.4.2 17-.1 25.7-.7 24.6-1.8-.7-.7-47.3-.4-49.2.4-.8.3-1.4 0-1.4-.6 0-.7.6-1.3 1.3-1.6 3.1-1 54.5-3.3 76.5-3.4 10.1-.1 13.3-.4 12.9-1.4-.5-1.5-28.8-1.4-43.2.2-5.2.6-15.6 1.1-23.2 1.1s-16.7.5-20.2 1c-4.3.7-6.7.7-7.5.1-.8-.7-2.4-.7-4.5-.1-1.8.5-3.8.7-4.5.4-1.7-.6-4.3-22.6-3-25.4 1.6-3.4 3.4-.7 4.2 6.1l.7 6.4 3.9.3c3.3.3 4.4-.2 7.7-3.4 4.6-4.5 4.8-5.4 1.2-5.4l-2.8-.1 2.5-1.4c3.6-2.1 6-1.9 6 .5 0 1.1-.8 2.9-1.7 3.9-3.5 3.8-4.5 5.2-4.1 5.7.7.6 42.9-2.5 48.9-3.6 2.9-.6 7.7-1 10.8-1.1 8.2-.1 12.3-1.7 4.9-1.8-4.9-.1-10.7.5-24.6 2.3-3 .4-3.3.3-3-1.7.2-1.5 1.1-2.3 2.8-2.4 1.4-.1 5.2-.4 8.5-.8 3.3-.3 9.8-.8 14.5-.9 13.6-.6 12.8-.5 10.8-1.9-1.2-1-3.7-1.1-9.5-.6-4.3.5-15.2 1.6-24.3 2.5-9.1.9-18.5 1.8-21 2-2.5.3-5.3.6-6.2.8-1 .2-1.8 0-1.8-.5s.7-.9 1.7-.9c.9 0 3.9-.6 6.7-1.4 2.8-.8 8-1.9 11.6-2.5 3.6-.6 10-1.7 14.3-2.5 4.3-.8 10.7-1.8 14.2-2.1 3.9-.5 6.2-1.1 5.9-1.7-1.1-1.7-20.1.4-33.9 3.8-9 2.2-23.5 4.2-24 3.4-.6-.9 4.4-3.2 5.5-2.5.5.3 1.1.1 1.4-.4.3-.5 2.3-1.2 4.3-1.6 2.1-.4 4.3-1 4.8-1.4.6-.4 6.4-1.6 13-2.5 6.6-1 14-2.1 16.5-2.5 5.3-.8 5.9-2.5 1.1-2.9-5.4-.5-30.6 4.6-43.5 8.9-11.3 3.7-14.2 4.1-12 1.9 2.4-2.4 30.5-11.5 37.9-12.3 2.8-.3 6.3-1 7.8-1.6 3.9-1.5 2.4-3.4-2.2-2.7-2 .3-4.8.7-6.3.9-1.5.2-3 .6-3.4 1-.4.3-1.5.2-2.5-.4-1.5-.7-1.9-.6-1.9.5 0 .9-1.2 1.8-2.7 2.2-1.6.3-3.8 1-5.1 1.5-1.3.5-3.4.9-4.8.9-3.9 0-2.4-2.3 2.7-4 2.4-.8 4.9-1.8 5.4-2.2.6-.3 2.7-.9 4.8-1.3 4.8-.9 4.8-2.1 0-2.3-2.5-.1-8.9 2-18.3 5.7ZM10.5 555c.3.5.1 1-.4 1-.6 0-1.1-.5-1.1-1 0-.6.2-1 .4-1 .3 0 .8.4 1.1 1Zm83 2.1c-.4.5-1.2.9-2 .9-.7 0-5.1 1.6-9.6 3.5s-8.5 3.3-8.7 3c-.7-.6-.8-.6 5.8-3.8 10-4.8 16.2-6.4 14.5-3.6ZM78 573c-.8.5-2.6 1-4 1-2 0-2.2-.2-1-1 .8-.5 2.6-1 4-1 2 0 2.2.2 1 1Zm39 2.6c0 .8-.7 1.4-1.5 1.4-1.5 0-2.1-2.1-.9-3.3 1-.9 2.4.2 2.4 1.9Zm-4.5-.5c1.3 1.9-.5 2.3-11.6 2.5-6 .1-10.7-.1-10.4-.5.5-.5 9.6-1.8 20.2-3 .6 0 1.5.4 1.8 1ZM91 605c0 .5-.4 1-1 1-.5 0-1-.5-1-1 0-.6.5-1 1-1 .6 0 1 .4 1 1Z"/>
  <path fill="#000" d="M5.4 565.1c-.3.6-.2 1.4.2 1.8 2 1.8 29.9 4.2 28.1 2.5-.7-.7-17.8-4.2-23.9-5-2-.2-4 .1-4.4.7Z"/>
  <path fill="#000" d="M55 568.1c0 .5.9.9 2 .9s2-.2 2-.4-.9-.6-2-.9c-1.1-.3-2-.1-2 .4Z"/>
  <path fill="#000" d="M6.2 572.8c-2 .2-3.2.8-2.9 1.5.4 1.2 6.6 1.8 31.7 3 6.5.3 10.4.2 9-.2-5.7-1.9-31.8-4.9-37.8-4.3Z"/>
  <path fill="#000" d="M118 581.1c-3.6.4-13 1.2-21 1.8-15.2 1.1-19 1.8-19 3.2 0 1.2 4.8 1.1 9-.2 6-1.8 46.7-4 74.3-3.9 2 0 3.7-.3 3.7-.8 0-1-38.5-1.1-47-.1Z"/>
  <path fill="#000" d="M3.7 584.3c-.3.8-.9 3.5-1.2 6.1l-.7 4.7 6.8-.7c3.8-.3 8.6-1 10.6-1.5 4-1 29 0 28.3 1.1-.7 1.1-14.4 2.8-28.5 3.6-19.1 1-18.8 1-17.7 3.7.4 1.1 1.8 1.1 8.8 0 4.6-.7 12.2-1.6 16.9-1.9 4.7-.3 11.4-1.4 15-2.4 3.6-1 8.4-2.1 10.7-2.5 2.4-.4 4.5-1 4.8-1.4.7-1.3-1.8-6.1-3.5-6.6-.8-.2-10.3-.9-21-1.4-10.8-.6-21.6-1.4-24.1-1.7-3.6-.5-4.7-.3-5.2.9Zm47.6 4.6c1.7 1.7.1 2.4-5 2.3-2.7 0-13-.2-23.1-.3-10-.1-18.5-.6-18.8-1-1.6-2.7 1.4-3.1 23.3-2.6 14.2.3 22.9.9 23.6 1.6Z"/>
  <path fill="#000" d="M69.7 585.1c-.3 1.1-.3 2.8 0 3.6.5 1.4.8 1.3 2-.3.7-1 1.3-2.6 1.3-3.6 0-2.5-2.6-2.3-3.3.3Z"/>
  <path fill="#000" d="M134.9 585.4c-.5.5-39.1 2.8-50.1 3-4.5 0-7.8.5-7.8 1.1 0 1.3 28.2.8 36-.6 6.9-1.2 43.2-3.1 46.2-2.4 1.3.2 3.9.1 5.8-.4 2.5-.6-1.3-.9-13.1-1-9.1-.1-16.8.1-17 .3Z"/>
  <path fill="#000" d="M135.5 597.1c-1.6.6-1.4.8 1.3.8 3.3.1 4.1-.4 2-1.2-.7-.2-2.2-.1-3.3.4Z"/>
  <path fill="#000" d="M55.9 598c-2.1 1.1-15.8 3.6-33.7 6.1-12.5 1.8-16.8 2-18.2 1.2-2.2-1.4-3-.7-3 2.4 0 2.7.8 2.8 11.3 1.2 20.3-3 27.1-4.2 35.6-6.4 10.1-2.6 12.4-1.3 3 1.8-10 3.2-37.3 8.5-42.5 8.2-2.5-.1-3.7.4-4.7 1.9-1.8 2.9-1.6 7.2.3 6.7 3.7-.9 11.3-2.3 21-3.7 5.8-.8 14.7-2.6 19.7-4 8.8-2.5 13.2-2.6 11.8-.4-.3.5-3.1 1.7-6.3 2.6-3.1.9-8.4 2.4-11.7 3.4-3.3 1-9.9 2.6-14.5 3.4-4.7.9-10.1 2.1-12 2.8-1.9.6-4.3 1.1-5.5 1.2-1.7.1-2 .8-2.1 5.7-.2 6.7.7 8.9 3 7 .8-.7 1.9-1.1 2.3-.8 1.2.7 12.4-1.1 16.3-2.8 1.9-.8 6.9-2.2 11-3.1 4.1-.9 7.9-2.1 8.4-2.5 1.6-1.5-3.4-1-11.4 1-4.1 1-9.5 2.2-12 2.6-2.5.3-5.8.9-7.5 1.2-4.7.9-6 .9-6.5 0-.3-.5 2.5-1.9 6.2-3.1 5.7-1.8 6.5-2.3 5-3.3-.9-.6-1.4-1.4-1-1.8.3-.3 5.4-1.7 11.2-3.1 5.9-1.3 14.5-3.6 19.2-5 8.3-2.6 8.5-2.6 9.9-.8 2 2.7 1.8 3.4-.7 3.5-3 .1-4.8.4-18 3.4-6.1 1.4-11.9 2.5-12.9 2.5-2 0-3.3 1.5-2.4 2.9.3.5 3 .1 6.2-1.1 3.2-1.1 9.6-2.6 14.3-3.4 4.7-.7 10.7-2 13.3-2.8 4.9-1.5 8.2-1.2 7.1.5-.3.5-1.2.9-2.1.9-1.8 0-13.5 4.1-13 4.6.7.7 14.5-1.9 18-3.4s3.7-1.8 2.1-2.9c-1-.7-2.6-1.3-3.5-1.3-3.2 0-7.7-4.8-8.4-9-.6-3.8-.8-3.9-3.8-3.4-1.8.3-4.5 1.2-6.2 1.9-1.6.7-6.8 1.8-11.5 2.4-4.7.7-12.1 1.9-16.5 2.7-4.4.8-8.9 1.4-10 1.4-1.9-.1-1.9-.1-.2-1.1 1.8-1.1 2.6-1.3 9.7-2.4 2.5-.3 7-1.3 10-2.1 3-.7 9.5-2.3 14.3-3.4 4.9-1.2 9.7-2.6 10.8-3.3 1.3-.8 2.4-.9 3.7-.1 2.6 1.6 5.2.6 4.9-1.9-.2-1.8.3-2.1 2.3-1.9 1.7.2 2.1-.1 1.4-.8-1.4-1.4-9.9-2.9-11.5-2ZM6.7 617.6c-.3.3-1.2.4-1.9.1-.8-.3-.5-.6.6-.6 1.1-.1 1.7.2 1.3.5Zm8.8 11.3c-.9.9-5.8 1.6-8 1.1-1.5-.3 3.6-1.8 6.5-1.9 1.5-.1 2 .3 1.5.8Z"/>
  <path fill="#000" d="M161.5 599.6c-1.5 1-7.8 1.4-23.8 1.8-12.1.2-22.1.7-22.3.9-1.5 1.4 9.4 1.6 51.9.9 4.4-.1 4.8-2.4.6-3-1.3-.2-2.8-.7-3.4-1.2-.5-.4-1.9-.2-3 .6Z"/>
  <path fill="#000" d="M72.5 603c.3.5 1.2 1 2 1 .7 0 2.3 1.3 3.5 3 1.2 1.6 2.6 3 3.2 3 1.2 0-1.7-4.9-4-6.8-1.9-1.4-5.6-1.6-4.7-.2Z"/>
  <path fill="#000" d="M66 606.4c0 .7.7 1.9 1.5 2.6 1.3 1.1 1.5.8 1.5-1.4 0-1.6-.5-2.6-1.5-2.6-.8 0-1.5.6-1.5 1.4Z"/>
  <path fill="#000" d="M73 609.4c0 .8.5 1.8 1 2.1.6.3 1-.1 1-.9s-.4-1.8-1-2.1c-.5-.3-1 .1-1 .9Z"/>
  <path fill="#000" d="M154.5 609c-1 1.6-.8 1.7 7.3 2.5 6.2.6 7.2.5 7.2-.9 0-1.1-.9-1.6-3.2-1.6-1.8 0-4.9-.3-6.9-.6-2.3-.4-3.9-.2-4.4.6Z"/>
  <path fill="#000" d="M244 609c0 .5.9 1.4 2 2 2.2 1.2 2.7.1.8-1.8-1.4-1.4-2.8-1.6-2.8-.2Z"/>
  <path fill="#000" d="M67.3 612.7c-1.8.7-1.6 1.6.7 3.1 1.8 1.1 2 1 2-1.3 0-2.5-.4-2.8-2.7-1.8Z"/>
  <path fill="#000" d="M134.2 614.7c-4.5.2-8.1.7-7.8 1.1.3.5 5.3.7 11.3.6 5.9-.2 14.7-.3 19.6-.3 5.1-.1 8.7-.5 8.7-1.1 0-1-12.1-1.1-31.8-.3Z"/>
  <path fill="#000" d="M75.6 615.9c-.7 1.1.3 4.1 1.4 4.1.4 0 1.3-.6 1.9-1.4 1-1.2.8-1.7-.8-2.5-1.1-.7-2.2-.7-2.5-.2Z"/>
  <path fill="#000" d="M103.5 619c.3.5 1.7 1 3.1 1 1.3 0 2.4-.5 2.4-1 0-.6-1.4-1-3.1-1-1.7 0-2.8.4-2.4 1Z"/>
  <path fill="#000" d="M113 620c2 1.3 8 1.3 8 0 0-.6-2.1-1-4.7-1-3.5 0-4.4.3-3.3 1Z"/>
  <path fill="#000" d="M123 619.7c0 2.1 5.7 3.3 17.3 3.8 6.7.3 12.9.8 13.8 1 2.3.8 7.1-1.3 6.6-2.8-.2-.8-3.2-1.2-9.8-1.3-5.2 0-13.6-.4-18.6-.8-5.7-.5-9.3-.4-9.3.1Z"/>
  <path fill="#000" d="M81.5 622.9c-.7 1.2-.6 1.2 7 3.2 2.8.7 4.2 1.5 3.3 1.7-.9.2-3.3-.1-5.2-.7-2-.5-3.8-.6-4.1-.1-.8 1.3 20.5 7.8 31.5 9.5 2.5.4 5.3 1.2 6.4 1.7 1 .6 3.6 1.2 5.8 1.4 2.1.2 5.2 1.1 6.9 1.9 3.7 2 7.3 1.6 7.7-.7.2-1.2-.6-1.9-3.2-2.4-6.1-1.1-4.2-2.8 2.4-2.1 3.7.4 6.1.3 6.6-.4.9-1.6.4-1.8-6.6-2.4-3.6-.3-7.9-.8-9.7-1.1-1.7-.3-4.7-.7-6.5-.9-1.8-.1-6.9-1-11.3-2s-9.8-2-12-2.2c-2.2-.3-4.5-.9-5-1.4-.6-.4-2.9-1.2-5-1.8-2.2-.5-5-1.3-6.1-1.6-1.2-.4-2.5-.2-2.9.4Zm37.8 10.2c7.3 1.5 10.7 2.6 10.7 3.5 0 .8-.3 1.4-.6 1.4-1.5 0-17.2-4.1-20.9-5.5-5.8-2.1-1.7-1.8 10.8.6Z"/>
  <path fill="#000" d="M76.2 624.6c.1.9.9 1.9 1.6 2.2.9.3 1.3-.2 1-1.4-.1-.9-.9-1.9-1.6-2.2-.9-.3-1.3.2-1 1.4Z"/>
  <path fill="#000" d="M59.5 630.1c-6.6 2.8-26.5 8.4-33 9.3-4.8.6-13.9 2.8-15.5 3.6-.9.5-2.3.4-3.2-.1-2-1.1-3.1.2-2.2 2.6.6 1.4 1.5 1.6 4.3 1.1 5-.8 10.5-2.1 18.6-4.6 3.9-1.1 9.5-2.7 12.5-3.6 3-.8 9.2-2.6 13.8-4.1 6.2-2 8.5-2.4 9.4-1.5.8.8 0 1.6-3.6 3.2-2.6 1.1-5.1 2-5.6 2-1.5 0-3.2 2.8-2 3.5 1.1.7 20.5-5.9 22.7-7.6.9-.8 2.2-.6 4.5.6 7.5 3.8 22.4 8.6 25.1 8.1 1.8-.4 4.6.3 8.1 1.9 6.8 3.1 13.1 4.2 15.1 2.5 2.4-2 1.8-2.7-2.7-3.4-2.3-.4-6.2-1.3-8.7-2-2.5-.8-8.2-2.4-12.6-3.6-12.2-3.4-23.9-7.2-25.2-8.2-.7-.5-1.3-.4-1.6.4-.3 1-.9 1-2.3.2s-2.2-.6-3.6.8c-2.2 2.2-5.8 2.4-5.8.2 0-.9.9-1.8 2-2.1 2.5-.7 2.7-2.3.3-2.2-1 0-4.9 1.4-8.8 3Z"/>
  <path fill="#000" d="M153 629c0 .5.5 1 1 1 .6 0 1-.5 1-1 0-.6-.4-1-1-1-.5 0-1 .4-1 1Z"/>
  <path fill="#000" d="M271.5 631.2c-.2.7-1.3 3.8-2.5 6.8-3.6 9.9-1.9 12.6 2.3 3.7 3.2-6.8 3.9-11.7 1.7-11.7-.6 0-1.3.6-1.5 1.2Z"/>
  <path fill="#000" d="M256.3 633.8c-1 1-3.4 3.7-5.3 6-4.6 5.6-7 5.6-7.1-.1 0-3.2-.2-3.7-.9-2.2-.5 1.1-.9 3.8-1 6 0 2.2-1.1 7.1-2.4 11-1.3 3.8-2.2 7.2-2.1 7.4.8.8 2.4-1.3 5.3-7.1 3.7-7.6 9.7-14.8 12.2-14.8 2.1 0 5-3.6 5-6.2 0-2.3-1.5-2.3-3.7 0Z"/>
  <path fill="#000" d="M42 641.8c-1.9 1.1-4 1.7-4.7 1.5-.7-.2-2.7.2-4.5 1.1-4.4 2-12 4.6-13.6 4.6-.8 0-3 .8-4.9 1.7-3.3 1.5-3.6 1.5-4.5 0-1.3-2.5-2.8-2.1-2.8.7 0 1.8.8 2.7 3.1 3.5 4 1.4 3.7 1.4 3.5-.6 0-1 .4-1.8.9-1.8 3.7-.3 11.8-1.9 16-3.2 2.8-.8 6.6-2 8.5-2.5 6.2-1.8 11-4.2 11-5.5 0-1.9-4-1.6-8 .5Z"/>
  <path fill="#000" d="M438 690.2c0 2.2 1.7 4.1 2.9 3.4.8-.5.8-1.3.1-2.7-1.2-2.1-3-2.6-3-.7Z"/>
</svg>