<svg xmlns="http://www.w3.org/2000/svg" viewBox="0 0 800.58 791.93">
  <path fill="#000" d="M360.36.52c-10.6 1.6-27 8.1-29.8 11.7-.6 1-3.4 3.6-6.1 5.9-5.4 4.7-12.6 16.4-15.7 25.5-2.2 6.7-2.9 26.4-1.7 48.1.5 8.4.4 13.6-.3 14.8-1.9 3.6-2.2 14.1-.5 18.1 3.1 7.4.8 10.7-3.4 4.8-1.3-1.8-4-3.6-7.1-4.7-4.9-1.8-5-1.9-4.6-5.3.5-3.9-1-7.5-4.2-10.4-1.9-1.8-2.5-1.8-6.4-.5-2.3.7-5.8 2.9-7.7 4.8-3.3 3.3-3.4 3.8-3.2 9.5.5 10.6 4.7 14.1 16.9 14.5 2.9.1 5.7 1.1 8.6 3.1 6.1 4.1 12.5 5.4 17.7 3.6 2.2-.7 4-1.2 4-1 0 1.5-2.6 5.5-3.9 5.9-2 .6-8 0-15.9-1.5-5.3-1.1-6.6-1-9.7.4-1.9.9-3.5 2.2-3.5 2.7 0 .6-.9.8-2 .4-1.6-.5-2-.2-2 1.7 0 2.2-.2 2.3-9.8 2.3-5.3 0-10.7.2-11.8.5-1.2.3-3.8 2.5-5.9 5-4.8 5.8-6.9 6.9-13 7-3.6 0-6.1.7-8.5 2.3-6.8 4.5-9.4 5.1-14.6 3.3-5.5-1.9-11-2.1-12-.5-1.1 1.8-23.8.3-29.9-2-2.7-1.1-8.8-2.7-13.5-3.7-4.7-1-11.9-2.8-16-4.2-4.1-1.3-9.3-2.8-11.5-3.2-5.7-1.2-19.3-4.8-31-8.3-8.2-2.4-10.6-3.6-13.5-6.6-5.8-6-9.5-8.1-19.8-11.1-5.3-1.5-10.9-3.3-12.5-3.9-1.5-.6-7.5-1.5-13.4-2.1-12.5-1.2-13.2-.8-13.7 6.4-.3 5.6.9 6.6 8.1 6.6 3.5 0 5.6.6 7.7 2.3 3.6 2.9 2.9 4.3-2.7 5.2-5.9.9-10.2 2.3-17.5 5.6-3.5 1.6-6.9 2.9-7.6 2.9-.7 0-2.8 1.3-4.7 3-1.9 1.6-5.4 4.4-7.8 6.1-3.2 2.2-4 3.4-3.2 4.2.6.6 1.1 1.9 1.1 2.9 0 3.5 2.8 3 12.5-2.2 5.3-2.8 9.9-4.9 10.2-4.6.9.8-.7 2.6-2.4 2.6-1.4 0-2.9 1.1-10.3 7.1-1.4 1.2-4.7 3.5-7.5 5.3-5.6 3.5-6.9 6.8-3.5 8.6 1.2.6 3.1 1 4.3.8 1.2-.1 2.8.1 3.6.6.9.6 2 0 3.5-1.7 3.1-3.7 9.5-7.7 12.5-7.7 1.4-.1 3.7-.7 5.1-1.5 2.8-1.6 5-1.9 5-.8 0 .5-3 2.6-6.6 4.8-3.6 2.2-7.4 5.4-8.4 7-1.1 1.7-2.8 4.2-4 5.4-2.3 2.8-2.4 3.3-.8 4.9 1.8 1.8 5.2 1.4 7.8-.8 1.3-1.1 2.7-2 3.1-2 .5 0 3.1-2 6-4.6 5.5-4.9 8.4-5.4 8.4-1.4 0 1.9-1.2 3.3-4.6 5.5-2.6 1.6-5.4 4.2-6.3 5.7-1.6 2.6-1.6 2.8.3 3.8 3 1.6 5.6 1.2 7.7-1.1l1.9-2.2-2.8.7c-1.7.4-2.7.3-2.5-.2.7-2.1 11.6-11.1 15.1-12.5 2-.9 3.7-2 3.7-2.4 0-.4-1.1-2.1-2.4-3.8-1.8-2.2-2.7-2.7-3.7-1.9-.8.6-5 2.4-9.4 3.9-6.4 2.2-8.6 3.6-11 6.6-1.6 2.1-3.6 3.7-4.4 3.6-5.4-.8 2-8.6 13.8-14.6 8.2-4.1 9.4-5 9.7-7.5.3-2.6.1-2.8-2.4-2.1-1.5.3-5.4 1-8.7 1.5-7 .9-14.3 3.4-15.9 5.4-1 1.2-9.7 4.6-11.8 4.6-2 0-.3-2 5.5-6.6 8-6.3 11.2-8 16.7-8.9 7.1-1.1 11-3.3 11-6.1 0-2.2-.4-2.4-5.2-2.4-7.5.1-13.3 1.6-21.1 5.5-3.7 1.9-6.7 2.9-6.7 2.3 0-.7 2.1-3.2 4.8-5.7 5.7-5.6 17.9-10.5 29.9-12.2 7.6-1.1 8.1-1.1 13.6 1.5 5.7 2.7 8.7 3.1 9.4 1 .2-.5-1.6-2.1-3.9-3.4-2.4-1.3-5.7-3.4-7.4-4.7-1.7-1.3-3.6-2.3-4.1-2.3-.6 0-1.7-.9-2.4-1.9-.8-1.1-3.1-2.2-5.2-2.5-2.1-.4-4.5-1.3-5.3-2.1-.9-.8-2-1.5-2.5-1.5s-.9-.8-.9-1.9c0-1.3.9-2 3.2-2.4 1.8-.2 3.8-.1 4.3.4.9.6 14.3 3 24.5 4.3.8.1 2.6.7 4 1.3 1.4.6 3.8 1.4 5.4 1.9 1.8.5 4.8 3.2 7.4 6.4 5.3 6.5 6.9 7.5 14.2 8.8 3 .6 7.7 2 10.3 3.2 5.5 2.4 7.7 6.2 7.7 12.7-.1 4.8-2.3 14.2-4.4 18.4-2.1 4.2-2 4.7.7 4.2 2.1-.4 4.7-4.2 4.7-7 0-.7.4-1.3.8-1.3.5 0 1.4-1.1 2-2.5.9-1.9.8-4.6-.2-11.2-.7-4.9-1.5-9.5-1.7-10.3-.3-1 .4-1.5 2.1-1.5 4.9 0 6.8 8.3 4.6 20.5-.8 4.7-8.5 18-10.4 18-.4 0-2.9-1.5-5.5-3.4-2.7-1.9-6.3-3.8-8-4.2-1.8-.3-5.4-1.7-8-3.1l-4.8-2.4-3.6 3.1c-4.8 4.3-7.7 5.2-15.5 5.1-7.6-.1-16.1 2.6-20.6 6.4-4 3.4-2.2 3.9 3.6 1 4-2 6.5-2.5 12.2-2.5 7.7 0 14.8-1.6 16.5-3.7.6-.7 2.8-1.9 5-2.7 3.7-1.2 4.3-1.2 6.4.5 1.3 1.1 3 1.9 3.8 1.9 5.3 0 33.7 17.9 44.3 28 1.4 1.4 3.7 3.5 5 4.7 1.4 1.2 3.6 3.4 5 4.8 1.4 1.5 3.9 3.3 5.5 4.2 2.9 1.5 8.7 5.5 14.3 9.9 1.5 1.2 8.5 4.7 15.5 7.8 12.7 5.6 12.8 5.6 22.8 5.6 7.4 0 11.4-.5 15.6-2 3.2-1.1 7-2 8.6-2 1.5 0 5.2-1.1 8-2.4 7-3.1 8-3.4 16.7-4.2 10.7-1 12.6-1 21-.1 4.1.4 9.5.8 11.9.7 4.1-.1 4.8.2 9.7 5.6 3 3.2 5.7 6.7 6 7.8.9 2.8 8.6 14.6 9.6 14.6.4 0 .8.6.8 1.3 0 1.8 4.5 5.9 5.4 5 .4-.4.4 0 0 1-.4 1.2.7 3.4 3.4 7 2.2 2.8 5 7 6.2 9.2 2.6 4.7 4.9 7.5 6.3 7.5 1.8 0-.5-5.5-5.7-14-3-4.7-5.6-9.6-5.9-11-.4-1.4-1.6-3-2.9-3.5-2.4-1.1-9.7-11-9.8-13.4 0-1.3-6.1-10.1-11.5-16.8l-2.7-3.3 2.4-.9c5.7-2.1 13.6-11.5 12.4-14.6-.8-2.2-3.4-.7-5.1 2.9-.9 1.7-2.1 3.8-2.8 4.6-1.7 2.2-8.7 6.4-9.4 5.6-.3-.3.2-2.4 1.2-4.6 2.3-5 1.3-6.5-1-1.6-1 2-2 3.6-2.4 3.6-.7 0-4.1-13.8-4.4-17.9-.1-2.3-4.2-5.9-5.4-4.8-.3.4.2 3.3 1.2 6.4 1 3.2 2 8.6 2.2 12.1l.5 6.2-17.2-.5c-10.4-.4-17.6-.2-18.3.4-.7.5-3.9 1.7-7.2 2.6-32.9 9-42.1 10.2-50 6.6-3.7-1.6-3.8-1.8-1.7-2.5 2.1-.7 2.8-1.7 1.7-2.8-.3-.3-2.5-.2-5 .2-4.6.7-10.5-1-10.5-3 0-.5 1.2-1 2.8-1.1 6.3-.1 10.6-1.5 9.7-2.9-.4-.6-4.6-1-10.3-.8-9.4.1-14.2-.9-14.2-3.2 0-.5 1-1 2.3-.9 1.2 0 7.5-.5 13.9-1.2 8.7-.9 11.8-1.6 12.3-2.7.5-1.3-.6-1.4-7.7-.9-4.6.3-9.6 1-11.1 1.6-4.2 1.6-11.2 1.3-15.2-.6-1.9-.9-3.5-2-3.5-2.5 0-.4 2.5-.8 5.5-.8s6.4-.4 7.7-.9c1.3-.6 4.9-1.3 8.1-1.6 8-.9 7.5-2.9-.5-2.1-20.1 1.8-23.4 1.8-27.1.3-6.2-2.7-4.5-3.7 6.1-3.7 7.3 0 10.3-.4 11.8-1.5 1.7-1.4.8-1.5-9.7-1.2-7.4.3-12.7 0-14.5-.8-2.5-1-1.9-1.2 7.1-2.4 10.9-1.4 12.5-1.8 12.5-3.3 0-.7-2.8-.9-8.2-.4-4.6.4-11.3.9-14.9 1.2-7.4.7-10.6-1-4.2-2.2 4.8-.8 12.3-3.2 14.3-4.4 1.3-.9 1.3-1.1 0-1.9-1-.7-2.6-.4-5 .9-7.7 4.1-17 5.4-17 2.5 0-.8.4-1.5.9-1.5.4 0 3.9-1.4 7.6-3.1 4.8-2.1 6.4-3.3 5.5-3.9-.9-.5-3.2.1-6.4 1.7-5.2 2.6-13.6 4.1-13.6 2.4 0-.5 2.7-2.9 6-5.2 5.7-4 7.3-5.9 4.9-5.9-.6 0-3.1 1.4-5.6 3-6.4 4.4-10.1 6.1-10.7 5.1-.3-.5.1-1.1.9-1.5.8-.3 1.5-1.3 1.5-2.2 0-.9 1.6-3.2 3.5-5.1 2.6-2.6 3.5-4.3 3.7-7.1.2-5.5.2-6.2-.6-12.5l-.7-5.7h3c1.6 0 6 1.1 9.8 2.4 3.7 1.4 9.8 3 13.6 3.6 3.7.7 7 1.6 7.3 2.1.3.5 1.6.9 3 .9s5.4.9 9 2.1c4.6 1.5 9.6 2.2 17.2 2.4 12.6.3 12.5.2 11.7 1.4-.3.5.8 3.3 2.5 6.1 1.6 2.8 3 5.5 3 6s.6 1.5 1.3 2.2c.6.7 2.9 3.5 4.9 6.2 2.1 2.7 4.8 5.5 6 6.2 8.1 4.7 13 5.5 13.6 2.1.2-1-.2-2.5-.9-3.3-1-1.3-1.4-1.2-3 .2-1.7 1.6-2.1 1.5-5.1-.9-7.2-5.5-11.1-9.4-10.5-10.4.9-1.4 20 2.3 25.7 5.1 2.5 1.1 6.2 3.4 8.4 5.1 2.1 1.6 4.7 3.7 5.9 4.6l2.1 1.6-2.3 3.8c-1.2 2.1-2 4-1.7 4.2.5.6 11.3-5.3 12-6.6.8-1.3-.7-2.7-8.3-7.7-12.4-8.2-14.4-9.3-20.1-10.9-3-.9-6.4-2-7.5-2.5-1.1-.5-4.8-1.2-8.3-1.5-5.6-.6-6.8-1.2-11.2-5.2-2.8-2.5-5-4.9-5-5.4 0-2.2 10.2-.8 19.2 2.7 7.9 3 11.4 3.8 23.3 4.8 7.7.7 14.5 1.1 15.1.8 2.1-.6 2.2-7.1.2-10.3-2.6-4.2-3.8-3.6-3.8 2.1s.6 5.5-10.5 3.5c-4.4-.8-10.3-1.4-13.1-1.5-2.8 0-5.4-.3-5.7-.7-.4-.3 1.2-2 3.5-3.6 3.1-2.4 6-3.4 12.2-4.4 6.5-1 8.4-1.7 9.6-3.5.8-1.3 2.8-3.5 4.3-5.1 2.8-2.6 3.2-2.7 15.1-2.7 8.6-.1 12.8-.5 14.6-1.5 1.4-.8 5.2-1.4 8.8-1.5 3.5 0 6.2-.4 6.2-1 0-1.2-3.9-2.9-6.7-2.9-1.5 0-5.4-.6-7.3-1.1-.3 0 .6-.7 2-1.5 3-1.7 7.2-1.9 8.7-.4 1 1 10.6 3.9 13.3 3.9.9 0 4-2.3 7-5.2 3-2.8 7.5-6 10-7.2l4.5-2.1-3.3-.3c-1.8-.2-4.6.3-6.2 1.2-2.9 1.4-3 1.3-3.6-.9-.7-2.8 1.7-7.8 4.8-9.9 1.3-1 4.3-1.6 7.3-1.6 4.1 0 5.6.5 7.2 2.2 1.9 2.1 5.3 8 5.3 9.2 0 .3-2.3.2-5.2-.1-3.4-.4-4.9-.3-4.5.4.4.6-.4 1.8-1.6 2.6-1.3.8-4 3.7-6 6.4-2.1 2.6-5.1 5.7-6.7 6.8-1.7 1.1-3 2.3-3 2.7 0 1.5 3.2.8 5.7-1.2 3.2-2.5 4.4-1.8 3.3 2.1-1.3 4.4-2.7 5.8-8.6 8.5-4.5 2.1-5.2 2.8-5.7 6-.9 5.5 1 12.6 4.3 16.2 3.2 3.6 4.5 8.4 3.5 13.1-.3 1.7-.4 3.5 0 4.1.8 1.3 8.5-1.7 10.7-4.1.9-1.1 2-1.9 2.6-1.9 1.1 0 15.5 15 17.9 18.7.9 1.4 2.7 2.9 4 3.4 1.3.5 2.3 1.5 2.3 2.3 0 .8 4.2 5.7 9.3 10.8 5 5.2 11.8 12.3 14.9 15.8 6.2 6.8 9.1 7.7 3.9 1.2-1.7-2.2-3.1-4.5-3.1-5.1 0-.6-1.2-1.8-2.6-2.7-1.4-1-4.6-4.5-7.2-7.8-2.6-3.4-5.4-7-6.2-8-.8-1-8.1-8.7-16.2-17l-14.8-15.1v-4.8c0-2.6.4-4.7.9-4.7.6 0 4.5 3.9 8.8 8.7 4.4 4.9 10.6 11.6 13.8 14.9 8 8.3 18.8 20.3 19.9 22.3.5.9 1.4 2.1 2 2.7.6.7 3.1 3.7 5.5 6.8 2.4 3.1 4.7 5.6 5.1 5.6.4 0 1.3 1.3 2 2.9.6 1.6 2.4 4 3.8 5.4 3.3 3.1 6.1 6.4 11.6 13.8 2.2 3.1 7.5 10.1 11.7 15.6 4.1 5.4 7.8 10.5 8.2 11.3.4.8 2.3 3.5 4.2 6 5.2 6.7 25.5 38.4 25.5 39.8 0 .3 1 1.6 2.2 2.9 4.5 4.8 4.2 23.3-.4 23.3-1.5 0-1.7-.9-1.7-5.9.1-8.4.4-7.7-12.4-29.6-4.4-7.5-18.8-28.7-21.7-32-2-2.2-6.4-7.8-9.9-12.5-3.4-4.7-7.8-10.5-9.7-13l-5.2-6.8c-4-5.3-7.5-9.2-8.3-9.2-1.3 0 .7 3.7 4.3 8 1.6 1.9 3.8 4.6 4.9 5.9 1.1 1.3 2.7 3.7 3.5 5.3 1.4 2.7 1.4 3.2 0 4.7-1.3 1.4-1.4 2.7-.7 7.2 1.6 9.6 5.9 24.9 7 24.9 2.7-.1 3.5-4.2 3.2-15.8-.1-4.1-1.7-4.2-2.5-.1-1.2 6.1-3.2 1.1-4.3-10.6l-.6-6 2.1 1.9c1.2 1 2.2 3.3 2.4 5.5.2 2.8.8 3.7 2.5 3.9 2.5.4 7.5 6.1 14.8 17 2.7 3.9 5.7 8.1 6.7 9.2 1 1 1.8 3.1 1.8 4.6 0 1.6 1 3.6 2.6 5.1 3.1 2.8 2.7 4.9-1 4.6-2.9-.2-3.2.7-1.4 3.7 1.6 2.6.3 3.7-2 1.7-2.4-2.2-4.5-2.1-6.6.1-1.5 1.8-1.4 2.1 1.2 5.8 1.5 2.1 4 6 5.4 8.5 2.2 3.8 7.8 9.5 12.3 12.7.6.4 3.5 2.8 6.5 5.5 3 2.6 6 4.7 6.6 4.7.6 0 1.9-1 2.8-2.3l1.6-2.2 3.2 3.9c5.8 7 15.3 16.6 16.3 16.6.6 0 2.8.9 5 2s4.5 2 5.1 2c1.1 0 8.4-12 8.4-13.9 0-.4-2.6-1.5-5.7-2.5-5.9-1.9-10.6-5.9-21.8-18.7-2.2-2.6-4.5-4.8-5.2-5-.9-.3-1-2.1-.5-6.9l.7-6.5 5.3-2.7c7.3-3.7 18.1-14.9 21.1-21.8 1.3-3 3.8-8.5 5.5-12.1l3.1-6.7 5-.7c12.3-1.6 14.9-4.2 17.9-17.3 1.6-7.2 1-9.9-4-17.2-2.6-3.8-4-4.8-9.5-6.7-8.2-2.7-11.2-2.8-16.5-.2-8.4 4-12.7 14.6-8.9 21.9l1.5 2.8-6.3 3c-9.6 4.7-26.7 20.7-26.7 25.1 0 1.1-.4 2.1-1 2.1-.5 0-1.7 1.6-2.6 3.5-.9 1.9-1.9 3.5-2.3 3.5-2.7-.2-9.4-10.1-7.2-10.8.6-.2 1.1-1.7 1.1-3.3 0-1.7.8-4.2 1.8-5.7 1.1-1.5 3.2-4.7 4.8-7.2 1.5-2.5 4.5-6.5 6.4-9 5.2-6.4 4.9-5.4 6.6-21.6.8-8.2 2.1-17.8 2.9-21.4a144 144 0 0 0 2-13.4c.6-5.7 1.3-7.4 3.4-9.4 4.7-4.5 16.5-11.5 19.1-11.4 1.4 0 6.6.3 11.5.7 6.9.4 11.3.1 18.5-1.4 9.1-1.9 18.5-2.5 54.9-3.7 14.6-.5 15.7-.7 21.5-3.6 3.3-1.6 8.6-5.3 11.6-8.2 3.9-3.7 8.6-6.7 16-10.1 14.3-6.7 21.1-10.8 30.1-17.9 4.2-3.4 9.7-7.6 12.3-9.3 2.5-1.8 5.4-4.6 6.5-6.3 1.8-3 19.2-17 21.2-17 .5 0 2.6-1.1 4.7-2.4 5.9-3.7 11.3-3.3 19.4 1.4 3.6 2.2 7.4 4 8.3 4 5.5 0 16.1 8.9 24.5 20.6 6.9 9.4 9.5 10.7 10.2 4.9.2-2.1-.1-4-.8-4.6-.7-.5-1.9-2.4-2.8-4.2-1.8-3.4-3.1-5.6-5.8-9.9-1-1.4-1.8-3.6-1.8-4.9 0-1.8 2.4.1 11.8 9.9 10.3 10.5 12.3 12.2 15 12.2 2.7 0 3.2-.4 3.2-2.4 0-2.5-3.1-8.6-6-11.8-.8-.9-3.1-3.8-5-6.4-1.9-2.6-5.2-6.6-7.2-8.9-4-4.4-4.7-6.5-2.4-6.5 1.6 0 20.8 19.2 25.8 25.8 2.8 3.6 3.8 4.2 6.3 4 2.6-.3 3-.6 2.7-3.1-.4-3.4-3.1-8.2-10.3-17.7-5.8-7.7-7.1-8.9-17.2-17.4-5.9-5-6.5-7.6-1.1-5.6 1.5.6 4.7 2.6 6.9 4.4 2.2 1.8 5 3.8 6.3 4.5 1.2.6 4.5 3.2 7.2 5.6 8.1 7.2 12.8 7.2 11.5.1-.5-2.4-2-4.7-4.9-7.2-2.2-2-5.9-5.3-8.1-7.4-5.4-5.1-30.4-18.7-37.9-20.6-3.4-.8-3.3-1.6.8-5.1 2.1-1.9 4.9-3.2 7.7-3.6 2.4-.3 6.5-1.5 9.1-2.7 4.1-1.8 4.7-2.5 5.3-5.8.3-2.1.1-5.1-.5-6.6-.9-2.5-1.4-2.8-4.3-2.2-1.7.4-6.6 1.1-10.8 1.5-4.1.5-9 1.6-10.8 2.6-1.8.9-5.9 1.9-9 2.2-5.9.6-16 5.3-25.3 11.9-2.6 1.8-6 3.6-7.5 4-4.3.9-8.3 2.4-14.3 5.4-3 1.5-8.2 3.5-11.5 4.5-3.3.9-8.2 2.6-11 3.7-3.5 1.5-7 2-11.9 2-3.8-.1-7.1-.4-7.3-.6-.7-.6-11.4 3.2-13.2 4.7-.9.7-2.9 1.9-4.6 2.6-1.6.7-4.3 1.9-6 2.7-5.5 2.5-15.9 6.1-21.3 7.4-2.9.7-7.1 2.1-9.3 3.2-2.3 1.1-6.7 2.5-9.8 3.1-3.4.6-7.5 2.4-10.6 4.5-6.1 4.3-12.4 5.1-41 5.3-22.5.1-36.1-1.3-42.1-4.2-3-1.4-5.2-1.8-8.6-1.3-3.8.5-4.8.3-6.6-1.6-5-5.4-14.4-3.9-19.6 3.1-2.8 3.6-6.1 5.7-7.3 4.6-.3-.3-.9-6.5-1.4-13.9-.4-7.3-1.3-16.7-1.8-20.8-.5-4.1-1.5-14.7-2.1-23.5-.6-8.8-1.6-18.9-2.1-22.4-2.3-14.6-18.5-38.3-30.4-44.4-5.7-2.8-18.3-7.2-23.5-8-7.1-1.2-20.7-1.5-26.5-.6Zm19.7 10.4c6.2 5.7 9.8 7.9 9.8 5.8 0-.3-1.8-2.1-4-4-5.9-5.1-5.4-6.7 1.6-5.9 3 .3 7.1 1.3 9.1 2.1 1.9.8 5.2 1.5 7.3 1.5 2.9 0 4.8.9 8.1 3.6 2.3 1.9 4.9 4.7 5.6 6.2.8 1.5 1.9 3.1 2.6 3.7 2 1.6 8.1 10.6 10.8 15.7 1.3 2.7 2.7 4.8 3.1 4.8 1.8 0 4.2 17.8 6.3 47 .1 1.9.8 10.2 1.5 18.3.7 8.1 1 15 .7 15.3-1.1 1.2-4.8-11.2-5.9-20.1-.9-7.6-.9-10 .1-11.9 1.3-2.3.8-7.9-.9-10.1-.4-.6-1-3.3-1.3-6-.9-8.3-2.9-18.9-3.8-20.7-.5-.9-4.6-3.5-9.1-5.8-9.8-4.9-17.1-5.9-29.7-4.1-14.6 2.2-30.2 8.7-31.7 13.3-.3 1-.9 1.8-1.4 1.8-.4 0-2.9 2.8-5.5 6.2l-4.7 6.3.6 9c.4 4.9 1.6 14.6 2.6 21.5l4 27.5c1.2 8.2 2.3 16 2.6 17.3.7 3.5 2.9 2 2.8-1.9-.2-5.5-2.4-23.7-3.9-32.9-1.5-9.4-3.9-29.4-3.8-32.5.2-6.8 6.4-18 12.5-22.7 1.9-1.4 8-4.2 13.6-6.1 8.7-3.1 11.6-3.6 19-3.6 8.7 0 17.5 1.9 24 5.3 4.3 2.2 7.1 9.6 7.8 20.5.5 7.5.4 9.1-.8 9.1-.8 0-1.9-.5-2.5-1.1-.7-.7-4.4-1.2-8.2-1.3-7.4 0-9.2-1.4-5-3.7 1.7-.9 3.6-.7 8.6.6 7.3 2 9.4 1.4 3.7-1-6.1-2.5-8.3-2.8-11.5-1.5-4.2 1.8-5 .3-1.5-2.7 2.6-2.2 3.6-2.5 7.8-2 5.4.7 6.5-.6 1.6-1.8-7.4-1.8-9.1-1.6-11.9 1.1l-2.8 2.7-.5-2.4c-.3-1.3-.5-3.3-.3-4.3.1-1-.4-2.1-1.2-2.4-3.6-1.2 1.7 22.4 6.3 27.8 1.4 1.7 2.6 4.4 2.6 5.8 0 1.5.7 3.5 1.4 4.5.9 1.1 1.1 2.9.7 5-.8 3.7-1.7 3.8-10.3.4-5.1-1.9-5.8-2.5-5.8-4.9 0-3.5-1-3.5-4.1-.2l-2.4 2.5 2.5 1.9c1.4 1.1 4.3 2.2 6.5 2.6 2.2.3 5.2 1.5 6.7 2.5 3.5 2.5 4.7 2.4 8.7-1.1 2.8-2.4 3.3-3.3 2.7-5.7-1.5-5.9-1.3-6.8 1.7-7.1 3.6-.4 3.5-2.2-.2-2.2-4.6 0-4.6-1.7-.1-2.5 5.3-.9 5.1-2.5-.2-2.5-5.1 0-9.1-1.9-9.6-4.3s2.4-2.2 3.1.3c.7 2.5 3.5 2.6 6.1.1 1.7-1.5 2.8-1.8 5.6-1.2l3.5.7-.2 13.4c-.1 7.3-.6 14.3-1.1 15.4-.6 1.2-1.5 4.6-2.1 7.7-1 4.9-2 6.6-7.6 12.4-5 5.2-6.8 6.5-7.8 5.7-1-.8-2.3-.8-4.9 0-4.6 1.4-7.9.5-12.3-3.3-1.9-1.7-4-2.9-4.6-2.7-1.4.5 2.8 5.8 4.7 5.8.8 0 3.3 1.2 5.6 2.7l4.1 2.8-3.3.6c-4.5 1-12.6-.4-14.8-2.5-1-.9-2.3-1.6-2.9-1.6-.6 0-1.6-.7-2.3-1.5-.7-.9-1.5-1.3-1.8-1-.3.3 1.6 2.8 4.3 5.5 4.8 4.9 4.9 5 2.2 5-1.5 0-6.1-.9-10.2-2.1-8.9-2.4-11.2-2.1-6.4.8 3.6 2.3 12.7 4.3 19.1 4.3 2.1 0 3.8.4 3.8 1 0 .5-.6 1-1.3 1-2.2 0-7.7 3-7.7 4.2 0 1.8 8.2-.1 13.7-3.2 2.9-1.7 5.7-3 6.3-3 .5 0 1 1.8 1 4s.4 4 .8 4c1.1 0 3.2-6.1 3.2-9.1 0-1.4 1.1-3.6 2.5-4.9 2.3-2.2 2.5-2.2 3.1-.4.4 1 1.3 3.4 2 5.3 1.8 4.3 1.9 3.8-1.8 5.7-6.4 3.2-10.9 7.7-13.8 13.4-1.6 3.2-3.4 6.1-3.9 6.4-.5.3-3.1-1.4-5.9-3.9-2.7-2.5-5.4-4.5-5.9-4.5s-4-1.3-7.8-3c-3.9-1.6-8.4-3-10.1-3-3.9 0-5.4-1.6-5.4-5.6 0-1.8-.5-3.6-1-3.9-.7-.4-.8 1.8-.4 6.7.6 7 .6 7.2-1.1 5.6-1-.9-2-2.9-2.1-4.5-.2-1.5-.8-3.9-1.5-5.3l-2.4-5.5c-.7-1.7-2-4.6-2.9-6.7-.9-2-1.6-4-1.6-4.5 0-.9-11.5-25.8-13.1-28.3-.5-.8-1.7-2.8-2.7-4.4-.9-1.6-2.7-4.1-4-5.7l-2.4-2.9 3.1.6c2 .4 3.1.2 3.1-.5 0-.6-.4-1.1-.9-1.1-1.4 0-12.9-12-16.2-16.8-3.3-4.8-3.6-6.2-1.4-6.2 1.9 0 1.9-.2-.6-5.6-1.5-3-1.8-4.9-1.2-5.5.7-.7 2.6 1.6 5.7 6.9 5.7 9.7 12.1 17.2 14.7 17.2 1.5 0 .6-1.5-4.1-7.1-6.1-7.3-14.2-20.4-15.5-24.9-.4-1.4-.9-3.3-1.1-4.3-.3-.9-.1-1.7.4-1.7s2.8 3.7 5.2 8.2c4.5 8.8 8.4 14.2 13.7 19.6 4.6 4.6 5.9 3.1 1.4-1.6-4.6-4.8-9.3-12.7-8.9-14.8.4-1.9 4 1.6 8.8 8.3 3 4.2 6 5.7 6 2.9 0-.8-.4-1.7-.9-2.1-2-1.2-10.5-14.2-13.1-20-3.1-6.8-5-14.7-4.3-17.6.8-2.7 2.2-2.4 2.9.8 1.2 4.9 6.2 15.3 9.4 19.3 1.6 2.1 3 4.2 3 4.6.1.5 1 2 2.1 3.3 1.4 1.8 2.3 2.1 3.1 1.3.8-.8.3-2-1.6-4.3-1.5-1.7-3.6-4.8-4.7-6.8-1-2-2.3-4.3-2.8-5.1-4.1-7.2-5.4-11-5.9-17.1-.4-6.5-.3-6.9 1.9-7.8 1.3-.5 4.4-3 6.9-5.5 2.4-2.5 5.3-4.6 6.3-4.6 1.1 0 4.5-1.2 7.7-2.6 3.2-1.4 6.6-2.4 7.6-2.2 1 .2 3.9 2.8 6.4 5.9 12.9 16 15.2 18.1 17.3 16 .8-.8.1-2-2.8-4.3-5.2-4.2-10.7-10.1-12.9-13.8-1.6-2.7-1.6-3.1-.1-3.6 1.1-.5 4.1 1.9 10.1 8 7.6 7.8 10.4 9.5 10.4 6.5 0-.5-1.5-1.9-3.4-3-3.1-1.8-11.6-11.6-11.6-13.2 0-2.2 4.1.1 10.2 5.8Zm-59.7 37.9c3.6 7.5 4.3 10.6 2.5 10.6-1.5 0-3.8-4-6-10.4-1.7-5.1-1.9-7.6-.5-7.6.3 0 2.1 3.3 4 7.4Zm443 20.6c.3.5 1.5 1 2.6 1 2.8 0 2.4 3.4-.5 4.8-1.3.6-4.1 1.4-6.3 1.7-2.1.4-6.4 1.9-9.5 3.4-4.5 2-6.1 3.4-7.2 6.1-1.4 3.2-4.7 6.6-13.1 13.5l-3 2.4 3 .1c3 0 5.5-1.7 13.3-9.2 2.4-2.4 3.2-2.8 3.2-1.6 0 2.3 1.6 3.1 3.9 1.8 1.6-.8 4-.1 12.4 3.9 14.3 6.9 32 20.2 30.3 23-.9 1.3-3.4.2-8.7-4.1-4.1-3.3-18.4-10.8-20.6-10.8-.7 0-1.6.7-2 1.5-.4 1.1 2.8 5.1 9.9 12.3 6.2 6.4 12.3 13.9 15.2 18.7 2.7 4.4 5.8 9 6.9 10.2 1.7 1.9 1.8 2.3.5 2.3-.9 0-3-1.9-4.7-4.3-1.7-2.3-7.7-8.8-13.3-14.4-8.5-8.6-11-10.5-15.2-11.7-2.7-.8-5.4-1.3-5.8-1-2.3 1.4 4 10.1 16.7 22.9 5.7 5.7 7.9 9.4 7.3 12.1-.4 1.6-1.4.9-5.7-3.6-2.8-3-5.4-6.5-5.8-7.8-.3-1.2-.9-2.2-1.4-2.2-.4 0-3.5-2.2-6.7-4.9-10.1-8.4-15.4-6.5-9.8 3.4 1.3 2.5 2.1 4.5 1.6 4.5-2.2 0-5.7-2.4-7.5-5.1-2.1-3.1-7.8-6.2-13.4-7.3-1.8-.3-6.5-2.7-10.3-5.2-6.2-4.1-7.3-4.6-10.6-3.9-2 .3-4.7.8-5.9 1a22 22 0 0 0-5.4 1.9c-4.6 2.3-6.4 2-9.1-1.3-1.2-1.6-3.1-4-4.2-5.3-3-3.7-6.4-12-6.8-16.2l-.3-3.9 5.7-1.3c3.2-.8 7.9-2.4 10.5-3.8 2.7-1.3 7.3-2.7 10.3-3.1 5.4-.7 12-3.8 12-5.6 0-1.1 15.3-8.4 24.5-11.7 3.8-1.3 10.2-2.8 14-3.2 3.9-.4 7.3-.8 7.7-.9.4 0 1 .3 1.3.9Zm-442.1 24 3.9 4.5-5.2.3c-2.9.2-5.5.1-5.8-.2-.4-.4-.7-10.2-.3-13.1.1-.6.9.1 1.8 1.5.9 1.3 3.5 4.5 5.6 7Zm352.1 10.2c1.1 5.6 2.7 9 8.2 17.5 5 7.6 5.8 10.3 3.2 10.3-1.2 0-8.9-7-8.9-8.1 0-.5-1.6-3.4-3.6-6.3-5.2-7.8-6-16.6-1.5-16.6 1.4 0 2.1.9 2.6 3.2Zm-348.4.4c1.5 1.9.3 3.4-2.9 3.4-3.6 0-4.3.6-7.5 6.2-1.5 2.7-3.2 4.8-3.7 4.8-1.7 0-1.1-8.4.8-11.4 2.8-4.7 10.4-6.4 13.3-3Zm338.7 2.9c.4 4.8 4.1 11 13.7 23.5 1.9 2.5 3.5 4.9 3.5 5.5 0 1.2-7.1 8.5-8.3 8.5-.8 0-.6-5.6.5-13.4.3-2.1-2-3.5-2.5-1.4-2 7.6-6.4 18.8-7.4 18.8-.7 0-1.3-.5-1.3-1 0-3-2.2-.1-4.6 6.1-2.6 6.6-4.6 9-6.1 7.5-.3-.3.1-2.3.9-4.3 3-7.3 5-15.5 4-16.5-1.5-1.5-2.7 1-5.7 11.7-3.2 11.6-5 15.5-7 15.5s-1.9-1.8.4-9.3c3.1-10 3.3-11.7 1.7-11.7-.9 0-1.9 1.6-2.6 4.2-3.3 13.2-7.6 21.8-10.8 21.8-1.4 0-1.5-.5-.3-2.8 1.1-2.1 2.8-8.5 3.6-13.6 1.1-7-1.6-3.4-5.1 6.9-1.9 5.4-4.1 10.9-4.9 12.2-1.5 2.3-3.5 3.1-3.5 1.5 0-1.7 3.9-12.3 5.6-15.2 2.2-3.7 1.2-4.9-2.3-2.8-2.1 1.2-3.5 4-6.4 12.3-2.1 5.8-4.3 11.3-4.9 12-2.9 3.6-3.3-1.9-.6-9.4 1.7-4.7 2.2-9.1.8-7.6-.5.6-1.7 3.2-2.7 6-2.9 8.1-8.1 17.8-10.9 20.4-3.7 3.5-3.3 1.1 1.4-8.7 4.2-8.7 4.8-11.2 2.8-11.1-.7 0-4 5.4-7.3 12-6.4 12.7-8.8 16-10.6 14.2-.8-.8-.6-1.8.5-3.5 2.7-4.1 7.5-16.7 6.6-17.3-1-.6-1.1-.6-6.1 9.4-4.5 8.8-7.9 12.7-10.5 11.7-1.5-.6-1.5-.8 0-2.9.9-1.2 2-3.2 2.6-4.4.5-1.2 2.5-4.4 4.4-7.1 3.6-4.9 4.4-7.2 2.7-7.2-.7 0-2 1.6-7.4 10-4.6 7.1-7.4 10.4-9.4 11.1-3.6 1.3-2.9-1.3 2.7-10.6 2.8-4.6 5-8.8 5-9.4 0-2.6-2.8-.8-4.8 3.1-4.6 8.7-7.4 12.7-10.8 15.7-5.6 5-8.5 3.9-4.1-1.6 4.8-5.7 10.1-15.3 9-16.4-1.3-1.3-3.8-.2-5.2 2.4-7.6 14.1-13.2 20-17.6 18.3-2.1-.8-1.9-1.9.9-4.7 2.6-2.7 9.6-12.9 9.6-14.1 0-2.4-3.2-.2-5.9 3.9-4.3 6.8-8.2 11.1-11.3 12.8-1.5.8-2.9 1.5-3.2 1.5-.3 0 1.7-3.4 4.6-7.6 3.6-5.3 4.8-7.8 4-8.6-.7-.7-2.3 1-5.5 5.9-3.2 5-5.8 7.8-9.2 9.7-2.5 1.5-4.8 2.6-5.1 2.4-.2-.3.7-2 2.1-3.8 3-4 3.1-5 .8-5-1 0-3.1 1.8-4.7 4-1.7 2.3-3.8 4-4.9 4-1.9 0-1.9-.1 0-4.8 1-2.5-1.7-1.1-5.6 2.8-5.9 6-6.8 4.8-1.7-2.4 2.6-3.5 4.6-6.6 4.6-7 0-1.4-5-.4-6.2 1.2-.7 1.1-3.5 4.3-6.1 7.2-3.6 4-5.1 5-5.9 4.2-.9-.9-.4-2.1 1.9-4.9 4.7-5.9 6.3-9.3 4.3-9.3-.5 0-1 .5-1 1.2 0 1.8-22.7 23.8-24.5 23.8-.8 0-1.5-.2-1.5-.5 0-1.2 8.8-13.7 15.2-21.7 2.1-2.6 3.8-4.9 3.8-5.2 0-1.2-2.8-.5-4.1 1-1.2 1.4-1.4 1.4-2.1-.6-1.1-3.1-3.1-2-4.4 2.6-2 7-8.6 18.6-9.8 17.4-.9-1 2.1-13.6 4.3-17.9 2.5-4.9 2.6-5.3.5-4.9-1.1.2-3 4.4-5.9 13.2-3.6 11-4.3 12.6-4.9 10.2-.7-3 .9-17.6 2.4-21.3.6-1.5.5-2.5-.4-3.2-1.9-1.6-3.3.5-4.6 6.5-.6 2.7-1.5 5.6-2.1 6.4-.8 1.3-1.1 1.3-2.3-.3-.8-1-2.2-4.2-3.1-7-.9-2.9-2.5-7.2-3.7-9.6-1.7-3.9-2.1-4.3-3-2.7-.8 1.4-.4 3.3 1.6 8 3.4 7.9 7.6 22 8.1 27.1.3 2.2 1 6.6 1.6 9.7.7 3.5.9 9.4.5 15.5-.4 5.4-.9 16.5-1.2 24.6-.5 14.3-.7 15-3.5 19.5-1.6 2.5-2.9 4.9-2.9 5.3 0 .3-1.9 3.5-4.3 7-2.3 3.5-5.3 8.1-6.5 10.3l-2.3 3.8-2.4-2.8c-1.4-1.6-2.5-3.7-2.5-4.6 0-1 2.5-7.9 5.5-15.3 5.6-13.8 7.9-23.3 6.5-26.9-.7-1.9-.8-1.9-2.1.4-.7 1.4-1.6 5.2-2 8.5-.7 5.9-5.5 20.5-6.8 20.5-.4 0 .6-7.3 2.1-16.3 3.1-18.8 5.2-35.7 4.4-36.5-1.2-1.1-1.7.9-3.1 11.9-.7 6.3-2.3 15.9-3.5 21.4-1.2 5.5-2.4 11.3-2.7 13-.5 3-3.9 13.4-4.6 14.1-.8.8-3.8-3.5-3.7-5.2 1.3-16.5-.2-64.4-2-64.4-1 0-2.4 7.6-1.7 8.8.9 1.4 2 30.3 1.7 45.7-.1 5.2-.2 5.8-1.4 4.2-.8-1-1.6-6.1-2.1-12.8-.6-9.5-.9-11-2.3-10.7-1.4.3-1.7 1.6-1.6 8.1.2 9-.9 9.8-5 3.6-2.5-3.8-2.6-4.4-1.7-9.2.6-2.9 1.1-8.7 1.2-13 .2-6.7.5-8 2.6-10.4 2.2-2.3 5.3-9 5.3-11.4 0-2-2-.7-2.6 1.6-.5 2.2-5.1 5.5-7.6 5.5-1.4 0-5.3-5-6-7.8-.4-1.5-1.7-5.7-3.1-9.3-2.5-6.8-4.2-17.9-2.7-17.9 1.9 0 4 1.3 4 2.4 0 .7 2 5.2 4.4 10 2.5 4.8 4.2 9.4 4 10.1-.3.7.1 2.6.9 4.1 1.4 2.8 1.5 2.7 2.5-4.2 1-5.9 1-8.5.3-12.7 0-.4-.6-.7-1.2-.7s-.9.9-.6 1.9c.4 1.7-.8 5.1-1.5 4.1-.2-.3-1.8-3.5-3.6-7.3-1.7-3.7-3.6-6.7-4.2-6.7-.5 0-1-1.1-1-2.5 0-2 .7-2.6 4.1-3.5 2.3-.7 6.7-2.3 9.8-3.6 5-2.3 6-2.4 9.6-1.4 2.2.7 4.8 1.6 5.7 2.1 2.9 1.5 6.7 1 8.8-1.1 2.7-2.7 2.5-5.4-.5-7.8-1.4-1.1-2.5-2.4-2.5-2.8 0-.5 2.4-3.6 5.4-6.9l5.3-5.9 3.9 1.1c2.1.6 6.4 1.1 9.4 1.2 5.1.2 5.4.1 3.5-1.3-1.1-.9-4.1-1.6-6.8-1.6-2.6 0-5.6-.6-6.8-1.3-1.7-1.1-1-1.4 6.3-2.8 6.6-1.3 8.7-1.4 10.3-.4 2.4 1.5 3.7 6.2 2.4 8.7-1.2 2.3-.6 3.3 1.5 2.5 2.2-.9 3.1-7.3 1.5-10.4-.8-1.4-3.2-3.4-5.4-4.3-3.4-1.5-4.4-1.5-6.5-.5-1.4.7-4.8 1.6-7.6 1.9-4 .6-5.4.3-6.4-.9-1.6-2-1.2-2.3 6.3-6 5.1-2.5 6.5-3.8 8.7-8 2.1-3.9 3.3-5.1 5.4-5.3 2.7-.3 2.7-.3 1.3 2.5-.8 1.5-1.8 4.4-2.2 6.3-.7 3.1-.6 3.3.9 2.1.9-.7 1.6-2 1.6-2.8 0-2.5 2.9-7.1 5-7.8 1.1-.3 2-1.3 2-2 0-1.4 1.4-2 7.3-2.9 1.6-.3 7.2.4 12.5 1.5 7.9 1.7 13.5 2.1 30.2 2.1 17.8 0 20.2.2 18.5 1.4-1 .8-2.5 1.4-3.2 1.4-.7 0-2.1.4-3.1.9-.9.5-3.9 1.7-6.7 2.6-2.7.9-5.9 2.1-7 2.6-1.1.5-3.2 1.3-4.7 1.9-3.1 1.1-3.8 4-1 4 .9 0 4.2-1.2 7.2-2.6 7.1-3.4 22.8-9.4 26-10.1 1.4-.3 4.7-1.2 7.3-2 2.7-.8 5.1-1.3 5.4-1 1.4 1.5-4.3 7.2-16.3 16.2-8.8 6.5-13.4 10.6-13.4 11.8 0 1.1-.7 3.1-1.5 4.5-2.8 5-6.4 16.7-5.5 17.6 1.4 1.4 3.4.1 5.1-3.5.9-1.9 3.6-7.3 5.9-12.2 4.2-8.8 8.7-13.8 15.9-18 2.8-1.6 3.1-1.7 3.1-.2 0 2-5.7 10.2-7.6 10.9-2 .8-1.7 2.6.4 2.6 2.5 0 7.4-6.5 15.1-19.8 3.7-6.4 7.4-12.7 8.1-13.9.9-1.4 5.2-3.6 12-6.2 15.4-6 16.4-5.5 7.1 3.6-8.7 8.6-8.9 9.1-8.2 20.8l.6 10 3.5 1.7c3.6 1.8 10 2.4 10 1 0-.4-1.2-1.5-2.7-2.5-1.6-.9-4.1-2.7-5.6-4l-2.9-2.4 2.3-9.3c2.3-9.4 2.3-9.4 10.1-17.2 8-8.2 12.1-10.6 21.8-12.9 3-.7 6.9-2.1 8.5-3.1 10.1-6 12.9-7 16.9-6.5 2.3.3 5.9-.1 8.1-.8 6-2 7.9-1.5 8.3 2Zm-335 4.6c2.2.7 3.7 2.3 5.1 5.5 3.1 6.5 3 6.6-4.1 5.9-6.9-.7-11.8.5-11.8 3 0 .8.7 1.5 1.5 1.5 1.8 0 1.8-.2.1 4.6-1.9 5.4-6.7 10.4-10 10.4-2.9 0-11.4-4-16.1-7.6-1.9-1.4-5.2-2.5-9-2.9-5.8-.7-8.5-1.8-8.5-3.5 0-.5 4-.7 8.9-.7 8.6.2 9.1.3 12.3 3.3 6.4 6.1 10.3 6.8 16.1 2.9 4.1-2.8 4.5-4.2 2.1-6-2.5-1.8-.7-7.5 4.1-12.9 4.4-4.9 4.8-5.1 9.3-3.5Zm-43.5 4.7c2.1 1.9 2.2 4 0 6.4-2.1 2.3-3.2 2.3-6-.4-5.8-5.4-.1-11.2 6-6Zm151.7 5.4c2.6 5.8 2.6 7.8-.3 7.8-1.9 0-2.5.8-3.3 3.7-.7 2.8-1.4 3.8-2.9 3.8-2.8 0-3.1-4.3-.6-8.8 1.1-2 2.3-5.2 2.7-7.1.8-4.7 2.1-4.5 4.4.6Zm35.4 8.1c1.4 2.2 0 3.2-5.4 4.1-3.8.6-9.3 5.7-13.2 12.2-1.8 3.1-5.3 5.1-9.3 5.5-6.3.5-7.4-1.3-2.2-3.5 3.6-1.5 5.9-3.8 12-11.6 6.4-8.2 15.2-11.5 18.1-6.7Zm-29.7 4.6c1.8 2.7 2 3.7 1.1 5.7-.6 1.3-1.9 2.6-3 2.9-1 .4-2.3 1.5-2.8 2.5-.8 1.5-1.8 1.8-4.8 1.3-4.6-.7-8.2-2.8-8.2-5 0-1.2.7-1.4 3.8-1 2 .4 4.2.3 4.7-.1 1.6-1.1 3.5-5 3.5-7 0-4.3 2.5-4 5.7.7Zm-100.1 9.6c.3.8-.4 3-1.5 4.9-1.9 3-2.1 4.3-1.5 11.8.7 8.4.6 8.5-2.2 11.1-1.6 1.5-4.5 3.2-6.4 3.8-1.9.7-4.1 1.6-4.8 2.2-1.6 1.2-2.8.1-3.7-3.3-.5-2.2 0-3 3.9-5.9 4.3-3 4.6-3.6 4.8-7.9.2-6.3.1-6.2 1.8-10.2 2.6-6.6 8.2-10.3 9.6-6.5Zm78.4.9c1 2.7 2.7 4 11 8.4 4.1 2.2 6 4 7.7 7.2 1.3 2.4 2.3 5.1 2.3 6.1 0 1.1-2.2 4-5 6.6-5.5 5.2-5.8 6.1-3.4 9.9 2.3 3.4 1.2 4-2.8 1.7-2.8-1.6-3.3-2.6-3.6-6-.2-3.3.3-5 2.9-8.6 3.9-5.6 3.4-7.5-2.9-11.6-2.6-1.6-5.4-4-6.2-5.3-2.8-4.5-4-7-4-8.9 0-2.7 2.9-2.3 4 .5Zm335.2 4.3c5 7.8 4.3 9.5-1.6 3.9-3.6-3.3-4.8-7.6-2.2-7.6.7 0 2.4 1.7 3.8 3.7Zm-409.2 1.2c0 1.6 1.2 4.1 3.1 6.2 2.5 2.8 2.7 3.5 1.4 3.7-2.8.6-8.5-5.7-8.5-9.3 0-1.8.3-3.4.6-3.8 1.3-1.3 3.4.7 3.4 3.2Zm1 11.6c.7.8 2.2 1.5 3.5 1.5 2.8 0 4.9 2.4 6.3 7.6 1.3 4.6 3.4 6.1 5.2 3.8 2.8-3.3 15.5-.1 23.3 5.9 2.1 1.6 4.1 2.7 4.3 2.4 1.2-1.1-1.9-4.9-4.7-5.9-1.6-.5-2.9-1.3-2.9-1.8 0-.8-9.4-4.4-14.2-5.4-1.6-.4-2.8-1.3-2.8-2.1 0-1.7 3.1-2 5.8-.6.9.5 4.6 2.3 8.2 4 7.7 3.6 18 13.1 14.2 13.1-2.6 0-2.9 1.5-.5 2.9 3.2 1.7.4 2.5-10.9 2.8-8 .3-13-.1-17.7-1.2-7.3-1.8-19-7.2-23.4-10.8l-2.9-2.2 2.2-2.8c1.2-1.4 2.4-4.4 2.6-6.4 1-6.8 1.9-7.8 4.4-4.8Zm76-.7c0 .5-1.9 2.3-4.2 4-6.1 4.4-14.8 13.1-14.8 14.8 0 .8-.5 1.4-1.1 1.4-1.3 0-.3-5.3 1.7-9 3.5-6.4 10.5-12 15-12 1.9 0 3.4.4 3.4.8Zm3.6 6.4c-.3 2.1-2.1 4.7-4.7 7-4.4 4-12.5 8.5-13.5 7.5-2.6-2.6 12.5-17.5 18-17.7.5 0 .6 1.5.2 3.2Zm-108.8 7c.7.7 1.2 1.9 1.2 2.7 0 .8 2.7 4.5 6.1 8.3l6.1 6.8-1.5 3.8c-1 2.4-2.1 3.7-3.3 3.7-1.6 0-1.9-.7-1.6-4.2.3-3.5-.2-4.7-3-8-6.4-7.2-7.6-9.1-7.1-11.8.6-2.8 1.3-3.1 3.1-1.3Zm23.1 8.5c3.2 3.3 6.3 5.4 10.1 6.7 5.8 2 24.1 3.5 35.6 3l7-.3.2 11.7c.1 11.2.3 12.1 4.1 20.9 2.1 5 5.1 10.8 6.6 12.7 2 2.6 2.8 4.8 2.8 7.9.1 7-.6 12.8-1.6 13.4-1.9 1.2-3-1.9-3.6-10.3-.3-5-1.1-8.9-1.7-9.1-.8-.3-1 1.9-.6 7.2.2 4.1.2 7.5-.2 7.5-1 0-6.6-6.5-17.7-20.5-5.6-7.2-11.2-13.9-12.3-15.1-1.2-1.1-4.1-4.5-6.6-7.4-2.5-3-6-7.1-7.7-9.1-3-3.3-4.2-5.9-2.8-5.9.4 0 1.8.6 3.3 1.4 3.4 1.8 17 3.7 23.7 3.4l4.9-.3 1.7 8.8c.9 4.9 2.5 10.9 3.4 13.5 1.8 4.9 6.5 12.6 7.2 11.8.2-.2-.8-3.2-2.3-6.7-4-9.6-4.5-11.6-5.2-21.9-.6-7.7-1-9.4-2.2-9.1-3.3.9-21.2.2-26.2-.9-7.1-1.7-11.8-4.3-21.1-11.8-5.8-4.6-7.2-6.2-5.6-6.2 1.2 0 4.1 2 6.8 4.7Zm78.1.3c0 2-15.6 9-20.2 9-4.1 0-3.4-1.9 1-2.6 2-.3 6.6-2.1 10.2-3.8 7.1-3.6 9-4.1 9-2.6Zm91.1 80.8c3.1 1.1 5.9 3.2 8.3 6 3.5 4.3 3.8 5.3 3.8 13.2 0 9.8.1 9.7-4.6 12-4.6 2.2-11.5 2.9-15.3 1.5-2.1-.7-2.3-.4-2.3 2.8 0 4.9-1.8 5.6-4.7 1.8-1.4-1.8-4.3-4.3-6.4-5.7-4.7-2.9-4.9-4-.8-4.9 2.7-.6 3.5-.2 6.5 3 1.9 2.1 3.8 3.4 4.2 3 .4-.4.1-1-.6-1.2-2.1-.8-6-9.6-6.8-15.1-.5-4.3-.3-5.7 2-9.9 2.8-5.1 6.7-8.3 10.1-8.2 1.1 0 4.1.8 6.6 1.7Zm-20.2 35c4.4 4.4 6.9 9.6 5.1 10.7-.4.2-2.2-1.4-4-3.6-1.8-2.2-5.2-4.9-7.5-5.9-4.9-2.1-6.4-3.8-4.4-5.1 3.1-1.9 6.1-.8 10.8 3.9Zm-13.1 2.4c5.6 1.3 10.8 5.2 14.7 10.7 2.7 3.9 2.7 4.2 1.1 6.6-1.9 2.9-4.8 3-5.2.1-.5-3.2-5.8-9-10.4-11.4-5.4-2.7-7.5-4.6-6.6-6.1.9-1.4.7-1.4 6.4.1Zm-4.8 6.3c.8.2 1.8.4 2.2.4 2 .2 7.7 6.6 8.3 9.2.4 1.6 1.8 4.3 3.2 6l2.6 3-2.2 2.2-2.2 2.2-1.9-2.5c-1.1-1.4-2-3-2-3.6 0-2.2-6.4-7.7-11.6-10-3-1.3-5.4-2.7-5.4-3.1 0-1.7 4.5-5.3 6-4.7.8.3 2.2.7 3 .9Zm-3.9 9.5c4.2 1.2 8.2 5.8 10.4 11.9 1.3 3.7 1.2 4-1.1 6.2l-2.4 2.3-3-3.5c-1.6-1.9-3.2-4.4-3.6-5.6-.6-2.2-5.4-6.4-8.6-7.6-1.8-.6-2.4-2.8-1.1-4 .9-1 5.3-.8 9.4.3Zm-2.5 11.1c1.9 1.8 3.9 4.7 4.5 6.6 1 3 .8 3.5-1.8 5.8l-2.8 2.4-3.7-4.2c-2.1-2.3-3.8-4.6-3.8-5 0-.4-1.1-2.4-2.5-4.4-1.3-2-2.1-4.1-1.8-4.6 1.2-2 8.5.1 11.9 3.4Zm-19 15.6c3.3 3.6 7.8 13.2 7.6 16-.1 1.2.5 4 1.3 6.3.8 2.4 1.5 4.4 1.5 4.7 0 .2-2.6-1.3-5.7-3.3-5.5-3.4-17.3-14.1-17.3-15.5 0-1.3 8.6-10.9 9.7-10.9.2 0 1.5 1.2 2.9 2.7Zm-14.1-.6c1.1 1.7-.1 2.1-1.5.4-.8-.9-.8-1.5-.2-1.5.6 0 1.4.5 1.7 1.1Zm53.5 37.3a74 74 0 0 0 6.8 4.2c3.8 1.9 4 3.9.8 8.2-2.1 2.9-2.5 3.1-3.7 1.6-.8-.9-3-2.7-4.9-4-4.7-3-8.5-6.7-14.3-13.6l-4.8-5.6 1.3-4.2 1.3-4.2 7 7.6c3.9 4.2 8.6 8.7 10.5 10Z"/>
  <path fill="#FFF" d="m404.36 16.32-.6 2.9-4.4-1.9c-4-1.8-7.5-1.7-7.5.1 0 .4 1.8 2.4 4 4.4l4 3.6-3.5 3.1c-4.8 4.3-4.8 6.5.1 4.4 5.3-2.2 8.2-1.9 12.1 1.5 3.2 2.8 6.3 3.9 6.3 2.2-.1-.4-.7-1.8-1.5-3.2-2-3.5-1.8-5.9.7-7.9 2.7-2.2 1.6-4.5-1.8-3.7-2.2.6-2.4.3-2.4-2.7 0-5.7-4.3-7.9-5.5-2.8Z"/>
  <path fill="#FFF" d="M344.56 15.12c-.4.3-.7 1.9-.7 3.5 0 2.5-.3 2.8-3.4 2.8-7.6 0-8.4 3.5-1.1 4.6l4.4.6-.2 5.6c-.2 4.7.1 5.7 1.6 6 1.3.3 2.2-.8 3.5-3.7 1.9-4.6 3.7-5.1 7.5-2 2.1 1.6 3.1 1.8 4.7.9 1.9-1 1.9-1.2-1.6-6.1l-3.5-5 2.6-3c1.4-1.7 2.3-3.4 2-3.9-.6-1-5.2.2-8.3 2.1-1.9 1.2-2.4 1.1-4.5-.9-1.3-1.2-2.7-1.9-3-1.5Z"/>
  <path fill="#000" d="M328.46 23.22c-.6 1.1 2.4 9.3 6.7 18.2 7.6 15.8 11.7 18.8 8.1 6-.2-.8-1.4-2-2.5-2.5-1.7-.7-3-3.4-5.2-10.5-1.6-5.2-3.4-10.1-3.9-10.8-1.2-1.4-2.5-1.6-3.2-.4Z"/>
  <path fill="#000" d="M396.86 68.32c0 2.8-.4 5.1-1 5.1-.5 0-3-1.4-5.5-3.2-6.4-4.6-20-5.8-21.3-2-.2.8 1.3 1.2 5.3 1.2 3.9 0 7.3.8 11.3 2.6 9.7 4.4 9.6 4.4 12.1 1.8 1.7-1.7 2.1-3.2 1.9-6-.5-6-2.8-5.5-2.8.5Z"/>
  <path fill="#000" d="M381.66 77.22c-3.7.4-3.5 1.5.5 3.1l3.2 1.3-4.5 1.2c-7.7 2.2-12.2 6.1-9 8.1.6.3.7 1.7.4 2.9-.5 2 0 2.5 2.7 3.5 4.6 1.6 7 1.4 6.3-.4-.5-1.2.2-1.5 3.2-1.5 2.2 0 4.6-.5 5.4-1 1.8-1.2 1.3-1.3-6.4-1.5-4.5-.1-6.2-.6-7.2-2-2.2-3 0-4.1 3.1-1.6 2.6 2 2.9 2 5.6.4 2.2-1.3 3.1-1.4 4.3-.4 1.6 1.3 3.6.7 3.6-1 0-.6-1.3-1.5-3-2-3.9-1.4-3.8-2.9.1-2.9 1.9 0 2.9-.4 2.7-1.2-.7-2-8.1-5.3-11-5Z"/>
  <path fill="#000" d="M395.86 78.22c0 .4 1.1 2.3 2.4 4.1 1.3 1.7 2.7 5.3 3.1 7.8.5 3.1 1 4.2 1.7 3.5 1.5-1.5 0-11.6-2.1-14.1-1.8-2.1-5.1-2.9-5.1-1.3Z"/>
  <path fill="#000" d="M370.56 82.12c-1.2 1.2-.7 2.2.8 1.7.8-.4 1.5-1 1.5-1.5 0-1.1-1.4-1.2-2.3-.2Z"/>
  <path fill="#000" d="M360.56 98.22c-2.4 2.5-3.6 5.2-2.3 5.2 1.5 0 9.5-6.3 9.1-7.1-1.1-1.7-4.1-.9-6.8 1.9Z"/>
  <path fill="#000" d="M368.76 104.42c-2.2 1.3-4.5 6.8-3.2 8.1.6.6 1.8-.3 3.3-2.3 1.3-1.8 2.9-3.7 3.7-4.1.7-.4 1.3-1.2 1.3-1.7 0-1.3-3-1.2-5.1 0Z"/>
  <path fill="#000" d="M380.06 115.32c-.6.4-2.2 2.8-3.6 5.3-2.1 3.9-2.2 4.9-1.2 6.4 1.3 1.7 1.4 1.6 2.5-.4a9.3 9.3 0 0 0 1.1-3.5c0-.8.6-2 1.4-2.6 2.8-2.4 2.7-7-.2-5.2Z"/>
  <path fill="#000" d="M389.36 121.62c-1.6 4-1.2 4.5 2 2.8 2.1-1.1 3-1.1 6.7.6 7.9 3.5 24.2 1.4 20.1-2.7-.8-.8-2.4-.7-6 .5-5.3 1.8-8.2 1.3-15.1-2.6-4.6-2.5-6.1-2.3-7.7 1.4Z"/>
  <path fill="#000" d="M406.46 131.12c-.4.4-1.5.8-2.3.8-.9 0-1.8.5-2 1.1-.2.6.7.9 2.4.7 2-.3 3.4.2 4.7 1.6 3.7 4.1 6.2 1.8 3-2.7-1.5-2.2-4.4-2.9-5.8-1.5Z"/>
  <path fill="#000" d="M363.36 145.42c.3.5 1.1 1 1.6 1 .6 0 .7-.5.4-1-.3-.6-1.1-1-1.6-1-.6 0-.7.4-.4 1Z"/>
  <path fill="#FFF" d="M735.56 103.12c-.9 1.1-1.3 2.8-1 4.5.5 2.4.1 2.7-5.2 4.3-5.6 1.6-5.7 1.7-3.9 3.6 1.1 1.2 3 1.9 5.3 1.9 5 0 5.6.8 5.6 6.5 0 6.2 2.1 6.8 4 1.1 2-5.7 2.8-6.2 7-3.6 2 1.2 3.9 1.9 4.2 1.6.4-.4-.3-3-1.5-5.8-2.2-5.2-2.2-5.2-.2-7.3 4-4.3 1.8-5.7-4.6-3l-3.5 1.4-2-3.4c-1.2-1.9-2.2-3.5-2.3-3.5-.2 0-1 .8-1.9 1.7Z"/>
  <path fill="#000" d="M662.66 138.62c-1.9 5.5-1.6 7.1.7 4.7 1.6-1.6 3.2-9.9 1.9-9.9-.5 0-1.7 2.4-2.6 5.2Z"/>
  <path fill="#FFF" d="M485.96 139.92c-2.7 4-3.2 4.2-5.5 1.6-1-1.1-2.5-1.7-3.7-1.4-2.3.6-2.4 1.6-.4 3.3 2.4 2 1.7 3.8-2.5 6.2-5.7 3.3-5.3 5.2 1 4.6 4.9-.5 5-.4 5 2.2 0 3 2 5.3 3.6 4.2.5-.4 1.5-2 2.2-3.6 1.1-2.4 1.6-2.7 4-2.1 5.2 1.3 8.6 1.1 9-.6.2-1.1-.6-1.9-2.2-2.3-1.4-.3-3.3-1.7-4.1-3-1.4-2.1-1.4-2.8-.1-6.5 1.3-3.8 1.2-4.2-.4-5.1-2.8-1.5-3.3-1.3-5.9 2.5Z"/>
  <path fill="#000" d="M418.86 217.02c0 4.8.3 6.5 1.3 6.2 1.5-.5 2.6-9.2 1.4-11.3-1.7-3.1-2.7-1.3-2.7 5.1Z"/>
  <path fill="#000" d="M448.26 214.82c-.8 2.1 1.6 17.7 2.6 17.1 1.4-.9 1.8-6.9.8-12-1.2-5.7-2.4-7.6-3.4-5.1Z"/>
  <path fill="#000" d="M414.86 242.32c0 1.6.5 3.3 1 3.6.7.4 1-.6.8-2.5-.3-4.1-1.8-5-1.8-1.1Z"/>
  <path fill="#000" d="M504.06 272.62c-1.6 1.6-1.5 5.3.3 8.7 2.3 4.5 6.4 5.4 10.3 2.2 2.8-2.5 2.8-3.7-.4-8.3-2.1-3-3.3-3.8-5.8-3.8-1.8 0-3.7.5-4.4 1.2Zm7.8 3.3c1.7 2 .5 4.5-2 4.5-1.1 0-2.3-.7-2.6-1.5-.6-1.5 1.1-4.5 2.6-4.5.4 0 1.3.7 2 1.5Z"/>
  <path fill="#FFF" d="M68.56 154.02c-.4.4-.7 2.7-.7 5.1v4.3h-6c-7.2 0-7.7 1.4-1.5 4.1 2.5 1.1 4.5 2.1 4.5 2.2 0 .1-.7 2.6-1.4 5.5-1.4 5-1.3 8.2.2 8.2.4 0 2.5-1.9 4.9-4.2l4.3-4.2 2.3 2.2c1.3 1.2 2.7 2.2 3.1 2.2.4 0 .4-2.4.1-5.4l-.7-5.4 3.5-1.1c3.2-1.1 5.3-4.1 3.9-5.5-.9-1-5.2-.7-7.4.5-2.5 1.4-3 .8-3.7-4.4-.5-3.2-1.1-4.3-2.6-4.5-1.2-.2-2.4 0-2.8.4Z"/>
  <path fill="#FFF" d="M288.46 160.32c-.3.5.3 2.9 1.4 5.2l2 4.4-3.7 3.2c-4.3 3.7-3.8 4.8 2 4.8h4.2l.3 4.2c.3 4.4 2.8 6.7 3.9 3.5.3-.9 1.2-3.2 1.9-5l1.4-3.3 3.6 2.7c2.9 2.3 3.7 2.5 4.4 1.3.6-.9.3-2.1-.9-3.4-1-1.1-2.6-3.3-3.6-4.8l-1.8-2.8 3.8-3.9c3.7-3.8 4-6 .7-6-.9 0-3.5 1.8-5.8 4.1l-4.1 4-2.2-4.5c-1.6-3.6-2.6-4.6-4.5-4.6-1.4 0-2.7.4-3 .9Z"/>
  <path fill="#000" d="M180.86 180.72c0 .8.9 2.2 1.9 3.2 2.3 2 7.6 10.8 10.9 17.7 3.9 8.4 5.9 4.9 2.3-4-1-2.6-2.4-6.1-3-7.7-2.4-6.4-12.1-13.7-12.1-9.2Z"/>
  <path fill="#000" d="M41.86 202.42c0 .5.5 1 1 1 .6 0 1-.5 1-1 0-.6-.4-1-1-1a1 1 0 0 0-1 1Z"/>
  <path fill="#FFF" d="M206.26 227.92c-.8 4.3-1.5 4.8-4.7 3.6-1.9-.7-2.8-.6-3.6.3-.9 1-.3 1.9 2.4 3.7 4.1 2.8 4.1 2.9 1.6 6-2.8 3.6-3.6 6.9-1.7 6.9.9 0 2.4-.9 3.3-2 1-1.1 2.5-2 3.5-2 .9 0 2-.5 2.3-1 1.1-1.8 2.2-1.1 3.9 2.5 1.7 3.6 4.2 4.6 5.2 2.1.3-.8-.2-2.9-1.1-4.7l-1.7-3.3 3.1-2.5c4.1-3.4 4-5.1-.3-5.1-5.1 0-6.5-.9-7.2-4.6-.9-4.8-4.1-4.7-5 .1Z"/>
  <path fill="#000" d="M297.86 227.92c0 1.4.5 2.5 1 2.5.6 0 1-.4 1-.9s.3-1.6.6-2.5c.4-1.1.1-1.6-1-1.6-1 0-1.6.9-1.6 2.5Z"/>
  <path fill="#000" d="M328.86 234.52c0 2.9 2.7 11 5.7 17.1 1.8 3.8 3.3 7.3 3.3 7.9 0 .5 1.3 3.5 2.8 6.7 1.6 3.1 3.9 8.4 5.1 11.7a154 154 0 0 0 5.1 12c1.6 3.3 3.4 8.3 4.1 11 .7 2.8 2.3 7 3.7 9.5 2.4 4.5 7.7 10 9.7 10 .6 0 1-3.8 1.1-9.7.1-5.4.2-14.5.3-20.3.2-15.5-1.1-28-3.1-28-.6 0-.7 1.1-.3 2.7 1.2 4.7 1.7 25.1.7 25.7-1 .6-1.7-2.4-2.7-10.4-1.3-10.8-1.9-14.2-3.6-20.9-1-4.1-1.9-8.4-1.9-9.5 0-2.5-3.8-9.1-4.7-8.2-.7.6 1.5 11 2.9 13.8 3.5 7.1 9.3 50.4 7.4 55.4-1 2.7-3.5.1-5.1-5.4-.9-3.1-2.1-6.6-2.6-7.7-.5-1.1-2-5.5-3.4-9.9-1.3-4.3-3-8.8-3.8-10-.8-1.1-1.7-3.5-2.1-5.1-.4-1.7-1.7-5-3-7.5-1.2-2.5-4.2-10.1-6.6-17-2.4-6.9-4.8-13.1-5.3-13.8-1.2-1.5-3.7-1.6-3.7-.1Z"/>
  <path fill="#000" d="M322.46 254.62c-.3.7-.7 3-1.1 5-.5 3.5-.8 3.8-4 3.8-2.9 0-3.2.3-2.8 2.1.3 1.1 1.7 2.5 3 3 1.9.7 2.3 1.2 1.4 2.2-.8 1-.7 1.8.2 3.1 1.2 1.6 1.4 1.6 2.6.2 1.9-2.3 4.7-2 6.9.9 1.1 1.4 2.2 2.5 2.5 2.5.3 0 .5-1.9.4-4.3-.2-3.9.1-4.3 3.1-5.6 4.7-2.1 3.9-4.6-1.5-4.6-4.8 0-5.5-.5-6.8-5.3-1.1-3.7-3.2-5.4-3.9-3Z"/>
  <path fill="#000" d="M383.76 279.42c0 .3-.2 5.4-.5 11.5-.2 6-.6 12-.9 13.1-.7 3 1.8 5 3.5 2.9.9-1.1 1.4-5.2 1.4-13 .1-9.6-.2-11.7-1.6-13.2-1-.9-1.8-1.5-1.9-1.3Z"/>
  <path fill="#000" d="M336.36 286.42c-1.8 2-1.8 2.2 3.5 7.5 2.9 3 5.7 5.2 6.2 4.9.9-.6-5.8-14.4-7.1-14.4-.4 0-1.6.9-2.6 2Z"/>
  <path fill="#FFF" d="M349.66 305.62c-.8 1.3-1.8 3.6-2.2 5.1-.9 4-3.1 4.3-7.4 1.3-4.3-2.9-8-3.4-8.9-1-.4 1 1.2 3.3 4.6 6.8l5.2 5.3-6 5.2c-6.2 5.4-7.3 7.4-4.5 8.5 2.7 1 4.2.7 7.2-1.9 1.7-1.4 3.6-2.5 4.3-2.5 2.2.1 5.2 3.1 7.4 7.4 2.4 4.5 4.1 5.4 6.2 3.3 1.5-1.4 1.4-2.1-.4-7.9-1.2-3.5-1.9-6.6-1.6-7 .2-.5 2.6-.8 5.2-.8s5.5-.6 6.5-1.3c2.2-1.6 1.2-4.5-1.8-5.2-2.8-.6-7.6-1.3-10-1.4-1.7-.1-1.8-.7-1.1-6.9.4-3.7.8-7.1.8-7.6.4-1.9-2.1-1.5-3.5.6Z"/>
  <path fill="#FFF" d="M419.16 311.62c-1.2 1.3-2.3 3.1-2.5 4.1-.5 3-5.2 5.3-8 4-7.4-3.6-8.7-2.1-4.2 4.7 4 6.2 4.9 12.7 2.1 15.7-2.1 2.4-3.1 6.9-1.8 7.7 2 1.3 6.9-2.3 10.8-7.9 3-4.2 4.2-5.2 5.1-4.3.7.7 1.2 1.8 1.2 2.5s1 1.7 2.1 2.4c1.7.9 2.5.8 3.8-.5 1.5-1.6 1.4-2-.6-5.5-2.5-4.3-2.4-4.5 3.6-7.6 3.3-1.7 3.4-1.8 1.5-3.2-1.3-1-3.2-1.2-6.3-.8l-4.3.7.7-7.1c.8-7.6.2-8.5-3.2-4.9Z"/>
  <path fill="#FFF" d="M385.96 317.32c-3.1 4.7-3.3 4.9-6.4 4-7.5-2.1-8.9.5-3.7 7.1l3.1 3.9-4.7 3.5c-2.6 2-5.1 3.6-5.5 3.6-.5 0-.9 1.2-.9 2.6 0 2.3.3 2.5 2.3 1.9 10.9-3.3 13.3-3.1 17.4 1.5 1.4 1.7 3.1 3 3.6 3 .6 0 1.9.7 2.9 1.6 1.6 1.6 1.8 1.5 2.4 0 .4-1 .2-2.8-.4-4-.6-1.3-1.3-4.3-1.7-6.8l-.7-4.4 5.6-1.4c3.1-.7 5.6-1.6 5.6-2 0-1.6-3.9-4-6.6-4-5.1 0-6.8-2-6.2-7.2.5-4.4-.4-7.8-2.1-7.8-.5 0-2.3 2.2-4 4.9Z"/>
  <path fill="#000" d="M180.26 335.62c-1.2 1.3-3.3 5.2-4.7 8.8-2.4 5.8-2.6 7.7-2.5 17.5.1 6-.1 11.6-.3 12.4-.7 2.3 1.9 2.4 3.1.1.6-1.2 1.4-6.9 1.6-12.8.6-14.1 1.1-16.6 3.3-18.6 1.8-1.6 2-1.5 5 3.8 3.4 5.9 7.5 9 13.3 10 6.7 1.2 15 5.6 18.9 9.9 2 2.3 3.5 4.5 3.3 4.8-.2.3-2.6.9-5.4 1.2-3.6.4-6.3 1.5-9 3.7-2.2 1.7-5 3.3-6.2 3.5-1.3.3-5.4 1.4-9.3 2.5-7.8 2.4-18.3 4.9-20.3 5-.9 0-.6-1.2.9-4.1 3.1-6.1.3-7.7-3.1-1.8-2.4 4.2-8.5 8.8-12.2 9.3-1.9.3-5.1 1.4-7.1 2.6-3.3 1.9-3.6 2.5-3 5.3.3 1.8 1.6 4.6 2.9 6.4 1.3 1.7 2.4 3.6 2.4 4.2 0 .7 11.3 7.1 12.7 7.1 1.3 0-.2-1.9-2.4-3.1-5.4-2.7-11.3-9.9-11.3-13.7 0-2.9 4.8-5.8 12-7.3 3-.6 6.9-1.4 8.5-1.9 1.7-.5 6.8-1.6 11.5-2.5 4.7-.9 9-2 9.5-2.5 2.2-1.6 12.2-1.8 19.5-.4 12.7 2.5 16.2 3.2 23.5 4.3 3.9.6 8.1 1.6 9.5 2.1 1.4.6 6.1 5.1 10.4 10 7.3 8.2 10.6 10.7 10.6 7.9 0-.6-1.2-2.6-2.6-4.5-2.6-3.4-2.6-3.5-1.1-7.2 2.1-4.8 2.4-6.6 1.2-7.1-.6-.2-1.5 1.3-2 3.3-1.5 5.4-4.6 7.1-6.5 3.7-.8-1.6-.4-2.6 2-5.3 3.5-3.8 3.6-4.4 1-5.8-1.5-.8-2.1-.8-2.4.2-.3.7-.8 2.6-1.3 4.2-1.3 4.1-3.2 4.4-4.6.7-1-2.8-1.6-3.1-6.9-3.7-9.4-1.1-8.4-3.2 1.7-3.5 2.8-.1 5.9-.6 7-1 1.1-.4-6.8-.6-17.5-.4-21.7.4-24 .1-24-2.5 0-5 23.7-8.9 33.6-5.6 4.6 1.5 14.7 7.5 20.6 12.1 5.1 4.1 8.6 12.1 9.8 23 .7 5.5 1.3 10.2 1.5 10.4 1.2 1.1 2.3-1.4 1.8-3.9-.3-1.9-.1-3 .6-3 .6 0 1.1.3 1.1.7 0 .5 1.9.7 4.2.5 9.1-.6 12.1-.2 14.9 2.2 1.6 1.3 3.4 2.6 4 2.8.8.3.9.9.4 1.9-.5.8-1 2.7-1.1 4.4-.1 1.6-2.2 6.7-4.7 11.2-2.9 5.4-4.7 10-5.1 13.5l-.7 5.3 4.5 3.5c2.5 1.9 4.5 4 4.6 4.6 0 1.6 3.8 3.3 9.5 4.3 4.7.9 23.4.5 24.4-.5 1.6-1.6-4.7-2.1-12.4-1-6.2.9-17-2.7-19.3-6.3-.9-1.4-2.8-3.6-4.2-4.8-3.5-3-2.2-3.6 3.7-1.8 7.8 2.3 33.3 2 33.3-.4 0-.4-6.2-.8-13.7-.9-10.4-.2-14.1-.6-15.2-1.6-1.6-1.7-1-1.9 9.4-3.6 9.6-1.5 16.5-3.2 16.5-4.1 0-1.3-8.7-1.1-11.1.2-2.5 1.3-19.2 3.1-21.4 2.3-2.1-.9-1.9-1.8 2-10.1 1.9-4.1 3.5-8.3 3.5-9.5 0-1.4 4.9-6.9 14.3-16.2 7.8-7.8 14.9-15.5 15.7-17.1.8-1.7 3-5 4.8-7.4 4.1-5.4 20.2-37.5 20.2-40.2 0-1-.4-1.9-1-1.9-1.4 0-3.5 3.8-5.4 9.6-1.8 5.4-13.6 26.4-19.6 34.7-5.5 7.7-15 18.7-16 18.7-2.6 0-.4-5.5 5.8-14.5 3.8-5.5 7.1-10.7 7.5-11.5.9-1.7 2.2-3.9 5.9-9.6 5.1-7.9 10-18.6 8.9-19.7-.6-.6-2.3 1.7-5 6.9-14 26.9-18 33.2-20.3 31.8-.8-.5 1.1-5.8 6.3-16.9 1.7-3.9 3.5-8.1 3.9-9.5.4-1.4 1.1-3.3 1.5-4.3.5-1.1.2-1.7-.8-1.7-1.3 0-2.6 2.6-8.4 16.2-2.8 6.7-3.4 5.4-3.8-9.7 0-1.7.3-4.5.6-6.3.4-1.7.3-3.5-.2-3.8-1.6-1-2.8 4.3-3.4 15.7-.3 6.3-1.5 18.4-2.7 26.9-1.8 13-2.5 16.1-4.7 19.2-1.4 2.1-3.1 3.8-3.7 3.8-.6 0-2-1.8-3.3-4-1.9-3.5-2.1-4.4-1.1-7.3 1-2.6.9-3.9-.3-7-.9-2-2.3-3.7-3.1-3.7-2 0-2 .7-.1 4.4 1.7 3.3 1.3 5.5-1.5 8.1-1.7 1.5-2.5 1.6-7 .5-4-1-5.4-.9-6.5 0-.8.7-1.5 1-1.5.7 0-1.4 3.4-7.7 4.2-7.7.5 0 1.6-1.7 2.5-3.8 1-2 2.2-4.4 2.9-5.2 1.2-1.6 4.1-6.8 11.4-20.7 4.2-7.9 4.8-11.9 1.5-10.7-.8.3-1.5 1.1-1.5 1.6 0 1.5-10.6 22.2-15.6 30.4-2.4 4-4.4 7.8-4.4 8.4 0 .7-.7.9-1.6.6-.9-.3-2.2-.6-3-.6-.7 0-1.7-1.2-2.1-2.8-1-4.1-4.3-11.3-6.7-14.5-2.3-3.1-9.9-8.7-11.9-8.7-.7 0-2.2-.7-3.4-1.5-2.8-2-16.5-5.5-21.3-5.5-3.1 0-4.2-.6-6.5-3.6-2.6-3.3-14.9-10.4-18.2-10.4-1.5 0-7.5-3.1-12.8-6.8-2.7-1.8-5-4.7-7.3-9.2-1.8-3.6-3.6-6.6-4-6.8-.5-.1-1.7.8-2.8 2Z"/>
  <path fill="#000" d="M322.36 338.42c-1.6 1.7-5.1 4.5-7.8 6.2-6.5 4.2-11.1 13.8-6.6 13.8.5 0 1.4-1.2 1.9-2.6 1.7-4.4 6-9.2 11.5-12.9 4.2-2.7 5.2-3.9 4.8-5.5-.3-1.1-.6-2-.7-2-.1 0-1.5 1.4-3.1 3Z"/>
  <path fill="#000" d="M374.06 347.92c-.7 1.4-1.2 3.7-1.2 5 0 3.5-8.4 28.3-11.1 33-6 10.3-16.1 23.7-23.4 31.3l-8 8.2-4-1.5c-5-1.8-7.8-1.9-7.3-.3.3.7 3.8 2.5 7.9 4 8.8 3.2 8.9 3.2 8.9 1.3 0-.8 1.3-2.9 2.9-4.7 6.1-7.1 25.1-35.8 25.1-38 0-.6 1.1-3.4 2.5-6.2 5.6-11.8 8.7-20.2 9.2-25.5.3-3.1 1-6.4 1.5-7.4.6-1.2.5-1.7-.5-1.7-.8 0-1.9 1.1-2.5 2.5Z"/>
  <path fill="#000" d="M365.16 353.02c-.7 4.2-2.9 10-5.7 15.5-4.3 8.4-4.8 11-1.4 7.1 2.8-3.1 8.5-15.6 9.2-20.2.4-2.5.9-5.5 1.3-6.8.3-1.5.1-2.2-.9-2.2-.9 0-1.8 2.1-2.5 6.6Z"/>
  <path fill="#000" d="M420.56 348.02c-1 1 14.4 30.4 18.3 35.1 4 4.8 7 9.3 7 10.4 0 .7 2.5 6.2 5.4 12.3 5.7 11.5 7.5 16.6 5.9 16.6-.6 0-3.7-1.8-7.1-4-4.1-2.6-6.4-4.8-6.8-6.5-.5-2-1.1-2.4-2.5-2-1.1.4-5.4.8-9.7.9-7.2.3-7.7.5-8 2.6-.4 2.3-.3 2.3 7.8 1.7 7.1-.6 8.6-.4 10.6 1.2 3.6 2.8 13.8 11.8 23.3 20.5 4.7 4.3 11.7 10.4 15.6 13.5 7.6 6.1 14.1 12.5 15.6 15.2.7 1.4.3 2.2-1.9 3.7-1.5 1-3.5 2.2-4.4 2.5-2.7 1-2.2 2.5 1.1 3.2 1.6.3 4.2 2.3 6 4.6 1.8 2.1 3.7 3.9 4.3 3.9.6 0 1.8.7 2.7 1.5.9.9 3.7 3.5 6.4 5.8 5.6 5 8.2 11.3 9.2 22.7.6 6.8.5 7.7-1.4 9.4-1.2 1.1-2.1 3-2.1 4.3 0 4.7-5.1 12.3-10.5 15.9a5.06 5.06 0 0 0-2.5 4.5c0 2.6-2.5 11.1-6.5 21.8-1.5 4-1.4 4.7.1 8.7 1.3 3.4 1.5 5.7.9 10.2-.4 3.1-.9 7.3-1 9.2-.9 13.5-3.4 25-5.4 25-.3 0-4.7-3.8-9.6-8.5-5-4.7-10.9-9.4-13.2-10.6-9.7-4.7-22.2-17.4-22.3-22.7 0-2.8 4-.9 7.6 3.6 5.3 6.7 9.8 11.1 10.6 10.5 1.8-1 .5-4-3.1-7.7-2.6-2.4-3.7-4.4-3.4-5.4.5-1.1.3-1.3-.6-.7-1.7 1-6-4.2-6.1-7.3 0-3 2.4-2.4 2.8.6.2 1.2.8 2.2 1.4 2.2.6 0 2.2 1.2 3.6 2.7 1.8 1.9 2.7 2.4 3 1.4.2-.7-1.2-2.9-3.1-4.9-3.6-3.9-7.7-11-7.7-13.7 0-2.2 2.7-1.9 3.5.4.8 2.5 13.7 16.1 15.3 16.1 2 0 1.3-2.9-1-4.1-5.1-2.6-17-17.1-15.4-18.6.3-.3.1-1.4-.5-2.4-2.1-4.1 1.9-1.7 9 5.1 4.6 4.5 8 7 9.4 6.9 2.1 0 2-.2-.8-2.2a43.6 43.6 0 0 1-5.6-5c-1.5-1.5-3-2.7-3.3-2.7-2.2 0-10.2-12.1-8.9-13.4 1.2-1.1 2.1-.6 8.5 4.5 7.7 6.2 11.2 8.1 14.1 7.7 1.7-.3.9-1-3.9-3.6-6.9-3.7-17-13.2-14.1-13.2 1 0 3.8.9 6.3 2.1 2.5 1.1 5.5 1.9 6.7 1.7 1.6-.3.4-1.2-4.8-3.6-3.8-1.7-7.7-3.6-8.5-4.2-.8-.5-3.2-1.9-5.2-3-3.8-2-5.5-4.9-2-3.5 11.8 5.2 29.2 9 29.2 6.6 0-1.2-1.4-1.6-10.6-3.5-9.5-2-15.6-4.4-25.9-9.9-6.4-3.4-8.1-6.1-4.4-7 1.6-.4 3.2.2 5.5 2.3 4.5 3.9 21.1 9.2 27.3 8.8 5.7-.4 4.6-.9-11-4.8-2.5-.7-7.7-2.9-11.6-5l-6.9-3.8.2-7.2c.1-4 .6-7.6 1-8 .5-.4 4.1-1.8 7.9-3.1 6.3-2.1 7.9-3.2 16.5-11.7 10.2-10 16.4-13.8 21.2-12.8 3.9.8 3.7-1.8-.3-3.4-4.1-1.7-9.8 0-14.1 4.4-1.8 1.8-6.2 6.4-9.8 10.1-3.6 3.7-8.1 7.4-10 8.2-3.7 1.7-15.2 4.3-15.9 3.7-.2-.2-1.2-3.8-2.3-8.1-1.1-4.3-2.5-10.1-3.2-12.8-1.7-6.6-7.3-26.8-9.1-32.5-.7-2.5-1.7-6.3-2.1-8.5-.3-2.2-1.5-5.9-2.5-8.2-1.1-2.3-1.9-5.3-2-6.5 0-3.3 4.7-21.8 6-23.1.7-.7 1.7.1 3.1 2.7 1.2 2 2.7 3.6 3.2 3.6.6 0 .8 1.5.4 3.7l-.6 3.8 2.5-3c1.4-1.7 2.5-3.5 2.5-4.1 0-.6-1.5-2.8-3.3-5-1.9-2.1-4.7-6.6-6.4-9.9-2.7-5.2-3.2-7.4-3.7-16.5-.7-11.7-2.1-18.3-3.9-17.7-1.2.4-1.3 1.7-.4 7.4.3 1.7 1.1 10.8 1.8 20.2 1.1 14 1 18.2 0 23.8-.8 3.7-1.9 7.5-2.6 8.3-2.2 2.6-2.7 8.1-.9 10.1 2.6 2.9 6.8 16.8 10.3 33.9 3.8 18.6 6.1 27.6 9.3 36 1.1 3 2.2 6.8 2.4 8.5.2 1.6.6 3.6.9 4.3.3.7-.1 2.8-.9 4.6-1.1 2.6-2.3 3.5-6 4.6-6.3 1.7-6.9.9-7.8-9.8-.4-4.8-.9-10.3-1.2-12.2-.3-1.9-1.1-6.7-1.6-10.5-2.7-18-6.6-38.7-8.1-42.4-.7-1.8-1.3-2.1-2.1-1.3s-.7 3.2.5 8.9c.9 4.3 2.3 11.8 3.2 16.8.9 4.9 2.4 13.7 3.5 19.5 5.5 31.1 5.2 34-4.3 35.5-5.3.9-6.7-.9-6.8-8.9-.1-6.1-.3-8.6-1.2-14.1-.2-1.7-.8-6.8-1.2-11.5-.4-4.7-.9-10.1-1.1-12-.2-1.9-1.1-8.4-1.8-14.4-.8-6-1.2-11.6-.8-12.5 1.1-3.3 7.5-10.2 8.8-9.7.9.3 1.4-.1 1.5-1.2.2-4.1.6-6.9 1.3-9 .4-1.2.6-2.2.4-2.2-.2 0-2.6 3.2-5.3 7.1-2.8 3.9-6 8.4-7.2 9.9-1.3 1.5-2.3 3.2-2.4 3.6 0 .5-1.9 2.4-4.2 4.3-3.8 3.1-3.7 3.3.7 1.5 2.1-.8 3.3 2.1 4.1 10.1.3 3.8 1.1 8.8 1.5 11.1 1.3 6 4.4 38.2 4.3 45.4-.1 6.9-.3 8-2.5 10-3 2.8-4.9 2.6-14.3-2-8-4-8.4-4.1-16.9-3.7-6.4.3-9.2.8-10.4 2.1-1.5 1.5-1.1 1.6 5.3 1.7 7.8.1 8.3.2 14.2 1.3 3.3.7 4.7 1.7 7.2 5.1 1.7 2.4 3.1 4.6 3.1 5 0 .4 1.5 3.2 3.3 6.3 2.6 4.5 3.3 6.5 2.9 9.4-.2 2.1.1 5.2.7 6.9.9 2.6.7 3.9-.8 7.4-1.1 2.4-2.8 4.8-3.9 5.4-1.1.6-3.6 3.3-5.6 6-5.2 7.3-8.1 8.5-20.6 8.7-12.7.2-12.9.2-11 1.4.8.5 3.4 1 5.7 1 2.3 0 4.4.4 4.7.9.4.5-.8 2.2-2.4 3.8-3.8 3.4-8.1 11.7-11.5 21.9-1.4 4.3-3.4 8.9-4.4 10.3-1 1.4-3.4 5.8-5.4 9.6-3.7 7.5-9 13.5-11.8 13.5-1 0-2.1-1.3-2.8-3.3-3.9-10.6-13.7-26-17.1-27-1.4-.4-4.1-5-6.9-12-1.7-4.2-1.4-11.6.4-12.4 2.2-.8 2.4-.5 4 7.8 1.6 7.7 4.3 14.9 5.6 14.9.8 0 .5-1.7-2.3-11.3-1.9-6.9-2.1-14.6-.3-14.9.6-.1 1.3.9 1.7 2.3 3.4 12.1 6.1 20 6.9 20.5 1.9 1.2 2.1-.5.4-3.8-4.8-9.3-6.8-19.4-4.5-22.8.9-1.3 1.2-1.2 2.5.4.8 1.1 1.5 3.3 1.5 4.9 0 3.1 3.6 12.4 5.7 14.7.9 1 1.6 1.1 2.3.4.7-.7.1-3.1-2-7.6-4.6-9.8-5.9-21.8-2.4-21.8.8 0 1.5 1.8 1.9 4.7.7 5.1 5.1 16.9 6.7 17.9 1.8 1.1 2.2-.7.9-3.9-5-12.2-7.1-21.9-5.1-23.2.8-.5 2 .1 3.1 1.6 2.3 2.9 2.4 4 .4 3.3-1.9-.8-1.9.6 0 3.2.8 1.2 2.4 4.7 3.5 7.8 2.4 6.2 3.5 6.9 4.4 3 .7-2.6-1.2-9.4-2.6-9.4-.4 0-.8-.8-.8-1.8s-.4-2.2-.9-2.8c-.4-.5-1.2-2.2-1.5-3.8-.7-2.7-.2-2.5 5 2.9 3.5 3.6 6 5.3 6.2 4.6.2-.7-.7-2.4-2.2-3.8-2.7-2.5-3.4-4.3-1.6-4.3.6 0 3.3 1.2 6.1 2.6 4.7 2.3 8.8 2.6 7.5.5-.3-.5-3.8-2.4-7.8-4.3-7-3.3-15.7-10.2-14.5-11.4.3-.3 3.9 1 7.9 2.9s8.9 3.7 10.8 4.1c2.6.5 1.7-.2-3.5-2.7-6.5-3.1-18.6-11.5-20.1-13.8-1.3-2.2.5-1.7 8.6 2.5 11.1 5.7 22.6 9.4 24.2 7.8 1.8-1.8-.9-4.2-4.7-4.2-6.2 0-25.4-8.3-28.6-12.4-1.9-2.4-1.5-3.7.6-1.7 3.3 2.9 25.7 7.3 28.5 5.6 2.1-1.3-1.1-2.5-7-2.5-8.6 0-23-4.4-23-7 0-.4 5.7-.6 12.8-.5 12.9.2 15.2 0 15.2-1.6 0-.5-5.3-.9-11.9-.9-8.8 0-12.1-.3-13-1.4-1.2-1.4-1.5-1.3 6.9-3.8 1.9-.5 6-1.3 9-1.7 4.1-.4 5.6-1 5.8-2.4.5-2.5-3.7-2.2-13.9.9-11.4 3.4-21.8 3.1-27.9-1-3.8-2.5-4.1-3.1-3.7-5.9 1.3-7.9 3.8-24.7 4.5-29.7.6-4.7 1-5.5 2.7-5.3 1.1.1 4.6-.5 7.7-1.3 3.1-.8 7-1.6 8.5-1.8 4.4-.6 9.7-1.7 11.3-2.3.8-.4 2-.7 2.5-.7 2.6-.3 22-8.1 24-9.6.6-.5 3-1.3 5.4-2 3.2-.8 6.1-2.9 10.8-7.4 3.5-3.4 6.3-6.8 6.3-7.4 0-1.7-.9-1.5-3.4.8-6 5.5-12.6 10.2-17.5 12.6-7 3.3-31.7 11.5-35.6 11.9-1.6.1-6.8.9-11.5 1.8-14.8 2.8-19.4 3.3-23.5 2.6-12.3-2.1-28.1-4-35.6-4.3-12.6-.5-12.5-.4-12.5-13 .1-9.7.3-10.6 2.6-13.1 2.4-2.6 2.5-2.7.6-4.1-1.7-1.2-2.3-1.2-4 0-2 1.3-2.1 2.1-1.7 16.7.2 8.5.5 15.6.7 15.8.5.5 5.7.9 15.2 1 4.2.1 7.2.5 7.2 1.1 0 1.6-7.8 11.8-9.8 12.9-2.4 1.3-5.3.6-13.2-3.2-3.6-1.7-8-3.8-9.9-4.6-1.8-.9-4.7-2.8-6.3-4.4-2.9-2.6-3-2.9-2.4-9.5.5-6.3.8-8 2.1-14.2.3-1.4.7-5 1-8 .3-3 .7-7.5 1-10 .5-4 .1-5.4-4-12.4-2.5-4.4-4.5-8.3-4.5-8.7 0-.4-.6-1.2-1.2-1.6-1.4-.9-4.2-6.4-7.8-15.3-1.2-3-2.5-5.9-3-6.3-.4-.5-2.4 1.5-4.4 4.3-2 2.7-4.7 6-6.1 7.2-1.4 1.2-2.5 2.7-2.5 3.4 0 2.7 2.1 2.3 5.8-1.1 2.2-1.9 4.8-3.5 5.8-3.5 1.6 0 6.4 5.7 6.4 7.6 0 .4 1.8 3.5 4 7s4 6.6 4 6.9c0 .3 1.2 2.4 2.6 4.7 2.4 3.7 2.5 4.6 1.9 10.7-1.1 10.5-1.7 10.9-7.5 5-2.7-2.7-5.5-4.9-6.3-4.9-.8 0-2-.7-2.8-1.6-.7-.8-2.9-2.4-4.9-3.4-6.4-3.3-20-15-20-17.3 0-.7-3.2-4.8-7-9.2-3.9-4.4-7-8.3-7-8.6 0-.9-5.9-3.6-9.8-4.4-3-.6-3.2-.5-3.2 1.9 0 1.5 1 3.4 2.1 4.4 1.2.9 3.6 2.9 5.4 4.5 1.8 1.5 4.9 3.4 6.8 4.2 2.7 1.1 4.2 2.8 6.3 7.2 1.6 3.2 4.2 7.2 5.8 9.1 3.2 3.6 13.7 10.7 23.1 15.6 3.3 1.7 7.4 4.3 9 5.8 1.7 1.6 3.5 2.8 4.2 2.8 1.2 0 1.2 1.2-.8 13.5-.6 3.8-1.3 8.4-1.6 10.2-.5 3-.2 3.3 4.6 5.8 2.8 1.4 8.1 4.6 11.8 7 3.7 2.5 7.6 4.5 8.7 4.5 1.2.1 3.2.7 4.6 1.5 5.5 3.1 8.4 2.1 16.2-6l7.3-7.5 8 .8 8 .7-.1 6c-.1 3.3-1.2 8.7-2.4 12-1.1 3.3-2.2 6.5-2.3 7.1-.2 1.1 5.4 8.3 10.5 13.4l2.7 2.7-3.9 5.4c-5.2 7.3-10.1 13.3-35.3 43.3-5.1 6.1-10.8 13.1-12.7 15.6-1.9 2.6-4.7 6-6.2 7.6-4.1 4.4-28.5 35.2-34.8 43.9-5.8 7.9-7.4 10.1-11.3 15-4.8 6-4.3 13.5.9 13.5 5.6 0 12.8-5.1 25.9-18.4 13.9-14.1 37.7-39.2 43.5-45.8 1.9-2.2 8-8.8 13.5-14.7 16.6-17.8 24.2-26.5 30.6-35 8-10.6 9.1-11.1 13.8-7.3 3.3 2.7 3.6 3.4 3.7 8.3.1 9.4-2.5 12.8-19.5 25.3-5.8 4.3-8.5 5.6-12.5 6.1-5.9.8-8.6 2-8.6 3.9 0 2.2-5 10.9-8.2 14.3l-3 3.2.7 11.4c.5 7.9.3 11.7-.4 12.1-.6.4-1.1 1.6-1.1 2.7 0 1-1.8 3.5-4 5.5s-4 4.3-4 5c0 .8-.9 2.3-2 3.4-1.4 1.4-2.1 3.6-2.2 6.6-.2 4.2-.7 5-5.3 9-2.7 2.4-5.4 4.4-5.8 4.4-.5 0-4.5 2.9-9 6.5-6.5 5.2-8.8 6.5-11.7 6.5-8.7 0-16 4.7-17.9 11.5-2.8 10.3-.4 17.2 9.4 27.5 5.7 5.9 8.4 10.1 14.2 22 3.6 7.1 3.7 7.9 3.8 18.1v10.7l5.1 5.8c2.8 3.2 6.4 6.2 8 6.7 1.6.5 9.4.9 17.4.8 12.7 0 15.9-.4 26-3 6.3-1.6 13.9-4.1 16.7-5.5 2.9-1.4 5.7-2.6 6.1-2.6 1.4 0 4.2-3.5 4.2-5.3 0-2.1-4.6-5.2-9.7-6.6-2.6-.7-5.3-2.5-7.4-4.9-4.1-4.7-5.4-5.5-10.8-6.2l-4.3-.5-1.9-7.5c-2.5-10-3.6-12.5-7.2-16.3-5.8-6.2-6.1-7.1-3.8-11.4 1.1-2.2 2.7-4.6 3.7-5.4.9-.8 3.2-3.7 4.9-6.4 1.8-2.8 5.2-7.4 7.6-10.4 2.4-3 5.1-6.6 6-8 1-1.6 2.4-2.6 3.9-2.5 1.6.1 2.9-.9 4.2-3.3 1.1-1.8 2.8-3.8 3.7-4.3 3-1.6 20 0 23.7 2.2 5 2.9 7.5 2.1 9.2-3 .8-2.4 1.1-4.6.7-5-.4-.4-1-.2-1.2.4-.2.6-.9 1.9-1.6 2.8-1.1 1.5-1.6 1.5-7.1-.4-3.3-1.1-6.9-2-8.2-2-3.2 0-5.8-4.1-8.9-14-5.3-16.3-11-30-12.5-30-1.2 0-1.2.3-.1 3.2.5 1.3 1.4 4.3 2.1 6.8.7 2.5 3.3 9.6 5.7 15.9 3.8 9.5 4.3 11.7 3.4 13.7-.6 1.3-1.5 2.4-2.1 2.4-.6 0-3.6-2.4-6.8-5.3-9.2-8.2-12.1-10.7-12.9-10.7-.4 0 .9 1.7 2.9 3.7 1.9 2.1 4.8 6.1 6.3 8.9 4 7.2 3.5 8.4-6.4 17.3-1.8 1.7-4.4 5.2-5.6 7.8-1.3 2.7-4.6 7.2-7.4 10-2.8 2.9-5.1 6-5.1 6.8 0 .9-.7 1.8-1.5 2.1-.8.4-1.5 1.4-1.5 2.4 0 1.1-1 3.5-2.1 5.5l-2.2 3.6 2.1 2.2c3.5 3.9 10.4 16.1 10.5 18.7.3 7.9-.3 10.1-3.5 13.2-1.8 1.6-4.5 3.4-6 4-2.7 1-3.8 2.8-1.8 2.8 1.9 0 8.4-3.7 10.4-5.9 2.3-2.6 5.6-2.8 5.6-.3 0 3.6-2.1 8.7-4.7 11.4-1.4 1.5-2.4 3.1-2 3.5 1.1 1 4.7-2.8 7.2-7.8 4.2-8.1 6.5-8.5 12.8-2.4 2 1.9 4.5 3.5 5.5 3.5 1.1 0 3.6.7 5.6 1.5 3.8 1.6 4.7 4.3 2.2 6.4-1.3 1.1-10.7 3.5-18.6 4.7-1.9.3-5.3 1.3-7.5 2.1-2.2.9-8.9 2-15 2.4-12.3.9-20.7-.3-24.1-3.3-1.1-1-2.5-1.8-3.2-1.8-1.7 0-3.2-3.4-3.2-7.4 0-4.4 1.3-4.5 4.7-.6 4.1 4.9 16.3 10.2 16.3 7.2 0-2-3-4.5-8.9-7.5-6.2-3.1-11.2-7.9-9.8-9.4.4-.3 2 .5 3.5 1.9s3.8 2.9 5.2 3.3c2.1.7 1.7 0-2.3-4-2.6-2.6-5.9-6.4-7.3-8.5-2.9-4.3-2.9-8.7-.1-8.2 3.5.6 1.5-2.8-4.3-7.3-3.3-2.5-6-4.9-6-5.3 0-.4-4.1-5-9.1-10.2-10-10.4-11.4-12.8-10.3-18 .4-1.9.7-3.8.6-4.2-.1-.5.2-.8.7-.8.5 0 1.2 2.3 1.6 5 .8 5.7 3.9 10.4 5.4 8.1.6-.9.2-2.8-1-5.5-2.5-5.6-2.5-12 .1-14.6 2.4-2.4 4.2-1.8 3.9 1.3 0 1.2 0 3.1.1 4.2.1 1.9.2 1.8 1-.3 1.1-2.7 3-2.9 3-.3 0 1.1.5 2.3 1.1 2.7.7.4 1-.4.8-2.2-.4-3.2.8-5.7 2.1-4.9.4.3 1.1 2.4 1.5 4.8.8 4.8 3.1 9.7 4.5 9.7s1.2-1.2-.5-3.7c-.8-1.2-1.8-5-2.2-8.4-.5-5-.4-6.1.8-5.7.8.2 2.2 2.9 3.1 5.8 2.7 8.1 4.2 8.8 3.2 1.5-1.1-8.6-1.1-11.8-.2-13.8 1.3-2.7 2.8-2 2.8 1.3s1.9 8 3.2 8c.5 0 .7-1.4.3-3.1-.9-4.1-1-11.3-.1-12.7 1.7-2.8 3.3-.9 4.2 5 .6 4.5 1.3 6.3 2.4 6.3 1.2 0 1.4-1.2 1.2-5.8-.4-5.3-.1-6 2.6-8.8 2.3-2.3 2.9-3.8 2.7-6.2-.2-1.8.4-6.5 1.3-10.6 1.3-5.9 2.3-8 5.2-10.8 1.9-1.9 4.7-3.9 6.3-4.5 2.1-.8 2.7-1.7 2.8-4.1.3-5.8-.2-9.6-2-14.5-1.5-3.9-1.6-5.5-.7-8.2 1.4-4.4 3.6-5.1 3.6-1.2 0 1.6.9 4.1 2.1 5.6 1.1 1.5 3.1 5.2 4.3 8.4 2.3 6 3.9 7 4.4 2.7.3-2.3-1.3-6.2-7-17-2.1-4-2.1-4-.2-9.3 2.1-5.9 3.4-6.6 4.9-2.4.6 1.5 4.3 5.8 8.4 9.7 10.5 10 19.5 21.6 24.8 32 2.5 4.9 4.9 9.4 5.3 10 .4.5 1 2.6 1.3 4.5 1.6 10 3 15 4.2 15 1.9 0 2.5-2.4 2.5-9.6 0-7.4 2-8.9 4-2.9 1.2 3.6 3 4.8 3 2 0-.9-1-4.5-2.1-8.1l-2.1-6.6 2.5-2.6c2.3-2.5 4.1-5.7 12.1-21.1 1.6-3.1 4.7-9.9 6.8-15.1 2.2-5.2 4.8-10.9 6-12.8 2-3.2 7.2-6.2 11-6.2 3.3 0 7.1-2.9 11.3-8.7 2.2-3.1 5.7-6.6 7.7-7.9 4.4-2.8 6.2-5.7 5.2-8.7-.4-1.2-.8-5.4-.9-9.3-.2-5.9-.8-8.3-3.6-13.5-1.8-3.5-4.2-7.5-5.3-8.8-2.1-2.3-2.1-2.3-.1-1.8 10 2.7 14.4 1.7 16-3.9 1-3.6 1.3-3.9 5-4.1 2.2-.2 5.6-.7 7.5-1.3 3.1-1 4.1-.8 9 1.9 5.4 2.9 15.9 13.4 18.5 18.4.6 1.3 1.4 5.5 1.8 9.5.5 5.8.1 9.1-1.9 16.8-1.3 5.3-2.4 9.8-2.4 10 0 .2-.5.4-1.2.4s-3.8 1.2-7 2.7c-6.4 2.9-6.8 3.7-7.4 14.7-.1 3.4-.6 8.2-1 10.7-.4 3-.2 4.9.5 5.3 1.4.9 1.4 5.2-.1 13.3-1.1 6-1 6.5 1.2 9.5 1.9 2.5 2.4 4.8 2.8 10.9.5 8 .2 7.5 7.5 15.9 3.2 3.7 8.7 15.1 8.7 18.1 0 1.5 1 3.9 2.2 5.4 1.2 1.5 2.7 5.1 3.3 7.9 1.1 4.6 1 5.5-1.1 9.6-2 4.1-2.1 5.1-1.2 9.5 1.2 5.5 1.2 5.5 0 20.5-.5 5.8-1.5 11.7-2.2 13.2-1 2.2-1 3.3.5 7.1 1.6 4.3 1.6 4.9.1 9.3-.9 2.6-1.6 7-1.6 9.8.1 4.7.5 5.5 5.1 10.5l5 5.3 6.7-.5c3.7-.3 10.1-1 14.2-1.7 10.9-1.6 20-1.8 24.2-.4 2 .7 3.8 1.1 4.1.8.2-.2 3.5 1.6 7.2 4.1 10 6.5 18.2 7.6 30.5 3.9 7.4-2.2 9.6-3.5 19.8-11.7 4.1-3.2 8.7-6.3 10.2-6.9 2.9-1 7.2-6.5 8.5-10.7 1.1-3.8-4.5-8.7-13-11.3-3.8-1.2-8.3-3-10-4-3.9-2.3-6.8-2.3-13.3.2-4.7 1.8-6.3 1.9-13 1.1-7.6-.9-7.8-1-12.3-6-2.5-2.8-5.1-5.1-5.8-5.1-1.5 0-5.8-3.1-10.8-7.7l-3.5-3.3.7-10.5c.7-10.3.7-10.5-1.9-13.5-1.9-2.3-2.6-4.3-2.6-7.5 0-2.3-.6-6-1.3-8.1-1.6-4.6-.7-21.9 1.4-29.7 1.5-5.2 2.8-6 10.4-6.1l4-.1.3-7.5c.4-10.4-.8-13.3-10.9-26.3-2-2.7-2.1-3.5-1.4-12 .5-5.1.7-13 .5-17.7-.6-15.4-.4-18.4 1.7-22.5 1.1-2.2 2.4-6 2.8-8.5.9-5.8 1.6-7 8.8-15.9 6.7-8.3 8.3-13 8.6-25.3.2-7.4-2.1-18.7-4.1-19.9-.5-.4-4.1-3.5-7.9-7-3.8-3.4-8.3-7.1-9.9-8.1-3-1.8-3.9-4.1-2-5.3 1.1-.7 1.2-6.1.2-8.8-.4-.9-3.8-4.8-7.5-8.6-7.7-7.9-7.6-7.2-3.6-23.3 1-4.2 1.9-8.8 1.9-10.2 0-1.5.6-4.2 1.4-6.1l1.5-3.4-5.8-5.3c-3.2-2.9-9.7-9.9-14.5-15.6-7.6-8.9-10.6-11.6-10.6-9.7 0 1.2 14.6 20.4 18.8 24.7 2.6 2.7 5.5 4.8 6.5 4.8 1.8 0 1.9.5 1.3 5.2-.4 2.8-1.1 5.9-1.5 6.7-.5.9-1.2 5.2-1.6 9.6-.4 4.4-1.2 8.6-1.7 9.2-2.1 2.5-3.6 1.2-4.8-4-2.4-10.9-3.3-14.2-4.7-15.8-.7-.8-1.3-2.4-1.3-3.5s-1.2-3.3-2.8-5c-15.6-16.5-29.4-34.1-35.8-45.4-2.1-3.6-4.4-7.3-5.3-8.4-.9-1-1.5-2.1-1.4-2.5.1-.3-.8-2.7-2-5.4-2-4.4-3.5-5.6-5-4.1Zm36.3 55.7c0 .8 1 2.2 2.1 3.3 6.8 6 11.3 14.2 13.3 24 .3 1.1.7 2.6 1.1 3.5 1.3 3.3-1.4 2.8-6.1-1.1-2.7-2.2-4.9-4.4-5-4.8-.4-3.7-3.5-12.6-6.6-18.9-2-4-1.9-7.3.2-7.3.5 0 1 .6 1 1.3Zm-151.5 82.7c0 2.1-.4 2.5-2.4 2.2-2.6-.3-6.1-2.8-6.1-4.4 0-.5 1.9-.8 4.3-.6 3.7.3 4.2.6 4.2 2.8Zm-6.4 5.2c3.6 2.9 5 6 3.1 7.2-.9.5-9.2-7.1-9.2-8.3 0-.8 1.1-2.1 1.7-2.1.2 0 2.2 1.4 4.4 3.2Zm-1 7.7c2.7 2.7 3.7 6 2.3 7.3-.8.9-8.4-6.9-8.4-8.7 0-2.4 2.9-1.8 6.1 1.4Zm-1.3 6.9c3.1 2.7 4.2 5.2 2.2 5.2-1.3 0-8-6-8-7.1 0-1.7 2.5-.9 5.8 1.9Zm-2.1 4.2c.9 1.6 2.1 3 2.5 3 .4 0 .8.7.8 1.5 0 1-1.3.6-4.5-1.6-4.7-3.2-5.9-5.9-2.6-5.9 1.1 0 2.8 1.3 3.8 3Zm14.3 20.2c7.8 8.1 8.3 9.9 3.7 14.1-2 1.8-6.3 6.6-9.7 10.7-3.4 4.1-10.7 12.3-16.3 18.3-5.6 6-10.4 11.3-10.6 11.9-.1.5-3.6 4.2-7.5 8.1-4 4-11.7 12.1-17.1 18.2-5.4 6-15.5 17-22.4 24.3-6.9 7.4-13 14-13.4 14.7-1.3 2.4-15.6 12.7-16.7 12-1.5-1-1.2-4.5 1-9.4 2-4.2 25.3-36 30.9-42 1.6-1.7 4.3-5.3 6-8 1.8-2.7 3.9-5.5 4.8-6.3.9-.7 3.4-3.7 5.5-6.6 2.1-2.9 5.8-7.4 8.1-10.1 2.3-2.7 5.6-6.6 7.2-8.6 4-5 8.3-10.1 12.1-14.4 5.2-5.9 20.7-24.8 23.9-29 1.7-2.2 3.3-4 3.8-4.1.4 0 3.4 2.8 6.7 6.2Zm16-.8c0 .3-.4.8-1 1.1-.5.3-1 .1-1-.4 0-.6.5-1.1 1-1.1.6 0 1 .2 1 .4Zm114 54.8c0 1.3-.7 3.6-1.5 5.2-2.1 3.9-.9 5 7.8 7.7 11.1 3.4 21.3 9.6 35.4 21.4 6.7 5.7 12.7 10.1 17.9 13.5 4.1 2.6 4.9 0 1.4-5.1-5-7.5-2.9-12.8 2.3-5.7 4.9 6.8 6.6 10.5 7.3 16.5.8 7.6.3 7.8-9 3.4-11.6-5.5-15.1-6.2-31.1-6.5-14-.3-18.6-.9-18.5-2.5.1-.3.7-3.2 1.4-6.3 1.1-4.4 1.1-6.1.2-7.3-1.3-1.8-6.9-5.3-13.1-8.3-6.4-3-6.8-3.9-6.3-15.4.4-11.1.9-12.8 3.9-12.8 1.3 0 1.9.7 1.9 2.2Zm8.7 4c3.9 3.8 4.4 6.3 1.1 5.3-4.3-1.3-6.8-3.5-6.8-6 0-3.4 1.7-3.1 5.7.7Zm-151.8 1.7c1.9 1.2 2.9 10.5 1.1 9.9-2.4-.8-7.3-7.6-6.7-9.2.7-1.7 3.4-2.1 5.6-.7Zm143.1 26.2c.7 1.3.5 3-.6 5.9l-1.7 4.1 2.9 3.2c4.9 5.3 7.5 7.7 8.4 7.7.5 0 1.8.9 2.9 2.1 2 2.1 24.3 12.9 26.8 12.9.7 0 1.3-.5 1.3-1 0-.6-.4-1-.9-1-1.4 0-16.9-8.9-17.7-10.2-1.1-1.8 23.5-.4 27.1 1.5 1.7.9 3.8 1.7 4.8 1.7 3.5 0 3.2 3.2-.6 6.4-3.1 2.7-3.7 3.9-4.2 8.6-.6 5.3-.5 5.4 1.1 3.2 2.7-3.6 3.4-2.6 2.8 4-.8 9.4-1.1 10.2-4.6 11.8-4.2 1.9-4.2 4.1-.2 5.2 4.3 1.1 5.3 2.7 5.6 8.4.1 4.6 1.9 9.2 6.2 15.6 1.2 1.9 1.7 4.7 1.7 10.3 0 4.3-.2 8-.5 8.2-1.1 1.1 2.5 6.3 6.3 9 2.2 1.5 4.2 3.8 4.4 5.1.5 2.6-2.5 9.6-5.6 12.9-1.1 1.3-1.7 2.6-1.4 3 .9.8 6.3-4.3 8.9-8.5 2.3-3.8 3.8-4.1 3.8-.9 0 3.3 1 4 3 2.2 1.6-1.4 2.2-1.4 6.9.5 5.9 2.3 15.4 2.6 24.2.8 5.1-1 6.1-.9 10.3 1 2.6 1.2 7.4 2.6 10.7 3.1 6.2.8 7.9 2 7.9 5.7 0 4-2.6 6.1-16.1 13-1.4.8-4 3.2-5.8 5.4-7.8 9.7-23.1 12.7-35.6 7-1.1-.5-4.9-2.1-8.5-3.6-3.6-1.4-7.4-3.3-8.5-4-4.2-3-31.9-.8-36.3 2.8-1.8 1.6-8.5-.8-11.5-4.1-3.3-3.5-4.2-11.5-2.1-19.3 1.3-5.3 1.3-6.1-.1-8.1-1.9-2.8-1.9-6.1.1-9.2 1.1-1.6 1.7-5 1.8-9.7.1-7.7-.1-7.5 4.9-6.1 2.7.8 2.1-3.2-1.3-8.2-3.5-5.1-4-11.3-1.4-18.8 1.1-3.3 1.3-5.1.6-6-1.3-1.5-2.7-8.7-1.7-8.7.4 0 2.3.9 4.2 2.1 3.9 2.4 6.6 1.9 6.1-1.3-.3-2.2-3.5-3.8-9.8-5.2-1.8-.4-3.1-1.9-4.7-5.5-1.3-2.7-2.3-5.5-2.3-6.2 0-1.2-5.4-8.8-12-17-1.4-1.7-2.5-5-3.1-9.5-.5-3.8-1.5-8.7-2.3-10.9-2.8-7.6-1.6-14.8 2.4-13.8 1.1.3 2.5 1.4 3 2.4Zm8.5 7.3c1.8 2.7 1.1 7.6-1.1 7.6-1.8 0-4.9-6.3-4.1-8.4.9-2.3 3.4-2 5.2.8Z"/>
  <path fill="#000" d="M452.86 659.82c0 1.8 8 6.3 12.8 7.2 2 .4 4.2 1.1 4.8 1.5.6.5 3.2 1.2 5.8 1.5 4.5.7 4.6.6 4.6-2 0-2.8-.9-3.3-2.7-1.5-.8.8-1.7.8-3.1 0-1.1-.6-2.9-1.1-3.8-1.1-1.7 0-7.5-2.4-13.7-5.5-3.6-1.9-4.7-1.9-4.7-.1Z"/>
  <path fill="#FFF" d="m480.66 706.12-.3 5.8-5.7-.3c-7-.4-8.1 1.8-1.8 3.7 2.1.6 4.2 1.6 4.5 2.1.3.5-.4 3.2-1.4 6.1-3.1 8-1.2 9.2 4.5 2.9 2-2.2 4.1-4 4.7-4 .6 0 2.3 1.2 3.8 2.6 3 2.9 5.9 2.7 5.9-.4 0-1.1-.7-2.5-1.5-3.2a4.3 4.3 0 0 1 1-7.2c2.7-1.2 3.3-3.6 1.3-5.6-.8-.8-1.9-.5-4.2 1.5l-3 2.5-1.8-2.2c-1-1.2-2.3-4-2.9-6.1-.7-2.1-1.6-3.9-2-3.9-.4 0-.9 2.6-1.1 5.7Z"/>
  <path fill="#FFF" d="M482.96 732.12c1.2 7.1 1.2 7.1-2.6 8.3-3.7 1.2-4.8 4-1.6 4 2.6 0 3.8 1.8 4.6 6.7.4 2.4 1.1 4.5 1.6 4.9 1.1.6 2.9-3.8 2.9-7.2 0-3.1 1.1-3 6.1.3 3.5 2.3 4.2 2.5 5.5 1.1 1.3-1.3 1.1-1.8-1.6-4.9-3.4-3.9-3.5-6-.2-7.4 2.6-1.2 3.1-4.1.5-3-1 .4-3.7 1-6 1.2-4.3.6-4.3.6-6.3-4.1-2.7-5.9-3.9-5.9-2.9.1Z"/>
  <path fill="#000" d="M469.06 746.42c-3.2 4.7-5.6 5-7.4 1-1.2-2.8-2.8-4-2.8-2.3 0 2.7 2.3 8.3 4 9.8 3.3 3 6.8 1.3 8.1-4.1.7-2.5 1.8-4.8 2.5-5.1 1.9-.7 1.8-3.3-.1-3.3-.8 0-2.8 1.8-4.3 4Z"/>
  <path fill="#000" d="M515.46 752.92c-2.9 8-3.5 9.9-3.2 10.2.7.8 4.7-8.6 4.4-10.3-.5-1.8-.5-1.8-1.2.1Z"/>
  <path fill="#FFF" d="M536.86 757.32c-2.3 4.6-2.6 4.7-7.7 2.6-4.1-1.7-7.3-1.9-7.3-.5 0 .5 1.6 2.4 3.5 4.1l3.4 3.1-1.9 3.9c-2.8 5.4-2.6 5.9 2.3 5.3 3.9-.4 4.3-.3 6.2 2.8 2.8 4.5 4.8 4.3 5.2-.6.3-4.8.8-5.4 5.7-5.8 5.1-.4 5.7-2.3 1.2-4.2-3.6-1.5-4.1-2.7-4.8-11.1-.4-4.6-3.3-4.4-5.8.4Z"/>
  <path fill="#000" d="M410.86 348.72c0 .2-.2 5.6-.5 12-.5 12 .5 17.8 2.6 14.6.9-1.4 1.1-21.7.2-25.2-.3-1.3-2.3-2.6-2.3-1.4Z"/>
  <path fill="#000" d="M383.56 351.02c-.4.4-.7 3.3-.7 6.4 0 11.9-3.5 31.3-8.5 46.7-1 3 1.3 1 3.4-3 4.3-8 8.9-28.8 9-40.7 0-4.8-1.9-10.6-3.2-9.4Z"/>
  <path fill="#000" d="M399.46 351.62c-.9 2.9-1.4 16.8-.6 16.3 1.7-1 3.4-17.5 1.9-17.5-.5 0-1.1.6-1.3 1.2Z"/>
  <path fill="#000" d="M404.26 351.02c-.7.3-.9 2.6-.6 6 .5 6.5-1.5 22.4-3.4 27.3-.8 1.8-1.4 4-1.4 4.8 0 .8-1.5 4.8-3.4 8.9-4.4 9.5-2.8 9.7 2 .2 6.6-13.2 8.1-19.2 9.1-37.1.5-10.2.3-11.2-2.3-10.1Z"/>
  <path fill="#000" d="M410.26 381.12c-.4 1.6-.7 3.9-.6 5.3 0 2.6-.8 6.3-3.5 16-2.3 8.1-4 12.2-10.7 26-7.6 15.6-7.4 15-4.2 12.1 2.4-2.3 10.6-17.9 10.6-20.4 0-.6 1.8-4.7 3.9-9.2 3.9-7.9 7.1-21 7.1-28.8 0-4.3-1.5-4.9-2.6-1Z"/>
  <path fill="#000" d="M239.86 401.12c-1.1 1.5-1.9 3.1-1.7 3.7.2.6 2.5 7.7 5.2 15.7 4.1 12.7 5.1 14.8 7.7 16.4 3.2 1.8 4.8 1.6 2.3-.5-3.1-2.6-1.8-4.1 3.3-3.6 5.1.4 5.6 1.6 2.6 6.3-1.3 2-1.1 2.4 2.9 5.5 2.3 1.8 8.5 7.4 13.7 12.4 11.2 10.7 15.7 14.4 17.3 14.4.7 0-2.6-3.6-7.3-7.9l-8.4-7.9 2.1-4.4c2.2-4.4 2.9-6.7 3.7-12.8.3-1.9.9-3.6 1.4-3.8 4-1.3 4.5-2.8 3.7-10.6-.6-6.4-1-7.7-2.3-7.4-2 .4-2 2.9-.1 7.6 1.7 4.2.5 6.3-4.6 8-3.2 1-4.5 1-7.9-.2-5.3-1.8-10.6-3.2-18.3-4.7-5.8-1.2-6.2-1.5-6.8-4.6-.3-1.8-1.9-5.8-3.5-8.9-3.4-6.3-3.9-9.9-2.1-13.2 1.6-3.1-.3-2.8-2.9.5Zm28.8 32.6c.4 1.9-2.7 8.7-3.9 8.7-1.3 0-1.1-6.7.3-9 1.5-2.3 3.1-2.1 3.6.3Zm6.2 1.9c0 2 .1 2 1.9.4 2.8-2.6 4.4-1.1 3.7 3.3-.9 4.9-3.6 10.9-5.2 11.5-2.1.8-2.6-2.8-.9-6.7 1.7-4.2.3-5.1-1.7-1s-4.1 4.2-3.5.1c.9-6.6 5.7-13.1 5.7-7.6Z"/>
  <path fill="#000" d="M358.36 411.12c-1.5 2.7-3.9 7-5.5 9.8-1.6 2.7-3 5.3-3 5.7 0 2.1 2.2.3 5.6-4.5 6.6-9.2 8.3-10.7 11.1-9.6 2.5.9 4.3.5 4.3-1.1 0-.7-8.2-5-9.6-5-.2 0-1.5 2.1-2.9 4.7Z"/>
  <path fill="#000" d="M346.36 430.52c-1.1 1.7.1 2.1 1.5.4.8-.9.8-1.5.2-1.5-.6 0-1.4.5-1.7 1.1Z"/>
  <path fill="#000" d="M373.76 449.62c-5.2 3.8-10.2 7.4-11.2 8-1 .5-1.6 1.2-1.3 1.5.9.9 6.8-1.9 11.6-5.5 2.5-1.8 6.6-4.9 9.3-6.9 2.6-1.9 4.7-3.6 4.7-3.7 0-.1-.9-.2-1.9-.3-1-.1-6.1 3-11.2 6.9Z"/>
  <path fill="#000" d="M302.86 459.22c0 1.3 7.3 3.1 13.5 3.4 10 .4 18.7-.2 18.3-1.3-.2-.6-5.6-1.1-14.3-1.4-7.7-.1-14.8-.6-15.7-1-1-.4-1.8-.3-1.8.3Z"/>
  <path fill="#000" d="M349.96 462.12c-3.4.5-8.6 3.2-7.7 4 .6.6 14.6-3.5 14.6-4.2 0-.5-1.1-.5-6.9.2Z"/>
  <path fill="#000" d="M296.06 471.12c-1.7.7-.5 2.3 1.9 2.3 1 0 1.9-.7 1.9-1.5 0-1.5-1.4-1.8-3.8-.8Z"/>
  <path fill="#000" d="M333.86 483.92c-3 .7-8.9 1.4-13 1.4-5.2.1-7.1.4-6.3 1.2 1.8 1.8 12.1 2.2 20.9.9 7-1.1 8.4-1.6 8.4-3.2 0-2.1-1.8-2.2-10-.3Z"/>
  <path fill="#FFF" d="M492.96 484.72c-.6.8-1 3-.9 4.8l.3 3.4h-5.9c-6.8 0-8.5 1.7-3.2 3.5 4.9 1.6 5.8 3 4.5 6.9-1.9 5.5 2.3 6.8 5.1 1.5 1.7-3.1 3.5-3 7.7.2 5.2 4 7.2.9 3.3-5.1-2.6-3.9-2.5-4.9.6-6.4 4.5-2 1.8-4.5-2.8-2.6-1.3.5-2.1-.2-3.5-3.1-2-4.3-3.5-5.1-5.2-3.1Z"/>
  <path fill="#000" d="M313.86 491.22c0 1.7 11.1 3 20.8 2.5 5.1-.3 9-.9 8.6-1.2-.3-.3-5.6-.6-11.7-.7-6.2 0-12.7-.4-14.4-.8-2-.5-3.3-.4-3.3.2Z"/>
  <path fill="#000" d="M314.86 498.62c0 1.8 10.7 3.8 17 3.2l8.5-.7c1.1-.1 2-.8 2-1.5 0-.9-3.5-1.3-13.8-1.5-7.5-.1-13.7.1-13.7.5Z"/>
  <path fill="#000" d="M314.86 504.52c0 1.9 18.5 4.6 24.5 3.5 6-1.2 3.6-3.1-4.1-3.3-3.8-.1-9.9-.3-13.6-.5-3.8-.2-6.8-.1-6.8.3Z"/>
  <path fill="#FFF" d="M511.66 510.72c-1.7 1.6-8.8 2.2-8.8.8 0-.6-.7-1.1-1.5-1.1-.9 0-1.5 1-1.5 2.6 0 2.1-.8 2.9-5 4.7-2.7 1.1-5 2.5-5 2.9 0 .4 2 .8 4.4.8 5.1 0 5.5.4 6.5 6.8.9 6.7 3.6 7 4.8.5.8-4.7.9-4.8 4.5-4.8 4.6 0 5.3-.7 2.8-3-2.7-2.4-2.5-3.9.5-5.9 2.7-1.8 3.4-5.6 1.1-5.6-.8 0-2.1.6-2.8 1.3Z"/>
  <path fill="#000" d="M312.36 513.32c-.7 1.3 0 1.6 6.3 3.1 3.2.7 8.2 1 12.5.6 4-.3 7.8-.6 8.5-.6.6 0 1.2-.5 1.2-1 0-.7-4.1-1-11.2-.8-7.3.1-12.1-.2-13.5-1-2.6-1.4-3-1.5-3.8-.3Z"/>
  <path fill="#000" d="M464.36 583.42c.3.5 1.1 1 1.6 1 .6 0 .7-.5.4-1-.3-.6-1.1-1-1.6-1-.6 0-.7.4-.4 1Z"/>
  <path fill="#000" d="M292.26 642.62c-.4.6.1 1.7 1 2.3.9.7 4.4 3.8 7.7 7 5.8 5.4 8.6 6.7 5.8 2.7-3-4.1-11.6-13.2-12.7-13.2-.6 0-1.4.5-1.8 1.2Z"/>
  <path fill="#000" d="M318.86 657.02c0 .9.5 1.4 1.2 1.2 1.8-.6 2.1-2.8.4-2.8-.9 0-1.6.7-1.6 1.6Z"/>
  <path fill="#FFF" d="M279.86 666.82c-3.4 5-4.3 5.3-9.7 3.1-4.4-1.9-6.3-1.3-6.3 1.7 0 1.5 1.1 2.9 3 4 3.8 2.2 3.8 4.3-.2 7.9-4.2 4-2.8 5.4 4.1 4.1 2.8-.5 5.3-.7 5.5-.3.2.3.7 2.3 1.1 4.4.7 3.4 1 3.8 3.4 3.5 2.4-.3 2.6-.6 2.3-4.8-.2-2.6-1-5-1.9-5.7-1.5-1.1-1.5-1.3.1-1.9.9-.3 4-.9 6.9-1.3 6.6-.8 6.9-2.8.9-5.6l-4.4-2 .6-4.6c.5-3.4.2-4.9-.8-5.8-1.2-1-2-.4-4.6 3.3Z"/>
  <path fill="#FFF" d="M262.56 692.12c-.2.4-.7 2-1.1 3.5-.8 3.4-2 3.5-8 .3l-4.7-2.5-.8 2.3c-.7 1.8-.3 2.9 2.5 5.7 4.1 4.3 4.1 5 .9 8-1.4 1.3-2.5 2.9-2.5 3.7 0 1.8 3.6 1.6 6.6-.3 2.4-1.6 2.6-1.6 5.9 1.6 2.2 2.1 3.9 3 5 2.6 1.5-.5 1.4-.9-.4-3.5-1.2-1.6-2.1-3.4-2.1-3.9 0-1.4 2.5-2.2 6.9-2.2 8.7 0 4.7-5-4.4-5.5-.5 0-1-2.2-1-4.9 0-4.4-1.5-7.1-2.8-4.9Z"/>
  <path fill="#000" d="M226.06 703.62c.6 1.8 2.8 2.1 2.8.4 0-.9-.7-1.6-1.6-1.6-.9 0-1.4.5-1.2 1.2Z"/>
  <path fill="#000" d="M236.86 713.72c0 1.4 11.3 10.7 13 10.7 1.9 0 1-4.2-1.2-6.1-1.3-1-2.7-1.8-3.1-1.9-.5 0-2-.9-3.4-2-3-2.3-5.3-2.6-5.3-.7Z"/>
  <path fill="#000" d="M235.86 722.92c0 .3 1.5 2 3.4 3.9 3.6 3.5 9.2 6.3 10.3 5.2.3-.3.4-.7.2-.9-.2-.1-2.7-2.1-5.6-4.5-4.5-3.6-8.3-5.3-8.3-3.7Z"/>
  <path fill="#FFF" d="M253.46 730.22c-.3.4.2 1.9.9 3.3 2.2 3.8 3.6 7.1 3.2 7.6-.3.2-2.4 1.4-4.8 2.6-6.4 3.2-6.3 5.3.3 5.2h5.3l1.3 4c2.3 7.1 2.1 6.9 3.7 5.5.8-.7 1.5-2.2 1.5-3.4 0-1.2.6-3 1.3-3.9 1-1.4 1.8-1.5 5-.6 5.2 1.4 5.9.3 2-3-3.9-3.3-4.2-5.9-.8-9.1 2.8-2.6 3.1-4.2 1.2-5.9-1.1-.8-1.8-.6-3.3 1-3.7 4.1-4.8 4.1-9.5-.1-4.3-3.9-6.3-4.8-7.3-3.2Z"/>
</svg>