<svg xmlns="http://www.w3.org/2000/svg" viewBox="0 0 918 480">
    <path fill="#000" d="M440.3 4.2c-2.6 2.4-5.8 5.5-7 7-1.3 1.4-6.7 5.8-12.1 9.6-5.3 3.9-10.5 8-11.4 9.1-1 1.2-2.5 2.1-3.3 2.1-1.5 0-9.7 4.2-17 8.6-6.2 3.8-16.2 8.4-18.4 8.4-1 0-6.3 1.6-11.8 3.6-5.4 1.9-11.8 4.2-14.3 4.9-4.1 1.3-16.1 5.6-23.4 8.4-4.3 1.7-6 .7-5.2-3 .8-4.3-1.7-4.9-5.5-1.3-3.4 3.3-3.6 2.3-.9-4.1 1.1-2.6 2-6 2-7.6 0-1.6.7-4.7 1.6-6.9 1.5-3.7 1.5-4.5-.1-10.9-1.9-7.7-4.7-13.1-7-13.1-1.1 0-1.4-.6-1-2.3.5-1.7-.1-3.3-1.8-5.3-1.3-1.6-2.9-3.9-3.6-5.2C299.3 4.7 298 4 296 4c-2.6 0-3 .4-3 2.7 0 1.5-.6 4.5-1.4 6.8-.7 2.2-2.4 7.2-3.6 11.2-1.7 5.6-3.5 8.8-8.2 14.5-7 8.4-15 16.7-16 16.8-.5 0-6.3 3.6-13 8-6.8 4.4-15.2 9.5-18.8 11.2-3.6 1.8-7.8 4.1-9.5 5.3-6.5 4.4-20.1 11.5-22 11.5-.7 0-3.6 1.7-6.6 3.8-3 2.1-9.6 5.5-14.8 7.7-6 2.6-11.2 5.6-14.5 8.6-2.8 2.5-6.5 5.5-8.3 6.7-3.3 2.3-6.3 8.9-7.7 16.7-1 5.1-7.8 17.9-13.6 25.5-5.4 7-14.7 15-21.5 18.4-7.4 3.7-22.2 7.2-25.9 6.2-1.1-.4-6.8-.9-12.6-1.2-7-.4-11-1-12.1-2-.8-.8-2.5-1.4-3.7-1.4-1.9 0-17.5-7.6-20.6-10-5.9-4.8-9-7.8-10.3-10.4-.9-1.7-2.9-4.7-4.4-6.6-1.6-1.9-3.6-6-4.5-9-.9-3-2-6.4-2.6-7.6-.5-1.1-1.1-3.7-1.2-5.7-.4-4.7-.8-5-4.4-4.2-2.4.5-3.5 1.8-6 6.9-3.9 8.1-5.6 14.5-4.9 19.3 2.6 19.6 6.7 33.7 11.9 41.2 1.8 2.6 4.2 6.4 5.2 8.4 1.1 2.1 3 4.9 4.2 6.2 1.3 1.4 3.4 3.9 4.8 5.7 1.4 1.8 5.3 6.3 8.8 9.9 3.5 3.7 7.5 8 8.9 9.5 1.4 1.6 6.7 6.9 11.8 11.9 9.8 9.5 11.4 11.8 12.5 17.7.8 4.3 7.9 12.1 14.9 16.5 2.3 1.4 4.4 2.9 4.7 3.2.3.4 3.8 2.9 7.9 5.6 4.1 2.8 8.7 6.7 10.4 8.7 3.2 4 6.2 5.7 17.7 9.9 4.1 1.5 9.1 3.3 11 4 1.9.8 5.8 2.8 8.6 4.6 2.8 1.8 5.4 3.3 5.8 3.3.3 0 2.4 1.1 4.5 2.5 2.7 1.6 7.1 2.9 13.8 4 5.4.8 11.2 2 13 2.6 2.2.7 8.2.6 19.5-.1 9-.7 22.2-1.1 29.3-1 7.2 0 20.4-.7 29.5-1.6 9.1-1 18-1.7 19.8-1.6 1.8.1 4.3-.3 5.5-1 1.2-.6 3.8-1.5 5.7-1.9 7.7-1.5 23.6-6.1 30.8-8.8 12.2-4.6 26.3-8.9 31.3-9.6 3.6-.5 6.6-.1 14 2.3 5.2 1.6 12.6 3.7 16.4 4.5 3.9.9 11.2 2.6 16.4 3.7 5.2 1.2 11.2 3 13.3 4.1 3.7 1.9 19.2 7.5 23.6 8.6 1.2.3 2.9 0 3.6-.6 2.4-2 3.6-10 2.6-16.9-.6-3.4-1.4-8.8-1.9-12-.5-3.2-1.9-8-3-10.5-4.8-10.5-4.8-10.3 2.6-12.7 6.6-2 41.8-1.9 51.3.2 4.1.9 10.2 2 13.5 2.4 9.2 1.1 9.4 1.1 19 2.8 9.9 1.7 27.7 6.8 32.2 9.1 1.5.8 3.5 1.5 4.3 1.5.9 0 2.4.6 3.5 1.4 1.1.7 4.6 2.3 7.7 3.4 3.2 1.2 6.6 2.6 7.5 3.1 1 .5 4 2 6.7 3.2 2.7 1.2 7.4 3.7 10.4 5.6 3.1 1.8 6.4 3.3 7.3 3.3 1 0 2.7 1.6 3.9 3.5 1.2 1.9 2.8 3.5 3.6 3.5 1.4 0 18.7 14.9 21.2 18.2 1.4 2 5.2 2.4 5.2.7 0-.6-2-3.4-4.5-6.1-2.5-2.8-4.5-5.6-4.5-6.3 0-.8-1-1.7-2.2-2.1-2.7-.8-12.8-8.1-12.8-9.2 0-.4-1.4-1.3-3.2-2.1-1.7-.8-5.9-3.2-9.2-5.4-5.9-4-26.4-13.7-28.8-13.7-.6 0-1.9-.6-2.7-1.3-2.8-2.3-32.2-12.7-36-12.7-1.2 0-2-.4-1.7-.9.8-1.2 8.1-.3 12.5 1.5 1.8.8 5 1.4 7 1.4s4.2.5 4.8 1.1c.7.7 3.3 1.9 6 2.9 13.9 5.1 29 12.1 38.6 18 2.7 1.7 5.3 2.8 5.8 2.4 1.5-.9 7.1 3.2 18.9 13.5 9.2 8 14 10.9 14 8.3 0-1.1-6.4-10.2-9.7-13.8-6.6-7.3-18.1-16.1-28.5-22-8.4-4.7-10.8-6.5-9.5-7 2.6-1 15.5 4.2 22.1 9 6.6 4.9 19.1 17.6 22.8 23.3 4.1 6.3 6.1 7.6 7.2 4.7 1-2.7.7-3.4-2.4-5.3-1.7-1-5.5-4.7-8.5-8.2-5-5.7-5.4-6.4-4-7.8 1.4-1.5 1.8-1.4 3.6.9 1.1 1.4 3.4 4.9 5 7.7 2 3.5 3.8 5.3 5 5.3 2.3 0 2.5-2.3.4-4-.8-.7-1.5-1.7-1.5-2.2 0-.6-1.3-3-3-5.5-4.4-6.5-3.6-7.5 1.5-1.8 4.1 4.6 4.6 4.9 5.8 3.3 1.7-2.2 2.6-2.2 9.6-.2 3.1.8 8.1 2.2 11.1 3.1 3 .8 9.6 3.4 14.5 5.8 5 2.4 10.1 4.6 11.5 5 4.5 1.3 14.4 7.3 17.5 10.5 1.7 1.8 4.8 4.5 7.1 6 2.2 1.6 5.6 4.4 7.6 6.2 12.3 11.7 24.9 24.3 30.6 30.8 3.7 4.1 8.2 8.8 10 10.4 1.8 1.6 4.2 4.6 5.3 6.7 1 2.1 3 4.8 4.2 6.1 1.3 1.3 3 3.9 3.7 5.8 2.2 5.9 11.6 21.3 15.7 25.7 2.1 2.2 5.4 6.1 7.3 8.5 1.9 2.3 7.9 8.9 13.4 14.4 5.4 5.6 10.4 11 10.9 12 .6 1.1 1.4 2.1 1.7 2.4.4.3 2.6 4.4 4.8 9.2 2.3 4.9 4.6 8.8 5.2 8.8 3.2 0 6.9-7.7 7-14.5.1-1.7.6-5.9 1.3-9.5 1-5.2 1-7.9 0-13.5-.6-3.9-1.7-9.9-2.3-13.5-.6-3.6-2-10.3-3.1-15-3.4-14-2.5-38.2 1.7-43 .7-.8 1.5-2.7 1.9-4.2.8-3 18.4-20.1 37-35.9 14.7-12.4 23-22.2 28.4-33.5 2.3-4.7 4.1-9.1 4.1-9.8 0-.8 1.1-4.7 2.5-8.9 2.2-6.7 2.4-8.9 2.1-19.5-.4-11.1-.7-12.7-3.8-19.9-3.6-8.3-11.4-18.9-16.1-21.7-2.5-1.6-2.8-1.6-3.4-.1-.3 1 .4 3.7 1.5 6.1 4.4 9 3.9 25.9-.9 35.6-4.5 9-13 19.3-20.2 24.5-2.9 2.1-5.8 4.4-6.6 5.1-3.3 3.2-17.9 9.4-27.5 11.7-18.4 4.3-31 1.6-59.5-13.1-8-4.1-15-8-15.6-8.7-.5-.7-5.4-4.8-10.7-9-5.3-4.2-9.9-8.1-10.2-8.6-.7-1.1-14.2-11.6-19.8-15.3-4.1-2.7-9.8-8.5-9.8-9.9 0-.4.5-1.1 1-1.4.6-.3 1-1.3 1-2.1 0-1-1.2-1.4-4.3-1.4-3.2 0-5.3-.8-8.5-3.1-2.3-1.7-4.2-3.1-4.2-3.2 0-.1 6.5-.2 14.5-.2 10.2-.1 14.8-.4 15.7-1.3 2.3-2.3-1.1-3.4-7.7-2.5-8.8 1.1-21.4.5-23.9-1.3-1.1-.8-2.8-1.4-3.7-1.4-1.9 0-4.5-2.7-3.5-3.7.3-.3 2.4-.1 4.7.6 8.7 2.6 21.2 4 28.2 3.1 3.8-.4 7.1-1.1 7.4-1.4 1.6-1.5-1.8-2-14.5-2.2-12.4-.2-14.6-.5-23-3.3-5.2-1.7-9.8-2.9-10.2-2.6-1 .6-6-1.5-6-2.5 0-1.7 1.7-1.5 9.4 1.1 16.1 5.6 35.4 6.2 45.1 1.4 5.8-2.8 6.8-4.3 3.5-5.2-1.1-.3-2-.9-2-1.4 0-1 6.6-2.9 10.3-2.9 2.2 0 2.7-.4 2.7-2.5 0-2.9-1.9-3.2-11.1-1.6-22.1 3.9-47.8.3-66.2-9.1-8.6-4.5-8.8-6.8-.2-2.9 2.2 1 5.2 2.1 6.7 2.4 1.5.4 4 1.2 5.5 1.9 7.2 3 26.6 5 42.8 4.3 18.9-.8 22.8-1.9 23.8-7.1.6-3.4-1.4-4.1-6.1-2-5.6 2.4-27.3 4-36.3 2.6-4.1-.6-10.9-1.5-15.2-2.1-4.4-.5-8.7-1.4-9.7-1.9-.9-.5-3.9-1.4-6.6-2-2.7-.6-5.1-1.4-5.4-1.8-.3-.4-3-2-6-3.6s-7.3-4.2-9.4-5.8c-2.2-1.5-4.3-2.8-4.8-2.8-.4 0-4-2.2-8-4.9-7.7-5.1-18.3-11.2-33.3-19.2-4.9-2.6-13.5-7.3-19-10.4-14.2-8.1-14.6-8.2-19.2-9.5-5.4-1.4-5.6-3-.4-3 4.2 0 16.7-5 21.7-8.6 3.5-2.5 5.1-6.8 3.4-8.9-.8-1-.4-1.8 2-3.5 1.7-1.2 3.7-3.8 4.5-5.7 3-7 1.6-7-7.3 0-13.3 10.6-22.7 14.5-38.2 16.2-8.1.8-22.8-2.3-21.4-4.6.3-.5 5.8-.9 12.3-.9 11.3 0 12.2-.2 24.4-4.4 7.3-2.6 15.7-6.4 19.9-9 4-2.6 8.8-5.4 10.6-6.3 3.6-1.9 4.3-4.3 1.2-4.3-3.1 0-2.5-3.3 1.1-5.9 2.6-1.9 3-2.8 2.4-5-.4-1.4-.6-4.5-.5-6.8 0-2.3-.4-4.4-1-4.8-.5-.3-3.6 1.4-6.7 3.8-7 5.3-17.3 11-22.8 12.7-2.2.6-4.9 1.5-6 2-1.1.5-6.3 1.6-11.5 2.5-7.7 1.4-13.2 1.6-29.5 1.1-11-.4-22-1.1-24.5-1.6-7.7-1.5-54.9-7-60.8-7h-3.3l2-2.6c2.2-2.8 2.7-4.9 1.2-5.8-.5-.3-3.5.8-6.6 2.4-6.4 3.3-10.6 4.1-6.7 1.2C443.5 52.3 450 46.4 450 44.1c0-1 .9-4.4 2-7.5 1.5-4.5 1.7-6.3.9-7.8-.8-1.5-.8-3.1.1-5.7 1-3 .8-4.7-.8-10.6-4.1-14.4-4.7-14.8-11.9-8.3Zm5.2 6c-.4 1.3-1.1 2.7-1.6 3.2-.5.6-.9 2-.9 3.2 0 2.4-9 11.2-17 16.7-2.5 1.7-6.5 4.9-9 7.2-5.7 5.2-11.9 8.8-19 11.1-3 .9-6.4 2.5-7.6 3.5-1.1 1.1-2.7 1.9-3.5 1.9-.8 0-4.2.9-7.5 2-6.1 2-31.2 5.6-32.2 4.6-1.1-1.2 1.1-2 15.5-5.6 20.5-5.2 31.7-9.8 44.8-18.6 3.6-2.4 6.8-4.4 7-4.4 1.1 0 12.3-8.1 16-11.7 2.3-2.1 6-6.4 8.4-9.6 4.5-5.9 7.8-7.7 6.6-3.5Zm2 7.7c-2.1 4.3-2.9 3.9-.8-.4.9-1.9 1.8-3.3 2.1-3.1.2.2-.4 1.8-1.3 3.5ZM301 23.4c0 2.9-3.8 12.4-6 15.1-.9 1.1-3.1 4.2-4.8 7-4.4 6.8-7.7 10.5-14.7 16.3-11.9 9.7-34.9 20.8-33.3 16 .2-.6 3.1-2.5 6.4-4.2 23.6-12.4 39-27.8 48.6-48.9 1.9-4.2 3.8-4.9 3.8-1.3Zm144 2.2c0 3.1-22.1 25.7-29.1 29.7-9 5.3-26.3 9.8-36.7 9.7l-2.7-.1 2.5-1.4c1.4-.8 3.3-1.4 4.4-1.5 2.1 0 22.3-7.3 27-9.7 4.1-2.1 16.3-12.7 25.6-22.2 4.1-4.2 7.8-7.5 8.3-7.3.4.2.7 1.4.7 2.8Zm1 14c-3.2 6.9-13.9 17-21.7 20.5C418 62.9 409 65 409 63.6c0-.3 1.6-1.3 3.6-2.1 5.3-2.2 23.2-15.2 24.5-17.8.6-1.2 3.2-5.1 5.8-8.7l4.6-6.5.3 3.3c.2 2-.6 5.3-1.8 7.8Zm-140.4-6.7c.1 2.2-14.9 26.1-16.4 26.1-.4 0-3.6 2.7-7.2 6-4.6 4.3-7.3 6-9.2 6-4 0-3.5-1.4 2-5.7 2.6-2.1 6.2-5.2 8.1-6.8C286.7 55.1 303 32.8 303 31c0-2.2 2.5-.3 2.6 1.9Zm1.9 12.3c-.4 1.8-2.5 6.6-4.8 10.7-4.3 7.5-10.2 13.1-13.9 13.1-1.7 0-1.7-.2-.4-2.8.8-1.5 3.3-4.7 5.5-7.2 2.3-2.5 6-7.3 8.3-10.8 4.5-6.9 6.3-7.9 5.3-3ZM599 67.9c0 3.3-19.8 15.1-25.3 15.1-1.4 0-3.8.5-5.4 1.1-4.7 1.8-26.3 4.9-34.3 4.8-8.6 0-31.5-4-33.3-5.8-.9-.9 3.1-1.1 18.3-.9 38.5.6 55.7-2.4 71.9-12.4 4.5-2.8 8.1-3.6 8.1-1.9ZM410.8 75c9.7 4.6 18.4 10.3 26.7 17.4 7.5 6.4 23.1 22.6 26.4 27.5 1.4 2 3.9 5.4 5.6 7.6 1.6 2.3 4.6 7.6 6.5 11.8 2 4.4 4.3 7.9 5.3 8.3 3.8 1.2 3.5-.4-1.6-8.7-12.1-19.8-37.5-49.2-47.9-55.4-5-3-14.8-10.1-14.8-10.8 0-3.2 27.8 15.2 36.9 24.4 7.8 7.9 22.4 24.5 23 26.1.2.6 1.9 3.1 3.7 5.5 1.8 2.3 3.6 5.3 4 6.5.4 1.3 2.2 4.5 4 7.3 1.9 2.7 3.4 5.5 3.4 6.2 0 1.7 3.7 3.6 4.5 2.3 1.4-2.2-19.1-33.8-29.4-45.5-2-2.3-22.5-21-23.5-21.5-2.5-1.2-11.6-8.5-10.8-8.8 1.5-.5 9.6 3.6 15.2 7.7 12.8 9.4 14.7 10.8 19.5 15.7 5.9 6 15.1 17 19.7 23.7 8 11.7 15.1 23.8 16.3 27.7 1.1 3.7 2.5 5 5.1 5 3 0 3.2-2.7.6-6.1-1-1.3-3.4-5.1-5.2-8.4-1.8-3.3-4.7-7.6-6.4-9.6-1.7-2-7.9-9.8-13.8-17.5-14.2-18.5-22.2-26.4-32.3-32.1-3.2-1.8-5.2-4.3-3.4-4.3 1.3 0 2.3.6 14.3 8.6 9.8 6.5 21.8 17.7 28.1 26.3 3.3 4.5 7.5 10.2 9.3 12.6 3.8 5.2 14.7 24.6 16.4 29.2 1.1 3.1 4.2 5.2 5.6 3.8.8-.7-3-8.4-10.5-21-9.1-15.6-16.6-26.2-23.5-33.6-5.9-6.3-19.4-18.1-22.7-19.8-2.8-1.6-2.7-3.1.3-3.1 5.9 0 40.1 32.9 48.4 46.5 6.6 10.7 12 21.2 13.7 26.5 2.9 8.8 2.8 8.7 3.2 6.2.3-1.2-.3-4.6-1.3-7.5-1.9-5.6-11.5-24-14.3-27.2-1-1.1-3.8-5.2-6.4-9.1-2.5-4-5.7-8.1-7.1-9.2-1.5-1.1-2.6-2.3-2.6-2.7 0-.4-2.3-2.8-5.2-5.3-13.2-11.9-13.8-12.7-8-11.6 2.2.4 5.9 3.3 11.5 8.8 7.4 7.3 17.7 19.5 17.7 21 0 .4 2.3 3.7 5 7.5 2.8 3.8 5.6 8.2 6.3 9.7.7 1.6 3 6.3 5.2 10.4 4.9 9.4 6.5 13.6 6.5 17.6 0 3.4 2.7 5.5 3.7 2.8 1.1-2.8-2-10.9-10.2-26.9-11.2-21.9-15.2-28.9-17.5-31-1.1-1-2-2.4-2-3.2 0-2.5 2-1.3 4.4 2.6 1.4 2.2 3 4.2 3.5 4.6 1.6.9 15.5 22.4 17.9 27.5 6.9 15 8.4 19.1 9 24.3.6 4.9 1.1 6.1 3.4 7.5 1.5.9 3 1.3 3.3 1 .7-.7-3-13.9-5-17.8-3.9-7.7-8.5-17.8-8.5-18.7 0-.6-1.6-3.4-3.5-6.2-1.9-2.8-3.5-5.3-3.5-5.6 0-.3-1.6-3.1-3.5-6.1-1.9-3-3.5-5.7-3.5-6 0-.3-1.1-1.5-2.5-2.6-2.6-2.1-3.3-3.8-1.4-3.8 3.5 0 16.5 16 24.4 30 2.7 4.7 5.9 10.1 7.2 12.1 2.9 4.4 6.8 16.5 7.9 24.4.8 5.3 1.2 6 3.3 6.3 2.3.4 2.4.2 1.8-5-1.2-10.8-12.6-35.2-22.3-47.3-.9-1.1-2.3-3.5-3.2-5.3-.9-1.7-1.9-3.2-2.4-3.2-.4 0-.8-.5-.8-1 0-2.1 3-.9 5.9 2.2 4.3 4.8 16.2 21 17.1 23.3.4 1.1 2.8 6.3 5.3 11.5 4.6 9.7 8.3 22.1 7.3 24.6-.6 1.6 1.9 4.4 4 4.4.8 0 1.7-.7 2-1.5.8-1.9-5.1-19.8-8.3-25.4-1.4-2.4-4.1-7.5-5.9-11.3-3.5-7-7.7-13.3-13.5-20.1-1.7-2.1-2.9-4-2.5-4.4 1.7-1.7 6.1 2.7 13.8 13.9 8.9 13 16.5 28 21.8 43.5 2.9 8.4 5.3 12.4 6.5 11.1.5-.5-5.6-18.2-8.6-24.6-1-2.3-2.9-6.3-4-9-1.2-2.6-3.7-7.9-5.5-11.8-3.7-7.6-3.9-8.4-2.4-8.4 3.5 0 19.6 30.8 25.1 48 2.3 7 3.3 8.9 5.2 9 1.6 0 .5-4-3.9-15-5.5-13.8-9.9-23.1-13.6-28.6-1.6-2.3-2.8-4.5-2.8-4.9 0-.5-1.6-2.7-3.5-5.1-4.1-5-4.6-6.9-1.2-5.3 1.9 1 8.4 8.3 11.2 12.8.6.9 2.1 3 3.5 4.6 1.4 1.7 6.3 10.5 10.8 19.6 6.4 13 8.3 17.9 8.9 22.9 1 8.2 3.3 9.4 3.3 1.8 0-4.7-.9-7.3-7-19.3-3.8-7.7-9-17.7-11.5-22.3-2.5-4.5-4.1-8.2-3.6-8.2 1.2 0 12.1 12.2 14.1 15.8.8 1.5 3.7 6.1 6.3 10.3 5.8 9.4 13.7 28.5 13.7 33.5 0 2.4 3.1 6.4 5 6.4.7 0 1-.6.7-1.4-.3-.8-1.1-3.4-1.8-5.7-.7-2.4-2-5.3-2.9-6.4-1-1.1-2-3.8-2.3-6-.7-5.7-9.7-23.9-16.2-32.8-3-4.1-5.5-8-5.5-8.6 0-3.4 5.1 1.3 12.5 11.4 3.2 4.4 7 9.2 8.4 10.7 1.4 1.6 2.1 2.8 1.7 2.8-.5 0-.4.6.2 1.2 2.6 3.3 14.8 34.9 16.1 41.8.4 2.1 1.2 3.5 2.1 3.5 2.5 0 1.4-8.7-2.7-20.4-2-5.8-4.1-11.3-4.8-12.1-.6-.8-2.2-3.9-3.4-6.9-1.3-3-4.3-8.5-6.8-12.3-4.5-6.6-5.4-10-1.7-5.9 11.7 12.5 20.1 27.1 25.3 43.7 2.3 7.2 4.1 15 4.1 17.2 0 3.1.5 4.5 2.2 5.6 3.9 2.8 4.3.3 1.4-10.1-3.5-12.5-7.5-24.1-9.5-27.5-12.3-20.6-12.4-20.8-9.2-20.8 2.3 0 3.2 1.1 7.4 9.1 1.9 3.5 5.2 9.8 7.5 13.9 2.2 4.1 5.2 10.9 6.6 15.2 1.3 4.2 3.2 9.1 4.2 11 .9 1.8 2 6.6 2.4 10.6.6 5.5 1.3 7.9 2.8 9.5 1.2 1.1 2.5 1.8 2.9 1.4 1.1-1.2-1.7-15.9-3.6-18.7-1-1.4-3.9-7.9-6.6-14.5-2.6-6.6-5.7-13.9-6.8-16.3-1.1-2.3-1.7-4.5-1.5-4.8.3-.2 2.3 1.5 4.4 3.9 6.7 7.4 8.4 9.7 8.4 11.1 0 1.6 5.8 14.5 7.4 16.5.6.8 1.2 2.4 1.3 3.5.1 1.2 1.2 4.8 2.4 8.1 1.3 3.3 2.5 9.1 2.8 12.9.4 4.2 1.1 7.1 1.8 7.4 2.6.8-.4-19.5-4-27.9-.9-2-1.4-3.9-1.1-4.2.3-.3-.8-3-2.6-6.1-1.7-3.1-2.7-5.6-2.2-5.6 1.7 0 10.7 10.3 9.4 10.8-1.9.6-1.4 4.8.8 6.3 2.9 2 5.9 13.4 6.6 24.9.7 12.2 1.1 14 3 14 1.1 0 1.4-.5.9-1.8-.4-.9-.8-5.3-1-9.7-.3-8-2.1-17.8-4.9-26.8-2.6-8.1 1.6-5 5.8 4.3 2.3 5.1 5.2 16.9 7.7 31.5 1.1 6.3 3.7 12.5 5.3 12.5 1.4 0 0-9.8-2.7-18.5-6.7-21.2-7.9-25.6-7.4-26.1 1.2-1.2 4.8 2.3 6.1 6.1.8 2.2 2.8 7.1 4.4 11 3.1 7.4 6.7 21.4 8 30.4.4 3 1.3 5.6 2 5.9 1 .3 1.2-.8.6-5-.8-7.3-4-20.8-7-29.7-1.4-4-2.3-7.8-2.1-8.4.8-2.5 7.6 8.2 9.6 15.3 4.8 16.4 5.3 18.8 5.6 25.9.2 4.8.8 7.8 1.8 8.8 2.1 2.1 4 .7 3.2-2.4-.3-1.3-1.2-6.2-2-10.8-.8-4.7-2.1-10.2-2.9-12.2-4-11.1-4.4-15.1-1.2-12.4 4.4 3.7 12.9 31.6 12.4 40.8-.2 4.5.4 5.9 2.1 4.8 1.3-.8 1.4-7.7.2-11.9-1.3-4.4-4.3-16.9-4.5-18.5-.3-3 2.2-1.9 3.7 1.6 2.6 6.3 6.6 20.5 7.2 25.8 1.2 10 1.6 11.5 3.1 11.5 1.2 0 1.4-.9.9-4.8-1.1-8.2-4.6-25.3-6-29.3-.9-2.3-1-3.9-.4-3.9 1.5 0 6.9 4.2 6.9 5.4 0 .6.6 2.3 1.4 3.7 2.4 4.7 5.5 15.2 7.1 24.4.9 4.9 1.9 10 2.1 11.2.2 1.3 1.2 2.3 2.1 2.3 1.4 0 1.5-.9.9-6.5-.4-3.5-1.6-9.4-2.7-13.1-1.1-3.6-1.8-6.8-1.5-7.1.3-.3-.2-1.8-1.1-3.3-1.7-2.9-1.1-6.4.9-5.8 1.5.5 5.2 6.9 7.7 13.4 1.1 2.9 2.5 9.9 3.2 15.8.8 7.3 1.6 10.6 2.4 10.6 2 0 .4-16.6-2.6-26.3-.6-2-.5-2.7.6-2.7 2.1 0 6.5 10.1 7.9 18 .8 4.8 1.7 7.5 2.9 8.1 2.3 1.4 2.2-1.8-.3-9.9-2.2-7.1-2.5-9.2-1-9.2s9 15.5 9 18.7c0 .7.7 1.3 1.5 1.3s1.5-.7 1.5-1.5c0-2.2-4.7-12.5-7.7-16.8-3.6-5.2-2.1-5.9 2.8-1.1 4.8 4.6 9.2 11.5 10.9 16.6.8 2.8 1.7 3.8 3.3 3.8 1.6 0 1.8-.3.9-1.2-.7-.7-1.2-2-1.2-3s-.7-3-1.6-4.4c-.9-1.3-1.4-2.8-1-3.1 1-1 3.3 1.7 5.8 6.7 2.4 4.5 5.1 7 6.4 5.7.4-.4-.1-2.4-1.1-4.5-1.1-2-2.1-4-2.3-4.5-.2-.4.3-.7 1.1-.7s2.7 1.9 4 4.3c3.1 5.2 5.4 7.4 6.7 6.1.6-.6-.5-2.7-2.6-5.4-2-2.5-3-4.6-2.4-4.8.6-.2 2 .8 3.1 2.2 1.1 1.4 2.7 2.6 3.4 2.6.8 0 1.6.9 2 1.9.9 2.8 3.4 4.6 4.6 3.4.7-.7.5-1.4-.6-2.3-.8-.7-1.5-1.8-1.5-2.5 0-.8-1.2-2.7-2.6-4.4-2.7-3.2-1.7-4.3 1.4-1.6 4.7 4.1 9 7.5 9.6 7.5.3 0 .3-1.3 0-2.9-.6-2.8-.4-3 3.4-4 2.2-.6 4.7-.9 5.5-.5.9.3 2.6-.3 3.8-1.5 1.3-1.2 2.6-2.1 3-2.1.5 0 3.1-1.4 5.9-3 2.8-1.7 5.5-2.8 5.9-2.6 2.1 1.3 12.6-4.4 21.6-11.7 10.6-8.6 14.7-14.8 20.6-31.7 2-5.7 2.7-17.9 1.3-23.5-.7-2.7-.6-2.9.9-1.7 2.5 2.1 6.3 9.2 8.8 16.2 1.7 5.3 2.1 8.5 2 17-.1 5.8-.3 11.7-.5 13.1-.6 5.1-6 19.4-8.2 21.9-1.2 1.4-3.5 4.5-5 7-3.7 5.8-10.6 14.2-16.4 19.8-5.2 5.1-14.5 12.2-15.9 12.2-.5 0-2.7 1.8-4.8 4.1-2.1 2.2-5.5 4.9-7.5 6-5.9 3-10.1 7.3-16.2 16.3l-5.6 8.4-.9 16.7c-.6 11.1-.6 17.7.1 19.4.5 1.4 1.4 7.3 1.8 13.1.5 5.8 1.6 14.1 2.4 18.5 2.5 13 1.8 28.5-1.4 28.5-.8 0-3-4.6-3-6.1 0-3-11.4-17.8-17.2-22.3-14.1-11-23.6-23.1-35.4-45.6-5.4-10.1-10.7-18.1-13.4-20-1.7-1.2-3-2.6-3-3.3 0-.6-2.4-3.4-5.3-6.1-12.1-11.6-22.7-21.3-25.8-23.6-1.8-1.4-5.8-4.8-8.8-7.7-6.7-6.1-24.5-18.3-26.9-18.3-.9 0-3.6-1.1-5.9-2.4-2.3-1.4-5.3-2.8-6.5-3.2-1.3-.3-4.1-1.4-6.3-2.4-2.2-.9-5.6-2.2-7.5-2.9-3.6-1.3-6-2.3-21.5-8.6-8.9-3.6-22.7-7.7-31.5-9.4-2.5-.5-8.5-2.1-13.5-3.5-19-5.4-44-9.2-76-11.6-7.7-.6-18.3-1.6-23.5-2.2-5.2-.6-15.6-1-23-.9-13.1.2-42 2.6-45 3.8-3.6 1.4-8.5.1-11.6-3-1.7-1.8-5.5-5.2-8.4-7.7-3-2.5-7-6-8.9-7.8-6.7-6.3-21.6-14.3-31.9-17.1l-9.6-2.6-1.3-8.5c-3.7-24.7-5.4-29.9-12.9-40.1-1.9-2.6-3.4-5.1-3.4-5.6 0-.6-.9-1.8-2-2.8-1.1-1-3-3.8-4.2-6.2-1.2-2.4-2.5-4.3-2.9-4.3-.5 0-1.6-.8-2.6-1.8-3.1-3-12.9-10.2-14.1-10.2-.6 0-1.9-1.7-2.9-3.7-2.9-5.9-18-15.3-27.1-16.8-3.5-.6-4.1-.4-3.6.8.5 1.4 3.8 3 12.4 6.1 5.6 2 11 5.2 11 6.6 0 1.3-3.9.4-9.5-2.1-4-1.7-13.6-5.5-21-8.2-2.2-.8-6.5-2.4-9.5-3.6-3-1.2-6-2.1-6.7-2.1-4.9 0 4.6 4.8 18.7 9.4 15.9 5.3 26.3 10.8 40.3 21.5 5 3.9 11.7 10 11.7 10.7 0 .3 2.6 3.1 5.8 6.2 9.2 9.2 14.9 23 18.2 44.4.9 5.8.8 7.6-.9 12.5-1.1 3.2-2.2 7.9-2.6 10.4l-.7 4.6 8.4.6c13.4 1 37.7 8.9 48.6 15.8 9.8 6.2 20.1 17.4 17.9 19.5-.8.8-7.7-6.8-7.1-7.8.3-.4-.1-.8-.8-.8-.8 0-4.8-2.5-9-5.5-9.5-6.8-19.7-10.7-35.7-13.5-6.8-1.2-14.9-3.3-17.9-4.6-3-1.3-5.6-2.3-5.7-2.2-.9 1.1-3.8 7.5-5.1 11.5-2 5.7-5.8 11.5-13.3 20.1-9.3 10.7-29.7 26.2-27.9 21.3.2-.5 2-2.9 4-5.3 4.7-5.4 16.4-22.4 17.8-25.8.6-1.4 1.7-3.9 2.5-5.5 5.8-12.3 6.6-15.2 7.7-27.6.9-10.1.9-14.4-.1-20.7-.7-4.4-1.4-10.2-1.6-12.8-.4-6.7-.6-7.2-10.5-22.4-12.9-19.7-27.8-31.4-54.1-42.3-2.4-1-6-2.7-7.9-3.7-4.5-2.3-13.8-4.7-21.9-5.6-7.7-.8-16.6 1-18.7 4-1.9 2.8-.4 3.6 7 3.6 9.2 0 21.4 4.2 31 10.6 13.7 9.1 17.7 12.1 19.2 14.2.7 1.1 3.4 3.2 5.8 4.6 8.4 4.9 15.4 17.5 22.1 39.6 2 6.7 3.9 32 3.1 41.5-.3 3.9-1.7 11.1-3.2 16-1.5 5-3 10.7-3.4 12.8-.8 4.2-8 15.4-14.2 22.1-2 2.2-3.8 4.4-3.8 4.8 0 .5-.8.8-1.8.8-1.1 0-3.7 1.3-5.8 2.8-10.9 7.8-13.2 8.6-23.9 8.9-5.5.1-13.2.6-17 1.2-3.9.5-14.5 1-23.5 1-11.1-.1-17.5.3-19.5 1.2-4.2 1.8-30.5 2.1-32.5.5-.8-.7-3.1-1.9-5-2.6-1.9-.8-5.3-2.6-7.5-4-11.8-7.9-17.5-10.7-25.5-12.6-7-1.6-8.7-2.5-16.8-9.1-2.9-2.3-5.9-4.3-6.7-4.3-.7 0-2-.6-2.7-1.3-.7-.7-5.6-4.6-10.8-8.7-10.5-8.2-17-14.8-17-17.4 0-2.1 3.3-2.1 5.1 0 .7.9 3.3 2.6 5.9 3.9 2.5 1.3 6.5 3.3 8.9 4.6 6.8 3.5 29.9 12.8 36.1 14.5 3 .9 6 1.9 6.5 2.3.6.4 4.8 1.8 9.5 3 4.7 1.3 10.3 2.9 12.5 3.7 2.2.8 8.5 2.1 14 2.9 5.5.8 13.2 2 17 2.6 8.7 1.5 15.5 1.3 17.4-.6 1.3-1.3 1.2-2.2-.5-7.2-1.7-5.3-2.3-5.9-5.9-7.1-3.2-1-5.3-1.1-10.6-.1-16.7 3-50.9-3.6-85.7-16.5-7.2-2.7-25.3-12-32.2-16.7-7-4.6-29.6-26.3-37.3-35.7-2.6-3.1-5.3-6.4-6-7.2-4.7-5.1-12.3-18.2-16.1-27.3-3.9-9.5-8-27.6-7-31.1 1.5-5.4 4.7-12.5 5.4-12.1.5.3 1.9 3.9 3.1 8.1 1.9 6.6 3.2 8.6 9.4 15.7C38 178.7 45.3 183.9 60.7 189c5.3 1.7 8.8 2 22.8 2 9.8 0 17.4-.4 18.6-1.1 1.1-.5 4.4-1.4 7.2-1.9 5.3-.8 15.4-6.6 18.7-10.7.9-1 2.7-2.7 4-3.8 7.4-6 16.1-19.4 20.5-31.7l3.3-9.2 6.8-1.8c9.4-2.3 12.2-2.2 20.9.8 4.2 1.4 8.2 2.3 9 2 2.5-.9 1.7-3.5-1.2-4.2-1.6-.3-5.3-1.2-8.3-1.9-3-.8-8.5-1.6-12.3-1.8-3.7-.2-6.8-.8-7-1.3-.4-1.6 7.1-2.6 16.4-2.1 9.5.5 12.8-.1 11.5-2.1-.8-1.3-4.5-2.1-13.4-3.1l-6.7-.8 4.8-1.2c2.6-.8 5-1.7 5.3-2.2.3-.5 3.2-.9 6.5-.9 3.2 0 5.9-.4 5.9-.9 0-1.2-2.6-2.1-6.1-2.1-1.6 0-2.9-.5-2.9-1 0-.6.6-1 1.3-1 .7 0 4-1.3 7.3-2.9l5.9-2.8 5.5 1.9c3 1.1 6.9 2.2 8.5 2.4 3.2.5 22.6 6.8 26 8.4 1.1.5 8.1 2.3 15.6 4 14.1 3 26.5 7.4 29.8 10.4 2 1.8 5 1.9 5.4.1.4-1.8-6.1-5.1-16.4-8.5-5.7-1.8-11.9-3.9-13.8-4.7-8-3.3-32.6-10.4-51.3-14.7-5.7-1.3-2.5-3.6 5.7-4.1 7-.5 31 5.4 40.6 9.8 3 1.4 6.5 2.8 7.9 3.2 6.8 2 32.1 13.7 38.6 18 1.7 1.1 6.3 4 10.3 6.5 3.9 2.5 11.4 7.5 16.7 11.2 5.2 3.8 9.9 6.8 10.3 6.8.4 0 1.8 1.1 3.1 2.5 2.4 2.5 6.4 3.3 7.5 1.5 1.3-2.1-16.4-16.3-29-23.3-3.3-1.9-8.9-5-12.3-7-3.5-2-6.8-3.7-7.2-3.7-.5 0-3.6-1.3-7.1-3-3.4-1.6-6.6-2.7-7.1-2.4-.4.3-.8.1-.8-.5s-1.5-1.7-3.2-2.5c-5.2-2.3-30.7-11.6-32-11.6-.6 0-6.4-1.5-12.7-3.4-6.4-1.9-14.3-3.8-17.5-4.3-3.6-.5-6.1-1.4-6.4-2.2-.4-1.1 1.7-1.3 11.9-.8 12.5.6 14.5.8 20.9 2.5 14 3.8 22.1 6.4 27 8.5 1.9.8 6 2.3 9 3.2 16.2 5.3 46.5 22 62.5 34.6 2.8 2.2 7.6 6 10.8 8.5 3.7 2.9 6.2 4.3 6.8 3.7 1-1-3.1-5.1-11.1-11.3-2.5-1.9-6.1-4.9-8.1-6.6-3.1-2.7-7.4-5.8-16.3-11.6-6.4-4.2-15.7-9-20.8-10.8-3.5-1.2-10.3-4.2-15.3-6.7-8.7-4.3-17.5-7.3-21.6-7.3-1.1 0-4.8-1.3-8.3-3-6.2-2.8-9.6-3.9-19.9-6.2-5-1.1-5.9-3.1-1.5-3.6 2.8-.3 21 4.1 38.4 9.3 6.4 2 11.8 3.4 12.1 3.2.6-.7-12.9-6.1-23.8-9.7-13.5-4.4-12.7-4.1-10.4-5 2.8-1.2 8.6-.2 19 3 13.5 4.2 20.4 5.5 21.6 4.3.6-.6.8-1.6.5-2.1-1-1.7-10.4-4.8-18.3-6.2-4-.7-7.3-1.7-7.3-2.1 0-2 8.7-2 14.5 0 7.5 2.6 7.8 2.6 7 .1-.7-2.4-.2-2.6 8-3.9 3.3-.6 8.1-1.5 10.6-2.2 6-1.5 8.8-.8 14.4 4.1 2.5 2.2 6.4 4.4 8.8 5.1 4.7 1.2 38.9 18 45.2 22.2 16 10.6 28.6 21.8 38.2 33.9 4.3 5.4 7.3 7.3 7.3 4.7 0-2.2-8.7-13.3-15.5-19.8-3.8-3.6-8-7.6-9.3-8.9-4.8-4.6-21.3-15.2-34.4-22-7.3-3.8-15.5-8.1-18.2-9.6-2.7-1.4-5.5-2.6-6.2-2.6-2 0-10.4-6.2-9.8-7.2.6-1 3.1-.4 14.8 3.3 18.1 5.8 33.9 15.9 56.9 36.4 8.9 8 23.2 23.7 26.3 29.1 1.6 2.7 3 .9 1.6-2.1-3.3-7.2-24.1-30.8-30.9-35.2-1.5-.9-8.5-5.9-15.4-11s-14.8-10.5-17.5-11.9c-2.7-1.4-7.1-3.8-9.7-5.2-3.2-1.6-4.5-2.8-3.8-3.5 2.4-2.4 20.7 5.1 30.6 12.7 3.3 2.5 10.3 7.6 15.5 11.3 12 8.4 28.9 25.3 33.4 33.2.5.9 1.5 2.1 2.1 2.8.7.6 2.6 3.4 4.4 6.2 3.5 5.4 7.4 7.2 6.4 2.8-1.7-7-33.8-43.1-42.1-47.5-3.3-1.7-7.1-4.1-21.1-13.4-1.4-.9-4.1-2.5-5.8-3.4-3.8-1.9-4.4-3.9-1-2.9 3.2.9 15.2 6.9 21.7 10.7 3 1.8 7 4.2 8.8 5.3 16.1 9.6 38.9 34.2 46.3 50 1 2.1 2.3 3.1 4.2 3.3 1.7.2 2.7-.1 2.7-1 0-1.3-7.4-12.4-13.5-20.4-4.9-6.5-26.7-27.3-31.5-30.1-2.5-1.5-5.4-3.4-6.5-4.4-1.1-.9-6-3.8-11-6.3-4.9-2.6-9.7-5.4-10.5-6.3-1.4-1.4-1.1-1.5 3.2-.9 5.9.7 19.8 7.4 26 12.4 2.5 2 6.9 5.5 9.7 7.7 8.6 6.6 22.7 20.6 27.8 27.5 6 8.2 6.6 9.1 10.3 16.7 2.2 4.6 3.6 6.3 5 6.3 2.8 0 2.5-1.2-1.6-8.6-7.1-12.7-23.5-31.3-36.4-41.2-4.7-3.6-9.6-7.6-11-8.8-1.4-1.2-4.3-3.3-6.5-4.6-16.8-9.7-16.5-9.5-14.8-11.1 1.2-1.2 2.8-.8 11.1 3.3Zm185.1 5.1c-4.4 3.4-15.3 8.6-23.4 11.2-13.1 4.3-21.3 5.8-34.3 6.4-10.2.5-12.5.3-14-.9-.9-.9-3.2-1.9-5-2.3-5.7-1.2-2.7-1.7 9-1.6 6.8.1 17-.7 25.7-1.9 15.5-2.2 23.9-5 36.6-12 5.8-3.2 7.1-3.6 7.4-2.3.2.9-.7 2.4-2 3.4ZM510 100c0 .5-.4 1-1 1-.5 0-1-.5-1-1 0-.6.5-1 1-1 .6 0 1 .4 1 1Zm80 1.6c0 3.2-5.8 7.5-15 11.2-5.1 2.1-6.3 2.2-14 1.3-8.2-1-15.6-2.7-13.5-3.1.6-.1 5.4-.4 10.8-.5 9.3-.3 10.2-.6 19-4.9 8.4-4.2 12.7-5.5 12.7-4Zm-312.3 45.1c23.9 12 30.5 16.9 43 31.9 10.4 12.6 13.8 19.2 15.4 30.4 2.2 15.4 1.8 32.4-.9 41.5-1.1 3.6-7.8 19.8-9.9 24-7.5 14.8-10 18.4-17.5 25.7-7.9 7.6-11.8 10-11.8 7.2 0-.8 2.1-4 4.7-7.2 6.9-8.4 12.5-21.3 16.6-38.2 3.8-15.8 3.7-13.2.7-40-2.8-24.6-10.8-40.2-30.1-59-3.6-3.6-8.5-7.6-10.8-9-2.3-1.4-7-4.3-10.5-6.6-3.5-2.2-7.8-4.7-9.5-5.4-4.7-1.9-3.8-3.3 1.8-2.8 3.5.3 9 2.6 18.8 7.5ZM675 192.1c18.5 6.5 25.1 7.9 38 8.3 8.6.3 12.5.8 13 1.7.7 1 1.1 1 2.4 0 .8-.7 2-.9 2.7-.5 4.9 3-20.9 5.7-33.6 3.5-11.5-2-32.5-11.8-32.5-15.2 0-1.1 1.2-.8 10 2.2Zm-290.5 53.6c7.6 2.7 20.5 9.3 20.5 10.5 0 .8-10-2-11.6-3.3-.6-.5-6-2-12-3.4-16.7-3.9-18.4-4.4-18.4-6.1 0-2.2 12.5-.9 21.5 2.3Zm-21.1 11.8c1.2.8 6 2 10.5 2.6 14.9 1.8 37.9 11 44.4 17.6 5.7 5.7 18.4 25.9 17.2 27.1-.3.3-1.3-.2-2.3-1.1-1.9-1.8-4.2-2.3-4.2-.9 0 .4 1 1.2 2.3 1.7 1.4.7 2.8 2.8 3.9 6 3 9 1.9 12.8-1.8 6-2.3-4.3-3.8-4.5-2.9-.5.8 3.7.3 3.7-6.9.5-5.2-2.3-5.7-2.8-5.4-5.3.3-2.4-.4-3.1-5.7-5.9-3.3-1.8-9.5-4.6-13.8-6.3-7.6-2.9-26.9-8-30.4-8-2.5 0-17.7-6-20.5-8.1-1.6-1.3-2-2.1-1.3-2.8.8-.8 2.3-.5 5 1 8.3 4.3 17.2 6.9 29.4 8.5 6.9.8 13.5 2.1 14.6 2.8 1.1.6 5.1 2.5 8.9 4.1 3.8 1.6 10.3 5.4 14.5 8.5 9.9 7.3 10.1 7.4 10.1 5.7 0-1.6-4.2-6.2-8.4-9.2-1.5-1.1-4-3-5.4-4.3-1.5-1.2-4.5-2.8-6.7-3.6-5.2-1.7-10.1-3.5-15-5.3-2.2-.8-6.2-1.5-9-1.5-9.8.1-22.6-3.9-32.3-9.9-4.9-3-1.2-3.9 5.9-1.4 2.4.9 7.4 2 11.2 2.5 13.5 2 36.2 9.6 41.9 14.1 2 1.6 4.1 2.9 4.6 2.9s2.1 1 3.6 2.1c3.5 2.7 4.6 1.7 1.9-1.9-1.7-2.3-16.5-10.7-22.1-12.6-.9-.3-3.5-1.2-5.7-2.1-2.2-.8-7.8-2.2-12.5-3.1-10.4-1.8-24.6-6.2-26.1-8-2.2-2.6-.3-4.6 3.8-3.9 6.8 1.1 23.7 5.4 28.8 7.4 17.8 6.6 27.4 11 29.4 13.5.8.9 2.1 1.6 3 1.6 2-.1-6-7.5-12-11.2-12.3-7.4-18.3-9.7-30.1-11.7-12.1-1.9-19.1-4.6-19.6-7.4-.4-2.1 2.1-2.2 5.2-.2Zm202 21.1c7.4 1.8 13.8 4.2 22.8 8.3 3.7 1.7 7.4 3.1 8.2 3.1.9 0 3 1.3 4.8 2.8 1.8 1.5 4.9 3.6 7 4.7 4.8 2.5 8.4 5.2 7.7 5.9-.3.3-3.2-.8-6.5-2.4-9.2-4.6-22.3-10.5-28.9-12.9-3.3-1.3-8.9-3.6-12.5-5.1-3.6-1.5-7.5-3.1-8.7-3.5-2.4-.6-3.2-2.5-1.2-2.5.6 0 3.9.7 7.3 1.6Zm-207.1 13.8c2.1.9 4.9 1.6 6.4 1.6 1.4 0 4.2.4 6.2 1 2 .5 7.3 1.8 11.9 3 4.6 1.1 11.5 3.6 15.3 5.6 7.1 3.7 10.2 6.3 5.8 5-3.8-1.2-9.1-2.4-28.4-6.2-14.8-2.9-19.2-4.2-24.8-7.2-8.1-4.4-11.8-7.9-9.8-9.2.9-.5 3.6.2 7.5 2 3.4 1.5 7.8 3.5 9.9 4.4Zm267.1-.8c2 .8 2.1 3.3.1 4.1-1.6.5-5.5-2.2-5.5-3.9 0-.9 3.1-1.1 5.4-.2ZM342.8 295c1.8 1.6 3.1 3.4 2.8 3.9-.8 1.2-13.2 6.1-15.6 6.1-1 0-2.1.4-2.4.9-.6 1-9.7 4.1-12 4.1-2.5 0-.8-2.5 3.2-4.8 2.1-1.1 7.1-4.6 11.2-7.6 4.1-3.1 8-5.6 8.5-5.6.6 0 2.5 1.3 4.3 3ZM628 313.6c2.4 2.7 2.4 2.7-1.6-.4-2.2-1.7-4.7-3.9-5.5-4.9-2.2-2.7 4.1 2 7.1 5.3Z"/>
    <path fill="#FFF" d="M316 80.5c-1.8 3-2.6 3.4-4.8 2.9-1.5-.4-3.1-1.1-3.6-1.5-1.4-1.3-4.6-1.1-4.6.2 0 .6.9 2.4 2 3.9 2.4 3.4 1.8 8-1.1 8.7-1.7.5-3.6 3.9-2.6 4.9.2.3 1.6 0 3.1-.6 1.5-.5 4.4-1 6.4-1 3.2.1 4.1.7 6.4 4 4 5.7 5.1 5.2 4.3-1.9l-.7-5.9 4.4-1.4c3.1-1.1 4.3-2 4.3-3.4 0-1.5-.8-2-4.4-2.2l-4.4-.3.6-5c.5-4.3.4-4.9-1.3-4.9-1 0-2.8 1.5-4 3.5Z"/>
    <path fill="#000" d="M336.7 89.7c-1 1-.8 2.3.3 2.3.5 0 4.2 1.5 8.2 3.4 4 1.8 10.2 4.6 13.8 6.2 8.4 3.7 15.4 8 20.2 12.4 2 1.9 5.5 4.8 7.8 6.5 4.4 3.3 12.9 13.6 17.2 20.9 2.4 4.1 3.1 4.6 6.3 4.6 1.9 0 3.5-.4 3.5-.9 0-1.4-11.5-14.8-18.6-21.8-3.6-3.4-10.4-8.8-15.2-11.9-4.8-3.1-9.8-6.4-11.2-7.3-1.4-1-4-2.6-5.9-3.5-2.3-1.3-3-2-2.1-2.6 1-.6.9-.9-.1-1.6-.7-.4-1.4-.3-1.7.4-.2.7-2.3.2-6-1.5-15.4-7-15.2-7-16.5-5.6Z"/>
    <path fill="#000" d="M328.8 97.7c-1.6.2-2.8.9-2.8 1.5s1.1.8 2.7.5c3.9-.7 8.5 1.2 20.8 8.8 20.9 12.9 33.3 22.3 37.5 28.2 4.7 6.8 8.7 10.3 11.9 10.3 1.6 0 3.2-.4 3.5-.9.5-.7-14.2-15-21.9-21.4-11-9.1-25.4-17.9-38-23.2-2.2-.9-5.5-2.3-7.3-3.1-1.8-.8-3.4-1.3-3.5-1.3-.1.1-1.4.4-2.9.6Z"/>
    <path fill="#000" d="M327.2 104.7c.2 1 1.9 2.2 3.8 2.8 8.9 2.6 34.4 19.8 44.2 29.9 2.7 2.6 4.8 4.4 4.8 4-.1-1.6-14.3-15.8-20.9-20.8-3.6-2.7-9.1-6.2-12.4-7.8-3.2-1.6-8.2-4.4-11-6.3-5.7-3.9-9-4.5-8.5-1.8Z"/>
    <path fill="#000" d="M308.5 104.9c-.3.6 3.2 2.8 7.7 5 9.1 4.5 10.8 5.5 19.4 12.1 3.3 2.5 7.7 5.7 9.9 7.1 2.2 1.4 8.9 6.9 14.9 12.2 7.3 6.5 11.6 9.7 13.2 9.7 1.3 0 2.4-.3 2.4-.7 0-.7-13.5-13.9-17.7-17.3-1-.9-3.9-3-6.5-4.8-2.6-1.8-5.3-3.8-6-4.4-2.4-2.3-7.7-5.8-8.6-5.8-.5 0-1.6-.7-2.3-1.6-1.2-1.5-5.8-3.8-19.8-10-6.2-2.8-5.8-2.7-6.6-1.5Z"/>
    <path fill="#FFF" d="M202.7 106.6c-.2.3.1 2.5.9 5 1.2 3.9 1.2 4.8 0 6-.8.8-1.7 1.4-2.1 1.4-.3 0-2.2.7-4.2 1.5-3 1.3-3.3 1.7-2.3 3 .8 1 2.8 1.4 5.6 1.3 2.4-.1 4.6.1 4.9.4.3.3 0 3.7-.7 7.6-.6 3.9-.9 7.4-.6 7.7 1.2 1.3 3.4-.8 5.1-5 1.9-4.6 4.8-6 7.4-3.4 1.2 1.2 8.8.8 8.8-.5 0-.5-.9-1.4-2-2-2-1.2-5.4-4.7-5.5-5.7 0-.4 1.3-2.2 3-4 2.8-3.2 3.7-5.9 2.4-7.2-.3-.3-2.6.3-5.1 1.4-2.4 1-5 1.9-5.6 1.9-.7 0-2.2-1.8-3.5-4-2.1-3.8-5.4-6.5-6.5-5.4Z"/>
    <path fill="#000" d="M230.2 116.2c.2 1.6 2.3 2.6 10.8 5.2 5.8 1.8 11.9 4 13.7 4.9 3.8 2 6.3 2.2 6.3.4 0-1.4-8.2-5.4-13.2-6.3-1.8-.4-3.8-1.1-4.5-1.6-.6-.5-2.5-1.3-4.2-1.8-1.7-.6-4.5-1.4-6.2-1.9-2.7-.9-3-.8-2.7 1.1Z"/>
    <path fill="#FFF" d="M163.4 141.5c-.3.8-.1 2.9.5 4.6 2 5.7 1.5 6.8-3.9 9.1-2.8 1.2-4.9 2.6-4.7 3.2.2.6 2.9 1.2 6 1.4l5.7.3v5.4c0 7.1 2.2 7.5 5 .9 1.1-2.5 2.3-4.4 2.8-4.2.4.2 2.4 1.2 4.5 2.3 3.6 1.8 3.8 1.8 5.5.1 1.6-1.6 1.5-1.9-2-4.8-4.6-3.6-4.7-5.5-.9-9.2 2.8-2.7 3.2-5.6.7-5.6-.7 0-3.2 1-5.6 2.1l-4.4 2.1-1.5-2c-.9-1.2-2.4-3.3-3.4-4.7-2-2.8-3.5-3.2-4.3-1Z"/>
    <path fill="#FFF" d="M266.6 175.2c-.8 1.3-2 3.5-2.7 5-1.6 3.6-4 3.5-8.2-.2-6.1-5.3-8.1-3.3-4.1 3.9l2.7 4.8-3.8 4.7c-2.2 2.5-4.3 4.6-4.7 4.6-.4 0-.8.7-.8 1.5 0 1.2.8 1.4 4.3.8 2.3-.4 5.8-.8 7.7-.8 3.1 0 3.7.5 6.2 5 1.7 3.1 3.4 5 4.5 5 1.6 0 1.8-.9 1.6-7.4l-.2-7.3 5.3.6c3.6.5 5.6.3 6.1-.4 1-1.6-1.1-3.7-4.5-4.3-4.5-.9-7.2-4.1-6.3-7.5 1.1-4.2.9-9.5-.4-9.9-.6-.2-1.8.6-2.7 1.9Z"/>
    <path fill="#000" d="M160.7 182.7c-.4.3-.7 3.1-.7 6.1 0 4.4.7 6.7 3.6 11.9 3.7 6.7 3.7 8.3-.1 8.3-1.3 0-3.9 1.5-6 3.5-3.5 3.5-3.6 3.8-3.4 9.8.1 3.4.4 6.9.6 7.7.6 2.3 10.8 9 13.8 9 4 0 13.4-6 14.1-9 .3-1.4.9-3.3 1.5-4.2.5-1 .9-2.7.9-3.9 0-1.9.4-2 4.3-1.4 8.9 1.5 18 1.1 22.4-1 2.3-1.1 4.3-2.3 4.3-2.8 0-1.1-5.8-.9-10.1.4-3.1 1-4.6.9-8.1-.4-2.4-.9-6.6-2.1-9.4-2.7-6-1.3-15.6-7.2-20.1-12.3-1.9-2.2-3.3-5.1-3.7-7.6-.3-2.3-.9-5.9-1.2-8.1-.6-3.8-1.3-4.8-2.7-3.3Zm14 32.3c3 1.8 5.3 6.6 5.3 11.1 0 4.2-9.7 9.1-14.9 7.4-2.8-.9-5.1-5.5-5.1-10.4 0-5.5.8-7.1 4.4-8.7 4.3-1.8 6.6-1.7 10.3.6Z"/>
    <path fill="#000" d="M166 219.8c-2.7 2.2-2.1 3.6 2.2 5.8 5.2 2.7 7.5 0 4.2-5.1-1.9-3-3.4-3.1-6.4-.7Z"/>
    <path fill="#000" d="M79 197.5c0 1.4 8 7.5 10 7.5.6 0 3.4 1.2 6.2 2.6 4.5 2.3 6.8 2.7 17.4 3.2 7.5.3 14 .1 16.6-.6 2.4-.6 6-1.4 8.1-1.7 2.3-.4 3.7-1.1 3.7-2 0-1.8-.9-1.8-8.5 0-7.9 1.9-21.9 1.9-30.8-.1-4.8-1.1-9.6-3.1-14.3-6-7.9-4.9-8.4-5-8.4-2.9Z"/>
    <path fill="#000" d="M76 205.5c0 2.2 3.8 5.2 11.5 9 10.2 5 18.3 6.8 30 6.8 10.4 0 22.5-2.7 23.3-5.1.4-1.4.5-1.4-12.8.1-18 2.1-35.7-1.6-46.4-9.8-3.7-2.8-5.6-3.2-5.6-1Z"/>
    <path fill="#000" d="M79.9 215.8c.5.9 1.8 2.6 3 3.6 1.1 1 1.8 2.3 1.5 2.8-1 1.6.5 5.3 2.7 6.6 1.2.8 5.8 2.7 10.3 4.3 9.1 3.2 16 3.7 27.9 1.7 7.5-1.2 8.7-1.9 8.7-5.4 0-1.2.7-2.7 1.5-3.4 2-1.7 1.9-4-.2-4-1 0-4.3.9-7.3 2.1-4.6 1.8-6.8 2-13 1.5-10.2-.9-18.6-3-22.1-5.5-1.5-1.2-3.5-2.1-4.3-2.1-.9 0-3-.9-4.8-2-4.1-2.5-5.2-2.5-3.9-.2Zm19.4 11.9c6.9 2.4 12.4 2.6 25.9.8 4.1-.6 4.2-.6 2.3 1-4.1 3.3-12 4.8-20 3.7-7.6-1-17.4-5.4-18.3-8.1-.4-1 0-1.2 1.4-.6 1.1.4 5 1.8 8.7 3.2Z"/>
    <path fill="#FFF" d="M480.7 228.7c-.7 1.2-.1 3.7 1.8 7.7 2 4.1 1.3 5.6-3.7 8.2-2.1 1.1-2.8 2.1-2.6 3.7.3 1.9.8 2.1 6.2 1.8l5.9-.3-.6 2.8c-.2 1.5 0 4 .5 5.6 1.5 4.2 4.9 3.5 6.1-1.2 1.1-4.7 3.1-6 8.9-6 4.3 0 4.8-.2 4.8-2.3 0-1.8-.9-2.6-3.7-3.6-5.1-1.9-5.5-2.9-3-7.4 1.6-2.9 1.9-4.2 1.1-5.5-1.8-2.7-4.9-2.6-6.2.2-1.7 3.7-5.7 4.4-8.7 1.6-1.4-1.3-2.7-3.1-3.1-4.2-.5-1.8-2.9-2.5-3.7-1.1Z"/>
    <path fill="#FFF" d="M214.4 233.3c.8 5-1.1 7.5-6.5 8.6-4.8 1-4.8 2.9 0 3.7 4.3.7 4.4.8 4.1 6.6-.2 4.4 1.9 5.2 4.2 1.6 1.4-2.1 1.7-2.2 4.3-.8 1.5.8 3.2 2.5 3.8 3.7 1.1 2.4 4.1 3.1 5.2 1.3.4-.6-.3-3.5-1.6-6.5-2.6-6.2-2-7.6 3.7-9.5 2.8-.9 3.4-1.7 3.2-3.3-.3-2.3-1-2.4-9.8-1.5-3.3.3-3.6 0-5.5-4-1.3-2.8-2.6-4.2-3.8-4.2-1.7 0-1.8.5-1.3 4.3Z"/>
    <path fill="#FFF" d="M443.3 232.2c-.5.7-1.5 2.8-2.3 4.5-1.5 4-2.5 4.1-7 .3-1.9-1.7-4-3-4.7-3-2 0-1.6 3.9.7 6.7 2.1 2.7 2.7 7.3 1 7.3-.5 0-1.6 1.3-2.5 2.9-1.4 2.8-1.4 3 .5 3.6 1 .3 2.8.1 3.9-.4 3-1.7 4.1-1.3 4.1 1.3 0 4.2 1.2 8.6 2.4 8.6.6 0 2-2.3 3.1-5.1 2-5 2.1-5 5.5-4.5 8.3 1.2 8.5 1.2 8.8-1.1.2-1.6-.3-2.6-2-3.2-1.3-.5-3.6-2.1-5.2-3.4l-3-2.4 2.2-3.5c2.5-4 2.8-6.8 1-8.6-1.6-1.6-5.3-1.5-6.5 0Z"/>
    <path fill="#000" d="M89.4 234.8c1 1.6 5.7 4 12.5 6.4 4.2 1.4 8 1.9 14.9 1.8 10.2-.1 12.2-.5 12.2-2.6 0-1.2-2-1.3-11.2-.8-10.6.6-11.7.5-18.3-2.1-9.9-3.8-10.9-4-10.1-2.7Z"/>
    <path fill="#FFF" d="M536.2 237.5c-1.9 1.9-4.1 3.5-5 3.5-.9 0-3.1-1.4-4.8-3.1-5.5-5.3-8.5-2-4.4 4.7 1.8 2.8 1.9 3.6.8 5.3-.7 1.2-1.8 2.1-2.4 2.1-1.7 0-4.7 3.8-3.9 5 .4.7 2.7 1 5.3.9l4.7-.3 1.5 4.4c1.1 3.3 2.1 4.5 3.5 4.5 1.6 0 2.1-.8 2.3-4.3l.3-4.4 4.2.8c7 1.2 8.2 1.1 8.5-1.1.2-1.4-.8-2.6-3.5-4-4.8-2.5-5.2-4.6-1.7-9.7 2.2-3.1 2.5-4.3 1.7-5.6-1.7-2.8-3.6-2.4-7.1 1.3Z"/>
    <path fill="#000" d="M97.2 246.2c.9 1.3 3.5 3.1 6 4.2 4.2 1.7 5.2 1.7 13.4.5l8.9-1.4-10.1-.5c-7.9-.5-10.8-1.1-13.6-2.8-4.7-2.9-6.5-2.9-4.6 0Z"/>
    <path fill="#000" d="M104 254.9c0 3.6 15.5 7.6 17.9 4.7 1.6-1.9.3-2.6-4.6-2.6-2.4 0-6-.7-8-1.5-4.1-1.7-5.3-1.9-5.3-.6Z"/>
    <path fill="#FFF" d="m866.7 300.5-4.7 3.6-2.7-2.1-2.7-2.1-.8 2.2c-.5 1.3-.5 3.5.1 5 .8 2.4.5 3-3.5 6.3-2.4 2-4.4 4.1-4.4 4.6 0 .6 2.9 1 6.5 1 6.9 0 6.7-.2 7.7 6.5.4 2.2 3.7 3.3 4.8 1.5.6-1 .3-3.4-1.6-11.3-.4-1.7-.2-2.7.5-2.7.6 0 1.1.9 1.1 2 0 1.7.7 2 4.5 2.1 2.5.1 5.1.2 5.7.3.7.1 1.4-.6 1.6-1.5.2-1-1.4-2.3-4.8-3.8-5.5-2.5-6.1-4.1-3.4-9.2 2.8-5.6 1.4-6.5-3.9-2.4Z"/>
    <path fill="#000" d="M823.5 333.3c-2.7 1.3-6.1 2.6-7.5 3-2.9.7-12 13-13.9 18.9-1.6 4.9-1.8 11.5-.3 13 .9.9 1.2.5 1.2-1.9 0-3.4 3-13.6 5.4-18 2.4-4.5 5.9-7.7 10.7-9.6 7.5-3.1 11.2-5.2 11.1-6.2-.1-1.7-1.6-1.5-6.7.8Z"/>
    <path fill="#000" d="M793.2 334.2c-.7.7-1.2 1.6-1.2 2.1 0 .4-.9 2.8-2 5.3-1.5 3.2-2 6.1-1.8 10.1.5 8.8 2.4 7.7 3.1-1.8.5-6.4 1.2-9.1 3.1-12 2.2-3.3 2.4-4.9.6-4.9-.3 0-1.1.5-1.8 1.2Z"/>
    <path fill="#000" d="M804 335.3c-1.4.7-3.9 3.4-5.7 6-2.5 3.8-3.3 6.1-3.8 12.1-.4 4.1-.4 7.9-.1 8.5 1.6 2.5 2.3.7 2.4-6 .2-8.5 2.9-15 7.3-17.6 1.6-1 2.9-2.3 2.9-3 0-1.6.1-1.6-3 0Z"/>
    <path fill="#000" d="M834.5 335c-.3.5.1 1 .9 1s1.8-.5 2.1-1c.3-.6-.1-1-.9-1s-1.8.4-2.1 1Z"/>
    <path fill="#000" d="M824.5 339.3c-2.2 1.1-4.1 2.4-4.3 2.8-.2.3-2.1 3.1-4.4 6-2.2 3-4.7 6.9-5.5 8.7-2 4.9-3.5 19.2-2.2 20.9 2 2.4 2.4 1.4 2.7-6.7.2-6.6.8-9.2 3.7-15.4 1.9-4.2 4.6-8.3 6-9.3 1.5-1 3.9-2.9 5.4-4.3 1.6-1.4 3.7-3 4.7-3.7 1.8-1.1 1.8-1.2-.1-1.1-1.1 0-3.8 1-6 2.1Z"/>
    <path fill="#000" d="M838.2 340.2c-8.2 4.1-15.3 11.4-17.1 17.6-3.1 11.1-4.3 19.1-3.7 24.6 1.1 8.4 2.6 6.7 2.6-2.9 0-8.7 1.6-16.8 4.6-23 1.9-4.1 10.3-12 14.8-14 1.7-.8 4.2-2.3 5.6-3.4 3.8-3.1.5-2.6-6.8 1.1Z"/>
    <path fill="#000" d="M841.5 346.8c-11 7.2-15.8 18.1-15.9 36.2-.1 5.8.3 10.7.8 11 .6.3.9-2.3.7-6.1-.3-9.7 2.8-26.9 4.9-26.9.5 0 1.2-1 1.5-2.1.4-1.2 3.5-4.8 6.8-8 3.4-3.2 5.9-6 5.7-6.3-.3-.2-2.3.7-4.5 2.2Z"/>
    <path fill="#FFF" d="M815 397.9c-2.1 5.1-3.4 5.6-7.9 3-3.3-1.8-4.3-2-5.6-.9-2.1 1.7-1.9 2.2 1.5 5.8 3.7 3.9 3.7 5.8.5 10.2-3.7 5.1-2.7 8.3 1.4 4.6 3.2-2.8 5.3-2.3 7.5 1.9 2.3 4.3 5.2 5.7 6.3 2.9.4-1 .2-1.9-.3-2.1-1.5-.5-.4-7.6 1.4-9.1.9-.6 3.1-1.2 4.9-1.2 4.6 0 4.1-2.1-1-4.5-4.2-2-4.2-2-4.2-7.5 0-4.2-.4-5.5-1.6-5.8-1-.2-2.1.8-2.9 2.7Z"/>
    <path fill="#000" d="M427.5 298c.3.5.8 1 1.1 1 .2 0 .4-.5.4-1 0-.6-.5-1-1.1-1-.5 0-.7.4-.4 1Z"/>
</svg>