<svg xmlns="http://www.w3.org/2000/svg" viewBox="0 0 725.55 731.48">
    <path fill="#000" d="M3.83 2.56c0 1.5.4 3.2.8 3.7.4.6 1.4 2.8 2.1 5 .7 2.2 2.3 5.1 3.6 6.5 1.2 1.4 5.1 6.5 8.6 11.5 3.5 4.9 8.9 11.6 11.9 15 3.1 3.3 8.9 10 13 15 4.1 4.9 8.4 10 9.6 11.2 1.2 1.2 2.4 3.3 2.8 4.7l.6 2.6-5.1-3.1c-5.3-3.1-40.4-15.1-47.9-16.4-4.1-.7-4.2-.6-3.5 1.6.9 3 3.9 8 8.5 14.3 4.1 5.6 15 13.7 30 22.1 5.8 3.2 12 7.2 13.9 8.8 1.8 1.5 5 3.6 7 4.5 2 .9 3.8 2 4.1 2.3.3.3 1.4 1.1 2.6 1.7 2.1 1.1 23.5 17 24.4 18.1.3.3 2.2 1.7 4.3 3.1 2 1.4 3.5 3 3.3 3.6-1.3 3.5 3.9 16.9 12.2 31.4 2.8 4.8 10.9 16.2 12.1 17 .5.3 3.3 3.8 6.4 7.7 5.2 6.9 5.5 7.5 4.6 10.8-.5 1.9-.9 7.2-.7 11.7.3 7.8.4 8.2 2.7 8.8 1.4.3 2.6 1.1 2.7 1.8.1.7 0 .8-.3.2-.2-.5-1.7-1-3.3-1-1.9 0-3.3-.8-4.4-2.5-2.2-3.4-7.4-6.5-10.8-6.5-2.2 0-2.9-.6-3.4-2.8-1.1-4.8-1.4-5.7-3.5-8.1-2.2-2.7-8.4-3.7-10.7-1.8-1.9 1.5-14.1 1.1-16.1-.6-.9-.7-3.5-2.2-5.7-3.2-5.5-2.6-6.7-6.1-6.6-18.6l.1-9.7-3.6-2.8c-1.9-1.5-5.5-3.7-7.9-4.9-3.8-1.9-4.4-2-4.4-.6 0 2.5 1.3 3.9 4.2 4.6 1.6.4 3.8 2.3 5.3 4.7 2.3 3.4 2.6 4.6 1.8 7.2-1.1 3.8.6 11.8 3.7 17.3 2.3 4.2 9.4 9.1 16.9 11.7 3.8 1.3 4.7 1.3 6.6 0 1.2-.8 4.7-1.5 7.9-1.7 6.7-.2 7.6.6 7.6 7.5v4.7l4.8.6c8.3 1.1 10 1.6 10.6 3.1.3.8 1.2 1.4 1.9 1.4 2.1 0 4.1 4.7 4.1 9.6 0 2.4.4 4.4.9 4.4.4 0 .5.6 0 1.2-.4.7-.6 2.2-.5 3.3.2 1.6-.2 1.4-2-1-3.5-4.7-13.1-13.5-14.6-13.5-.4 0-3-1.8-5.7-4.1-5.2-4.3-8.5-9.6-8.5-13.6 0-1.6-.6-2.3-2-2.3-2.6 0-2.5 1.8.4 7.7 1.7 3.3 5 6.9 10.8 11.7 4.6 3.8 10.2 9.5 12.6 12.8 2.6 3.5 4.7 5.6 5.4 5.2.7-.5.9-.2.5.8-.3.9.4 2.4 1.7 3.6 1.9 1.6 2.2 2.6 1.7 5.7-.6 4-3.1 6.1-3.1 2.7 0-2.5-1.8-3.8-5.1-3.7-1.6 0-2.6-.4-2.5-1.2.3-1.7 1.6-2.9 1.6-1.5 0 .7.7 1.2 1.6 1.2 1.1 0 .9-.8-1.2-3.5-1.4-1.9-3.3-3.5-4.1-3.5-.8 0-1.2-.4-.9-.8.7-1.1-14.4-19.2-15.9-19.2-2 0 6.3 12.6 9 13.6.7.3 1.6 1.6 1.9 3 .4 1.3 1.3 2.4 2 2.4.9 0 1.2.7.9 1.9-.3 1 0 2.2.6 2.5 1.2.8 1.5 4.5.5 7-.5 1.3-1 1.1-2.7-1.2-1.2-1.5-2.5-3.2-3-3.7-.4-.6-3.5-4.7-6.8-9.3-4.4-6-6.5-8.2-7.6-7.8-1.2.5-1.3.3-.5-.6 1.4-1.8-1-5-3.2-4.2-1.5.6-1.4.9.1 3.8 1 1.7 2.6 4.1 3.7 5.3l1.9 2.3h-3c-2.5 0-3.3-.6-4.1-2.8-.5-1.5-2.1-4-3.6-5.5-1.4-1.5-5.1-6-8.2-9.8-3.9-4.9-5.9-6.8-6.7-6-.7.7-.2 2.1 1.6 4.5 1.5 1.9 2.7 3.9 2.7 4.5 0 .6.6 1.1 1.4 1.1.8 0 1.7 1.3 2.1 2.8.3 1.5 2.1 5 4 7.7 3.8 5.3 4.2 6.5 2.1 6.5-.8 0-1.6.6-1.9 1.2-.3.8-.7.6-1.2-.7-1.4-4.1-2.7-6.2-6-9.7-1.9-2-3.5-3.9-3.5-4.2 0-1.5-6.4-9.6-7.6-9.6-1.2 0-1.2.4-.4 2 .6 1.1 1.4 2 1.8 2 .5 0 1.8 2 3 4.5s2.6 4.5 3.2 4.5c.5 0 1 1.1 1 2.4 0 1.4.5 2.8 1 3.1.6.3 1-.1 1-.9 0-2.6 1.5-1.8 1.8.8.2 2.3 0 2.4-2.8 1.4-1.7-.5-3.5-1.8-4-2.8-.5-1-1.6-2.4-2.3-3.2-.7-.7-3-3.4-5.1-6.1-2.1-2.6-4.2-4.7-4.7-4.7-1.4 0-1 2.6.6 4 .8.6 3.1 4.1 5 7.7 2.6 4.5 4 6.1 4.8 5.5.8-.7 1.7-.5 2.7.6 1.3 1.4 1.2 1.5-.5.9-1-.4-2.1-.3-2.5.3-1.2 1.9-3.6 0-9.5-7.5-3.2-4.1-6.2-7.5-6.7-7.5-1.1 0-1 2.8.2 3.5.6.4 1.9 2.4 3 4.6 1.1 2.1 2.6 3.9 3.4 3.9.7 0 2.1.9 3.1 2s1.3 2 .7 2c-.7 0-1.2-.4-1.2-.9s-1.5-.8-3.2-.7c-3.1.1-3.5-.3-6.5-6.4-1.8-3.5-3.3-7.5-3.3-8.7 0-1.5-2.4-4.7-6.6-9-7.5-7.7-7.5-8-1.8-17.7 3.8-6.4 5.3-13.1 3.5-16.3-.8-1.5-2.5-2.2-6.5-2.7-3-.4-5.9-1.3-6.5-2-.7-.8-.4-3.6.9-9.2 1.9-7.5 1.9-16.4 0-16.4-.4 0-1.1 2.8-1.4 6.2-.4 3.6-1.8 8.1-3.1 10.5-2.3 4.3-2.4 4.7-1.1 9.4.9 3.1 5.3 5.9 9.4 5.9 2.5 0 6.2 2.1 6.2 3.4 0 1.5-4.4 9.8-6.4 12-1.7 2.1-2.5 4.4-2.8 8-.6 7.1.3 9.7 4 11.6 1.7 1 3.8 2.2 4.5 2.9.8.6 1.8.7 2.2.3.5-.4.5-.2.2.5-.4.6.7 3.7 2.3 6.8 1.6 3.1 2.7 6.1 2.4 6.6-.3.5.2 1.2 1 1.5.9.3 1.6 1.1 1.6 1.8 0 .6 1.9 2.4 4.1 4.1 3.6 2.6 3.8 3 2 3.7-3.1 1.1-5.4 5.4-4.7 8.6 1.3 5.7 1.3 7.2 0 7.2-.7 0-1.4-.5-1.6-1.2-.6-1.6-11.6 3.9-13 6.6-.6 1.1-1.5 2.4-2 2.7-1.3.9-2.8 7.8-1.7 8.4.4.3.6 1.2.3 2-.4.9.4 1.9 2 2.6 1.4.7 2.6 2 2.6 2.9 0 1 .7 2.3 1.5 3 2 1.6 1.9 3.1-.1 2.3-2.1-.8-6.4 3.5-9.8 10.2l-2.9 5.5 1.8 4c1 2.2 2.2 4 2.7 4 .4 0 .8.6.8 1.3 0 1.6 5.3 6.9 6.6 6.6 2.8-.5 4.4.3 4.4 2.1 0 1.1-.3 2-.7 2-1.6 0-5.1 6.6-5.7 10.6-.9 6 2.7 12.5 7.6 13.9 2 .5 4 1.3 4.4 1.7.4.4 1.8.5 3.1.2 1.3-.4 2.9-.1 3.7.5.7.6 2 .9 2.8.6 1.1-.4 1.3.2 1 2.7-.6 5.4 1.2 8 8.7 13.2l7.1 4.8 2.6-1.8c2.7-1.9 3.1-2.2 7.4-4.4l2.5-1.3-1.9 2.2c-1.5 1.6-1.7 2.4-.8 3.3.7.7 1.2.9 1.2.5 0-1.8 9 5.6 9.6 7.8.3 1.4 1 2.5 1.5 2.5 1.1 0 1.1.2-.2-4-.6-1.9-1.4-5.7-1.7-8.4-.6-4.6-1-5-4-5.8-2-.5-3.7-1.8-4.4-3.3-.6-1.4-1.4-2.5-1.7-2.5-.3 0-1.9 2-3.4 4.5-3.5 5.4-6.6 5.9-12.8 1.8l-4-2.6.5-8.9c.4-7 .3-8.8-.8-8.8-.7 0-1.9.7-2.6 1.4-.6.8-2.7 2-4.7 2.7-5 1.6-11.2-.9-14.8-6-2.4-3.5-2.5-4.3-1.5-7.7.6-2.2 2.8-5.9 5-8.3 2.1-2.5 3.7-4.8 3.4-5.3-.3-.4-2-1-4-1.4-3.7-.7-8.5-4.8-10.8-9.3-1.2-2.2-1.2-3.6-.1-8.2 1.7-7.6 3.1-9.9 6.6-10.6 1.6-.3 3.2-1 3.5-1.5.6-1-1.7-4.9-4.7-7.9-1.4-1.4-2-3.4-2.1-6.2 0-3.6.5-4.6 3.8-7.4 4.5-3.9 9.6-6.3 13.1-6.3 2.2 0 2.4-.3 1.9-2.6-.7-2.7 1.1-13.2 2.6-14.8.4-.6.8-1.8.8-2.8 0-1.2.5-1.5 1.6-1.1 1.2.4 1.3.7.3 1.4-2.2 1.3 0 2.4 4.9 2.5 2.6.1 5.2.2 5.8.3.6 0 3.2 1.9 5.7 4.1 5 4.4 5.7 4.7 5.7 2.4 0-3.1 3.3-8.6 5.8-9.5 1.3-.5 3.9-1.1 5.7-1.4 2.8-.3 3.6.1 5.8 3.3 3.1 4.4 11.5 18.2 12 19.5.4 1.4 11.1 1.1 14-.5 1.4-.7 3.7-2.9 5-4.9 2.4-3.5 2.4-3.7 1.3-13.8-.6-5.6-1.3-10.1-1.6-9.9-.3.2 0-.2.7-.8 1.5-1.3 1.7-2.8.3-1.9-.5.3-1-.1-1-.9 0-.9-.4-1.6-.9-1.6-1 0-.8-4.7.3-5.7.3-.3.7.2.8 1.3 0 1 .2 2.4.2 3.1.2 2.3 1.7 2.7 2.3.5.3-1.2 1-2.2 1.5-2.2.6 0 .7 1.1.4 2.6-.5 1.7-.3 2.3.4 1.9 1.1-.7 2.5 2.3 6.5 13.3 2.1 5.6 7.6 13.7 14.5 21.1 11.5 12.5 16.2 17.1 17 16.6.5-.3.8 0 .5.7-.6 1.4 18.8 21.1 24.5 25 8 5.4 14 10.3 14.6 12 .3 1 1 1.8 1.7 1.8.8 0 .8.3-.1 1.2-.9.9-.8 1.6.5 3 1.5 1.7 1.5 1.8.1 1.3-.9-.4-1.9-1.3-2.2-2-.3-.8-2.2-2.3-4.3-3.4-8-4.2-23.7-16.5-40.1-31.6-5.4-4.9-10.6-11.9-12.3-16.2-.9-2.3-2.9-3.2-2.9-1.2 0 .6.8 2.3 1.8 3.7 1 1.5 2.4 3.9 3.1 5.3 1.5 3.1 22.6 24.9 24 24.9.5 0 1.6.6 2.3 1.3.7.7 4.5 3.6 8.3 6.5 3.9 2.8 7.5 5.5 8 5.9 2.4 2 12.4 8.3 13 8.3.3 0 1.6.9 2.8 2 1.2 1.1 2.7 1.8 3.3 1.6 1.1-.4 4.4 2.3 4.4 3.6 0 .2-1.8 1.1-4 1.8-3.8 1.3-4.1 1.2-9.4-2.3-3.1-2.1-5.8-3.2-6.1-2.7-1.1 1.7-2.3 1.1-1.8-.9.2-1-.1-2.1-.9-2.3-2.1-.8-27.6-21.4-33-26.6-2.6-2.5-5.1-4.2-5.5-3.8-.9.9 22 23.4 30.1 29.6 12.3 9.4 17.3 12.7 20.2 13.4 1.6.4 3.2 1.3 3.6 1.9.6.9 1.1.8 1.9-.3.9-1.2 1-1.1.6.7-.4 1.6.3 3 2.1 4.5 1.5 1.3 2.9 3.4 3 4.8.2 1.4.8 2.6 1.3 2.8 1.3.5 1.1 5-.3 5.8-1.4.9 1.8 3.4 4.4 3.4 2 0 3.8 3.6 3.8 7.7 0 2.1-.2 2.4-1.5 1.3-1.2-1-1.5-.9-1.5.6 0 1.7 1.3 2.8 8.1 6.9.9.6 3.6 2.5 6 4.3 2.4 1.9 5.1 3.7 5.9 4.2 2.4 1.4.5 2.2-2.4 1-1.5-.5-3.7-1.2-4.9-1.4-1.2-.3-6.6-2.3-12-4.5-5.4-2.3-10.5-4.1-11.3-4.1-.8 0-1.4-.5-1.4-1 0-.6-.5-1-1.1-1-.6 0-3.1-1.3-5.5-3-6.9-4.6-5.2-1.6 1.9 3.3 8.4 5.9 12 7.5 37.5 15.9 3.7 1.3 4 2.3 1.3 3.8-1.1.5-2.3 1.9-2.6 3-1 3.2-6.3 2.1-16-3.3-2.7-1.5-7.9-4.3-11.5-6.3-3.6-1.9-8.3-4.5-10.5-5.7-5.5-3-17.5-15.4-20.2-20.9-2-3.8-5.6-17.8-4.7-17.8.4 0 7.4 7.3 8.2 8.6 1.3 2.1 11.2 8.4 21.9 14 8.1 4.2 10.8 5.2 11.4 4.2.6-.8.1-1.9-1.4-3-2.9-2.3-20.1-10.8-21.7-10.8-.7 0-4.1-2.7-7.5-6.1-3.4-3.3-7.5-6.9-9.1-7.9-4-2.5-8.4-6.5-8.4-7.7 0-.5-1.7-2.7-3.9-4.9-2.1-2.1-5.7-7.1-7.9-10.9-2.3-3.9-4.6-7.7-5.1-8.5-.5-.8-.5.7.1 3.5.6 2.7 1.4 5.4 1.8 6 .4.5 2.9 5 5.4 10 2.6 4.9 5.4 9.7 6.2 10.6 1.8 2 1.8 4.8-.2 9.5-1.5 3.5-1.5 3.9.2 5.1 1 .7 2.9 1.3 4.2 1.3 1.3 0 3.7 1.3 5.3 2.9 2.4 2.5 2.9 3.8 2.9 8 0 3.1-.6 5.5-1.5 6.5-2.1 2.1-1.9 2.4 2 3.2 2 .3 3.3.9 3 1.2-.3.3.1 1.5.8 2.6 3.4 5.2 2.4 9.7-3 14.1-1.4 1.2.2 10.5 2.1 11.7.7.5 0 1.8-2.1 3.7-1.8 1.6-3.3 3.5-3.3 4 0 .6-1.6 1.1-3.5 1.1s-3.5.4-3.5 1c0 1.4-3.1 0-6-2.7-3.2-2.9-3.8-1.3-1 2.6 1.3 1.9 2.6 2.8 3.5 2.4.8-.3 1.5 0 1.5.7 0 .6-.5.8-1 .5-.6-.3-1.3.2-1.7 1.2-.3 1-1.3 2.6-2.2 3.6-1.2 1.5-1.3 2-.2 2.6.8.5-.3 1.1-3 1.5-2.8.4-4.5.3-4.9-.5-.5-.6-1.6-.8-3-.4-1.5.5-2.7.1-4.1-1.4-1.1-1.2-2.3-2.1-2.8-2.1-.4 0-1.2-3-1.8-6.6-.8-5.7-.7-6.9.8-8.8 1.8-2.3 1.8-2.3-2.9-4.3-4.9-2.2-14.6-3.5-18.2-2.6-3.2.8-1.8 2.8 2.1 2.9 5.2.3 11.1 3.4 13.7 7.1 2.6 4.1 2.9 8.3.6 8.3-1.4 0-1.5.7-1 4.2.4 2.3.9 7.6 1.2 11.7.3 4.2 1.2 8.9 1.9 10.4 1.3 2.6 1.3 2.8-.2 2.3-1.3-.5-1.4-.4-.4.8.8 1 .9 1.6.1 2.1-.6.3-.8 1-.6 1.4.3.4.7 3.8 1 7.5.3 3.8.7 7 .9 7.2.1.2.9-.1 1.7-.6 1.2-.8 1.3-1.3.3-3-1.6-2.4-1.6-3.3-.2-2.5.7.5.8-1 .5-4.7-.4-2.9-.8-7.6-1.1-10.3-.2-2.8-.7-6.1-.9-7.5-1.1-6.2-1.3-10.7-.6-12.5 1.2-3.2 5.9 8.5 7 17.5 1.7 13.9 1.9 27 .4 28.5-.8.7-1.4 2-1.4 2.9 0 .8-.8 1.4-1.9 1.3-1.5-.1-1.7-.7-1.3-4.6.5-4.3.4-4.5-1.2-2.8-1.1 1.1-1.7 3-1.6 5.5.4 7.8.1 9.2-1.9 9.2-1.2 0-2-.7-1.9-1.8 0-.9-.3-3.1-.7-4.7-.4-1.7-.7-3.7-.7-4.5 0-.8-.7-4.4-1.5-8-.8-3.5-1.4-8.9-1.4-11.9 0-3.1-.5-6.1-1.1-6.8-.7-.9-.7-1.3 0-1.3.6 0 1-2.4 1-5.5-.1-3-.5-5.5-.9-5.5-.5 0-.9-.5-.9-1.1 0-.5.5-.7 1-.4.6.3 1-.2 1.1-1.2 0-1 .2-3.7.5-6.1.4-2.6.2-4.2-.5-4.2-2.8 0-4.5 22.3-2.9 36 .4 2.5 1.1 9.4 1.8 15.5.6 6 1.5 12.1 2 13.5.5 1.4 1.1 4.6 1.5 7.3.5 3.5 1.1 4.7 2.3 4.7 1 0 .1 1-2.2 2.5-2.1 1.3-4.2 2.9-4.7 3.6-1.9 3.1-5.9-14.7-9.5-42.6-.8-5.9-1-30.5-.3-30.8.3-.1.9-1.9 1.3-4 .6-3.3.5-3.8-1-3.5-1 .2-2.2 2-2.9 4.8-1.5 5.1-3 14-2.6 15.4.1.5.4 5.5.7 11 .4 9.1 1 14.2 2.1 18.6.2.8.6 3.5.8 5.9.6 7.2 2.7 18.5 3.7 20.4.8 1.5.5 1.8-1.9 1.5-3.2-.3-8-4.8-8.8-8.1-1.5-6.3-2.6-19.3-3.2-37.3-.5-16.9-.3-20.9 1-24.8 1.4-4.2 1.4-4.8.1-5.3-.8-.3-1.7-.4-1.9-.1-.9.8-2.3 21.6-2 27.8 1.3 21.8 1.8 28.2 2.6 34.5.5 3.8 1.2 7.8 1.5 8.7.5 1.6-.2 1.8-5 1.8-7.4 0-6.8 2.5.8 3.3 3 .3 6.9 1.3 8.7 2.2 3.1 1.6 3.3 1.6 4.5 0 1-1.3 1.7-1.4 3.1-.6 1.7 1 1.6 1-.4 1.1-2.9 0-2.9 1.4 0 2.8 4.4 2.2 6.5 2.3 7.5.6.6-1.1 1.1-1.3 1.6-.5 1.6 2.5 7.1-.5 6-3.3-.3-.8 0-1.7.7-2.2.7-.4 1-.3.6.3s-.1 1.6.7 2.2c1.1.9 1.5.6 2-1.6.3-1.6 1.5-6.2 2.6-10.3 1.1-4.1 2.1-9 2.2-10.7.1-2.6.4-3.1 1.5-2.2.9.8 1.3.8 1.3.1 0-2 4.5-1.8 9.1.5 2.6 1.2 4.9 2 5.1 1.7.3-.2 1 1.4 1.7 3.6 1.1 3.8 3.1 5.5 3.1 2.6 0-2.3 4.2-11.4 5.5-11.9.6-.3 3.4-.1 6.1.5 5.3 1.1 7.9 3.5 8.9 8 .9 3.9 2.6 3.5 7-1.4 3.9-4.5 5.3-4.9 10-2.8 5.3 2.5 7.7 4.3 6.5 5-.7.4-.8 1.5-.2 3.1.6 1.4.5 3.5-.1 5.2-.7 2.2-.6 3.2.6 4.4 1.4 1.4 1.9 1.4 5 0 3.9-1.9 11.4-1.1 14.5 1.5.9.8 2.5 1.8 3.5 2.1 2.7 1 2.2 7.1-.9 11.3-2.5 3.2-2.7 6.4-.5 6.4 2.6 0 10.1 17.3 8 18.5-.5.4-.9 1.5-.9 2.5 0 2.2-4.2 5.4-8.3 6.4l-2.8.7 2.1 3.4c1.2 2 2.5 6 2.9 9.1.7 5.3.6 5.8-2 8.7-2.6 2.8-3.4 3.1-8.8 3-6.7-.1-6.5-.3-7.6 7.9-.4 3.2-1.1 4.8-2.1 4.8-.8 0-2.3.5-3.3 1.2-1 .6-2.7.8-3.7.4-1.1-.4-2.1-.7-2.3-.6-.2.1-1-1.2-1.7-2.9-1-2.3-1.7-2.8-3.3-2.4-1.7.4-2.1 1.3-2.1 4.5 0 3.1-.6 4.6-3 6.8-3.6 3.3-8 4.7-9.1 2.8-.7-1-1.2-1.1-2.8-.1-1.7 1-1.9 1-1.5-.1.7-1.8-2.2-4.1-3.2-2.5-.4.7-.2 1.5.4 1.7.7.2 1.2.9 1.2 1.5 0 .7 1.1 2 2.4 2.9 1.8 1.3 3.1 1.5 5.7.9 1.9-.5 4.6-1.2 6.2-1.5 1.5-.4 2.7-1.2 2.7-1.9 0-1.6 5.8-7.2 8.2-8 1.1-.4 1.8-.1 1.8.6 0 2.2 13.4 5.5 35.4 8.7 6.4 1 8 .9 8.7-.2.5-.7.7-1.9.4-2.6-.4-1 0-1 1.7-.1 2.1 1.1 2.1 1.2.3 2.5-1 .8-1.6 1.6-1.3 1.9.7.7 17.3.8 26.8.1 6-.4 7.8-.1 9.2 1.1 1.6 1.4 2.7 1.5 10.2.3 8-1.2 12.3-1.1 26.6.8 11.3 1.5 52.2.6 65.5-1.5l6.5-.9c5.5-.6 28.8-5.4 34-6.9 3-.9 7.4-1.8 9.7-2.2l4.2-.5 1.1 4.5c1.1 4.1 1.5 4.5 4.9 5.1 2.1.3 5.8 1.4 8.2 2.5 2.4 1.1 7 2.1 10.1 2.4 5.2.4 6.5.1 13.1-3.3 7.6-3.9 13.5-7.7 16-10.1.8-.8 5.9-2.3 11.3-3.3 12.5-2.3 19.9-4.8 36.9-12.6 4.4-2 10.3-4.5 13-5.5 2.8-1.1 10.7-4.8 17.7-8.2 7-3.5 13.1-6.3 13.7-6.3.5 0 1.6-.6 2.3-1.3 3.4-3.4 10.3-7.7 12.4-7.7 3.2 0 3.9-1.7 1.3-3-2.5-1.4-7.9.4-7.9 2.6 0 .8-.9 1.4-2 1.4-3.3 0-3.4 0-5.5 1.9-1.1 1-4.9 3-8.5 4.6-5.9 2.6-29.9 14.5-36 17.9-10 5.5-44.7 15.7-46.1 13.4-.4-.6-.8-.6-1-.1-.5 1.3-17.9 12.3-19.4 12.3-.2 0-1.3-1-2.5-2.2-1.2-1.3-2-1.7-2-.9 0 .7-1.3 2.8-2.8 4.5-2.6 3-3 3.1-5.7 1.9-1.7-.7-5.4-2-8.3-2.9-3.3-.9-6.8-3-9.2-5.3l-4-3.8.6-6.5c.5-6.4.5-6.6-2.6-9.2-3.2-2.6-5-3.3-5-1.8 0 .5.9 1.7 1.9 2.6 1.1 1 2.1 3.5 2.3 5.7l.4 3.9-3.6-.5c-8.6-1.4-11.7-2.8-16.6-7.4-2.8-2.6-5.9-5.4-7-6.2-2.7-2-9.8-10.8-11.7-14.4-.8-1.7-2.5-6-3.7-9.5-1.2-3.6-2.6-7-3-7.5-.5-.6-1.1-2.7-1.5-4.8-.8-4.1-3.5-5.2-3.5-1.4 0 3.8 3.7 14 7.5 20.8 6.3 11 23 28.2 30 30.9 1.5.6 2.3 1.4 2 2-.4.6-1.4.5-2.8-.4-1.2-.8-3.3-1.7-4.7-2.1-4.8-1.4-9.5-3.9-13.8-7.3-2.3-1.9-4.2-3-4.2-2.4 0 1.9 6.4 7.3 9.2 7.9 1.5.3 2.6.9 2.5 1.4-.1.4 1.4 1.7 3.2 2.7 4.3 2.3 5.1 4.2 1.8 4.2-1.4 0-2.7.4-2.9.9-.1.5-3.5.1-7.4-.9-8.2-2.1-23.3-11.4-31.8-19.5-10.6-10.2-22.5-24.9-29.2-36.1-1.9-3-2.7-.9-1 2.4 5.3 10.3 34.2 44.2 37.7 44.2.5 0 2.2 1.1 3.7 2.5s4.6 3.3 6.9 4.3c7.6 3.1 4.8 4.3-4.2 1.8-10.8-3-18.5-8.1-31.6-20.8-12.2-11.9-22.8-26.2-26.2-35.1-1-2.8-3-2.1-2.3.9 1.7 6.6 11.2 18.7 33.7 42.5 4.7 5.1 15.7 13.4 18.9 14.4 3.1 1 1.3 2.5-2.9 2.5-10.5 0-40.9-29.1-55-52.7-4.4-7.5-6.6-10-7.4-8.6-1.5 2.4 6.4 13.1 23.7 32.4 2.2 2.6 6.1 7.2 8.6 10.4 7 8.9 15.1 16.4 17.8 16.5.6 0 1.2.4 1.2 1 0 .5 1 1 2.3 1 1.2 0 1.7.3 1.1.8-.6.4-1.4 1.4-1.7 2.2-.5 1.3-.6 1.3-.6 0-.1-1.5-2.8-3.2-10.8-6.5-6.5-2.7-45.6-41.9-50.7-50.8-3.9-6.7-5.6-8.3-5.6-5 0 5.1 10.5 17.1 31.9 36.8 9.5 8.8 18.1 16.7 19.1 17.6.9.9 3.1 2.4 4.8 3.4 4.1 2.4 3 3.8-2.2 3-5.7-1-6.5-1.5-19.6-12.3-20.9-17.3-32.9-29.8-41.7-43.5-4-6.3-6.3-8.3-6.3-5.5 0 .7.8 2.5 1.8 3.9.9 1.5 3 4.5 4.5 6.8s3.5 5 4.5 6c.9.9 4.7 5.3 8.4 9.7 9.5 11.2 20.7 21.1 29.2 25.9 11.1 6.2 16.2 11.9 9 10.1-1.4-.4-2.4-.2-2.4.4 0 1.9-1.6 1-6.4-3.5-2.7-2.5-5.3-4.5-5.9-4.5-1.2 0-10-7.4-17.7-14.9-3-2.9-8.6-8.1-12.5-11.4-9.1-7.9-13.7-12.6-20.9-21.4-3.2-4-6.5-7.3-7.2-7.3-2 0-1.8.5 2.7 6.8 6.1 8.4 17.9 20.1 19.6 19.5.9-.4 1.3 0 1.1 1-.4 2.1 3.7 6.4 19.7 20.2 1.7 1.4 7.1 5.1 12 8.2 11 6.9 10.2 6.2 8.6 7.2-.8.5-1 1.4-.6 2.2.6 1 .2.9-1.1-.2-1-.8-4.1-2.7-6.9-4.1-14.9-7.5-17.7-9.3-26.3-16.7-13.6-11.6-17.9-14.6-15.8-11.2.6.9 8.1 7.2 24.4 20.4 2.6 2.1 6.3 4.5 8.3 5.4 2.6 1.2 3.5 2.1 3.2 3.4-.5 1.6-.7 1.6-3.8-.2-2.8-1.7-3.3-1.8-3.9-.4-.3.8-1.1 1.5-1.8 1.5-.9 0-.9-.3 0-1.2.7-.7 1.2-1.5 1.2-1.9 0-.4-3.3-2.5-7.2-4.7-4-2.2-9.1-5.9-11.3-8.1-2.2-2.2-4.3-4-4.7-4.1-.3 0-3.3-2.6-6.6-5.7-3.2-3.2-10.7-10.3-16.6-15.8-5.8-5.5-12.3-12.1-14.3-14.8-2.5-3.2-4.5-4.7-6-4.7-1.3 0-2.3.3-2.3.6 0 1.2 4.5 6.3 15.2 17.2 8.2 8.2 11.9 11.2 13.7 11.3 1.4 0 2 .3 1.4.6-2.4.9-1.3 2.2 6.7 8.3 4.4 3.3 8 5.9 8 5.7 0-.3 1.9 1.3 4.3 3.5 2.3 2.2 5.1 4.4 6.2 4.9 4.7 2.2 8 4.7 8.3 6.2.3 1.5-.1 1.6-2.3.7-2-.8-3.2-.7-4.3.2-1.3 1.1-1.5 1-.9-.4.8-2.3-1.3-3.5-2.7-1.7-1.8 2.4-5.8 2-12.4-1.3-3.5-1.8-6.6-3.6-6.8-4-.7-1.1-3.4-1-3.4.1 0 .5 1.2 1.4 2.8 2 1.5.6 5 2.4 7.7 3.9 2.8 1.6 6.1 2.7 7.5 2.5l2.5-.3-2.5 1c-2.4 1.1-5.5.9-9.5-.6-1.7-.7-1.8-.5-.8.8 1.5 1.7.7 2.9-1.3 2.1-.9-.3-1.2-1.3-.9-2.3.5-1.5-.2-1.9-3.5-2.5-2.2-.4-4.2-1.1-4.6-1.6-.7-1.2-5.4-1.1-5.4.1 0 .6.7 1.3 1.5 1.6.8.4 1.5 1 1.5 1.4 0 1-3.7 2-4.5 1.2-.3-.4-1.6-.7-2.8-.9-3.5-.3-10.8-2.2-15-3.8-4.3-1.7-16.8-9.7-18.7-12-.7-.8-1.7-1.2-2.2-.9-.5.4.4-1.3 2.1-3.7 1.8-2.4 2.9-4.9 2.7-5.6-.9-2.3.5-1.4 4.6 2.9 4.6 4.9 13.6 11.8 15.4 11.8.7 0 1.7.7 2.2 1.6 1.1 2 11 6.6 11.7 5.4.3-.5-.3-1.4-1.4-1.9-1.1-.6-2.5-1.7-3.3-2.4-2.3-2.3-13.5-9.7-14.7-9.7-.6 0-1.1-.4-1.1-1 0-.5-2.5-2.5-5.5-4.5-3-1.9-5.6-3.8-5.6-4.2-.1-.5-.3-3.2-.5-6.1-.2-2.8-.8-6-1.3-7.1-2.2-4 .3-2.3 9.6 6.6 5.4 5.2 11.4 10.4 13.3 11.7 1.9 1.3 4.5 3.2 5.7 4.2 1.1 1.1 3.1 2.6 4.3 3.4 1.3.8 3.6 2.6 5.2 3.9 1.6 1.3 3.2 2 3.6 1.6.4-.4-.6-1.8-2.3-3.1-1.6-1.3-3.7-3-4.5-3.7-.8-.8-3.1-2.4-5-3.7a84.6 84.6 0 0 1-6-4.6c-1.4-1.2-4.7-4.1-7.5-6.5-12-10-14.8-13.2-13.6-14.8 3.3-4.6 5-9.9 4.8-14.2-.4-5.1-1.9-8-6.5-12.4l-3-2.8 1.9-5c2.2-5.4 1.7-10.4-1.6-18.3-1.9-4.7-1.9-5.1.3-3.1 1 .9 4.7 3 8.3 4.6 5.7 2.6 6.7 3.5 8.3 7.3 1 2.4 2.1 5 2.5 5.8 1.5 3 10.2 6.3 17.2 6.4 3.9.1 7.3.7 8.2 1.5 2.4 1.9 12.5 1.6 14.8-.5 1.5-1.4 1.7-2.6 1.2-7.8-.6-6.7.4-9.6 5-15 1.9-2.2 3-2.7 4.4-2.1 1.6.7 1.6.9.2 1.2-2.2.5-3.9 7.7-3.1 12.7 1.1 6.5 2.7 5.3 2.7-2.1 0-4.4.4-6.8 1.2-7 .7-.3 1.3-1.1 1.3-1.9 0-3.6 1.9.1 2.5 4.9.8 6 3 11.7 4.4 11.7.6 0 1.5.9 2.2 2.1.9 1.7.7 2.5-1.1 4.4-1.3 1.3-3.7 2.6-5.4 2.8l-3.1.4 3.3.1c3.7.2 12.2-4.2 12.2-6.2 0-.7-1-1.8-2.3-2.5-3.2-1.7-5.7-6.2-5.7-10.4 0-3.3.2-3.6 4.8-4.7 5.2-1.2 17.5-9.2 20.6-13.4 1.8-2.3 1.9-2.8.6-3.6-2.6-1.7-3.4-1.2-8.9 5.8-1.4 1.7-4.8 4.3-7.7 5.7-4.3 2.2-6.1 2.6-9.4 2-3.6-.6-4-.9-3.4-2.8.3-1.2 1.6-2.9 2.7-3.7 3.7-2.5 10.7-10.4 11.3-12.8.7-2.4 1.9-2.9 2.7-1 .5 1.4 8.7 6.1 8.7 5 0-.4-2.6-3.1-5.7-6-4.8-4.5-6.1-5.3-8.2-4.7-1.5.4-4.2.9-6.3 1.2-3 .4-3.7.2-4.3-1.6-.4-1.2-.4-4 0-6.1.7-3.9.6-4-1.7-3.1-1.5.5-2.5 1.9-2.8 3.9-.5 3-3.2 5.7-8 7.9-6.1 2.7-9.1 3.5-11.6 2.9-2.8-.7-9.6-7.5-9.1-9.1.2-.6 2.3-1.1 4.8-1.3 2.4-.2 4.8-.7 5.4-1.2 1.1-.9 11.8-1.6 14.5-.9.8.2 1.6-.1 1.8-.6.2-.6-.5-1.1-1.5-1.3-6.2-1-6.3-1.1-5.2-4 .6-1.5 2-3.7 3.1-4.9 2.5-2.7 1.5-4.7-2.2-4-1.5.3-4.6 0-7.1-.7l-4.3-1.3.3-4.4c.1-2.4.9-5.2 1.8-6.1 2.6-2.9 1.2-5.2-3.5-5.9-2.3-.3-4.7-1-5.4-1.7-1.6-1.6-1.3-9.1.5-10.9 1.2-1.2 1.3-2.1.5-3.9-.9-1.8-1.6-2.2-3.8-1.8-3.7.8-8.6-1.9-9.4-5.1-.8-3 .2-5 4.3-8.9 2.3-2.3 3.1-3.8 3.1-6.5 0-5-.1-5.1-10.2-9.9-.5-.2-.8.2-.8 1 0 .7 2.1 3.4 4.6 6l4.6 4.8-2.8 1c-1.6.6-3.5 1.3-4.3 1.5-1.1.4-1.1.8-.1 2 1.1 1.3 1 2.1-.1 4.1-1.5 2.9-1.4 7.6.2 11.6 1 2.3 1.7 2.8 4.8 2.8h3.6l.1 5.5c.1 3 .7 6.2 1.4 7 .7.9 1.1 1.7.9 1.9-.2.2-3.4.6-7.1.9-3.6.3-7.1.8-7.7 1.1-.5.4-1.2.2-1.6-.4-.3-.5-1.8-1-3.2-1-3.7 0-10.4-7.6-11.7-13.4-.6-2.6-.6-2.7.9-1.2.9.9 2.6 1.6 3.8 1.7 1.2 0 3 .2 3.9.4.9.2 2.3-.4 3-1.3.8-1 .9-1.3.1-.9-.6.4-1.4.3-1.8-.3-.3-.5-1.5-1-2.6-1-1.9 0-12.9-10.3-12.9-12 0-.3 1.5-2.5 3.3-4.9 2.7-3.6 3.6-4.2 5.9-3.7 1.5.3 3 .1 3.3-.4.4-.6 1.7-.5 3.3.4 4 2 7.2 2.9 7.2 1.9 0-.5-1-1.3-2.2-1.8-1.8-.8-2.4-2-2.6-5-.3-3.5.2-4.5 2.8-6.8 1.6-1.5 3-3.6 3-4.8 0-2.9 2.7-7.7 5-8.9 1.1-.6 2-2.1 2-3.4 0-2.1-.6-2.5-4.8-3.1-3.6-.5-5-1.2-5.8-2.9-.9-2-.7-2.8 2.3-5.6 1.8-1.8 3.1-3.5 2.9-3.8-.9-.9-9.6 3.1-9.6 4.4 0 .9-1.2 1.4-3.3 1.4-2.8 0-3.7.6-5.2 3.5-1.2 2.1-2.3 3.1-3 2.6-.5-.5-2.3-1.1-4-1.4-15.2-2.9-18.4-4.5-27.7-14-5.9-6-6.7-7.7-4.5-9.5 2.2-1.8 11.6.3 20.5 4.5 4.1 2 5.4 3.2 6 5.7 1.2 4.4 10.2 10.4 10.2 6.7 0-.4-1-1.3-2.3-2-1.3-.7-3.1-2.5-4-4-1.6-2.7-1.5-2.9.3-4.6 1.1-1 2-2.4 2-3.1 0-1 1-1.1 3.8-.7 2 .3 5.3.6 7.2.5 2.4-.1 4.3.7 6 2.2 2.3 2.1 9.5 6.6 10.6 6.6.7 0 .4-4-.3-4.1-.5-.1-1.8-.3-3-.4-1.3-.1-3.8-1.3-5.7-2.6-3.3-2.2-3.3-2.4-1.7-4.6.9-1.2 2.1-2.3 2.7-2.3.6 0 1.7-.7 2.4-1.5.9-1.1 1.7-1.2 3.2-.4 2.3 1.3 2.7 1 3-2 .2-1.8-.6-2.9-3.4-4.5-2-1.1-4.9-3-6.4-4.2l-2.8-2 2.4-3.1c1.8-2.5 3.2-3.3 7.1-3.8 6.3-.9 6.7-3.4.9-6-2.4-1.1-4.6-3-5.5-4.8-3.1-6.2-1.6-7.7 7.8-7.7 2.6 0 4.7-.2 4.7-.5 0-1.8-4.1-4.4-8-5-6.3-.9-11-2.6-14.5-5.1-1.6-1.2-5.5-3.4-8.5-5-5.1-2.6-10.6-6.3-15.5-10.6-1.1-.9-4.9-4-8.5-6.9-3.6-2.9-9.4-8-13-11.3-3.6-3.4-9.4-8.6-12.8-11.6-3.5-3-8-7.3-10-9.4-2-2.2-4.9-5.1-6.3-6.5-1.4-1.4-3.4-3.8-4.4-5.4-1.7-2.6-1.7-2.7.1-2.7 1.1 0 3 .6 4.4 1.3 1.4.7 6.1 2.8 10.5 4.5 4.4 1.8 9.6 4.7 11.7 6.5 2 1.8 6.5 5.4 10 8.2 3.4 2.7 11.8 10.4 18.6 17 6.8 6.6 12.7 12.1 13.1 12.3.5.2 1.1-.4 1.4-1.2.3-.8-1.8-3.6-5.5-7.2-8.8-8.5-19.3-23-24.3-33.8-2.4-5.2-4.1-9.7-3.8-10 1.5-1.5 14.7 7.2 26.3 17.3 10.6 9.3 18.1 17.2 25.9 27.6 3.8 4.9 7.8 10.1 8.9 11.4 1.2 1.3 4.1 5.1 6.4 8.3 2.4 3.3 5.3 7.3 6.6 8.8 1.2 1.5 2.2 3.7 2.2 4.8 0 1.2.4 2.4 1 2.7.5.3 1.2 2.8 1.6 5.5.4 2.8 1 5 1.4 5 .4 0 1.1 1.6 1.5 3.6.3 2 1 4.4 1.5 5.3 1.7 3.1 7 23.5 10 38.6 2.7 13.5 2.5 12.6 3.4 14.7.4.9.8 2.2 1 3 .1.7.4 1.7.8 2.3.3.5.9 2.6 1.3 4.5s1.3 4.2 2 5c.8.8 2.3 4 3.5 7 3.4 8.7 9.4 19 21.2 36.6l11 16.3 2.4 11.3c3.4 15.3 3.8 18.4 3.5 24.8-.1 2.5-.2 2.4-2.2-.8-1.2-1.7-2.3-3.2-2.5-3.2-.2 0-.3 3.7-.2 8.2.2 8.3.2 8.3-2.2 8-2.2-.4-2.3-.2-1 1.5 2.2 2.7 5.2 5.3 6.2 5.3.4 0 .8 1 .8 2.2 0 1.3.7 4.8 1.5 7.8 1.7 6 2.3 9.9 2.7 17.2.2 2.7.8 4.6 1.3 4.5 1.7-.6.9-10.6-2.9-32.5-1.2-7.3-1.9-13.2-1.4-13.2.4 0 1.1-1.2 1.4-2.6.6-2.3 1-1.8 3.1 4.3 1.4 3.7 3.8 11.5 5.3 17.3 1.6 5.8 3.6 13.2 4.5 16.5 1 3.3 1.7 6.8 1.7 7.7-.1 2.1 1.6 3.4 2.8 2.2 1.2-1.3-6.3-28.1-10.6-38.1-.8-1.7-1.4-4.4-1.4-6 0-1.6-.8-4.5-1.8-6.5-1.7-3.2-1.7-4.1-.6-8.4 1.4-5.2 1-9.6-1.1-12.9-.6-1.1-1.4-3.4-1.7-5-.3-1.7-1.6-7.1-2.7-12-1.2-5-3-13.3-3.9-18.5-.9-5.2-2.2-9.6-2.7-9.8-1.2-.3-1.9 6.3-.9 8.7.3.9.8 2.9 1 4.6.2 1.6.9 4.3 1.4 5.9.6 1.6.8 3.1.5 3.4-.8.8-5.5-5.5-8.9-11.9-1.8-3.4-5.6-8.5-8.4-11.4-3.5-3.5-5.4-6.4-6-9.1-.5-2.1-2.3-6.1-4-8.8-3.7-5.8-4.2-8-1-4.6 2.6 2.8 3.7 1.1 1.5-2.4-1.7-2.5-1.5-8.3.5-12 1.5-2.9 8.3-9 14.3-13 2.8-1.8 6.1-4.7 7.4-6.4 3-4 4.2-4.1 3.1-.3-1.4 5.1-3.1 7.5-10.5 14.7-7.7 7.5-9.7 11.7-6.4 13.4 2.9 1.6 3.6 1.2 4.2-2.7.4-2.2 1.9-5 3.9-7 3.8-4 5.1-4.2 3.8-.7-1.4 3.5-1.2 10.8.2 12.2.7.7 2 1.2 3.1 1.2 1.9 0 1.9-.3.4-9 0-.3.3-3.5.7-7.3.9-8.3 5.1-16.6 7.2-14.5 1.1 1.1 1.1 2.1.2 5.1-.9 3.1-.8 4.7.6 9.3 1.5 4.7 1.6 7.2 1 15.3-.5 5.3-.8 10.3-.7 11.1.2.8-.2 4.9-.8 9-1 7-.8 8.5 2.5 23a619 619 0 0 0 5.9 24c2.3 8.1 12.6 30.2 16.8 36.1 1 1.5 1.9 3 1.9 3.4 0 .3 1.4 2.7 3.2 5.3 4.4 6.4 4.8 3.4.5-3.6-11.8-19.2-17.7-35.1-24.7-66.5-1-4.8-.1-4.6 3.1.6 2.7 4.5 3.6 6.7 6.4 16.2 4.9 16.3 9.6 26.8 20.3 44.9 5.9 9.9 6.6 10.7 7.9 9.1 1.9-2.7 1.8-3.1-2.7-10.1-2.2-3.5-4-6.7-4-7.1 0-.4-1.1-1.8-2.4-3.2-1.3-1.5-3.6-4.8-5.1-7.5-3.9-7-14.7-37.7-14.2-40.3.2-1.3-.2-2.8-.9-3.4-.8-.6-1.4-2-1.4-3s-.4-2-.8-2.3c-2-1.2-1.2-12.6 1.4-20.2 2.8-8.6 2.9-8-1.5-24.9-1.9-7.7-2.7-12.3-2.1-12.9.7-.7 1-.5 1 .5 0 .9 1.1 2.6 2.4 3.8 3.5 3.3 8.6 15.1 9.7 22.6.9 5.7.8 7.4-1.1 13.6-1.5 4.7-2.1 8.6-1.7 11.5.6 5.3 6.6 18.1 10.8 22.9 3.7 4.2 5.1 3.9 2-.4-4.1-5.8-11.2-22.3-10.9-25.4.3-2.8.6-2.5 5.5 4.9 2.9 4.3 6.7 9.5 8.5 11.5 1.8 2.1 5.8 6.7 8.8 10.3 5.1 6.1 8 8.1 8 5.5 0-.6-2.9-4.1-6.4-7.7-10.7-11.1-19.6-25.9-20.2-33.4-.3-4.9 1.6-5 3.7 0 4 9.6 25.6 34.7 26.7 31.2.2-.6-2.5-4.2-6.1-8-8.1-8.5-13.6-16-17.2-23-1.5-3-3.2-6.1-3.9-6.9-1.2-1.5-3.1-7.9-4.7-15.6-1.2-5.7-2.4-7.9-8.7-15.3-3.2-3.8-4-5.2-2.8-5.2 1 0 2.4-.7 3.3-1.5 2.3-2.3 3.6-1.4 5.2 3.6.8 2.4 3.3 8.8 5.7 14.2 2.4 5.5 4.4 10.3 4.4 10.8 0 1.5 8 14.1 12.4 19.4 2.2 2.7 6.5 7.5 9.3 10.5 7.1 7.4 7.1 4.1.1-3.8-5.9-6.6-12.2-16.4-16.9-26.2-5.3-11.1-10.9-25.3-11.6-29.3-.3-2-1-4-1.5-4.3-.5-.3-.4-1.2.3-2 .6-.8.9-1.4.6-1.4-1.1 0-6.2 2.4-7.7 3.6-3.8 3-7.3 2.6-13.9-1.7-3.5-2.3-6.6-5-6.8-6-.3-1-1-1.9-1.5-1.9-1.8 0 .2-13.8 2.9-20.1 1.4-3.3 2.8-5.7 3.1-5.4.3.2-.3 2.3-1.3 4.4-1.3 2.9-1.6 5.7-1.3 10.5.5 7.8 2.7 10.4 11.2 13.1 9.8 3.1 16.3 1.2 20.7-6 2.2-3.5 2.5-2.2.4 1.5-1.8 3.2-1.8 4 0 4 1 0 1.5-1 1.5-3s.9-4 2.5-5.6c2.9-2.9 2.9-3.5.9-8.9-2-5.7-5.4-21.3-5.4-25.2 0-1.8-.5-3.3-1.1-3.3-1.3 0-.3 15.4 1.3 18.3 1.5 2.8 1.6 13.3.2 14.7-1.4 1.4-4.1-5.3-5-12.3-.4-2.6-1.1-5-1.5-5.3-1.4-.8-1 7.5.6 14.1 1.7 7.1 1.9 10.5.5 10.5-1.6 0-5.2-13.2-5.5-20.5-.2-7.1-1.4-12.7-4.1-20.3-1.7-4.5-1.2-8.4.7-6.5 1.5 1.5 11.2-5.4 16.3-11.5 9.9-12 13.4-17.7 14.9-24.7l.7-3-1.6 3c-.9 1.6-3.2 5.3-5 8.2-1.9 2.8-3.4 5.6-3.4 6.2 0 .5-2.8 3.4-6.2 6.3-3.4 2.9-7.2 6.3-8.5 7.5-3.3 3.1-5.9 4.4-7.7 3.7-.9-.3-2.1.4-3.2 2.1-1.4 2.2-1.6 3.7-.8 10.3.4 4.2.8 11.9.8 16.9v9.3l-4.4 4.5c-2.4 2.5-4.8 4.5-5.3 4.5-.9 0-.7-2.8.9-14.2.4-2.7.2-6.7-.4-9-2-7.5-2.1-10.6-.4-17.5 1.4-5.7 2.4-7.6 6.2-11.3 2.5-2.5 7-6 10-7.7 8.6-5 12.5-10.4 17.5-24.8 1.5-4.4 3.9-9.7 5.3-11.8 3-4.5 2.2-5.9-1.6-3-2.4 1.8-5.6 8.2-9.7 19.3-5.2 14.1-5.9 15-12.4 15.5-7.3.6-15.7 1.8-17.9 2.6-2.5.9-6.8 5.4-7.7 8-.4 1.3-5.7 3.9-7.8 3.9-.4 0-.1-1.7.7-3.8 1.3-3.4 2.5-7.6 3.2-11.2.2-.8 1.5-2.5 2.9-3.7 2.3-2.1 3.7-2.3 12.5-2.3h9.9l5.3-4.3c4.2-3.4 6.3-6.2 10.3-14.1 5.1-9.9 10-16 13.9-17.2 1.1-.4 3.2-1.5 4.5-2.5 3.8-3 5.2-2.4 3.2 1.4-.9 1.8-2.6 4.6-3.8 6.3-2.4 3.4-5.3 10.4-7.8 18.9-.9 3.3-3 8.8-4.6 12.2-2.7 5.9-3.8 7.2-10.9 13.8-1.8 1.6-2.8 3.1-2.2 3.3 1.8.6 12.9-11.8 16.2-18 1.7-3.1 3.9-9.4 4.9-14 1.1-4.6 2.4-9.8 3.1-11.5 1.8-5 3.3-2.9 2.5 3.4-.5 3.9-.3 5.3.4 4.9.6-.4 1.1-1.6 1.1-2.7 0-2 5.7-20 8.3-25.9.9-2 1.6-6.1 1.6-9.2 0-3.1.4-6.6 1-7.7 1.6-2.9 1.4-4.6-.3-3.2-.7.6-2 4.8-2.7 9.3-.9 5.3-2 9-3.4 10.5-2 2.4-12 5.7-13.7 4.7-.5-.3-2.1-.1-3.6.5-1.5.5-4.7 1.5-7.1 2.1-3.1.8-6.1 2.8-10.3 6.7-5.4 5.2-5.8 5.4-5.8 3.1 0-2.4 1-6.3 3.2-12.1 1.6-4.1 5.7-5.8 14.6-5.8 11.7-.1 14.7-1.9 22.6-13.8 2.6-3.9 5.5-7.5 6.4-8 2.7-1.5.5-2.6-2.2-1.1-1.4.7-3.8 3.8-5.5 6.9-3.3 6.1-8.9 10.7-14.2 11.8-2.9.5-3.2.4-2.5-1.3.4-1 .9-2.4 1-2.9.3-1.9 6.7-10 9.7-12.4 1.7-1.3 5.1-3.1 7.7-4 3.4-1.2 4.8-2.3 5-3.8.3-1.9-.1-2.1-2.4-1.7-4.9.9-9.2 3.2-13.8 7.5-2.5 2.3-4.6 4.8-4.6 5.6 0 .7-1.1 1.8-2.3 2.2-2.4.9-3.9 3.8-5.2 9.5-.5 2.5-.7 2.6-1.8 1.2-1.1-1.5-1.6-1.5-6.5-.1-4.3 1.3-5.7 2.3-7.8 5.7-2.3 3.6-2.7 5.5-3.2 15-.4 8.8-.8 10.8-2 10.8-.9 0-3.1.5-4.9 1.2-2.7 1-3.8 1-5.3 0-1.1-.7-2.6-1.2-3.4-1.2-2.1 0-6.6-8.4-6.6-12.3 0-2.7.7-4.1 2.8-5.6l2.7-2.1-4 .6c-2.2.4-4.5 1.1-5.1 1.6-1.6 1.2-2.6 6.1-2.8 12.8-.1 5.1.2 5.9 4.7 11.8 3.4 4.4 5.7 6.5 7.8 6.9 3.5.7 3.8 1.9.7 2.8-6.2 1.8-11.1 5-13.6 8.8-2.3 3.4-2.7 5.1-2.7 10.9 0 5.7-.3 6.7-1.5 6.2-.8-.3-3.5-1.2-6-2.1-8.1-2.6-11.1-9.3-8.9-19.6.8-4.2.9-6.1.1-6.6-.6-.3-1.4-2-1.8-3.6-.4-1.7-3-5.6-5.8-8.7-2.8-3.1-7.8-8.7-11.1-12.5-3.3-3.7-8.2-8.8-11-11.3-2.7-2.5-8.3-7.7-12.3-11.5-4.1-3.9-8.2-7.7-9.1-8.5-23.1-21.4-31.1-28.4-37.2-32.9-8.2-6.1-35.8-27.9-37.4-29.6-1.4-1.5-8.2-6.5-8.9-6.5-.3 0-.6.9-.6 2 0 1.6-.4 1.8-2.2 1.2-2.6-.9-5.8-.5-5.8.8 0 .4 1.7 1.1 3.8 1.5 2 .4 4.2 1 4.7 1.5.6.4 2.1 1.1 3.5 1.5 1.3.4 5.2 2.6 8.7 4.9 7 4.6 8.4 7.1 3.1 5.5-1.8-.5-5.3-1.2-7.7-1.6-4-.5-4.3-.4-3.7 1.3.4 1.1.9 2.8 1.2 3.9.2 1.1.8 2.9 1.3 4s2.6 6.3 4.6 11.5c2 5.2 4.7 11.9 6.1 14.8 1.4 3.2 2 5.2 1.2 5-1.2-.4-5.1-5.7-13.6-18.3-2.6-3.9-5.1-7.5-5.7-8.2-.5-.7-1.6-1.9-2.2-2.7-.7-.8-1.3-1.9-1.3-2.5 0-.5-.4-1.1-.9-1.3-1.6-.5-5.8-18.3-5-20.6.9-2.4-1.6-5.1-3.2-3.5-1.3 1.3 3.8 21.7 6.2 24.2 2 2.1 2.6 6.1 1 6.1-1.7 0-16.1-16.8-16.1-18.8 0-1.1-1.3-1.6-3.3-1.3-1.2.2-9.5-9.1-10.8-12.2-.6-1.5-1.5-2.7-1.9-2.7-1.1 0-2.8-5.5-3.2-9.9-.3-3 0-3.5 2.5-4.2 3-.8 9.2.5 10.3 2.3.4.6-.1 1.5-1 2-2 1.1-2 9.6 0 14.3 1.3 2.9 1.3 2.9 1.4.5 0-1.4-.4-4-.9-5.8-1.3-4.5-.6-5.8 2.9-5.6 4.8.3 13.3 2.6 15.5 4 1.1.8 2.7 1.4 3.6 1.4.9 0 2.2.7 2.9 1.5.7.8 1.8 1.5 2.4 1.5 1.6-.1-4.1-4.6-10.3-8.1-2.9-1.7-5.9-3.5-6.5-4-5.9-4.8-7.5-5.9-8.1-5.9-.5 0-2.6-1.4-4.9-3-15.5-11.4-20.7-14.9-25.1-16.7-2.7-1.1-7.5-3.1-10.5-4.3-14.8-6-15.7-6.6-21.6-13-5.6-6.2-13.7-14.8-21.4-23-1.9-2.1-4.9-5.3-6.6-7.1-1.7-1.9-4.8-5-7-7-2.1-2-5-5-6.4-6.5-1.4-1.6-5-4.9-7.9-7.4-3-2.5-7.1-6-9.2-7.8-2-1.8-6.8-5.3-10.6-7.7-3.7-2.4-7.4-4.9-8-5.5-.7-.6-4.1-2.2-7.5-3.7-3.5-1.5-6.8-3-7.4-3.5-1.4-1-9.5-3.4-14.6-4.2-3.7-.7-3.8-.6-3.8 2.2Zm10.3 6.4c1.5.7 2.7 1.7 2.7 2.2 0 .5 2.9 3.8 6.3 7.5 10.9 11.3 15.2 16.4 20.2 23.6 2.7 3.8 8.2 10.4 12.2 14.5s8.3 9 9.7 10.8c1.3 1.8 5.2 6.2 8.6 9.8 3.4 3.6 9.4 10.3 13.3 14.8 13.4 15.3 16.6 18.3 17.8 16.6.9-1.2 1-1.2.5.4-.6 1.6 3.4 7.3 9.2 13.5 3.1 3.3 9.3 12.3 11.4 16.6 2.2 4.4 2.2 4.7.5 5.9-.9.7-1.7 1.9-1.7 2.6 0 .7-1.3-.5-2.9-2.6a83.1 83.1 0 0 0-4.8-6c-1-1.1-5.4-6.7-9.7-12.5-4.3-5.7-8.7-11.3-9.7-12.4-1-1.1-5.3-6.1-9.5-11a552.9 552.9 0 0 0-21-23.2c-3.3-3.4-8.8-9.4-12.4-13.4-3.6-4-7.6-8.5-9-9.9-1.4-1.5-4.3-4.8-6.5-7.5l-8-9.5c-4.2-4.9-8.2-10.2-15.3-20.4-2.3-3.3-4.7-6.6-5.2-7.3-1.2-1.5-1.3-4.3-.2-4.3.4 0 2 .6 3.5 1.2Zm11.9 1.6c17.9 9.4 21.1 11.9 43.6 34 12.2 12 22.2 22.3 22.2 23 0 .6.4 1.1.8.9.4-.1 3.2 2.5 6.1 5.8 10.8 12 39.6 41.5 40.6 41.5.6 0 2.1 1.9 3.5 4.3 2.2 3.7 2.5 4 2.8 1.9.2-1.3-.5-3.5-1.5-5-2.9-4.3-5.3-11.4-4.7-13.9.6-2.1.8-2.2 3.3-.9 1.4.8 3.4 2.3 4.5 3.4 1.6 1.9 1.7 2.3.3 4.2a4.9 4.9 0 0 0-.7 4.8c.5 1.5 1.1 6.6 1.3 11.5.3 6.7.8 9.2 2.2 10.7 1.3 1.4 1.4 1.9.4 1.5-.8-.3-2.6-2.4-4.1-4.8-4.5-7.1-29.7-30.5-31.2-29-.3.4-.6.1-.6-.6 0-1.7-6.2-4.1-10.6-4.1-3.3 0-4.6-.9-13.3-9.8a694.2 694.2 0 0 1-16.1-16.8c-3.6-3.8-9.3-10.1-12.7-13.8-3.5-3.7-6.3-7.2-6.3-7.6 0-.5-1.7-2.6-3.7-4.8-2.1-2.2-6.3-7-9.3-10.7-3-3.7-6.3-7.7-7.3-8.9-3.1-3.6-14-14.6-14.6-14.6-.3 0-1.2-.4-2-.9-1.2-.8-1.2-1.2-.2-2.5 1.7-2 1-2.1 7.3 1.2Zm-4.7 56.7c4.4 1.8 13.4 4.7 20 6.5 13.7 3.8 21.9 7.7 25.4 12.2 1.4 1.7 7.2 8.6 13 15.3 5.8 6.7 12.5 14.4 14.8 17.1 3.9 4.5 5.7 9.4 3.3 9.4-.5 0-.7.7-.4 1.5.9 2.3-.2 1.8-5.9-2.3-2.9-2.1-7-4.9-9.2-6.2-4.4-2.7-17.4-11.7-27.7-19.3-3.7-2.7-8.1-5.7-9.7-6.6-6.9-3.8-17.4-10.4-19-12-.9-.9-3.6-3.1-6-5-4.4-3.5-12.1-12.5-12.1-14.2 0-1.3 4.1-.2 13.5 3.6Zm113.3 30.8c.8 0 1.2 1.6 1.2 4.4 0 2.3-.3 4.3-.7 4.3-1 0-4.4-3.8-6.7-7.3l-1.8-2.9 3.4.8c1.8.4 3.9.7 4.6.7Zm-6.8 21c6.9 6.6 12.8 12 13.2 11.9.4-.1.9.7 1.3 1.7.3 1.1 2.1 3.1 4 4.5 3.6 2.7 18.7 20 21.8 24.8 1 1.6 2.4 2.8 3.1 2.8.8 0 1.4 1.1 1.4 2.5 0 2.3-.3 2.4-4 1.8l-4-.6.6 3.4c.5 2.6.4 3-.4 1.7-.5-.9-3.8-4.3-7.3-7.6-16.5-15.8-18.9-17.8-20.6-16.8-.5.3-1.6-1.1-2.5-3.2-1.5-3.5-5.8-10.4-11.6-18.4-1.4-2-4.2-6.1-6.4-9.2-2.1-3.1-4.8-6.4-6.1-7.4-2.5-2-4-5.6-3-7.2 1.2-2 7.9 3 20.5 15.3Zm30.7-5.6c3.2 2.5 6 4.7 6.2 4.9.7.6-2.4 2.9-3.9 2.9-1.1 0-1.5 1.1-1.5 4.1 0 3.3-.3 4-1.5 3.6-3.5-1.2-5.3-4-7.9-12-1-3.3.2-8.2 2-8.2.5 0 3.4 2.1 6.6 4.7Zm-55.7 13.4c0 2 9.7 13.7 18.1 21.9 6.3 6.2 16.8 18.5 31.9 37.5 13 16.5 21.3 26 30.7 35.5 4 4.1 10.1 10.6 13.6 14.5 3.4 3.8 10 10.3 14.7 14.4 4.7 4 11.1 9.8 14.4 12.8l5.9 5.4-.9 4.9-.9 5-4-3.6c-2.2-2-6.7-6.2-10-9.3-3.4-3.1-8.3-7.6-11-10-18.7-16.5-51.1-50.7-58.3-61.4-3.3-4.9-5-4.8-2 .2 14 23.3 56.9 67.9 86.1 89.4 2 1.6 3.7 3.2 3.7 3.6 0 .5-2.4 1.2-5.2 1.5-2.9.4-5.5 1.1-5.8 1.7-.7 1.1-25-22.7-45.5-44.6-8.3-8.8-16.1-17.1-17.5-18.6-1.4-1.4-6.1-6.6-10.5-11.5s-9.2-10.3-10.8-11.9c-3-3.1-14.7-19.9-14.7-21.1 0-.4-2.9-4.6-6.5-9.5-11.1-14.9-19.4-37-17.6-47.2.2-1.1 2.1-.8 2.1.4Zm61.5 15.1 16.1 16.1c4.1 3.9 12.1 12.3 30.4 31.7 1.4 1.5 4.2 4.7 6.3 7.3 2 2.5 7.3 8.3 11.7 12.8 7.8 8.1 9.3 10.2 6.8 9.6-1.9-.3-2.5-1-21.4-19.5-9.7-9.4-18.6-17.8-19.9-18.5-6.8-3.8-22.5-17.1-22.5-19.1 0-.4-1.8-3-4-5.6-2.2-2.6-4-5.1-4-5.4 0-.4-1.1-1.9-2.5-3.4a35.9 35.9 0 0 1-4.7-7.2c-1.3-2.5-2.6-4.7-2.9-5-1-.8-2.1-5-1.3-5 .4 0 5.8 5.1 11.9 11.2Zm-34 2.8c.3.5.1 1-.4 1-.6 0-1.1-.5-1.1-1 0-.6.2-1 .4-1 .3 0 .8.4 1.1 1Zm5.3 7.5c4.1 2 19.5 14.2 20.4 16.3.2.4 2.6 2.7 5.3 5.2 2.8 2.4 6.4 6.5 8.1 9 1.7 2.5 5 7.2 7.3 10.5s4.9 7.1 5.8 8.5c1 1.4 4.1 5 7 8 2.8 3 6.3 6.8 7.7 8.5l2.6 3-4.7.6-4.8.6-9.5-9.8c-9.8-10.2-27.6-30.5-30.7-34.9-2.3-3.2-14.2-17.9-16.8-20.6-4.5-4.7-6.5-7.5-5.9-8.5.4-.6 1.1-.6 2 .2.8.7 3.6 2.2 6.2 3.4Zm84.5 11.7c1.2.6 2.3.5 3.3-.3 1.2-1 1.3-.9.8.4-.4 1.2 1 2.4 5.7 4.8 3.5 1.7 8.2 4.6 10.5 6.3 2.3 1.7 5.7 3.9 7.4 4.9 4.7 2.5 3.2 3-3.6 1.1-9.5-2.7-12.3-2.9-13-1-.9 2.4 1.6 13.3 3.6 15.9 1 1.2 2.1 3.3 2.5 4.7.8 2.9 7.7 13.5 15.3 23.8 5.8 7.8 6.3 10.6.9 5.5-1.7-1.7-4.3-4.1-5.7-5.4-1.4-1.3-4.3-4.7-6.5-7.4-2.2-2.8-4.3-5.2-4.8-5.3-.4-.2-1.4-1.7-2.3-3.4-.8-1.6-2.1-2.7-2.8-2.5-.7.3-1.9.1-2.7-.4-1.2-.7-1.2-1-.1-1.8 1.2-.7 1.1-1.4-.2-4-.9-1.7-2.1-3.1-2.6-3.1a1 1 0 0 1-1-1c0-.6-1.6-3.4-3.5-6.3-3.1-4.6-8.1-17.3-9.9-25-.7-2.8-.6-2.8 3.1-2.1 2.1.4 4.6 1.1 5.6 1.6Zm-37.9 13.4c10.9 6.3 23.3 16 33.7 26.5 6.7 6.8 8.8 9.6 9.4 12.6.5 2.1.7 4.2.6 4.7-.1.5.4 1.6 1.2 2.5.8.9 1.7 2.9 2.1 4.6.4 1.6 1.6 4.9 2.8 7.3 1.1 2.4 1.8 4.6 1.5 4.9-.3.3-5.2-2.9-10.9-7.1-5.7-4.2-12.1-8.5-14.4-9.5-2.3-1.1-5.3-3.5-6.8-5.3-1.4-1.8-3.1-3.9-3.7-4.6-16.5-20.2-26.9-35.7-26.9-40.2 0-2 3.5-.9 11.4 3.6Zm62.4 6.5c5.8 1.5 10.1 4.3 25.4 16.7 6.6 5.3 13.8 11.1 16 12.9 7 5.7 12 10.4 11.5 11-.3.3-3.4-1-6.9-2.9-15.1-8.3-21.6-11.3-22.5-10.4-2 1.9 8.7 27.2 11.9 28.2 1.1.3 2.7 2.2 3.5 4.2.8 2.1 3.4 6.1 5.6 9.1 2.3 3 4.3 6.1 4.3 7 .1.9.5 2.4.9 3.3.4 1.1.3 1.8-.4 1.8-.6 0-1.1-.5-1.1-1.1 0-.6-.7-.9-1.4-.6-1 .4-1.3.1-.9-.9.3-.7.1-1.4-.4-1.4-3.6 0-27.2-24.3-33.8-34.9-.5-.8-2.9-4.1-5.2-7.3-2.4-3.1-4.3-6-4.3-6.3 0-.4-1.6-3.4-3.5-6.5-3.2-5.2-5.9-11.8-8.5-20.3-.8-2.5-.7-2.7 2.1-2.7 1.7 0 5.1.5 7.7 1.1Zm-104.6 23.6c.9 1.6 2.7 3.9 4 5.3 1.3 1.4 5.9 7.2 10.2 13 4.3 5.8 13.8 16.4 21 23.6 7.2 7.2 16.5 16.6 20.7 21 7.2 7.4 17.6 16.4 22.2 19.1 2.6 1.5 3.7 3.3 3.7 6 0 2.8.1 2.8 4.5.3 7-3.9 13.9-1.9 23.3 6.7 2.6 2.4 5 4.3 5.4 4.3.5 0 .8.6.8 1.4 0 .7.7 1.9 1.5 2.6.8.7 1.5 1.9 1.5 2.8 0 .8 1.1 3 2.6 4.9l2.5 3.3-2.6 1c-1.5.6-3 1-3.5 1s-1.7 1.1-2.6 2.5c-1.6 2.4-1.5 2.8 1.2 8.1 1.5 3 4.3 6.8 6.1 8.4 3.1 2.8 4.5 4.9 2.3 3.5-.5-.3-2.8.3-5 1.4-3.6 1.7-4.4 1.8-6.8.5-1.5-.7-3.3-1.4-4-1.4-1.9 0-19.5-11-21-13.1-.7-1.1-1.7-1.7-2.2-1.4-.4.2-1.3-1.4-1.9-3.8-.9-3.6-.8-4.4.6-5.5.9-.6 2.9-1.2 4.4-1.2 1.6 0 2.9-.7 3.3-1.6.6-1.5.8-1.5 2.4-.1.9.8 3.7 1.9 6.2 2.5 2.5.5 5.4 1.3 6.5 1.7 2.8 1.1 1.4-.2-6.3-6-4.2-3.2-8.4-7.6-11.7-12.3-3-4.4-5.6-7.1-6.5-6.9-.8.2-1.4.9-1.3 1.5.5 1.9-1.1 1.4-4.7-1.8a29.1 29.1 0 0 0-4.1-3c-.3 0-3.5-2.8-7.1-6.3a7896.24 7896.24 0 0 0-41.3-39.4c-1.2-1 1.3 2.5 4.2 5.7 1.2 1.4 4.3 5 7 8.1 7.8 9.1 40.6 40.4 48.8 46.5 4.1 3.1 7.3 6 7 6.4-.3.4-2.5 1.1-5 1.4-2.5.4-5.1 1.4-5.9 2.2-1.9 1.8-2.1 1.6-29.9-25.6-18.9-18.6-20.4-20.3-31.3-36.7-6.3-9.5-11.4-17.6-11.4-18.1s-.6-1.4-1.3-2c-1.8-1.5-7.1-12.6-8.8-18.2-1.4-4.5-1.4-15-.1-15 .4 0 1.5 1.2 2.4 2.7Zm145.6 15.7c2.2 1.4 7.1 4.1 10.9 6 11.9 6.2 14.1 9.1 7 9.1h-3.2l.3 9.4c.1 5.1.7 10.2 1.3 11.2.7 1.5.6 1.9-.5 1.9-.9 0-2.2-1.3-3-2.8-.8-1.5-2.6-3.7-4-4.7-1.4-1.1-2.6-2.4-2.6-3 0-.6-1.1-2.4-2.5-4-8-9.6-16.5-24.4-16.5-28.9 0-1.4.6-1.4 4.4.8 2.4 1.3 6.2 3.6 8.4 5Zm-108.8 7.6c0 .5-.5 1-1.1 1-.5 0-.7-.5-.4-1 .3-.6.8-1 1.1-1 .2 0 .4.4.4 1Zm-86 7.6c0 .8.5 1.4 1 1.4.6 0 1 .4 1 1 0 .5-.7 1-1.5 1s-1.5-.6-1.5-1.4c0-.8-.3-2.2-.7-3.2-.4-1.2-.3-1.5.5-1 .7.4 1.2 1.4 1.2 2.2Zm317.9.7c-3.6 3.2-11.9 14.8-11.9 16.5 0 .5-1.8 2.8-3.9 5a16.3 16.3 0 0 1-15.9 4.7c-3.1-.6-13.1-7.5-14.4-9.9-.4-.7-1-4-1.4-7.2l-.6-5.9 3.1 5.3c1.7 3 3.3 6.2 3.6 7.2.6 1.8 4.9 3 11.1 3 4.3 0 11.2-5 15.8-11.4 4.2-6 10.2-9.6 17.6-10.5.3 0-1.1 1.4-3.1 3.2Zm-306.9-.3c0 .5-.2 1-.4 1-.3 0-.8-.5-1.1-1-.3-.6-.1-1 .4-1 .6 0 1.1.4 1.1 1Zm207.7 3.6c6.1 2.1 15.4 10.1 20 17.3 2.7 4.2 3.7 7.1 4.4 12.5.5 3.9 1.1 8.8 1.4 10.9l.5 3.7-5.2-3.7c-6.9-5-22.5-20.8-24.8-25.3-2.8-5.4-3.8-17-1.5-17 .2 0 2.6.7 5.2 1.6Zm-228.2 4.3c-.3.6-1.4 1-2.3 1-1.5-.1-1.5-.2.1-.6.9-.2 1.7-.9 1.7-1.5s.3-.9.6-.5c.3.3.3 1-.1 1.6Zm156-.9c.3.5.1 1-.4 1-.6 0-1.1-.5-1.1-1 0-.6.2-1 .4-1 .3 0 .8.4 1.1 1Zm-102.1 3.5c.3.9 0 1.5-.9 1.5-.8 0-1.5-.7-1.5-1.5s.4-1.5.9-1.5 1.1.7 1.5 1.5Zm-7.9 9.5c.3.6-.1.7-.9.4-1.8-.7-2.1-1.4-.7-1.4.6 0 1.3.4 1.6 1Zm170.5 2c0 .5-.7.7-1.5.4-.8-.4-1.2-1-.9-1.5.6-1.1 2.4-.2 2.4 1.1Zm-167 3.3c0 .5-.4.5-1 .2-.5-.3-1-1.4-1-2.3 0-1.5.2-1.5 1-.2.5.8 1 1.9 1 2.3Zm175.6.3c-.5 1.4-.9 1.5-1.9.5-.9-.9-.9-1.4.3-2.1 1.8-1.1 2.4-.6 1.6 1.6Zm-8.1 3.9c3 1.3 5.9 2.5 6.3 2.6 3.2.7 6.2 2.8 12 8.4 8.1 7.8 16.8 14.4 20 15.2 1.3.3 3.1 2.2 4.3 4.6 1.8 3.5 1.9 4.1.6 4.9-.9.4-2 2.3-2.7 4.2l-1.1 3.3-3.3-3.1c-1.9-1.7-4.7-4.1-6.3-5.4-2.7-2.3-29.6-28.9-34-33.8-3.8-4.2-3.4-4.3 4.2-.9Zm-45.6 17.5c.5 0 1.5.9 2.1 2 1 1.9 6.9 5 9.6 5 1.1 0 14.2 5.6 15.3 6.6.2.2-.2 1.7-.9 3.4-1.3 3.1-1.3 3.1-3.4 1.2-3.3-3.1-6.2-4.2-10.5-4.2-3.2 0-4.4.5-5.7 2.5-2.1 3.2-2.5 3.1-4.8-.4a17 17 0 0 0-4.5-4.4c-4.2-2.5-11.3-10-12.7-13.4-.8-1.8-1.4-5.1-1.4-7.4v-4.1l7.9 6.6c4.3 3.6 8.4 6.6 9 6.6Zm133.1-4c1.2.7.7 1.2-2.2 2.4-2 .9-4.5 2.8-5.5 4.2-4.1 5.9-12.3 13.4-14.6 13.4-1.3 0-2.7.3-3 .7-1.3 1.2-8.6 1.4-10.8.3-2.8-1.6-9.9-8-9.9-9.1 0-.5 2.1.3 4.7 1.7 3.9 2 5.5 2.3 9.3 1.8 6.8-1 9.9-2.6 17.2-8.8 8.4-7.1 11.7-8.6 14.8-6.6Zm-85.5 1c.3.5.1 1-.4 1-.6 0-1.1-.5-1.1-1 0-.6.2-1 .4-1 .3 0 .8.4 1.1 1Zm3.5 0c0 .5-.2 1-.4 1-.3 0-.8-.5-1.1-1-.3-.6-.1-1 .4-1 .6 0 1.1.4 1.1 1Zm6 7.9c0 2.4 10 12.7 17.5 18.1 4.7 3.3 8.9 6 9.4 6 .4 0 1.3 1.9 2 4.2.7 2.4 1.9 5.8 2.7 7.6 1.7 3.9 1.7 4.2.3 4.2s-13.3-8.3-17.8-12.4c-6.4-5.9-12.1-14.8-13.9-21.6-.6-1.9-1.3-4.3-1.7-5.3-.4-1-.3-1.7.4-1.7.6 0 1.1.4 1.1.9Zm63 11.8c-.5 1.6-1.4 4.6-2.1 6.8-1.3 4.2-3.8 7.1-9.8 11-5.7 3.8-8.8 8.5-10 15-.6 3.2-2 6.8-3.1 8-1.1 1.2-2 2.7-2 3.3 0 .7-.4 1.2-.8 1.2-1.6 0-2.1-1.3-1.3-2.9.5-.9 1.2-3.8 1.6-6.4.7-4.4.5-4.9-1.4-5.4-1.1-.3-1.8-1-1.5-1.5.3-.5 1.2-.7 2-.4 1 .4 1.4-.2 1.4-2 0-5.8 6-13.4 13.7-17.3 2.3-1.1 6.1-4.3 8.5-7.1 4.9-5.7 6-6.2 4.8-2.3Zm-100.3 2.3c2.1 1.1 4.3 2 5 2 .7 0 1.3.7 1.3 1.5 0 .9 1.6 3.1 3.5 5.1 1.9 1.9 3.5 3.9 3.5 4.3 0 .5-1.9 1.9-4.1 3-3.6 1.9-4.4 2-6.3.8-1.1-.8-3.8-1.9-5.8-2.6-4.7-1.5-9.2-7.3-8.4-10.6.5-2 4.3-5 6.9-5.4.4-.1 2.4.8 4.4 1.9Zm89.2.5c-.1.6-3 2.8-6.3 5-3.4 2.2-7 5.4-8.1 7.2-1.1 1.8-2.3 3.2-2.7 3.3-.4 0-1.1-1.6-1.7-3.6-.8-2.9-.7-3.9.7-5.4.9-1 2.5-3 3.6-4.5 1.5-2.2 2.4-2.6 4.6-2.2 1.5.4 4 .2 5.6-.3 3.4-1 4.6-.8 4.3.5Zm-41.2 14.5c2.1 2.2 4.6 4 5.6 4s1.6.4 1.3.9c-.6.9 11.9 11.1 13.6 11.1.5 0 .6.5.2 1.2-.4.6-1 2.5-1.3 4.1l-.6 2.9-4.2-3.5c-5.9-4.9-15.1-15.5-17-19.7-.9-1.9-1.8-3.8-2-4.3-1-1.9 1.1-.3 4.4 3.3Zm43 5c-.1 2.3-.7 4-1.4 4-.6 0-1.4 1.2-1.7 2.7-.2 1.6-1 5.9-1.7 9.6-1.3 7.5-3.1 10.1-10.8 15.2-2.4 1.6-4.5 3.5-4.8 4.2-.3.7-.9 1.3-1.3 1.3s-3 2.3-5.9 5.2c-3.5 3.5-4.8 5.5-4.1 6.2.6.6 3.3-1.3 8.2-6 4-3.9 9.1-8 11.3-9.3 6.9-3.8 11.6-13.6 11.2-23.4-.1-3.2.2-4.7 1.1-4.7 1.3 0 1.6 3.4 1.3 15.5-.2 10.4-3.7 16.9-11.1 20.7-7.3 3.7-14.6 10.6-15.8 15-.5 1.8-.7 4.9-.4 6.8.6 4.3.3 4-3.7-3.3-2.2-4-3.4-7.6-3.8-12.1-.5-5.6-.3-6.8 2.2-10.9 1.5-2.6 3-4.7 3.4-4.7.5 0 2.2-1.3 3.9-2.9 1.7-1.6 4.7-3.4 6.7-4 4.3-1.2 7.5-3.7 7.5-6 0-.9 1.4-5.4 3-10 2.3-6.5 2.7-8.7 1.7-9.3-.9-.6-.9-.8 0-.8.6 0 1.5.4 1.8 1 .7 1.2 2.6 1.4 2.4.2-.3-1.4.1-4.2.5-4.2.3 0 .4 1.8.3 4Zm-88.5 2.5c2 2.7 6.5 8.1 8.5 10.1l2.3 2.1-4.7 1.8c-4.3 1.6-4.5 1.9-2.8 3.1 1.3.9 1.4 1.4.5 1.4-.7 0-2.1-.6-2.9-1.3-.9-.8-3.8-2.2-6.6-3.2-5.4-1.9-11-6.5-11.8-9.6-.4-1.3.3-2.5 2-3.7 1.4-.9 3.2-2.4 4-3.3 1.4-1.5 1.9-1.5 6.1 0 2.6.9 5 2 5.4 2.6Zm119.1 19.5c.1.9-.7 1.6-2 1.8-1.3.2-2.3.9-2.3 1.6 0 1.5-8.3.7-11.4-1.1-1.8-1-1.8-1.1.5-2.3 3.4-1.9 7.5-7.6 8.4-11.8.2-1 .9-3.1 1.5-4.7 1.2-2.9 1.3-2.7 3.2 6 1 4.9 2 9.7 2.1 10.5Zm-57.3-1c1.1 0-.1 4-2.1 6.8l-1.7 2.3-3.2-3.2c-4.1-4.2-6.6-10.9-6.1-16.8.1-.7 2.8 1.4 6.1 4.8 3.4 3.3 6.5 6.1 7 6.1Zm-119.5-2c.3.5-.1 1-.9 1-.9 0-1.6-.5-1.6-1 0-.6.4-1 .9-1 .6 0 1.3.4 1.6 1Zm55.5 1c0 .5-.7 1-1.5 1s-1.5-.5-1.5-1c0-.6.7-1 1.5-1s1.5.4 1.5 1Zm-80.5 16.3c.1 1.5-.4 2.7-1.1 2.7-.7 0-1-.8-.7-2.1.4-1.2 0-2.5-.8-3.1-1.1-.7-.9-.8.6-.6 1.4.2 2 1.1 2 3.1Zm46.5 4.2c.7.8.8 1.5.2 1.5-.5 0-1.5-.7-2.2-1.5-.7-.8-.8-1.5-.2-1.5.5 0 1.5.7 2.2 1.5Zm141.6 8.9a8.1 8.1 0 0 1 1.4 3.8c0 1 .4 2.6.9 3.6.5.9 1.7 4.7 2.5 8.4 1.8 7.4 1.3 11.5-2.4 21.5-1.5 3.9-1.8 6.6-1.4 11.2.6 6 .6 6.1-1.7 5.3-3.6-1.4-5.6-8.1-4.1-13.4.7-2.4 2-7.8 2.9-12 1.7-7.5 1.7-8-.5-19-2.6-13.1-2.6-13.8-.9-17.5 1.2-2.7 1.2-2.7 1.5 1.7.2 2.4 1 5.3 1.8 6.4Zm-136.9-6.8c-.3.3-1.2.4-1.9.1-.8-.3-.5-.6.6-.6 1.1-.1 1.7.2 1.3.5Zm-4.2 1.4c.3.5.1 1-.4 1-.6 0-1.1-.5-1.1-1 0-.6.2-1 .4-1 .3 0 .8.4 1.1 1Zm6 2c.3.5.1 1-.4 1-.6 0-1.1-.5-1.1-1 0-.6.2-1 .4-1 .3 0 .8.4 1.1 1Zm38.5 1.2c2.2 1.3 3.8 2.7 3.6 3.3-.3.5-1 2.7-1.7 4.8-1.2 3.7-1.4 3.8-4.8 3.2-4.6-.9-8.9-3.4-9.7-5.7-.3-1-.3-3.1.1-4.6.5-2.3 1.1-2.7 4.5-3 2.7-.2 5.3.5 8 2Zm-24 1c1.9.5 4.5 1.2 5.8 1.5 1.2.3 2.2.8 2.2 1.2 0 .9 7.1 8 10.6 10.7l2.8 2.1-2.5 3.2c-2.4 3.1-2.5 3.1-8.8 2.5-8.9-.8-16.7-4.4-21.8-10.1-2.4-2.5-4.3-5.2-4.3-6 0-.7-.4-1.3-.9-1.3s-1.2-.7-1.5-1.6c-.3-.8-.2-1.2.4-.9.6.3 1 .2 1-.2 0-.5.8-.9 1.8-1 3.7-.4 7.4-1.2 8-1.8.3-.3 1.3-.3 2.1.1.9.3 3.2 1.1 5.1 1.6Zm-16.5 9.8c-.3.5-1.1 1-1.6 1-.6 0-.7-.5-.4-1 .3-.6 1.1-1 1.6-1 .6 0 .7.4.4 1Zm-40 3c.3.5-.1 1-.9 1-.9 0-1.6-.5-1.6-1 0-.6.4-1 .9-1 .6 0 1.3.4 1.6 1Zm11.5 8.2c2.1 1.8 7.6 5.3 12.1 7.7 4.6 2.4 8.8 4.7 9.4 5.3 1.3 1.2-1.6 3-3 1.8-.6-.5-2-.9-3-.8-1.1 0-3.5-.3-5.4-.7-2.5-.6-3.2-.5-2.7.3 1 1.7-1 1.5-4.5-.4-1.7-.8-3.8-1.3-4.7-.9-.9.3-1.3.3-.9-.1.7-.7-2.6-6-5.2-8.3-1.2-1-1.3-1.5-.3-1.8.6-.3 1.2-1.3 1.2-2.2 0-4.1 2.1-4 7 .1Zm-8 10.4c0 .8-.4 1.2-1 .9-.5-.3-1-1-1-1.6 0-.5.5-.9 1-.9.6 0 1 .7 1 1.6Zm2.5-.6c.3.5.1 1-.4 1-.6 0-1.1-.5-1.1-1 0-.6.2-1 .4-1 .3 0 .8.4 1.1 1Zm-.8 5.2c-.3.8-.6.5-.6-.6-.1-1.1.2-1.7.5-1.3.3.3.4 1.2.1 1.9Zm2.5 1.3c-.6 3.4-1.2 3.2-1.2-.6 0-1.6.4-2.8.9-2.5.4.3.6 1.7.3 3.1Zm-4.4-.3c.7.7 1.2 1.9 1.2 2.7 0 1.4-.1 1.4-1 .1-.5-.8-1-1.1-1-.7 0 .9-3-1.8-3-2.7 0-1.1 2.6-.6 3.8.6Zm11 1.9c-.3.8-.7.3-1.1-1-.4-1.7-.3-2.1.5-1.3.5.5.8 1.6.6 2.3Zm34.9 1.1c6.6.1 7.2.3 8.3 2.6.9 2 .8 2.8-.4 4.1-1.5 1.4-1.6 1.4-1.6-.1 0-1.4-1.2-1.5-9.2-1.1-9.5.4-18.8 2-18.8 3.1 0 .4 6.1.5 13.6.4 17.2-.5 20.4 0 20.4 3.4 0 2.3-.2 2.4-5.3 1.8-4.4-.5-5.5-.3-6 1s.1 1.6 3.8 1.6c4.2 0 4.6.2 6 3.6.8 2 1.5 3.9 1.5 4.3 0 .3-2.4.7-5.3.9-7 .3-21.8 4.6-23.4 6.8-.7 1-1.3 2.6-1.3 3.7 0 1.7.2 1.7 3.2-.5 5.6-3.9 10.6-5.7 18-6.3 4.8-.4 7.9-1.2 9.1-2.3 1.9-1.6 1.9-1.6 1.3 1.5-.4 1.8-.3 3.4.3 3.8.6.3 1.1 1.5 1.1 2.6 0 1.6-.8 1.9-4.2 2-6.5.2-7.7.4-16 2.9-4.3 1.3-7.8 2.8-7.8 3.3 0 .4-1.2 2.4-2.6 4.3-1.5 1.9-2.7 4.7-2.8 6.2-.1 1.5-.8 3.7-1.7 5-1.4 2-1.7 2.1-2.3.7-.3-.9-.3-2.1 0-2.7.4-.6.2-1.3-.3-1.7-1.6-1.1-4.2-9.4-4.8-15-.3-3.8 0-6.2 1.1-8.5 3.1-5.8 3.4-6.6 3.4-8.2 0-1.1.6-1.4 2-.9 1.3.4 3.6-.1 5.9-1.3 2.1-1.1 5.9-2.4 8.5-2.7 2.8-.5 4.6-1.2 4.6-2 0-.7.6-1.6 1.3-1.8.6-.3-.3-.6-2.1-.6-3.8-.1-16.7 3.3-19.1 5.1-3.9 2.9-8.1 7.3-8.1 8.4 0 3.2-2.2 2.2-3.7-1.5-.9-2.3-2-4.1-2.5-4.1-1.8 0 .3-10.5 2.8-14 4.5-6.4 5-6.8 8.3-7.3 1.8-.3 3.4-.7 3.6-.9.2-.2 3.4-.2 7.2-.1 3.7.2 10 .4 14 .5Zm-47.7 1.8c1.2.8 1.1 1-.7 1-1.2 0-2.5-.5-2.8-1-.8-1.3 1.5-1.3 3.5 0Zm14.5 1c.3.5.1 1-.4 1-.6 0-1.1-.5-1.1-1 0-.6.2-1 .4-1 .3 0 .8.4 1.1 1Zm-6.5 6.2c0 .5-.7.3-1.5-.6-.8-.8-1.5-1.8-1.5-2.2 0-.3.7-.1 1.5.6s1.5 1.7 1.5 2.2Zm-3 4c1.7 3.4 3 6.7 3 7.4 0 .7.6 1.7 1.3 2.1.7.4 1.8 2.4 2.4 4.3.7 1.9 2.3 6.8 3.7 10.9 2.1 6 2.6 9.7 2.9 20.3l.4 13-3.6 1.6c-2 1-4 2.1-4.4 2.7-.5.5-.6-.4-.2-2 .4-1.7.9-6.8 1.1-11.5.3-4.7.6-10.5.7-13 .7-9.5-4.7-26.1-10.7-33.5-2.7-3.3-4.6-2.8-2.8.8 2.6 5.2 8.1 21.7 9.1 27.3 1.3 6.8 1.3 20.7.1 27.1-.5 3.1-.4 4.6.6 5.4.8.6 1.1 1.5.9 2-.5.8-7.4-3.3-8.5-5-.7-1.2-7.2-2.9-8.8-2.4-.6.3-.9.9-.6 1.5.3.5-.3.4-1.4-.3-2.1-1.3-3-.9-8 4.1-2.4 2.4-2.8 2.5-5.6 1.2l-3.1-1.4-.1-9.6c-.2-17.7-.4-20.3-1.4-19.7-.6.4-.8 5.9-.6 14.1.2 7.3 0 13.4-.4 13.4s-2-.3-3.6-.6l-2.9-.5.3-13.7c.2-9.3-.2-15.9-1.1-20.5l-1.5-6.9 3.6.4c2.8.4 4.1 0 5.4-1.6 1.4-1.7 1.7-1.7 1.2-.4-.4 1.2-.1 1.8.8 1.8 3 0 6.4 20.9 5.4 33.5-.3 4.4-.2 7.6.4 8 1.9 1.2 1.6-20.2-.5-34.3-.9-5.8-1.3-10.7-1-11 1.9-1.9 7.3 12.2 8.2 21.5.3 3.5 1 6.3 1.5 6.3s.7-1.2.4-2.8c-.3-1.5-.8-4.8-1.1-7.4-.6-6-3.2-13.5-5.7-17.1l-2-2.8 2.8-3 2.8-2.9 1.3 3.8c.8 2 2.3 6.4 3.4 9.7 1.1 3.3 2.2 6.6 2.5 7.4.2.8.7 1.1 1 .9.6-.7-2.3-12.5-3.9-15.3-.6-1.1-1.2-2.7-1.3-3.5-.1-.8-.5-2.4-.9-3.4-.6-1.3-.5-1.7.3-1.2.6.3 1.3.2 1.7-.4.3-.5 1-1 1.4-1 1.9 0 7.3 16.7 8.7 27 .2 1.9.7 4.2 1 5 .3.8.7 4.2 1 7.5.7 7.3 2.2 10.7 2.5 5.5.3-3.7.2-4.3-.4-13-.4-5.2-1.5-9.9-3.9-16-.6-1.4-1.2-3.6-1.4-4.9-.3-1.3-1.3-4-2.4-6-1.2-2.4-1.5-4.2-1-5.1.5-.8.6-1.8.3-2.4-.4-.5-.1-.6.6-.2 1.3.9 3.5-1.4 5.1-5.2.5-1.2 1.2-2.2 1.5-2.2.3 0 1.9 2.8 3.5 6.2Zm5-1.8c0 .3-.4.8-1 1.1-.5.3-1 .1-1-.4 0-.6.5-1.1 1-1.1.6 0 1 .2 1 .4Zm-17 3c0 .3-.4.8-1 1.1-.5.3-1 .1-1-.4 0-.6.5-1.1 1-1.1.6 0 1 .2 1 .4Zm86.2 16c4.5 0 11.1-.4 14.5-.8l6.2-.8-.3 4.8-.2 4.8-6 1.3c-8.9 1.9-17.1 1.4-22-1.3-4.2-2.4-6.6-6.4-5.9-10.1.2-1 .4-2.2.4-2.6.1-.4 1.2.5 2.5 2 2.3 2.7 2.8 2.8 10.8 2.7Zm-112.5-.8c-.3.3-1.2.4-1.9.1-.8-.3-.5-.6.6-.6 1.1-.1 1.7.2 1.3.5Zm100.2 10.6c6.1 1.4 6.6 2.8 1 2.8-4.8 0-5.1 2.4-.3 2.6 7.7.2 8.4.4 8.4 2.3 0 1.5-1 2-4.5 2.6-15.8 2.3-28 16.1-24.6 27.7.7 2.2 1.5 4.7 1.8 5.5.5 1.3.2 1.3-1.4.5-3.2-1.7-3.4-.3-.8 4.3 3.2 5.4 3.3 7.9.3 6.9-6.3-1.9-6.8-2.3-6.8-5.3 0-1.7.5-4.1 1.1-5.4 1-2.1.6-3-2.5-7.2-6.5-8.4-7.7-12-6.1-18.5.9-4.3 6.5-13 8.2-13 .7 0 1.3-.3 1.3-.8 0-1.3 4.4-3.5 9.5-4.8 6.5-1.6 9.3-1.6 15.4-.2Zm25.1 4.8c10.2-.4 19.6.5 20.5 2 1.1 1.7-2.7 6.9-5.8 7.9-5.2 1.7-17.4 2-19.7.4-2.4-1.7-5.5-6.1-6.5-9.2-.7-2.2-.5-2.3 2.1-1.6 1.6.4 5.8.6 9.4.5Zm-11.6 10.5c1.1 1.9 2.3 3.5 2.8 3.5.4 0 .8.4.8.9 0 .4-1.1.6-2.5.3-1.7-.3-5.3 1-10.8 3.7-6.5 3.2-8.9 5.1-11 8.3-1.9 3-2.4 4.5-1.6 5.4.8 1 1.7.1 3.7-3.7 2.5-4.7 3.2-5.3 10.2-8 4.1-1.6 10.3-3.1 13.7-3.5 5.8-.5 6.3-.4 6.3 1.4 0 1 .9 2.7 2 3.7 2 1.8 2.7 4.5 1.2 4.5-2 0-13.2 8.1-15.6 11.3-2.8 3.7-5.1 14.8-2.8 13.3.7-.4 1.2-1.9 1.2-3.4 0-4.9 6.2-11.5 15.3-16.4 4.8-2.6 5.1-2.6 7.3-1 3.3 2.4 3 3.4-1.8 6.9-6.6 4.8-10.4 8.9-12.8 13.9-1.8 4-2 5.3-1.1 9.3.5 2.5.6 5 .2 5.4-1.7 1.7-12.9-6.7-13.1-9.7 0-.5-.8-1.8-1.7-2.8-2.2-2.5-2.3-11.2-.1-15.4 2.6-4.9 9.5-11.1 15.6-14.1 4.4-2.2 5.2-2.9 3.5-3.1-2.9-.4-6.6 1.6-13.3 7.3-6.2 5.3-10.4 11.6-10.5 15.7 0 1.5-.5 2.7-1 2.6-2.5-.4-11.6-7.1-13.5-9.9-2.8-3.8-2.4-9.8 1.1-16.5 2-3.8 3.5-5 8.9-7.6 6.7-3.2 13.4-5.6 16-5.7.9-.1 2.4 1.5 3.4 3.4Zm-56.4 3.5c.7 2.2 1.8 4.4 2.4 4.9.6.5 1 3.3.8 6.4-.3 4.9-.6 5.6-2.7 6-1.3.2-2.9-.1-3.4-.6-.8-.8-1.1-.7-1.1.3 0 1.1-.3 1.1-1.2.2-1-1-1-1.5.2-2.2 1.4-.8 2.4-8.4 2.2-16.8-.1-4.1 1.1-3.4 2.8 1.8Zm6 3.5c0 .8-.2 1.5-.4 1.5s-.6-.7-1-1.5c-.3-.8-.1-1.5.4-1.5.6 0 1 .7 1 1.5Zm4.1 14.1c1.7 3.6 2.9 7.8 2.9 10.1 0 3.9 0 3.9-3.4 3.5-1.9-.2-3.7-1.1-4-1.9-.3-.8-.1-1.1.4-.8 1.1.7 1.2-.1.4-3.3-.4-1.2-1.4-2.2-2.3-2.3-1.1 0-.9-.3.7-.9 1.9-.8 2.2-1.5 1.8-4.6-.3-2.1-1.1-4.1-1.8-4.5-1.1-.7-1-.9.1-.9.9 0 1.1-.8.7-2.8l-.5-2.7 1 2.5c.6 1.4 2.4 5.2 4 8.6Zm93.4-6.6c.3.5 1.7 1 3 1 5.6 0 7.5 3.1 3 5.2-1.4.6-2.5 1.5-2.5 1.9 0 .4-2 2.1-4.6 3.8-4.9 3.4-10.2 4-15.1 1.9-5.1-2.3-5.5-3.9-2-7.6 4.1-4.3 5.9-5.2 11.6-6.2 2.5-.4 4.9-.8 5.3-.9.4 0 1 .3 1.3.9Zm-191.5 2c0 .5-.4 1-1 1-.5 0-1-.5-1-1 0-.6.5-1 1-1 .6 0 1 .4 1 1Zm170.4 11.9c1.6 1.8 1.5 2-1.9 4.1-3.4 2.1-6.2 5.7-5.2 6.6.3.3 2.4-.9 4.8-2.5 2.4-1.7 5.9-3.4 7.7-3.7 2.7-.6 3.2-.4 3.2 1.4 0 1.1-1.1 2.7-2.5 3.6-1.3.9-3.6 3.6-5 6-2.7 4.6-2.7 6.3 0 13 .8 1.7.4 1.8-5.6 1.1-9.1-1.1-12.8-4.1-13.4-11-.2-3.5 2.4-7.8 8.8-14.1 3.4-3.4 6.5-6.2 6.8-6.3.3-.1 1.4.7 2.3 1.8Zm-153.1 1.8c-1.1 1-1.8 2.5-1.5 3.3.3 1.1.2 1.2-.8.4-1.6-1.5.4-5.4 2.7-5.4 1.3 0 1.3.3-.4 1.7Zm-11.3 16.3c0 .5-.4 1-1 1-.5 0-1-.5-1-1 0-.6.5-1 1-1 .6 0 1 .4 1 1Zm101.3 74.1c.3 1.2 1 1.8 1.5 1.5.5-.3 2.7.8 4.8 2.4 2.2 1.6 4.4 3.3 4.9 3.7.6.5 2.9 2.1 5.3 3.6 7.2 4.7 2.9 5.8-8.8 2.2-2.5-.8-7.2-2.3-10.5-3.3s-6-2.4-5.9-3c.1-.7.2-2.6.3-4.2.1-2.6.5-3 3.1-3 1.7 0 3-.5 3-1 0-1.9 1.8-1 2.3 1.1Zm28.7 2.9c0 .5-.5 1-1.1 1-.5 0-.7-.5-.4-1 .3-.6.8-1 1.1-1 .2 0 .4.4.4 1Zm173 7c0 .5-.2 1-.4 1-.3 0-.8-.5-1.1-1-.3-.6-.1-1 .4-1 .6 0 1.1.4 1.1 1Zm-172 7.1c0 .5-.4.9-.8.9-.5 0-.9-.7-.9-1.5s.4-1.2.9-.9c.4.3.8.9.8 1.5Zm21.4-.6c-.4.8-1 1.2-1.5.9-1.4-.8-1-2.4.6-2.4.9 0 1.2.6.9 1.5Zm12.1 2.5c.3.5.1 1-.4 1-.6 0-1.1-.5-1.1-1 0-.6.2-1 .4-1 .3 0 .8.4 1.1 1Z"/>
    <path fill="#000" d="M232.53 450.46c-.4.3-.7 1.1-.7 1.7 0 .6.5.5 1.2-.2.6-.6.9-1.4.7-1.7-.3-.3-.9-.2-1.2.2Z"/>
    <path fill="#000" d="M173.23 449.36c.4 1.5 1 3.9 1.3 5.5.3 1.6 1.2 2.9 1.9 2.9 1.4 0 1.1-3.9-.7-8.8-1.2-3.2-3.3-2.9-2.5.4Z"/>
    <path fill="#000" d="M196.93 458.06c-.2 4.3 2.1 21.8 2.8 21.1 1-.9 0-15.5-1.4-19.7-1.2-3.7-1.3-3.9-1.4-1.4Z"/>
    <path fill="#000" d="M260.03 458.96c-3.1 1.3-7.4 4.2-10.8 7.5-6.8 6.5-6.5 8.3.4 2.2 4.7-4.2 11.2-8.1 16-9.4 2.3-.7 3.1-2.5 1-2.4-.7 0-3.7 1-6.6 2.1Z"/>
    <path fill="#000" d="M299.83 510.76c-1.8 4.3-.7 5.7 1.2 1.6 1-1.9 1.3-3.8.9-4-.5-.3-1.4.7-2.1 2.4Z"/>
    <path fill="#FFF" d="M541.23 68.26c-.1.5-.7 2.2-1.3 3.8l-1.1 2.8-4-2.1c-6.4-3.3-8.3-.5-3.1 4.4l2.9 2.8-2 3.4c-2.2 3.8-1.5 4.1 3.9 1.9 4.4-1.9 4.3-1.9 4.3.4 0 1.1.5 2.3 1.2 2.7 1.4.9 3.9-2.3 3.2-4.1-.8-2 1.5-2.9 6.3-2.6 3.7.2 4.3 0 4.3-1.7 0-2-2.4-3.2-6.6-3.2-1.8 0-2.1-.6-2.1-5.1-.1-3.2-.6-5.5-1.4-6-1.9-1.2-2.6-1.1-3.6.3-.4.7-.8 1.7-.9 2.3Z"/>
    <path fill="#000" d="M547.43 91.16c-3 2.7-3.2 3.6-1 3.6.8 0 1.3.4 1 .9-.4.5.3 3 1.4 5.6 1.1 2.6 2 4.9 2 5.1 0 .8-5.7.3-11.5-1.1-8.2-2-20.8-1.9-25.1.1-6.3 3-12.4 9.9-12.4 14 0 1.4.7 1.6 4.1 1 2.2-.4 4.6-.3 5.2.1.7.4 3.2 1.5 5.7 2.4 2.5.9 7.7 3 11.5 4.6 7.3 3.1 20.3 6.8 21.2 6 .2-.3-2.2-1.3-5.4-2.2-8.2-2.3-15.9-6-20.9-10.1-4.8-4-13.1-5.7-15.9-3.4-1.6 1.4-3.1.8-2.1-.8 1.8-3 12.7-5.5 14-3.3.3.5 2.2 1.2 4.1 1.5 2 .4 6 2 9 3.5 3 1.6 5.5 2.6 5.5 2.3 0-1.4-6.8-6.3-9.9-7.2-2-.6-5.2-1.9-7.1-2.9-3-1.7-3.2-2-1.7-2.7 3.1-1.2 14 .2 17.3 2.2 5.6 3.4 19.2 15.8 18.7 17.1-.3.8-1.6 1-3.6.7l-3.2-.5 2.5 2.1c2.1 1.9 2.5 2 3.5.6.7-.8 2.4-2 3.8-2.5 1.5-.6 2.7-1.4 2.7-1.9 0-.4-2.3-1.8-5.1-2.9-2.9-1.3-5.3-3-5.6-4.1-.2-1-1.7-2.6-3.1-3.5-1.5-.8-3.6-2.5-4.6-3.6-1.9-2.1-1.9-2.1.8-2.1 1.5 0 7 1.4 12.1 3.1 7.4 2.4 10.3 4 13.5 7.1 2.2 2.2 4.3 3.8 4.6 3.5.5-.5 3.1 1.2 19 12.8 8.9 6.5 16.4 14 18.9 19 3.1 6.2 9.5 14.6 14.8 19.5l5 4.6-1.6 3.1c-.9 1.7-1.9 4.9-2.3 7-.5 3.5-.2 4.4 2.6 7.4 1.7 1.9 5.2 6.1 7.7 9.3 6.2 8.1 6.2 8.1 11.2 12.9 2.4 2.3 6.7 6.6 9.6 9.4 5 5 7.5 6.5 7.5 4.4 0-1.3-10.1-13.3-19.5-23-9.8-10.2-10.1-10.6-8.7-14.6 3.9-10.5 2.2-17.2-5.3-21.9-4.2-2.7-10.5-9.3-10.5-11.1 0-.4-1.5-2.8-3.4-5.4-1.8-2.5-3.6-5.6-4-6.8-.4-1.1-1.7-2.8-2.9-3.6-1.2-.8-4.1-3.2-6.5-5.4-4.2-3.8-4.3-4.2-4.6-10.4-.3-7.5-4.1-15.7-9.5-20.4-1.9-1.7-5.7-5.2-8.5-7.8-5.6-5.4-21.8-13.7-26.5-13.7-2.3 0-2.8.4-2.7 2.2.1 1.6 2.4 3.6 9.3 7.7 10.4 6.3 14.3 9.2 14.3 10.4 0 .9-1.7-.1-10-5.6-2.3-1.6-7.3-4.4-11.1-6.3-7-3.5-8.1-4.7-5.4-5.8 1.6-.6 2.1-2.6.6-2.6-.6 0-2.1 1.1-3.5 2.4Zm15.7 3.2c13.6 6.9 19.2 11.1 24.6 18.6 1.7 2.4.8 3.4-1.2 1.3-.9-.8-1.9-1.5-2.4-1.5s-2.6-2-4.6-4.5c-3.4-4.1-20.8-15.5-23.5-15.5-.6 0-1.4-.5-1.7-1-1.1-1.8 1.5-1 8.8 2.6Zm3.2 11.6c10.1 7.3 18.5 14.1 18.5 15 0 .5-1.4-.4-3.2-2.1-1.8-1.6-4.3-3.5-5.7-4.2-1.5-.7-3.5-2.1-4.6-3-2.7-2.4-15.5-8.9-17.5-8.9-1.8 0-4.3-3.6-3.5-5 .8-1.2 8.3 2.6 16 8.2Zm-.9 5.3c4.3 3 10.3 7 13.3 9 2.9 2 5.1 3.9 4.8 4.2-.4.3-2-.6-3.7-2.1-1.7-1.4-3.6-2.6-4.2-2.6-.5 0-2.8-1.4-4.9-3.1-2.1-1.7-6.2-3.9-9.1-4.9-3.3-1.1-5.5-2.6-6-3.9-1.2-3.4 1.2-2.6 9.8 3.4Zm70 78c-.8 2.2-4 1.5-4.4-.9-.3-1.1.4-2.6 1.4-3.3 1.7-1.2 2-1.1 2.8.6.5 1.1.6 2.7.2 3.6Z"/>
    <path fill="#000" d="M18.83 97.66c0 .7.7 2.6 1.6 4.4 1.2 2.3 1.8 6.4 1.9 14.7.4 16.3 2.2 23.7 7.6 30.7l4.4 5.7.3-3.2c.2-2.3-.6-4.5-2.9-7.8-5.9-8.6-7.2-13.5-6.6-25.4.3-5.8.1-11.2-.4-12.2-1.4-2.6.9-2.3 4.4.5 2.5 2 2.8 3 3.3 9.7 1.1 17.8 1.5 19 5.5 19 6.8 0 13.9 5.7 13.9 11.2.1 1.2 1.2 4.5 2.5 7.3l2.5 5-.5-4.5c-1.9-16-1.6-15.1-6.5-17.6-2.5-1.2-6.3-3.1-8.5-4.1-5.2-2.4-7.7-8.9-6.8-17.5.8-8.3-.7-11.3-7.1-13.7-2.8-1.1-5.9-2.2-6.8-2.6-1.1-.4-1.8-.3-1.8.4Z"/>
    <path fill="#000" d="M488.33 114.26c-2.7 1.4-5.4 2.5-6 2.5-1.6 0-13.5 11.5-13.5 13 0 .8 1.9-.5 4.3-2.8 2.4-2.4 5.2-4.2 6.5-4.2 1.2 0 2.2-.6 2.2-1.4 0-2.3 8.6-5.8 14.6-6 4.4-.1 5.4-.4 5.4-1.8 0-2.7-7.4-2.3-13.5.7Z"/>
    <path fill="#000" d="M455.23 116.26c-1.7 2.6-2.2 14.3-.7 15.4 1.3 1 6.5 8.2 6.2 8.5-.2.2-2.7 1.6-5.5 3.1-3 1.7-6.1 4.4-7.4 6.5-1.2 1.9-4 5.1-6.2 6.9-3.7 3.1-4.1 3.2-7.1 2-1.8-.7-3.5-1.8-3.9-2.3-1.4-1.9-.8-10.1.8-12.4 3.4-4.9-1.3-5.6-7.6-1.1-3.9 2.8-4.2 3.4-3.7 6.5.3 1.8.1 3.6-.4 3.9-1.3.9-1.1 6.1.5 9.8 1.7 4 9.1 10.7 11.9 10.8 1.3 0 1.7.3.8.6-.7.3-2.2 1.4-3.2 2.4-1.1 1.1-2.7 1.9-3.6 1.9-1 0-3.3.9-5.1 2-1.8 1.1-3.9 2-4.7 2-2.2 0-8.7 6.3-12.6 12-3.3 4.9-3.5 4.9-8.6 5-4 0-5.8-.5-7.3-2-2.4-2.4-2.6-6.2-.4-9.5s1.1-4.5-4.1-4.5c-3.9 0-4.6.4-6 3-3.4 6.6-.8 17.8 5.5 23.4 3.1 2.7 3.5 2.8 10.8 2.2 9.9-.9 16.2-3.8 16.2-7.6 0-4.2 3-12.3 5.7-15.2 1.4-1.4 5.4-3.9 8.9-5.5 3.5-1.5 6.4-3.4 6.4-4.1 0-.7.4-1.1 1-.7 1.8 1.1 5.6-.8 8.9-4.7l3.4-3.9-4.4.1c-7.8.3-10.9-1.5-14.8-8.7-2.2-4-2.5-5.7-2.1-10.3l.5-5.5 2.1 6c1.6 4.5 2.9 6.5 5.5 8.2 1.9 1.3 4 2.8 4.7 3.4 1.7 1.4 10 1.5 11.3.2.7-.7.3-.9-1.3-.6-1.3.3-4 0-5.9-.5-1.8-.6-2.6-1.1-1.6-1.1 1-.1 5-3.2 8.9-7.1 4-3.8 8.3-7.3 9.7-7.8 7.2-2.6 11.2-3.4 14.4-2.8 4 .7 4.9-.1 5.4-4.8.2-1.6.9-3.7 1.6-4.5.7-.9 1.8-2.8 2.4-4.2 1.3-2.9 7.7-6.3 15.4-8.1 5.6-1.3 6.5-2.8 1.7-2.8-10.3.1-22.9 9-24.3 17.1-.7 3.9-.7 4-4.3 3.3-7-1.3-10.3-5.1-11.6-13.4l-.6-3.5 1.7 2.6c2 3.3 5.2 5.4 6.4 4.2.5-.5-.3-2.1-2.1-3.8-2.5-2.4-3-3.6-3-7.7 0-5.5-1.9-6.5-4.6-2.3Zm-72.7 77.7c2.3 8.6 8.5 11.6 16.4 8 2.5-1.1 5.3-3 6.3-4.1 1.1-1.2 2.2-2.1 2.6-2.1 1.4 0-1.4 9.8-3.1 10.8-2.5 1.6-13.1 2.4-16.2 1.3-4.1-1.6-7.9-7.5-8.5-13.1-.6-6.1 1-6.5 2.5-.8Z"/>
    <path fill="#000" d="M501.73 126.16c-.3.3-2.7.8-5.4 1.1-6.8.8-18.5 8.5-18.5 12.2v2.5l2.8-2.1c11.8-9.1 17.5-11.5 24-10 6.6 1.6 17.1 4.8 20.7 6.4 3.5 1.5 11.6 3.5 14.2 3.5 1.5 0 1.6-.2.3-1-.8-.5-2.7-1-4.1-1-2.8 0-10.1-3.1-18.4-7.9-4.6-2.7-14.3-4.9-15.6-3.7Z"/>
    <path fill="#000" d="M497.33 137.06c-1.6.6-5.4 2.5-8.5 4.3-3.1 1.8-6.8 3.6-8.3 3.9-2.6.7-6.1 4.1-7 6.8-.2.8-3.1 1.3-8.1 1.4-7.5.2-7.8.3-12.1 4.2-4.9 4.5-4.9 5.1.1 2.1 1.8-1.2 6.1-2.5 9.6-3.1 3.5-.5 7.1-1.2 8.1-1.5 1.1-.4 1.7 0 1.7 1 0 2 2.4 2.1 4 .1 1-1.2 9.3-5.5 10.6-5.5.2 0 .4.6.4 1.2 0 .7-2.5 2.8-5.5 4.7-3 1.8-5.5 4-5.5 4.7 0 1 1 .8 3.8-.9 5.1-3.3 15.1-8.2 19.5-9.6 6.9-2.3 21.6-2.1 36 .5 3 .5 3.7.4 3.7-.9 0-.9-.4-1.8-.8-2.1-4-2.5-44-2.8-47.9-.3-.6.4-1.4.3-1.8-.3-.4-.6-2.9.3-6.5 2.2-3.2 1.8-6.2 3-6.5 2.6-1.3-1.2.5-2.7 7.3-5.9 3.7-1.8 8-4.1 9.5-5.2 3.3-2.2 8.4-2.5 17.1-.8 7.3 1.4 8.6 1.4 8.6.1 0-.6-.9-1-2.1-1-1.1 0-3-.5-4.1-1.1-3.2-1.7-12.1-2.6-15.3-1.6Z"/>
    <path fill="#FFF" d="M555.43 146.76c-.8 0-2.7.5-4.3 1.1-2.5.9-2.6 1.2-1.1 2 1 .6 2.4.9 3 .8 3-.4 3.8.3 3.8 3 0 3.6 1.6 8.1 2.9 8.1.5 0 1.2-1.1 1.5-2.5.3-1.3 1.1-3.6 1.6-5l1-2.7 3.6 2.1c1.9 1.2 3.9 2.1 4.5 2.1 2.2 0 .6-3.6-3.2-6.8l-4-3.5 2.4-2.6c2.1-2.4 2.7-6.1.8-6.1-.4 0-2 1.3-3.6 3-3.5 3.7-4 3.7-5.7.3-1.8-3.7-4.2-4.4-2.8-.8 1.5 3.8 1.3 7.5-.4 7.5Z"/>
    <path fill="#000" d="M542.83 139.16c0 1.3-3.4 3.1-7.5 3.9-1.1.2.2.5 2.8.8 4.5.4 5 .2 6.3-2.3 1.8-3.4 1.8-3.8-.1-3.8-.8 0-1.5.6-1.5 1.4Z"/>
    <path fill="#000" d="M502.83 158.86c0 .7.8 1.7 1.7 2.4 1.9 1.4 2.4 3 3 10.7l.5 5.8 3.8-2c4.4-2.2 5-3.5 5-9.8-.1-6.8-1.5-8.2-8.4-8.2-3.5 0-5.6.4-5.6 1.1Z"/>
    <path fill="#000" d="M467.83 160.16c-1.4.8-4.1 1.7-6 2-5 1-9 2.7-9 3.8 0 .5.8.7 1.8.4.9-.3 4.2-1.2 7.2-2.1 3-.8 6.6-2.4 8-3.5 2.9-2.2 1.7-2.6-2-.6Z"/>
    <path fill="#FFF" d="M496.23 162.96c-.4 1.3-.7 2.9-.6 3.5.4 1.8-.1 1.7-5.2-1.2-2.5-1.4-4.9-2.5-5.5-2.5-1.5 0-.1 3.3 2.1 4.8 2.1 1.5 2.4 3.2.5 3.2-.8 0-2.4 1.1-3.7 2.5l-2.3 2.5h2.1c1.2 0 2.2.4 2.2 1 0 1.6 2.8 1.1 3.8-.6 1.2-2.2 2.9-1.1 3.7 2.6.8 3.4 2.4 4 3.2 1 .3-1.1.9-2 1.4-2 .5 0 .9-1.1.9-2.4 0-3.2 1.7-4.2 2.5-1.6.6 2 4.5 2.9 4.5 1 0-1.2-3.3-4.6-5-5.2-.6-.2-1.3-2.1-1.3-4.3-.2-4.4-2.1-5.8-3.3-2.3Z"/>
    <path fill="#000" d="M471.23 165.86c-1.1 1.1-5.9 3.3-10.5 4.9-9 3.1-9.7 3.8-14.8 14.6a14.5 14.5 0 0 1-6 6.5c-3.9 2.2-5.5 4.9-2.8 4.9 1.6 0 8.8-4.8 10.7-7.2 1-1.2 2.2-1.7 3.3-1.2 2.5.9 2.1 2.3-1 3-1.6.4-3.4 1.6-4.2 2.7-.7 1-2.9 2.6-4.8 3.3-4.9 2.1-6.2 6.4-1.4 4.9 1.2-.3 2.1-1.3 2.1-2 0-.9.6-1.2 1.5-.9.8.4 1.5.2 1.5-.3 0-.6 1.7-1.7 3.8-2.6 2-.9 4.9-2.4 6.4-3.3 3.6-2.4 4.6-1.1 2.3 2.9-2.7 4.5-5.2 6.4-11 8.1-7.7 2.3-9.2 4.5-9.8 14.7-.5 8.8-2.3 14.2-5.3 15.3-1.2.5-1.4 1.3-.9 3.4 1.2 5.1 2.4 4.7 5.6-2.4 2.7-5.9 3.2-8.1 3.3-15.7l.1-8.7 6.5-3.4c8.2-4.4 13.6-9.7 15.2-14.8.9-3.2 1.4-3.7 2.2-2.6 1.6 2.1 4.9 2.8 17.4 3.5 11 .5 11.3.5 15.3-2.2 2.8-1.8 3.8-3 3.1-3.7-.7-.7-1.7-.6-3.2.2-1.1.6-6.1 1.4-10.9 1.7-9 .6-18.3-.9-27.6-4.4-6.1-2.3-6.8-3.1-4.5-5.6 1.1-1.1 2-2.6 2-3.2 0-.6 2.1-1.6 4.8-2.3 4.7-1.3 15.2-7.7 15.2-9.3 0-1.5-1.4-1-3.6 1.2Z"/>
    <path fill="#000" d="M523.53 170.46c-.9 2.1-1.8 4.9-1.9 6.3-.2 1.4-.9 2.4-1.6 2.2-1.9-.4-9.6 3.9-8.6 4.8.5.4 2.4 1.1 4.1 1.5 2.9.6 3.4.3 4.5-2.2.7-1.5 2-3.4 3-4 .9-.7 2.1-3.6 2.7-6.3 1.3-6.1 1.3-6 .3-6-.5 0-1.6 1.7-2.5 3.7Z"/>
    <path fill="#000" d="M446.33 168.76c-.3.5-.2 1 .4 1 .5 0 1.3-.5 1.6-1 .3-.6.2-1-.4-1-.5 0-1.3.4-1.6 1Z"/>
    <path fill="#000" d="M577.33 169.76c-.3.5-.8 5.4-.9 10.7-.2 5.4-.7 10.6-1.1 11.5-.4 1-.3 1.8.3 1.8 1.8 0 3.3-6.2 3.9-15.8.4-6.3.3-9.2-.5-9.2-.6 0-1.4.4-1.7 1Z"/>
    <path fill="#000" d="M470.03 175.46c-4.1 1.9-7.2 3.6-7 3.8.2.2 2.9.5 6.1.7 5.1.4 5.9.2 7.3-1.9.8-1.4 1.4-3.2 1.2-4.2-.3-1.6-1.1-1.4-7.6 1.6Z"/>
    <path fill="#000" d="M570.83 178.46c0 2.1-.7 6.2-1.5 9.2-1.5 5.8-1.2 7.4 1.2 6.9 1.2-.2 1.6-2.4 2-10.1.3-6.6.1-9.7-.6-9.7-.6 0-1.1 1.7-1.1 3.7Z"/>
    <path fill="#000" d="M564.83 180.06c0 1.9-.7 5.6-1.5 8.3-1.8 6-1.9 7.7-.3 7.2 1.6-.6 4.7-10.2 4.7-15.1.1-2.6-.3-3.7-1.4-3.7-1 0-1.5 1-1.5 3.3Z"/>
    <path fill="#000" d="M557.43 178.96c-.3.7-.7 3.5-1 6.3-.4 2.7-1.1 5.4-1.6 5.9-1.3 1.3-1.3 3.6 0 3.6.6 0 1-.6 1-1.3 0-.6.7-2.5 1.6-4.2 2-3.9 3-11.5 1.5-11.5-.6 0-1.3.6-1.5 1.2Z"/>
    <path fill="#FFF" d="M511.73 188.46c-2.9 7.5-3.2 7.8-8.2 8.1-5.7.4-5.8 1.8-.5 4.5l3.6 1.8-3.4 6.6c-1.8 3.7-3.1 7-2.8 7.5.8 1.2 2.4 0 2.4-1.8 0-.8 1-1.4 2.4-1.4 1.3 0 2.6-.7 3-1.5.8-2.3 1.9-1.9 7.6 2.6 4.6 3.7 5.4 4 6.7 2.6 1.4-1.3 1.2-2-1.7-6.2-3-4.4-3.1-4.8-1.5-5.7.9-.6 2.5-1.8 3.5-2.8 1-1 2.6-2 3.6-2.2 1.1-.2 2-1.1 2.2-2.2.3-1.6-.2-1.8-5-1.4-2.9.2-6 .8-6.9 1.1-1.3.7-1.5-.2-1.5-5.4.1-6.9-1.6-9-3.5-4.2Z"/>
    <path fill="#000" d="M576.03 200.96c-2.3 4.6-3.3 10-1.8 10.8.5.3 1.5-1.3 2.3-3.4.7-2.2 2-4.7 2.8-5.6 1.8-2 2-6 .2-6-.7 0-2.2 1.9-3.5 4.2Z"/>
    <path fill="#000" d="M585.83 204.66c-3.3 2-5 3.9-6.4 7.4-2.5 6.1-1 8.5 2.2 3.5 1.8-2.8 2.2-3 2.8-1.5.6 1.7 5.3 4.7 7.3 4.7.6 0 1.6-1.8 2.2-4 1.1-3.5 1-4.2-.6-6-2.3-2.6-1.6-3.3 3.5-3.2 4.3.1 5.2-1.1 2.1-2.8-3.3-1.7-8.4-1-13.1 1.9Zm5 5.6c1 1.2.9 1.6-.3 2.1-2.5.9-5.1 0-5.5-1.9-.4-2.2 4-2.4 5.8-.2Z"/>
    <path fill="#FFF" d="M478.03 205.06c-.8.9-.9 2.4-.2 4.7 1.2 4 1.1 4.1-3.7 4.9-4.8.8-5.3 2.8-1.1 3.9 3.5.9 3.8 2.2 2.3 8.4-.6 2.1-.4 2.8.7 2.8 2.4 0 6.5-3.8 7.2-6.6l.7-2.7 2.9 2.8c1.7 1.7 3.5 2.5 4.4 2.2 2.2-.9 2-2.9-.5-5-1.8-1.6-1.9-2.1-.7-3.5.7-.9 1.9-2.1 2.6-2.5 1.4-.9 1.6-4.3.4-5.1-.5-.3-2.6.1-4.7.8-3.8 1.3-3.9 1.3-5.3-1.3-2.2-4.3-3.7-5.4-5-3.8Zm4.8 10.1c0 .3-.4.8-1 1.1-.5.3-1 .1-1-.4 0-.6.5-1.1 1-1.1.6 0 1 .2 1 .4Zm-3.3 11.8c-.3.8-.6.5-.6-.6-.1-1.1.2-1.7.5-1.3.3.3.4 1.2.1 1.9Z"/>
    <path fill="#000" d="M88.83 214.26c-1 1.2-.7 1.5 1.4 2.1 1.4.3 4.6 2.8 7.2 5.6 2.5 2.7 4.9 4.6 5.2 4.3.4-.4-.1-1.2-1.1-1.9-.9-.7-1.7-1.7-1.7-2.2 0-1.1-7.9-9.4-9-9.4-.4 0-1.3.7-2 1.5Z"/>
    <path fill="#000" d="M87.23 221.86c2.5 2.8 4.6 5.7 4.6 6.4 0 1.4 2.9 2.9 3.8 2 .6-.5-1.2-2.8-7.3-9.2-5.7-6.1-6.6-5.3-1.1.8Z"/>
    <path fill="#000" d="M498.23 220.46c-1.9.7.8 10.2 5 17.8 2.1 3.7 6.3 9.4 9.5 12.7 7.7 8.2 8.3 9.4 3.1 6.8-6.5-3.3-18.5-16.2-20.7-22.3-2.8-7.7-4.3-6.9-1.9 1 1.8 6 3 7.8 9.7 14.5 4.1 4.2 8.8 8.2 10.3 8.8 1.6.6 2.6 1.3 2.4 1.6-.7.6-15.8-4.4-17.6-5.8-1.7-1.4-2.8-.2-1.3 1.5 2.6 3.2 19.6 7.9 24.1 6.6 1.4-.4 4-.7 5.8-.8 2.7-.1 3.3.3 3 1.6-.3 1.9-.5 1.9-13.2 2.9-8.6.7-15.8-.5-23.4-3.7-2.5-1.1-4.7-1.7-5-1.5-1 1 10.6 7.2 15.3 8.1 5.9 1.2 19 1.3 22.3.1 2.1-.7 2.3-.5 2 1.5-.2 1.7-1.9 2.9-7.3 5.1-14.7 6-22.3 7.7-35.9 7.9-5.3.1-7.6.5-7.3 1.3.3.7 4.5 1.1 13.3 1 13.7 0 27.3-2.3 29.5-5 .6-.8 1.6-1.4 2.2-1.4.5 0 2.1-1.2 3.4-2.6 1.3-1.4 2.5-2.5 2.7-2.3.6.8 2.6 17.6 2.6 21.9 0 2.5-.9 8.7-2 13.9-2.4 11.5-2.5 11.8-.1 9.7 1.8-1.6 5.3-12.2 6.6-19.9 1.3-8 5.5.5 12.7 25.8.6 2.2 5.6 13.2 11.1 24.5 11.1 23 11.1 22.9 12.4 28.7 1.2 5 .7 18.4-1.2 32.6-.4 2.8-.2 3.8.7 3.5 1.5-.5 2.6-4 2.7-8.9.1-3.6 3-7.8 3.2-4.8.2 1.7.3 2.3 1.3 7.7.5 2.6 1.5 4.6 2.7 5.3 1.8.9 1.9.7 1.3-3.3a50 50 0 0 0-1.5-7.2c-.5-1.6-.7-3.2-.4-3.4.7-.7.3-1.3 7.8 13.9 7 14.2 8.1 18.9 5.8 26.3-.6 1.7-1.4 4.7-1.9 6.6-.9 3.2-1 3.3-1.1.8-.2-4.7-4.3-16-5.4-14.9-.7.7-.4 4.2 1 10.8 2.2 10.5 2.2 13.7.2 25.2-1.3 8-6.4 17.9-10.5 20.5-1.9 1.3-10.3 17-14.7 27.7-.8 2-3.1 5.5-5.1 7.7-2 2.2-3.6 4.4-3.6 5 0 .6-.8 1.6-1.8 2.1-1.5.8-1.7.5-1.4-3 .4-3.7-.9-5.2-2.3-2.9-.8 1.3-2.5 1.3-2.5-.1 0-.6-1.3-3-3-5.3-2.6-3.9-2.8-4.7-1.9-8.1l1.1-3.9 2.1 3.7c2.5 4.3 3.3 4.6 3.9 1.2.4-1.8-.4-3.5-2.6-6.1-1.7-2-3.1-4.1-3-4.5.1-.5.2-2.8.3-5.2.2-3.7.3-3.9 1.2-1.8.5 1.3 1.9 3.7 3.1 5.4 2 2.7 2.2 2.8 2.9 1.1 1.5-3.7.9-5.2-4.1-10.3-4.1-4.2-5-5.8-5.1-8.9 0-2-.2-4.5-.4-5.4-.2-1 0-2 .5-2.3 1-.6 2.7 1.4 5.5 6.7 2.9 5.5 5 6.3 4 1.7-.7-3-7.5-11.6-13.8-17.2-2.1-1.8-3.3-6.7-1.7-6.7.5 0 2.3 1.2 4 2.6 4.6 4 5.1 1.8.5-2.3-2.2-1.9-6-5.5-8.5-7.8-5.2-5-18.2-15.5-19.2-15.5-2.1 0 1.2 4.5 6.7 9.1 4.1 3.5 7.2 7.2 8.9 10.7 3.8 7.8 3.2 9.2-2.3 5.1-1.6-1.2-3.5-1.9-4.2-1.7-.8.3 1.8 3.4 6.8 8.2 8.3 7.9 10.3 11.5 7.6 14.2-1.3 1.3-1.7 1.3-2.7 0-1.5-2.1-10.2-6.6-12.7-6.6-2.4 0-2.4 1.3-.2 4.7 2.3 3.4 4.3 9.1 4.3 12.1 0 1.3.7 3.7 1.6 5.4 1.3 2.5 1.5 5.5 1 18.2-.6 17.7-.7 18.3-2.6 21.6-.8 1.4-1.5 3.2-1.5 4 0 .8-1.8 2.1-4.1 3-2.2.8-5.1 2.2-6.5 3.1-1.3.9-4.6 2.4-7.4 3.5-5.4 2-11.5 6.8-11.5 9 0 1.9.7 1.8 3.5-.9 1.4-1.2 4.2-3.1 6.2-4.2 2.1-1 4.5-2.4 5.3-3.1 2.1-1.6 6-2.7 6-1.7 0 .5-1.8 1.7-4 2.7-2.2.9-4.8 2.9-5.9 4.4-1 1.5-3.8 4.7-6 7.1-2.3 2.5-4.1 5.4-4.1 6.7 0 3.2 1.8 2.3 5.7-2.9 1.8-2.3 4.4-5.4 5.8-6.9 1.4-1.5 2.5-3 2.5-3.3v-1.1c0-.4.7-.1 1.5.6 1.3 1.1 2 .9 4.3-1.3 5.7-5.5 3.7-2.5-2.4 3.7-6.1 6-8.4 10.6-4.8 9.2.9-.3 1.8-.6 2-.6.2 0 .4-.4.4-1 0-1.1 7.9-8.6 14.1-13.3 2.4-1.9 8.7-5.1 13.9-7.1 5.2-2.1 10.9-4.4 12.5-5.1 1.7-.7 6.8-2.7 11.5-4.3 4.7-1.6 10.1-3.8 12-4.9 8.6-4.7 19.9-8.3 26.2-8.3 5.5-.1 7.3-.6 14.3-4.5 16.6-9.2 24.9-12.8 30.5-13.4 6.4-.7 6.9-2.5.8-2.9-6.7-.5-19.2 3.9-26.3 9.4-5.6 4.3-16.3 8.4-21.8 8.4-2.9 0-8.1 1.1-11.7 2.4-9.2 3.3-30.2 11.6-32.3 12.7-1 .6-2.7.7-3.7.4-1-.3-2.1-.1-2.5.5-1.1 1.9-2.3 1-3.5-2.5-.6-1.9-2.3-4.4-3.7-5.5-2.4-1.8-2.5-2.2-1.3-5.1l1.3-3.2 2.8 3.4c1.5 1.9 3.6 5.1 4.5 7.1.9 2.1 2.3 3.8 3.1 3.8.8 0 3.8-2.2 6.6-4.8 7.3-6.8 14.5-11.8 21.6-15 4.4-2 7.4-4.4 11.3-8.9 6.1-6.9 13.7-13.3 18.6-15.4 1.7-.8 3.2-1.8 3.2-2.3 0-.4.6-.6 1.3-.3.8.3 3.4.1 5.9-.4 4.3-1 10.9-5 22.4-14 3.3-2.5 9.5-6 13.9-7.8 4.4-1.8 8.4-3.7 9-4.2.5-.5 1.7-.9 2.6-.9 1 0 2.7-1.3 3.9-3 2.9-4 8.1-4.2 10.7-.4 3.7 5.2 6.1 7.9 6.8 7.2.7-.7-1.1-4.2-3.7-7.3-1-1.2-3.3-5.3-5.2-9.2-3.5-7.2-6.5-10.9-5.1-6.2.4 1.3 1.6 4.1 2.6 6.1 2.3 4.6 2.3 4.4-.3 4.4-1.3 0-4.6-2.5-8.5-6.4-3.4-3.5-6.8-6-7.3-5.7-2 1.3-2 1.4 9.2 11.8 2.8 2.6 1.7 3.1-2.7 1.3-4.3-1.8-4.5-1.9-4.5-.8 0 .5 1.1 1.5 2.5 2.2 3.8 2.1 3 3.3-1.7 2.5-4.5-.7-13.2-5.4-17.5-9.3-1.7-1.5-2.9-2-3.5-1.4-.7.7 2.2 2.9 8.1 6.3 5 3 9.1 5.7 9.1 6.1.1 2.4-13.1-.7-18.2-4.3-2.9-2.1-4.8-2.4-4.8-.8 0 1.1 8.5 5.1 13.4 6.3 3.8.9 3 1.5-3.3 2.1-4.3.4-6.7-.1-12.9-2.6-4.2-1.7-8.4-3.7-9.3-4.5-1.8-1.6-4.5-1.9-5.3-.5-.3.5 0 1.3.7 1.8 1.8 1.5 14.7 6 19 6.8 2.9.5 3.7 1 3.7 2.7 0 1.9-.4 2-5.7 1.5-7.5-.6-16.3-3.8-21.5-7.6-2.7-2-4.5-2.8-5.2-2.1-.9.9 2.9 4.9 4.9 5 .6 0 3 1.1 5.5 2.4 2.5 1.3 6.2 2.9 8.3 3.5 4.9 1.6 4.7 3.1-.4 3.1-3.7 0-4 .2-2.8 1.6 1.1 1.4.6 1.5-5.2 1-4.5-.5-8.5-1.7-13.4-4.1-7.6-3.9-7.5-3.8-7.5-2.7 0 .8 8.5 5 18.3 9.1 6.5 2.8 6.2 4.5-.7 3.8-4.3-.4-5.4-.3-5 .8.3.7.2 1.5-.3 1.8-1.5.8-12.7-2.5-16.6-5-4.4-2.7-5.6-2.4-3.8 1 1 1.8 1.9 2.2 4.2 1.9 1.6-.2 2.9 0 2.9.6s1.7 1.6 3.8 2.3c5.3 1.7 5.8 2.1 3.4 3-2.4.9-14.2-1-14.2-2.3 0-.4-.9-.8-2-.8s-2 .7-2 1.5.8 1.5 1.9 1.5c1 0 2.4.7 3.1 1.5.7.8 2.5 1.5 4.1 1.5 1.5 0 3.1.4 3.4 1 .6 1-.7 1.4-3.3 1.1-.8-.1-1.6.7-1.9 1.8-.5 1.8-1.3 2.1-6.9 2.1-7 0-8.6 1.5-2.7 2.6 3.4.6 3.5.8 1.7 2.1-1 .7-3.6 1.8-5.7 2.4-3.3.9-3.7 1.2-2.3 2.2 1.3 1 .8 1.7-4 5-3.1 2.1-5.8 3.6-6.1 3.4-.6-.6 2.9-7.7 3.8-7.7.4 0 1-1.3 1.4-3 .4-1.6 1.7-3.8 3.1-4.9 1.3-1 2.4-2.3 2.4-2.9 0-.5.7-2.2 1.5-3.8 1.1-2.2 1.5-2.5 2-1.2.4.9 2 2 3.6 2.3 1.6.4 3.1 1.1 3.4 1.6.8 1.1 2.5 1.2 2.5.1 0-.5-1.6-1.5-3.5-2.2-3-1.2-3.5-1.9-3.3-4 .1-1.4 1-3.7 2-5.2 1-1.4 1.8-3.8 1.8-5.1 0-1.4.4-2.9 1-3.2.5-.3 1.4-2.4 2-4.5.6-2.2 1.5-4 2.1-4 .6 0 .7-.6.1-1.7-.7-1.1-.6-2.4.3-3.7.7-1.2 2-6.8 2.9-12.6l2.7-17.3c.6-3.7 1.4-6.5 1.7-6.3.4.2 4.8-.7 9.7-2 6.4-1.7 11.7-2.4 18.2-2.4 7.8 0 10.6-.5 19-3.4 10-3.5 19.6-7.3 26.8-10.6 7.8-3.7 12.9-4.5 17.7-2.9 4.3 1.4 6.1 3 20 17.5 6.8 7.1 7.8 9.6 7.5 18.4-.1 5.9 1.5 28.8 2.4 32 1.1 4.4 1.1 12.3-.1 17.5-1 4.5-1.5 19.8-1.1 32.5.2 6.5-.2 10.1-1.9 15.5-2 6.5-15 33.8-17.1 36-.5.5-.9 1.9-.9 3.2 0 3 2 2.1 4.4-2 6.9-11.8 9.6-16.9 9.6-18 0-.4.9-2.9 2.1-5.5 9-20.6 9-20.8 8.4-71.7-.6-55.9-.1-51.7-6.6-57.9a85.3 85.3 0 0 0-8.2-7.3c-1.6-1.2-3.5-3-4.1-4.1-4-6.6-5.3-8-9-9.4-7.8-3.1-14.2-1.9-33.1 5.9-20.1 8.2-27.2 10.3-37.4 11-9 .5-10.9.7-22.3 2.4-6.6 1-8.8 1.7-8.9 2.9 0 .8-1.2-1.7-2.7-5.5-2.3-6-4.3-9.9-9.2-18.5-4.2-7.3-7-14.8-7-18.9 0-2.5-.6-5.8-1.4-7.3-.8-1.5-2.2-5.2-3-8.2-.9-3.1-2.1-5.6-2.6-5.6s-1.2-1.6-1.6-3.5c-.3-1.9-1.9-5.1-3.4-7-3.7-4.7-10.3-17.6-13-25.5a80.8 80.8 0 0 0-3.6-9.2 11 11 0 0 1-1.4-4.1c0-.9-.6-2.8-1.4-4.4-.8-1.5-2.9-6-4.7-9.8-1.8-3.9-3.5-7.2-3.9-7.5-.4-.3-1.5-3.2-2.5-6.5-4.7-16.2 3.3-28.1 17.3-26 5.7.8 7.4 1.7 13.3 6.7 3.8 3.2 4.9 4.9 6.2 9.8.9 3.2 1.4 6.5 1.1 7.3-1 2.6 2.2 12.2 6 18.1 5.6 8.8 14.3 11.9 21.4 7.6 1.7-1.1 3.2-2.2 3.2-2.6 0-.3-1.1-1.9-2.5-3.6-3.7-4.4-3.3-6.2.8-3.9 1.7 1 4.8 2.2 6.7 2.5 3.2.5 14.7-.8 15.7-1.8.3-.2.8-2 1.3-3.9.7-3.2.4-3.9-2.5-6.7-1.8-1.8-3.5-4.3-3.8-5.6-.4-2.4-.3-2.4 1.7-.9 1.1.9 5.4 3.2 9.5 5.2 7 3.3 7.9 3.5 14.5 3 20.3-1.7 23.3-3.6 25.6-15.7 1.5-7.8 3.1-13.4 4.2-14.7.6-.8.9-4.4.6-9.5-.5-7.8-.6-8.3-3.9-11-4.1-3.5-5-2-1.9 3.4 1.5 2.7 2 4.8 1.6 6.6-.3 1.5-.9 4.2-1.1 6.1-.3 1.9-1.4 5.5-2.5 7.9-1.1 2.5-2 6.4-2 8.8 0 8.5-.6 9-14.5 12.5-10.6 2.7-18.5.9-29-6.5-7.8-5.5-13.9-8.4-20.7-9.6-4.9-1-5.3-.9-8 1.7-2.3 2.2-2.8 3.5-2.8 7.2.1 7.5 2.2 14.5 7.8 25.3.2.5-.7.8-2 .8-1.8 0-2.8-1.1-4.5-4.8-4.3-9-5-16.1-2.7-27 .6-3 .4-3.3-1.2-3-2.7.5-4.6 9.5-3.9 18.2.7 7.8 1.9 11 5.4 14.8l2.5 2.8h-2.6c-3.4 0-5.2-1.9-7.4-7.6-1.6-4.1-1.6-5.6-.6-13.3.7-4.7 1.5-9.8 1.8-11.4.5-2.1.3-2.7-1-2.7-.9 0-1.6.3-1.7.7 0 .5-.8 3.9-1.8 7.8l-1.9 7-.7-5.2c-.4-2.9-.4-5.7 0-6.2.9-1.6-2.3-7-7.5-12.8-4.9-5.3-6-8.3-6-16 0-3-.5-4.5-1.5-5-.9-.3-1.8-.4-2-.2-.7.8-.9 11.5-.1 13.7.5 1.6.4 2.2-.6 2-1.7-.4-3.8-7.3-3.8-13 0-3.7-.4-5-2-5.8-1.9-1-2-.8-2 3.8 0 2.7.7 6.9 1.5 9.3 1.3 3.7 1.4 4.2.1 2.9-1.8-1.9-4.6-11.3-4.6-15.7 0-2.9-.3-3.3-2.6-3.3-2.3 0-2.5.3-2 2.7.3 1.6.8 5 1.2 7.8.4 2.7 1.4 5.6 2.3 6.2 1.4 1.1 1.4 1.4.1 2.3-.8.5-1.8 1-2.2 1-1.6 0-5-9-6-16.3-1-6.6-1.4-7.7-3.1-7.7-1.6 0-1.8.5-1.3 2.7.3 1.6 1 5 1.6 7.8.6 2.7 2 6.9 3.1 9.3 2.1 4.2 2.1 4.3.3 5.7-1.1.8-2.8 1.7-3.9 2.1-1.1.4-2.3 1.1-2.6 1.6-1 1.6-9-8.4-12.6-15.8-1.8-3.9-3.9-9.8-4.5-13.2-.9-4.8-1.5-6.2-2.9-6.2-1 0-2 .4-2.3.9-.7 1 2.6 11.5 5.8 18.6 1.3 2.7 2.6 6.5 3 8.4l.6 3.4-2.1-1.9c-6.2-5.5-15.9-22.9-15.9-28.3 0-2.2-.9-3-2.6-2.4Zm100 51.1c.7 1.1-2.7 10.2-3.8 10.2-.8 0-.2-5 1-9.3.6-1.8 1.9-2.3 2.8-.9Zm6.1.9c-2.5 5.9-3.4 9.2-3.5 12.5 0 3.9-1.3 5-2.4 2.2-1.1-2.8-.6-6 1.4-10.6 1-2.4 2.2-4.7 2.6-5.1 1.4-1.4 2.6-.7 1.9 1Zm2.1 5.1c-1.8 3.5-2.1 6.2-.6 6.2.6 0 1-.7 1-1.6 0-1.9 3.1-7.4 4.2-7.4.4 0 0 1.6-.8 3.6-.8 1.9-1.4 4.8-1.2 6.3.3 2.8 4.4 8.8 5.4 7.8.9-.9-1.6-4.8-2.7-4.2-1.2.8-1.1-.3.2-6.5.6-2.7 1.4-5 1.8-5 .4 0 1.3 1.7 2 3.7.8 2.1 2 4.6 2.8 5.5 2.6 2.9-1.2 9.8-5.4 9.8-6.1 0-11.9-3.9-8-5.3 1-.4 1-.7 0-1.8-.7-.7-1.3-2.8-1.3-4.7 0-4.8 2.1-11.5 3.3-10.3.5.5.2 2.1-.7 3.9Zm22.9 199.2c.3.5.1 1-.4 1-.6 0-1.1-.5-1.1-1 0-.6.2-1 .4-1 .3 0 .8.4 1.1 1Zm-102.2 7.4c5.1 2.4 8.4 5.8 9.6 10.1 1.7 6.3 1.5 6.7-2.3 4.6-1.9-1.1-3.6-1.8-3.9-1.5-.2.2-.9-.2-1.6-1-1.3-1.6-6.2-13.6-5.5-13.6.3 0 1.9.7 3.7 1.4Zm87.2 1.6c.3.6-.1.7-.9.4-1.8-.7-2.1-1.4-.7-1.4.6 0 1.3.4 1.6 1Zm-80.1 17.3c1.9 2.4 2.6 4.6 2.6 7.7 0 4.1-.1 4.2-1.8 2.7-1-1-2.4-1.7-3-1.7-.7 0-1.3-1.4-1.4-3-.1-1.7-.2-4.4-.3-6-.3-3.9.8-3.8 3.9.3Zm0 17.9c-1.4 2.8-4 3.4-3.8 1 .1-.7.2-2.9.3-4.9l.1-3.6 2.5 2.3c2.3 2.1 2.3 2.4.9 5.2Zm2.3 12c.4.7 1.5 3.4 2.4 5.9l1.7 4.7-3.1.6c-1.7.3-3.8 1.2-4.6 2-1.9 1.7-9.1 5.7-9.1 5.1 0-1.3 4.5-7.7 6.1-8.6 2.5-1.3 5.2-6.7 4.6-9-.6-2.1.8-2.6 2-.7Z"/>
    <path fill="#000" d="M437.03 236.96c-5.7 12.1-6.3 13.8-6.7 21.2-.4 7.7 1.5 19.3 4.3 26.7.5 1.3 1.7 4.9 2.7 7.9 1 3 2.1 5.9 2.5 6.5.4.5 1.4 3 2.4 5.5 2.7 7.4 11 24.9 11.8 25 .4 0 1-1.1 1.4-2.5.4-1.7-.4-4-2.8-8.1-8.3-14.1-10.9-19.6-14.3-30-4.5-13.9-4.5-13.8-5.2-26.4l-.5-10.5 5.8-11.9c5.1-10.5 5.9-11.7 6.7-9.8.6 1.2 1.4 2.2 1.9 2.2.4 0 .4-.8-.1-1.8-.6-.9-1.2-2.9-1.6-4.5-.3-1.5-.9-2.7-1.3-2.7s-3.5 5.9-7 13.2Z"/>
    <path fill="#FFF" d="m463.23 227.76-1.9 4.1-2.5-1.9c-3.1-2.4-7-3.7-7-2.3 0 .6 1.6 2.3 3.5 3.8s3.5 3.3 3.5 3.9c0 .6-1.6 1.9-3.5 3-1.9 1-3.5 2.4-3.5 3.1 0 1.8 1.4 1.6 5.9-.6l3.9-1.8 2.2 2.8c3.9 4.6 6.1 1.9 3.5-4.4-.5-1.3-.2-1.7 1.3-1.7 1.2 0 2.4.4 2.7 1 .9 1.5 3.5 1.2 3.5-.3 0-.8-1.8-2-4.1-2.7-3.4-1.2-3.9-1.7-3.4-3.4 2.2-7-1-9-4.1-2.6Z"/>
    <path fill="#000" d="M523.23 226.06c-1.1 3 2.9 20.7 4.7 20.7 1.3 0 1.1-1.8-.7-9.6-.8-3.7-1.4-7.8-1.2-9.2.3-2.8-1.9-4.3-2.8-1.9Z"/>
    <path fill="#FFF" d="M572.83 230.76c0 .5.7 2.8 1.6 5 .9 2.3 1.5 4.2 1.3 4.4-.2.1-2.2.9-4.3 1.7-2.1.8-3.8 1.8-3.8 2.4.2 1.5 5.2 1.9 5.2.4 0-.8.7-.5 2 .6 1.1 1 2 2.2 2 2.7s.7 2.4 1.4 4.3c2.1 4.9 4.6 3.8 4.6-2.1 0-4.9 0-4.9 4.7-3.2 2.9 1 3.6 1 4.3-.2 1.5-2.3 1.2-2.7-2-4-4-1.7-4.4-2.4-2.5-5.9.8-1.7 1.5-3.2 1.5-3.6 0-1.3-3-.3-5.4 2l-2.7 2.5-1.9-2.2c-1.1-1.3-2.2-3.1-2.5-4.1-.7-1.8-3.5-2.4-3.5-.7Z"/>
    <path fill="#000" d="M480.83 233.66c0 3.7 8 18.6 8.8 16.3.1-.5-.8-4.2-2.2-8.3-1.7-5.1-3.1-7.5-4.5-8.1-1.2-.4-2.1-.4-2.1.1Z"/>
    <path fill="#FFF" d="M658.43 236.36c-.3.8-.6 2.7-.6 4.1 0 2.4-.1 2.4-5.7 1.8l-5.8-.6 3.5 3 3.5 2.9-2.4 2.6c-3.8 4 0 6.6 4.2 2.8 1.3-1.1 2.1-1.3 2.4-.6.7 2 2.8 4.3 4.2 4.6 1.1.2 1.4-.7 1.2-3.9-.2-3.6 0-4.2 2-4.5 3.6-.5 3.4-2.6-.3-3-3.2-.3-3.3-.4-3-4.4.3-4.4-2-8-3.2-4.8Z"/>
    <path fill="#FFF" d="M445.83 244.66c0 1.1.5 2.3 1.1 2.7.8.4.7.9-.2 1.5-1.2.7-1.2 1.2-.1 2.9 1 1.7 1 2.1 0 1.9-.7-.1-2.8-.1-4.7 0-2.9.1-3.2.3-2.1 1.6.7.8 1.9 1.5 2.6 1.5 1.7 0 1.7 1.4 0 6.2-1.2 3.2-1.1 3.9.1 5 1.8 1.4 3.5-.4 6-6.1l1.5-3.4 3 4.6c1.7 2.6 3.4 4.7 3.9 4.7 1.8 0 .8-4.6-1.7-8.3-2.3-3.4-2.4-3.8-.7-3.6 2.5.3 5.3-1.1 5.3-2.6 0-.9-1.1-1.2-3.9-.8-3.8.5-4 .4-4.6-2.3-1.1-4.9-2.4-7.4-4-7.4-.8 0-1.5.9-1.5 1.9Z"/>
    <path fill="#000" d="M466.33 248.66c-.3.5 1 3.6 2.9 6.8 4.7 8 6.3 9.9 7.2 9 1.1-1-6.7-16.7-8.3-16.7-.6 0-1.4.4-1.8.9Z"/>
    <path fill="#000" d="M528.83 249.46c0 .5.4 1.5 1 2.3 1.1 1.8 2.5.7 1.7-1.5-.6-1.5-2.7-2.1-2.7-.8Z"/>
    <path fill="#000" d="M463.03 253.46c-.1 2.8.9 5.5 3.9 10.5 4.6 7.7 6.4 9.5 7.4 7.8.4-.7-.4-2.4-1.8-3.8-3.2-3.4-6.3-9.8-7.2-14.5-.9-4.8-2.1-4.8-2.3 0Z"/>
    <path fill="#FFF" d="M631.43 258.46c.4 1.6 1.1 3.6 1.6 4.6 1.3 2.5.7 2.8-4.7 3.4-5 .6-4.9.6-3.4 3.4.9 1.7 1.3 1.8 2.5.8 1.3-1 1.7-1 2.4 0 .4.8 1.3 1 2 .6.8-.5 1 .4.5 3.4-.5 3.3-.3 4.3 1.1 4.8 2.1.8 4.7-2.4 4-5-.5-2.2.2-2.1 4.2.3 6.3 3.9 9.2 1.6 4.3-3.4-3.6-3.7-3.9-5.6-1.1-8.1 4.1-3.7 1.7-4.8-3-1.3-1.6 1.2-3.1 2-3.3 1.7l-2-4.2c-1.1-2.5-2.3-3.7-3.7-3.7-1.7 0-1.9.4-1.4 2.7Z"/>
    <path fill="#000" d="M609.83 263.66c0 2.2 2 3.2 4.9 2.4 1.5-.4 2.1-.1 2.1 1.1 0 1 .8 1.6 2.1 1.6 3.9 0 1.6-3.3-3.6-5.2-2.8-1-5.1-1.8-5.2-1.8-.2 0-.3.9-.3 1.9Z"/>
    <path fill="#000" d="M460.83 266.76c0 2 1.8 5.2 5.9 10.8 2.8 3.6 3.6 3.9 4.5 1.6.4-1.1-.7-2.9-3.4-5.5-2.2-2.1-4.2-5-4.6-6.4-.7-3-2.4-3.3-2.4-.5Z"/>
    <path fill="#000" d="M140.83 269.16c0 .9-.7 2.8-1.6 4.2-1.5 2.2-1.5 2.8-.1 6.7 2.8 7.5 6.5 23 7.2 30.2 1.3 12.1 2.7 11 2-1.5-.6-11.4-2.8-23.3-4.8-25.8-.5-.7-.7-1.5-.4-1.8.3-.3-.2-2.2-1-4.2-1.4-3.3-1.4-3.5.1-2.3 1.7 1.4 3.1 3.7 6.5 10.8 3 6.3 4.9 19.4 4.7 31.5-.2 9.4-.4 11-2.1 12.3-1.1.8-2.5 1.5-3.1 1.5-.6 0-2.3.9-3.7 2-1.6 1.3-2.8 1.6-3.2 1-.3-.5-.1-1 .6-1s.9-.3.6-.7c-.4-.3-.2-1.1.3-1.8 1.1-1.3-1.5-25.6-3.1-28.6-.5-1.1-1.8-5.8-2.9-10.5-3.2-14.7-3.9-10.6-1.1 6.6.4 3 1.6 11.1 2.5 18 1 6.9 2.3 12.8 2.9 13.2 1.5.9-1.8 2.2-3.7 1.5-.8-.3-3.9 0-7 .7-3 .7-5.8 1.1-6.1.8-.3-.3-.5.2-.5 1.1 0 1-.5 1.7-1.1 1.7-.6 0-.8.7-.5 1.6.3.8.2 1.3-.3 1-.4-.3-1.9.6-3.1 1.9-1.3 1.4-2.9 2.5-3.7 2.5-.7 0-1.3.8-1.3 1.9 0 1-.6 2.4-1.4 3-.7.6-1.9 5-2.5 9.9-1.3 8.9-2.1 10.8-5.6 12.8-2.8 1.5-2.9 3.6-.7 8.6 1.9 4.1 2.6 6.8 3.8 13.3.2 1.6.7 3.8 1 4.8.4 1.2.1 1.7-.8 1.5-.7-.1-4.2 1.4-7.8 3.4-5.3 2.9-6.8 4.4-7.9 7.4-1.2 3.3-1.2 3.9.4 5 2.1 1.6 1.2 3.4-1.4 2.7-2.5-.6-9.1 1.5-9.2 3 0 .7-.2 2.1-.5 3.2-1.3 6.5-1.5 13.3-.5 13.9 1.8 1.2 1.3 2.3-1.4 3-1.3.3-3.5 2.1-4.9 3.9-2.2 2.9-2.4 3.9-1.9 9 .5 4.6 1.2 6.5 3.5 9 1.9 1.9 2.6 3.3 1.8 3.5-.7.3-2 2.2-2.9 4.3-1.7 3.7-1.7 4.2-.1 8.7 2.4 7.1 3.9 9.3 7.1 10.4 3.5 1.2 3.6 2.7.8 8.5-1.9 3.9-2 4.8-.9 9.4.7 2.7 1.9 5.6 2.7 6.4 1.8 1.9 7.9 1.9 13.1.1 2.3-.8 4.3-1.2 4.5-.8.2.4.4 3.3.5 6.6.1 4.8.6 6.3 2.7 8.4 3.3 3.3 8.4 2.6 13.4-2 2-1.8 3-2.6 2.4-1.8-1.8 2-1.6 2.9.5 2.4 1.4-.4 1.7.3 1.9 4.8.2 2.9.6 7.8 1 10.8.3 3 .7 7.2.7 9.2.1 2 .4 3.9.7 4.2 1.1 1.1 2-16.9 1.3-25.2-.6-7.1-1-8.2-3.1-9.3-2-1.1-2.7-1-5.3.9-1.8 1.4-4.4 2.2-6.9 2.2-5.1 0-6.5-2.3-5.9-9.7.3-3 .2-5.6-.2-5.8-.4-.3-2.5.4-4.6 1.4-4.3 2-9.6 1.8-11.5-.5-.6-.8-1.8-1.4-2.5-1.4-1.9 0-1.8-6.3.2-10.1 2.4-4.7.9-10.9-3.2-12.7-1.3-.7-3.3-2.6-4.5-4.4-2.7-4.4-1.9-9.3 2.1-12.9 3.4-3.2 3.2-4.7-1-7.1-3.4-2-5-5.3-5-10.6 0-3.4.4-3.9 4.6-6.1 3.7-2 4.4-2.8 3.9-4.5a67 67 0 0 1-1.2-7.7c-.5-5.5-.5-5.6 2.9-7.7 2-1.2 4.9-2.2 6.5-2.2 2.9 0 3-.1 3.1-4.9.3-9.7 3.6-13.1 11.1-11.1 2.3.6 4.5 1.8 4.8 2.6 1 2.6 5.8 1.6 9.9-2.1 2.1-1.9 4.6-3.5 5.6-3.5 2.7 0 8.4 4.1 10.4 7.4 2.3 3.9 3.1 1.7 1.4-3.5-1.1-3.1-1.7-3.8-3.2-3.3-1.3.4-1.6.1-1.2-1 .4-1-.2-1.5-2.1-1.8-2.6-.3-2.7-.5-3-8.3-.4-10.4-1.5-18.4-2.6-19.1-.5-.3-.9-1.4-.9-2.5s-.5-1.7-1-1.4c-.7.4-.9-.2-.5-1.7.3-1.2.1-3-.5-3.8-.8-1.3-1.1-1.3-2.5.1-1.5 1.4-1.5 1.9-.1 5.5 1.8 4.5 3.5 12.2 4 17.9.2 2.2.7 5.6 1 7.6.7 3.4.6 3.7-2.3 4.7l-3.1 1.1v-6.7c0-3.9-.6-7.9-1.5-9.5-.8-1.5-1.7-4.5-2-6.5-1.4-8.3-3.5-10.8-5.8-7-.8 1.1-.2 3.3 2 7.9 4.3 8.9 5.6 12.6 4.8 13.8-.3.6-.2 2.7.4 4.6.7 2.5.6 3.5-.2 3.6-.7.1-2.8.2-4.8.3l-3.6.3-.1-6.6c0-3.6-.6-8.6-1.2-11.1-.7-2.5-1.2-5.3-1.3-6.3-.1-.9-.7-1.7-1.4-1.7s-1-.7-.7-1.5c.4-.8 1.2-1.5 2-1.5s1.4-.5 1.4-1.1c0-.6 1.1-2.4 2.5-4.1 1.4-1.6 2.5-3.8 2.5-4.8 0-2 2.2-11 3.6-14.5 1.2-3 6.6-9.5 7.5-9 .4.3 1.1 0 1.4-.6.4-.5 1.3-.8 2.1-.5.8.3 2.3 0 3.4-.6 1.4-.9 2.5-.9 4.2-.1 7.1 3.3 7.7 3.4 10.2 1.2 1.5-1.3 2.2-2.8 1.9-3.8-.4-1.2-.3-1.3.5-.2.5.7 1.8 1.1 2.8.7 3.9-1.2 11 5.7 11.6 11.4.3 3.5 3.3 6.4 4.6 4.5.4-.6 2.6-1.7 5-2.3 5-1.5 5.3-2.4 1.1-3.9-2.5-1-2.9-1.6-2.4-3.2.3-1.2.2-2.1-.3-2.1-.6 0-1.3 1.1-1.6 2.5l-.6 2.5-2.4-2.3c-2.2-2.2-2.3-2.8-1.7-10.3.4-4.3.4-11.7.1-16.2-.3-4.6-.2-8.9.2-9.5.9-1.5 1.2-1 2.7 4.1.7 2.4 1.4 4.2 1.5 4 .2-.1 0-3.1-.3-6.4-.7-6.4-2-8.4-11.3-17.2-1.6-1.5-2.8-3-2.8-3.4 0-.4-2-3.6-4.5-7.2-2.5-3.7-4.5-7.5-4.5-8.6 0-1.1-.4-2-.9-2s-1.6-.3-2.5-.6c-1.1-.4-1.6-.1-1.6 1Zm17.8 27.8c3.1 6.1 4.1 16.4 2.5 24.8-.7 3.6-1 7.3-.7 8.2.4 1.3-.1 1.7-2.4 1.6-2.8-.1-2.9-.2-2.2-4.2.4-2.3.6-6.8.4-10.1-.1-3.3-.3-9.3-.4-13.4-.1-4.1-.6-8.5-1.1-9.9-1.7-4.3 1.4-2 3.9 3Zm-19.1 37c-.3.8-.6.5-.6-.6-.1-1.1.2-1.7.5-1.3.3.3.4 1.2.1 1.9Z"/>
    <path fill="#000" d="M424.83 272.16c0 2 .4 5.6.9 7.9 2.9 13.2 3.6 16.4 3.7 18.8.3 4.1 13.2 34.8 17.1 40.9 4.4 6.7 4.2 6.4 4.7 5.9 1.2-1.2-1.8-9.5-6.2-17-2.7-4.6-5.5-10.2-6.2-12.4-.7-2.2-1.9-4.9-2.6-6-.6-1.1-1.5-3.6-1.9-5.5-.4-1.9-1.5-5.3-2.5-7.5s-2.6-9.2-3.6-15.5c-1.8-11.8-3.4-16.3-3.4-9.6Z"/>
    <path fill="#000" d="M452.83 271.46c0 1 1.1 3.6 2.5 5.8 1.3 2.2 2.5 4.8 2.5 5.7 0 1 .6 1.8 1.3 1.8.7 0 2.1 1.3 3 3 1 1.6 2.2 3 2.8 3 1.4 0 1.1-3-.5-3.6-.7-.3-3.3-4.3-5.7-8.9-4.4-8.4-5.9-10.2-5.9-6.8Z"/>
    <path fill="#000" d="M440.83 273.16c0 3.3 4.4 15.5 7.3 20.1 1.7 2.7 4.7 8.3 6.8 12.3 3.7 7.4 5.7 8.2 4.5 1.8-.4-2-1.8-4.1-3.6-5.5-3.7-2.7-6.8-9-10.5-21-2.5-8.1-4.5-11.5-4.5-7.7Z"/>
    <path fill="#000" d="M419.83 286.06c0 17.3 3.2 28.1 14.9 50.7 3.4 6.5 5.7 7.9 4.6 2.9-.4-1.9-1.5-4.3-2.5-5.4-2-2.2-5.3-9.3-7.7-16.5-4.8-14.7-9.4-39.4-7.8-42 .3-.5.1-1-.4-1-.7 0-1.1 4-1.1 11.3Z"/>
    <path fill="#000" d="M118.73 279.46c-.1 1.6-.3 4.4-.5 6.3-.2 1.9.1 8.2.6 14 .6 5.8 1.3 13.2 1.6 16.5.7 8.5 1.3 11.2 2.8 12.5 1 .8 1.5.7 1.9-.4.4-.9.2-1.8-.2-2-.4-.3-1.1-4-1.5-8.3-.7-7.7-.9-10.5-2.2-31.1-.3-5.6-1-10.2-1.5-10.2s-1 1.2-1 2.7Z"/>
    <path fill="#000" d="M111.43 278.66c-1.1 1.7.3 37.7 1.9 47.6 1.4 9.3 2.6 12.7 4.1 11.3.6-.7-.8-9.7-2.6-16.8-.8-3-1-10.8-.7-23.8.3-15.2.1-19.2-.9-19.2-.7 0-1.5.4-1.8.9Z"/>
    <path fill="#000" d="M126.73 278.46c-.1.5-.1 6.2 0 12.8.1 13.3 3.4 33.7 5.7 35.6 1.6 1.3 1.6 1.3.4-7.1-.5-3.6-1.2-13.9-1.5-23-.4-9.1-.8-17.1-1-17.8-.5-1.3-3.4-1.7-3.6-.5Z"/>
    <path fill="#000" d="M101.03 287.96c-1.4 9.6-.9 26.2 1.2 36.8.9 4.7 1.9 10.2 2.2 12.3.6 3.2.9 3.7 2.8 3.1 1.1-.4 2.2-.7 2.2-.8.1 0-.2-2.6-.6-5.6-2.5-17.6-3.2-27-2.9-39.3.4-13.4.4-13.7-1.7-13.7-1.9 0-2.3.9-3.2 7.2Z"/>
    <path fill="#000" d="M92.43 285.46c-3.4 6.7-4.1 21.5-1.7 37.3 2.9 19.4 3.4 22 4.8 22 1.7 0 1.7-5.8-.2-13.5-2.3-9.7-2-35.3.7-46.4.6-2.7-2.1-2.1-3.6.6Z"/>
    <path fill="#000" d="M413.63 287.36c-1.3 2.1 1 15.8 5.1 30.9 4.6 16.6 7.5 23.5 9.8 23.5 2 0 1.2-3.2-3.4-13.5-4-8.8-8.9-26.3-10.1-35.8-.4-3.4-1-5.7-1.4-5.1Z"/>
    <path fill="#000" d="M455.83 291.16c0 1 4 7.6 4.6 7.6 1 0 .2-1.9-2.1-5-1.4-1.9-2.5-3-2.5-2.6Z"/>
    <path fill="#000" d="M382.93 301.36c0 1.1.3 1.4.6.6.3-.7.2-1.6-.1-1.9-.3-.4-.6.2-.5 1.3Z"/>
    <path fill="#000" d="M408.93 304.26c-.1 2.2 1.7 10.1 3.8 17.5 2.2 7.4 4.3 15.2 4.6 17.3.9 4.8 2.5 5.8 2.5 1.6 0-3.3-1.2-7.9-3.5-13.4-.7-1.7-2-6.6-3-11s-2.3-9.8-3-12l-1.3-4-.1 4Z"/>
    <path fill="#000" d="M436.93 309.36c0 1.1.3 1.4.6.6.3-.7.2-1.6-.1-1.9-.3-.4-.6.2-.5 1.3Z"/>
    <path fill="#000" d="M431.03 315.26c0 1.6.2 2.2.5 1.2.2-.9.2-2.3 0-3-.3-.6-.5.1-.5 1.8Z"/>
    <path fill="#000" d="M431.63 319.46c.7.3 1.6.2 1.9-.1.4-.3-.2-.6-1.3-.5-1.1 0-1.4.3-.6.6Z"/>
    <path fill="#000" d="M170.83 334.86c0 1.1.4 1.8 1 1.4.5-.3.7-1.2.3-2-.7-2.1-1.3-1.9-1.3.6Z"/>
    <path fill="#000" d="M193.83 341.56c0 .4 1.1 1.4 2.4 2.2 1.3.8 4.8 3.7 7.8 6.5 6.1 5.5 17.4 14 22.7 16.8 2.6 1.5 3.6 1.6 4.5.7.8-.9.8-1.4-.2-1.7-.7-.3-1.8-1-2.5-1.6-1.5-1.5-12.5-8.7-13.1-8.7-1.5 0-18.7-12.7-19.4-14.3-.5-.9-2.2-.9-2.2.1Z"/>
    <path fill="#FFF" d="M431.83 347.26c-1.8 2.5-3.6 4.5-3.9 4.5-.2 0-3.1-.9-6.4-2.1l-5.9-2.1-2.1 2.1c-2.5 2.4-2.1 2.9 5.1 6.6 2.8 1.5 5.2 3 5.2 3.4 0 .3-1.8 2.6-4 5.1-2.8 3.3-3.6 4.8-2.8 5.7.6.7 1.5 1 2 .7.5-.3.7-.9.3-1.2-.6-.6 5.6-3.7 9.8-4.7 2.1-.6 2.7-.4 2.7.8 0 .9.6 2.2 1.3 2.9.8.7 1.8 2.6 2.4 4.3.5 1.6 1.4 3 2 3.2 1.2.4 2.3-7.6 1.1-8.3-.4-.3-.8-1.6-.8-2.9 0-1.3-.4-2.7-1-3-2.3-1.4-.7-2.4 4.3-2.7 4.4-.3 5.2-.6 5.2-2.3 0-1.6-1-2.2-5-2.9-5.8-1.1-6.4-1.4-4.7-2.5.7-.4 1.3-2.5 1.5-4.6.3-5.6-2.1-5.6-6.3 0Z"/>
    <path fill="#000" d="M147.63 353.96c6.7 10.3 11.2 23.1 11.9 33.8.3 4.7 1 9 1.4 9.6.5.6 2 .9 3.4.6 2.3-.4 2.4-.7 1.8-4.6-.3-2.2-1.7-7.5-2.9-11.6-1.3-4.1-2.4-8-2.4-8.6 0-2-4.2-11.4-5.1-11.4-.5 0-.9-.7-.9-1.5 0-1.6-7.7-10.5-9.1-10.5-.5 0 .4 1.9 1.9 4.2Z"/>
    <path fill="#000" d="M136.83 352.06c0 .7.4 1.7.8 2.2.5.6 2.1 4.3 3.6 8.2 1.5 4 3.1 7.3 3.4 7.3.4 0 .7 1.6.8 3.6 0 2 .5 3.9 1 4.2.6.4 1 1.7 1.1 2.9.2 5.2.3 5.5 1.8 4.9.8-.3 1.5-.1 1.5.4 0 .6-.4 1-.8 1-1 0-.9 3.4.2 9.8.7 3.7 1.1 4.3 2.9 4 1.7-.2 2.2-.9 2-3.3-.3-6.6-5.2-26.6-7.6-31.3-1.9-3.7-5.4-9.8-7.3-12.8-1.8-2.6-3.4-3.2-3.4-1.1Z"/>
    <path fill="#000" d="M400.83 355.06c0 .7.4 1.7.8 2.2.5.6 2.3 5.3 4.1 10.5 4.6 13.8 11.3 26.2 20 37 9.8 12.2 16.1 18.6 16.1 16.2 0-.9-1.7-3.3-3.6-5.2-9.4-9.1-21.9-29-26.9-42.5-1.1-2.8-2.6-6.4-3.5-8-.9-1.7-2.2-4.9-3-7.3-1.2-3.9-4-5.9-4-2.9Z"/>
    <path fill="#000" d="M129.83 356.86c0 .6.5 2 1.1 3.1 2.5 4.6 7.9 25.5 8 30.7.1 7.8 1 10.3 3.7 10.8 2 .3 2.2 0 1.6-2.5-.3-1.5-1-5-1.5-7.7-1.9-9.5-2.8-13-4-16-.6-1.7-1.3-3.9-1.4-5-.6-4.2-5-14.5-6.2-14.5-.7 0-1.3.5-1.3 1.1Z"/>
    <path fill="#000" d="M426.83 373.36c0 1.6 2.3 4.4 3.5 4.4 1.8 0 2-2.1.3-3.8-1.2-1.2-3.8-1.7-3.8-.6Z"/>
    <path fill="#000" d="M422.13 379.66c.8 3.4 12.7 23.6 16 27.5 3.7 4.2 4.7 4.5 4.7 1.2 0-1.4-2.2-5-5.3-8.8-2.9-3.6-7.1-10-9.2-14.2-2.1-4.3-4.4-7.6-5.3-7.6-.9 0-1.3.7-.9 1.9Z"/>
    <path fill="#000" d="M432.23 381.46c.6 2.3 3.7 7.1 8 12.7 1.4 1.7 3.6 1.5 3.6-.5 0-.5-1.3-2.7-2.9-4.9-1.5-2.1-3.4-5.3-4.1-7-1.7-4-5.6-4.4-4.6-.3Z"/>
    <path fill="#FFF" d="M356.13 403.26c.7-.3.2.2-1 1.1-2.6 1.9-3 3.4-.8 3.4 1.8 0 3.1 2.4 4 7.3 1.1 5.4 2.5 4.5 2.5-1.6v-5.4l3 .5c3 .4 3.1.3 2.9-3.4-.1-5 .4-7.7 1.6-8.6.5-.4.6-1 .2-1.4-.3-.4-2.2.5-4.2 2-3.3 2.6-3.6 2.6-6 1-1.4-.9-3-2.4-3.5-3.3-.5-.9-1-1.4-1.1-1.1-1.1 5.1.3 10.5 2.4 9.5Z"/>
    <path fill="#000" d="M505.43 409.56c-.3.5.5 1.7 1.7 2.7 6.4 5.3 9.7 8.2 14.2 12.4 2.8 2.6 6.1 5.5 7.5 6.4 1.4 1 4.9 4 7.8 6.9 2.8 2.8 5.5 4.8 5.9 4.4.7-.7-10.5-11.9-21.6-21.6-3.5-3-8-7-10-8.7-3.8-3.4-4.7-3.8-5.5-2.5Z"/>
    <path fill="#000" d="M515.83 409.56c0 1.1 10.1 8.5 10.7 7.9.3-.3-.4-1.2-1.6-1.9-1.2-.7-2.1-1.8-2.1-2.4 0-.7-1.1-1.5-2.5-1.8-1.4-.4-2.5-1.1-2.5-1.6 0-.6-.4-1-1-1-.5 0-1 .4-1 .8Z"/>
    <path fill="#000" d="M495.83 413.66c0 1.2.9 2.9 2 3.8 1.1 1 4.3 3.9 7.1 6.5s5.5 4.5 6 4.2c.5-.3.9-.1.9.5 0 .5 2.8 3.6 6.1 6.8 3.4 3.2 10.8 10.4 16.4 16 9.7 9.8 13.9 12.8 11.6 8.4-1.5-2.8-37-38.4-41.6-41.7a88.9 88.9 0 0 1-4.5-3.4c-.3-.3-1.3-1.1-2.2-1.9-1.6-1.2-1.8-1.1-1.8.8Z"/>
    <path fill="#FFF" d="M694.83 415.26c-.6 1.4-1 3.3-1 4.1 0 1.5-3.5 1.1-7.4-.8-1.2-.7-2.2-.6-3 .2-.8.8-.5 1.6 1.4 3 1.4 1.1 3.1 2 3.8 2 1.7 0 1.5.7-.9 4.6-1.8 2.9-1.8 3.5-.6 4 .9.3 2.6-.2 4-1 2.6-1.7 5.7-1.2 5.7.9 0 1.7 3.7 4.8 4.4 3.7.3-.6-.1-2.6-.9-4.6-1.9-4.5-1.9-6.6.1-6.6.8 0 2.4-.5 3.5-1.1 3-1.6.5-4.3-3.3-3.5-2.6.5-2.8.3-2.8-2.9 0-4.3-1.7-5.4-3-2Z"/>
    <path fill="#000" d="M531.13 423.26c5.2 4.8 7.5 5.8 5.7 2.5-1.1-2.1-7.8-7-9.5-7-.5 0 1.2 2.1 3.8 4.5Z"/>
    <path fill="#FFF" d="M575.83 423.06c-.8.7-1.4 2.3-1.2 3.7l.3 2.5-1.8-2.1c-1-1.2-3.1-2.4-4.8-2.7-1.6-.3-4.2-.9-5.7-1.3-3.9-.9-3.7 1.4.3 4.9l3.2 2.8-2.7 2.7c-4.6 4.9-3.4 6 4.1 3.7 1.9-.6 2.3-.2 3.2 3.3 1.2 4.4 3.3 5.9 5.2 3.6 1-1.2 1-2.3.2-4.5-1.2-3-.5-4.1 2.5-4.5 2.9-.5 4.3-1.5 3.9-2.7-.2-.6-.8-1.2-1.3-1.2-2-.1-4.6-2.2-3.5-2.9 1.2-.8 1.5-5.2.3-6-.4-.2-1.4.1-2.2.7Z"/>
    <path fill="#000" d="M281.23 425.66c.3.5 1.5.7 2.6.4 2.8-.7 2.5-1.3-.6-1.3-1.4 0-2.3.4-2 .9Z"/>
    <path fill="#000" d="M393.43 434.76c.4 6.8 1.1 9.5 3.7 14.9 3.8 7.7 9 14.8 17 23.4 5.1 5.5 5.7 5.9 5.3 3.4-.3-1.5-2.7-5.3-5.4-8.5-7.4-8.7-11.6-15.7-16.5-27.2-.9-1.9-1.9-5.3-2.2-7.5-1.4-7.6-2.3-6.9-1.9 1.5Z"/>
    <path fill="#000" d="M649.83 448.26c.7.8 1.7 1.5 2.2 1.5.6 0 .5-.7-.2-1.5s-1.7-1.5-2.2-1.5c-.6 0-.5.7.2 1.5Z"/>
    <path fill="#000" d="M598.83 463.76c-.8.5-1.2 1-1 1.2 2.1 1.3 7.3 3.8 8.1 3.8.5 0 2.9.9 5.4 2.1 2.4 1.1 5 1.9 5.7 1.6.7-.2-2.1-2-6.3-4-4.2-1.9-7.9-4-8.3-4.6-.9-1.3-1.6-1.4-3.6-.1Z"/>
    <path fill="#FFF" d="M672.83 466.26c0 .9-.5 1.3-1 1-.6-.4-1.3.7-1.6 2.5-.5 2.2-1.1 2.9-2.3 2.6-8-2.2-10.2-1.4-5.8 2.1l2.4 1.8-1.9 5.9c-1.2 3.6-1.6 6.2-1 6.8 1.3 1.3 8.6-7.7 7.9-9.6-.3-.8 0-1.6.7-1.9.7-.3 1.3.4 1.3 1.7.2 2.1 5.4 7.6 7.3 7.6 1.6 0 1.1-3-1.1-6.6-2.1-3.5-1.9-5.7.6-4.8.8.3 1.9.3 2.5-.1 1.3-.8-1.6-4.5-3.6-4.5-.7 0-1.4-1.2-1.6-2.7-.3-2.9-2.8-4.5-2.8-1.8Z"/>
    <path fill="#000" d="M592.43 471.36c-1.2 3.1-.6 5.5 1.7 6.3 2.6 1 3.5.5 1.9-1.1-.7-.7-1.2-2.2-1.2-3.4 0-2.8-1.6-4-2.4-1.8Z"/>
    <path fill="#000" d="M686.33 476.46c-.4 3.8-.8 14-1 22.8-.5 22.5-1.5 32.5-3.3 36-1.6 2.9-1.8 3.4-2.1 6.5-.1.8-1-.3-1.9-2.5-2.2-5.1-4.9-9.6-8.8-14.8a66 66 0 0 1-5.2-9c-1.2-2.6-2.8-4.7-3.5-4.7-.6 0-2.3-.9-3.7-2-2.8-2.2-5-2.6-5-1 0 .6 1.9 3 4.3 5.4 2.3 2.4 5.1 6.1 6.2 8.2 1.1 2.2 3.8 6.4 6 9.4 5.7 7.8 9.1 14.5 12.4 24.7 1.6 4.8 4.7 14.6 7.1 21.8 2.3 7.1 4.8 14.1 5.6 15.7.8 1.5 1.3 3.1 1.2 3.5-.1.4 1.2 5.3 2.9 10.8 1.8 5.5 3.4 12.6 3.7 15.8.3 3.2.8 6.2 1 6.6.6 1 .7 9.1.2 24.6-.4 12.1-.6 13.5-3.6 19.7-1.7 3.7-2.9 7.1-2.6 7.7.3.5-.1 1.4-.9 2.1-.8.7-1.5 2-1.5 2.9 0 2.5-6.8 13.2-11.6 18.5a85.6 85.6 0 0 0-7.5 9.6c-1.9 2.9-4 5-5 5-2.2 0-3.5 1.8-2.1 3.2 1.8 1.8 4.7-.8 13.3-11.4 4.5-5.7 9.2-11.2 10.5-12.3 1.2-1.1 2.7-3.7 3.2-5.7.6-2.1 2-5.1 3.1-6.7 1.2-1.6 2.1-3.4 2.1-4 0-.6 1.1-3.2 2.5-5.8 1.3-2.7 2.7-5.7 3.1-6.8.4-1.1.6-13.2.5-26.9-.1-25.2-.6-29.2-4.4-37.8-1.7-3.7-4.7-12.7-4.7-14 0-.4.6-.8 1.4-.8.7 0 1.6-.8 2-1.8.3-.9 1-2.8 1.6-4.2.8-2.1.5-2-2 .9-1.6 1.9-3.1 3.3-3.3 3-.4-.3-2.2-5.3-5.6-15.4-3.5-10.2-5.2-16.6-4.5-17.6.7-1.3 1.4-4.6 1.8-8.9.2-1.4.8-4.1 1.3-6 1.6-5 3.2-19.5 3.8-34 .2-6.9.7-13.4.9-14.5.2-1.1.7-4.9 1.1-8.5.5-5.1.4-6.9-.7-7.8-1.2-1-1.6-.1-2.5 5.6-.5 3.7-1.1 11.2-1.2 16.7a150 150 0 0 1-1.6 18.5l-1.3 8.5-.1-17c0-9.8.6-21.2 1.4-27 1.1-7.7 1.1-10.1.2-10.7-2.2-1.4-2.4-.9-3.2 5.9Zm.7 61c-.6 3.2-1.2 7.9-1.4 10.5-.1 2.7-.5 4.8-1 4.8-.4 0-.8-.6-.8-1.4 0-.7-.9-2.5-2.1-4-1.9-2.4-1.9-2.7-.5-4.2.9-.8 1.6-2.1 1.6-2.7.1-2.1 4-10 4.7-9.4.3.4.1 3.2-.5 6.4Z"/>
    <path fill="#000" d="M381.53 479.76c.7 6.5 2 10.3 6.9 20.5 5.2 10.8 16.7 29.8 18.3 30.3 2.8.9.7-5.6-4.5-13.4-4.8-7.2-8.6-14.8-19.3-37.9l-1.9-4 .5 4.5Z"/>
    <path fill="#000" d="M597.83 477.76c0 1.3 1.8 2.2 2.4 1.1.3-.5-.1-1.1-.9-1.5-.8-.3-1.5-.1-1.5.4Z"/>
    <path fill="#000" d="M697.83 486.96c0 8.3-2.6 39.8-4 47.3-3.5 20.4-3.6 22.1-.6 19.6.7-.6 1.9-4.8 2.5-9.4.7-4.5 1.6-10 2.2-12.2 1.5-6.6 2.3-15.3 3.5-37.3.4-8.9.3-12.7-.6-13.7-2.3-2.8-3-1.5-3 5.7Z"/>
    <path fill="#FFF" d="M642.23 517.86c-.5 2.8-1 3.7-1.7 3-1.7-1.7-4.7-1.4-4.1.4.4.8.2 1.5-.4 1.5-.5 0-1.5-.7-2.2-1.5-1.5-1.9-4.1-2-3.4-.2.3.8 2 2 3.9 2.7 1.9.8 3.5 1.5 3.5 1.6 0 .1-.7 2.1-1.5 4.4-.8 2.3-1.5 4.6-1.5 5.1 0 1.9 2.6.7 6.2-2.7l3.7-3.7 2.1 3.7c1.2 2 2.6 3.6 3.1 3.6 1.1 0 1.1-2.8-.1-5.5-.6-1.5-.1-2.6 2.2-4.8 4.4-4.1 3-6.2-2.9-4.3-1.9.6-2.3.2-3.3-3.3-1.4-5.2-2.8-5.2-3.6 0Zm-3.4 14.9c0 .5-.4 1-1 1-.5 0-1-.5-1-1 0-.6.5-1 1-1 .6 0 1 .4 1 1Z"/>
    <path fill="#000" d="M156.83 518.76c0 .5.4 1 .9 1 1.1 0 4.6 11 6.1 18.9 1.4 7.5 2.4 7.9 1.6.6-1-7.9-5.5-21.5-7.3-21.5-.7 0-1.3.4-1.3 1Z"/>
    <path fill="#000" d="M191.33 518.66c-.3.5-.1 1.2.5 1.6 1.1.7 5.4 9.6 7.6 15.9.9 2.4 1.4 8.2 1.4 15.5 0 6.4.5 12.3 1.1 13.1.7 1 .9-3.8.7-15.7-.2-12.1-.7-17.6-1.5-18.5-.7-.6-1.3-1.8-1.3-2.6s-1-3.4-2.2-5.8c-2-4.2-4.9-5.7-6.3-3.5Z"/>
    <path fill="#000" d="M175.83 520.16c0 .8.4 1.8 1 2.1.5.3 1.4 2.3 2 4.5.8 2.9 1.5 3.8 3 3.7 1.1-.1 1.8-.6 1.6-1.2-.2-.5-.9-.9-1.5-.8-.6.2-1.1-.8-1.1-2.2 0-3.3-2-7.5-3.7-7.5-.7 0-1.3.6-1.3 1.4Z"/>
    <path fill="#000" d="M183.83 519.16c0 .3 1.3 3.4 2.8 6.8 5.8 12.8 6.5 16.3 6.4 30.8-.1 10.2.1 12.9.9 11 1.7-4.1.5-30.7-1.6-35.5-.9-2.2-2-4.2-2.4-4.5-.4-.3-1.4-2.3-2.2-4.4-.8-2.2-2-4.1-2.7-4.4-.6-.2-1.2-.1-1.2.2Z"/>
    <path fill="#000" d="M167.43 522.96c.9 1.8 2 3.5 2.3 3.8 1 .8 1.3 4.8 1.7 20 .1 8 .3 15.6.4 17l.1 2.5 1.3-2.5c2-3.7 3.1-17.1 1.5-18.1-1-.6-1-1 0-2.3.7-.8 1-2 .6-2.6-.3-.5-.8-3.3-1-6.2-.3-2.8-1.1-5.8-1.9-6.7a15 15 0 0 1-2.1-4.9c-.5-2.3-1.2-3.2-2.6-3.2-1.9 0-1.9.1-.3 3.2Z"/>
    <path fill="#000" d="M128.83 523.76c0 .6 1.1 1.5 2.3 2.1 1.3.6 2.4 1.6 2.4 2.2.1.7.6 3.6 1.2 6.4.6 2.9.8 8.8.5 13.1-.5 6.9-.4 8 1.1 8.6 1.6.6 1.6.8.3 2.4-2.9 3.2-4.9 8-3.7 8.8 1.2.7 2.8-1.3 2.9-3.6.1-2.1 4-6.3 7.3-7.8 3.4-1.5 4-1.5 3.2-.2-.3.5-.1 1 .4 1 .6 0 2.8 1.7 4.9 3.8 4.5 4.6 9.2 6.9 10.3 5.1.7-1.1-2.9-4.9-4.6-4.9-.3 0-1.3-.6-2.1-1.4-.7-.8-1.9-1.7-2.6-1.9-.9-.4-1-.8-.2-1.4.5-.4 1.6-2.3 2.4-4.1 1.9-4.8-.5-23.2-3-23.2-2.7 0-3 1.1-1.3 4.4 1.8 3.4 2.6 15.3 1.1 16.3-.5.3-.7 1.7-.3 3 .5 2.2.3 2.4-1.2 1.8-3.2-1.4-8-1.7-8.7-.6-.6.9-4.6 1.7-4.6.8 0-.1.4-1.7.9-3.5.6-2 .6-3.2 0-3.2-1.1 0-.7-4.5.4-5.6.9-.9.9-6.7.1-8.8-.3-.9-1.1-1.3-1.8-.9-.6.4-.5-.1.3-1 .7-.9 1-1.7.6-1.7s-.2-.7.6-1.6c1-1.3 1-1.7-.2-2.5-.8-.4-2.1-.6-3-.4-.9.3-2.2-.1-2.9-1-1.4-1.7-3-2-3-.5Z"/>
    <path fill="#000" d="M149.03 524.96c-1.8 1.8-1.5 4.1.4 3.4.9-.3 1.8-.6 2-.6.2 0 .4-.9.4-2 0-2.3-1-2.6-2.8-.8Z"/>
    <path fill="#000" d="M140.43 528.46c-.4.9-.2 1.9.3 2.2 1.1.7 4.1 11.9 4.1 15.4 0 3.2.9 5.7 2.2 5.7.5 0 .7-.4.4-.8-.2-.4-.7-3-1-5.7-.8-6.9-1.8-11.8-2.5-13-.3-.6-.4-2-.2-3.3.3-2.6-2.3-3.1-3.3-.5Z"/>
    <path fill="#000" d="M317.83 527.46c0 1 6.1 4.5 6.7 3.9.5-.5-4.7-4.6-5.8-4.6-.5 0-.9.3-.9.7Z"/>
    <path fill="#000" d="M180.83 533.26c0 .8.9 1.5 2 1.5s2-.7 2-1.5-.9-1.5-2-1.5-2 .7-2 1.5Z"/>
    <path fill="#000" d="M182.83 536.16c-.6 1-.5 31.8 0 32.1 1.4.9 3.1-8.6 3-17.3-.1-4.8-.1-10.1 0-11.8 0-2.1-.4-3.1-1.5-3.1-.8 0-1.5.1-1.5.1Z"/>
    <path fill="#000" d="M624.43 540.66c-.4.6.4 1.3 1.9 1.7 1.4.3 2.4.8 2.1 1.1-.2.2-2 0-4-.5-2-.6-3.8-.6-4.1-.2-.3.5 2.1 1.6 5.2 2.5 3.2.9 7.2 2.1 8.9 2.6 3.1.9 16.7 8 21.5 11.2 2.3 1.6 2.7 1.6 3.2.3.5-1.2-1.8-2.7-8.9-6.2-5.3-2.5-9.3-4.8-9.1-5 .7-.7 10.6 2.6 11.3 3.7.3.5 1.2.9 2 .9 4.3 0-3.7-4.4-16.6-9.1-10.6-3.9-12.6-4.4-13.4-3Z"/>
    <path fill="#000" d="M650.83 540.66c0 .5 2.1 2.5 4.8 4.4 2.6 2 5.6 4.5 6.6 5.6 1 1.1 2.3 1.8 2.7 1.5 2.1-1.3.4-3.4-6.1-7.8-7.4-4.9-8-5.2-8-3.7Z"/>
    <path fill="#000" d="M380.53 541.36c-.6.6 5.3 10.7 9.7 16.7 3.8 5 18 21 23 25.6 5.8 5.5 12.4 9.6 18.6 11.5 2.5.8 5.3 1.7 6.3 2.1 1.2.5 1.7.2 1.7-.9 0-.9-.8-1.6-1.8-1.6s-5.9-2.1-10.9-4.8c-14.4-7.4-30.4-24-38.7-40-4.3-8.3-6.1-10.4-7.9-8.6Z"/>
    <path fill="#000" d="M610.33 545.16c-3.2 1.4-6.1 4.3-5.2 5.2.7.7 8.7-4.4 8.7-5.6 0-1.2.2-1.2-3.5.4Z"/>
    <path fill="#000" d="M284.33 546.76c2 2.3 2.9 2.1 1.9-.4-.3-.9-1.3-1.6-2.2-1.6-1.3 0-1.2.3.3 2Z"/>
    <path fill="#000" d="M490.63 547.16c-.7.7-3.9 4.5-7.1 8.4-3.2 3.9-6.9 7.8-8.3 8.7-1.9 1.2-2.4 2.4-2.4 5.4 0 8.8 2.1 9.3 3.9 1 1.3-5.5 2.1-6.9 8.7-13.8 4.1-4.2 7.4-8.4 7.4-9.4 0-2.1-.4-2.1-2.2-.3Z"/>
    <path fill="#000" d="M591.83 549.56c-.8.2-1.9 1-2.5 1.6-.5.7-4.4 4.1-8.5 7.6-8.6 7.3-14.3 13.1-13.5 13.8.3.3 1.3-.2 2.3-1.1 1-1 2.1-1.7 2.5-1.7.3 0 1.8-1.2 3.4-2.8 1.5-1.5 6.4-6 10.7-10 7.7-7.1 8.7-8.4 5.6-7.4Z"/>
    <path fill="#000" d="M164.73 550.26c-.8 1.2-2.1 6.2-2.5 9.2-.5 4.1 1.2 3.3 2.5-1.2 1.2-4.2 1.2-10 0-8Z"/>
    <path fill="#000" d="M571.33 557.46c-9.1 8.3-24.5 23.3-24.5 23.8 0 .3 1.5-.2 3.3-1.2 4.4-2.4 28.8-26.3 26.8-26.3-.9 0-3.4 1.7-5.6 3.7Z"/>
    <path fill="#000" d="M629.43 554.56c-1 .9.5 2.2 2.5 2.2 2.6 0 7.9 2.7 7.9 4.1 0 .5.9 2.9 1.9 5.2 6.9 15.3 10 23.6 9 24.2-.4.3-2.5.5-4.6.4-2.1-.2-4.9.3-6.2 1-2.6 1.4-8.1 12.6-8.1 16.5 0 1.4-.5 2.8-1.1 3.1-1.4 1-.2 15.4 2.1 23.6 1.7 6.1 1.9 6.4 4.6 6.1 5.4-.4 11.9-2.5 14-4.4 1.1-1 2.4-1.5 2.7-1.1.4.3.7.1.7-.5 0-.7.9-1.2 2-1.2s2-.5 2-1c0-.6.5-1 1-1 2.1 0 1.1 4.2-3.4 14.5-1.7 3.8-2.9 15.6-2 20.1.6 3 1 3.4 3.8 3.4 1.8 0 4.1-.7 5.2-1.5 2.9-2.2 5.7-1.9 4.9.4-1.4 4.4-1.2 9.4.6 12.8 2.8 5.5 3.9 6.2 3.9 2.6 0-1.8-.4-3.5-1-3.8-.5-.3-1-2.5-1-4.8l.1-4.2 2 3.9c2.9 5.5 4.5 3.3 1.9-2.6-1.1-2.5-2.1-6.6-2.1-9-.2-5.7-.7-6.3-3-3.4-1.6 2-9.9 7-10.5 6.3-.8-.8-1.3-17.8-.6-20.1 1-3.7 2.7-4.4 3.7-1.4.7 1.9.9 1.4 1.5-2.7s.8-4.6 1.5-2.8c.4 1.3 1.1 2.3 1.5 2.3.4 0-.1-2.8-1.2-6.3-2.9-9.3-5-17-5.2-19.2-.2-1.1-.5-2.7-.9-3.5-1.1-2.9-5.1-16.5-5.3-18-.1-.8-1.3-5.5-2.8-10.5-1.4-4.9-2.6-9.5-2.6-10.2 0-.8-.8-3-1.7-5.1-.9-2-1.8-4.2-1.9-4.7-1-5.6-1.9-7.8-3.8-8.4-2.8-1.1-11.4-2-12-1.3Zm17.4 40.4c0 .5.9.6 2.1.3 2-.7 2-.4 1.3 6.3-.5 5.3-.2 8.9 1.1 14.1 1.9 8 3.6 9.6 2.5 2.3-1.6-10-2.1-18.2-1.1-18.2.6 0 1.3 1.2 1.7 2.7 1.7 7.7 3.6 14.9 4.2 15.8 1 1.6 1.4 9.5.5 9.5-.5 0-1.4-.9-2.1-2-.7-1.1-1.8-2-2.5-2-.6 0-2.8-1.6-4.7-3.6l-3.5-3.5v-10.1c.1-9.7 0-9.9-1.7-7.8-1.4 1.7-1.7 3.5-1.3 7.9.2 3.2.8 6.8 1.4 8.2l1.5 3.9c.6 1.5 2.3 4.2 6 9.4 1.9 2.6 1.9 2.7-.4 5.1-2 2.1-12.6 6.4-13.3 5.4-.2-.2-1.1-3.1-2.1-6.4-1.8-5.8-2.3-18.4-1-24.4 1.8-8.2 6.4-15.2 9.4-14.4 1.1.3 2 1 2 1.5Z"/>
    <path fill="#000" d="M264.83 555.36c0 1.9 9 12.4 10.7 12.4.4 0 1.9 1.4 3.2 3 1.3 1.7 2.7 3 3.2 3 .4 0 2.3 1.4 4.1 3 1.8 1.7 4.5 3.6 6.1 4.3 1.5.6 2.7 1.6 2.8 2.2.1 1.8 10.7 9.6 11.5 8.4.8-1.4-4.5-6.5-14.9-14.3-8.1-6.1-18.6-15.2-20-17.3-1-1.6-6.7-5.6-6.7-4.7Z"/>
    <path fill="#000" d="M119.13 558.66c-4.4 3.2-5.5 6.2-4.6 12.9.6 4.7-1.2 7.1-5.3 7.2-1.2 0-3.4 1.2-4.9 2.6-2.6 2.4-2.7 3-2.2 8.1.3 3 1.3 6.3 2.1 7.2 2.5 2.7 1.9 5-1.7 6.7-4.3 2.1-6.9 7.6-5.4 11.7.5 1.6 1.6 3.1 2.3 3.4.8.3 1.4 1.1 1.4 1.9 0 .8.9 1.9 2 2.6 2.4 1.5 2.6 2.8.5 2.8-.8 0-1.5.4-1.5.9 0 .4-1.1 1.9-2.4 3.2-3 3-3.1 3.9-2.2 11.2 1 6.9 2.6 8.5 2.6 2.5 0-6.8 1.8-11.5 5.8-15.3l3.7-3.6-2.5-2c-7-5.8-7.2-11.1-.7-17.2l4.1-3.7-1.8-3.8c-2.4-5-3.2-12.5-1.4-13.8.7-.6 3.9-2.2 7.1-3.5 5-2 5.7-2.6 5.1-4.4-1.1-3.2-1.2-11.9-.1-13.3.5-.7 1.8-1 2.8-.7 1.3.4 1.9.1 1.9-.9s.6-1.3 1.5-1c1 .4 1.5 0 1.5-1.4 0-1.1-.7-2.3-1.6-2.6-2.1-.8-1.6-1-6.1 2.3Z"/>
    <path fill="#000" d="M593.83 558.76c-1.9 1.6-3.2 3-2.8 3 1.9 0 7.8-3.5 7.8-4.7 0-1.9-1.1-1.6-5 1.7Z"/>
    <path fill="#000" d="M133.83 557.76c0 .5.5 1 1 1 .6 0 1-.5 1-1 0-.6-.4-1-1-1a1 1 0 0 0-1 1Z"/>
    <path fill="#000" d="M561.63 558.46c-1 .2-5 3.6-9 7.5s-10.8 10.2-15.3 14.1c-7.3 6.5-9.9 9.7-7.8 9.7.4 0 3.5-2.6 6.8-5.8 3.3-3.1 10.5-9.7 16-14.6s10.7-9.5 11.5-10.2c1.4-1.4 1-1.6-2.2-.7Z"/>
    <path fill="#000" d="M649.83 559.26c0 .3.7 1.7 1.6 3 .8 1.3 2.2 4.5 2.9 7.2.7 2.6 2.2 7.3 3.4 10.4 1.1 3 2.9 10.2 4.1 15.8 1.1 5.7 2.7 12.8 3.5 15.9.8 3 1.3 5.8 1 6-.2.3 0 1.3.5 2.3 2.1 3.8 3.2 19.2 1.8 24.4-.3 1.1-.3 1.5-.1.8.2-.7 1-1 1.6-.7.7.2 2.1-.9 3-2.6 1.5-2.4 1.6-3.7.9-6.3-.5-1.7-1.8-7.7-2.7-13.2-1-5.5-2.9-14.3-4.2-19.5-1.3-5.2-2.8-11.7-3.3-14.4a70.9 70.9 0 0 0-5.7-16.6c-.7-1.4-1.3-3.2-1.3-4.1 0-.8-.5-2-1.2-2.7-.7-.7-.8-1.2-.3-1.2s-.2-1.1-1.5-2.5c-2.2-2.3-4-3.2-4-2Z"/>
    <path fill="#000" d="M129.43 560.46c-1.1.3-2.6 1.1-3.4 1.9-1.1 1.2-1.1 1.5.2 2 .8.3 1.9.3 2.5 0 .5-.3 1.2 0 1.4.6.7 1.7 2.7-.9 2.7-3.5 0-1.8-.2-1.8-3.4-1Z"/>
    <path fill="#000" d="M432.03 560.96c-.7.7-1.2 2-1.2 3 0 3.5 11.7 12.6 18.3 14.2 2.4.6 2.7.4 2.7-1.8 0-1.9-.7-2.5-3.4-3-4.1-.8-10.9-6.5-12.6-10.6-1.4-3.3-2-3.6-3.8-1.8Z"/>
    <path fill="#FFF" d="M625.03 563.46c.3 1.5-.5 1.8-5.2 1.8-6.3 0-6.9 1.4-1.3 3 2.5.8 3.7 1.6 3.4 2.6-.2.8-.6 2.6-.9 4.1-.4 2.6-.3 2.7 2.2 1.5 2.2-1 3-2.4 2.8-4.8-.1-.3.6-.6 1.4-.6.8 0 1.4.9 1.4 1.9 0 1 .5 1.8 1 1.8.6 0 1 .9 1 1.9 0 1.8 1.8 3.1 4.2 3.1.5 0-.2-2-1.6-4.3l-2.5-4.4 3.9-2.2c2.2-1.2 4-2.9 4-3.8 0-1.3-1-1.5-5.5-1.1-3.9.3-5.6.1-5.9-.9-.8-1.9-2.7-1.6-2.4.4Z"/>
    <path fill="#000" d="M541.63 566.46c-3.7 4.1-22.8 21.7-23.9 22.1-.5.2-.9 1-.9 1.9 0 2.2.8 1.6 11.6-8.4 5.4-5 12.2-11.2 14.9-13.7 4.1-3.7 4.6-4.5 2.9-4.6-1.1 0-3.2 1.2-4.6 2.7Z"/>
    <path fill="#000" d="M163.83 565.66c0 1.7 2.9 3.3 5 2.6 2.9-.9 2.5-2.8-.5-2.3-1.4.3-2.5.1-2.5-.3 0-.5-.4-.9-1-.9-.5 0-1 .4-1 .9Z"/>
    <path fill="#000" d="M172.03 569.56c.3 1-.2 2.4-1 3.2-1.1 1-1.2 1.5-.4 1.8.7.2 1.2 1.3 1.2 2.5 0 2 0 2-1.4.2-1.3-1.8-1.4-1.7-2.9 1.1-1.8 3.3-7.6 9.5-12.7 13.6-1.8 1.5-3 3.1-2.5 3.5.4.5 1 .2 1.2-.5.3-.6 1.1-1.2 1.9-1.2.8 0 1.7-.7 2.1-1.6.3-.8 1.2-1.3 2-1 .8.3 2.4.1 3.6-.5 1.6-.9 2.2-.9 2.5 0 .3.8.8.9 1.5.2 1.8-1.4 5 5.4 3.4 7.1-.7.7-2.1 3-3.1 5.1-1.1 2-2.5 3.7-3.3 3.7-1.6 0-1.7 1.7 0 2.4.6.3.5.4-.5.3-1-.1-3.5 2.2-6.3 5.8-5.2 6.7-17.1 18.2-19.7 19.1-1.9.6-3.3 3.8-2.3 5.5.5.7 1.9 0 3.9-1.9 1.7-1.6 4-3.5 5.1-4.3 3.8-2.6 15.6-15.9 15-16.9-.3-.5 0-.7.7-.5 2.7 1.1 13-12.6 12.3-16.3-.5-2.9.2-2.8 2.6.3 1.2 1.4 2.6 2.2 3.4 1.8.8-.3 1.5-.1 1.5.5 0 1.7 2.6 2.1 6.9 1 3.5-.9 4.1-1.4 4.1-3.7.1-2.4.2-2.4 1.4-.9.7 1 2 1.8 2.9 1.8 1.4 0 1.5-.5.6-2.8-.5-1.5-1.2-3.4-1.5-4.2-.4-1.2-.9-1.1-2.4.8-1.3 1.6-3.9 2.7-8.2 3.6-5.8 1.2-6.4 1.2-8-.4a4.72 4.72 0 0 1-1.2-4.2c.3-1.2.7-3.9.8-5.8.2-1.9.7-5.6 1.1-8.2.6-3.9.4-5.3-1.5-8.3-2.4-3.8-3.5-4.5-2.8-1.7Zm-2.4 16.3c-1.5.4-4.1 1.7-5.8 2.9-2.5 1.8-3 1.9-3 .5 0-.8 1.1-2 2.5-2.5s2.5-1.3 2.5-1.8 1.5-.6 3.3-.4l3.2.5-2.7.8Z"/>
    <path fill="#000" d="M159.33 578.96c-4.9 4.7-10.2 9.8-11.6 11.2-1.5 1.4-3.6 2.6-4.8 2.6-1.1 0-2.1.4-2.1 1 0 .5-.8 1-1.7 1-1 .1-2.9.8-4.3 1.6l-2.5 1.5 3-.6c4.9-1 17.8-7.9 18.3-9.8.2-.9 1-1.7 1.7-1.7s2-1.1 2.9-2.5c.9-1.4 2.3-2.5 3.1-2.5.8 0 1.5-.5 1.5-1.1 0-.7 1.7-2.7 3.8-4.5 2.3-2 3.3-3.6 2.7-4.1-.6-.5-4.6 2.6-10 7.9Z"/>
    <path fill="#000" d="M526.93 572.46c-3.6 1.4-8.4 5.6-16.1 13.8-4.6 5-9.6 10.3-11.2 11.9-2.8 2.8-3.6 4.6-1.9 4.6.4 0 3.8-3.3 7.4-7.3 7.3-8 16.6-17.2 21.2-21.1 3-2.6 3.1-2.9.6-1.9Z"/>
    <path fill="#000" d="M154.83 575.76c-1.2 1.6-3 3-4 3-1.1 0-2.7.8-3.7 1.8-2 2-6.7 4.3-9.8 4.8-1.1.2-3.8.8-5.9 1.3-2.2.5-5.3.7-6.9.4-2.3-.5-2.9-.3-2.5.8.6 1.8 15 1.9 15.6.1.2-.7.8-1 1.2-.7 1.1.7 9-2.4 9-3.5 0-.5.8-1.1 1.8-1.5.9-.3 4-2.6 6.7-5 4.2-3.7 4.6-4.5 2.8-4.5-1.3 0-3 1.2-4.3 3Z"/>
    <path fill="#000" d="M307.53 592.46c-1 1 2.3 4.2 3.8 3.7.7-.3 1.5.4 1.8 1.5.3 1.2 1.3 2.1 2.5 2.1 1.1 0 2.5.7 3.2 1.5 1 1.2 1.6 1.3 2.4.4.8-.8.8-1.3-.2-1.6-.7-.3-3.6-2.2-6.4-4.4-5.5-4.1-6-4.3-7.1-3.2Z"/>
    <path fill="#000" d="M165.23 595.36c.4.9-.1 2.8-1 4.1-.8 1.4-1.3 2.8-.9 3.1.9.9 3.6-2.8 2.9-3.9-.3-.5.3-.9 1.3-1 1 0 1.3-.3.6-.6-.7-.2-1.3-1.1-1.3-1.9 0-.8-.5-1.4-1.1-1.4-.6 0-.8.7-.5 1.6Z"/>
    <path fill="#000" d="M495.23 594.96c-3.8 6.4-3.8 6.5-1 3.5 1.4-1.5 2.6-3.2 2.6-3.8 0-1.3-.7-1.1-1.6.3Z"/>
    <path fill="#000" d="M145.83 598.06c-1.9 1.3-6.1 3.4-9.2 4.6-6.7 2.7-7.7 4.4-1.8 2.9 2.2-.6 4-1.4 4-1.8 0-.4 1.1-1 2.5-1.2 2.8-.6 3.2.3 1 2.2-2 1.6-2 4.1 0 3.4.8-.4 1.2-1 .9-1.5-.3-.5.1-.9.8-.9 1.7 0 10.1-6 9.4-6.7-.3-.3-2.1.4-4.1 1.6-3.5 2-5.5 2.1-5.5 0 0-.5.3-.8.8-.7 1.2.3 6.2-2.4 6.2-3.4 0-1.3-1.3-.9-5 1.5Z"/>
    <path fill="#000" d="M161.83 596.76c-.8.5-1.1 1.2-.7 1.6.4.4 1.5 0 2.4-.9 1.8-1.8.8-2.3-1.7-.7Z"/>
    <path fill="#000" d="M128.83 598.76c-1.3.8-1.3 1 .2 1 .9 0 2-.5 2.3-1 .8-1.3-.5-1.3-2.5 0Z"/>
    <path fill="#000" d="M158.53 600.46c-1 .9-.9 2.3.2 2.3.5 0 1.1-.7 1.5-1.5.5-1.5-.5-2-1.7-.8Z"/>
    <path fill="#000" d="M154.33 604.16c-1.1.8-1.5 1.8-1 2.6.5.9.4 1.1-.3.6-.7-.4-4.7 1.7-9.2 4.8-4.4 3.1-8.7 5.6-9.4 5.6-.8 0-2.1.6-2.8 1.3-.7.7-2.2 1.8-3.3 2.5-1.1.6-1.5 1.2-.8 1.2 1.8 0 12.3-4.9 12.3-5.8 0-.4 1-1.2 2.3-1.8 7.2-3.5 11.1-6.2 12.9-8.7 2.3-3.2 2-4.3-.7-2.3Z"/>
    <path fill="#000" d="M156.63 608.56c-7.5 7.7-15.7 14.8-18.3 16-1.4.6-2.5 1.6-2.5 2.2 0 .5-.8 1-1.7 1-1 0-2.7.7-3.7 1.5-1.6 1.2-1.7 1.7-.7 2.8 1 1 1.6.7 3.2-1.2 1-1.3 1.9-2 1.9-1.6 0 .7 5.5-3 7.8-5.2.7-.7 1.7-1.3 2-1.3 1.7 0 18.5-17.7 17.5-18.3-.5-.3-2.9 1.5-5.5 4.1Z"/>
    <path fill="#000" d="M124.83 606.76c0 1.7.3 1.9 1.9 1 3.2-1.6 3.4-3 .7-3-1.9 0-2.6.5-2.6 2Z"/>
    <path fill="#000" d="M131.63 610.56c-6 2.8-7.8 4.7-3 3.2 4.9-1.4 11.2-4.7 10.5-5.3-.9-.9-.9-.9-7.5 2.1Z"/>
    <path fill="#FFF" d="M290.73 616.66c-3.7-2.6-5.2-1.7-3.2 2.1 1.9 3.8 1.1 5.9-2.7 7.3-1.7.6-3 1.7-3 2.4 0 1.9 4.1 1.6 7.7-.6 2.6-1.6 3.3-1.7 4.3-.6.6.7 1 1.7.9 2.1-.3 2.1.2 4.1 1.6 6 2 2.7 3.4.4 2.8-4.6l-.5-3.7 3.8.1c4.7.1 6.1-2.7 2-3.8-1.5-.4-2.6-1.1-2.6-1.6 0-.6-.9-1-2-1s-2-.5-2-1c0-.6.4-1 1-1 .5 0 1.4-.9 1.9-1.9 1.7-3-1.4-3.5-3.3-.5-2 2.9-3 3-6.7.3Zm5.5 8.1c-.7.6-2.4-2.2-2.3-4 0-.9.6-.5 1.4 1 .7 1.4 1.1 2.7.9 3Z"/>
    <path fill="#000" d="M132.63 645.26a25.5 25.5 0 0 1-6.6 6.5c-2.3 1.4-4.2 3.1-4.2 3.9 0 1.1-.3 1.1-1.3-.3-1.4-1.9-5.2-1.2-4 .7.4.6.8 2 .9 3.1.2 2.6 1.9 10.2 3.8 17.6l1.5 5.5-.5-6c-.3-3.3-1-8.6-1.5-11.9-.6-3.2-.8-6-.6-6.2.9-1 5.7 1.7 5.7 3.1 0 .9.4 1.4.9 1 .5-.3.7-2.1.4-4-.4-2.7-.2-3.5 1-3.5.9 0 2.3-.7 3.2-1.6.9-.9 1.8-1.5 2-1.2.5.5 1.3 7.4 1.4 12.2.1 2.2.4 3.7.7 3.4.7-.8.6-17-.1-19-.5-1.2.1-1.4 2.5-1 1.8.2 3.4 1.1 3.7 1.8.6 1.7 3.3 1.9 3.3.2 0-.6.3-.8.7-.4.5.4 0 1.4-1 2.1-1.4 1-1.9 3-2.1 8.8-.2 5.8-.8 8.1-2.5 10.6-1.3 1.8-2.6 2.9-3 2.6-.6-.6-.7-1-1-3.6 0-.5-.6-.7-1.2-.4-.6.4-.8 1.3-.5 2 .3.8-.7 3.1-2.1 5.1-2.2 3.3-2.5 4.6-2.1 10.6.2 3.7 0 6.8-.4 6.8s-.8.8-.8 1.8c0 2.6-5.6 8.9-8.5 9.4-2.6.6-3.2-.1-1.5-1.8.6-.6 1.3-2.4 1.6-3.9l.5-2.9-3 3.2c-1.9 1.9-2.9 3.8-2.5 4.9.2 1-.1.8-.7-.5-1.5-2.9-2.9-2.8-2.9.1 0 3.1 4.8 4.7 12 4.1 7.4-.6 8.9-2.6 9-11.9 0-3.9.4-8.7.9-10.7.6-2.6.5-3.9-.3-4.2-.7-.3-.6-.5.2-.5.8-.1 2.8-1.5 4.5-3.1 1.8-1.7 3.9-3.7 4.8-4.5.9-.8 2.1-1.5 2.8-1.5 1.8 0 8.1-6.2 8.1-8 0-1.6-3.3-11.1-5.3-14.9-1.3-2.6-6.2-5.1-10.1-5.1-1.3 0-2.6-.6-2.8-1.2-.3-.7-1.6.5-3 2.7Zm15.9 14.1c.9 6.1.8 6.6-1.1 7.6a8.5 8.5 0 0 0-2.8 2.2c-1 1.4-1-2.2-.2-10.3.9-8.2 2.8-8 4.1.5Z"/>
    <path fill="#000" d="M145.83 663.36c0 .8.5 1.2 1 .9.6-.4.8-1.1.5-1.6-.9-1.4-1.5-1.1-1.5.7Z"/>
    <path fill="#000" d="M113.03 646.96c-1.7 2.1.1 7 2.3 6.2 1.7-.7 1.9-1.6.6-3-.5-.5-1.1-1.8-1.3-2.8-.3-1.7-.4-1.7-1.6-.4Z"/>
    <path fill="#000" d="M663.53 649.76c.6 2.2 2.3 3.8 2.3 2.1 0-1.7-1.2-4.1-2-4.1-.5 0-.6.9-.3 2Z"/>
    <path fill="#000" d="M103.53 651.46c-.3 1-1.1 4.3-1.7 7.3-.7 3-1.7 6.3-2.2 7.3-.5 1-.6 2.4-.1 3 .5.7.8 3.6.7 6.5-.1 3 .2 6.7.6 8.3.6 1.9.5 2.9-.2 2.9-.6 0-.8 1.2-.4 3 .3 1.6.2 3-.3 3s-1.4 1.3-1.9 3c-.6 1.6-2.3 4.6-3.8 6.5-2.1 2.8-2.3 3.5-1 3.6.9.1 2.4.2 3.3.3 1.1.1 2-1 2.5-3.4.5-1.9 1.6-5 2.4-6.8.9-1.8 1.3-4 1-4.7-.3-.8-.1-1.7.4-2 .5-.3.8-6.6.5-14.6-.3-11.6-.1-14.6 1.2-17.5 1.7-3.4 3.2-4.4 3.4-2.2.4 6 3.3 19.8 4.1 19.8 1 0 .3-9.4-1.4-17.8-.8-4.3-1.5-5.5-3.4-6.3-3.3-1.2-3.2-1.2-3.7.8Z"/>
    <path fill="#000" d="M126.33 666.96c.4 1.8.9 4.9 1.2 6.8.8 5.4 1.4 4.9 1.2-1.1-.1-6.5-.7-8.9-2.1-8.9-.7 0-.8 1.2-.3 3.2Z"/>
    <path fill="#000" d="M96.83 668.46c0 .7-.6 1.3-1.4 1.3-1.8 0-4.1 2.8-3.1 3.8.4.4 1 .2 1.2-.4.2-.7 1.2-1 2.2-.7 2.1.5 3.3-1.7 2-3.8-.6-1-.9-1-.9-.2Z"/>
    <path fill="#000" d="M75.53 670.56c-1 1-1.7 2.6-1.7 3.6s-1.6 3.8-3.6 6.2c-2 2.5-3.4 4.8-3 5.1.4.4 1.1.1 1.5-.6.5-.7 1.4-1.1 2-.7.6.4 1.6-.7 2.4-2.7 2-4.7 6.1-8.9 8.1-8.1.9.3 1.6 1 1.6 1.5 0 .4.7.6 1.5.3 2.4-1 1.8-3.4-.9-3.4-1.3 0-2.9-.7-3.6-1.5-1.6-1.9-2.3-1.9-4.3.3Z"/>
    <path fill="#000" d="M87.33 672.86c-.4.5 0 1.8.9 2.8.9 1 1.6 3.4 1.6 5.4 0 2 .4 3.7.9 3.7 1.1 0 .2-8.1-1.2-9.8-.6-.8-.6-1.2.2-1.2.7 0 .9-.5.6-1-.8-1.3-2.2-1.3-3 .1Z"/>
    <path fill="#000" d="M648.23 680.56c-8.3 12.7-9.9 16.2-11.1 23.4-.3 1.7-.9 4.2-1.4 5.5-.5 1.3-.9 3.5-.9 4.8 0 1.3-.5 2.5-1.1 2.7-.7.2-.7 1.2 0 3.1.6 1.6 1.1 4.1 1.1 5.7 0 2.7.5 3.1 5.6 4.6 5.3 1.5 6.1 1.5 12.3-.1 7.5-2 14.1-5.1 14.1-6.6 0-.5-2.1-.8-5.1-.7l-5 .3-.4-4.8c-.3-2.6-.9-5.6-1.5-6.6-1-1.9-.6-20.7.6-28.3.6-4.1 2.4-6.2 2.4-2.9 0 1.2.5 2.1 1 2.1.6 0 1-.7 1-1.5 0-1.3.4-1.4 2.1-.4 1.6.8 2.4.8 3.3-.1 1.8-1.8-2.1-4-7.2-4-3.5 0-4.3.3-3.8 1.5.3.8-.3 3.1-1.4 5.1-2.6 4.5-3.3 17.5-1.6 29 .7 4.6 1 8.4.7 8.4-.2 0 .4.6 1.5 1.4 1.8 1.4 1.8 1.5-.9 2.5-3.5 1.4-7.8 1.4-11.1.1-6.9-2.6-2.7-23.9 8-41.3 4.4-7.1 3.3-9.8-1.2-2.9Z"/>
    <path fill="#000" d="M664.63 683.96c-.3.8 0 2.7.7 4.3l1.3 3 .1-3c.1-3.6-1.3-6.4-2.1-4.3Z"/>
    <path fill="#000" d="M111.83 687.96c0 4.9.5 4.7 1.3-.5.3-2 .2-3.7-.4-3.7-.5 0-.9 1.9-.9 4.2Z"/>
    <path fill="#000" d="M62.13 685.56c-1.5.2-2.3 1-2.3 2.3 0 1-.4 1.9-1 1.9-.5 0-1 .7-1 1.6 0 .8-.7 2.2-1.5 3-.8.9-1.5 2.5-1.5 3.6 0 1.6-.3 1.8-1.3 1-1.5-1.2-5.7-.5-5.7 1 0 1.7 2 4.8 3.1 4.8.6 0 .9-.7.5-1.5-.3-.8-.1-1.5.4-1.5s1.2.9 1.5 2c.4 1.3 1.6 2 3.3 2.1 1.5 0 4 .2 5.5.3 1.6.1 3.1-.2 3.3-.6.3-.4-.3-.8-1.3-.8-.9 0-3.6-.7-5.9-1.6-4.1-1.6-4.2-1.6-2.3-3.5 1-1 1.9-2.6 1.9-3.4 0-.8.5-1.5 1.1-1.5.6 0 .9-.7.6-1.5-.4-.8.5-2.3 2-3.5 1.4-1.1 2.2-2 1.7-2.1-.5 0 0-.4 1-.8 2.4-.9.9-1.8-2.1-1.3Z"/>
    <path fill="#000" d="M87.83 692.66c-1.1 2.3-2.7 4.1-3.5 4.1-.8 0-1.5.7-1.5 1.5s.3 1.5.6 1.5c1.8 0 8.1-9.6 7-10.7-.2-.3-1.4 1.3-2.6 3.6Z"/>
    <path fill="#000" d="M121.53 690.06c-.4 1-.7 2.8-.7 4 .1 2 .2 2 1.1.4.6-1 .9-2.8.7-4-.3-2-.4-2-1.1-.4Z"/>
    <path fill="#000" d="M109.63 698.06c-1 2.1-1.4 3.7-.9 3.7 1.6 0 3.3-2.9 2.9-5.1-.3-1.9-.5-1.7-2 1.4Z"/>
    <path fill="#000" d="M74.13 702.46c-.7.3-1.3.9-1.3 1.4 0 .4.6.6 1.3.3.8-.3 3.4 1.8 6.1 4.6 2.6 2.7 4.9 5 5.2 5 .4 0 1.9 1.1 3.5 2.4 2.5 2.2 3.3 2.3 5.9 1.4 1.7-.5 3.9-.8 4.9-.5 2.7.7 4.1-.6 5-4.4.4-1.9 1.1-4.4 1.5-5.7 1-3-1.1-2.9-2.5.2-.6 1.3-2.2 3-3.5 3.7-1.3.7-2.4 1.8-2.4 2.4 0 3.3-8.4.1-13.8-5.4-3.9-3.9-7.9-6.1-9.9-5.4Z"/>
</svg>