<svg xmlns="http://www.w3.org/2000/svg" viewBox="0 0 888.64 936.17" width="90%">
  <path fill="#000" d="M173.88 2.38c-3.9 6-8.1 20.2-8.9 30.4-.8 9 1.2 17 5.7 23.6 1.6 2.4 2.9 4.5 2.9 4.7 0 .3-2.9 1.5-6.5 2.7-3.8 1.2-7 3-7.5 4.1-.6 1-2.4 2.6-4.1 3.5-1.7.8-3.7 3-4.5 5-.8 1.9-1.9 3.4-2.5 3.4-.5 0-2.3 2.9-3.9 6.5l-2.9 6.5 2.4 2.6c1.3 1.4 3.9 3 5.7 3.4 1.8.5 5.1 1.4 7.3 1.9 10.7 2.8 19.1.3 27.8-8 7.4-7.1 8.9-6.6 8.6 2.5v20.1c.1 11.8-.2 15-2 20.5-2.8 8.3-6.1 14.9-11.6 22.8-2.3 3.5-4.3 6.5-4.3 6.7 0 .3.8.5 1.8.5 1.5 0 9.4-8.5 15.1-16.4 2.4-3.2 5.1-16.5 5.1-24.8 0-4.6.5-8 1.1-8.4.8-.4.9-3.8.5-10.5-.4-8-1.2-11.4-3.7-17.5-2.2-5.2-2.8-7.9-2.1-8.6 1.3-1.3 2.9 1.7 5.5 10.2 2.7 8.9 3.5 37.6 1.3 47.1-.8 3.5-1.3 6.5-1.1 6.7.2.2 4-3.3 8.5-7.7 4.6-4.5 8.6-8.1 9.1-8.1 1.9 0 .8 2-2.3 4.1-3.8 2.7-4.2 3.1-10.8 12-13.3 17.8-17.2 23.7-16.5 24.9 1.2 2 4.1.9 5.9-2.3 3.5-6 15-23.2 18.5-27.5 4.2-5.3 10.2-8.7 12-6.9.9.9 6 1.1 17.6 1 20.5-.3 22.3-.9 27.7-10.3 3.5-6.2 4.8-12.2 2.9-13.4-.5-.3-2.3-3-4-6-3.3-6-4-6.6-7.9-7.3-8.4-1.5-14 0-21 5.5-3.3 2.6-8.3 6.5-11.2 8.7-3.7 2.8-5.9 5.5-7.6 9.2-1.3 2.9-3 5.3-3.7 5.3-.7 0-3.5 2.2-6.2 5-5.2 5.1-7.2 6.3-6 3.2 1-2.5 2.7-15.9 2.6-21.7 0-5.7-3.7-26-5.3-28.8-1.5-2.9-.3-3.1 5.1-.8 3 1.2 7.1 2.1 10.2 2.1 5.3 0 18.1-3.8 22.5-6.6 2.9-1.9 6.3-7.2 10.3-16.1l3.3-7.1-3.3-3.2c-6.2-5.7-11-7.3-23.2-7.4h-11l-5.4 5.8c-3 3.2-5.7 5.5-6 5.2-.4-.3-.1-2.9.5-5.7 1.4-6.1 1.6-22.2.3-24.7-.6-.9-2.1-4.2-3.4-7.3-2.2-5.1-7-10.9-9-10.9-.4 0-2.4-1.1-4.5-2.4-2-1.3-5.6-2.7-7.9-3.1-3.8-.6-4.3-.4-6 2.1Zm13.6 6.7c5.6 2.9 7.5 5.4 10.8 14.7 3.8 10.9 4.1 26.1.8 36.7-.5 1.7-.3 2.5 1 2.9 1.3.5 3-.7 6.5-4.7 2.8-3.2 7-6.6 10.2-8.2 4.8-2.4 5.9-2.6 9.8-1.8 7.8 1.7 15.2 4 16.6 5.2 2.2 1.8 1.7 3.9-3.4 12.4-6 10-9.1 11.9-19.5 11.6-8.9-.3-17.1-2.2-22-5.1-3.5-2.1-4-2.1-5.4-.7-.9.8-1.9 3.8-2.4 6.6-1 6.8-4.8 11.4-11.7 14.7-7.2 3.4-13.1 4-20.7 2-3.2-.9-7.4-1.6-9.2-1.6-3.2 0-4.3-1.2-2.3-2.5.6-.4 2.2-2.4 3.5-4.5 1.4-2.2 5.7-7.3 9.7-11.4 8.3-8.4 11.7-9.9 21-8.9 4.9.5 5.8.3 5.8-1 0-1.7-4.5-5.4-9.5-8-6.6-3.3-10.5-25.4-6.2-34.8.9-1.9 2.3-5.2 3.2-7.4 1.9-4.7 5.2-8.5 7.4-8.5.9 0 3.6 1.1 6 2.3Zm75 92.9c1.1 1.1 1.8 2.5 1.5 2.9-.2.4-3 1.1-6.2 1.5-7.8.9-27.8 10-26.1 11.8.3.3 4.4-1.2 9.1-3.4 9.3-4.3 16.8-6.3 22-5.8 3.1.3 3.3.6 3.6 4.3.4 4.4-1.4 6.5-5.7 6.5-1.4 0-9.5 1.4-17.9 3-18.5 3.6-19.2 3.6-19.2.9 0-2 4.8-9 8-11.7 2.9-2.3 17.5-11 19.5-11.5 5.1-1.2 9.5-.7 11.4 1.5Zm1.1 21.2c0 1.5-1.5 3.8-3.1 4.6-1 .6-5.5 1.7-10 2.6-6.7 1.3-9.3 1.3-15.5.3-4.1-.6-7.4-1.5-7.4-1.9 0-.4 3.3-1 7.3-1.3 3.9-.3 10.8-1.4 15.2-2.5 7.7-1.9 13.5-2.7 13.5-1.8Z"/>
  <path fill="#000" d="M321.78 15.68c-10.8 3.7-15.1 11.2-15.5 26.9l-.2 9 4 4.7c4.6 5.5 7.4 6.5 24.1 8.5 9.2 1.2 10.6 1.1 15.2-.5 4.8-1.8 5-1.8 7.4.1 6.2 5 11 11.6 14 19.1 7.4 19.2 6.3 38-3.1 51.8-1.5 2.2-3.9 5.8-5.4 8-7.1 10.8-9.3 13.5-11.1 13.5-1.6 0-1.7-.5-1.1-3.8 2-11.4 1.8-13.8-1.9-23.6-3.1-8.3-3.5-10.5-3.2-16.2.4-5.1 1.1-7.5 3.6-11.4 3-4.7 5.2-6.2 9.4-6.4 1-.1 2.4-.9 2.9-1.8.9-1.3.6-2.1-1.4-3.7-3.3-2.8-7-2.6-12.9.6-5.8 3.2-9.4 9.2-9.5 15.8 0 5.9 1.7 5.5 4-1 3-8.4 8.8-13.5 14.2-12.3 1.2.3.4.8-2.3 1.6-2.2.7-4.8 2-5.6 2.9-2.1 2.3-4.3 7.8-5.2 12.8-1 5.3-1.5 5.9-3.4 4.2-6.6-5.5-28.2-4.5-28.2 1.3 0 3 2 3.3 6.5 1 5.9-3 10.3-2.5 20 2.7 5.5 2.9 8.6 10.4 9.2 22.8.5 8.8.5 9.2-3 16.1-1.9 3.9-4.2 7.6-5.1 8.3-2.1 1.7-2 3.1.1 3.1 3.9 0 15-8.1 23.1-16.9 6.9-7.5 9.3-11.1 14-20.8 5.6-11.6 5.7-11.9 5.6-20.3-.1-12-1.8-23.9-3.9-28-2.8-5.4-7.4-11.9-13.8-19.3-4.2-4.8-5.4-6.7-4.1-6.7 1.9 0 8 6.2 12.6 12.7 1.6 2.4 3.3 4.3 3.8 4.3 1.9 0 2.9-3.9 2.3-8.9-.7-6 1.1-11.5 6-18.3 5.1-7.2 9.2-10.1 15.6-11.1 9.1-1.3 9.9-1.1 16.9 3.6 8.2 5.5 11.2 8.6 12.8 13.2 1 3.2 1 3.5-.6 3.5-1 0-4.5-2.7-7.7-6.1-5.8-6.1-11.8-9.7-17.7-10.5-4.4-.7-12.5 4.3-16.3 10-3.5 5.3-5.6 13.9-5.1 21.6.3 4.9.5 5.5 2.7 5.8 2.1.3 2.3.1 1.7-2.5-1.7-7.4-1.8-11.4-.4-13.1.9-.9 2.5-3.8 3.6-6.4 1.7-4 2.8-5 8.3-7.7 8.1-3.9 12.6-4 17.1-.4 3.7 3.1 6.3 6.3 6.3 7.8 0 .5-2.1 1.3-4.8 1.8-7.5 1.2-15 6.6-18.1 12.9-2.7 5.8-4.4 14-4.8 23.1-.3 6.4.6 7.5 5.7 7.8 1.7.1 5 .4 7.5.5 7.7.5 10.9-.5 15.6-4.8 2.4-2.2 4.4-4.6 4.4-5.2 0-.6 1.2-2.5 2.6-4.1l2.5-3-.5 3.4c-.4 1.9-.9 6.4-1.2 10-.5 6.6-.5 6.6 4 13 2.6 3.6 6.6 7.7 9.5 9.6 5.8 3.8 14.6 6.8 18.7 6.3 2.6-.3 3.2-1.1 5.6-7.6 3.9-10.1 4.1-21.7.5-28.8-2.6-5.2-4.8-7.5-10.9-11.5-4.2-2.7-5-4.5-1.5-3.5 1.2.4 4.5.9 7.2 1.3 4.4.5 6 .1 11-2.5 5.3-2.7 16.5-12.9 16.5-15 0-.4-2.7-4.2-6-8.4-8.4-10.7-14.1-13.7-25.9-13.9-7.2-.1-9.5.3-14.3 2.4-3.4 1.6-6.7 4-8.3 6.1-1.5 2-3.2 3.6-3.9 3.6-.6 0-3.9-3-7.4-6.7-7.7-8.3-13.8-10.7-23-9.2-11.5 1.9-12.7 2.2-14.2 3.4-.8.6-2.2 1.5-3.1 1.8-2.6.9-6.7 6.8-7.8 11.2-1.7 6.9-4.3 13.5-5.3 13.5-.5 0-2.1-1.3-3.4-3-1.4-1.6-3.9-3.8-5.5-4.7-3.5-2.1-3.5-2.7-.8-5.4 2.9-2.9 1.7-7.4-3.2-12.4-2.2-2.2-6.7-7.1-10.1-10.8-7.4-8.1-14-12.7-18.2-12.7-1.7.1-5.5.9-8.4 1.9Zm10.4 3.4c4 0 4.9.5 8 4 1.8 2.2 5.9 7.8 9 12.4 3.1 4.7 6.7 9.1 8 10 2.7 1.7 2.5 2.8-.6 3.6-1.5.4-3.7-.8-7.8-4.2-11.8-9.8-14.2-8.5-3.7 1.9 3.6 3.5 6.5 7.2 6.5 8 0 2.2-6.5 5.6-12 6.4-10.2 1.4-27-7.1-27-13.7 0-1.2 1.4-.6 5.1 1.9 2.8 1.9 6.3 3.7 7.8 4 1.4.2 4.1.9 5.8 1.3 3.6 1 15.3.3 15.3-.9 0-1.1-2.7-2-6.3-2-3.8 0-11.6-2.6-13.7-4.5-.8-.7-2.7-1.7-4.3-2-3.8-1-8.7-7.2-8.7-11 0-9.5 10.8-10.4 18.3-1.5 2.6 3 5.7 4 5.7 1.7 0-2.4-10-12.5-13-13.2-1.7-.4-3-1-3-1.5 0-1.2 2.2-1.9 4.3-1.3 1 .3 3.9.5 6.3.6Zm127.4 23.1c4.7.2 9.2.6 10 .9 2 .9 13 13.3 13 14.5 0 .6-1.7 2.3-3.7 3.9-11 8.5-19.5 11-26.3 7.7-2.2-1-4-2.2-4-2.7 0-1.7-5-.5-6.4 1.5-2.9 4.1-2.1 6.5 2.7 8.1 5.6 1.9 16.3 10 18.2 13.8 1.4 2.6 1.6 5 1.4 15.4-.1 5.6-2.9 12.9-5.6 14.9-2.6 1.9-2.6 1.9-7-.4-5.9-3.1-14.6-12.7-16.1-17.7-1.7-5.8-1.5-8.5 1.4-15.7 1.4-3.5 2.4-7.7 2.2-9.3-.2-2.3-.8-2.9-3.5-3.1-2.8-.3-3.4.1-5.2 3.5-1.1 2.1-3.6 5.4-5.6 7.3-1.9 1.9-3.5 3.7-3.5 4.1 0 .4-2.4 2.1-5.4 3.8-4.4 2.5-6.5 3.1-11.5 3.1-7.4 0-7.9-.7-6.2-8.8 3.2-14.9 3.7-15.8 10.2-20.2 5.2-3.4 7.6-4.3 16.3-5.8l10.1-1.7.5-4.6c.3-2.5 1.6-5.8 2.8-7.5 2.6-3.3 9-6.6 11.2-5.8.8.3 5.3.7 10 .8Z"/>
  <path fill="#000" d="M79.68 24.88c-6.9 2-9.4 3.8-14.8 11.2-2.8 3.8-3.4 5.4-2.9 7.7.3 1.7.1 3-.4 3a1 1 0 0 1-1-1c0-.6-3.4-4.4-7.6-8.5-8.4-8.1-10.6-9.1-19.9-8.3-6.9.6-12.5 4.5-12.5 8.7 0 4.3 5.7 15.6 9.5 19 2 1.7 6.9 4.1 11.9 5.7 4.7 1.6 8.6 3.2 8.6 3.6 0 .4-.9 1.2-2 1.8-2 1.1-9.3 8.6-11.7 12-.7 1-1.8 5.9-2.5 10.9-1 7.9-1 9.4.3 10.2 2.6 1.8 13.1.3 20-2.8l6.6-3.1 2.2-7c1.1-3.8 2.1-7.5 2.1-8.1 0-2.2 1.8-1 3.8 2.3 1.1 1.9 3 6.3 4.2 9.8 1.9 5.7 2.1 8 1.7 18.9-.6 14.6-1.6 29.6-2.2 32.3-.2 1.1.7 5.8 2.1 10.5 2.5 8.6 3.2 13.6 2.1 14.7-.3.3-2.1 0-4.1-.7-2.8-1-4.8-1-10.2 0-5.7 1-6.9 1-8.2-.2-1.1-1.1-1.1-1.9-.3-3.5 3-5.6-.8-22.2-6.8-29.4-3.4-4-9.3-5.8-13-3.8-5.1 2.7-7.5 13.4-5.7 25.8.7 4.6 1.4 5.7 5.2 8.9 2.4 2.1 4.4 4.1 4.4 4.5 0 .4-1.4.8-3 .8-4.4 0-9.5 2.4-14.9 6.9-4.7 4-5.2 4.6-9.2 13.6-1.3 2.7-2.5 5.3-2.6 5.6-.2.4 2 .9 4.9 1.2 2.9.3 7.4.9 10.1 1.3 5.4.8 11.2-1 16.7-5.1 1.8-1.4 3.6-2.3 3.8-2 .6.6 1 3.7 1.1 9.1.1 3.3.9 5 4.2 8.8 3.5 4 8.4 7.6 10.3 7.6.3 0 2.6-2 5-4.4 8.8-8.6 7.3-21.2-3.7-30.7-1.7-1.4-2.8-3-2.4-3.6.3-.5 3.4-1.1 6.7-1.2 10.2-.4 16.4 5 19.3 16.9 2.4 9.2 2.7 15.8 1.2 23.4-.6 3.7-1 7.8-.7 9.1.3 1.9-.3 2.8-2.9 4.4-1.8 1.1-4.6 2.3-6.1 2.6-2.4.6-2.8 1.2-2.8 4 0 2.9.5 3.7 3.4 5 6 2.9 8.1 10.6 5.1 18.9-.8 2.2-1.1 5.2-.8 6.8.3 1.6 0 3.4-.7 4.3-.8.9-1.3 5.5-1.5 12.2-.3 10.9-1 15.8-2.7 17.9-.4.7-1.5 3.8-2.4 7-.8 3.3-2.1 6.5-2.8 7.3-1.2 1.1-1.6 1-2.7-1-.8-1.3-1.8-3.1-2.4-3.9-.5-.9-1.9-3.1-3-5-2.7-4.7-8.2-10-10.4-10-1.5 0-1.9 1.2-2.5 8.1-.5 5.6-1.4 9.5-3.1 12.7-3.4 6.7-6.6 8.6-14.7 9l-6.8.4v-2.9c0-3.9 6.2-16.5 9.3-19 1.5-1.1 4-2.6 5.7-3.3 1.7-.7 2.9-1.8 2.7-2.4-.2-.6-3.5-1.8-7.4-2.7-3.9-.8-8.2-2.5-9.7-3.6-4.8-3.9-9.6-10.5-11.1-15.6-1.8-6.2-1.9-8.8-.2-11.1 2.7-3.7 16.5 1.3 23 8.3 4.8 5.2 4.9 2.4.1-4.4-3.5-5-5.3-6.7-8.2-7.5-3.7-1.1-22.4-3.1-23.1-2.4-.4.4 1.7 12 3.5 19.4 1.1 4.3 2.5 6.6 6.6 10.7 2.9 2.9 5.7 5.3 6.2 5.3 1.2 0 11.6 4.9 11.6 5.5 0 .3-2 2.4-4.5 4.7-5.7 5.3-10.5 13.9-10.5 18.8s3.7 7.1 12.5 7.3c6.1.2 6.6 0 10.1-3.3 5.3-5.1 8.4-10.4 9.1-15.8.8-6.8 1.5-7.7 4-5.5 5.6 4.8 13 21.5 18.5 41.8.6 2.2 1.7 4.7 2.4 5.6.8.8 1.4 2.4 1.4 3.5 0 1 .8 4.1 1.6 6.9 2.2 6.6 2.9 48.8.9 52-1 1.7-.8 2.9 1.2 7.4 1.3 2.9 2.6 5.1 2.9 4.9.6-.7 1.5-21.1 1.6-38.7.1-11.6-.3-17.2-1.5-21.6-.9-3.3-2.5-10.1-3.7-15-1.2-5-3.9-12.9-6.1-17.7-2.1-4.7-3.9-9.2-3.9-9.8 0-.7-1.3-3.6-3-6.6-1.6-3-2.6-5.4-2.2-5.4.7.1 5.5 6 7.3 9 .8 1.3 1 1.3 1.9 0 .5-.8 1-3 1-4.9 0-3.8 1-7.3 4.5-16.6 1.5-4 2.5-9.4 2.9-15.5.6-9.3 1.8-16.8 3.7-24.3 1.1-4.3 3.1-4.7 7.2-1.4 2.7 2.3 2.7 2.3 1.9 10.2-.5 4.8-.5 13.1.1 20.7 1 13 .6 16.2-3.5 27.1-.6 1.6-1.1 8.1-1.2 14.5 0 10.2.4 13.4 3.3 24.7 1.9 7.1 4.2 14.1 5.1 15.5 4.9 7.3 7 20.7 5.8 38.2-1.1 16.8-1.2 13.8.1 31.6 1 13.4 1.5 16.2 4.2 22.7 2.5 6 3.8 7.7 6.4 8.9 4.2 2 4 2.1 6.9-1.1 3.7-4 4.6-10.3 4.1-28.4-.5-13.9-.2-17.1 1.5-24.2 2.8-11 3.4-12.4 10.6-25.2l6.3-11 .3-10c.2-7.7-.2-11-1.6-14.5-3.5-8.8-4.8-8.2-3.2 1.5 1.8 10.4.1 18.3-6.9 32.7-3.1 6.4-6.3 14.5-7.1 18-1.7 7.7-4.1 32.1-4.3 44.3-.2 10.7-.5 12.2-3.3 13-2.7.9-3.4 0-6.4-8.1-2.4-6.7-2.5-7.8-3-37.4-.2-16.8-.7-32.5-1-35-.3-2.5-2.3-8.6-4.5-13.7-5.1-12-5.2-15.3-.4-11.9 1.1.7 4.5 2.1 7.5 3.1 9.2 2.9 12.4 1.3 24.9-12.3 3.7-3.9 5.5-2.8 10.4 6.2 1.5 2.7 2.7 5.5 2.7 6.2 0 .8.8 1.4 1.8 1.4 1.4 0 3-2.5 6.2-9.3 11.2-24.3 18.5-38.5 21-41.2 1.6-1.7 4-4.3 5.3-6l2.5-3 1 2.5c.5 1.4 1.8 4.4 2.7 6.7l1.7 4.1-3.1 4.4c-7.4 10.2-10.5 15.7-12.7 22.2-1.3 3.8-2.4 7.7-2.4 8.6 0 3.7 10 5.8 17.8 3.7 5.9-1.6 7.2-.9 3.9 2-3.7 3.4-6.3 4.3-12.3 4.3-6.7 0-13.9 3.1-15.9 7-.7 1.4-2 4.8-2.8 7.7-.9 2.8-3.9 9-6.9 13.8-2.9 4.8-5.8 9.5-6.4 10.6-.6 1-1.8 2.7-2.7 3.7-.9 1-2.5 3.8-3.6 6.2-1.7 3.9-2 7.6-2.5 26.5-.4 18.7-.8 23.5-2.9 32-1.4 5.5-2.8 10.9-3.2 12-1 2.4-.1 1.6 4.4-4.3 3.9-5 5.5-13.3 5.4-27.2-.1-4.7.3-14.6.9-22 .9-12.6 1.2-13.9 4.5-20 1.9-3.6 5.2-8.8 7.3-11.5 4.8-6.4 7.1-11.2 9.9-20.1 3.2-10.6 3.3-10.7 13.6-11 7.2-.2 9.3-.6 11.4-2.4 4.3-3.4 8.9-5.1 17.7-6.2 4.6-.7 8.4-1.5 8.4-1.9 0-.4-1.6-1.7-3.6-3-5.4-3.3-18.2-3.3-24.5 0-5.4 2.8-9 2.4-11.6-1.5-1.5-2.3-1.5-2.8-.1-5.2.8-1.5 1.8-3.8 2.1-5.2.5-2.1 5.2-9.1 10.3-15.3 1.3-1.6 1.6-1.6 3.9-.1 1.4.9 4.9 5.1 7.9 9.3 3 4.2 8.3 10.1 11.9 13.1 6.9 5.8 6.6 5.4 19.7 32 6.8 14 15.8 29.9 19 33.7.9 1 3.2 4.3 5.3 7.4 4 5.9 18.5 20.3 25.2 24.9 2.2 1.5 7.7 4.2 12.3 6 13.4 5.3 12.7 6.5-4.1 6.2-14.7-.2-28.9 1.2-37.8 3.9-3.6 1-7.6 1.9-9 1.9-2.3 0-10.1 3.7-19.9 9.4-5.7 3.3-6.4 3.3-4.7-.2 3.7-7.2 4.4-18.4 2.1-32.3l-.6-3.6 6.9.4c7.7.6 21.7-2.5 26.6-5.9 2.9-2.1 3.7-5.8 1.2-5.8-.9 0-5.6 2-10.5 4.5-8 4-9.7 4.5-15.9 4.5-4.7 0-8.4-.6-11.6-2-4.4-1.9-4.9-1.9-7.4-.4-1.5.9-4 3.6-5.5 6-3.4 5.4-6.7 7.7-12.8 9.2-10.3 2.6-17.7 1.2-22.7-4.1l-2.3-2.6 3.2-4.4c4.3-6 7.4-8.1 15.6-10.7 5.3-1.6 8.2-2 12.5-1.5 3.4.4 5.9.3 6.3-.3.3-.6-2.2-3.1-5.6-5.6-6.6-4.9-9.8-8.9-9.8-12.1 0-1.2-.5-2.6-1-3.1-.6-.6-1.4-3.7-1.8-7-.6-5.1-.4-6.8 1.8-12.1 1.4-3.5 3-6.3 3.6-6.3.5 0 3.8 1.8 7.2 4 8.9 5.8 11.7 11.5 11.5 22.7-.2 8.8.7 10.8 3.2 7 1.1-1.7 1.5-4.5 1.4-9.3-.1-6.4-.4-7.3-4.3-12.2-7.9-10.2-9.5-11.7-15.1-14.6l-5.6-2.9-2.3 2.4c-2.6 2.7-6.4 11.5-7.2 16.8-.3 2-.1 6.3.5 9.5.9 4.9 1.9 6.8 6.6 12.2 3.1 3.4 5.2 6.5 4.8 6.7-.5.2-3.3 1-6.3 1.7-11 2.5-14.1 4.4-19.2 12.1-2.7 3.9-4.8 7.5-4.8 7.9 0 .4 2.5 2.9 5.5 5.4 3.9 3.4 6 4.6 7.4 4.1 1.1-.3 2.2-.1 2.6.5 1 1.6 11.2 1.2 14.8-.6 1.8-.9 6-3.9 9.4-6.5 6.2-4.9 9.2-6 9.4-3.7.9 10.7.6 14.8-1.1 19.5-3.1 8.5-7.7 14.9-18.7 26.1-14 14.4-29.9 35.4-30.8 40.7-.4 2.2-1.4 5.1-2.1 6.5-3.5 6.6-9 21.5-11.4 31-3.2 12.7-4.9 13.7-6.7 4-.8-4.1-.9-7.2-.3-8.5 2-4.4 2.8-16.8 1.4-22.3-1.8-7-1.8-8.7.5-14.9 2.1-5.7 4.7-9.6 10.2-15.3 6.2-6.3 8.8-11.8 9.9-21.1 1.5-11.9 1.6-12 5.3-16.4 2.4-2.8 4.9-4.4 8.1-5.4 2.5-.7 4.6-1.7 4.6-2.2 0-2.9-11.3-3.6-14.6-.8-6.4 5.3-12.5 12.6-13.9 16.7-3 8.7-5.7 13.1-11.1 18.3l-5.4 5.1-3.3-1.9c-2.8-1.7-3.2-2.4-2.8-5.4.1-1.8.9-4.6 1.7-6.1 1.7-3.2 1.7-3.8.4-3.8-1.4 0-7 9.1-6.9 11.5 0 2.4 7.9 8.5 11 8.5 3.1 0 12.7-10.7 16.9-18.7 4.6-9 8-14.6 8.6-14.1.2.3-.5 4.8-1.6 10.1-2.3 11.4-8.9 24.5-14.6 29.2-7.1 5.8-9 14.9-6.8 31.5.9 6.4.8 8.4-.8 13.5-2.1 7.1-2.3 13.2-.4 20.1 1.5 5.6 5.2 11.4 7.3 11.4 1.3 0 4.3-4.9 4.3-7 0-.7.9-2.5 2.1-4.1 1.3-1.8 2-4.1 1.8-6.2-.2-1.7.9-6.4 2.3-10.2 1.5-3.9 3.2-9 3.8-11.5 1.5-6.2 4.9-17 6.3-20 4.6-10.2 23-32.8 33.5-40.9 2.8-2.3 5.2-4.5 5.2-5 0-.4 1.4-2.6 3.1-4.7 4.5-5.5 8.7-15 9.6-21.3.9-6 2.8-7.8 3.9-3.5 1 3.9-1 11.4-5.8 21.2-2.4 4.8-4.4 9-4.6 9.5-.2.4 1.8-.6 4.5-2.2 14.3-8.6 30-14.6 45.5-17.2 2.7-.4 5.2-1.1 5.8-1.4 2.9-1.8 22-3 40-2.4 18.5.5 24.3 1.2 37.1 4.5 3 .8 7.2 1.4 9.2 1.4 2.7 0 3.7.4 3.7 1.6 0 1.1.5 1.4 1.6 1 1.8-.7 8.4 1.3 8.4 2.6 0 .4.7.8 1.6.8.8 0 1.2-.5.8-1.1-.4-.7.2-.9 1.7-.7 1.3.1 2.8 1.3 3.4 2.5.5 1.3 3.1 3.2 6 4.4 5 2.1 15.7 9.3 20.5 13.6 1.3 1.2 7 6.2 12.6 11 9.9 8.5 12.1 11.3 8.9 11.3-.8 0-1.5-.5-1.5-1.2 0-.6-.3-.9-.6-.5-.5.5 1.2 9 3.2 15.9.3 1 0 1.8-.6 1.8s-1.3-.8-1.6-1.8c-3.3-10.3-10.8-21.7-19-29-10.3-9-11.4-9.9-13.6-10.9-6.4-3.2-23.9-11.2-28.3-13-2.7-1.2-6.9-2.9-9.3-3.9-2.3-.9-4.5-1.4-4.8-1.1-.3.3 2.1 3.2 5.3 6.4 4.4 4.2 6.6 7.4 8.1 11.6 2.2 5.9 2.9 12.7 1.3 12.7-1.1 0-2.3-2.9-1.6-4 1.1-1.8-4.7-11.8-9.7-16.7-6.2-6.1-17.6-11.7-28.3-14-7.9-1.6-37.4-2-40.3-.4-1 .5-4.7 1.6-8.2 2.5-17 4.2-36.5 11.1-39.2 13.8-1 1-2.4 1.8-3.1 1.8-1.6 0-14.7 8.9-19.5 13.2-2.1 1.8-7 5.7-11 8.7-4 3-8.8 7.6-10.8 10.4-3.1 4.3-3.4 5.1-2.1 6.4 1.3 1.3 2.4 1 8.8-2.1 11.4-5.6 21.5-7.9 31.3-7 11.2.9 30.9 6.3 33.8 9.2 2 2 .1 2.4-3.3.6-5.9-3-21.9-6.4-30.2-6.4-9.1 0-20.9 2.9-27.6 6.7-5.7 3.3-16.2 11.9-15.4 12.6.7.8 5.4-1.1 7.5-3 1.6-1.4 2-1.3 4.7.8 3.6 2.9 3.9 4.3.8 3.5-3.7-.9-13.6 1.9-17.4 5-4.5 3.7-11.2 18-11.3 24.2 0 2.3-.9 8.3-2 13.3-2.1 9.4-3.5 11.9-11.8 21.3-6.6 7.5-7.5 9.8-6.7 17 .4 3.3 1.8 9 3.1 12.6 3.7 10.5 6.4 22.4 6.4 28.4s.9 6.8 4.4 4.1c1.9-1.4 1.9-2 .8-8.8-2.1-12.7-2.9-16.1-5.2-21.7-1.4-3.4-2.4-8.6-2.7-13.6l-.6-8.1 6-5.9c9.3-9.3 11.8-14.9 13.2-29.3.6-6.6 1.5-13.1 2-14.3.5-1.3 1.2-3.5 1.5-4.9.3-1.4 2.3-4.8 4.5-7.6 3.4-4.2 4.8-5.1 9.1-6.1 7.3-1.7 11.5-1.5 16 .8s7 6.3 7 11.2c0 2.5-.6 3.6-2.2 4.3-3 1.3-6.4 6.6-7.6 11.8-.6 2.3-2 6.7-3.1 9.7-1.2 3-2.1 6.6-2.1 8.1 0 5 9.1 11.9 15.8 11.9 2 0 7-.7 11-1.7 6-1.4 7.6-2.2 8.7-4.3 2.8-5.4 2.7-8.5-.4-17.8-3-9.2-5.2-13.5-8.3-16.2-1-.8-2.4-4-3.2-7.1-1.9-7.7-3.7-10.7-8.6-15.3-4.6-4.3-9.6-6.5-14.8-6.6-4.7 0-3.7-1.6 3.4-5.5 14.2-7.8 30.1-8.4 47.9-1.6 2.8 1 7 2.6 9.5 3.5 6 2.1 10.5 6.3 8.9 8.2-.6.8-1.8 1.4-2.6 1.4-2.2 0-15.1 8.8-16.8 11.4-1.7 2.7-3.1 18.1-1.8 19.8.6.7 1.3 2.9 1.7 4.8 1.4 7.4 5.1 18.3 6.4 18.8 2.6 1 12.6-5 18.2-10.9 5.7-5.9 6.7-8.2 8.5-19.4l.7-4 1.4 2.7c2.5 4.8 15.7 17.5 21.6 20.7l5.7 3.2 12.6-.4c6.9-.3 12.9-.7 13.2-1.1.8-.7-2.3-21.9-3.6-24.4-.4-.9-1.8-4-3.1-6.7-4.1-9.2-9.3-14.9-16.5-18-5.7-2.4-7.4-2.7-12.4-2.1-3.7.4-6.2.3-6.6-.4-.3-.5.7-2.9 2.3-5.2 7.5-11 10.5-19.8 7-20.6-1.8-.3-2 .1-4.9 7.8-.7 1.9-4.6 7.3-8.6 12.1s-7.3 9.1-7.3 9.7c0 .5.9 1.7 1.9 2.6 1.5 1.4 2.4 1.5 3.9.7 3.5-1.9 18.4-.7 23.9 2 6.5 3.1 11.2 6.2 11.3 7.3 0 .5.9 2.8 2 5 3.4 7.2 6 15.8 6 20.2 0 3.9-.2 4.3-3.4 5.4-1.8.6-6.4 1.2-10.2 1.3-6.5.2-7.3-.1-13.3-3.8-8.9-5.6-15.6-12.8-18.2-19.5-2.4-6.3-5.4-10-8.2-10-1.7 0-1.9.5-1.3 3.2 2 9.8 1.8 13.2-.7 18.9-1.3 3-3.8 7.1-5.5 9-3.3 3.8-12.2 8.5-14.5 7.6-.8-.3-1.9-2.7-2.6-5.4-.7-2.6-1.6-6.4-2.2-8.4-2.3-9.2.5-20 6.9-26.4 3-3 13.2-8.5 15.8-8.5 1.4 0 1.5-.7.9-4.3-2.7-15.5-2.3-21 2.1-30.2 3.1-6.7 8.8-11.7 17.8-15.9 3.8-1.8 4-1.8 5.3 0 .7 1 1.4 3.8 1.5 6.3.5 12.7.7 13.3 3.3 11.1.8-.7 1.5-2.3 1.5-3.7 0-4.4-3.1-16.2-4.8-18.3-1.7-2-1.7-2-8.3-.1-9.2 2.6-12.5 4.6-16 9.4-6.1 8.3-8.6 14.7-9.4 23.4-.4 4.6-1 8.3-1.3 8.3-.3 0-2.6-1.3-5.1-2.9-10.7-6.8-29.2-10.4-46.7-9-7.9.6-10.2 1.2-16 4.3-3.7 1.9-7 3.3-7.3 3.1-.2-.3.6-1.7 2-3.1 2.6-2.9 18.3-15.4 19.3-15.4s10.8-6.2 15.8-10c14.7-11.1 26-15 55.1-19.2 13.2-1.9 16.1-2 23.2-1 4.5.7 10.6 1.2 13.6 1.2 7.9 0 18.4 5.3 25.6 12.8 5.8 6 6.6 7.5 8.9 16 1.8 6.9 1.8 6.9-.9 7.7-3 1-7.9 5.7-13.9 13.5l-5 6.5.6 7.1c.3 3.9 1.3 8.4 2.2 10 1.9 3.3 8.4 8.4 13.1 10.3 3.2 1.3 12.4 1.1 21.8-.5l4-.7-4.2 4.6c-2.4 2.6-4.3 5.5-4.3 6.5 0 2.5 5.1 9.4 8.9 12.1 1.6 1.2 5.4 3.2 8.3 4.6 5 2.2 5.8 2.3 13.3 1.4 9.7-1.3 12.7-2.1 13.2-3.5.3-.7-3.7-1.3-11.9-1.8-11-.7-12.7-1-15.8-3.3-4.3-3.2-10-8.5-10-9.3 0-.4 2.3-3 5-5.9 2.8-2.9 5-5.6 5-6.1 0-.4 1.1-1.5 2.5-2.4 2.5-1.7 7-1.5 22.3 1 5.2.8 5.5-.5.5-3.3-6.5-3.5-13.4-4.8-18.4-3.4-7.2 2-8.3 2.2-9.7 1.3-.7-.5-1.6-4.9-2.2-10.8-1-9.7-3.7-19.7-6.4-23.9-.8-1.2-2.8-2.8-4.5-3.5-1.8-.7-3.1-2-3.1-3 0-.9-1.4-5.7-3.1-10.6-1.7-4.9-3.3-9.7-3.6-10.7-.8-2.5 4.1-2.2 12.3.7 8.7 3.2 16.2 8.3 25.4 17.6 14.3 14.3 17.5 18.9 21.6 31.4 1.4 4.2 2.5 6.1 4.3 6.7 2.2.9 2.3 1.3 2 9.1-.5 9.4 1 11.1 4.7 5.7l2.2-3-2-8.2c-1-4.5-3.3-12.4-4.9-17.5-1.7-5.2-2.8-9.6-2.5-9.9.3-.3 2.3.6 4.3 2 5.3 3.6 18.3 6.3 22.4 4.7 3.3-1.4 7.9-6.4 7.9-8.6 0-1.9-2.8-3-4.3-1.5-.6.6-4.3 1.1-8.4 1.1-6 0-8.4-.5-12.6-2.6-7.7-3.9-13.4-8.1-21.2-15.4-6.7-6.3-18.4-15-20.3-15-.5 0-1.9-1.1-3.2-2.5-1.3-1.4-5.2-4.1-8.7-6-7.8-4.4-8.4-5.4-3.6-5.7 7.1-.4 32.1.9 37.5 1.8 4.7.9 14.1 3.5 15.3 4.3.6.4 3.7 1.8 7 3.1 8.9 3.5 15.8 8.4 27.2 19.4 10.6 10.2 12.8 13.5 15.8 24.1 1 3.3 3.1 9.8 4.7 14.5 1.6 4.7 3.3 10.2 3.9 12.2.5 2.1 2.2 6.7 3.9 10.3 1.6 3.6 3 7.4 3 8.4 0 2.7 2 8.2 4.2 11.3 1 1.4 1.8 3.5 1.8 4.7 0 2.6 14.3 20.6 23.4 29.5 19.9 19.3 34.8 29 51.3 33 2.8.7 8 2.4 11.5 3.9 13.3 5.4 22.3 8.7 23.6 8.7 1.9 0 9.2 3.9 13.3 7.1 2 1.6 4.1 2.9 4.6 2.9.6 0 2.2 1.1 3.6 2.4 1.4 1.3 3.6 3.1 4.8 3.9 2.5 1.8 13.2 11.5 22.5 20.5 3.6 3.4 7.2 6.2 8 6.2.9 0 6 1.8 11.4 4 7.9 3.1 13.7 4.6 28.7 7 18.3 3 26.7 5 30.8 7.5 1.1.7 3.3 1.6 4.8 1.9 1.6.4 4 1.8 5.4 3.2 1.3 1.3 5.5 4.5 9.3 6.9 3.7 2.5 10.8 8.4 15.8 13 9.3 8.8 13.2 15 19.2 30.5 4.7 12.2 4.9 35 .4 57.8-2.6 13.4-.2 28.3 7.1 44.7 9.7 21.9 11.3 24.4 23.9 37.1l12.1 12.2 10 3c6.2 1.9 11.1 2.9 12.8 2.5 3.1-.6 3.5-2 1-3-1-.4-3.2-2.1-4.9-3.7-1.7-1.7-6.5-6.2-10.8-9.9-6.4-5.8-11.5-11.9-17.1-20.8-.5-.8-2-3.1-3.2-5-1.3-1.9-2.3-4.9-2.3-6.7 0-1.9-1-4.7-2.4-6.5-5.3-7.1-5.9-9.5-5.3-19.3.7-10 3.5-19.1 7.3-23.7 2.1-2.5 2.3-5.7.5-5.7-1.3 0-4.7 4.3-7.3 9.2-3.8 6.9-5.3 24.6-2.8 32.4 2.2 6.8 9.6 22.7 11.8 25.3.7.9 2.5 3.5 4 5.7 5.5 8.6 11.1 14.9 19.7 22.2 4.7 4 4.8 4.3 2 3.7-1.6-.4-4.3-1.1-6-1.6-3.4-1.1-13.4-10.2-18.5-16.9-1.9-2.5-4.5-5.6-5.7-7-1.3-1.4-2.3-3-2.3-3.7 0-.6-.6-1.8-1.3-2.5-.7-.7-3.1-4.9-5.2-9.3s-4.6-9.6-5.6-11.5c-2.4-4.9-4.7-14.7-6.1-25.5-1-7.8-.9-11 .6-21.1 1-6.5 2.2-14.1 2.8-16.7 1.3-6 .2-23-1.9-30.7-.8-3-2.1-7.9-2.8-10.7-1.1-4.5-6.4-14.7-8.4-16.3-.3-.3-2.6-2.9-5-5.8-7.9-9.7-21.2-20.9-31.6-26.6-2.7-1.6-5.5-3.2-6-3.7-.6-.4-4.9-2.2-9.5-3.9-6.4-2.3-12.6-3.5-25.3-5-9.2-1.1-17.6-2.4-18.7-3-1-.5-2.7-1-3.8-1-1.1 0-2.5-.6-3.1-1.4-.9-1.1-.2-2 3.6-4.4 2.6-1.7 5.8-3.9 7.1-4.9 2.1-1.7 2.1-1.9.3-3-1.5-1-2.7-.6-7.1 2.3-2.8 1.9-5.6 3.2-6.1 2.8-1.7-1-1-5.9 1.1-7.2 2.7-1.7 2.6-3.5-.2-2.6-4.2 1.2-5.8 3.5-5.8 8.1 0 4.5-.7 5-4.3 3.1-2.2-1.1-10.4-7.3-12.2-9.2-.5-.6-4.4-3.8-8.5-7.1s-8.4-6.8-9.5-7.9c-1.1-1-3.7-2.9-5.8-4.3-2.2-1.3-6.6-4.4-9.8-6.8-3.3-2.4-7.6-4.9-9.7-5.5-2-.7-6.4-2.5-9.7-4.1-3.3-1.5-10.1-4.1-15-5.7-5-1.6-10.1-3.4-11.5-4-1.4-.6-5.6-2-9.4-3.2-7.2-2.3-15.6-6.9-22.8-12.3-2.4-1.8-7-5.1-10.3-7.4-3.3-2.2-9.2-7.6-13-11.9-3.9-4.4-7.3-8-7.7-8.2-1.1-.5-7.8-10-10.6-15.1-4.8-8.9-12.2-24.1-12.2-25.4 0-.6-.6-3.2-1.4-5.7-1.9-5.9-4-13.9-6-22.3-2.1-9.1-7.6-20.5-12.8-26.6-2.4-2.8-5.6-6.8-7.3-9-2.1-2.7-3.9-4-6-4.3-1.9-.2-3.1-1-3.5-2.3-1.5-5.7-8.3-10.3-24.3-16.6-2.7-1.1-6.3-2.7-8-3.6-1.8-1-4.3-1.8-5.7-1.9-1.4-.1-5.6-.8-9.5-1.5-4.1-.7-17.9-1.3-33-1.5-33.3-.4-45.3-1.5-58-5.5-11.4-3.5-25.3-9.9-30.5-13.9-1.9-1.5-4-2.9-4.6-3.1-2.3-.8-14.1-12-18.9-17.9-2.7-3.4-6.2-7.7-7.7-9.5-1.5-1.8-4.1-5.9-5.8-9.1-1.8-3.2-4-6.8-5-7.9-1.8-2-6.4-11.5-9.5-19.5-.9-2.5-2.3-5.9-3.1-7.5-.7-1.7-1.6-4.2-2-5.7-.3-1.6-3.5-5.1-8.2-9.1-9.8-8.3-13.4-12.2-21.3-22.7-6.8-9-14.6-23.7-15.1-28.6l-.3-2.9 5.8.3c3.7.3 5.7 0 5.7-.7 0-1.3-2.3-2.3-8.7-4-2.2-.6-5.1-1.9-6.4-3l-2.2-1.8 5.8-1.4c7.2-1.7 9.2-4.6 2.4-3.5-2.4.4-8.2.6-12.9.4-13.3-.5-21.8 0-28.1 1.6-9.9 2.6-25.4 3.1-32.9 1.2-3.6-.9-7.2-2.4-8-3.2-1.3-1.4-1.2-1.7.9-3.5 1.3-1 3-1.9 3.9-1.9 2.1 0 14.7-5.7 22.2-10 2.8-1.6 5.3-2 12.7-2 5.1 0 9.3.4 9.3.8 0 1.2-5.4 6.2-6.7 6.2-.6 0-3.7.8-6.9 1.9-5.2 1.6-15.7 3.5-20.6 3.6-3 0-3 1.3.1 3 3.3 1.7 5.9 1.5 15.6-1 2.8-.7 7.7-1.8 11-2.6 8.9-1.8 11-3.4 12.2-8.6.9-4 .8-4.7-1.1-7-2.1-2.4-2.6-2.5-14.1-2.5-16.9 0-29.9-1.4-41.5-4.7-11.3-3.2-16-6.2-19.2-12.4-1.1-2.3-2.9-4.8-3.9-5.5-4.1-2.9-5.1-4.4-3.7-5.7 3.5-3.3 22.4-8.9 33-9.8 6.9-.6 11.4-2.3 13.8-5.2 2.9-3.4 9.3-5.9 15.7-5.9 7.8-.1 9.7 1.3 6.3 4.9-4.4 4.7-2.4 18.6 2.8 19.3 2.6.4 2.6.3.7-3.4-1.6-3.2-2-9-.6-9.8.5-.3 1.4.9 2.1 2.7 1.7 4 3.9 6.7 5.7 6.7 2.9 0 2.3-3-1.6-8.8-4.8-6.9-5-8.2-1.6-8.2 2 0 2.7.6 3.2 3 .9 4.8 5.9 6.6 9.5 3.4 1.4-1.4 2-1.4 3.3-.4 1.9 1.6 1.9 4.4 0 6-2.1 1.8-1.9 3.2.5 2.5 3.1-1 2.4.9-1.5 4.4-3.8 3.3-4.6 6.1-1.7 6.1 3.4 0 12.2-11.4 12.2-15.7 0-4.5-11.3-12-19.1-12.7-6.6-.7-6.6-2.9-.1-4 4.1-.6 13.3 1.9 17.9 4.9 2.7 1.8 6.3 2 6.3.2-.1-1.9-8.8-6.9-13.9-7.9-5.6-1.1-13.5-.2-16.7 1.9-2.8 1.8-3.1.4-.6-2.6 1.2-1.5 5.1-3 13-5.1 10.1-2.6 11.9-2.8 16.5-1.9 2.9.6 5.7 1.5 6.3 2 .7.5 4.1 1.2 7.7 1.6 10.8 1 13.8 5 18.1 23.6.9 3.8 1.6 9.2 1.6 12.1 0 6.1-3.2 14.9-6.7 18.5-3 3.1-3 5 0 4.7 3.6-.4 4.6-1.4 7.3-7.1 5.2-11.5 5.2-17.7 0-32-1.3-3.8-2.3-7.1-2.1-7.3 2.2-2.2 9.7 10.1 11.8 19.4 2.1 8.7.3 20.8-3.9 27.3-3.1 4.7-7.7 9.1-9.5 9.1-1 0-2.1.5-2.4 1-.9 1.5.4 5 2 5 3.3 0 11.9-13.5 15.4-24.3 3.1-9.3 4.2.4 1.6 13.8-1.5 8-5 15.2-9.3 19.2-1.7 1.6-2.2 2.7-1.5 3.4.7.7 2.5-.7 5.7-4.3 5.1-5.8 7.3-11.5 8.3-21.6.3-3.4.9-6.5 1.4-6.7 1.3-.9 3.2 6.6 3.2 13-.1 10.1-1.8 15.5-7.4 22.4-5.1 6.4-5.9 8.1-3.5 8.1 2 0 7.5-7.2 10.9-14.1 2.1-4.4 2.7-7 2.7-12.2 0-5.2.3-6.7 1.4-6.7 2.2 0 2.8 1.6 3.2 8.7.3 7 1.1 9.1 2.1 5.5 1.1-4.4 2.8-1.5 3.1 5.2.3 7.8-1.8 16.4-4.8 19.1-2.3 2.1-2.6 3.5-.7 3.5 4.2 0 8.7-11.3 8.7-21.7 0-7.7 2.3-6.9 5.1 1.7 1.7 5.4 1.6 18.2-.1 23.6-.7 2.2-3.3 6.8-5.7 10.3-4 5.7-4.9 9.1-2.5 9.1 1.4 0 8.5-10.8 10.6-16 1.2-2.8 2.1-8.2 2.4-14.3.2-5.3.8-9.7 1.3-9.7s1.5 1.3 2.4 3c1.1 2.1 1.5 6.2 1.6 14.5.1 12.6-1.3 17.1-8.1 27-3.4 4.9-3.4 7.1-.1 4.1 2.7-2.4 7.6-12.9 9-19.2.7-2.9 1.4-8.3 1.6-12 .2-5.3.6-7 1.8-7.2 1.1-.2 1.8.6 2.3 2.5.3 1.5.8 3.5 1 4.3 1.1 4.4 1.4 14.7.4 19.7-1.1 6.5-5 14.5-8.8 18.5-1.4 1.5-2.2 3.1-1.8 3.5 1.4 1.4 4.1-1.4 8.2-8.4 4.1-7.3 6.4-15.9 6.4-24.4 0-3.9.2-4.2 1.5-2.8 2 2 2.3 17.8.5 23.4-1.6 5.1-5.7 13.3-8.1 16.4-2.3 2.9-2.5 6.1-.4 6.1s9.2-15.6 11.2-24.5c1.8-8.3 2.9-9.8 4.3-6.1 1.7 4.5 1.2 14.2-1.1 20.4-3.4 9.3-3.5 9.9-1.7 8.4 2.4-1.9 5.8-10.5 6.3-15.8.8-8.6 3.5-6.8 4.2 2.8.7 8.6-.8 14.8-5.6 23.7-4.3 7.8-4.6 9.8-.8 6.3 4-3.7 7.6-12.5 8.9-21.1 1.8-12.6 4.5-9.5 4.7 5.4.1 9.8-1.1 14.3-5.6 21.4-3.2 5-3.3 5.5-1.8 7 1.5 1.5 1.7 1.4 3.5-.9 3.7-4.8 6.4-14.9 6.4-24.2.1-5.4.5-8.7 1.1-8.5 1.7.6 3.7 9.8 3.9 17.4.2 10.9 2.6 9.3 2.6-1.7 0-11.5 3.8-7.5 4.9 5.1.6 7.6.2 15-1.4 23.3-.7 3.4-.6 3.8 1.1 3.4 2.9-.5 4.1-4.2 4.9-14.2.5-7.2.3-10.5-.9-14.6-3.4-11.3 2.6-6.9 6.5 4.8 1.9 5.4 2.3 8.9 2.4 18.2 0 11.2.1 11.5 2.3 11.8 2 .3 2.2-.1 2.2-4.2 0-6.5-1.9-19.4-3.6-24.5-1.6-4.6-.9-6.6 1.9-5.6 3.5 1.4 8.9 20.7 8.6 30.7-.2 5.1.1 7.3 1 7.6 2.1.7 2.9-1.7 2-5.7-.5-2-.9-5.6-.9-8.1-.1-2.5-.9-7.7-2-11.5-2.1-7.9-1.3-10.1 2-5.6 5.8 8.3 8.1 14.4 8.7 23.4.5 7.4.8 8.7 2.2 8.5 1.1-.2 1.7-1.6 1.9-4.1.4-4.3-2.9-17-5.8-22.8-2-3.9-2-3.9-.1-3.9 4.2 0 11.6 14.6 13.3 26.2 1 6.1 1.7 8.3 2.8 8.3 4.1 0 .5-16.9-6-28.7-1.4-2.5-1.3-2.8 1.4-2.8 4.4 0 11 12.2 13 24.3.7 4 1.8 7.3 2.5 7.5 2.5.8.3-11.6-3.5-19.4-1.9-3.9-3.4-7.7-3.4-8.3 0-2.6 3-.7 6.8 4.2 5.1 6.5 7 10.9 7.8 18.1.4 3.1 1.3 6.1 2 6.7 2.4 2 2.8-1.7.9-8.4-2.1-7.4-4.5-12.3-8.1-16.6-1.8-2.2-2.4-3.5-1.6-4.3 1.1-1.1 5.2.6 5.2 2.3 0 .6 1.1.8 2.9.4 2.3-.5 3.4 0 6 2.5 4.8 4.8 8.3 11.5 10 19.3 1.8 7.6 4.1 10.2 4.1 4.5 0-5.8-2.9-14.9-6-18.8-4.8-6-3.5-10 1.7-5.6 3 2.6 10.1 15.5 10.5 19.4.4 3.2 2.3 2.7 2.2-.6-.1-2.7-2.2-7.5-6-13.9-1-1.7-1.5-3.5-1.2-3.9 2.3-2.2 12.8 13.9 14.3 21.9.8 4.2 2.2 5.6 3.1 3.2 1.2-3.1-3.8-16.2-7.8-20.6-2.1-2.3-3.8-4.5-3.8-5 0-2.1 3.9-.6 7.2 2.8 5 5.3 8 11.8 8.7 18.8.5 4.8 1 6 2.5 6.3 1.6.4 1.8 0 1.2-3.5-.4-2.1-2.3-7.5-4.3-12-1.9-4.6-3.3-8.8-3.1-9.4 1-3 10.8 12.3 10.8 16.8 0 1.2.5 2.5 1 2.8 1.7 1.1 1.1-5.1-1.1-10.2-1.1-2.6-3-5.8-4.2-7.1-1.6-1.7-1.8-2.5-.9-3.4.9-.9 1.6-.7 3.2.7 3.1 2.8 8.8 14.9 10.1 21.6 1.2 6 3.2 7.8 4.4 3.9.8-2.6-.8-7.8-5.6-17-4.4-8.5-4.5-9-2.4-9 1.9 0 7.2 7.9 10.2 15.3 1.8 4.5 2.3 7.3 1.9 10.4-.4 2.9-.1 4.5.9 5.3 4.1 3.4 3.1-10.8-1.3-20.1-1.8-3.6-3.2-6.9-3.2-7.2 0-1.6 2.6-.5 3.9 1.5 5.1 8.1 6.3 11.5 6.9 19.5.2 4.6.8 8.3 1.3 8.3 1.6 0 2.2-2.5 2-9.2-.1-5.1-.8-8.3-2.6-12.1-1.8-3.7-2.2-5.4-1.4-6.1 1.5-1.6 8.6 6.9 10 11.8.7 2.5.8 7.4.4 12.8-.6 7.6-.5 8.9.9 9.4 2.6 1 3 0 3.4-9.4.4-7.7.1-9.5-2.2-14.9-3-7.3-3-7.3-1.2-7.3 1.7 0 5.3 5.5 6.7 10.2 2.3 7.5 2.9 16.6 1.3 20.9-1 2.9-1.1 4.6-.4 5.3 3 3 6.5-9.7 5.5-20.1-.4-4-1.1-7.5-1.6-7.9-.5-.3-.9-1.4-.9-2.6 0-4.1 2.9.2 5.5 8.5 2.4 7.4 2.6 8.6 1.5 14.5-.6 3.6-1.8 7.8-2.6 9.3-1.7 3.5-1.7 3.9 0 3.9 2.2 0 5.6-13.4 5.6-22.3 0-6.2.3-7.7 1.5-7.7 5.2 0 4.4 21.5-1.1 32.2-1.2 2.3-1.2 3.1-.2 4.8.7 1.1 2 1.9 2.8 1.8 2.2-.4 4.9-9.6 5.6-19.3.4-4.7 1-8.5 1.5-8.5 1.5 0 3.1 7.3 3.2 14.3.1 6.3-.3 7.9-3.1 12.8-1.8 3.1-3.2 5.9-3.2 6.2 0 .4 1.3.7 3 .7 4.8 0 6-3.6 6-18.4 0-12.2.4-14.2 2.7-12.8 2.3 1.5 3.4 6.7 3.4 17.1 0 9.1-.3 11.6-2.6 17.6-3.8 9.9-3.7 9.8-2.2 12 1.4 1.8 1.6 1.8 3.6-1.5 1.1-1.9 2.3-5.5 2.6-8 .3-2.5 1-7.2 1.5-10.6.6-3.3 1-8 1-10.3 0-3.4.3-4.2 1.7-3.9 2.5.5 4.4 9 3.7 16.8-.8 9-2.8 15.7-6.4 21.4-2.7 4.1-3 5.3-2.1 7.3 1.5 3.3 2.6 2.9 5.6-2.5 4.4-7.8 7.7-19 7.2-24.5-.6-6.7 1.8-6.3 3.2.5 1 4.8.5 11.1-1.2 18.4-.7 2.9-6.6 13.4-9.1 16.2-1.8 2-1.8 2.4-.4 3.8s1.8 1.2 4.5-2.3c1.7-2.1 3.5-4.7 4.1-5.8 1.8-3.5 5.2-14.7 5.2-17.2 0-4.1 2.7-2.6 3.3 1.9 1.2 8.6-2.1 17.7-10 27.5-3.7 4.6-4.2 6.6-1.6 6.1 3.2-.6 12.4-14.7 14.8-22.6 1-3.5 3.1-2.1 2.7 1.9-.6 5.7-9.4 20.9-12.1 20.9-.8 0-3.1 4.4-3.1 6 0 .6.7 1 1.6 1 2.5 0 8.2-7 12-14.8 2-4.1 4.1-7.1 4.7-6.9 1.7.6 1.1 7-.9 10.9-1.7 3.3-7.9 11.2-12.1 15.4-1.8 1.8-2.1 2.8-1.4 4.5.4 1.3 1.3 2.5 1.8 2.6 1.3.5 12.1-14.1 12.9-17.4 1-3.9 2.2-2.6 1.7 1.9-.7 6.5-3.6 11.9-8.7 16.6-4.8 4.4-5.9 7.2-2.8 7.2 2.4 0 10.1-6.6 11.3-9.6 1-2.7 2.9-3.2 2.9-.8 0 3.2-3.4 8.8-8.2 13.3-3.5 3.3-4.7 5.2-4.2 6.4.3.9 1 1.7 1.6 1.7 1.4 0 5.7-5 9.1-10.7 3.6-6.1 6.3-7.1 5.3-2.1-.5 2.4-.2 3.4 1.4 4.5 1.5 1.1 1.9 2.1 1.4 4.1-1.5 6.7-2.9 9.8-7 14.8-4.9 5.9-5.1 6.6-2.9 8.4 2.1 1.8 5.7-1.7 7.5-7 .7-2.2 1.9-4.5 2.7-5.1 3.7-3.2-1.1 12.4-5.4 17.3-1.8 2-1.3 5.3.7 5.3 1.6 0 5.9-7.4 6.9-11.9.4-1.6 1.3-3.2 2-3.4 1.1-.4 1.3.7.8 5.7-.5 5.5-2.1 10-5.9 16-.9 1.5-1 2.3-.1 3.2 2.1 2.1 5.1 0 6.9-5.2 2.2-6 4.1-8 5.1-5.4.8 2.2-1.2 12.5-3.4 17.1-1.3 2.7-1.4 3.7-.5 4.6 2 2 4.1-1.2 6.1-9.3 1-4.1 2.2-7.4 2.7-7.4 1.5 0 2.5 9.3 1.5 13.2-.6 2-.8 4.1-.4 4.6 1 1.6 3.2-3.6 3.5-8.3.2-4.4 2.3-6.4 3.9-3.9 1.6 2.6 1 11.8-1.1 15.9-1.1 2.2-2 4.6-2 5.4 0 1.5 3.7 3.3 4.7 2.3.7-.8 2.2-7.4 2.8-13.2.8-6.5 1.9-7.5 4-3.5 1.2 2.4 1.6 5.1 1.3 10.3-.2 4.8.1 7.2.9 7.4 1.4.5 3.7-7.1 2.9-9.9-1.2-4.7 2.7-6.7 4.4-2.2 1.5 3.8 1.2 11.7-.6 15.9-1.5 3.8-.8 6.5 1.4 5.1 1.7-1 5.2-11.3 5.2-15.1 0-2.5.4-3.5 1.6-3.5 1.4 0 1.5 1.2 1.1 8.7-.2 4.9-.8 9.9-1.2 11.1-.7 2.1-.5 2.3 1.6 2 2.8-.4 3.7-3 3.8-11.5.1-3.4.5-6.4 1-6.8.5-.3 2.5.4 4.4 1.5 1.9 1.1 4.2 1.8 5.1 1.4.9-.3 1.6-.1 1.6.5s.8 1.1 1.8 1.1c.9 0 3.6.9 6 2 3.6 1.6 4.2 2.3 4.2 4.9 0 4.2-1.6 4.7-5.9 1.7-3.8-2.7-8.5-3.4-9.6-1.5-.8 1.2 1.4 6.9 2.6 6.9.5 0 .9-.7.9-1.5 0-4.3 5.9-2.4 12.7 3.9 2.6 2.5 5.4 4.6 6.1 4.6 2.6 0 2.3-3.1-.8-7-1.7-2.2-3-4.8-2.8-5.7.6-3 4.1-2.1 6.6 1.7 2.6 4 4.2 4.9 4.2 2.6 0-3.2 4.3-1.3 10.6 4.6 1.7 1.6 4.4 3.2 6 3.7 2 .5 3.6 2.1 5.2 4.9 4.5 8.1-.6 8.5-8.4.7-5-5-9.4-7.1-9.4-4.5 0 .5.4 1 1 1 .5 0 3.1 2.2 5.7 4.9 5.9 6 7.6 6.9 14.7 7.7 6.4.8 7-.1 3.6-5.1-3.3-4.9-6.2-11.5-5.7-13.3.4-1.5.6-1.4 1.2.3.4 1.1 3.4 4.1 6.7 6.7 5.9 4.6 8.8 5.9 8.8 3.8 0-.6-.4-1-.9-1-1.7 0-13.6-12.7-15.6-16.6-1.1-2.2-3-5.6-4.3-7.6-1.3-2-3.5-8.1-4.8-13.4-2.8-11.2-2.2-13.5 2.5-9 2.4 2.3 3.2 4.4 4.5 11.4.9 4.7 2 9 2.6 9.6 1.9 1.9 2.2-2.4.6-8.7-.9-3.5-1.6-7-1.6-7.8 0-.8-2.4-3.9-5.3-6.9-10.1-10.7-17.7-24.6-17.7-32.4 0-7.6-7.1-19.6-11.5-19.6-1.6 0-13.5-5.8-13.5-6.6 0-.4 2.5-.3 5.6.1 9.5 1.2 6-1.6-4.7-3.7-11.6-2.4-12.8-3.3-9.2-7.2 2.2-2.4 7.8-5.6 9.8-5.6.3 0 2.1 2.4 4 5.4 3.6 5.6 6.8 8.6 9.4 8.6.8 0-.6-2.1-3.1-4.8-7.1-7.6-7.3-16.3-.7-24.2 2.9-3.4 3.2-3.5 9.7-3.5 4.1 0 8 .6 10.2 1.7 1.9.9 6 2.7 9.1 4.1 5.6 2.5 9.9 6.6 9.9 9.6 0 2.8 6.6 11.6 12.1 16.2 8.9 7.5 16.3 15.2 20.2 21.1 2.3 3.6 4.5 5.8 5.6 5.8 1 0 2.4.7 3.2 1.6.7.8 2.6 2.2 4.3 3.1 3.3 1.7 13.8 9.7 19.5 14.8 3.8 3.4 12.9 14.5 18.1 22 1.9 2.7 4.1 5.4 4.8 5.8.7.4 2.3 1.9 3.5 3.3 1.4 1.5 3.8 2.6 6.1 2.9 2.1.3 4.2.8 4.7 1.1 1.6.9 11.9 3.4 14.4 3.4 2.1 0 8.7 2 17.3 5.1 1.3.5 2 1.3 1.7 1.9-.4.6-1.6.5-3.3-.4-1.9-1-7.7-1.5-19.5-1.7l-16.8-.4.3 2.5.3 2.5 11.5-.1c6.3-.1 13.1-.3 15-.5 1.9-.1 5.1.5 6.9 1.4 2 1 5.8 1.7 9.3 1.7 5 0 5.8-.3 5.8-1.8 0-2.1-11.6-10-16.5-11.3-1.6-.5-7.7-2-13.5-3.4-16.7-4.1-20.3-5.9-25-12.1-2.2-2.9-4-5.7-4-6.1 0-.9-20.2-21.7-24-24.8-1.4-1.1-4.7-3.5-7.5-5.2-2.7-1.8-6.1-4-7.5-5-1.4-1-4.1-2.5-6.1-3.4-2.5-1.2-4.5-3.3-6.8-7.3-1.7-3.1-3.9-6.4-4.9-7.4-.9-1-3.1-3.4-4.9-5.4-1.7-2-4.9-4.8-7-6.1-4.6-2.9-8.5-7.8-13.3-16.6-2-3.6-4.9-7.3-6.5-8.3-4.8-2.9-10.9-5.8-12.4-5.8-.8 0-3.5-1-6-2.2-3.5-1.8-6.2-2.3-11.4-2.2-6 .1-7.2.5-9.6 2.8-2.7 2.6-4.8 6.7-6.7 13-.6 2.1-2.4 3.8-5.9 5.7-5.4 2.9-11.4 10.1-11.5 13.5 0 1.5.8 2.4 2.6 2.8 1.4.4 6.5 2.9 11.3 5.6 4.8 2.8 9.1 5 9.5 5 .5 0 2.6 1.6 4.7 3.5 2.2 1.9 4.3 3.5 4.8 3.5 1.3 0 2.9 5.4 4.5 15.2.9 5.6 2.9 11.9 5.6 18 4.2 9.3 6.3 16 8 25.3 1 5.3 5.6 15.3 7.8 17 .8.7 1.2 2.5 1 4.9l-.3 3.8-3.5-2.5c-1.9-1.4-6.8-4.4-10.9-6.7-4.1-2.3-7.9-4.7-8.5-5.5-.6-.7-2.7-1.8-4.6-2.4-11.1-3.3-29.9-10.4-32-12.1a27.2 27.2 0 0 0-5-3.1c-11.3-5.1-16.1-7.8-20-11.4-2.5-2.3-5.9-5.1-7.6-6.2-1.6-1.2-4.2-4.3-5.6-7-3-5.6-7.4-18.1-8.1-23.5-.3-2-1.2-5.2-2-7-1.6-3.6-3.3-12.8-4.2-22.8-1.5-15-5.9-31.2-11.8-42.9-3.8-7.3-5.7-12-5.7-13.9 0-1.9-3.6-7.6-7.3-11.5-1.2-1.4-4-5-6.2-8.2-7.3-10.4-12-15.9-16.5-19.2-2.5-1.8-5.9-4.4-7.6-5.8-1.8-1.4-3.5-2.5-3.9-2.5-.5 0-2.7-1.6-5.1-3.5-2.3-1.9-4.8-3.5-5.4-3.5-.7 0-2.8-1.4-4.7-3-2.5-2.2-4.4-3-7.3-3-3 0-4.3-.6-6-2.8-2.3-2.9-2.7-3-20-5.7-6.6-1-11.5-2.4-13.2-3.6-1.5-1-3.6-1.9-4.6-1.9-1.1 0-5.5-.9-9.8-2-8.7-2.3-34.8-4.4-37.3-3.1-1 .6-3.3.2-6.1-.9l-4.5-1.8-.6-16.3c-.9-22-3.3-38.9-7-49.7-4.8-13.6-7.5-30.2-5-30.2.4 0 1.9.8 3.2 1.8 3.2 2.4 8.7 4.6 17.9 7 10.3 2.8 12.1 3.1 26.4 4.6 13 1.4 22.5.5 23.4-2.2.2-.8-2.6-1-11-.6-10.9.6-24.8-1-29.6-3.4-.9-.5-5.3-1.7-9.7-2.7-4.4-1-9.4-2.4-11.1-3.1-6.3-2.6-16.4-12.6-16.4-16.2 0-2 3.2-1.4 5.9 1.2 4.2 3.9 13.2 9.6 16 10.2 1.4.3 4.2 1.2 6.1 1.9 8 3.2 24.2 5.5 39.6 5.6 11.1.1 24.7-3.3 33.7-8.4 3.8-2.1 7.1-3.7 7.3-3.4.8.8-3.9 5.8-7.8 8.5-8.2 5.5-11.1 7-14.9 7.6-3.6.6-5.6 2.6-2.6 2.6 2 0 9-2.1 12.5-3.7 4.9-2.3 6.1-.6 3.2 4.9-2.9 5.6-6.1 14.4-6.7 18.8l-.5 3.5 3.1-4.2c2.4-3.3 4.2-4.5 8.3-5.8 6.7-1.9 6.5-2 11 1.1 6 4.2 8 8.2 7.2 14.6-.8 6.6-1.9 8.8-4.4 8.8-1.1 0-2.4.9-3 2-.9 1.6-2.1 2-6.3 2-5.1 0-10.3 1-14.1 2.5-1.8.8-1.9.5-1.2-5.3.7-6.1 0-11.2-1.4-11.2-1.5 0-7.2 22.1-9 34.8-.5 3.5-1.2 6.7-1.5 7.2-.8 1.3-.8 18.8.1 20.1 1.1 1.8 2.4-1.1 2.4-5.6.1-4.3 2.1-12.9 3.3-14.1.4-.4.7-2.6.7-4.8 0-2.3.5-4.8 1-5.6.8-1.2 1.4-1 3.5 1.7 3.8 4.8 7.4 5.6 12.6 2.9 3.9-2.2 5.6-4.3 5.8-7.3.2-2.1-4.9-7.2-7.6-7.5-1.5-.2-2.8-.8-3-1.4-.7-2 2.8-2.5 9-1.2 5.8 1.2 6 1.2 7.5-1 .8-1.2 2-2.2 2.6-2.2 2.2 0 8.9-7.5 11.2-12.5 1.3-2.8 2.4-6.4 2.4-8-.1-5.3-4.9-12.6-11.1-16.7-4.8-3.2-6.5-3.8-12.2-4-3.7-.2-6.7-.6-6.7-1.1 0-1.2 3.2-6.7 7.8-13.4 4.7-6.9 5.1-8.3 2.2-8.3-1.4 0-2-.7-2-2.3 0-3.3-4.7-7.4-11.1-9.6-3.1-1-7-2.6-8.7-3.5-3.2-1.7-17.4-4.5-22.4-4.6-1.5 0-4.3-.8-6.3-1.7-3.2-1.5-4.8-1.6-17.8-.4-7.8.7-17.1 1.4-20.6 1.6-3.5.3-9.9.9-14.1 1.6-7.4 1-7.9 1.3-11.6 5.7l-3.8 4.6 3.2 9.1c3.9 11.2 4.1 14 1 13-4.7-1.4-12.7-1.7-16.2-.5-2 .6-4.9 1.3-6.3 1.5-3 .3-5.6 3.3-7.9 9.3-1.4 3.5-1.5 5.1-.5 9.9 1.2 6.3 5.4 14.1 7.9 15 .9.3 5 1.9 9 3.4 4.9 1.9 9.2 2.9 12.8 2.9 6.1 0 7.2 1.6 2.8 4.5-2.4 1.5-2.6 2.1-2 6.3.8 6.1 2.1 7.4 7 7 3.5-.3 4.5-.9 6.5-4 1.3-2.1 2.5-3.7 2.7-3.5.1.1.6 9.8.9 21.6l.7 21.3-3.3-.7c-4-.8-22.1-6.1-26.4-7.7-1.6-.7-4.5-2.4-6.3-4-1.8-1.5-3.6-2.8-4-2.8-.5 0-2.6-1.9-4.9-4.3-14.8-15.3-21.4-21.7-22.7-21.7-2.1 0-6.7-5.7-11.5-14.4-3.3-6-4.1-8.4-3.6-10.6.4-1.6.2-3.1-.5-3.5-.5-.3-2-2.5-3.2-4.8-1.1-2.3-4.9-6.9-8.3-10.3-3.4-3.3-8-8.7-10.3-12-2.2-3.3-5.6-7.2-7.6-8.7-1.9-1.5-5-4.8-6.7-7.4-1.8-2.5-3.9-5.3-4.8-6.2-.9-.9-4.3-5.6-7.5-10.4l-6-8.8-.3-11.3-.4-11.3 4-5.9c6.2-9.2 16.4-19.8 23.8-24.6 10.7-7 23-12.2 31.3-13.3 14.7-1.9 31.8-9.5 39.2-17.4 7.1-7.5 9.2-12.2 9.1-20.6 0-10-1-13.5-5.2-17.8-6.6-7-16.4-9.7-22.9-6.3-3.9 2-5.4 6.5-2.8 8 10 6 10.3 6.3 12.2 12.2 1 3.3 1.9 7.7 1.9 9.9 0 4.3-3.9 13.3-6 14.2-2.5.9-6.7-3.1-9.5-9.1-3.5-7.6-4.2-10.6-4.4-17.8-.1-6-2.2-9.8-4.6-8.3-.7.4-2.3 3.1-3.5 6a26 26 0 0 1-7.2 9.2c-6.8 5.7-8.4 6.3-15.8 6.3-5.2 0-6.7-.3-7.2-1.6-.8-2 2.4-11.6 5.2-15.8 3.1-4.7 11.8-8.6 20.7-9.3 5.9-.4 7.7-1 8.7-2.5 1.6-2.6.3-4.1-6.5-8-9.9-5.5-18.3-17.3-14.3-19.9 2.5-1.6 12.9-1 16 .8 3.1 1.8 8.1 9.7 9.3 14.5.3 1.6 1.3 2.8 2.1 2.8 2.3 0 1.9-5.1-.9-11.4-1.9-4.4-3.5-6.2-7.9-9.1a41 41 0 0 0-20-6.6l-4.2-.3.1 8.2c.1 7 .5 8.7 2.7 12.1 3.3 5 9.4 10.1 13.7 11.5 1.9.6 3.6 1.8 3.8 2.8.2 1.3-1.1 1.8-7 2.7-4 .7-8.3 1.4-9.5 1.7-3.1.6-12.2 10.2-13.8 14.5-.7 1.9-2.3 6.2-3.6 9.6-1.2 3.5-2 6.5-1.6 6.9.3.3 5.1.9 10.6 1.1 8.1.5 10.9.2 15.2-1.3 4.5-1.7 5.7-2.7 9.1-8.1 2.2-3.5 4.4-6.3 4.9-6.3s.9 2.2.9 4.8c0 9.7 8 20.6 16.7 22.8 4 1.1 8-2.9 10.3-10.3 1.1-3.6 2-7.9 2-9.5 0-8.1-4.3-15.3-11.9-20-3.1-2-3.3-2.2-1.5-3.5 4.8-3.5 13.9-.1 17.6 6.6 2.7 4.8 3.5 21.3 1.3 24.7-5.8 8.8-20.8 19.4-27.7 19.4-1.4 0-8.8 1.6-16.4 3.5-21 5.3-33.2 12.2-46.4 26.2-7.2 7.7-10.7 13.1-13.3 20.5-1 2.9-2.4 2.1-6.4-3.8-6.7-9.9-12.7-15.7-18.1-17.7-2.7-.9-5.9-1.7-7-1.7-1.1 0-5.8-1.1-10.5-2.5-7-2-9.4-2.3-12.9-1.5-21.8 4.7-22 4.8-25.9 8.6-2.2 2.1-4.2 4.6-4.5 5.7-.5 1.5-1.2 1.7-4.2 1.3-2.1-.4-6.2-.2-9.4.3-4.8.8-6.3 1.7-10.2 5.6-4.3 4.2-5 4.6-8.9 4.3l-4.2-.3-.3-6.6c-.2-3.6.1-7.5.6-8.8.9-2.6-.3-13.2-2.4-21.1-.9-3-3.7-10-6.4-15.5-6.3-13.1-6.7-15.5-3.2-22.5 3.1-6.3 7.8-10 12.7-10 4.3 0 6.5 2.4 3.5 4-1.1.6-3.4 2.9-5 5.2-4.2 5.8-4.2 12.3.1 20.2 3.7 6.7 7 8.7 10.1 5.9 3.5-3.2 8.6-11.7 9.3-15.6.9-4.7 2.4-4.7 5 0 3.6 6.6 6.3 7.8 17.1 7.7 8.3-.1 9.9-.4 11.7-2.3 2-2 2.1-2.4.9-9.1-1.4-8-2.6-10.7-7.6-16.4-3.3-3.8-3.8-4-10.3-4.4-8-.5-9.7-1.6-6.6-4.1 3.8-3.2 10.4-16.9 10.1-21l-.3-3.6-5.5-.3c-8.1-.5-12.5 1.3-17.4 7.2-5.3 6.3-6.6 8.7-6.6 12.3 0 4.6-1.3 5.6-7.6 5.8-6.6.2-14.4 3.5-14.4 6.1 0 1 .5 1.4 1.5 1 .8-.3 2.2-.9 3-1.2 2.9-1.2 1.4 1.9-3 6.2-2.4 2.4-4.8 5.6-5.1 7-1.4 5.5.3 15.7 4.1 24.9 7.2 17.5 8.4 22.7 7.8 35-.6 11.2-1.3 13.5-4.2 13.5-.9 0-2.7.9-4.1 2-1.4 1.1-3.6 2-4.9 2-2 0-2.3-.3-1.7-2.8.4-1.5.9-8.1 1.2-14.7l.6-12-3.5-7.5c-2.2-4.9-4.9-8.9-7.7-11.4l-4.3-3.8-11.4.4-11.4.4 2.1-2c1.7-1.8 3.3-2.1 9.8-2.1 4.2 0 9.7.4 12.1.9l4.3.8-.7-5.3c-.3-3-1.1-6.8-1.6-8.6-1.2-3.8-1.6-25.8-.5-29 .4-1.2.3-2.4-.1-2.6-.5-.3-.5-4.8-.1-9.9 1-11.7.3-18.2-3-28.2-2-5.8-3.9-9.3-7.1-12.8-2.4-2.7-4.7-4.6-5.2-4.1-.4.4-1.2 3.6-1.8 7-1.6 10.1-7 15.6-16.3 16.9-3.5.5-4.6.2-6.2-1.4-1.6-1.8-1.7-2.5-.6-5.9 3-9 6.3-14.3 10.9-17.6 2.5-1.9 5.4-3.7 6.4-4 .9-.4 1.7-1.3 1.7-2.2 0-2.3-3.9-5.7-6.3-5.4-8 .8-18.6-6.6-22.7-15.8-2.8-6.4-2.6-7.8 1.6-9.8 3.5-1.6 5.1-1.6 12.1.2 5.1 1.3 13.2 9.7 16.4 16.8 2.4 5.3 4.3 5.4 4.7.2.2-2 .7-3.7 1.1-3.7.4 0 .8-2 .8-4.4.1-3.6.8-5 4-8.4 4.4-4.7 13.8-8.9 16-7.1 2 1.7 1.7 17.5-.5 21.5-3.1 5.7-9.3 11.5-14.6 13.9-4.8 2.1-6.6 3.9-6.6 6.6 0 .5.7.9 1.6.9 2.7 0 10.7 9.9 13.7 16.9 5.1 12.1 6.8 19.7 6.6 30.6-.1 6.6.2 10 1 10.3.7.2 1.1-1.1 1.1-3.5 0-2.2.6-5.9 1.4-8.4.7-2.4 2.2-7.2 3.1-10.7 1-3.4 2.2-6.2 2.7-6.2s1.3-1.1 1.8-2.5c1.2-3.1 3.4-3.4 2.7-.3-.9 3.6-4.7 14.7-7.2 21.3-1.9 4.7-2.5 8.6-2.8 18.2-.3 7-.1 12.3.4 12.3s.9-1.1.9-2.4c0-1.4.5-2.8 1-3.1.6-.4 1-3 .9-5.8-.3-10.6 4.2-29 10.3-41.7 1.7-3.6 3.6-7.6 4.2-9 .8-1.8 3.1-3.2 8.5-5.1 9.9-3.7 16.6-8.6 21.2-15.6 2.1-3.2 4.7-6.7 5.7-7.8 2.7-2.8 3.1-5.2 2.2-14.2-1-9.7-3.3-15-6.9-15.7-7.1-1.4-12.2-1.7-13.4-.9-.6.5-3.8 2-6.9 3.2-7.1 2.9-9 6.3-11.3 20.6-.8 5.5-1.9 12-2.4 14.4-.6 2.7-.5 5.5 0 7 1.6 4-2.3 13.1-7.7 18-2.4 2.2-4.4 4.8-4.4 5.8-.1 1-.7 2.9-1.5 4.3l-1.3 2.5-1.1-2.8c-.6-1.6-1.1-3.3-1.1-3.9 0-2.3-8.4-18.4-11.6-22.4-1.9-2.2-3.4-4.6-3.4-5.1 0-.6 1.2-1.9 2.8-2.8 3.9-2.5 14.6-13.9 16-17 2.9-6.3-.1-24.3-4.2-25.8-.6-.2-4 .4-7.5 1.4Zm49.9 7c-5.9 4.7-9.9 9.2-11 12.2-.7 1.7-1.6 4.1-2.1 5.2-.5 1.1-1.9 5.1-3.2 8.9-1.2 3.8-2.8 7.2-3.6 7.4-3.2 1 1.3-21.7 5.2-27 2.3-2.9 12.1-8.8 14.7-8.8l2.5.1-2.5 2Zm7.7 6c1.9 3.5.7 7.6-4.2 14.4-4.2 5.9-19.4 21.6-21.7 22.4-1.4.5-.4-6.6 1.6-10.6.8-1.5 2.2-5.5 3.1-8.7 1.6-5.5 7-14.3 10.8-17.4 1.8-1.5 6.7-3.1 8.2-2.8.6.2 1.6 1.3 2.2 2.7Zm5.2 11.9c-1 4.5-5.1 12.5-8.1 16.1-3.3 3.9-14.7 10.9-17.7 10.9-2.1 0-1-1.5 8.7-10.9 6.2-6 11.2-11.4 11.2-12.1 0-.6 1.2-3.2 2.6-5.7 3-5.1 4.6-4.3 3.3 1.7Zm2.1 60.4c0 3.4-5.5 13.2-10.1 18.1-6.7 7.1-6.4 8.7 2.1 9 9.6.3 15.1 3.1 19.3 9.7 3.7 5.8 6 11.5 5.1 12.9-.3.5-4.1.9-8.5.9-9.5 0-14.8-2.4-17.6-8-2.9-5.7-4.3-7.1-6.3-6-1.2.7-1.9 2.5-2.2 6.4-.4 4.5-1.2 6.5-4.7 11-2.3 3.1-4.9 5.6-5.7 5.6-2 0-5.1-7.1-5.9-13.6-.7-4.7-.5-5.3 2.1-7.8 1.6-1.5 4.5-3.6 6.5-4.6 4.6-2.4 6.1-5.7 4.7-10.6-1.4-5.3-.5-11.5 2.2-15.2 1.3-1.7 4.7-4.1 7.9-5.5 9.4-4.2 11.1-4.5 11.1-2.3Zm-30.2 23.6c.6 0 1.2.4 1.2.9 0 1-8 2.2-9.4 1.4-1.5-1 2.7-3.4 4.9-2.9 1.1.3 2.6.6 3.3.6Zm-72.8 4c4.9 3.5 8.2 11.8 9.1 22.8.5 5.3.9 10.1.9 10.7.1.5-.2 2-.5 3.2-.6 1.9.5 3.4 6.3 8.9 8.2 7.6 9.7 11 8.7 19-1.1 8.7-5 10-12.1 3.7-1.8-1.5-5-8.6-4.7-10.3 0-.3.3-3.1.7-6.3.7-6.8-.7-7.6-4.7-2.4-1.4 1.9-5 4.6-7.9 6.2l-5.4 2.8-7.5-1.4c-6.4-1.2-7.4-1.7-7.7-3.7-.4-2.8 4.2-8.8 9.8-12.7 3.7-2.6 4.5-2.7 10.5-2.2 7.1.7 9.4-.6 5.7-3.1-1.2-.8-2.2-2.2-2.2-3.2 0-.9-.9-2.5-2.1-3.6-6.5-5.8-8-16.5-3.6-25.2 1.5-2.8 3-5.2 3.3-5.2.3 0 1.9.9 3.4 2Zm385.5 123.5c4.3.9 10 2.2 12.5 2.9 5.2 1.6 23 10.4 23 11.3 0 1-5.2 6.3-6.1 6.3-.4 0-.9-1.2-1.1-2.8-.2-1.6-.9-2.7-1.8-2.7-1 0-1.4.8-1.3 2.2.4 3.3-1.4 2.8-3.9-1.2-2.2-3.3-5.6-5-4.5-2.1.3.7.9 3.4 1.2 6 1.1 7.1-1.5 5.9-5.4-2.5-3-6.5-5.3-9-6.8-7.6-.3.4.2 2.1 1 4 .9 1.8 1.9 5.3 2.3 7.8.7 4.1.6 4.3-1 3-1-.8-3.3-4.5-5.1-8.1-3.4-6.7-6-9.8-7.2-8.6-.4.4 1 4 3 8.2 4.1 8.2 4.4 9.9 2.2 10.7-1.7.7-1.9.4-6.1-8.4-1.8-3.7-3.7-7-4.3-7.3-1.5-1-1.4 2 .3 5.2.8 1.5 1.7 4.9 2.1 7.5.6 3.9.5 4.7-.8 4.7-2 0-3.2-1.9-2.9-4.7.2-1.2-1-4-2.7-6.4-1.7-2.3-3.1-4.7-3.1-5.4 0-1.8-4-6.6-5-6-.5.3.7 4.9 2.6 10.2 2 5.6 3.1 10 2.6 10.5s-2.7.3-5.3-.6c-2.4-.9-5.2-1.6-6.1-1.6-1.1 0-2-1.1-2.4-2.8-1.1-4.9-4.8-13.2-6.6-14.9-2.4-2.2-2.4-.2.1 5.2 1 2.2 2.1 5.7 2.5 7.8 1 5.1-1.9 5.1-4.2-.1-2.1-4.6-9-14.2-10.3-14.2-1.2 0-1.1 1.2.5 5.1 2.6 6.4 2.8 7.9 1.3 7.9-.9 0-3.2-2.4-5.3-5.3-4.2-5.7-5.2-6.7-7.2-6.7-1 0-.9.5.2 2.2 2 2.8 2 3.8 0 3.8-1.8 0-5.3-3.8-5.4-5.8-.1-5.8 44.7-10.5 64.5-6.7Zm-315.5 9.4c1.9.5 5.2 1.2 7.3 1.6 2 .3 3.7.9 3.7 1.4 0 .7-9.2 7-16.3 10.9-7.7 4.4-9.9 1.6-7-8.8 1.6-5.9 1.7-6 5.2-6 2 0 5.2.4 7.1.9Zm-9.7 19.4c.2.7 3.1 2.6 6.2 4.2 5 2.5 7.1 2.9 15.4 3.2 5.3.1 15.7-.5 23.1-1.4 18.1-2.2 26-2.2 29.1 0 1.3.9 4.1 2.8 6.2 4.2 2 1.4 3.7 2.9 3.7 3.4s-2 3.3-4.4 6.2c-4.8 6-15.6 23.1-15.6 24.8 0 .6-1.5 4.2-3.4 7.9-1.8 3.7-3.9 8.5-4.6 10.7-1.8 5.7-5.1 11.5-6.7 11.5-.7 0-1.3-.6-1.3-1.4 0-.7-1.8-5-4-9.4s-4-8.2-4-8.6c0-.3.9-.6 2-.6 2 0 3.8-2.5 2.7-3.7-.3-.3-2.6.3-5.1 1.3-3.9 1.6-4.6 2.4-5.5 5.9-1.3 5-6.4 12.1-10.1 14-6.1 3.2-19.1 2.7-19.8-.6-.5-2.5 4.9-10.8 9-14.2 2.4-1.9 5.2-3.1 8.2-3.4 2.4-.3 4.7-1.2 5-1.9.6-1.5-3-4.4-5.4-4.4-2.6 0-7.6-3.7-9.7-7.1-1.2-1.9-2.3-6.1-2.7-9.6-.5-5.6-.4-6.2 1.4-6.8 2.2-.7 4.6-.2 10.2 2.2 2 .8 4.5 1.2 5.5.9 1.6-.7 1.5-1-1-3.1-3.9-3.4-9.9-5.1-14.4-3.9-2.9.7-3.8 1.7-5.1 4.8-1.4 3.6-1.4 4.4.2 9 2.4 6.9 6 12.3 9.8 14.6 2.8 1.7 3 2 1.2 2.5-6 1.9-10.5 4.7-11.6 7.2-3.9 9.4-6.2 13.3-7.1 12.4-1-1-1.4-3-3.6-18.7-1.2-8.3-.1-20.5 2.1-24.9 3.6-7 4.7-18.4 2.4-24-1.3-3.1-1.2-4.5.5-4.5.4 0 .9.6 1.2 1.3Zm252.7 9.2c3.2 1.6 10.4 12 9.5 13.5-.3.5-.1 1.9.5 3.1 1.4 2.5 3.2 14.7 2.5 16-.4.5-3.3-.5-6.6-2.2-4.8-2.4-6.6-2.8-8.7-2.2-3.7 1.2-9.9 0-12.3-2.3-2-2.1-5.9-11.5-5.5-13.6.5-3.9 3.4-8.2 7-10.8 4.6-3.3 9.2-3.8 13.6-1.5Zm-134.5 151.8c0 3.9-1.9 3.8-2.3-.2-.3-2.4 0-3.2 1-2.9.7.3 1.3 1.7 1.3 3.1Zm145.6 71.7c2.5 7.2 2.5 19.4 0 27.5-1.8 5.8-2 6-5.5 6.3-2.8.2-4.2-.3-6.1-2.3-2.3-2.2-2.5-3.1-2-7.3.9-6.2 2.1-10.3 5.6-18.2 2-4.4 2.5-6.8 1.8-7.5-1.3-1.2-3 .8-7.2 9-2.6 5.2-3.1 7.1-3.1 14.3-.1 7.7-.2 8.3-2.1 8-2.4-.4-4.4-5.4-4.4-11.4-.1-5 4.3-12.2 12.1-19.7 6.4-6.2 8.3-6 10.9 1.3Zm7.6-2.5c2.4 2.9 3.1 5 4.1 12.7 1.1 9.1.8 13-1.7 19.1-1.1 2.7-5.5 5.6-6.8 4.4-.3-.4 0-3.3.7-6.4 1.4-6.6 1.4-19-.1-24.8-2.2-8.5-2.2-8.5-.6-8.5.9 0 2.8 1.6 4.4 3.5Zm-163.5 24.5c4.9 3.3 8.2 7.3 7.5 9.3-.2.7-2.1-.6-4.3-2.9-2.1-2.3-5.4-4.9-7.2-5.8-1.8-.9-3-2.1-2.7-2.6.9-1.5 1.8-1.2 6.7 2Zm11.8 27.2c0 1.8.7 6 1.5 9.3 1.9 8.1 1.9 15.9-.1 17.9-1.9 1.9-6.5 2.1-8.3.3-1-1-1.5-.9-2.5.5-1.8 2.4-3.2 2.3-6.1-.7-2-1.9-2.5-3.4-2.5-7.4 0-2.7.6-6.2 1.4-7.8.8-1.5 2.4-4.9 3.5-7.6 2.9-6.4 4.6-6 2 .5-2.3 5.7-2.7 14.5-.9 17.8 1.8 3.4 3 1.2 2.4-4.3-.7-6.3.6-11.8 4.3-17.5 3.3-5.1 5.3-5.4 5.3-1Zm9.1 8c3 5.9 3.7 15.2 1.4 17.8-1 1.1-2.2 2-2.7 2-.4 0-.8-3.7-.8-8.3 0-4.5-.4-9.9-.9-12-1.2-5 .3-4.7 3 .5Z"/>
  <path fill="#000" d="M394.58 267.38c0 .3.9 2.2 2 4.2s2.9 5.8 4 8.4c1.9 4.7 5 6.6 5 3.1 0-2-4.7-12.2-6.8-14.6-1.4-1.6-4.2-2.4-4.2-1.1Z"/>
  <path fill="#000" d="M147.98 315.58c-1.1.4-3.7 2.6-5.8 4.9-4.2 4.8-5.3 5.1-7.2 2.6-.7-1-1.5-1.5-1.9-1.1-.9.8 2.9 11.1 4.3 11.6.5.1 1.6-1.6 2.3-4 1.2-3.6 2.2-4.7 5.9-6.5 4.6-2.2 11.4-3 12.4-1.4.7 1.1-3 10-5.1 12.4-1.2 1.3-1.4 2-.5 2.9 1.7 1.7 3.9-.7 7.3-7.6 3.9-8.1 4.7-12.2 2.2-12.9-3.5-1-11.8-1.6-13.9-.9Z"/>
  <path fill="#FFF" d="M347.08 300.98c-.2.7-.5 2.6-.7 4.3-.3 2.9-.5 3-5.5 3.3-6.1.4-6.7 1.3-1.9 3 5.1 1.9 5.9 3.3 4 7.1-1.6 3.2-1.3 6.1.5 6.1 1 0 1.6-.6 5-5l2-2.5 3.5 3.4c5.5 5.3 9.3 2.5 4.1-3.1-3.1-3.4-3.1-3.5 0-6 3.3-2.6 1.8-5-2.5-4.1-2.5.5-3.1.1-4.9-3.6-2.3-4.3-2.9-4.9-3.6-2.9Z"/>
  <path fill="#000" d="M384.48 83.08c-.3 3.5.4 8.7 1.7 12.5 1.6 4.8 1.8 18.8.4 24.2-.5 1.9-1.5 5.7-2.3 8.5-.9 2.7-2.5 8.4-3.7 12.5-2.1 7.4-8.3 17.4-11.6 18.7-.8.3-1.4 1.2-1.4 2 0 1.6 1.5 1.5 7.8-.3 1.3-.4 2.2-.2 2.2.4 0 .6-1.9 1.6-4.2 2.3-2.4.6-5.4 1.5-6.8 2.1-1.4.5-4.5 1.7-7 2.5s-8.1 3.1-12.5 5.2c-10.8 5.2-36.5 13.1-42.4 13.1-2.8 0-7.2 2.2-6.8 3.4.2.5 3.8 2.3 8.1 4 6.1 2.4 8.6 4 11.1 7.1 4.4 5.6 7.5 15.2 6.4 20.2-1.4 6.8-2.6 10.8-3.7 13-2.3 4.2 3.3 4.2 8.8.1 1.5-1.1 4.8-2.3 7.3-2.5 3.7-.4 5.2-.1 7.9 1.8 5.9 4.3 12.9 7.9 15.1 7.9 5.5 0-3.5-8.2-13-11.9-4.5-1.8-6-1.9-10.5-1-8.3 1.7-8.3 1.7-8-1.1 1.2-11.6 1.2-12.6-1.6-20.5-2.2-6.6-3.2-8.3-5.7-9.5-5-2.5-10.5-6.1-10.5-6.9 0-.4 2.8-1.3 6.3-2 11-2.3 28.3-7.9 37.2-12.1 12.3-5.8 28.5-12 31.2-12 1.5 0 3.5-.4 4.3-1 .8-.5 1.9-.5 2.5 0 .5.4 2.6 1 4.4 1.2 3 .3 4.2 1.2 8.4 7.2 5.3 7.5 7.2 12.1 5.5 13.2-.6.4-1.8-.3-2.7-1.5-1.3-1.7-2.3-2-4.9-1.5-1.7.4-3.8.2-4.4-.3-4.3-3.4-13.5-2.4-21 2.1-4.8 2.9-5.5 3.7-8.4 11.1-1.9 4.7-3.4 10.2-3.5 13.4l-.3 5.3 4 1.5c9 3.5 18.3 2.2 28.3-3.9 3.2-2 3.5-2 4.6-.4.7.9 1.6 4.2 2 7.2.8 6.4 4.1 10.9 11.1 15 3.6 2.1 5.1 2.5 8.4 1.9 4.8-.8 7-2.9 11.5-11 2.3-4.2 3.4-7.7 3.7-11.8.5-5.5.3-5.9-3.9-10.8-2.4-2.8-4.3-5.4-4.3-5.9 0-.4 3.9-1 8.8-1.2 8.4-.3 8.9-.4 16.5-5.2 9.8-6.1 10.7-7.6 7.2-11.9-4.7-5.9-10-10.8-13.6-12.7-11-5.8-28.3-2-33 7.1-1.1 2.2-2.5 3.9-3.2 3.9-.8 0-2.4-2.1-3.7-4.8-1.2-2.6-3.2-5.5-4.4-6.5-3.8-3.2-18.7-9.7-22.1-9.7-2.6 0-4.1-1.5-2.5-2.5.5-.3 1-1.5 1-2.5 0-1.1.8-2.7 1.9-3.7 3.7-3.6 9.1-23.3 9.1-33.4 0-4.2-2.2-21-3.5-27.5-.5-2.4-3.4-4.1-3.6-2.1Zm65.3 90.9c3.2 3.3 5.8 6.4 5.8 6.8 0 1.3-7.2 6.3-10.9 7.6-4.2 1.5-13.5 1.8-15.9.5-.9-.5-3.6-1.2-5.9-1.6-4-.6-4.3-.5-4.9 2-.5 2.1-.2 3 1.2 3.8 2.6 1.5 8.3 7.6 10.1 11.1.8 1.5 1.7 5.2 2 8.1.5 4.5.1 5.9-2.2 10.1-3.9 6.7-5.5 8.4-7.9 8.4-2.7 0-7.5-4.4-10.9-9.8-4.5-7.1-4.5-8.4-.1-22.2 1.8-5.8 1.9-5.6-1.6-7-3.8-1.6-6-.7-6 2.3 0 1.3-1.7 4.8-3.8 7.8-5.2 7.4-11.3 10.7-21 11-7.6.4-9.9-.7-8.6-4.1.3-.8 1.7-5 3-9.3 3.5-10.6 7-14.2 14.7-15.1 6.6-.9 14.8.8 18.6 3.6 1.3 1 2.8 1.8 3.4 1.8 2 0 5.7-4.4 5.7-6.7 0-4.8 4.2-10.2 10.7-13.7 1.8-1 5.6-1.5 10.8-1.6h8l5.7 6.2Z"/>
  <path fill="#FFF" d="M166.28 167.48c-.4.3-.7 3-.7 5.8v5.3l-4.6 1.1c-5.6 1.4-5.9 4.3-.4 5.1 3.5.5 3.5.6 3.5 5.5 0 4.3.3 5 2.1 5.3 1.5.2 2.8-.8 4.7-3.8 1.5-2.2 3.1-4 3.6-4 .4 0 2.1 1.1 3.7 2.5s3.3 2.5 3.7 2.5c1.8 0 1.7-3.2-.2-6.3-1.2-1.9-2.1-3.9-2.1-4.4 0-.5 1.6-2.6 3.6-4.6 2-1.9 3.3-4 2.9-4.6-.9-1.6-4.8-1.3-7.1.4-3.2 2.4-5 1.8-6.9-2.5-1.7-3.7-4.1-5.1-5.8-3.3Z"/>
  <path fill="#FFF" d="m203.08 175.78-2.5 5-3-1.5c-3.7-1.9-5.6-1.9-6.4.1-.8 2 1.9 6.4 3.7 6.4 3.3 0 3.6 2.3 1.1 6.6l-2.5 4.3 2.1 1.1c1.8 1 2.5.7 4.8-1.9 1.4-1.7 3.1-3.1 3.6-3.1s2.3 1.7 4.1 3.7c4 4.6 6.2 3.9 4-1.5-2-4.6-1.4-5.9 3-6.8 4.1-.7 5-1.7 3.6-4.1-.7-1.3-2.2-1.8-5.3-1.8h-4.3v-4.5c-.1-8.4-2.4-9.2-6-2Z"/>
  <path fill="#FFF" d="M134.88 179.88c-.6.6-.8 2.9-.6 5.3l.5 4.3-5.3.9c-4.4.7-5.4 1.3-5.4 2.9 0 1.1.7 2.1 1.5 2.2.8.1 3.2.4 5.3.8l3.9.6-.7 5.1c-.5 3.8-.4 5.3.6 5.9 2.6 1.6 3.5.9 5.8-4.6 1.3-3 2.7-5.5 3.3-5.5.5 0 2.3.8 3.9 1.7 2.1 1.2 3.2 1.4 4 .6.8-.8.2-2.1-2.1-4.7-3.4-3.9-3.1-5.8 1.1-7.1 2.4-.8 2.5-4.1 0-5.4-1.5-.8-2.4-.5-4.5 1.4-3.6 3.3-4.3 3.2-6.3-1.2-2-4-3.3-4.9-5-3.2Z"/>
  <path fill="#000" d="M271.48 199.28c-4.6 3-9.7 6.5-11.2 7.8-2.6 2-11.7 13.8-11.7 15.1 0 .3 1.1.6 2.4.6 1.9 0 3.6-1.5 7.1-6.4 3.9-5.5 5.7-7 12.8-10.7 4.5-2.3 9.8-4.6 11.7-5 1.9-.4 5.7-1.3 8.3-1.9 2.7-.7 6.3-.9 8.1-.6 4.7.9 16.2 10.8 17.7 15.3 1.2 3.8 1.6 10.9.6 11.9-.3.3-3.4-1.4-6.9-3.8-8.3-5.7-10.2-6.4-16.9-6.6a98 98 0 0 1-6.5-.3c-3.3-.8-12.4 3.6-12.4 5.9 0 3.3 5.7 11.4 9.6 13.7 5.8 3.4 21.4 5.9 22.8 3.6.3-.5-2.4-1.4-6.1-2.1-7.7-1.3-12.9-3.7-17.1-7.9-4.3-4.4-4.7-6.8-1.2-8.6 7.9-4.1 20.5-.1 29 9.2 5.1 5.5 7 6 7 1.8 0-1.3.4-2.6.9-2.9.4-.3 1.1-2.9 1.4-5.8 1-8.6-3.1-17.6-9.9-21.9-5.7-3.5-15.2-5.9-23.4-5.9-7.7 0-7.8 0-16.1 5.5Z"/>
  <path fill="#000" d="M192.58 210.48c0 1.3 2.4 7.6 3.8 10 .7 1.2 1.5 4.2 1.8 6.6 1.2 8.9 4.4 8.9 4.4 0 0-5.4-2.1-11-5.9-15.6-1.4-1.7-4.1-2.4-4.1-1Z"/>
  <path fill="#000" d="M206.38 215.38c-.3.3-.2 2 .3 3.9 1.2 4.3 1.6 22.2.6 25.7-.6 2.4-.4 2.8 1.2 2.8 1.9 0 2.9-2.1 4.4-8.9.8-3.2-1.7-19.2-3.4-21.9-1.4-2.3-2.1-2.6-3.1-1.6Z"/>
  <path fill="#FFF" d="M246.58 228.88c0 4.1-1.9 6.2-5.2 5.5-2.7-.5-2.9-.4-2.6 2.1.2 1.9 1 2.9 2.7 3.3 3.4.8 3.5 2 .6 5.9-3.2 4.5-2.3 5.6 2.2 2.6 4.4-3.1 4.5-3.1 8.1 0 1.7 1.4 3.3 2.5 3.6 2.5 1.1 0 .6-3.1-1-6.2s-1.6-3.3.6-5c1.2-1 3.4-2.1 4.9-2.5 2.8-.6 4.3-2.2 3.5-3.5-.3-.4-2.7-.8-5.4-.8-4.3 0-5.1-.4-7-3-2.5-3.5-5-3.9-5-.9Z"/>
  <path fill="#000" d="M125.58 230.68c-3.4.6-3.4.7-1.3 1.9 4 2.2 12.3 1.3 12.3-1.4 0-1.5-4.5-1.7-11-.5Z"/>
  <path fill="#FFF" d="M339.28 247.18c.6 6.1.7 6-5.9 7.1-4.5.7-4.9 2-1 3 1.5.3 3.7 1.3 5 2.1 2 1.3 2.2 2 1.6 6.4-.8 6.3.4 6.4 4.7.5 3.4-4.7 5.8-5.6 7.9-3 .7.8 1.6 1.5 2.1 1.5 1.5 0 1-2-1.3-5.3-2.1-2.9-2.1-3.1-.5-5.9 2.5-4.3 2.2-4.9-2.4-4.6-3.9.3-4.2.1-5.2-3.2-.8-2.4-1.9-3.6-3.4-3.8-2.1-.3-2.1 0-1.6 5.2Z"/>
  <path fill="#000" d="M301.28 245.48c-6.5 6.9-9 21.1-4.6 26.7 1.2 1.5 3 2.6 4.4 2.6 6.4 0 17.6-7.7 21.2-14.5 1.4-2.5 4.2-11.7 4.3-13.5 0-1-5.9-4-6.3-3.3-.9 1.5-1 5.8-.2 8.6 1.6 5.9-4.4 13.2-13.4 16.2-6.9 2.3-8.5 1.6-7.6-3.3.3-2 .8-5.3.9-7.2.4-5.9 1.6-9.7 3.7-11.6 2-1.8 2.5-3.4 1.1-3.4-.5 0-2 1.2-3.5 2.7Z"/>
  <path fill="#000" d="M111.08 246.88c-6.7.7-9.5 1.6-9.5 3.1 0 .6 1 .7 2.8.2 3-1 21.9-1.2 32.1-.4 7 .5 9.3-.9 4.4-2.8-2.9-1.1-19.3-1.2-29.8-.1Z"/>
  <path fill="#FFF" d="M262.08 252.98c-.2.7-.6 2.9-.7 4.8-.3 3.3-.5 3.5-4.5 4.1-2.4.3-4.6.8-4.9 1.2-1.3 1.2.6 3.7 3.3 4.3 3.8.9 5.5 3.1 4.2 5.6-1.4 2.6.7 5.4 2.7 3.7.8-.6 1.4-2 1.4-3 0-2.7 1.6-3.2 4.9-1.4 6 3.1 7.9 1.1 3.9-4l-2.1-2.7 2.4-1.9c1.3-1 3.2-2.1 4.2-2.5 2-.7 2.3-3.4.3-3.4-.8 0-2.6.4-4 1-3.5 1.3-5.2.4-6.3-3.3-.9-3.3-3.9-4.9-4.8-2.5Z"/>
  <path fill="#FFF" d="M471.68 253.18c-.9 1.1-.7 2.2 1 5 2.5 4.3 1.4 6.6-3.2 6.6-3.1 0-4.7 1.6-3.1 3.2.6.6 3.1 1.3 5.6 1.5l4.6.6-.6 4.7c-1.1 8.4 3.1 7.7 5.5-.9 1.2-4 1.4-4.3 3.9-3.6 9.1 2.2 9.9 1.7 6-3.6-2-2.6-2.1-3.4-1.1-7.2 1.6-5.7.3-6.6-4.6-3.4-4.2 2.8-6.1 3.3-6.1 1.8 0-1-5-6.1-6-6.1-.4 0-1.3.6-1.9 1.4Z"/>
  <path fill="#000" d="M55.28 258.08c-3.8 1.7-9.7 9.4-9.7 12.7 0 1.5-.7 4.4-1.5 6.3-1.8 4.2-1.9 5.7-.5 5.7.6 0 1-.6 1-1.3 0-.6 1.1-3.5 2.4-6.2 2.7-5.9 11.5-12.6 16.8-12.8 3.2-.2 3.2-.2 2.9 4.2-.7 10.1-4.1 17.9-11 25.1-1.3 1.3-1.2 1.5.2 1.8 2.6.5 10.5-8.5 12.8-14.7 1.5-4.1 1.9-7.3 1.7-13.5l-.3-8.1-6-.2c-3.3-.2-7.3.3-8.8 1Z"/>
  <path fill="#000" d="M147.98 259.58c.3.5 4.3 1.3 8.8 1.7 8.2.7 14.2 2.8 16.7 5.9 1.3 1.5 1.1 5.6-.4 10.3-.6 1.9-.4 2.3 1.4 2.3 2.3 0 4.6-3.6 5.6-9.3.6-3.3.4-4-2.4-6.6-3.3-3.1-5.4-3.5-22-4.7-5.5-.4-8.1-.3-7.7.4Z"/>
  <path fill="#FFF" d="M278.68 276.58c-.6 1.2-.6 3.3 0 6.2 1.2 5.1.3 6.5-3.5 5-2.1-.8-2.8-.7-3.2.5-.9 2.2.3 3.3 4.7 4.5 3.2.9 3.9 1.5 3.8 3.3-.6 6.6 1.2 7.6 3.8 2.2 1.6-3.4 4.5-4.6 5.8-2.5.3.5 1.5 1 2.6 1 2.8 0 2.4-3-.7-5.5l-2.7-2.2 3.2-2.2c5.4-3.8 3.1-7.1-2.4-3.5-3.4 2.2-5 1.3-6.7-3.7-1.6-4.8-3.2-5.9-4.7-3.1Z"/>
  <path fill="#FFF" d="M296.38 300.98c-.3 5.3-.3 5.3-3.5 5-4.8-.5-5.1 1.7-.4 3.5l4.2 1.6-.7 4.4c-.7 4.9.5 5.6 3.1 1.7 1.5-2.4 2.1-2.6 6.1-2 2.4.3 4.4.3 4.4 0s-1.3-1.7-3-3.1c-4.4-3.6-3.9-5.1 2.1-5.9 4.4-.6 5-.9 4.7-2.8-.3-1.9-.8-2.1-6.1-1.8-5.6.3-5.8.3-6.8-2.7-1.7-5-3.8-3.9-4.1 2.1Z"/>
  <path fill="#FFF" d="M385.38 306.48c-.3 4.6-.3 4.6-4.8 5.7-5.4 1.3-7 4.6-2.2 4.6 4.2 0 5.6 2.1 4.9 7.5-.8 5.7.6 6.6 3 1.8 1.6-3.3 2.2-3.8 5.1-3.7 2 .1 3.9 1 5.1 2.5 1.5 1.8 2.2 2.1 3.1 1.3.9-.9.5-2.2-1.4-5.3-1.4-2.2-2.6-4.5-2.6-5 0-.6 1.6-1.8 3.5-2.7 4.4-2.1 4-4-.6-3.5-6.6.8-7.3.6-7.7-1.4-.8-5.5-1.3-6.5-3.2-6.5-1.5 0-1.9.8-2.2 4.7Z"/>
  <path fill="#FFF" d="M421.28 310.38c-.3.4.3 2.4 1.4 4.6 2.3 4.6 2 5.3-3.7 7.3-3.9 1.3-5.3 3.8-2.4 4.2 9.1 1.2 8.9 1 9.2 6 .2 2.6.8 4.8 1.5 5 .6.2 2.1-1.6 3.4-4.1 1.7-3.5 2.8-4.6 4.6-4.6 2.6 0 2.9-1.1 1.1-3.9-.9-1.5-.7-2.5 1.2-5.5 1.2-2 2-4 1.6-4.3-.3-.3-2.2.2-4.2 1.3l-3.5 1.9-3.7-4.3c-3.5-4-5.1-4.9-6.5-3.6Z"/>
  <path fill="#FFF" d="M463.08 315.78c-.3.5-.3 1.5 0 2 1.3 2.2-1.4 3.9-4.7 2.9-1.7-.4-3.5-.6-3.9-.3-1.8 1.1-.8 4.1 1.6 5.4 2.9 1.6 3.1 2.7.9 5.8-.8 1.2-1.4 3.2-1.2 4.4.3 2.1.4 2.1 3.9-1 4.4-3.9 5.5-3.9 8.9-.7 2.2 2.1 2.9 2.3 3.8 1.2.9-1 .8-2.2-.1-4.6-1.1-3.1-1-3.4 2.2-6 4.1-3.3 3.4-5.1-1.8-5.1-3.1 0-4-.5-4.9-2.5-1.2-2.5-3.6-3.3-4.7-1.5Z"/>
  <path fill="#FFF" d="M310.28 318.48c-.4.3-.7 2.3-.7 4.4 0 4.7-.7 5.1-5.4 3.7-2.5-.8-4-.8-4.7-.1-.7.7.5 2 4.1 4.2l5.1 3.2-2.1 3.4c-1.9 3.1-2 5.5-.2 5.5.4 0 1.7-1.6 3-3.5 1.2-1.9 2.6-3.5 3.1-3.5.4 0 2.5 1.1 4.6 2.5 2 1.5 4 2.3 4.3 2 .3-.3-.2-2.2-1.2-4.2-1.7-3.5-1.7-3.8 0-5 1-.7 2.6-1.3 3.6-1.3 1.1 0 1.8-.7 1.8-2.1 0-1.8-.5-2-4.7-1.7-4.6.3-4.9.1-6.5-3.1-2-4.1-3.2-5.4-4.1-4.4Z"/>
  <path fill="#FFF" d="M333.28 337.48c-.4.3-.7 2.8-.7 5.4 0 5.5-.4 5.8-6.8 6.8-6.5.9-6.1 3 1.1 5.3l5.7 2v4.9c0 2.7.3 4.9.6 4.9.4 0 2.3-1.6 4.2-3.7l3.6-3.6 5.1 2.6c7.3 3.9 8 3.5 5-2.3-3.1-6.1-3.1-7.1 0-10 2.9-2.7 3.1-4.2 1-6-1.3-1.1-2.1-.9-4.5.8-1.6 1.2-3.4 2.2-4 2.2-.5 0-2.6-2.3-4.6-5-3.6-5-4.4-5.6-5.7-4.3Z"/>
  <path fill="#000" d="M22.38 357.28c-4.2 2.2-4.8 3-6.2 7.9-1.6 5.5-1.5 14 .2 20.1 1.6 5.7 25.8 16 31.6 13.4 3.7-1.7 6.8-.4 10 4.3 1.6 2.4 4.7 6.6 6.8 9.4 2.1 2.8 5.7 9.3 7.9 14.5 2.2 5.2 4.4 9.8 4.9 10.4.8 1.1 1.9 6.8 2.4 12.5.2 2.6.8 3.6 2.3 3.8 1.8.3 2-.3 2.2-5.3.1-4.4-.4-6.5-2.1-9.3-1.2-2-4.7-8.6-7.6-14.7-3-6-6.1-11.8-7-12.8-3.3-3.8.3-1.4 4.3 2.9 5.1 5.3 7.1 4.2 2.2-1.3-1.8-2.1-4.1-5.1-5.1-6.6-1-1.6-4-4.3-6.8-6-4.4-2.8-4.9-3.4-4.3-5.6 1.5-5.2.8-9.7-2.2-16.1-1.7-3.6-3.9-7.2-4.8-8-.9-.7-2.7-3.5-4-6-2.9-5.6-3.6-6.3-10.2-8.3-6.8-2.2-8.9-2.1-14.5.8Zm16.8 2.4c2.5 1.5 9.4 11.5 9.4 13.6 0 1.4-2.5.1-6.3-3.3-4.7-4.2-8.9-6.6-12.9-7.6-3.4-.8-3.7-3.3-.5-3.9 4.7-.9 7.3-.6 10.3 1.2Zm-5.7 7.6c7.4 3.7 19.1 18.7 19.1 24.4 0 2.4-.6 2.5-4 .6-1.4-.8-3.5-1.4-4.6-1.5-3.2 0-10.1-4.3-16.7-10.2-5-4.5-5.9-5.9-6.4-9.7-.4-3.1-.2-4.6.8-5.2 2.5-1.5 6.8-1 11.8 1.6Zm-10.9 13c.5 1.4 4.6 4.6 10.4 8.2 5.3 3.2 9.6 6.1 9.6 6.5 0 1.8-4.4.6-10.7-2.8-10-5.4-12-7-12.7-10.5-1-5.3 1.5-6.4 3.4-1.4Zm31 1.8c0 .5-.7.4-1.5-.3s-1.5-2-1.5-2.9c.1-1.3.3-1.3 1.5.3.8 1.1 1.5 2.4 1.5 2.9Z"/>
  <path fill="#FFF" d="M386.58 357.28c0 .8.5 2.5 1.1 3.8 1.5 3.4-.2 6.2-4.6 7.7-1.9.6-3.5 1.8-3.5 2.6 0 1.5 1.1 1.7 7.3 1.4l3.7-.2v4.6c0 5 1.5 6.1 3 2.1 1.1-2.9 4.4-3.3 7.8-.9 4 2.8 4.3.4.6-4.2-2-2.4-3.5-4.6-3.3-4.7.2-.1 2.1-1.1 4.2-2.1 2.3-1.2 3.7-2.6 3.7-3.8 0-2.6-2.4-3.2-5.4-1.3-2.9 1.9-4.2 1.4-8.1-3.3-2.8-3.3-6.5-4.3-6.5-1.7Z"/>
  <path fill="#FFF" d="M412.28 359.48c-1 .9-.9 4.3.1 4.3.7 0 4.2 6.2 4.2 7.5 0 .2-1.6 1.3-3.5 2.5s-3.5 2.9-3.5 3.7c0 1.3.9 1.4 4.9.9 5.5-.7 6.7.1 7.3 4.9.2 1.8.9 3 1.8 3 1.2 0 1.4-1.1 1.2-4.9l-.4-4.9 3.4.6c1.8.3 4.4.9 5.8 1.3 2.2.5 2 .1-1.5-2.9-3.9-3.5-4-3.6-2.6-6.9 3.4-8.4 2.1-12.1-2.3-6.3-1.5 1.9-3.4 3.5-4.1 3.5-.8 0-3.2-1.6-5.4-3.5-4.1-3.7-4.4-3.9-5.4-2.8Z"/>
  <path fill="#FFF" d="M498.08 385.98c-.2.7-.5 2.6-.7 4.3-.3 2.9-.4 3-5.8 3-6.5 0-7.5 2.1-2.2 4.4 3.4 1.6 4.1 3.8 2 7.1-1.7 2.7.1 4.6 3 3.1 3-1.6 5.4-1.3 8.2.9 2.5 1.9 6 2.7 6 1.2-.1-.4-.7-1.8-1.5-3.2-2.4-4.3-1.8-5.7 3.5-8.1 2.8-1.2 5-2.8 5-3.5 0-2.2-3.1-3.3-6.1-2.2-4.7 1.6-6.3.7-6.9-3.7-.5-4-3.5-6.2-4.5-3.3Z"/>
  <path fill="#000" d="M391.38 398.28c-.4.4-.3 1.5.2 2.4 3.2 5.9 7 17.1 7 20.8 0 1.5.6 2.3 1.6 2.3 1.2 0 1.5-.6 1-2.3-.4-1.2-.9-3.6-1.2-5.2-2-10.3-6.7-19.9-8.6-18Z"/>
  <path fill="#FFF" d="M520.08 402.98c-.2.7-.6 2.9-.7 4.8-.3 3.4-.4 3.5-4.4 3.2-3-.2-4.3.1-4.7 1.3-.5 1.1.4 2 3.4 3.2 3.8 1.5 4 1.8 3.5 4.9-.8 4.1 1.1 5.5 3.5 2.6 2-2.6 3.6-2.7 6.3-.7 2.1 1.6 5.6 2 5.6.7 0-.4-.9-1.8-2-3.2-2.7-3.4-2.5-4.4 1-5.7 2.9-1.1 6-5.7 4.7-6.9-.4-.4-2.7.1-5.2 1.1-5.3 2-7 1.2-8-3.6-.7-3-2.2-3.9-3-1.7Z"/>
  <path fill="#000" d="M221.88 416.48c-2.9 1.4-5.3 3.2-5.3 4 0 1 .5 1.3 1.8.8.9-.4 4.7-1.2 8.3-1.8 6.6-1 6.6-1 14.5 3 4.3 2.3 9.3 4.9 11.1 5.9 3.5 2 5.4 1.4 3.3-1.1-.7-.9-4-3.2-7.4-5.1-3.4-2-7.6-4.6-9.5-6-4.4-3.1-10-3.1-16.8.3Z"/>
  <path fill="#FFF" d="M550.88 425.98c-.4.7-1.2 2.2-1.8 3.2-1.9 3.7-4.2 4.2-7.4 1.8-5.3-3.9-6.8-2-3.1 4 2.7 4.4 2.5 5.4-1.1 9.5-3.8 4.4-2.7 6.4 2.4 4.5 4.8-1.7 5.3-1.6 7.7 2.3 1.2 1.9 2.6 3.5 3 3.5.5 0 1-1.9 1.2-4.3l.3-4.2h5c4.4 0 5-.3 5.3-2.2.3-1.8-.4-2.4-3.5-3.2-6.8-1.9-7.1-2.4-4.3-7.6 1.9-3.5 2.2-4.9 1.4-6.3-1.4-2.2-4-2.7-5.1-1Z"/>
  <path fill="#000" d="M49.08 442.38c-4.1 1.1-6 2.4-10.7 7.6-3.2 3.4-5.8 6.6-5.8 7 0 2.2 5 .4 8.6-3 2.1-2.2 5.3-4.4 7-4.9 3.5-1.2 15.7-.2 18.9 1.5 1.1.5 3.2 1.5 4.8 2.1 1.7.7 2.7 1.8 2.7 3.1 0 1.1 1.1 4.3 2.5 7s3.2 7.3 4 10.2c4.9 18.1 6.9 22.5 13.4 30.8 2 2.4 4.1 5.2 4.6 6.1.6 1 2.2 3.8 3.7 6.3 3.1 5.3 5.2 11.5 6.9 20.9 1 5.4 1 8 0 13-2.7 13.7-4.6 15.6-8.3 8.7-2.3-4.3-10.7-11.9-13-12-1 0-2.2-.8-2.7-1.8s-6.1-4.2-12.4-7.2c-8.1-3.8-12-6.2-13.1-8.1-2.1-3.6-2-5.9.2-5.9 1 0 2.8-.7 4.1-1.6 1.9-1.4 2.5-1.4 3.1-.3.7 1 1.1 1 2.5-.1 5.5-4.6 8-18.9 5-29-.9-3-2-6.9-2.4-8.6-.8-3.1-6.6-9.3-8.6-9.4-1.8 0-11.2 10.3-13.3 14.5-1.1 2.2-2.3 5.5-2.7 7.2-.3 1.8-1 3.3-1.5 3.3-.4 0-3.5-2.7-6.9-5.9-3.8-3.8-7.4-6.4-9.8-7-5-1.4-29-1.4-29.8-.1-1.1 1.8 9.7 19.3 14.3 23.2 3 2.5 10.8 5.5 11.8 4.5 1.1-1-.5-2.5-5.1-4.8-2.5-1.3-5.2-3-6.1-3.8-1.8-1.9-8.4-13-8.4-14.2 0-1.2 6.8-2.9 11.5-2.9 5.7 0 13.7 2.4 17.4 5.1 3.7 2.7 9.1 10.4 9.1 13 0 1.6 3.3 3.2 4.4 2.1.3-.3.6-2.9.6-5.9 0-4 .8-6.8 2.9-11.1 3.2-6.1 10-12.5 12.8-12 2.5.5 7.4 13.9 7.6 20.2.1 9.4-7.3 20.4-13.8 20.6-1.6 0-4.1.7-5.5 1.4-2.3 1.3-2.5 1.9-2.6 10.6l-.2 9.1-3.9 3.4c-2.1 1.9-4.2 3.4-4.8 3.5-.5 0-3.5 1.3-6.5 2.9-5.7 3-17.2 5.2-18.3 3.5-.3-.5.1-5.4.9-10.9 1.4-9.8 3-15.5 4.3-15.5.4 0 1.5-1.4 2.4-3 1-1.7 2.6-3 3.5-3 .9 0 3.5-.7 5.7-1.5s5.5-1.4 7.3-1.5c2.6 0 3.3-.4 3-1.8-.6-2.9-11.2-1.9-16.3 1.6-5.2 3.5-5.6 4-8.5 8.7-1.3 2.2-2.8 4.3-3.3 4.6-.5.3-1.1 3.5-1.3 7-.3 3.5-.9 8.8-1.4 11.8-.6 3-1 5.8-1 6.3 0 .4 3 .8 6.8.8 6.8 0 14-1.5 20.2-4.3 1.9-.8 5-2.1 6.8-2.8 4.4-1.6 7.2-7.1 7.2-14.3 0-3 .4-5.7.9-6 .5-.3 3.5 1.2 6.7 3.3 3.3 2.1 9.8 6.4 14.6 9.5 4.9 3.2 9.9 7.2 11.2 8.9 2.3 3.2 5.6 12.7 5.6 16.5 0 2 4 15.5 9.1 30.7 1.7 4.9 5.1 13.3 7.6 18.5 2.5 5.2 5.4 13.2 6.4 17.7 3.5 16 .6 43.3-5.1 46.8-.5.3-1 1.2-1 2s-2 5.6-4.4 10.7c-2.4 5.2-5.6 12.3-7 15.9-1.5 3.5-3.2 7.3-3.7 8.5-1.6 3.2-1.4 23.5.4 37.9 2.2 17.7 2.2 22.6-.3 25.8-1.1 1.4-2 2.9-2 3.4 0 2.1-8.1 8.3-14 10.8-5.8 2.5-6.8 2.6-21 2.2-8.2-.3-15.9-.2-17.2 0-1.3.2-5.1 3-8.4 6.1-4.9 4.6-6.4 6.8-7.9 11.3-1.4 4.8-1.5 6.5-.6 10.5 2.3 10.1 3.7 14 5.8 17.1 2.7 3.7 2.8 5.4.7 9.4-2.1 4.2-6.9 6-14.5 5.4l-6.2-.5 1.9 2.1c1 1.2 3.7 3 5.9 4.1 3.2 1.7 5 1.9 10.6 1.4 8.5-.8 9-1 11.4-4.8 1.1-1.8 2.6-4.1 3.3-5.3 1-1.5 1.2-5.3.8-15.5-.3-7.4-.2-14.6 0-16 .3-1.4 2-3.5 3.7-4.7 3-2 3.8-2.1 15.2-1.2 6.6.5 13.9.6 16.3.3 3.4-.5 4.2-.3 4.2.9 0 .9-.9 1.8-1.9 2.2-1.2.3-2.1 1.8-2.4 3.8-.8 5.3 1 5.6 5.2.7 2.2-2.5 7.6-8.3 12.1-13 7.4-7.6 13.8-17.5 12.4-18.9-.3-.3-1 .3-1.6 1.3-3.2 5.7-12.1 13.3-17.8 15.1-1.3.4-3 1.3-3.7 2.1-1.5 1.4-11.8 3.8-13.1 3-.5-.3-6.3-.8-12.9-1.1-19.5-1-22.3 1.5-20.2 17.7.6 4.3.9 11.7.8 16.4-.4 7.7-.6 8.7-2.9 10.4-5.2 4-8.1 1.6-3.5-2.9 2-1.9 2.5-3.3 2.5-7.5 0-2.8-.7-6.3-1.5-7.9-2.2-4.3-6.6-23.2-5.9-25.3 1.2-3.4 5.7-7.4 11.3-10 4.5-2.2 7.3-2.7 15.5-3 13.8-.5 19-1.2 26.6-3.5 7.7-2.4 13.6-6.2 16.8-10.9 2.6-3.8 2.6-2.4.6-41.5-1-18.8 1.8-30.2 13.2-53 2.7-5.6 5.5-13.5 7.3-20.7 1.6-6.4 3.3-12.2 3.7-13 1-1.6.6-12.8-.7-18.8-.6-2.5-1.2-5.8-1.4-7.3-.8-6.4-1.9-9.5-5.1-14.7-1.8-3-4.6-8.7-6.2-12.5-7.9-18.5-9.5-23.4-10.2-30.5-1.3-11.8-2.5-15.7-6.9-21.5-4.5-6-4.7-6.5-2.7-6.5 1.7 0 8.5 8.7 12.4 16 1.6 3 3.5 5.5 4.3 5.5.9 0 2-2.6 3.2-7.5.9-4.1 2.6-10.2 3.6-13.5 2.8-8.9 1.8-15.4-4.6-28.5-2.8-5.8-6.5-13.5-8.2-17.2-1.8-3.7-4.8-9-6.7-11.8-3.4-5-7.4-15.3-7.4-19.1 0-1-1.9-5.8-4.1-10.6-2.3-4.9-4.3-9.7-4.4-10.7-.1-1-1-2.5-2.1-3.2-1-.7-3.1-2.5-4.5-4-4.2-4.2-13-5.3-22.4-2.8Z"/>
  <path fill="#000" d="M644.18 515.28c-2.8 4.2-.3 9.5 4.4 9.5 3.7 0 5.3-2.2 4.5-6-1.3-6.1-6-7.9-8.9-3.5Zm4.4 4.1c0 1.7-2.2 1.4-2.8-.4-.2-.7.3-1.2 1.2-1.2.9 0 1.6.7 1.6 1.6Z"/>
  <path fill="#000" d="M674.58 529.78c.6 1.1 1.5 2 1.9 2 .5 0 2.8 2.9 5.2 6.5 2.4 3.6 5.1 6.7 5.9 7 2.4.8 7.6 7.6 8.9 11.7.7 2.1 1.9 3.8 2.7 3.8.8 0 1.4-.4 1.4-.9 0-2.4-5.9-11.2-10.5-15.6-2.9-2.8-5.9-6.5-6.8-8.2-1.7-3.1-7.1-8.3-8.8-8.3-.6 0-.5.8.1 2Z"/>
  <path fill="#000" d="M667.18 531.58c-.3.5 1 2.4 2.9 4.2 1.8 1.8 3.9 4.6 4.6 6.1.6 1.6 1.8 2.9 2.5 2.9 2.1 0 1.7-1.3-1.8-6.6-3.5-5-7.2-8.1-8.2-6.6Z"/>
  <path fill="#FFF" d="M575.08 534.88c-.3.8-.1 2.8.5 4.3 1.8 4.8 1.4 5.6-3.1 5.6-3.6 0-4 .2-3.7 2.2.2 1.7 1.3 2.5 4 3.2 3.6.9 3.7 1.1 4 6 .3 4.4.6 5.1 2.6 5.4 1.8.3 2.2-.1 2.2-2.5 0-1.6.6-3.8 1.4-4.9 1.4-1.9 1.5-1.9 4.5.4 3.9 2.8 6.8 2.8 7.7 0 .7-2.2.6-2.3-5.8-7-2.4-1.7-2.4-1.5 1.3-7.5 1.9-3.2.3-4-3.1-1.5-4 3-5 2.8-8.7-1.5-2.5-3-3.3-3.5-3.8-2.2Z"/>
  <path fill="#000" d="M659.58 536.88c0 .6 1.1 2 2.4 3 3.9 3.1 5.9 11.9 2.8 11.9-.5 0-2.6-2.7-4.7-6s-4.2-6-4.6-6c-1.4 0-1.1 1 2 6 1.6 2.6 3.1 5.5 3.3 6.6.2 1 1 2 1.9 2.2 2.1.4 7.9-4.5 7.9-6.7 0-2.9-6.9-12.1-9-12.1-1.1 0-2 .5-2 1.1Z"/>
  <path fill="#000" d="M691.58 538.18c0 .8.4 1.7.9 2 1.6 1 8.9 12.2 10.5 16 .8 2 2 3.6 2.6 3.6 2.1 0 2.2-3 .1-5.6-1.2-1.5-2.1-3.1-2.1-3.7 0-1.5-8-11.7-10.2-12.8-1.4-.7-1.8-.6-1.8.5Z"/>
  <path fill="#FFF" d="M625.58 544.98c0 1.3.7 3.2 1.5 4.2 2.1 2.8 2 3.1-3 6-6.1 3.6-5.9 5.4.7 5.8l5.3.3.7 4.4c.4 2.4 1 4.7 1.4 5 1 1 3.1-2.8 3.8-6.9.7-4.2 2-4.9 5.8-2.9 3.3 1.8 4.5-.6 1.3-2.7-2.3-1.5-2.6-2.2-2-5.1.8-4.4 0-5.5-3-4.1-3.1 1.4-6.8-.3-8.4-3.8-1.4-3.1-4.1-3.2-4.1-.2Z"/>
  <path fill="#000" d="M555.68 546.68c-.8 1.4-3.4 4.7-5.9 7.3-3 3.3-4.2 5.2-3.5 5.9.5.5 1.7.7 2.6.3 2.3-.8 8.9-12 8.5-14.2-.3-1.4-.6-1.3-1.7.7Z"/>
  <path fill="#000" d="M681.08 545.68c-.3.6 1.2 2.9 3.4 5.1 2.2 2.3 4.6 5.7 5.3 7.6.6 1.9 1.8 3.4 2.5 3.4 1.9 0 1.6-1.9-1.5-8-2.7-5.4-8.4-10.2-9.7-8.1Z"/>
  <path fill="#000" d="M448.28 548.88c-4.7.7-12.7 5.2-12.7 7 0 1.3 1.4 1.1 6.6-1.1 6.4-2.8 22.4-3.2 27.1-.7 1.7.9 6.2 5.1 10 9.2 5.3 5.9 7.3 7.5 9.5 7.5 1.6 0 2.8-.5 2.8-1.1 0-1.9-6.2-8.7-10.4-11.6-11.4-7.6-23-10.9-32.9-9.2Z"/>
  <path fill="#FFF" d="M595.88 564.78c-1.8 3.2-3.5 3.6-7.7 2-3.2-1.2-3.4.3-.8 5 1.7 3.1 1.7 3.1-1 5.1-5.1 3.8-2.6 7.4 3 4.5 3-1.6 3.1-1.5 5.2 1.9 2.7 4.4 5 4.6 5 .5 0-2.5.6-3.2 3.6-4.5 4.1-1.7 4.1-3.8-.2-4.5-3.5-.6-4.1-2.8-2-7.9.8-2.2 1.2-4.1.9-4.5-1.5-1.5-4.3-.4-6 2.4Z"/>
  <path fill="#000" d="M720.58 567.58c0 1.9 12.7 11.8 13.8 10.7.8-.9-10.8-11.5-12.5-11.5-.7 0-1.3.4-1.3.8Z"/>
  <path fill="#000" d="M687.08 573.18c-1.6 1.2-1.2 1.4 4.1 1.9 3.2.2 8.2.4 10.9.3 7.9-.4 15.1 1.7 27.8 7.9 9.2 4.5 12.1 5.5 13 4.6 1.7-1.8-3.9-6.2-6.8-5.5-1.3.3-2.7-.1-3.4-1-.8-.9-1.9-1.6-2.5-1.6-.6 0-3.9-1.3-7.3-2.9-3.4-1.7-7-3-8-2.9-1 0-6.3-.5-11.8-1.1-13-1.4-13.8-1.4-16 .3Z"/>
  <path fill="#000" d="M483.88 574.48c-10.2 3.7-12.3 4.3-18.3 5.2-9.3 1.5-16.5 1.4-17.9-.3-1.9-2.3-6.8-3.7-7.9-2.3-2.6 3.2-2.4 5.8.8 9.4 1.8 2 4.7 6.8 6.6 10.7 2.9 6.3 3.2 7.6 2.4 11.1-.5 2.2-1 5.4-1 7.1 0 4.9-5.8 15.2-12.6 22.3l-6.2 6.6-3.2-3c-7.9-7.4-12.2-18.5-11.9-30.4.2-9.7 2-14.1 8.6-21.5 5.4-6 6.7-9.6 3.6-9.6s-8 4.3-11.9 10.4c-5.7 9-6.4 11.1-6.4 19.7 0 9.9 1.5 16.9 4.5 21.1 1.3 1.8 3.8 5.9 5.6 9.1 3.4 6 7.4 9.7 10.6 9.7 2.9 0 15.6-13.7 19.8-21.5 3-5.4 4-8.4 4.2-13 .8-12.2.6-12.9-4.1-22.3-2.5-5-4.6-9.6-4.6-10.2 0-.6 1.5-.3 3.3.7 2.5 1.4 5.5 1.8 13.7 1.8 9.4 0 11-.3 15.5-2.6 2.8-1.4 6.4-2.9 8-3.3 3.5-.8 7.5-3.3 7.5-4.5 0-1.6-4.8-1.8-8.7-.4Z"/>
  <path fill="#FFF" d="M622.78 578.78c-2.6 3.4-6 3.9-10.6 1.5-5.3-2.8-6.5 1.7-1.6 5.9l3.1 2.5-2.3 4c-2.7 4.7-2.1 5.8 2.1 3.7 4.8-2.5 6.5-2 8.5 2.4 2.3 5.2 3.9 5.1 3.4-.2l-.3-4.2h4c5.3-.1 5.8-2.6 1-5.4-4-2.4-4.1-2.9-2-7.8.8-2 1.2-4 .9-4.5-1.1-1.8-4.1-.8-6.2 2.1Z"/>
  <path fill="#000" d="M680.28 577.48c-2.2 2.2 0 8.4 6.2 16.8 2 2.7 4.4 6.5 5.4 8.4 1 1.9 2.4 4 3 4.6.7.7 4.8 5.8 9.2 11.4 4.4 5.5 8.6 10.1 9.3 10.1 1.8 0-1-5.2-5.7-10.4-5.3-5.9-14.9-18.7-20-26.7-3.3-5.2-4.3-7.7-4.3-10.9.1-3.8-1.3-5.2-3.1-3.3Z"/>
  <path fill="#FFF" d="M706.98 579.18c-.9 2.3-3.3 2.7-7.1 1.1-1.9-.8-4.2-1.5-4.9-1.5-2.4 0-1.5 2.8 1.6 5 3.6 2.6 3.8 3.8.7 4.9-3.1 1.2-5.1 3.7-4.3 5.7.6 1.6 2.5 1.5 7-.2 1.3-.5 2.2.6 3.8 4.5 1.5 3.4 2.8 5.1 4 5.1 1.5 0 1.8-.9 1.8-5v-5h4c2.9 0 4.3-.5 4.7-1.7.4-.9.2-1.8-.5-2.1-.6-.2-2.2-1.2-3.6-2.3-2.1-1.6-2.3-2.4-1.6-4.9.7-2.5.5-3.2-1-4-2.6-1.4-4-1.3-4.6.4Z"/>
  <path fill="#FFF" d="M640.58 587.18c0 .2.7 2 1.5 3.9 2.3 5.6 1.9 6.6-3.1 8.8-2.6 1.1-4.4 2.3-4 2.6.4.4 2.8 1 5.4 1.3 4.2.5 4.7.8 5.3 3.6.3 1.8.9 4 1.3 5 .7 1.8.8 1.8 2.2 0 .8-1.1 1.4-3.2 1.4-4.8 0-3.1 1.2-3.4 5-1.3 3.8 2.1 5.8-.1 2.5-2.7-2.5-2-3.4-6.1-1.5-7.3 1.2-.8 1.3-2.5 0-4.5-.7-1.2-1.3-1.1-3.4 1l-2.6 2.3-2.5-2.3c-1.3-1.3-2.7-3.1-3.1-4.2-.4-1.5-4.4-2.8-4.4-1.4Z"/>
  <path fill="#FFF" d="M739.88 593.48c.3 1.6.9 3.6 1.2 4.5.5 1.2-.4 2.4-3.4 4.2-2.3 1.5-4.1 3.3-4.1 4.1 0 1.9 1.1 1.9 5.7 0 1.9-.8 3.7-1.5 4-1.5.2 0 .3 2.8.1 6.1-.4 8.1 1.5 9 4.3 2 2.3-5.3 4.6-6.9 7.8-5.2 4.9 2.7 5.6-.2 1.1-3.9-3.1-2.5-3.1-2.5-1.5-6.3 1.4-3.4 1.4-3.8 0-4.3-.9-.4-2.6.3-4 1.6-3 2.8-6.7 2.1-8.3-1.5-1.6-3.4-3.6-3.3-2.9.2Z"/>
  <path fill="#000" d="M721.98 592.88c-.3.5 1 1.6 3 2.4 4.3 1.8 5.9 1.9 5.4.3-.6-1.6-7.6-3.9-8.4-2.7Z"/>
  <path fill="#000" d="M718.58 599.68c0 1.1 2.8 2.5 7.5 3.7 1.8.4 2.5.2 2.5-.9 0-.8-1.2-1.7-2.7-2-1.6-.3-3.8-.8-5-1.2-1.5-.5-2.3-.3-2.3.4Z"/>
  <path fill="#000" d="M706.58 607.28c0 1.3 3.1 6.5 3.8 6.5.4 0 4.3 4.3 8.6 9.6 5.3 6.5 8.1 9.3 8.8 8.6 1.1-1.1-1.2-4.3-10.4-14.8-5.1-5.8-5.5-6.4-3.5-6.4 1.6.1 25.7 23.3 25.7 24.9 0 .6 1.1 1.1 2.5 1.1 4.7 0 3.1-2.2-9.4-13.1-4.6-4-7.9-7.5-7.2-7.7 2.7-.9 6.8 1.2 11.7 6.1 5.9 6 12.1 10.7 14.1 10.7 2.6 0 1.2-1.8-4.7-6.1-6.2-4.5-6.9-5.4-4.7-6.3.7-.3-.5-2.1-3.4-4.8-4-3.8-5.7-4.6-14.1-6.6-9-2.1-17.8-2.9-17.8-1.7Z"/>
  <path fill="#FFF" d="M755.58 621.78c0 .5 1.1 3 2.5 5.5l2.6 4.5-2.3.9c-1.3.5-3.1 1.2-4 1.5-1 .3-1.8 1-1.8 1.5 0 1.5 2.9 2.1 5.6 1.1 1.4-.6 3.5-1 4.6-1 1.9 0 2 .4 1.5 5.9-.6 6.7-.3 7.5 2.4 6 1.4-.7 1.9-2.1 1.9-4.8 0-5 1.6-6.4 6-5.1 4.9 1.4 5.6-.2 1.5-3.8-3.7-3.4-3.8-3.6-3.5-9.5.2-4.2-.8-4.7-3.6-1.6-3.7 4.1-5.2 4.3-8 .9-2.5-2.9-5.4-4-5.4-2Z"/>
  <path fill="#FFF" d="M802.28 630.38c-1.7 3.4-2 3.6-5.3 3-5.3-1-6 .2-2.3 4l3.3 3.4-2.3 2.4c-2.5 2.6-1.5 4.2 1.9 3.1 2.8-.9 5.8.3 6.5 2.6.9 2.8 2.1 2.3 3.1-1.4.9-2.9 1.4-3.2 5.7-3.7 2.6-.3 4.9-1 5-1.5.1-.6-2.1-2.1-5-3.4-5.1-2.3-5.2-2.5-5.5-7-.4-5.9-2.7-6.6-5.1-1.5Z"/>
  <path fill="#000" d="M632.58 631.78c0 .6.7 1.3 1.5 1.6.8.4 1.5 1.1 1.5 1.8s-2.6 1.1-7.7 1.1c-7.5 0-7.8.1-9.1 2.8-1 2.1-1.1 3.2-.3 4.1 1.2 1.5 16.8 4.3 17.8 3.2 1.2-1.2-.6-1.9-6.4-2.5-4.3-.4-5.9-1-6.1-2.3-.6-3.1 3.2-4 9.7-2.3 3.2.8 6.6 1.5 7.5 1.5 2.9 0 1.7-2.7-2.8-6.4-4.7-3.8-5.6-4.2-5.6-2.6Z"/>
  <path fill="#000" d="M703.58 638.38c0 .3 1.1 2.1 2.5 4.1 1.3 2 2.2 4 1.9 4.5-.7 1-3.4-.4-5.8-3.1-3.3-3.7-4.3-2.6-5.2 5.6-.8 7.1-1.1 7.7-3.5 8.4-1.5.4-6.4-.1-11.4-1.2-8.9-1.9-10.8-1.7-13.5 1.6-.8.9-1.5 3.5-1.6 5.7-.1 2.2-1 4.8-1.9 5.7-1.5 1.5-1.8 1.4-3.9-1.2-2.5-3.2-4.6-3.5-4.6-.8 0 2.4 3.8 6.7 6.6 7.5 2.1.6 4.3-1 8.3-5.9l2.1-2.8 2.5 2.9c1.4 1.6 2.5 3.2 2.5 3.5 0 .4-1.9.9-4.2 1.3-5.6.9-6.8 2.1-6.8 6.6 0 3.5.2 3.8 3.3 4.3 1.7.2 5.8.5 9 .6 4.5.2 5.7-.1 5.7-1.3 0-2-4-3-8.6-2.2-3.4.7-3.5.6-3.2-2.1.3-2.7.5-2.8 6.6-3.1 5.3-.3 6.2-.6 6.2-2.2 0-1.1-1.5-2.7-4-4.1-4.5-2.6-5.5-5.9-1.7-5.9 1.3 0 3.2.7 4.3 1.5 2.1 1.6 4.4 2 4.4.7 0-.5-1.1-1.5-2.5-2.2-1.4-.7-2.5-2-2.5-2.8 0-1.2.9-1.3 4.6-.8 2.6.3 7 .6 9.8.6 4.8.1 5.5.4 11.1 5.5 6.5 6.1 8.7 6.6 15.5 3.9 5.9-2.4 5.1-3.7-1.9-2.9-5.2.6-6.3.4-10-1.9-2.2-1.5-4.1-3-4.1-3.4 0-.5-2-2.3-4.5-4.2-4.9-3.7-5.7-6.3-2.4-8.1 1.7-.9 3.1-.5 7.9 2 3.2 1.7 6.5 3.1 7.4 3.1.8 0 2 .9 2.6 2 .6 1.1 3.5 3.4 6.5 5.1 3 1.7 5.5 3.5 5.5 4 0 1.2 2.7 1.1 3.5-.1 1-1.5-1.1-3.7-4.3-4.5-3.5-.8-10.9-8.7-11.7-12.5-.6-2.6-1-2.9-4.3-2.7-3.3.2-3.9-.2-6.7-4.5-1.6-2.6-3.6-4.8-4.2-4.8-.7 0-1.3.2-1.3.6Zm-23 21.1c0 1.2-6.7 6.3-7.4 5.6-.8-.8-.8-4.8.1-5.6.9-1 7.3-.9 7.3 0Z"/>
  <path fill="#000" d="M714.58 640.18c0 2.7 1.5 4.2 2.5 2.6.8-1.3-.3-5-1.6-5-.5 0-.9 1.1-.9 2.4Z"/>
  <path fill="#000" d="M781.28 639.08c-.2.7 1 3.2 2.7 5.7 4.1 5.7 4.7 7.5 3.3 8.9-2 2-4.2 1.2-8.1-2.8l-3.8-3.9-3.9 3.9c-2.1 2.1-3.9 4.2-3.9 4.7 0 .4 4.2 3.3 9.3 6.5 5.2 3.2 11.8 8.3 14.8 11.4 3 3 7 7.2 9.1 9.3 2 2.1 4.3 5.2 5.2 6.9 1.9 3.6 9 9.1 11.9 9.1 1.7 0 1.8-.5 1.3-3.5-.9-4.8.5-4.5 7.2 1.6 8 7.3 10.1 8.6 11.3 6.8 1-1.4.7-4.3-.7-8.8-.7-2.3-.5-2.4 2.4-1.8 1.8.4 5.3 1.6 7.8 2.8 4.6 2.1 4.7 2.1 6.6.1 1.8-1.8 1.9-2.1.3-5.7-1.9-4.7-1.4-6.5 1.8-6.5 2.7 0 11.6-2.8 13.5-4.3 1.8-1.4-.2-3.4-4.2-4.1-5.6-1.1-25-10.1-32.7-15.2-4-2.7-8.1-6.4-9.2-8.2-2.3-3.9-4.5-5.2-8.9-5.2l-3.3.1 3.3 1.4c1.7.8 3.2 2.1 3.2 2.9 0 3 14.1 13.3 27.4 20 10.3 5.3 12.1 6.5 10.7 7.9-2.3 2.3-19.5-6-29.6-14.4-7.5-6.2-14.5-10.9-16.2-10.9-2.8 0-1 2.1 6 6.7 7 4.7 11.3 7.8 23.9 17.5 3.4 2.7 6.5 4.8 6.9 4.8.9 0 4.9 7.3 4.9 9 0 4.7-22.8-11.5-38.6-27.5-5.8-5.9-11.1-10.2-14.5-11.9-3.4-1.7-7.1-4.7-9.9-8-4.9-5.9-6.6-7.1-7.3-5.3Zm3.1 17.9c11.7 5.6 23 17.1 27.2 27.8 1.1 2.8 2 5.5 2 6 0 2.1-1.9.8-4.6-3.3-4.4-6.5-18.1-20.4-26.2-26.4-4-3-7-5.8-6.7-6.4.8-1.3.9-1.3 8.3 2.3Zm11.6-1.7c1.1.8 2.7 1.5 3.5 1.5.9 0 4 2.8 7 6.3 2.9 3.4 9.7 10.9 15 16.6 12.9 13.9 16 19 10.3 17-2.6-.9-18-16.4-26.8-27-2.2-2.6-6.3-6.8-9.2-9.4-4.8-4.3-5.8-6.5-2.9-6.5.7 0 2.1.7 3.1 1.5Z"/>
  <path fill="#FFF" d="M644.58 640.88c0 .6 1.6 2.9 3.6 5.1 3.9 4.4 3.6 5.6-1.6 7.8-1.7.7-3 1.6-3 2 0 1.6 1.4 1.7 5 .3 5-2 6.3-1.4 8 3.6 1.1 3.3 1.8 4.1 3.8 4.1 2.1 0 2.3-.3 1.8-2.3-.4-1.2-1-4.1-1.3-6.5l-.6-4.2h4.3c5.2 0 5-2.1-.3-3.4-2-.5-3.7-1.4-3.7-2 0-.6-.4-1.8-1-2.6-.7-1.2-1.3-1.2-3.3-.1-2.1 1.1-2.8 1-5.8-.8-3.8-2.3-5.9-2.7-5.9-1Z"/>
  <path fill="#000" d="M742.58 653.88c0 2.2.8 6.9 1.7 10.4 1.3 4.8 1.4 6.7.5 7.7-.6.8-5.2 2-10.2 2.7-5 .8-9.3 1.8-9.6 2.2-.7 1.2 7 5.8 14.4 8.7 3.7 1.4 7 3.4 7.9 4.8.8 1.3 2.3 2.4 3.3 2.4 2.4 0 3.7 1.8 5 7.3 1.5 5.8 3.5 6.4 2.6.7-.3-2.2-.2-4 .3-4 1.4 0 5.1 6.9 5.1 9.6 0 3.8 1.8 2.8 2.2-1.3.6-7.5 4.2-3.2 5 6.1.2 1.6.9 3.1 1.6 3.4.8.2 1.2-1.1 1.2-4.7 0-3.9.4-5.1 1.6-5.1 2.1 0 4.5 6.2 4.2 11-.4 5.5 1.6 5.5 2.2 0 .4-3.2 1-4.6 2.2-4.8 2.2-.4 3.3 5 2.4 12.4-.5 4.2-.3 5.4.8 5.4.8 0 1.5-1.6 1.9-4.1.7-5.1 2.1-6.8 4.5-5.3 2 1.3 1.9 4.7-.5 11.6-.9 2.6-1.4 5-1 5.4 1.1 1.2 3.7-.5 3.7-2.5 0-1 .9-2.9 1.9-4.2 1.7-2.1 2-2.2 2.6-.8.3.9 0 4.2-.8 7.3-1.7 6.2-.4 7.6 1.9 2.1 1.9-4.5 4.4-4.7 4.4-.3-.1 1.8-.7 4.4-1.5 5.8-.8 1.4-1.4 3.4-1.4 4.5 0 1.7.5 1.4 2.9-1.5l2.9-3.5.1 3.3c0 1.8-.7 4.9-1.5 6.9-2 4.7-1.3 5.3 1.6 1.4 1.3-1.7 2.6-3.1 3.1-3.1 1.5 0 .8 4.3-1.3 8.7-2.3 4.8-1.9 6.5.9 4 4.5-4.1 5.8 0 1.5 4.5-2.2 2.3-2.4 3.1-1.4 4.1 1 .9 1.5.8 2.6-.7.8-1 1.6-2.3 1.8-2.9.5-1.6 2.7.2 2.7 2.3 0 1-1.1 3.2-2.5 4.8-2.8 3.3-3.2 5.2-1.1 5.2 2.2 0 6.7-6.7 7.2-10.7.6-4.9-2.4-11.2-5.3-11.3-2.1 0-2.2-.4-1.7-4.3.5-3.5.1-4.9-2-8-1.4-2.1-3.5-6.6-4.7-10-3.1-9.4-4.4-11.7-10-17.7-2.8-3-6.2-6.8-7.5-8.3-1.3-1.6-4.6-3.9-7.2-5.2-2.6-1.3-5.4-3-6.1-3.9-.7-.9-1.9-1.6-2.6-1.6-1.1 0-4.5-2.3-11.5-8-1.4-1.1-3.6-2.3-5-2.7-2.4-.6-14-6.4-18.7-9.4-2.7-1.6-3-2.9-.6-2.9 2 0 10.3-4.8 10.3-6 0-.5 2.7-3.7 6-7.2s7.1-7.5 8.5-9c1.5-1.6 2.4-3.2 2.1-3.7-1-1.5-4.6-2-4.6-.7 0 1.7-6.8 10.6-8 10.6-.5 0-.9-1.9-.8-4.3.1-6.2-.1-7.7-1.2-7.7-.5 0-1 1.8-1 3.9 0 4.9-.8 7.1-2.6 7.1-1.3 0-3.4-5.7-3.4-9.3 0-.9-.4-1.7-1-1.7-.5 0-1 1.8-1 4.1Z"/>
  <path fill="#FFF" d="M693.98 670.08c-.2.7.3 3 1.1 5.1 1.8 4.3 1.9 4.2-2.6 6.4-5.1 2.6-4.6 3.7 1.7 3.3 5-.3 5.6-.1 5 1.4-.3.9-.9 2.8-1.2 4.2-.6 2.2-.4 2.4 2.2 2.1 2.3-.2 3.1-1 3.9-3.6.5-1.7 1.3-3.2 1.7-3.2.5 0 2.6 1.1 4.8 2.5 4.5 2.9 6.3 1.7 2.5-1.7-1.4-1.3-3.5-3.1-4.6-4.1-2.3-2.1-2.1-3.8.7-5.2 4.6-2.4 4.8-2.7 2.9-4.1-1.5-1.1-2.2-1-4.7.8l-3 2-3.7-3.6c-3.9-3.8-5.8-4.5-6.7-2.3Z"/>
  <path fill="#000" d="M154.38 680.98c-1.2 1.4-2.9 4.5-3.6 6.9-.7 2.4-4 9.9-7.3 16.6-6.5 13.2-9.3 24.1-7.9 31.1.8 3.8 5.4 14 8.1 17.9.9 1.3 3.6 3.8 6.2 5.8 4.4 3.4 12.6 13.2 17.5 21.1 2.2 3.5 2.3 4.7 2.5 23.5.2 19.7.2 19.9 2.7 22.3 2.2 2.2 25.4 14.6 27.2 14.6 2.1 0 10.6 7.1 15.9 13.2l6 6.9-.7 5.2c-.3 2.9-1.6 7.9-2.9 11.2-2.4 6.5-2.4 12.5.1 14.6 2 1.6 5.7-1.7 5-4.4-.3-1.1.3-3.8 1.2-6.1 1.1-2.7 1.7-7.1 1.7-12.6 0-8.4 0-8.6-4.7-16-4-6.3-9.8-12-12.4-12-.3 0-1.7-.9-3.1-2-1.4-1.1-4.4-2.5-6.7-3.1-7.5-2-18.3-7.8-20.8-11.2-4.1-5.5-4.5-7.7-4.3-20.7.2-12.5-1.3-23.9-3.8-28.6-.7-1.3-4.6-6.1-8.7-10.6-10.2-11.2-14.6-16.7-18.5-23.2-3.2-5.4-3.3-5.7-2.4-12.3.9-7.5 3.9-16.4 6.7-20.3 1.7-2.3 7.5-14.1 10.1-20.3 1.3-3.3 1.4-6.7.2-8.6-.7-1.1-1.4-.9-3.3 1.1Z"/>
  <path fill="#000" d="M717.58 686.08c0 .9 2 2.2 5.1 3.3 5.5 2 6.8 3.6 4.9 5.8-1 1.3-1.8 1.1-5.7-1-4.9-2.5-7.7-3.1-7.1-1.3.2.5 2.9 2.1 6.1 3.4 4.8 1.9 6.3 2.1 9.2 1.2 4-1.2 4.3-2.8 1.6-7.3-1.4-2.3-2.9-3.3-5.8-3.8-2.1-.4-4.8-1-6-1.3-1.6-.4-2.3-.1-2.3 1Z"/>
  <path fill="#000" d="M748.58 698.38c0 1.7 2.2 1.4 2.8-.4.2-.7-.3-1.2-1.2-1.2-.9 0-1.6.7-1.6 1.6Z"/>
  <path fill="#FFF" d="M798.18 697.58c-.3.5.6 2 1.9 3.2 3.3 3.1 3.2 5.8-.2 6.6-1.6.3-3.7.9-4.8 1.4-2.1.8-2.3.7 4 2.6 2.5.8 3 1.5 3.2 4.2.3 6.7 2.3 8.1 4.3 3.2 2-4.8 3.5-5.6 7.4-3.5 2.9 1.6 3.7 1.7 5 .6 2.4-2 1.9-3.6-1.6-5.2-2.7-1.1-3.2-1.9-2.9-3.9.8-5.7.6-6.5-1.6-6.8-1.7-.3-2.6.3-3.3 2.2-1.1 2.9-2.5 3.3-3.7 1.2-1.4-2.4-7.1-6.7-7.7-5.8Z"/>
  <path fill="#FFF" d="M820.88 723.48c-1.3 2.7-2.5 3.7-3.8 3.6-1.1-.1-3.1-.3-4.5-.5-3.6-.4-3.6 2.3 0 4.7 3.3 2.2 3.7 3.7 1.6 5.4-1.8 1.5-2.6 4.5-1.6 6.2.7 1 1.4.9 3.5-.5 3.4-2.2 6.7-1.7 8 1.2 1.6 3.5 3 2 3.3-3.6l.3-5.1 4.6-1.3c2.6-.7 4.8-1.8 5-2.5.4-1.1-5.4-3.5-9.2-3.7-1.5-.1-2.1-1-2.5-3.5-.7-4.8-2.6-4.9-4.7-.4Z"/>
  <path fill="#FFF" d="M826.98 752.18c.7 4.2.6 4.4-2.4 5.4-4.7 1.7-3.6 4.8 2 5.4 3.2.3 3.5.5 3.2 3.2-.5 4.3.5 6.1 2.3 4.6.8-.7 1.5-2 1.5-3s.7-2.4 1.6-3.1c1.4-1.1 2.1-1 4.6.4 5.3 3.1 6.5.1 1.8-4.8l-2.9-3 1.9-4.3c2.2-4.9.8-5.7-3-1.7-3.1 3.3-5.1 3.1-7.2-.5-2.6-4.5-4.2-3.9-3.4 1.4Z"/>
  <path fill="#000" d="M135.58 764.38c0 .5.7 3.1 1.5 5.8 2.4 7.8 3.1 30.8 1.2 38.6-1.9 7.7-2.8 21.5-1.6 24.4.4 1.2 1.1 4.2 1.4 6.8.5 3.9 2.1 6.7 9 16 4.6 6.2 9.2 12.1 10.1 13 2.2 2.3 2.9 9.4 1.2 14.2-1 3-3 5.3-8.3 9.3-7.6 5.8-10.2 9.8-4.6 6.9 1.6-.9 4.1-1.6 5.4-1.6 3.2 0 9.2-6.6 12.5-13.8 2.3-5.1 2.4-6 1.3-10-.8-2.9-2.9-6.4-6.2-10-11.1-12.1-17.4-22.3-19.4-31-.8-3.9 1-16.7 3.5-25 1.1-3.6 2-9.3 2-12.8 0-4.6.4-6.4 1.3-6.4.7 0 1.3.9 1.4 1.9.1 1.1.9 4 1.7 6.6.9 2.6 2.1 8.6 2.6 13.3 1.4 12.4 2.5 16.5 5.2 18.2 1.3.8 4.3 3.3 6.8 5.5 6.3 5.7 12.2 10 14 10.1 3.7.4 22.8 10 26.3 13.2 3.7 3.6 3.7 3.7 3.6 11.2 0 4.1-.4 9.7-.9 12.5-.7 4.2-.5 5.6 1.4 9 1.4 2.7 2.9 4.1 4.6 4.3 2 .3 2.2.2 1.1-1.1-1.2-1.5-1.3-4.4-.8-24.2.2-6.7 0-7.3-3.6-12.2-2.7-3.7-5.3-5.9-9.2-7.8-3-1.4-5.8-2.5-6.3-2.5-1.6 0-11.4-4.8-18.2-8.9-7.3-4.4-13.5-9.5-15.7-12.8-1.9-2.8-3.8-11.4-5.3-23.6-1.6-13.3-1.9-14.2-9.5-25.6-6.5-9.7-9.5-13.3-9.5-11.5Z"/>
  <path fill="#000" d="M123.18 768.68c-.4.6-.4 2.5-.1 4.3 1.2 6.7 1.1 11-.5 17.1-.8 3.4-1.8 6.6-2.1 7.2-.4.5-.9 2.7-1.3 4.8-.4 2-2.7 6.6-5.1 10.2-2.5 3.6-4.5 7-4.5 7.5 0 .6-.4 1-1 1-1.9 0-20.2 18.5-21.6 21.9-2.5 6-1.4 21.1 1.5 21.1.5 0 .9-3.4.9-7.6 0-5.4.4-8 1.5-9.2.9-1 2.9-3.8 4.6-6.2 1.7-2.5 5.5-7.2 8.5-10.5 2.9-3.3 6.7-7.5 8.3-9.4 4.2-4.8 5.8-3.8 6.7 4 1 10.3 4.5 19.7 10 27.4 2.8 3.8 5.8 7.6 6.7 8.2 3.4 2.6 10.9 13.5 10.9 16 0 2.8-5 12.2-7.6 14.4-1.9 1.5-4.9 7.3-5.8 11.3-.8 3.1 1.7 8 3.6 7.4.6-.2 1.3-3 1.4-6.1.4-6.3 1.7-8.9 8.1-15.6 5.3-5.5 5.8-7 4.3-13.2-1-4-2.6-6.4-9.4-13.5-4.4-4.7-8.9-10-10-11.8-1-1.7-2.7-4.4-3.8-5.9-1.8-2.7-3.6-9.2-6-22.2-1-5.5-.9-6.6 1.7-14.5 2.6-7.8 2.8-9.6 2.7-22.3-.1-13.1-1-18.4-2.6-15.8Z"/>
  <path fill="#000" d="M113.08 770.78c-.3.5-.4 1.4 0 1.9.3.6-.3 3.6-1.4 6.8-2.1 6.2-3.6 14.3-2.7 14.3 1.3 0 3.8-6.6 4.6-11.9.5-3.1 1.2-7.1 1.6-8.9.6-3.1-.7-4.5-2.1-2.2Z"/>
  <path fill="#FFF" d="M835.98 774.18c-.3.8-.1 2.3.5 3.4 1.5 2.7.4 5.1-2.5 5.7-1.3.3-3.6.7-5 1-1.7.4-2.4 1.1-2.2 2.3.2 1.2 1.6 1.8 5.3 2.2 4.8.5 5 .6 5.3 3.7.4 4.2 2 4.2 5.4.1 2.4-2.9 2.9-3.2 4.7-2.1 5 3.1 7.4.6 3.7-3.8-3-3.5-3-3.9-1.4-7.4 1.5-3.4.8-3.8-3.5-2-3.6 1.5-3.7 1.5-5.9-1.5-2.4-3.3-3.6-3.7-4.4-1.6Z"/>
  <path fill="#000" d="M822.28 777.48c-.4.3-.7 1.4-.7 2.4s-1.2 3.1-2.6 4.8c-2.6 3.1-2.7 6.5-.1 5.5 1.4-.5 5.7-9.8 5.7-12.2 0-1.3-1.3-1.6-2.3-.5Z"/>
  <path fill="#000" d="M820.88 794.78c-2.4 2.7-4.3 5.1-4.3 5.4 0 1.2 2.4.6 4.2-1.1 1-.9 2.1-1.3 2.4-1 1.2 1.1-1.8 7.1-4.7 9.7-2.1 1.8-2.6 2.9-1.9 4 .8 1.2 1.4 1 3.9-1.4 1.7-1.6 3.3-2.7 3.6-2.4 1.3 1.3-1 7.1-3.4 8.6-3.5 2.1-7.1 5.4-7.1 6.4 0 1.4 2.7.9 4-.7.7-.9 2.8-2.2 4.6-3.1 3.7-1.8 4.3-2.9 5.4-10.4.8-5.6-.2-16.7-1.7-18-.4-.5-2.7 1.4-5 4Z"/>
  <path fill="#FFF" d="M834.18 799.68c-.3.4 0 2.2.7 4 1.1 3 1 3.3-2.1 5.7-1.7 1.4-3.2 2.9-3.2 3.4 0 .4 1.6 1.1 3.5 1.4 4.4.9 5 1.9 3.1 5.8-.9 1.7-1.6 3.5-1.6 4 0 1.9 3 .6 5.9-2.7 3.4-3.9 4.3-4.2 6.1-2 1.3 1.6 5.5 2 6.4.6.3-.4-.6-2.3-1.9-4.1-2.7-3.7-3.2-7.5-1.3-11.5 1.7-3.7 0-4.4-2.8-1.2-2.5 2.9-4.5 2.7-7.4-.8-1.9-2.2-4.8-3.7-5.4-2.6Z"/>
  <path fill="#000" d="M821.48 822.98c-.7 1.8-1.4 3.6-1.7 4-.2.5.5.8 1.6.8 1.8 0 3.2-3.2 3.2-7.1 0-2.1-1.9-.6-3.1 2.3Z"/>
  <path fill="#FFF" d="M831.58 829.38c0 1.9-.8 2.8-3.5 4-3.9 1.6-4.4 2.8-1.7 4.3 1.1.7 1.7 2.2 1.7 4.8 0 4.5 2.8 5.8 5.1 2.4 1.9-2.7 2.3-2.6 5.8.4 1.6 1.4 3.3 2.5 3.8 2.5 1.9 0 1.9-3.1-.1-5.9-2.8-4-2.6-5.8 1-9.2 1.7-1.6 2.8-3.3 2.4-3.9-.8-1.4-2.1-1.3-3.7.3-.7.8-2.4 1.9-3.6 2.6-2 1.1-2.4.9-4-1.8-2.1-3.8-3.2-3.9-3.2-.5Z"/>
  <path fill="#000" d="M814.08 829.78c-1 1.1-1.6 2.3-1.2 2.6.9.9 4.7-1.6 4.7-3.1 0-2.1-1.4-1.9-3.5.5Z"/>
  <path fill="#000" d="M76.58 835.88c-2.7 4.9-3.2 14-1.4 24.6 1.8 10.2 1.8 10.3 7 15.6 6 6.2 9.4 12.3 9.4 17 0 2.9-.6 3.9-4 6.1-4.7 3.1-5 4.3-1.4 5.6 2.9 1.1 9.7-.2 11.4-2.3 8.1-9.9 8-9.7 7.9-15.6-.2-5-.6-6-4-9.6-2.1-2.2-4.7-5.1-5.8-6.5-3.2-3.9-2.6-.4 1.3 7.6 4.6 9.3 5.1 11.6 3.2 15.3-2.2 4.2-4.7 4.1-4.5-.2.2-3.6-5.8-16.2-9.2-19.3-2.2-2-8.3-14.2-9.3-18.6-.6-2.5.6-13.8 2-19.4.8-3-1.1-3.2-2.6-.3Z"/>
  <path fill="#FFF" d="M826.18 852.18c-.9 4.5-2.7 5.9-6.7 5.1-2.6-.6-3-.4-2.7 1.2.2 1 1.3 2.2 2.6 2.8 2.7 1.2 2.7 2.2.2 6-1.1 1.6-2 3.3-2 3.7 0 1.5 3.5.8 6.5-1.2 3.8-2.5 5.7-2.5 8 0s3.9 1.5 3.1-2.1c-.6-3.2 2.2-5.9 6.2-5.9 1.7 0 2.3-.5 2-1.8-.2-1.3-1.6-1.8-6.3-2.2l-6-.5-.3-3.5c-.3-3.1-1.5-4.9-3.3-5-.4 0-1 1.5-1.3 3.4Z"/>
  <path fill="#FFF" d="M831.28 878.48c-.4.3-.7 2-.7 3.6 0 2.8-.2 2.9-3.5 2.4-4.8-.8-4.7 1.8.1 3.8 2.8 1.1 3.5 1.9 2.9 3.2-.3 1-.9 3.1-1.2 4.7-.8 3.7 1.4 3.2 3.7-1 1.9-3.3 5-4.2 7.3-2 1.8 1.8 6.7 3.2 6.7 1.8 0-.5-.9-2.1-2-3.5-2.8-3.6-2.5-5.2 1.6-7.6 6.3-3.7 2.3-6.7-4.7-3.5-3.9 1.7-4 1.7-6.2-.4-2.5-2.4-3-2.6-4-1.5Z"/>
  <path fill="#FFF" d="M856.28 896.68c-4 3.5-4.4 3.6-8.3 1.7-3.7-2-4.5-1.2-3 2.7 1.9 4.5 1.1 5.7-3.5 5.7-3.2 0-3.9.3-3.9 2 0 1.9 1.1 2.4 6.5 3.2 1.1.2 2.2 1.4 2.5 2.7.8 3.6 2.9 3.7 4.1.2 1.4-3.8 3.7-4 7.8-.5 1.7 1.4 3.8 2.3 4.6 2 1.9-.7 1.9-2 0-3.6-2.4-2-3.7-8.3-2.6-13.2.6-2.4.6-4.7.2-5.1-.5-.5-2.4.5-4.4 2.2Z"/>
  <path fill="#FFF" d="M868.98 914.78c-.6 4.9-.8 5-3.9 5-7.3 0-8.6 2.6-2.9 5.9 3.3 2 3.6 2.5 3 5.5-.8 4.4 0 4.8 4.1 2l3.5-2.3 3.2 2.4c4.4 3.4 6 3.3 5.1-.3-1.3-5-1.1-5.7 3.2-7.7 4.1-1.9 5.7-4.4 3.1-4.6-.7-.1-3.4-.1-6 .1-4.3.2-4.9-.1-5.8-2.5-.5-1.4-1-4-1-5.6 0-2.4-.4-2.9-2.5-2.9-2.2 0-2.5.5-3.1 5Z"/>
</svg>