<svg xmlns="http://www.w3.org/2000/svg" viewBox="0 0 530 781" width="80%">
  <path fill="#FFF" d="M276.8 3.7c-.6 1.6-1.4 4.9-1.7 7.5l-.6 4.6-3.9-1.3c-11.4-4-15.6-.9-5.5 4 3.5 1.6 6.8 2.9 7.6 2.7.7-.2 1.3 0 1.3.3 0 .9-3.1 5.7-5.2 8.1-1.7 1.9-1.7 2.2-.3 3.4 1.3 1.1 2 .9 4.3-1.1 1.5-1.3 3.2-3 3.9-3.7 1.7-2 4.5-.7 7.2 3.3 2.4 3.6 4.6 4.5 5.4 2.2.5-1.3-2-6.8-3.6-7.8-1.7-1.2.3-2.9 6.9-5.9 6.7-3 7.4-3.9 5-6.3-1.1-1-3.2-1.3-7.6-1.1-3.4.2-6.5.6-7 .9-1.2.8-2-2.1-2-7.6 0-5.7-2.3-6.8-4.2-2.2Z"/>
  <path fill="#000" d="M151 5c-7.1 1.3-11.9 5.2-19.3 15.8-2 2.8-3.7 5.8-3.7 6.6 0 3.2-5.3 15.5-8.7 20.3-2.1 2.9-4.5 6.6-5.4 8.2-4.1 7.5-8.4 13.2-14.6 19.2-3.7 3.6-9.9 9.5-13.6 13.1-7.4 7.1-8 10.2-.7 3.6 2.5-2.2 7.7-6.7 11.6-9.9 3.9-3.3 9-8.2 11.4-11 2.6-3.1 4.8-4.8 5.7-4.5.8.3 1.2.2.8-.3-.5-.9 4.1-11.1 5.5-12.1.7-.5 3-4.3 6.3-10.5.9-1.7 3.3-7.5 5.2-13.1 4.1-11.4 8.9-17.7 14.7-18.9 1.8-.4 3.6-1.2 4-1.8.4-.8 1-.8 2 0 .7.6 3.1 1.4 5.3 1.8 8.4 1.5 11 2.8 15 7.9 7.5 9.4 8.4 12.3 8.1 24.9-.4 12.8-1.4 15.8-6.5 18.9-2 1.2-4 2.8-4.6 3.4-.5.7-3.4 2.4-6.3 3.9-8.7 4.5-8.2 5.6 1.1 2.7 8.1-2.6 16.8-8.2 16.1-10.5-.3-1.1 0-1.7 1-1.7 1.2 0 1.6-1.2 1.7-5 .1-2.8.2-5.3.3-5.8 1.3-5.5 1.4-9 .7-16-.7-6.7-1.3-8.7-3.2-10.6-1.3-1.3-3.9-4.2-5.7-6.5-3.9-4.8-13.4-11.4-17.7-12.1-1.6-.3-4.6-.3-6.5 0Z"/>
  <path fill="#FFF" d="M161.6 28.1c-2.7 3.2-5.2 3.3-7.6.4-1.4-1.7-5-2-5-.6 0 1.1 5.4 5.1 6.9 5.1.6 0 1.5.9 2.1 2 .9 1.6.7 2.1-.7 2.7-2.3.8-5.3 3.3-5.3 4.5 0 .5.9.4 2.1-.2 3-1.7 3.9-.9 5.8 4.5 2.5 7.5 4.4 7.2 3.6-.5-.8-7-1.4-6.5 6.3-4.4 3.8 1.1 2.6-2-1.9-4.5-3.3-1.9-4-2.7-3.5-4.5 2.4-8.3 1.6-9.7-2.8-4.5Z"/>
  <path fill="#FFF" d="M210.1 33.7c.4 7.7.4 7.8-2.1 8.1-9.9 1-11 1.3-11 3.3 0 1.6.8 1.9 4.8 2.1 2.6 0 5.8 0 7.1-.1 1.9-.2 2.2.1 1.7 1.5-1.3 3.5-1.9 13.4-.8 13.4 1.4 0 2.3-1.5 4.2-6.9 1.6-4.6 4.5-7.4 5.8-5.6 1.6 2.3 9.1 7.5 9.6 6.7.3-.5-.7-2.6-2.1-4.8-3.2-4.7-4.4-5.9-6.3-6.6-1.2-.4-1.1-.7.5-1.3 1.1-.3 2.9-1.1 4-1.7 1.1-.7 3.7-2.1 5.8-3.2 4.3-2.3 4.5-2.8 1.5-5.6-2.4-2.2-4.3-2.6-5.3-1-.6 1-8.3 5-9.6 5-.4 0-1.7-2.5-3-5.5-3.4-8.2-5.2-7.4-4.8 2.2Z"/>
  <path fill="#FFF" d="M320.6 28.9c-.4.5.3 3.3 1.4 6.1 1.1 2.8 2 6.4 2 8 0 2.8-.3 3-6.1 4.2-6 1.2-6.1 1.2-3.9 3 1.5 1.2 3.9 1.8 7.1 1.8h4.9v5.5c0 4.7.3 5.5 1.9 5.5 1.5 0 2-1 2.5-5 .4-2.8.8-5 1-5 .1 0 3 1.1 6.4 2.5 3.4 1.4 6.6 2.5 7.2 2.5 1.9 0 1-2.9-1.2-4.1-1.3-.7-3.4-2.4-4.9-3.8l-2.6-2.6 5.3-4c3-2.2 5.2-4.5 5-5-.6-2.3-6.8-1.7-10.7 1.1-4.7 3.2-5.3 2.9-9.7-5.6-2.8-5.4-4.5-6.9-5.6-5.1Z"/>
  <path fill="#000" d="M257 33c-.8.4-5.1 2.6-9.5 4.8-5.8 2.9-8 4.5-7.8 5.8.1 1-.7 2.4-1.8 3.2-1 .7-1.9 2-1.9 2.8 0 .8-.5 2.3-1.2 3.3-1.5 2.4-.4 5.1 2.1 5.1 1.5 0 2-.9 2.4-4.3.9-7.4 1.1-7.8 7.6-10.7 5.5-2.4 6.8-2.6 10.3-1.7 2.3.6 5.4 2.4 7 4.1 2.6 2.7 3.7 3.1 9.9 3.4 6.3.4 7.2.2 8.5-1.7 1-1.3 2.6-2.1 4.5-2.1 2.1 0 2.9-.5 2.9-1.8 0-3.2 1.1-3.1 4.2.4 3.9 4.4 9.7 8.9 12.6 9.8 1.8.6 2.2.4 2.2-1.3 0-1.2-.7-2.1-1.5-2.1s-3.5-2-6.1-4.5c-2.5-2.5-5.1-4.5-5.8-4.5-.7 0-1.8-1.1-2.4-2.6l-1.2-2.5-3.1 1.8c-1.7 1-4.6 3.1-6.3 4.7-4 3.7-9.2 5.9-12.2 5.2-2.1-.6-7.4-6.9-7.4-8.9 0-.5 1.3.1 2.9 1.2 3.2 2.3 7.5 2.7 11.7 1.1 3.3-1.3 2.6-2.2-2-2.5-4.1-.4-10.6-3.3-11.3-5.2-.6-1.4-4.9-1.7-7.3-.3Z"/>
  <path fill="#000" d="M290.8 44.5c0 1.1-.2 3.2-.3 4.8-.1 1.5-.9 3.5-1.9 4.5-.9 1-1.6 2.3-1.6 2.8-.1.5-1.8 2-3.8 3.4-2.8 1.9-5 2.4-9.4 2.5-7.1 0-8.1.9-2.7 2.3 3.8 1 4.8.8 9.2-1.5 2.8-1.4 5.7-3.1 6.5-3.9 1.7-1.8 3.2-1.8 3.2 0 0 .9.7 1.2 1.8.9 1.1-.2 3.6.7 5.7 2.1 2.1 1.4 5.2 2.6 6.9 2.6 5.2 0 7.5 1.1 8.8 4.1 1.9 4.3 3.3 3 3.4-3.2.1-5.6-1.3-9.6-4.2-12-1.6-1.3-1.7-1.2-1.1 1.6.4 1.6.9 4 1.3 5.3.7 2.3.6 2.3-4.2 1.7-5.6-.8-12.8-3.7-13.9-5.6-.5-.7-.9-3.7-1-6.6-.1-5.2-2.3-10-2.7-5.8Z"/>
  <path fill="#000" d="M257.5 47.8c-1.1.2-2.5.9-3.2 1.4-.7.5-1.7.7-2.2.4-1-.7-6.4 4.4-5.6 5.2.2.3 1.5-.2 2.8-1.1 3.9-2.5 9.6-3.2 10.3-1.3.3.9 1 1.3 1.5 1 .5-.3.9-.1.9.5 0 1.8 8.3 4.2 11.4 3.3l3-.8-3.5-2.1c-1.9-1.2-4.6-2.5-6.2-2.8-1.5-.4-3-1.1-3.3-1.6-.9-1.5-3.8-2.6-5.9-2.1Z"/>
  <path fill="#000" d="M242.8 58.7c-2.4 1.5-3.3 1.6-7.5.5-4-1.1-4.9-1.1-5.8.1-.5.8-3.4 2-6.3 2.7-3.1.7-5.8 2-6.5 3.1-.7 1.1-1.8 1.9-2.5 1.9-1.5 0-3.2 4.1-3.2 7.9 0 2.5-.4 2.8-3.7 2.9-4.5.2-8.2 2.7-10.4 7-3 5.8-3.4 6-8.8 4.9-4.5-.8-5.3-.7-8.3 1.4-1.8 1.3-4.1 3.4-5.1 4.6-1 1.3-2.3 2.1-2.8 1.7-1.6-.9-5.5 2.2-6.9 5.6-1.6 3.9-.8 4.8 1.9 2.1 1.2-1.2 3.1-2.1 4.3-2.1 2 0 8.8-6.2 8.8-8 0-1.1 4.9-3 7.7-3 1.4 0 6.1 1.2 10.5 2.6 7.1 2.4 8.3 2.5 12.3 1.4 2.4-.7 4.8-.9 5.4-.5.6.3 1.1-.1 1.1-.9 0-1.2-1.1-1.6-4.5-1.7-5.3-.2-4.7-.1-10.7-1.8-4.1-1.2-4.6-1.6-3.8-3.1 1.3-2.5 7.2-6 10-6 1.2 0 3.7.9 5.4 1.9 1.7 1 5.7 2.4 8.8 3.1 5.4 1.1 10.1 4 6.4 4-.9 0-1.6.4-1.6 1 0 .5.6 1 1.3 1 .8 0 1.9 1.1 2.5 2.5 2.3 5 1.1 9-3.2 11.2-1.6.9-1.3 1.1 1.9 1.5 4.7.5 8-2.1 7.2-5.8-.6-3.2 1.8-5.3 3.8-3.3 1.1 1.1 1.3 2.2.5 4.8-.5 1.8-.7 4.6-.3 6.2.3 1.5.3 4-.1 5.3-.7 2.7-5.6 5.9-7.8 5.1-2.2-.8-6 3.2-5.3 5.5.4 1.3.1 2.2-.9 2.6-.9.3-1.6 1-1.6 1.5 0 2.5-4.2 4.9-8.5 4.9-2.5 0-4.5-.4-4.5-.9 0-1.9-13.7-4.3-15.8-2.8-1.7 1.3-2.2.6-1.6-2 .3-1.1 1.5-2.5 2.7-3 1.8-.8 2-1.7 1.8-7-.1-3.5.2-6.4.8-6.8 1.4-.8 1.4-2.5.1-2.5-.6 0-2.9 1.3-5.2 3-3.2 2.3-5.2 3-8.8 3-4.1 0-5.3.5-8.9 3.8-2.2 2-4.1 4.2-4.1 4.7s-1 1.9-2.2 3.2c-1.2 1.3-2.1 3.6-2.1 5.2 0 2-.4 2.8-1.4 2.4-.7-.3-1.3-.1-1.3.5 0 .5 1 1.2 2.3 1.6 1.7.5 1.9.8.8 1.5-1.2.8-1.2 1.5 0 4.8.8 2.1 2.4 4.2 3.6 4.8 1.9.8 2.4 3.1 1.4 6.4 0 .2-1-.8-2.2-2.3-2-2.6-4.3-3.4-5.3-1.8-.9 1.5 7 9.2 10.5 10.2 3 .9 3.6.8 5.2-1.1 2.2-2.7 1.7-3.3-1.7-1.8-2 1-3.2.9-5.3-.1-2.4-1-2.5-1.3-1.1-1.9 1-.3 2.8-2.6 4-5.1 2.1-4 2.7-4.5 6.1-4.8 3.5-.3 3.8-.1 3.2 1.7-.7 2.2 2.7 4.7 4.6 3.5.8-.5 1 1.3.7 6-.3 4.9-.9 6.9-2.3 7.9-1.1.9-1.6 2-1.2 3.1.4.9.1 1.6-.6 1.7-.7 0-2.5.2-4.2.5-4.5.6-16.3-1.7-17.9-3.5-.8-.9-2.2-3.2-3.3-5.1-1-1.9-2.7-4.8-3.7-6.3-1.8-2.7-1.8-2.8 0-4.2 1-.8 3.1-1.5 4.7-1.5 3.1 0 3.6-1.6.7-2.5-1.1-.3-2-1-2-1.5 0-.4.9-1 2-1.3 1.1-.3 2-1 2-1.5 0-2.3-4 .3-6.7 4.1-1.5 2.3-3.1 4.4-3.5 4.7-.4.3-.8 1.5-.9 2.5-.4 4.1.1 5.5 2.1 5.5 2.3 0 4 3.3 3.2 6.3-.6 2.3-3.9 4.5-7.9 5.3-2.6.5-3.3.2-4.3-1.6-1.7-3.1.5-10 3.2-10 1 0 1.8-.5 1.8-1 0-2.4-5-.9-7.4 2.3-2.9 3.8-3.1 5.6-1.4 10.3 1 2.7 1.8 3.3 5.3 3.8 4.8.8 8.2-.3 10.8-3.2 1.7-1.9 2-1.9 5-.4s4.7 1.6 16.9 1c7.3-.4 10.7-3.3 11.5-9.9.2-2.4.9-5.4 1.5-6.6.6-1.2.8-2.8.5-3.7-.4-1 0-1.4 1.1-1.4 1.9.1 9.5-4.2 8.8-5-.3-.2-2.2.3-4.1 1.2-3.4 1.6-3.9 1.6-7.1.1-1.9-.9-4-2.5-4.7-3.6-2.5-4.1-12.7-1.2-12.7 3.6 0 2.3-2.5 1.8-3.9-.8-.7-1.2-1.3-3.8-1.4-5.7-.2-3.1.2-3.7 4.1-5.8 2.3-1.3 4.2-2.8 4.2-3.3 0-1.1-6.9-.1-8.6 1.3-.8.5-1.4.3-1.8-.7-.3-1 .1-1.5 1.2-1.5.9 0 3-1.6 4.5-3.6 1.7-2 5.2-4.5 8.5-6 3.2-1.4 6.7-3 7.9-3.6 1.1-.6 2.6-.7 3.1-.4 1.7 1-2.9 8.6-6.5 11-3.6 2.3-4.2 3.6-1.6 3.6.9 0 2.8 1.1 4.2 2.4 2.8 2.5 10.6 4.3 11.6 2.6 1.5-2.4 2.7-.8 2.2 2.9-.4 3-.1 4.1 1 4.6 1.8.6 1.6.7 3.2-2.3 1.2-2.3 1.3-2.3 2.7-.5 1.1 1.3 1.7 1.4 2 .5.3-.6 1.9-1.2 3.5-1.2 2.6 0 2.9.4 3.5 4 .4 2.2 1.2 4 1.9 4 1.4 0 2.6 3.5 3 8.7.3 4-1.2 4.3-4.5.8-2-2.2-2.2-2.8-1.1-5.1.6-1.5 1-2.7.9-2.8-.2 0-2.1 1.6-4.2 3.6-3 2.9-3.5 3.8-2.2 3.8 2.7 0 6.2 4.3 7 8.5 1.5 7.8-5.1 17-6.9 9.7-.9-3.8-5.1-9-7.1-8.8-.9 0-2.5-1.1-3.6-2.5-1.9-2.6-1.9-2.6.3-7 1.3-2.4 3.9-5.8 5.7-7.6 3.3-3.2 3.9-5.8 1.2-5.8-.8 0-2.9 2-4.7 4.5-1.8 2.5-4.1 5.6-5.1 7-1.1 1.4-2.2 4.8-2.4 7.5-.3 2.8-.9 5.9-1.4 7-.7 1.8-.6 1.8.9.6.9-.7 1.7-1.9 1.7-2.7 0-.7.4-1.5.8-1.8.5-.3 1 1.6 1.1 4.1.1 4.5 1.4 7.3 3.2 7.3.5 0 .9-.8.9-1.8 0-3.8 1.6-4.5 4.4-2.1 3.3 2.9 3.3 4.3-.3 6.8-5.7 4.1-14.1 1.6-14.1-4.2-.1-2-.2-2-1.1-.4-.5.9-2.3 2.4-3.9 3.2-1.8.9-3.1 2.6-3.5 4.5-.9 4.2-1.8 4.4-5.4.6l-3.2-3.3 2.1-2.6 2.1-2.7h-2.5c-5.2 0-7.5 10.3-3.5 15.5 1.8 2.2 2 2.9.8 3.6-.8.5-2.8 1.8-4.4 2.9-6 3.8-12.6 13.9-13.9 21.4-.8 4.4-8.8 16.7-15.5 23.8-6.1 6.6-9.1 11.3-9.1 14.3 0 3.2-2.3 7.4-8.8 16.2-2.9 3.9-5.2 7.6-5.2 8.2 0 2.3-2.1 1-5-3.2-1.6-2.3-3.7-5.1-4.6-6.2-.8-1.1-2.9-4.1-4.6-6.8-1.7-2.6-3.7-4.7-4.4-4.7-.7 0-2.7-2.3-4.4-5.2-3.1-5.1-3.2-5.2-3.5-20.2-.2-12.1-.7-16.4-2.3-21.4-1.2-3.4-2.7-8.8-3.4-11.8-1.1-4.8-1.9-6-6.4-9.5-2.9-2.2-6.2-6-7.8-8.8l-2.7-5 2.4-5.8c1.4-3.2 2.8-8 3.2-10.7.8-5.6 5.6-20.9 8.1-25.8.9-1.8 3.4-5.7 5.6-8.6 2.2-3 3.7-5.6 3.4-6-.4-.3-3 1.9-5.9 4.9-4.3 4.6-6 7.5-9.9 17.5-2.6 6.5-5.1 13.9-5.7 16.4-2 8.7-10.4 31.8-12.8 34.9-.2.3-1.3-.5-2.6-1.5-1.2-1.1-3.5-2.8-5-3.8-3.2-2-3.2-2.1 1.9-13.9 1.9-4.4 3.6-8.6 3.7-9.5.2-1 .8-2.6 1.4-3.7 1.9-3.4 5.3-17.8 7.3-30.5.5-3 1.4-8.2 2-11.5.6-3.3 1.2-7.4 1.5-9.1.7-4.8 1.6-6.7 4.7-10 3-3.2 2.5-5.1-1-3.9-2.8.9-8.7 16.5-9.7 26-.3 2.7-1.2 7.2-1.9 10-1.8 6.6-3.4 14.9-4.1 20.7-.4 2.6-1 5-1.6 5.3-.5.4-.9 1.7-.9 3 0 2.6-.9 3-8.8 4-4.8.6-5.2.9-5.3 3.3-.1 3.4-1.2 6.3-2.4 6.4-4.3.2-7.5 4.6-7.5 10.4 0 1.2-1.3 3.3-3 4.7-2.5 2.2-3 3.3-3 7.1 0 5.2 1.2 6.6 2.8 3.1 1.8-3.9 4.6-3.1 8 2.2 4 6.5 4.6 9.6 2.6 13.9-.9 1.9-2.1 3.3-2.7 3.1-.6-.2-2.8-3.7-5-7.8-5.4-10.2-6.7-10.8-9.9-4.9-2.5 4.8-2.6 16 0 16.1 1 0 1.2.3.4.6-.6.2-1.2 1.1-1.2 1.8 0 2.2-9.6 11.4-13.6 13.1-2 .9-4.7 1.3-6 1-3-.8-3-.2.1 8.1 1.4 3.7 2.3 7.3 2.1 8-.6 1.4-.3 1.5 7.1 1.6 4.6 0 5.6-.5 10.1-4.2 2.7-2.3 8-7.8 11.8-12.2 3.7-4.4 7.2-7.8 7.8-7.6.6.2 1.6 1.2 2.1 2.3 1.5 3 5.5 7.8 6 7.2.3-.2-.4-2.2-1.5-4.3-1.1-2.2-2-4.7-2-5.6 0-1-.9-2-1.9-2.4-2.3-.7-3.4-4.2-1.7-5.3 1.5-.9 6.6-10 6.6-11.8 0-.8.5-1.4 1-1.4.6 0 1 .6 1 1.4 0 2.2 3.5 6 4.8 5.2.8-.5.3-1.9-1.7-4.4-1.6-2-3.1-4.6-3.3-5.7-.2-1.2-2.1-2.8-4.8-4.1-5.2-2.5-6.3-3.6-7.7-8-.8-2.3-.7-3.5.3-4.9 1-1.4 1.1-2.1.3-2.6-1.5-.9-.3-9.3 1.6-10.9 2.1-1.8 3.2-.5 4 4.8.6 4.7 2.6 8.2 5.5 9.5 2.6 1.3 6.7 4.1 12.4 8.6 4.7 3.6 6.5 4.4 11.8 5.1 3.5.4 6.6.5 7.1.3 1.4-.8-.3-2-4.8-3.3-4.8-1.4-5.5-2.3-2.7-3.9 4.3-2.5 4.5-2.7 3.2-5-1.1-2.2-1.2-2.1-5 2.1l-3.9 4.3-2.8-2.8c-2.3-2.2-2.5-2.9-1.4-3.7.8-.4 2.2-2.8 3.1-5.2 2-5.4 5-6.3 7.6-2.1 1 1.5 3.5 4.5 5.6 6.5 2.1 2 3.8 4.1 3.8 4.7 0 .6.5 1.1 1 1.1.6 0 1 .5 1 1.1 0 .5 1.1 3.5 2.5 6.5 1.3 2.9 2.7 8 2.9 11.1.3 3.2.9 7.1 1.4 8.8 1 3.8.9 6.4-.7 14.5l-1.3 6.5 5.1 7.7c2.8 4.2 5.1 8 5.1 8.4 0 .4-1.7 2.4-3.8 4.5-4.5 4.3-10.3 6.2-16.2 5.3-4.6-.7-6.1-2.9-7.5-10.7-.6-2.9-2.1-4.9-6.9-9.1-5.4-4.7-14.4-10.2-15.3-9.3-.4.5 6.6 6 9.5 7.6 1.2.6 4 3.5 6.2 6.2 3.3 4.1 4 5.9 4 9.4s-.4 4.4-2 4.8c-1.6.4-2 1.1-1.6 2.9.3 1.3.8 4.1 1.1 6.2 1.3 9.6 3.6 16.1 9.1 26.4 3.5 6.8 4.2 8.8 3.3 10.3-1 1.9-.4 5.8 1.1 6.9.3.3 2.3 3 4.3 6 3.6 5.5 5.2 7.2 13.8 15.2 5.8 5.4 10.6 12.6 11.1 16.3.1 1.6.9 3 1.6 3.3.7.2 4.8-3.1 9-7.5 4.5-4.6 10-9.1 13.2-10.7 3-1.6 6.6-3.6 8-4.5 1.4-.9 4.5-2.7 7-3.9 2.5-1.3 5.8-3.4 7.3-4.7 2.9-2.2 2.9-2.3 1.2-5.4-1.8-3.6-1.7-3.9 4-9.7 6.4-6.5 14.1-16 23.1-28.4 2.7-3.6 5-6.7 5.3-7 .4-.3 1.8-2.3 3.4-4.5 6.1-8.9 5.9-8.8 9.2-7.1 1.7.9 4.2 1.6 5.6 1.6 2.7 0 10.9-3.6 12.2-5.4.6-.8 1-.7 1.4.2.9 2.4 7.5 11.7 9.3 13.2 1 .8 4.7 7.1 8.3 13.8 6.3 12.1 6.4 12.4 4.9 15.4-2.4 4.8-9 10.6-15.8 13.9-4.6 2.2-6.5 3.8-7.2 5.8-.5 1.5-3.7 5.2-7.1 8.1-5.5 4.8-5.9 5.4-4.7 7.2 1.2 1.7 1 2.8-1.6 8.6-2.9 6.3-7 23.2-8.2 33.5-.4 2.7-.9 10-1.2 16.4-.3 6.4-.7 12-1 12.4-.2.4-.6 11.7-.9 25.1-.3 13.4-1 28.1-1.5 32.8-1.6 12.2-3.1 20.4-4 21.5-.4.5-1 2.6-1.4 4.6-1.3 7.2-10.2 18-16.5 20-2 .6-6.4 2.4-9.7 4-3.4 1.6-6.8 2.9-7.6 2.9-.8 0-1.8.4-2.4.9-.5.5-2.8 1.6-5 2.4-2.3.7-9.5 5.1-16 9.6-13.4 9.4-16.6 13.4-20.4 25.6-1.2 3.8-2.5 7.9-3 9-.5 1.1-1.2 3.1-1.6 4.5-1.2 4.3-7.6 16.9-9.9 19.6-.5.6-2.3 2.9-4 5-4.2 5.5-12.3 13.6-17 17-2.2 1.6-6 4.6-8.5 6.7-2.5 2.2-7.4 5.5-11 7.3-3.6 1.9-10.1 5.4-14.5 7.8-4.4 2.4-9.6 5.2-11.5 6.2-1.9 1-4.6 2.8-6 4-1.4 1.2-4 3.6-5.9 5.1-3.4 2.9-3.4 2.9-1.8 6.4.8 1.9 1.8 4.7 2.2 6.4 1.1 5.2 4.3 10.8 8.5 14.9 6.6 6.5 11.8 19.8 12.5 32.5.9 15.1 1.5 17.5 4.8 20.9 1.8 1.9 5.5 4.8 8.2 6.6 4.9 3.2 5.4 3.3 22.5 4.6 21.5 1.5 20.8 1.5 24.5 3 1.7.7 5.4 1.5 8.2 1.8 6.1.5 7.3-.7 4.8-5.4-.8-1.6-1.5-3.3-1.5-3.8 0-.7-6.1-9.4-11.3-16.1-5.7-7.5-9.2-11.3-11.7-13l-3-2-.1-11c-.3-26.3-.2-27.3 2.1-31.8 1.2-2.3 2.7-4.7 3.3-5.2.7-.6 5.8-6.2 11.3-12.5 10.5-11.9 21.9-23.7 26.3-27.2 1.4-1.1 4.6-3.9 7.1-6.2 2.5-2.3 6.1-5.3 8-6.6 1.9-1.4 4.4-3.3 5.5-4.3 1.1-1.1 4.7-4 8-6.5s9.8-7.8 14.4-11.7c13.6-11.4 29.2-22.5 31.6-22.5.7 0 1.5.7 1.9 1.5.8 2.1 1.8 1.9 7.3-1.3 2.6-1.6 8.6-3.9 13.3-5.1 18.7-4.9 17.7-4.3 20-12.4 1.2-4 2.3-7.9 2.6-8.7.3-.8.9-4.8 1.4-9 1.1-8.1 2.3-12 5.2-16.2 1.4-2 1.7-3.2.9-4.5-.6-1.2-.5-2.5.4-4.3 4-7.7 8.4-16.8 9-19 .4-1.4 1.5-3.5 2.5-4.7.9-1.1 2.2-4.7 2.9-8 1.9-8.7 6.3-22.5 6.9-21.8.3.3 1.6-.2 2.8-1 1.9-1.2 2.2-1.2 1.8-.1-.3.7.6 2.6 1.9 4.2 1.3 1.6 3.4 4.6 4.6 6.6 1.3 2.3 3 3.8 4.2 3.8 1.8 0 1.8-.1-.2-3.8-1.2-2-3-5.2-4.1-7-1.1-1.7-1.6-3.2-1.1-3.2 2 0 4.4 2.9 8.4 10 8.1 14.4 12.8 23.5 12.9 24.7 0 .6 1.6 3.9 3.5 7.4 2.8 4.8 3.3 6.4 2.3 7.1-2.2 1.4-3 .4-7-8.8-7.1-16.1-11.7-25.4-12.8-25.4-1.4 0-1.2 3.2.5 5.4 1.2 1.6 1.1 2.4-1 7-1.3 2.8-3 6.7-3.8 8.6-.9 1.9-2.7 6.1-4.1 9.4-1.4 3.2-2.6 6.5-2.6 7.2 0 .8-.4 2.2-.9 3.2-1.9 3.5-6 13.2-13 30.7-4 9.9-8.1 19.8-9.1 22-2.4 5.4-11 27.2-11 27.9 0 .4-.8 2.5-1.8 4.9-1.1 2.3-2.8 6.9-4 10.2-1.1 3.3-3 8.5-4.1 11.5-1.2 3-3.9 12.4-6.1 20.8-2.2 8.4-4.9 17-6 19.2-3.4 6.7-1.9 9.5 2.6 4.7 6.3-6.6 24.6-38.4 42.6-74.2 18-35.8 28.2-55.3 35.1-67l4.1-7 1.4 4.5c5.1 16.4 5.2 26.6.3 48-2.3 10.5-2.7 28.9-.7 37.5 5.3 22.1 9.8 32 19.5 42.8 18.9 21.1 31.2 38.1 38.8 53.7 9.2 18.9 11 26 9.2 37-.6 3.6-1.1 11.1-1.1 16.7-.1 9.9 0 10.2 3 14.1 2.6 3.2 4.2 4.2 8.5 5.2 2.8.6 6.9 1.8 8.9 2.6l3.7 1.4 7.4-6.5c4.1-3.6 7.7-6.5 8.1-6.5.3 0 2.4-1.1 4.5-2.5 2-1.4 5.3-3 7.2-3.6 5.3-1.7 22.2-2 35.1-.7 14.7 1.5 17.6.7 25-6.5 2.9-2.8 6.5-6 7.9-6.9 1.5-.9 3.5-3.7 4.5-6.2 1.1-2.5 2.4-4.6 3-4.6.6 0 4.2-3.6 8-8.1 3.8-4.4 8.6-9.8 10.6-11.9 2.1-2.1 3.8-4.3 3.8-4.9 0-2.1-2.1-2.1-5.7.2-3.7 2.3-11.1 4.4-14.3 3.9-.8-.1-4.2-.4-7.5-.7-3.3-.2-8.9-.8-12.5-1.2-9.4-1-10.7-.9-19 2.2-7.2 2.6-7.8 2.7-13.5 1.5-3.3-.7-7.3-1.4-9-1.5-8.1-.7-16.1-3.3-19.4-6.3-1.8-1.8-3.7-3.2-4.1-3.2-.5 0-1.1-1.3-1.5-2.9-.3-1.6-1.3-3.5-2.1-4.2-3.8-3.1-12.6-25.4-14-35.4-.3-2.8-1-5.7-1.5-6.6-.4-.9-1.1-3.1-1.4-4.8-.3-1.8-1.4-5.8-2.4-8.9-1.1-3.1-3.1-9.8-4.6-14.7-4.1-13.7-8.7-27.7-10-30.5-4.7-9.6-8.9-29.5-8.4-40 .1-3.6.2-9.2 0-12.4-.2-6.4.8-9.7 5-16.4 1.5-2.3 3-5.9 3.4-8 .4-2 1.1-4.2 1.7-4.9.9-1.1.4-7.5-1.7-24.3-.2-1.9-2.1-8.6-4.1-15-1.9-6.3-4.9-16-6.6-21.5-1.7-5.5-3.4-10.9-3.8-12-.5-1.1-3.2-8.2-6-15.8-5-13.3-5.1-13.9-3.7-17 .8-1.7 2.9-7.5 4.7-12.7 1.8-5.2 4.3-11.6 5.6-14.2 1.3-2.6 2.4-5.5 2.4-6.3 0-1.9 1.8-1.5 9.5 2.1 2.8 1.2 6.2 2.6 7.8 2.9 3.1.8 3.3 1.3 1.3 4-1.4 1.9-1.5 1.9-7.1-.4-6-2.5-8.7-2.3-3.7.3 1.6.8 4.4 3.2 6.2 5.2 3.1 3.6 3.3 3.7 4.6 1.9.8-1 1.4-2.3 1.4-2.8s.9-2.2 2.1-3.8c3.1-4.4 2.9-4.5-16.3-12.6-2.1-.9-3.8-2.2-3.8-3 0-.7-1.1-1.3-2.6-1.3-2.6 0-2.6-.1 2-5.3 6.7-7.6 10.7-16.2 11.2-24.2.2-3.5 0-6.6-.5-6.9-.4-.3-1.6 3-2.5 7.2-2.2 9.1-5.4 16.6-9.1 21-2.3 2.8-2.9 3-4.8 2.1-1.2-.7-2.3-1.3-2.5-1.4-.4-.3 6.8-18.6 11.9-30.2 1.3-3 1.6-3.2 5-2.7 2.8.5 4.7.1 7.8-1.7 2.3-1.2 4.1-2.7 4.1-3.1 0-.5.5-.6 1-.3.6.3 1 2.3 1 4.4 0 3.9.4 5.3 6.4 24.6 5.8 18.6 16.6 48.3 21.1 58.1 1.4 3 2.5 5.7 2.5 6.1 0 .4.6 1.4 1.4 2.2 1.3 1.5 8.1 13.2 13.1 22.6 1.1 2.2 4 6.8 6.3 10.3 2.3 3.5 4.2 6.8 4.2 7.3s.4.9.8.9c.5 0 2.3 2.3 4.1 5 1.8 2.8 3.8 5.6 4.4 6.3.7.6 2.5 3 4.2 5.2 1.6 2.2 7.2 8.1 12.5 13.2 17 16.5 22.9 20.3 22.2 14.4-.2-2.2-2.2-7.4-4.4-11.5-.5-1-1.2-3.9-1.5-6.5-.4-4.3-1.4-9.4-2.7-15.1-5.4-22.5-3.2-41.2 6.5-54.5 2.9-4 3.8-6.3 4.3-11.2.6-5.5.5-6.4-1.5-8.1-1.1-1.1-3.4-2.6-4.9-3.2-1.9-.8-3-2.1-3.4-4.3-.8-3.8 1.4-6.1 7.2-7.7 6.3-1.8 7.5-3.3 6.9-8.5-.4-4.3-3.2-8.5-5.4-8.5-.5 0-1.8-.7-3-1.5-2.1-1.5-2-1.7 6.9-10.7 6.4-6.5 9.9-11 12-15.5 3-6.2 3-6.4 1.9-14-.6-4.3-1.1-13.2-1-19.8 0-10.1-.3-13.2-2.4-19.6-2.2-7.1-2.3-8-1.2-16 1.2-7.8 3.1-13.3 6-16.9 3.1-3.8 2.6-11.3-1.2-19.9-1.2-2.8-1.3-3.8-.2-5.7 1-1.9 1-3.5-.1-8.1-.8-3.2-1.9-6.7-2.6-7.8-.8-1.3-1.2-7.4-1.1-18.5 0-14.6-.2-16.9-2-20-1-1.9-2.6-5.3-3.5-7.5-1.6-4-8.7-15.6-12.7-20.6-1.1-1.4-6.3-4.8-11.6-7.4l-9.6-4.7-11.7-.2c-14.6-.1-19.7 1.2-27.9 7.7-12.4 9.6-29.1 31.4-35 45.7-9.4 22.6-10.9 28.9-14.3 62.5-1.4 13.5-2.9 15.7-11.2 16.4-7.4.7-11.9.5-14.5-.4-1.7-.5-2.3-.3-2.3.7 0 2.7 4.9 4.3 12.2 4l6.8-.2v17l-3.7 2.4c-4.2 2.6-8.5 3.6-18.4 4.1l-6.7.3 1.9-6.1c1.1-3.4 2.3-10 2.9-14.6.6-5.5 1.5-8.8 2.4-9.3 1.2-.7 1.2-1.5.1-5-.7-2.4-1.5-6.1-1.8-8.3-.8-4.8-1.9-8.8-5.1-17.4-1.3-3.6-3.2-9.3-4.1-12.6-.9-3.3-2.1-6.8-2.6-7.7-.5-1-.9-2.2-.9-2.8 0-.6-1.3-4-3-7.5-1.6-3.5-3-6.9-3-7.5 0-2.4-4.5-.4-6 2.7-1.2 2.6-2.3 3.3-6 3.9-8.6 1.5-12.1.7-16.1-3.6-2-2.2-4.3-4-5-4-1 0-1.1-.3-.3-.8 1.2-.7 5.4-12.4 5.4-14.8 0-.7.9-1.9 2.1-2.8 1.1-.8 2.7-2.4 3.6-3.5 1.3-2 1.1-2.6-3.1-8.6-3.7-5.4-4.2-6.5-2.7-6.5 1 0 4.1 1.8 6.7 4 2.7 2.2 5.6 4 6.4 4 .8 0 3.7-1.8 6.4-4 5.3-4.4 7.6-4.8 12.5-2.4 3 1.5 3.2 2 2.7 4.8-.9 4.3-3.1 5.8-6.3 4.3-1.4-.6-2-1.3-1.4-1.5.6-.2 1.1-1 1.1-1.8 0-2.4-4.1-1.5-6.8 1.4-2.7 2.8-6.7 5.6-8.7 5.8-.5.1-1.4.2-2 .3-1 .2 9.3 4.1 10.7 4.1.4 0 .8-1.3.8-2.8v-2.9l5.3.9c9.3 1.5 8.8 1.7 10.2-2.9 1.2-3.8 1-4.6-1.4-9.5-2.4-4.8-3-5.3-7.1-6.1-4.4-.9-4.5-.8-8.1 3.1-4.1 4.7-5.9 4.2-5.9-1.9 0-2.6-.7-4.4-2.6-6.3-1.5-1.4-3.1-2.6-3.5-2.6-1.9 0-.8-1.8 1.5-2.4 1.3-.3 3.1-1.6 3.9-2.9 2-3.1 3.3-9.7 1.8-9.7-.6 0-.8-.6-.5-1.4.3-.7-.7-2.3-2.1-3.4l-2.6-2.1 2-6.8c1.6-5.4 1.8-7.6 1-10.8-.5-2.2-1-8.3-1.2-13.6-.2-9-.4-9.8-3.2-13.1-1.6-2-3.6-3.9-4.4-4.2-1.8-.8-3.3 1.3-2.7 3.7.6 2.5-5.5 6.9-9.1 6.5-2.2-.2-3-1-3.9-3.8-1.5-4.5.1-5.8 3.2-2.5 2.1 2.2 5.7 2.5 6.9.5.7-1.2-4.6-4.5-11-6.9-7.3-2.8-8.5-3.7-8.5-6.7 0-3.6-2.7-2.9-4 1-2.8 8.7-13.1 11.3-22 5.6-2.6-1.7-5.2-3-5.8-3-2.4 0-1.1-1.8 2-2.9l3.1-1.1-4.5-3c-5.7-3.8-13-4.7-17-2.3Zm13.5 1.2c1.1.1.9 4.9-.3 7.2-.6 1-2.1 1.9-3.5 1.9-3.4 0-5.5 1-5.5 2.7 0 1.1.5 1.3 1.8.8 5.5-2.4 11.2-1.1 16.6 3.7 1.4 1.2 3.4 1.7 7.2 1.5 5.2-.2 5.3-.1 4.7 2.3-.8 3.3-2.9 4.8-7.8 5.5-4.1.6-11.5-1.6-11.5-3.4 0-.5-2.5-1.9-5.5-3-4-1.5-6.7-1.9-10-1.4-3.2.4-5.1.1-6.9-1.1-3.1-2-3.6-2-3.6 0 0 .8 1.3 2.9 2.9 4.5 3.8 3.7 9.9 4.1 13 .7 2-2.1 2.1-2.1 4-.4 1.9 1.8 1.9 1.9-1.4 6.5-5.2 7.2-7.1 8.6-9.8 7.4-4.2-1.9-8.7-6.4-8.7-8.7 0-1.2-.4-2.6-1-3.2-.5-.5-1.1-3.3-1.2-6.2-.2-4.9-.3-5.1-2.8-4.5-3.2.7-5 3-5 6.4 0 3.5-1.6 4.6-3.9 2.5-1-.9-2.3-1.6-2.9-1.6-2.2 0-1.2-5.1 1.8-9.5 3.1-4.5 3.9-4.9 14-6 3-.3 8-1.6 11-2.9 3.4-1.4 7-2.2 9.5-2 2.2.2 4.3.3 4.8.3Zm33.8 10.7c.7.8 2.5 2.2 4.1 3 1.5.8 2.8 2.2 2.8 3.1 0 .9 1.2 3.6 2.6 6.1 2.4 4.1 2.9 4.4 5.7 3.8 1.7-.4 4.1-1.5 5.2-2.6 1.2-1.1 2.5-1.7 2.8-1.3.4.3.7 4.4.7 9.1 0 8.4 0 8.4-2.4 7.8-3.9-1-5.6 1.6-5.6 8.2 0 3.8.6 6.7 1.9 8.8 2.6 4.2 6.4 15.8 5.9 18-.5 3-3.5 2.8-8.6-.5-3.9-2.5-5.5-2.9-8.5-2.4-3.3.5-3.7.3-3.7-1.6 0-1.2-.6-2.1-1.5-2.1-1 0-1.5 1.1-1.5 3.5 0 3.2.3 3.5 2.8 3.5 1.5 0 3.3-.4 4.1-.9 3.7-2.4 7.2 2.3 6.2 8.5-.5 3.1-1.1 3.9-3.6 4.6-4.3 1.2-6.8.3-10.9-3.9-3.6-3.7-3.8-3.7-5.2-1.8-1.3 1.8-1.2 2.1.8 3.7 1.3.9 3.7 2.2 5.3 2.9 1.7.6 3.9 1.5 5 1.9 1.1.5 3 1.2 4.3 1.5 1.9.6 2.2 1.3 2.2 5.9 0 4.9-1.7 8.6-3.2 7-.3-.3-.9-.1-1.3.5-.3.6-.1 1.1.4 1.1 1.4 0 1.4 8.7 0 9.5-.5.4-2.1.4-3.5.1-1.9-.5-2.4-1.1-1.9-2.6.4-1.1.4-2 .2-2s-2.7 2.2-5.4 5l-5 5h-6.9c-13.2-.1-21.3-2.8-33.9-11.5-4.3-2.9-7.1-4.2-8.4-3.8-2.8.7-2.8-1.8 0-4.3 2.7-2.5 5.6-8.1 6.8-13.4.8-3.7.6-4.9-2-10.3-1.6-3.4-2.9-7-2.9-8 0-.9-.4-1.7-1-1.7-1.7 0-1.1 6 1.4 13 3 8.1 2.3 12.7-2.3 17.4-2.8 2.7-3.1 2.8-3.2 1.1-.1-1.1-.1-2.6.1-3.4.1-.7-1-5.1-2.5-9.6l-2.6-8.2 2.8-4.8c1.6-2.6 3.7-5.3 4.8-5.9 6.2-3.4 10.7-7.1 11.5-9.1.5-1.3 1-6.3 1.1-11.2.2-8.6.3-8.9 3.3-10.8 1.7-1.1 4.2-4.3 5.6-7.2 2.4-5 4-6.6 4-4.1 0 3.2 12.6 5.2 17.1 2.8 1-.6 3.3-3.8 4.9-7 1.7-3.3 3.4-6 4-6 .5 0 1.7-1.4 2.7-3 2-3.4 2.5-3.6 4.4-1.4Zm-62.6 12.2c-.3.3-1.1 0-1.8-.7-.9-1-.8-1.1.6-.5 1 .3 1.5.9 1.2 1.2Zm93.6 11.9c.4 16 0 20.5-1.8 20.1-2.5-.5-3.4-5.4-2.3-12.8.5-3.6 1-9.7 1.1-13.5.1-6.9.1-7 1.5-3.8.7 1.8 1.4 6.3 1.5 10Zm-7.2 10.8c.3 1.7-2.2 4.5-4.1 4.5-1.3 0-.9-4.5.4-5.8 1.6-1.6 3.2-1 3.7 1.3Zm-.7 10c-.5 2.7-1.6 3.2-2.8 1.3-.4-.6.1-1.7 1.1-2.5 2.4-1.7 2.3-1.7 1.7 1.2Zm9.4 13.3c.7 2.5-.2 8-1.6 10.2-.8 1.3-1.2 1.3-2.7-.3-1.8-1.8-4.2-15.7-3.5-20.6.4-2.2.8-1.9 3.8 3 1.9 2.9 3.7 6.4 4 7.7ZM191.5 130c.3.5.1 1-.4 1-.6 0-1.1-.5-1.1-1 0-.6.2-1 .4-1 .3 0 .8.4 1.1 1Zm292 9.5c7.2 2.6 17.9 13.7 23.4 24.6 5.7 11.1 10.8 34.7 7 32.3-.5-.3-.9-1.5-.9-2.8 0-1.2-.4-2.6-.9-3.2-.5-.5-1.4-2.7-2.1-4.9-1.7-5.4-13.4-23-18.6-28.1-5.6-5.4-17.9-10.4-25.5-10.4-8.6 0-15.6 3.1-27.2 11.8-10.2 7.8-22.6 28.6-29.8 50.3-5.1 15.6-6.8 25.5-8.3 49-1.6 24.5 9.1 78.3 21.4 107.9 2.8 6.9 5.8 14.2 6.6 16.2.7 2 2.9 7.1 4.9 11.3 1.9 4.2 3.5 8 3.5 8.4 0 .4 1.3 3.4 2.9 6.7 1.5 3.2 3.1 6.9 3.5 8.2.4 1.3 2.2 4.9 4 8 1.7 3.1 4.2 7.9 5.5 10.6 1.3 2.8 3.3 6.4 4.5 8 9.8 13.5 17.7 23.8 21.1 27.4 2.2 2.4 4.4 5.1 4.9 6 .5 1 2.4 3.5 4.2 5.7 6.6 8.2 9.9 16.9 5.6 14.6-1.1-.6-3.4-2.4-5.1-4-1.8-1.7-3.7-3.1-4.2-3.1-.9 0-6.7-7.1-17.9-21.9-3-4-7-9.1-8.8-11.3-1.8-2.3-4.2-5.8-5.3-7.7-1.1-2-4-6.8-6.4-10.6-9.9-15.5-23.7-48.6-33-79-1.5-5-3.1-9.9-3.6-11-.8-2.2-3.3-10.5-4.3-14.5-1.6-6.1-5.6-21.1-7.5-28-1.2-4.1-2.6-12.7-3.2-19-1.6-16.3-1.5-54.3.1-60 .7-2.5 1.4-6.3 1.7-8.5.2-2.2.8-4.4 1.3-5 .5-.5 1.8-3.9 3.1-7.5 2.8-8.2 7.7-18.1 13.4-27.1 2.5-3.8 4.5-7.2 4.5-7.5 0-1.3 9.2-12.3 14.1-16.9 16.7-15.6 20.9-17.6 35.9-17.1 6.6.3 12.3 1 15.5 2.1Zm-265.8-.9c-.3.3-1.2.4-1.9.1-.8-.3-.5-.6.6-.6 1.1-.1 1.7.2 1.3.5Zm95.9 2.3c-.3.4 1.4 2.9 3.8 5.4 3.2 3.3 4.7 5.8 5.4 9.3 1.3 6.2.6 7.2-2.8 3.9-1.5-1.5-4.3-3.2-6.3-3.9-1.9-.6-4.7-2.6-6.1-4.3-2.5-2.9-2.6-3.4-1.3-5.8.7-1.5 2.4-3.2 3.8-4 2.9-1.6 4.2-1.8 3.5-.6Zm167.1 11.3c5.6 1.7 4.5 2.5-2.5 2.1-10.4-.8-20.9 3-28.2 10.1-3 2.9-7.4 8.2-9.8 11.7-10.4 15.6-13.3 20.1-15.5 24.6-5 9.9-10.2 30.5-11.2 44.3-.8 11.1-.7 36 .1 41 1.9 11.9 6.4 33.3 9.2 44.5 1.2 4.4 2.8 11.1 3.8 15 2 8.9 7.5 25.6 10.2 31.5 1.2 2.5 3.5 8.1 5.2 12.5 1.7 4.4 3.6 8.4 4.1 8.9.5.6.9 1.7.9 2.5 0 .9 1.6 4.7 3.5 8.6 3.3 6.7 3.5 6.9 3.5 3.5.1-1.9.7-4.6 1.5-6 2-3.5 1.9-4-1.2-4-3.5 0-7.3-3.6-7.3-6.9 0-1.4.7-3.9 1.5-5.5 2-3.7 1.3-5.6-2-5.6-4.6 0-7.4-4.7-6.5-11 .1-.8 1.1-2.5 2.3-3.8l2-2.2h-3c-4.3 0-8.3-4.2-8.3-8.7 0-2.6.8-4.2 3.1-6.4l3.1-2.9h-2.9c-5.4 0-9.4-7-6.8-11.9.8-1.6 2.1-3.1 3-3.4.8-.4 1.5-1.1 1.5-1.7 0-.6-.4-.9-.8-.6-1.3.8-7.1-3.2-8.3-5.7-1.4-3.1.3-7.4 3.6-8.9 3.5-1.6 3.3-4.8-.3-4.8-3.7 0-7.3-3.8-7.4-7.8-.1-3.9 2.6-8.2 5.2-8.2 1 0 2.1-.4 2.4-.9 1.1-1.7-.6-4.1-3-4.1-3.1 0-7.4-3.9-8-7.3-.7-3.9 1.1-6.5 5.7-8.4 4.5-1.8 4.7-3.7.3-4-4.2-.3-7.1-2.2-8.4-5.4-1.3-3.1-.8-5.6 2.1-9.3 1.6-2 2.5-2.4 5.3-1.9 3.6.6 6-1.3 2.9-2.3-4.1-1.2-8.7-4.2-9.1-6-1.4-6.5 1.8-10.9 8.9-12 4.4-.7 5.2-2.9 1.4-3.8-3.9-1-6.5-4.2-6.5-8 0-4.6 4.6-8.6 9.8-8.6h3.7l-2.4-1.9c-1.4-1.1-2.6-3.4-3.1-6.1-.7-3.8-.5-4.6 1.6-6.7 1.3-1.2 3.2-2.3 4.4-2.3 1.7 0 1.9-.4 1.3-2.8-.3-1.5-.6-3.5-.5-4.6.2-2.9 4-6.4 6.8-6.1 2.1.2 2.4-.2 2.4-3.4 0-4.7 1.8-7.1 5.5-7.5 2-.2 3.1-.9 3.3-2.2.8-5.2 1.5-6.5 4.2-7.9 1.7-.9 4-1.3 5.4-.9 1.8.4 2.7.1 3.5-1.5.7-1.1 2.5-2.8 4.2-3.6 2.7-1.4 3.3-1.4 6.6.1 2 1 3.8 2.6 4 3.5.4 1.4 1.5 1.8 5.3 1.7 5.2-.1 8 1.3 8 4.2 0 1 1.1 3.1 2.4 4.7 4.7 5.6 13.5 22.9 15 29.3.8 3.6 2.1 9 2.9 12.1l1.4 5.7-8.1.7c-8 .7-16.5 3.4-18.7 6.1-2.2 2.6-2.9 1.4-2.5-4 .4-6.9-.2-10.6-2-10.6-1 0-1.4 1.6-1.4 6.2 0 3.5-.8 8.4-1.7 11.1-1.3 3.6-1.4 5-.5 5.9.9.9 2 .4 4.9-2 9.2-7.8 16.7-10.6 25.1-9.5 4.8.7 6.4 2.8 5.5 7.6-.5 2.4-.9 2.6-3.2 1.9-4.3-1.2-13.5-.6-16.7 1.2-1.6.8-4.2 2.7-5.7 4.1-2.7 2.4-2.8 2.8-2.1 7.8.5 2.9.7 7.4.6 10.2-.3 5.8-.1 6 5.6 9.9 2.3 1.6 4.2 3.2 4.2 3.7 0 .4 2.4 2.7 5.4 5 4.3 3.4 6.2 5.8 8.7 11.3l3.3 7.1-.1 19.5c-.1 11.9-.7 21.8-1.5 25.4-1.2 5.7-1.4 5.9-6.4 8.4-2.9 1.4-5.8 2.2-6.7 1.9-.8-.3-2.6-2.9-4-5.7-3.7-7.5-10.4-15.7-13.5-16.7-1.5-.5-5.4-.6-8.7-.3-3.3.4-6.1.6-6.3.5-.1-.1.9-2.7 2.2-5.7 2.7-6.1 4.7-7.2 9.8-5.7 4.1 1.1 4.9.2 1.9-2.2-1.3-1.1-3.9-1.9-6-1.9-4.6 0-9.6 4.7-10.5 10.1-.3 1.9-2.1 5.7-3.9 8.4-6.3 9.4-6.3 9.3-5 10.6.8.8 1.9 0 4.3-3.2 3.3-4.7 5.4-5.6 13-5.8 5.4-.1 9.7 2.2 13.6 7.6 1.5 2.1 5.5 6.4 8.8 9.5 5.8 5.6 5.9 5.9 4.6 8.4-1.4 2.4-8.5 7.4-10.7 7.4-.6 0-3.1-2.1-5.7-4.6l-4.5-4.6-3.3 2c-1.8 1.1-6.4 2.5-10.3 3.3-8.3 1.5-10.6 2.5-16.2 6.4-5.1 3.6-5.4 5-1 4.1 8.1-1.7 10.1-1.7 17.4-.1 4.3.9 10.4 2.8 13.6 4.2 4.5 1.8 6.5 2.2 8.5 1.5l2.7-.9-3-1.3c-1.6-.7-4.5-1.8-6.3-2.6-1.8-.8-5.4-1.9-8-2.5-13.2-2.9-15.4-4.4-6.7-4.7 2.6-.1 5.9-.9 7.5-1.7 4.3-2.2 6-1.9 10 1.9 3 3 4.4 3.6 9.4 4 6.2.5 10.8 2.9 11.4 5.9.4 2.2-3.7 7.6-7 9.3-1.6.8-2.8 1.2-2.8.9 0-.3-.9-.1-2 .5s-1.8 1.5-1.5 2c.3.5-.1 2.5-.9 4.5-1.9 4.5-1.4 5.8 3.4 8 5 2.2 6.6 6.2 4.5 10.8-1.6 3.3-4.1 7.7-8.1 13.7-2.7 4.1-5.4 21.6-5.4 34.8 0 7.4-.2 8.3-1.7 8-1-.2-2.7-2-3.8-4-1.7-3.2-1.8-3.9-.5-6.2 1.5-2.9 1-3.8-2.3-4.3-1.2-.2-3.2-.5-4.4-.8-3.1-.7-2.9.3 1.5 6.6 9.5 13.7 15.8 26.4 8.8 17.7-1.5-1.8-3.6-4.4-4.7-5.8-9.9-12.2-14.3-18-16-21-1.1-1.9-3.3-5.3-4.9-7.5-3.9-5.3-7.9-13.1-12.4-24-2.1-5-4.6-10.8-5.6-13-5.8-12.5-18.1-46.4-21.9-60.5-1.1-4.1-3.2-11.3-4.6-16-6.1-20.2-9.2-37.1-9.5-52.5-.5-21.4.4-31.1 4.5-50.2 1.5-6.5 2.7-12.7 2.8-13.8.3-2.2 1.3-4.5 9.3-21 7.6-15.7 18.8-27.7 34.3-36.7 4.3-2.5 5.2-2.6 13.1-2.2 4.7.3 10 1 11.7 1.6Zm8.3 5.8c0 .5-.2 1-.4 1-.3 0-.8-.5-1.1-1-.3-.6-.1-1 .4-1 .6 0 1.1.4 1.1 1Zm-181.1 5.6c.9 3 1.2 7 .7 12.1-.5 6.3-1 8.1-3.1 10.3-1.4 1.4-2.5 3-2.5 3.5 0 .8-.7 1.6-4.8 6-5.7 6-12.7 9.1-20.2 8.9-8.4-.2-23-2.2-28-3.9-11.7-3.7-13.9-5-22-12.4-2.5-2.3-5.3-4.1-6.2-4.1-2.3 0-2.3-.5.4-4l2.1-2.9 6.4 4.5c3.6 2.4 8.6 5.5 11.1 6.8 4.7 2.4 18.4 7.2 21.2 7.5 12.7 1.2 15.9 1.2 21.1.1 5.2-1.1 6.4-1.8 10.2-6.4 5.3-6.3 7.7-12.4 7.7-19.8 0-6 1.5-10.8 3.4-10.8.7 0 1.8 2.1 2.5 4.6Zm-79.8 1.3c-1 .6-.5 1.4 2 3.4 4.5 3.4 20.9 11.7 23.1 11.7 1 0 1.8.4 1.8.8 0 1.9 10.3 4.4 19 4.5 9.1.2 9.2.2 12-2.9 1.5-1.8 3.2-4 3.8-5 .9-1.5 1.3-1.6 4.1-.4 1.7.7 3.1 1.6 3.1 2.1 0 1.6-6.4 10.4-9.4 12.9-2.5 2.1-3.8 2.4-8.9 2.2-3.3-.2-7-.8-8.4-1.3-1.3-.5-4.1-.9-6.2-.9-5.8 0-25.5-7.3-29.7-11-2-1.7-4.6-3.5-5.9-4-2.2-.9-4-5.6-2.4-6.6.4-.2.6-1.1.2-1.9-.7-2 .3-4.5 1.9-4.5 1 0 1 .2-.1.9ZM55 169c0 1.4-6.3 14-7 14-1.2 0-3.7-6.5-3.1-8.2 1.3-3.5 10.1-8.6 10.1-5.8Zm142.1 14.4c1.5.7 1.5 1 .2 3.7-.8 1.6-1.1 3.4-.8 4.1.4.7 0 .5-.8-.5-1.6-2-4.8-2.2-6.5-.5-.6.6-1.5.8-1.9.3-.5-.4-.2-1 .5-1.2.7-.3 1.9-1.9 2.6-3.7 1.4-3.3 3-3.8 6.7-2.2Zm24.8 3c4.7 3.3 6.5 6.7 6.6 13.1.2 4.3.5 5 2.3 5.3 1.2.2 2.2.8 2.2 1.4 0 .5 1.5 2.8 3.4 5.1 6.8 8.5 7.9 11.9 7.4 23.7-.5 13.1-2.1 16.4-8.9 19-2.5 1-6.8 3.2-9.4 4.9-5.4 3.4-8.8 3.8-14.1 1.6-3.8-1.6-5.4-1.3-5.4 1 0 1.9 4.1 2.9 11.2 3 3.2 0 5.8.2 5.8.3 0 .2-.8 1.7-1.7 3.2-1.8 3.1-3.9 4-9.2 4-4.6 0-9.5-4.4-8-7.1.5-1.1.7-1.9.5-1.9-.8 0-9 9-9.5 10.4-.6 2-10.5 18-12.3 20-1 1.1-1.8 2.3-1.8 2.7 0 .9-15.1 19.1-20.4 24.6-3.9 4.1-5.2 4.1-7.2 0-.9-1.7-3.1-4.4-5-5.9l-3.5-2.6 2.8-3.4c5.3-6.1 17.3-23.1 17.3-24.3 0-1.4 8.4-11 14.4-16.7 3.4-3.1 5.6-5.7 4.9-5.8-1.3 0-6.7 4.4-13.6 11.2-2.6 2.7-5.3 4.8-5.9 4.8-.5 0-.8.6-.5 1.4.3.8.3 1.6-.1 1.8-.4.2-2.4 2.9-4.5 6.2-3.8 5.7-15.1 20.1-16.5 21-.4.2-1.6-.2-2.7-1-1.3-1-1.5-1.4-.4-1.4 1.3 0 12.5-16.4 15.7-23 1.1-2.3 2.1-3 4.3-3 1.6 0 2.9-.4 2.9-1 0-.5-1.5-.8-3.5-.5-4.3.5-4.3-.2-.7-7.5 2.3-4.7 3-5.5 5.2-5.2 1.4.2 3.1.9 3.8 1.5.9.7 1.6.7 2.5-.2 1.5-1.5-1.3-3.8-9.1-7.7l-5.4-2.6-2.7 2.8c-4 4.2-12.1 16.1-11.4 16.8.3.3-.5 1.4-1.8 2.5-4.8 4.1-4.6 2.3.7-6.8 1.8-3.1 3.8-6.1 4.3-6.7.5-.6 1.6-2.5 2.5-4.2.9-1.8 2.4-3.2 3.5-3.2s2.8-1.9 4.6-5.5c2-3.7 3.5-5.5 4.8-5.5 1.6 0 1.7.3.7 1.5-1.4 1.7 0 2.1 1.7.4.8-.8 2.8-.3 7.5 2 8.6 4.3 15.8 5.4 18.9 3 1.3-1 2.9-1.9 3.5-1.9 2.4 0 21.7-22.7 25.4-29.8 2.8-5.4 3-8.7.5-8.7-1.5 0-2.1.9-2.6 4.1-1.6 9.2-8.9 19.7-20.2 29-5.3 4.3-6.4 4.8-11 4.8-6.8.1-14.4-4.7-18.9-11.9-3.6-5.7-3.8-8.8-1.3-18.5 1.8-7.4 4.2-11.3 11.1-18.7 6.1-6.4 8-7.3 15-7.5 5.1-.2 5.8-.5 8.4-3.7 1.6-1.9 2.6-3.9 2.3-4.4-.4-.6-.1-.7.6-.3.7.5 2 .1 2.9-.7 2.6-2.2 4.3-2.7 9-2.3 2.5.2 5.8 1.4 8.1 3Zm85.1 9.9c0 .7 1.3 2.8 2.8 4.7 2.8 3.5 4.8 7.4 9.7 18.5 4.2 9.3 5.3 13.3 6.6 23 2.4 18.4.2 47.8-4.2 56.9-2.4 5-2.4 5.8.1 7.4 2.5 1.5 2.1 2.3 5.6-12.3 2.9-12.3 3.4-23.3 2.1-45.3-.6-9-1.6-15.7-3.2-21-2.6-8.7-6.2-18.2-7.6-19.8-1.4-1.7 3.4-5.5 8-6.1 4.3-.6 5.8 1 2.2 2.2-4 1.2-3.9 10.3.1 18.3 2.2 4.4 8.7 9.2 15.7 11.6 3 1.1 3.7 2 5.3 7.2 2.1 6.2 3.1 12.2 2.8 16.4 0 1.4-.3 5-.4 8-.9 15.2-6.4 32.4-13.8 43.3-3.9 5.7-4.1 6.4-3.9 12.6.2 4.4.9 7.6 2.2 9.7 1.3 2.1 1.5 3.1.6 3.2-.6 0-4.3 1.3-8.2 2.7-9.9 3.7-10.6 3.9-11.4 2.7-1.2-1.9-12.7-1.6-22.8.6-5.6 1.3-11.4.3-14.3-2.4-1.9-1.8-3.8-2.3-8.3-2.5-3.2-.1-6-.6-6.3-1.1-.3-.4-2.9-.8-5.9-.8-5.7 0-8.2-1.5-11.7-7-3.2-5.2-3.4-13-.3-13 .7 0 1.6-1.2 2-2.7.3-1.5 2-4.7 3.6-7.1 5-7.4 8.4-20.7 6-23.6-.6-.7-.9-2-.6-2.8.4-1-2.7-5-8.9-11.4-5.3-5.5-9.6-10.2-9.6-10.7 0-2.2 3.4.2 10.5 7.3 5.2 5.2 8.3 7.6 8.9 7 .6-.6-1.3-3.3-5.7-7.7-7.2-7.3-10.2-11.1-9.4-11.9.3-.3 1.4.3 2.4 1.3 8 7.6 12.3 11.3 13.2 11.3 2.1 0 1.1-2.9-1.6-5-1.6-1.2-5.2-4.4-8.1-7.2-4.2-4-5-5.4-4.1-6.5.8-.9 1-4.5.6-11.1-.7-12.4-4.1-20.6-11.5-27-3.7-3.2-4.9-5-5-7.2-.1-2.7.1-2.8 2.3-2 1.4.5 4.1 1.8 6.2 2.9 4.1 2 11.8 4.6 19.8 6.5 10.2 2.4 31.8-.6 38.8-5.4 3.6-2.5 4.2-2.6 4.5-1.2.2.9.8 2.1 1.3 2.6 1.2 1.4 1.1 2.9-.2 2.1-1.4-.9-6.9 1.8-9.7 4.8-2.2 2.3-2.2 2.7-.9 5.8 2.2 5.4 4 6.4 7.5 4.4 2.7-1.6 3.1-1.6 6.5 0 3.6 1.7 4.9 3.5 2.6 3.5-.7 0-.9.9-.5 2.4.3 1.3.1 2.6-.4 2.8-.6.2-1.3 1.7-1.6 3.3-.8 4.7-3.1 7.3-7.5 8.6-3.1 1-4.8 1-7.3.1-5-1.8-5.6-1.6-5.6 2.8 0 5.9-3.7 14.7-8.2 19.4-3.1 3.2-5.2 4.3-9.2 5.1-4.3.9-5.2 1.4-5.5 3.5-.1 1.4-1.2 3.7-2.2 5.1-2.5 3.5-2.4 4.2.4 3.5 2.9-.7 4.6 2.4 5.4 9.9.5 4.6-.3 7.5-3.5 13.7-.7 1.4 2.1.8 3.8-.7 1.4-1.3 2.1-1 6.1 2.9 4.2 4.2 11.9 8.5 11.9 6.6 0-.5-1.9-2.1-4.2-3.7-5.3-3.6-12.2-11.8-11.3-13.3.5-.8 2.1.2 4.9 3.2 4.4 4.7 13.5 11 14.8 10.2 1.2-.8-.2-3.1-2.5-4.2-5.4-2.6-17.1-15.2-15.5-16.7.3-.3 2.6 1.6 5.2 4.1 4.9 4.7 12.1 8.5 14.4 7.7 2.3-.9 1.2-2.9-2.5-4.2-3.6-1.3-14.3-9.6-14.3-11.1 0-.3 1.9-.7 4.3-.7 2.3 0 6.1-.9 8.5-2 3.6-1.6 4.8-2.9 7.3-8.4 3.3-6.8 4.7-17.5 2.8-21.1-.9-1.7-.6-1.8 4.1-1.7 6.8.3 9.1-2 12.5-12.6l2.7-8.2-2.1-4.9c-3.2-7.2-6.7-10.4-11.3-10.4-2.8 0-3.8.4-3.8 1.6 0 1.4-.3 1.4-1.5.4-4.3-3.6 1.9-10.9 8-9.4 2.5.6 2.5.6 1.1-2.7-2.1-5.2-2.8-8.9-1.6-8.9.5 0 1 .6 1 1.3Zm32.4 10.5c1.8 3.5 7.6 21 7.6 22.9 0 2.2-5.5.7-10.5-3.1-4.4-3.2-7-8-8.2-14.9-.4-2.7-.1-3.9 1.8-5.6 3.3-3.1 7.5-2.8 9.3.7ZM30 215.3c0 .9.8 2.4 1.8 3.3 3.7 3.1-.8 14.5-5 12.9-1.1-.5-1.7-2.8-2.2-9.1-.6-7.2-.4-9 1-11.1l1.7-2.6 1.3 2.4c.7 1.3 1.3 3.2 1.4 4.2Zm16.1-4.2c.9 1.7.8 2.4-.6 3.8-1.6 1.5-1.7 1.4-1.2-.8.4-1.4.1-3.1-.5-3.8-.7-.9-.7-1.3 0-1.3.6 0 1.6 1 2.3 2.1Zm267.2 17.7c-.7 7.2-3 14.7-5.2 16.6-2.5 2.2-11.6 1.9-11.6-.4 0-1 1.2-1.6 3.3-1.8 2.8-.3 3.9-1.2 6.8-5.7 1.9-3 3.9-7.7 4.6-10.5 1.4-6 2.7-4.8 2.1 1.8Zm-275.9.9c-4.7 8.2-8.1 12.6-13.6 17.9-6.7 6.4-9.7 8.4-12.6 8.4-2.4 0-2.8-.6-3.6-6-.6-4.3-.1-5.1 4.6-7.3 2-1 5.4-3.7 7.6-6.2 3.7-4.2 4.1-4.4 7.3-3.5 2.9.9 3.6.7 5.6-1.5 1.3-1.3 2.3-2.8 2.3-3.3 0-1.3 2.2-3.2 3.7-3.2 1 0 .5 1.5-1.3 4.7Zm118.3 7.1c-1 1-1.7 2.2-1.7 2.7 0 .4-1.5 3.1-3.4 5.9-1.8 2.8-3.6 6.1-4 7.3-1 3-2.9 4.4-4.6 3.3-1.2-.8-1.3-1.3-.3-2.7.7-1 2.3-3.8 3.5-6.2 2.3-4.4 10.7-13.5 11.6-12.6.3.3-.2 1.3-1.1 2.3Zm358.1.3c2.3 1.7 4.2 3.4 4.3 3.7 0 .4.2 2.2.3 3.9.4 3.3-1 4.5-2 1.9-.7-1.7-9.4-5.6-12.7-5.6-1.3 0-4.4 1.3-6.8 3-2.4 1.6-4.7 3-5 3-.8 0 .4-6.2 1.7-8.3 1.3-2.2 7.7-4.6 12.5-4.7 2.4 0 4.8 1 7.7 3.1Zm-354.2 5c-.7 1.8-2 3.5-2.7 4-.8.4-3.2 3.3-5.4 6.4-7.9 11.1-19.6 26.5-20.1 26.5-2 0 11.3-20.1 13.6-20.7.9-.3 2.6-2.1 3.8-4.1 4.1-7.4 5.9-10.8 7.1-13 .6-1.2 2-2.2 3.1-2.2 1.7 0 1.8.3.6 3.1Zm134.7 17.4c.2 5.7-.2 7.9-2.2 11.7-2.9 5.7-5.2 6.8-15.1 7-9.6.2-12.4-.6-11-3.3.6-1 .8-1.9.4-1.9-.3 0-.1-.6.5-1.4.6-.8 3.1-1.7 5.5-2 4.9-.8 11.2-5.6 14.4-10.9 1-1.7 2.5-5.9 3.2-9.2l1.3-6 1.3 4.5c.8 2.5 1.5 7.6 1.7 11.5Zm213.1-12.9c2.3.9 1.9 3.1-.8 4.9-1.9 1.3-2.9 1.4-4.5.6-2.7-1.5-3-1.4-2.7.6.2 1.3 1.7 2.1 5.1 2.7 4.1.9 4.9.7 6.1-.9.8-1 1.4-2.9 1.4-4.2v-2.4l2.4 2.8 2.5 2.8-2.5 2.6c-2 2.1-2.4 3.5-2.4 8.5 0 9.2-.8 9.5-8.1 3.6-3.5-2.9-7.5-6-8.8-7-2-1.5-2.5-2.8-2.5-6.7-.1-4.9-.1-4.9 4.4-6.7 4.8-1.8 7.9-2.2 10.4-1.2ZM254.8 277c-.2 1.4-2.6-.3-10.2-7.5-8.6-8-9.6-9.4-8.1-10.2 1.5-.9 3.2.4 10.2 7.4 5.5 5.5 8.3 9.1 8.1 10.3Zm-98.6-15.4c-.2 1-1.5 3.2-2.8 4.8-1.4 1.6-3.7 5.2-5.1 8-2.3 4.5-7.4 10.7-7.3 8.8.1-.6 3.1-6.1 10.5-19 2.9-5 5.4-6.4 4.7-2.6Zm3.4 4c-4.6 6.9-8.6 15.8-7.5 16.5 1.1.6-.3 2.6-9.9 14.8-1.1 1.4-1.4 1.4-2.2.1-.7-1.2-1.2-1.1-3.1.5-2.4 2.2-2.4 2 1.1-4.8 1.3-2.6 3-4.7 3.7-4.7 1.5 0 1.7 1.6.3 2.5-.5.3-1.5 1.5-2 2.6-.8 1.4-.7 1.9.2 1.9.8 0 2.7-2.9 4.3-6.5 1.7-3.6 3.6-6.5 4.3-6.5.6 0 1.2-.7 1.2-1.6 0-1.7 6.5-15.8 8.3-18.2 2-2.5 3.1.5 1.3 3.4Zm91.3 11.9c4.9 3.8 6.1 5.4 6.1 7.6 0 3.8-1.6 4.5-3.6 1.4-.9-1.4-5.1-6.1-9.3-10.4-4.2-4.3-8.5-9.3-9.5-11.2-1.8-3.1-1.4-2.9 4.1 2.2 3.4 3.1 8.8 7.8 12.2 10.4Zm139.5-.5c.5 11.8.9 15.4 2.1 20.7 1 4.6-2.8 1.6-5.6-4.2-.8-1.7-1.6-5.2-1.8-8-.1-2.7-.5-5.3-.7-5.7-.9-1.5 4.2-16.8 5.2-15.5.1.1.4 5.8.8 12.7Zm-144.2 5.3c3.7 3.7 6.8 7.1 6.8 7.6s1 1.1 2.2 1.5c1.8.4 2 .8 1 1.8-.9.9-1.6.7-3.4-1.3-1.2-1.3-7-7.6-13-14-5.9-6.4-10.5-11.9-10.2-12.2.3-.3 2.6 1.8 5.2 4.6 2.5 2.9 7.6 8.2 11.4 12Zm-135.4-7.9 6.2 6.4-1.9 5.4c-3.6 10.4-8.1 16.4-15.4 20.6-4.9 2.8-5.7 2.8-5.7-.2 0-1.4-.4-2.7-.9-3-1-.6-7.4-16.5-8.5-20.9-.5-2-.3-2.7.9-2.7.8 0 1.5.6 1.5 1.3 0 .7 2.3 4.3 5 8.1 2.8 3.8 5 6.5 5 6.1 0-.4-.8-1.9-1.9-3.3-1.8-2.7-6.4-12.4-5.9-12.7 2.7-1.6 10.8-7.9 12.2-9.4 1.1-1.2 2.2-2.1 2.6-2.1.4 0 3.4 2.9 6.8 6.4Zm120.2-2.5c0 .5.8 1.2 1.8 1.5.9.3 2.8 2.3 4.2 4.3 1.4 2.1 5.3 7.5 8.8 12.1 6.5 8.8 7.2 10.6 4.6 11.6-2 .8-1.6 1.1-4.4-4.4-1.3-2.5-5.6-9.3-9.6-15.3-4.1-5.9-6.9-10.7-6.4-10.7.6 0 1 .4 1 .9ZM80.7 282.7c0 2.1 1.2 8.5 2.7 14.3 1.4 5.8 2.8 11.5 3.1 12.7.4 1.7.1 2-1.3 1.6-2-.5-5.6-8.1-10.2-21.6-1.6-4.9-3-9-3-9.2 0-.2 1.9-.6 4.3-.8 2.3-.2 4.2-.4 4.2-.5.1-.1.1 1.5.2 3.5Zm2.3-.7c0 .5-.5 1-1.1 1-.5 0-.7-.5-.4-1 .3-.6.8-1 1.1-1 .2 0 .4.4.4 1Zm53.3 4.7c-.3.7.2 1.3 1.1 1.3 1.5 0 1.5.3.2 3.5-.8 1.9-2.4 4.4-3.5 5.7-1.2 1.2-2 2.8-1.9 3.6.2.8-.3 1.7-1.1 2-.8.3-1.1 0-.7-.6.4-.7.2-2.1-.4-3.2-.9-1.6-.6-2.7 1.5-5.7 3.4-5.1 3.2-7.7-.3-3.6l-2.8 3.2-1.1-3c-1-2.5-.9-3.5.3-5.4 1.5-2.3 1.6-2.3 5.3-.7 2.3 1 3.7 2.2 3.4 2.9Zm-13.8 1.5c.4 2.4.9 5.6 1.1 7.3.3 1.6 1.6 4.7 3 6.7l2.4 3.8-6.2.2c-6.7.2-14.1-.2-14.6-.7-.2-.2 1.5-2.7 3.7-5.6 2.2-3 5-7.7 6.2-10.6 1.2-2.9 2.5-5.3 2.9-5.3.5 0 1.1 1.9 1.5 4.2Zm-34 10.8c1.4 4 3.2 8.1 4.1 9.1 1.7 1.9 1.2 3.9-1.1 3.9-.8 0-2-2.3-3-5.8-.9-3.1-2.2-7.4-3-9.5-.8-2-1.5-4.5-1.5-5.4 0-3.2 1.9.1 4.5 7.7Zm294-6.9c.4.6.1.9-.7.7-.7-.2-4.8 1.4-8.9 3.6-5.7 2.8-9.8 4.1-15.8 4.9-4.4.6-8.4.8-8.7.4-.3-.3.2-1.7 1.3-3.1 1.4-2 2.7-2.5 6.1-2.6 2.3 0 7.7-.9 12-1.9 13.6-3.4 13.8-3.5 14.7-2Zm2 5.5c-1.6.7-4.7 1.6-6.7 2-2.1.4-4.3 1.4-5 2.2-1.1 1.3-1 1.5.2 1 7.4-2.6 9-3 10.6-2.4 1.8.7 1.7.9-.6 2.6-4.2 3.2-34.1 12-40.5 12-1.1 0-.6-1.4 1.5-5.3l2.8-5.2 6.9-.6c5.7-.6 17.2-3.4 28.3-6.9 4.1-1.3 5.7-1 2.5.6Zm-245 4.4c-.3.5-1.1 1-1.6 1-.6 0-.7-.5-.4-1 .3-.6 1.1-1 1.6-1 .6 0 .7.4.4 1Zm-2.5 2.8c0 .4-.9.8-2 .9-1.6.1-1.7-.1-.7-1.2 1.2-1.3 2.7-1.1 2.7.3Zm-2.1 3.4c2 1.2 5.8 4.3 8.5 7 2.7 2.6 5.3 4.8 5.7 4.8.5 0 .9.6.9 1.4 0 .8.9 3.1 2.1 5.1 2.2 3.6 2 6.5-.4 6.5-.8 0-1.9-1-2.5-2.3-2.4-4.6-9.5-14.2-13.1-17.8-3.6-3.5-6.4-6.9-5.6-6.9.4 0 2.4 1 4.4 2.2Zm-27.3-.2c.6.6 2.5 1.2 4.2 1.3 3.3.2 4.3 2.1 1.8 3-1.6.6-9.6 12-9.6 13.6 0 2.1 2 1.1 3.4-1.7 1.9-3.8 14.3-15.5 15.6-14.7.5.3 1 1.1 1 1.7 0 .6.6 1.9 1.4 2.7.8.9 2.3 3.4 3.5 5.6 1.2 2.2 2.1 3.2 2.1 2.3 0-1-1.1-3.7-2.5-6.2-3-5.3-3-5.6-.7-5.6 3 0 12.9 11.8 17.4 20.7l2.6 5.2-5.4 4.1c-2.9 2.2-6.1 4-7 4-.9 0-1.8.8-2.1 1.8-.2 1.1-2.3 2.7-4.6 3.7s-6.2 3.9-8.5 6.4l-4.4 4.6-2.1-3c-1.2-1.6-3.2-4-4.4-5.2-1.3-1.3-2.3-2.8-2.3-3.2 0-.4-2-2.6-4.5-4.8C95.6 338.2 86 324.7 86 321c0-.6 1-1.4 2.3-1.9 1.3-.5 3.8-2.2 5.7-3.7 5.7-4.9 10.5-8.3 11.6-8.3.5-.1 1.5.4 2 .9Zm285.2 5.3c1.6 1.5 2.2 3.2 2.2 6.1-.1 4.5-1.3 6.6-4.8 8.5-6.2 3.3-16.1-2.9-14.8-9.2.3-1.6.6-3.7.6-4.7 0-1.1 1.4-2.3 3.7-3.3 4.4-1.7 9.5-.7 13.1 2.6Zm-21.8-2.5c0 1.6-10 5.4-22.6 8.6-8.6 2.2-10.6 2.1-10.2-.5.3-1.8 1.1-2.1 5.8-2.4 5.2-.3 9.4-1.3 20-4.8 5.4-1.8 7-2 7-.9Zm0 7.5c.1.7.9 3 2 5.2 2.1 4.3 2.5 6.5 1.2 6.5-.5 0-1.5 1.2-2.3 2.7-.8 1.6-2.9 5.4-4.7 8.5-3.4 5.8-4.6 10.4-3.1 11.4.5.3 1.2-.3 1.5-1.3 2.3-7.4 5.2-13.4 8.2-16.6 4.4-4.6 6-4.8 3.4-.4-1 1.8-3.4 7.1-5.1 11.7-1.8 4.6-4.2 10.3-5.3 12.7l-2 4.3 2.3 1.9 2.4 2-3.7-.8c-2-.5-4.4-1.6-5.3-2.5-1.5-1.4-1.5-1.9.1-5.1 1.7-3.7 1.2-7-1-6.2-.8.3-2.3-.8-3.6-2.6-1.3-1.8-2.9-3.6-3.7-4-.7-.4-1.3-1.4-1.3-2 0-.7-.8-2-1.9-2.9-3.7-3.1-10.4-12.9-9.5-13.8.5-.5 4-1.6 7.7-2.4 8.6-2 19.7-6.7 19.7-8.4 0-1.7 4 .3 4 2.1Zm-124.5 9.5c1.7 2 2.5 3.3 1.8 2.9-.7-.4-2.2.3-3.5 1.5-1.3 1.3-3.7 3.6-5.4 5.1l-3.2 2.8-3.5-3c-1.9-1.7-4-3.1-4.6-3.1-2 0-1.1 2.8 1.6 4.8l2.7 1.9-4.8 4.7c-5 4.8-7.7 5.6-11.1 3-1.9-1.4-1.8-1.6 2.3-5.6 2.3-2.2 5-5.4 5.9-6.9 1-1.6 2.3-2.9 3.1-2.9 1.4 0 11.8-6.6 12.8-8.1 1-1.7 2.9-.8 5.9 2.9Zm4.5 4.8c0 .4-1.6 2.2-3.5 4.1-1.9 1.9-3.5 3.6-3.5 3.8 0 1.5 3 .1 5.5-2.5 2.8-2.9 4.5-3.8 4.5-2.2 0 .4-2 3-4.4 5.7-3.8 4.3-4.5 4.7-5.1 3.2-.4-1-1.9-2.3-3.4-2.9l-2.6-1 4.8-4.4c4.4-3.9 7.7-5.6 7.7-3.8Zm9.5 5.6c10.1 1.7 30.1 6.2 30.9 6.9.5.4.2 2.2-.8 4.2-.9 1.9-1.6 4.1-1.6 4.8 0 1.8-15.5.5-25-2.1-7.6-2.1-15-4.9-15-5.8 0-1.4 7.4-10.2 7.9-9.4.3.5 2 1.2 3.6 1.4Zm89.9 9.9c-.2.4-3 1.9-6.1 3.4-5.6 2.5-5.7 2.5-7.7.6-1.2-1-4.7-3.3-7.8-5.1-3.2-1.7-5.8-3.6-5.8-4.2 0-.5.4-.7.9-.4.5.3 2.8-.1 5.2-1 2.4-.8 6.2-1.9 8.4-2.3 3.8-.7 4.2-.6 8.7 3.7 2.6 2.5 4.5 4.9 4.2 5.3Zm-35-3.6c-1.6 1.1-4.9 4-7.3 6.5-4.3 4.5-4.3 4.5-3.7 1.5.4-1.7.9-3.8 1.2-4.8.3-.9.1-1.7-.4-1.7s-1.2 1.8-1.6 3.9c-.6 3.8-2.1 5.9-3.3 4.7-.4-.3-.1-3.1.6-6.1 1.1-4.8 1.5-5.5 3.2-5 1.3.4 1.9.2 1.9-.9 0-1.9 4.4-2.4 8.9-1.1l3.4.9-2.9 2.1Zm-81.4-1.1c0 1.6-6.4 9.6-8.7 10.9-3.2 1.9-2.3-.5 2.3-6.2 5-6.1 6.4-7.2 6.4-4.7Zm64.5 2.8c-1.1 5.9-2.7 8.8-4.6 8.8-1.6 0-1.8-.5-1.3-2.8 1.3-5.4 3.3-9.2 4.9-9.2 1.3 0 1.5.6 1 3.2Zm-58.8.4c.2.6-1.5 3.4-3.8 6.3-2.3 2.8-3.9 5.5-3.5 5.8.8.9 5.4-3.5 6.9-6.7 1.4-2.8 1.9-2.8 9.7-.5 11 3.2 12.6 3.6 18 4.1 3 .3 6.2.7 7 1 .8.3 6.7.8 13 1.1 6.3.3 12.3.6 13.3.6 2.4.2 2.2.9-1.3 4.2-1.7 1.6-2.8 3.5-2.6 4.1.3.9-2.8 1.4-11.2 2-14.5.9-25.4-.5-39.7-5.2-5.8-1.9-11.1-3.4-11.8-3.4-.7 0-1.7 1-2.2 2.2-1.2 2.7-6.5 4.4-6.5 2.1 0-.8.5-2.3 1-3.4.8-1.5.7-1.9-.4-1.9-.8 0-1.7 1.3-2.1 3-.4 1.6-1 3-1.5 3-1.8 0-2.1-2.1-.6-5 1.2-2.5 1.2-3 .1-3-.8 0-1.7.9-2 2.1-.8 2.5-3.1 1.9-2.7-.7.7-4.4 1-4.5 5.3-2.3l4.2 2.1 4.9-5.3c2.6-2.9 4.8-5.9 4.8-6.6 0-1.6 3.1-1.4 3.7.3Zm83.3.8c1.9 2.4.8 5.8-2.3 6.9-3.7 1.2-4.1.7-2.6-4.2 1.3-4.3 2.8-5.1 4.9-2.7Zm33.8 6.6c1.2 1.2 2.2 2.7 2.2 3.4 0 .8-2.7 4.2-6 7.6-3.3 3.4-5.2 6-4.2 5.8 1-.3 2.2 0 2.8.6.8.9-.1 1.1-3.3 1-5.7-.2-10.3 1.5-10.3 3.8 0 1.9 3.4 2.6 4.4.9.3-.5 1.6-1.1 2.8-1.3 2-.4 2.3 0 2.4 3.1.2 4.5 1.8 11.8 4.5 19.9 2.6 7.9 3 10.8 1.8 15.3-.5 1.9-.9 8.2-1 13.8l-.2 10.3-3.3 2c-4 2.4-4.1 3-1.1 7.1 1.2 1.8 2.8 4.3 3.6 5.7 1.9 3.6 2.6 14.9 1.2 20.7-.9 3.6-.9 5.7-.1 7.8 1.8 4.7.3 12.1-3.2 16.1-2.6 2.9-3.6 3.4-7.5 3.4-3.8 0-4.3.2-3.4 1.4 2.4 2.9 7.5 2.8 13.2-.1 10.4-5.3 11.3-5.6 17.6-4.3 9.3 1.8 14.3 3.9 14.3 6 0 1.1.8 3.5 1.7 5.4 1.5 3.3 1.5 3.9-.2 9.7-5.1 16.7-16.2 21-34.5 13.3-4.7-2-9.8-3.8-11.3-4.1-2.7-.5-2.8-.8-2.1-3.7 1.9-7.6.4-20.8-3.2-29.4-1.6-3.8-1.2-5.2 1.7-5.2 2.5 0 3.6-2.7 2.1-5.1-.7-1-1.2-2.6-1.2-3.4 0-1.1-1.1-1.5-4.4-1.5h-4.5l-4.6-9.8c-5.1-10.8-5.2-11-8.5-16.9l-2.4-4.3 2.3-2.4c2.3-2.4 2.3-2.5.5-5.5-1.4-2.4-2.5-3.1-5-3.1-2.6 0-3.4-.6-4.4-3-.7-1.7-1.6-3-2.1-3-.4 0-.1-2.4.8-5.3.8-2.8 1.8-7.2 2.2-9.7.5-3.8 1-4.5 2.8-4.2 1.4.2 2.9-.9 4.9-3.6 2.9-3.9 9.4-10 9.4-8.7 0 1.2 8-3.9 8.5-5.4 1.7-5.6 4.1-19.8 3.5-21-.5-.9-.2-2.5.7-3.8 2.1-3.2.8-4.2-1.7-1.5-1.1 1.2-3.2 2.5-4.5 2.8-2.9.7-3.4 3.4-.6 3.4s5.1 1 5.1 2.3c0 1.9-4.3 5.7-6.3 5.7-1.1 0-2.5.6-3.1 1.4-.6.7-2.4 1.7-4 2l-2.9.7.7-4.2c.4-2.3.9-4.5 1.1-5 .9-1.3 4.7.4 5.5 2.5.7 2 .8 2 1.5-.6 1.1-4.1 0-6.1-2.4-4.8-4.5 2.4-7.6.5-6.4-3.8.5-2.2 4.4-3.6 7.4-2.7 1.6.5 1.9.1 1.9-2.5 0-3.1.2-3.2 3.3-2.8 1.7.3 3.9.7 4.7.9 1 .3 1.4-.2 1.2-1.4-.4-2.4 0-2.2 4.1 1.8 3.5 3.4 5.7 4.4 5.7 2.6 0-.5-1.8-2.7-4-4.8l-3.9-4 2.7-1.3c2.4-1.2 10.8-4.5 12.3-4.9.3 0 1.5.8 2.7 1.9Zm-23 3.5c.2 1.7-.8 2.3-6.2 3.9-5 1.5-6.6 2.5-7 4.2-.4 1.6-1.1 2.1-2.6 1.7-1.2-.3-2 0-2 .6 0 .7-.5.9-1 .6-.6-.4-.8-1.1-.4-1.6.7-1.2-.5-6.9-1.6-6.9-.4 0-1 1.3-1.3 2.8-.6 3.2-5.9 6.2-10.7 6.2h-2.9l2.4-2.6c1.4-1.5 2.5-3.2 2.5-3.9 0-2 7.4-3.8 13.4-3.3 3.9.3 5.6.1 5.6-.7 0-1.8 4.1-3.4 8-3.2 2.7.1 3.6.7 3.8 2.2ZM215 358c0 2.7 7.4 10.5 9 9.5.9-.6.9-.3.1 1.4-.8 1.4-1 6.4-.6 15.9 1.2 25.6 1.2 25.2-.2 25.2-.9 0-1.3-1.5-1.4-4.8 0-2.6-.3-7.6-.7-11.2-.4-3.6-.7-11.1-.7-16.8 0-9-.2-10.2-1.7-10.2-1.6 0-1.7 1.2-1.2 13.7.2 7.6.6 17.3.9 21.5.2 4.3 0 8-.4 8.2-1.1.7-7.8-4.1-9.1-6.4-.6-1.1-1.6-1.7-2.5-1.4-2 .8-2-2.6.1-18.1 1.5-12.1 3.9-23.5 5.6-26.8 1.2-2.3 2.8-2.2 2.8.3Zm22.1 7c2.6 0 3.5 2.5 2 5.6-.9 2-1.7 2.5-3.9 2.2-2.2-.2-2.8-.8-3-3.5-.4-3.7 1.9-9.1 2.6-6.1.2 1 1.2 1.8 2.3 1.8Zm127.5 4.5c3.2 2 6.4 3.3 7.2 3 2.1-.8 2.6 2.5 1 5.9-.8 1.7-4.1 8.4-7.2 14.8-3.2 6.5-6 11.8-6.4 11.8-1.2 0-8.2-18.3-8.2-21.4 0-2.1 2.1-2.5 5.7-.9 5.8 2.4 6.6 1.4 1.7-2-2.7-1.8-4.8-3.9-4.6-4.7.2-.7.4-2.7.5-4.4.2-3.3 1.5-5.5 3.3-5.6.6 0 3.8 1.6 7 3.5Zm-111.3 0c.4.8-.6 2.4-2.4 3.9l-2.9 2.5 4.2 2.9c2.4 1.6 6.1 3.6 8.3 4.4 3.5 1.4 6 1.9 15 3.3.6.1 4.4.3 8.6.3l7.7.2-.5 3.5c-.3 2 0 4.9.5 6.5 1 2.7.7 3.4-3.3 8.3-5.1 6.2-11.2 11.2-17.5 14.6-6.9 3.7-16.5 3.3-27-1.2-3.5-1.5-6.6-.9-10.8 2l-3.7 2.5-.6-4.4c-1-6.3-.1-9.2 3.2-11.2 1.6-.9 2.9-2.4 2.9-3.2 0-1.7 2.6-1.9 3.6-.3 1.6 2.7 11.1 5.6 20.1 6.3 9.1.7 9.3.6 16.1-2.8 3.7-1.9 7.5-4.2 8.2-5.1 1-1.2-.8-.6-5 1.5l-6.5 3.3-12.2-1c-11.9-.9-12.4-1-18-4.8-3.2-2.2-6-4-6.1-4.1-.2-.1-.8-3.3-1.2-7.1-1-7.6-.4-14.1 1.4-14 .6 0 3.5-.1 6.3-.1 4.9-.2 5.3-.4 5.9-3 1.2-4.8 4.5-7 5.7-3.7Zm4.7 2c0 1.2-2.4 5.5-3.1 5.5-1.3 0-1.8-1.6-1.2-3.8.3-1.3 1.3-2.2 2.4-2.2 1.1 0 1.9.2 1.9.5Zm6.5.4c.8 1.4-2.6 8.1-4.2 8.1-1.4 0-1.6-1.3-.7-5.9.6-3 3.5-4.3 4.9-2.2Zm23.3 4.1c.3 4.4-2.6 8.4-5.6 7.8-1.8-.3-3-5.3-2.4-9.8.3-2.3.7-2.5 4.1-2.2 3.5.4 3.7.6 3.9 4.2Zm27.5-4.4c.9.3 1.3 1.3.9 2.7-.8 3.6-2.2 4.7-4.9 4-1.9-.4-2.4-.2-2.1.8.2.7 1.8 1.7 3.6 2.1 6.1 1.6 4.9 7.8-1.5 7.8h-3.4l.4-4.4c.3-2.5 0-4.9-.6-5.5-.8-.8-.7-1.1.2-1.1.9 0 1.2-1 .9-3-.4-2.3 0-3 1.6-3.3 1.2-.2 2.4-.5 2.8-.6.3 0 1.3.2 2.1.5Zm-84.5 14.3c.1 7.7.7 14 1.3 14.8.8.9.7 1.7-.4 2.8-.9.8-1.7 1.5-2 1.5-.2 0-.7-5.1-1.1-11.3-.3-6.1-.9-13.6-1.1-16.5-.4-4.7-.3-5.3 1.2-5 1.6.3 1.8 1.9 2.1 13.7Zm44.7-9.4c0 3-.4 4.1-1.7 4.3-1.2.2-1.6-.1-1.2-1.1.3-.8 0-1.8-.6-2.2-.9-.6-.9-1 .1-1.6 1.1-.6 1.1-1.1.2-2-.8-.8-1.5-.4-2.7 2-.9 1.7-2.3 3.1-3.1 3.1-1.8 0-1.9-.9-.5-4.5.9-2.3 1.4-2.5 5.2-2.3 4.3.3 4.3.3 4.3 4.3Zm29.5-3.3c0 .7.3 2.2.6 3.4.5 1.7-.1 2.2-4.1 3.1-3.9.9-4.8.8-5.2-.4-.3-.8-.1-1.8.4-2.2.6-.3 1.3-1.6 1.7-2.9.6-1.6 1.5-2.2 3.7-2.2 1.6 0 2.9.5 2.9 1.2Zm.8 13.6c.3 3.4 0 3.6-5.4 4.6-2.9.5-3 .4-2.6-2.7.6-4.1 2.2-5.7 5.2-5.4 2 .2 2.6.8 2.8 3.5Zm22 6.4c-1.1 1-2.9 1.8-4 1.8-1.6 0-1.9-.5-1.4-2.3.3-1.2.6-2.7.6-3.4 0-.6 1.2-1.3 2.8-1.5 3.6-.4 4.8 2.9 2 5.4Zm-8.1-1.4c2 1.2 1 4.6-2 6.6-1.9 1.3-2.6 2.4-2.2 3.6.6 2-2.4 5.5-5.6 6.3-1.6.4-1.8.1-1.3-2.1.4-1.5 1.3-4 2-5.6.8-1.6 1.4-4.2 1.4-5.7s.6-3 1.3-3.2c1.9-.8 5.1-.8 6.4.1Zm-12.3 4.1c2.3 2-.5 7.1-3.9 7.1-3 0-3.3 1.6-.5 2.5 3.4 1.1 2.2 6.5-1.4 6.5-2.8 0-4.6 1.8-4.6 4.4 0 2.9-4.8 17.9-8.1 25.1-1.5 3.3-3.1 7.2-3.4 8.7-.4 1.6-1.4 2.8-2.1 2.8-1.7 0-1.1-3 1.6-9.5 3.6-8.4 8.9-26.6 9.5-32 .1-1.7 1.2-4.6 2.4-6.5 1.1-1.9 2.1-5.1 2.1-7 0-3.4.1-3.6 3.4-3.5 1.9.1 4.2.7 5 1.4ZM293 406.2c0 .7-.7 2.2-1.5 3.2-.8 1.1-1.5 2.9-1.5 4.1 0 2.9-14 43-20 57.3-.6 1.3-1 3.4-1 4.7 0 3-7.6 21.3-10 24-1 1.1-2.8 4.8-4 8.3-1.8 4.9-2.7 6.2-3.9 5.7-3.8-1.5-12.8-3.5-15.6-3.5-5.5 0-6.2-1.3-3.6-6.4 2.7-5.4 6.7-19.8 7.6-27.1.6-4.8 1-5.4 4.3-6.9 9.4-4.5 13.8-10.5 16.3-21.9.8-3.9 1.6-5.6 2.5-5.3 2.7 1.1 8.2-1.6 13.8-6.8 5-4.7 5.7-5.7 4.6-7.1-1.1-1.3-1.7-.8-4.9 3.7-3.8 5.4-5.2 6.1-14.1 7.2-2.5.3-4.7.5-4.9.5-.2.1-.1 1.1.3 2.4 1.2 5.1-4.4 16.5-9.9 20.1l-2.2 1.4.5-10c.4-9.3.7-10.4 3.7-15 1.8-2.7 3.6-6.5 3.9-8.4.4-1.9 1.2-3.5 1.9-3.5.7-.1 2.3-.3 3.7-.4 9.1-.7 15.9-4.5 25.6-14.3 7.2-7.1 8.4-8 8.4-6Zm-80.8 5.1c1.4.5 1.7 1.7 1.7 5.7-.1 2.8-.5 5.2-.9 5.5-.4.2-2.4-.8-4.3-2.3-3.4-2.6-3.6-3-3.7-8.6v-6l2.8 2.6c1.5 1.4 3.5 2.8 4.4 3.1Zm7.8 6c0 4.9-1.2 7.7-3.2 7.7-.4 0-.8-2.9-.8-6.5 0-5.8.2-6.5 2-6.5 1.7 0 2 .7 2 5.3Zm5.6 10.4c-1.3 3.3-2.7-.3-2.5-6.5.3-9.9 2.3-11.6 2.7-2.2.2 4 .1 7.9-.2 8.7Zm135.3-4.5 2.9 8.6-3.2 3.1c-1.8 1.7-3.5 3.1-3.9 3.1-.4 0-.7-3.3-.7-7.4 0-7.4 1-17 1.7-16.3.2.2 1.6 4.2 3.2 8.9Zm-57.6-7.5c1.4 2.4-13.1 41.3-15.3 41.3-1.3 0-1.3-1.5 0-3.8 2.7-4.8 6.3-14.6 8.5-23.3 1.4-5.4 2.9-10.9 3.5-12.3.9-2.5 2.4-3.4 3.3-1.9Zm-95.4 6c2 1.4 3.7 2.7 3.8 2.7.1.1-.2 1.9-.7 4.1-.5 2.2-1.2 6.5-1.5 9.5-.4 3-1.3 7.7-2 10.5-.8 2.7-1.6 9.5-1.9 15-.6 11-1.7 27.3-2.1 32-.2 1.6-.3 5.6-.4 8.8-.1 5.5-.2 5.8-3.5 7.4-1.9.9-4.1 1.3-5 1-1.3-.5-1.3-1.1.5-5.1 2.3-5.3 5.8-20.7 5.7-25.1-.1-1.7.1-7.1.5-12 .4-5 .9-18.6 1.3-30.3.3-11.6.9-21.2 1.2-21.2.3 0 2.1 1.2 4.1 2.7Zm38.7 2.4 5.1 1.1-1.3 4.7c-1.9 7.1-2.3 7.8-5.8 9.5l-3.2 1.5.4 8.5c.6 12-.1 15.2-3.8 15.9-2.7.6-2.8.9-2.3 4.2.8 4.9-1.3 17.4-4.5 27-1.4 4.4-2.6 8.2-2.7 8.5 0 .3-.6 1.4-1.3 2.5-.9 1.4-1.5 1.6-1.8.7-.3-.6-.9-1-1.4-.7-.4.3-4 .7-7.9 1-4 .2-7.6.7-8 1-1.7 1-2-5.2-1.4-26 .6-22.9.8-27.2 1.6-29.5.3-.8.8-2.9 1-4.5.8-4.8 1.6-7.7 2.3-8.4.4-.3.3 1.6-.1 4.4-1.1 7.6-1.3 13.3-.8 21.2.8 10.5 2.4 7.9 2.2-3.5-.1-9.6 1-26.6 1.7-25.9.2.2.6 5.3.9 11.3.3 6 .8 14 1 17.9.2 3.8.4 11.6.5 17.3 0 9.3.2 10.3 1.8 10 1-.2 1.6-1.2 1.5-2.3-.2-2.5-2.1-32.8-2.9-47.3-.5-8-.3-11.2.5-11.2.6 0 1.1.6 1.2 1.2.4 10 1.1 17.8 1.9 20.7.5 2 1 5.1 1 6.9 0 1.8.4 3.1.8 2.8.4-.2.2-6.2-.4-13.3-1.7-17.1-1.7-21.3-.1-21.3.9 0 1.2 3.2 1.4 12.3.2 13.3 2 27.4 3.6 28.4.6.4.7-2.3.3-7.8-.4-4.6-.7-14-.8-20.8l-.1-12.4 4.7-2.4c2.6-1.3 5-3.1 5.3-3.9.4-1 1.3-1.4 2.7-1 1.1.4 4.4 1.1 7.2 1.7ZM369 446.5c5.3 13.6 7.4 20.3 10 31.5 1.3 5.2 3.1 12.2 4.1 15.5 1 3.3 1.7 6.1 1.5 6.2-.1.2-2.5-.6-5.2-1.6-7.7-2.8-14.3-3.3-19.9-1.6-2.7.8-5 1.3-5.2 1.2-.1-.2.7-2.1 1.9-4.3 1.5-2.8 2.1-5.5 2.1-9.6-.1-3.2.3-6 .8-6.3 2.1-1.4.9-11.9-2.7-22.3l-3.6-10.6 4.3-3.5c2.4-2 5-4.4 5.9-5.4 1-1.2 1.6-1.4 1.8-.5.2.7 2.1 5.8 4.2 11.3ZM213 436c0 .5-.5 1-1.1 1-.5 0-.7-.5-.4-1 .3-.6.8-1 1.1-1 .2 0 .4.4.4 1Zm90.6.7c1.9 2.5 1.7 3.9-.8 6.3-3.2 3-1.5 3.5 3.5 1.1 4.5-2.2 6.7-2.6 6.7-1.4-.1.9-6.8 8.3-7.5 8.3-1.2 0-7.5-7.2-7.5-8.6 0-1.8 2.8-7.4 3.7-7.4.3 0 1.2.8 1.9 1.7Zm-1.8 16.9c5.7 8.8 10.7 18.1 13.7 25.4 2.8 7 4.5 10.8 7.2 16.7 1 2.1 1.8 4 1.9 4.3 0 .3.4 1.3.9 2.3.4 1 .5 2.1.1 2.4-.3.3-1.2-.9-2-2.8-2.2-5.3-5.5-12.2-6.5-13.9-.5-.8-2.6-4.9-4.6-9-4.6-9.4-9.9-18.9-14.2-25.7-2.2-3.5-2.9-5.3-2-5.6 1.5-.5 1-1.1 5.5 5.9Zm14.7 10.6c3.7 7.3 7.4 14.2 8.1 15.3 1.4 1.9 2 5.4.7 4.2-.3-.4-1.3-.1-2.1.6-1.2 1-1.6.9-2-.3-1.2-3.5-14.6-28.6-15.8-29.6-1.1-.9-1-1.3.9-2.2 1.2-.6 2.5-1.1 2.8-1.1.3-.1 3.6 5.9 7.4 13.1Zm-21.4-9.6c.8.9 2.6 4 4 6.8s4.8 9.1 7.4 14.1c9.8 18.5 14.6 28.6 14.2 29.8-.3.7-1-.2-1.6-1.8-.6-1.7-1.5-3.7-2.1-4.5-.5-.8-2.1-4-3.5-7-2.9-6.2-16.8-31-19.7-35.2-1-1.4-1.8-2.9-1.8-3.2 0-1.2 1.8-.6 3.1 1Zm-14.7.9c-.4.8-1 1.5-1.5 1.5-.4 0-.6-.7-.3-1.5.4-.8 1-1.5 1.5-1.5.4 0 .6.7.3 1.5Zm54.6 29.2c0 1.6-1.9 2.8-9.1 6.1-.3.1-1-.8-1.6-2-1-2.1-.7-2.4 4.1-4 6.6-2.1 6.6-2.1 6.6-.1Zm-30.6 11.1c2.7 5.9 5.5 11.5 6.2 12.5 1 1.6.6 3.2-2.8 10.5-4.4 9.7-7.2 15.3-11.4 22.7-1.5 2.7-8.5 16.2-15.4 30-16.2 31.9-25 48.6-26.5 50.5-.7.8-1.9 2.8-2.7 4.5-5.2 10.7-16.1 28.6-16.8 27.5-.8-1.2.3-6.6 2-10.5.5-1.1 1.3-3.6 1.9-5.5 4.7-15.8 10-31.3 13.8-40.5 2.4-6.1 6-15.3 7.8-20.6 4.3-12.3 9.7-25.5 14.1-34.5 1.9-3.9 3.4-7.3 3.4-7.6 0-.3 2.5-5.9 5.6-12.3 4.4-9.4 9.8-22.7 11.8-29 .2-.6.8-2.3 1.4-3.8.7-1.6 1.2-3.3 1.2-3.8 0-2.8 2 .3 6.4 9.9Zm27.2-.7c.7 1.3 1.5 4.1 1.8 6.1 1 5.4-1.9 5.2-3.4-.2-.6-2.1-1.7-4.5-2.5-5.3-1-1.1-1.1-1.7-.2-2.6 1.6-1.6 3-.9 4.3 2Zm4.2 21.7c.2 6.4.1 7.2-1.6 7.2-1 0-3.9 1.3-6.5 3-2.6 1.6-5.3 3-6 3-.7 0-1.8-2.7-2.5-6.6-.7-3.6-2-7.6-2.9-9-1.8-2.9-.9-4.6 1.1-1.9 1.3 1.8 1.5 1.8 6.7-.2 11.5-4.5 11.3-4.6 11.7 4.5Zm-99.9-2.8c15.2 2.6 16.3 2.8 17 3.5.3.3-.4 2.5-1.6 4.8-1.2 2.3-2.5 5.4-2.9 6.9-.3 1.6-.9 2.8-1.3 2.8s-3.3-1.8-6.3-4c-7.6-5.4-20.4-11.1-25.3-11.2-2.2-.1-6 .1-8.4.5-3.5.4-4.8.2-5.8-1.1-1.5-2.1-1.7-4-.3-2.6.8.8 2.7.7 6.3-.2 7.6-1.8 15.5-1.7 28.6.6Zm-40.9 1.9c3.3 1.3 3.5 1.6 3.7 6.6l.2 5.2-3.9 1.2c-3.6 1-4.4.9-9-1.4l-5-2.6 3.7-4c2.1-2.2 4.2-4.7 4.6-5.5.5-.9 1.2-1.4 1.5-1.2.4.2 2.3.9 4.2 1.7Zm26.1 5.2c7.1 2.1 17.2 7.8 20.2 11.5 1.6 1.9 3.5 3.4 4.3 3.4 1.7 0 1.8 3.2.3 13.3l-1.1 7.5-3.7.6c-2 .3-6.1 1.8-9.1 3.2-5.7 2.7-10.1 3.3-13.5 2-1.9-.7-2-.7-.1.8 1.8 1.5 1.8 1.6-.7 2.5-3.6 1.4-10.5 1.7-11.5.5-8.2-9.6-12.5-17.2-14.3-24.9-.6-2.8-1.5-5.8-2-6.7-1.3-2.6-1.2-2.8 2.1-2.8 2.5 0 3 .4 3 2.5 0 5.4 12.6 24.3 14.7 22.1.4-.4-.6-2-2.3-3.4-3-2.6-8.6-12.4-10.4-18.5-.8-2.6-.7-2.7 2.9-2.7 3.4 0 3.8-.3 3.5-2.3-.2-1.2-.5-4.2-.8-6.6l-.4-4.4 7.2.6c4 .3 9.3 1.1 11.7 1.8Zm-38.5 8.9c1.8 1.6 3 3.2 2.5 3.5-.5.3-4.1 1.6-7.9 2.9-3.9 1.3-8.3 3.3-9.8 4.5l-2.6 2.1-3.1-2.5-3.1-2.4-4.8 2.7c-3.7 2-4.7 3.1-4.3 4.4.3 1 .8 2.7 1.1 3.7.5 1.5-.4 2.5-4 4.6-2.5 1.4-5.5 4.3-6.8 6.3-1.2 2-4.1 6.2-6.4 9.2-2.3 3-4.9 7.1-5.7 9-.9 1.9-2.7 5.2-3.9 7.2-1.3 2-4.8 8-7.8 13.3-6.6 11.5-19.4 25.6-30.5 33.5-13.4 9.6-12.5 8.6-11.3 12.2 1 2.8.8 3.3-1.1 5-2.7 2.1-3.6 1.7-5.7-2.4-1.5-3-1.5-3.2.2-4.5 1-.7 2.4-1.3 3.2-1.3.7 0 1.2-.6.9-1.3-.2-.6-1.1-1-1.8-.8-6.4 1.8-8.2.4-3-2.3 2.4-1.3 6.8-4.7 18-14.1 11-9.2 20.8-22.4 24.8-33.4.7-1.9 1.7-3.9 2.1-4.5.5-.6 1.9-3.8 3.1-7.1 4.4-11.7 10.3-22.7 14-26.3 2-2 6.4-5 9.7-6.6 3.2-1.5 6.8-3.3 7.9-3.9 14.1-7.8 26.6-13.6 29.4-13.6 2.3-.1 4.3.8 6.7 2.9Zm152.7 1.4c.3.8.9 9.7 1.3 19.8.5 13.1 1 17.5 1.6 15.3 1.3-4.3 1.3-29.5 0-32.6-1.4-3.4-.6-4.3 1.7-2 2.7 2.7 4.1 7.7 4.8 16.8.3 4.6 1 8.3 1.4 8.3 1.5 0 2.2-5.1 1.6-11.8-.9-9.6 1.1-6.5 2.5 4 1 7.6.9 9.4-1 17.4-2.4 10.1-2.4 10.3 4.3 24.9 2 4.4 4.8 12.7 6.1 18.5 4 16.5 8.5 28.4 10.9 28.8 5 .7 6.4 1.4 9.3 4.3 2 2.1 3.8 5.6 5.2 10.3 1.1 3.9 3.4 9.8 4.9 13.1 1.6 3.3 3.2 7.1 3.6 8.5 1.1 3.7 2.3 4.8 5.8 5.6 5.4 1.2 6.8 2.6 11.5 12.4 7.2 14.8 10.5 19.1 18.9 24.2 2.9 1.8 5.3 3.6 5.3 4 0 .4-1.9 1.2-4.2 1.9-8.6 2.3-15.8 9.5-15.8 15.8 0 1.2-1.6 3.8-3.6 5.7-3.5 3.5-3.6 3.6-5.7 1.8-4.1-3.4-4.7-4.8-4.7-10.3 0-7.3-3.4-22.3-9.2-40.1-2.1-6.4-5.4-13.2-10-20.8-6.9-11-8.4-12.4-11.7-10.3-1 .7-1.9.4-2.8-.7-1.9-2.5-1.6-3 2.8-5.2l4.1-2.1.5 2c.3 1.2.9 2.1 1.4 2.1 1.4 0 2-1.9 1.3-4.6-.6-2.2-1.1-2.5-3.3-2.1-3 .6-5.2-.7-7.1-4.2-.7-1.4-1.7-3-2.1-3.5-4.6-5.7-6.3-8.1-10.4-14.6-9.8-15.2-18-32.1-19.1-38.9l-.7-4.1h3.7c3.7 0 4.3-1 3-4.4-.8-2-2.4-2.1-2.4-.2 0 1.5-3 2.6-7.2 2.6-2.5 0-2.8-.4-2.8-3.1v-3.1l6 .4c5 .2 6 0 6-1.3 0-1-.9-1.8-2.2-1.8-9-.7-13.4-.7-14.3 0-.5.4-.8 3-.7 5.8.4 5.1.4 5.1 3.8 5.1 2.8 0 3.6.5 4.4 2.6.6 1.4 1 3.4 1 4.5 0 2 10.1 23.6 13.1 27.9 1.4 2.1 9.9 16.3 14.5 24.2.6 1.1 2.4 3.2 3.8 4.7l2.7 2.8-2.5 2.1c-1.4 1.1-2.6 2.3-2.6 2.6 0 .4 1.1 2.4 2.4 4.5 2.1 3.2 2.9 3.8 5 3.4 3.3-.7 4.6.4 9.9 8.6 9.3 14.3 17.4 36.8 17.6 48.6 0 2.7.3 7.1.6 9.7l.7 4.8h-3.1c-3.1 0-4.8-1.8-5.4-5.9-.2-1.1-.6-2.4-1-2.7-.4-.4-.7-1.7-.7-2.9s-1-4.7-2.1-7.6c-2.8-7-13.5-28.4-16.6-32.9-1.2-1.9-2.3-3.8-2.3-4.2 0-.4-.6-1.6-1.4-2.5-.8-1-4.7-5.9-8.7-10.8-3.9-5-10.9-12.8-15.4-17.5-8.2-8.5-12.2-15.1-18.7-31.5-3.9-9.9-6-35.3-3.7-46.6.6-3 1.2-6.5 1.5-7.9 1.5-8.5 2.6-13 3.1-13 .3 0 .3 3.9.2 8.7-.3 5.9 0 8.7.7 9 2.5.8 2.9-14.4.8-32-.5-4.2-.4-4.7 1.4-4.7 2.7 0 3.1 1.5 3.2 12.7.1 13.6 1.1 25.3 2.1 25.3 1.1 0 1-27.1 0-35.5-.5-4-.4-6.2.3-6.7 1.6-1.1 2.3-1 2.9.6Zm20.3 5.6c1.6.6 6.3 1.3 10.4 1.8l7.5.7.1 13c0 7.1.5 14.8 1.1 17 4.8 18.1 6.8 24.5 10.3 33 4.9 11.6 4.7 13.4-.8 10.5-2.2-1.1-6.2-2.3-9-2.7l-5.1-.6-3.1-9.5c-3.2-10.1-9-21.4-12.7-24.8-2.2-2-2.2-2.2-.8-8.9 2.2-10.3 1.7-16.3-2.2-28.8-.6-2 .2-2.1 4.3-.7Zm-179.1 8.8c-4.9 4.8-11.6 10.7-14.8 13.1-3.2 2.3-5.6 4.5-5.4 4.8.7.6 10.4-6.2 14.9-10.5 4.8-4.5 5.8-3.7 1.7 1.4-6.6 8.5-35.6 37.7-41.4 41.9-6 4.3-6.2 4.6-7.5 10.7-.7 3.5-2.9 9.2-4.9 12.8-4.6 8.3-4.5 8-2.9 8 2.5 0 8.6-10.7 10.4-18.3 1.6-6.9 1.9-7.4 8.3-12.7 10.5-8.8 35.9-34.8 39.2-40.2.4-.7 1.1-1 1.4-.7 1.1 1.2-18.2 25.7-27.4 34.6l-9.5 9.3-.2 7c-.2 4.6-.8 8-1.9 9.6-1.7 2.7-22.3 22.9-25.7 25.2-1.9 1.4-2 1.2-1.7-2.4.2-2.9 1.1-4.6 3.3-6.6 1.7-1.4 2.7-3 2.3-3.4-.5-.5-2.6 1.2-4.7 3.6-3.2 3.7-4 5.3-4 8.6 0 3.6-.8 4.9-7.1 12-3.9 4.3-8.1 9-9.3 10.4-2.8 3.1-5.6 8.7-5.6 11.2 0 1.3-.8 1.8-2.7 1.9-6 .2-9.9-.3-12-1.7-2-1.2-2.8-1.2-7.4.5-5.8 2.2-9.6 1.9-14.6-1.1-2.3-1.4-3.3-2.7-3.3-4.5 0-3.1 4.8-7.8 8.8-8.6 1.6-.3 5.5-3 8.7-5.8 5-4.6 5.8-5.1 6.7-3.6 1.2 2.2 2 2.1 6.2-.6 3.6-2.3 4.6-5.3 2.4-7.5-.6-.6-1-1.3-.7-1.5.2-.2 4.9-3.5 10.4-7.4 5.5-3.9 11.6-9 13.5-11.4 1.9-2.4 4.7-5.8 6.2-7.4 1.5-1.7 4.9-6.4 7.5-10.5 2.6-4.1 5.1-7.7 5.5-7.8.4-.2.8-.8.8-1.3 0-1.5 10.1-18.4 15.8-26.4 5.3-7.5 7.7-10.1 13.6-15.2l3.7-3.2 2.1 2.4c1.2 1.4 2.4 2.5 2.7 2.5.3 0 2.6-1.7 5-3.9 3.2-2.8 4.2-4.3 3.7-5.8-.6-2 .1-2.5 9.8-7.7 2.7-1.4 5.8-2.6 7-2.6 1.6 0 .1 2-6.9 8.8Zm-15.2-2.4c2.5 3.8 3.2 7.6 1.4 7.6-.8 0-2 .7-2.7 1.5-.7.8-1.5 1.5-1.9 1.5-.8 0-6.1-8.4-6.1-9.7 0-.9 4.3-3 6.6-3.2.7-.1 1.9 1 2.7 2.3Zm162.2-1.4c.3.5.1 1-.4 1-.6 0-1.1-.5-1.1-1 0-.6.2-1 .4-1 .3 0 .8.4 1.1 1ZM189 544.1c0 3.2 5.7 13.9 9.6 17.9 3.5 3.7 4.3 6 2.1 6-.8 0-4.1 2.1-7.4 4.7-3.4 2.7-10.1 7.7-15 11.3-4.8 3.6-9 6.8-9.3 7.1-.9 1-26.9 21.9-27.3 21.9-.2 0-.1-2.7.1-6.1.4-6 .5-6.1 8.4-14.4 4.4-4.5 8.9-9.6 10.1-11.3 1.2-1.6 4.9-6.2 8.2-10.2 9.4-11.3 13.1-16.8 16-23.1 2.7-6 4.5-7.6 4.5-3.8Zm-10.6 9.4c-.4.8-.8 1.5-1 1.5-.2 0-.4-.7-.4-1.5s.4-1.5 1-1.5c.5 0 .7.7.4 1.5ZM355 582.6c0 .8.7 1.7 1.5 2 .8.4 1.5 1 1.5 1.5s1.1 2.6 2.4 4.7c2.7 4.3 7.6 17.3 7.6 20.2 0 2.6 1.5 3.3 8.4 3.7 8.7.6 8.9.6 11.3 2.4 1.7 1.2 3.1 5 6.3 17.5 4.5 17.3 6.5 24 10.5 35.3 1.4 4 2.5 7.5 2.3 7.7-.2.1-2.8-.3-5.7-.9l-5.4-1.2-2.2-6.7c-1.2-3.7-2.6-8.3-2.9-10.2-2-10.6-10.2-22.8-16.6-24.7-2.2-.7-4-1.7-4-2.3 0-.7-1.4-5.2-3-10.1-1.7-5-4.6-14-6.4-20-1.9-6.1-4.4-12.8-5.5-15-2.2-4.2-2.7-7-1.1-6 .6.3 1 1.3 1 2.1ZM63.8 643.5c1.4 3 1.6 6.5.4 6.5-1.3 0-12.6 7.6-14.6 9.9-1.1 1.1-2.3 2.1-2.7 2.1-1.1 0-5.4 4.1-6.7 6.5-.8 1.6-.6 2.8 1.1 5.8 1.7 3 3.1 4 6.8 5.1 4.2 1.3 5.5 1.2 12-.4 7-1.8 7.3-1.8 10.8-.1 2.3 1.2 4.9 1.6 7.3 1.3 2.9-.3 3.9 0 4.4 1.3 1 2.5-.8 3.6-5.9 3.7-7.3.1-5.8 2.1 2.3 3 2 .2 2.6.9 2.8 3.4.2 1.8-.3 3.8-1.2 4.6-1.9 2-7.3 1.1-9.1-1.5-.8-1.1-1.6-1.9-1.8-1.6-.2.2-1.1 1.7-2.1 3.3-1.7 2.8-1.7 2.9.1 5.4 1 1.4 2.8 3 3.9 3.6 2.9 1.7 3.4 2.7 3.4 8.3 0 4.1-.5 5.8-2.6 8.2-1.4 1.7-3.2 3.1-3.9 3.1-.8 0-1.7.5-2.1 1.1-1 1.7 3.7 0 6.2-2.2 2.6-2.4 4.1-2.4 4.9 0 .8 2.6-.8 6.1-4.2 9.3-2.9 2.7-3 2.8-10.3 1.9-6.9-.9-7.8-1.3-11.2-5-3.9-4.1-4.9-6.8-2.4-5.8 2.6 1 2.6-.6.2-4.7-5-8.5-8.7-16.6-8.1-17.6.5-.9 4.1-.8 10.3.1 1.7.3 3.2-.2 3.2-1 0-.5-2.5-1.1-5.6-1.3-4.9-.4-6-1-9.6-4.5-3.2-3.2-4.1-5-4.5-8.7-.6-4.8-1.1-5.4-3.1-3.4-2.6 2.6-8.1-5.9-8.4-13.3-.2-6.5 3-12.2 8.4-14.6 2.1-1 2.9-.9 4.4.6 3.1 2.8 6.8 5.1 8.1 5.1 2.2 0 1.4-2.1-1.8-5.1-1.8-1.6-2.9-3.3-2.5-3.6.7-.7 20.7-11.1 21.7-11.2.3-.1 1.1 1 1.7 2.4Zm17.9 61.2c-.3 2.6-.6 2.8-4.5 2-1.9-.4-3.1-1.6-4.1-3.9-.8-1.8-1.6-3.6-1.8-4-.2-.3 2.1.3 5.2 1.4 4.8 1.8 5.5 2.4 5.2 4.5Zm1.1 8.2c.5 5.4-1.3 5.9-4.2 1.2-1.4-2.2-2.6-4.3-2.6-4.6 0-.4 1.5-.5 3.3-.3 2.8.3 3.2.7 3.5 3.7Zm401.7 6.1c.4.6.4 2.4 0 4-.5 2.3-1.4 3.2-4.3 4-2 .5-5.2 1-7 1h-3.3l4.8-5c4.6-4.7 8.4-6.3 9.8-4Zm15.2 2.6c.7 1.9-3.4 5.4-6.6 5.5-1.4.1-3.7.3-5.1.4-3.7.4-4-.1-2-4.3l1.8-3.7 5.7.3c3.7.3 5.8.9 6.2 1.8Zm-413.8-.5c2.9 1 6.7 6 5.5 7.2-1.1 1.1-7-1.4-9.1-3.8-3.9-4.4-2.7-5.6 3.6-3.4Zm430.8 1.6c.6 1.6-7.7 9.3-9.9 9.3-1.1 0-2.8-.9-4-2-2-1.8-2-2-.4-5.5l1.7-3.6 6.1.3c3.5.2 6.3.8 6.5 1.5Zm-56.6 2.3c1.8.5 4.3 2 5.6 3.2 1.6 1.5 3.4 2.2 5.2 2 4.2-.5 7.1 3.6 7.1 10.2.1 7.4 2.2 3.3 2.3-4.5.2-6 .9-6.9 5.2-5.9.6.1 1.7.3 2.5.4 2.6.4 4.4 5.3 3 8.6-.6 1.5-1 3.4-.9 4.1.9 4.4-6.7 10.7-14.8 12.4-3.8.8-4.1-.2-1.3-3.5 3-3.4 2.4-3.5-1.5-.3-3.6 3-9.8 4.3-11 2.3-.4-.6.5-2.2 2-3.6 3.4-3.1 2.6-4.4-1-1.6-2.4 1.9-6 2.9-16.8 4.7l-3.8.6.6-4.5c.5-3.1.4-4.6-.4-4.6-.6 0-1.1 1.2-1.1 2.6 0 3.1-4.8 7.9-8.5 8.6-3.6.7-3.9-.5-1.3-4.9 1.5-2.6 2.1-5.4 2.1-9.1 0-5.5.8-6.2 4.1-3.7 2.6 2 3.6 1.9 3.6-.4 0-1.1 1.1-3.3 2.5-4.9 1.4-1.7 2.5-3.3 2.5-3.7 0-.4-.8.2-1.7 1.4-1.5 1.8-3 2.2-8.9 2.3l-7.1.2 1.4 3.5c3.2 7.6-1.3 18-8.6 20.1-2 .5-4.9 1-6.5 1-2.5 0-2.7-.2-1.5-1.6 3.7-4.5 6.9-11.7 6.9-15.5 0-5.6 2.1-10.9 4.3-10.9 1.1 0 2.9-.8 3.9-1.7 3.3-2.9 14.5-5.4 22-4.7 3.7.3 8.1.9 9.9 1.4Zm-367.7 6c2.7 0 3.9.6 5.6 2.9 1.1 1.6 1.7 3.2 1.2 3.5-2.2 1.3-7.4-.5-10.7-3.8-3.9-3.9-4.5-5.2-1.6-3.6 1.1.5 3.5 1 5.5 1Zm410.1 2.4c.7 2 .5 3.5-.9 6-1.5 2.9-7.2 7.4-8.1 6.4-.2-.2-.1-3.8.2-8.1l.6-7.7 3.6.3c2.8.3 3.8 1 4.6 3.1ZM55 735.1c7.1 3.7 18.9 2.8 22.7-1.8 2.8-3.4 5.3-2.5 5.3 2 0 4-4.5 8.9-8.2 8.9-15.3-.1-17.7-.8-22.7-6.9-3.5-4.2-4.4-7.7-1.3-5.1.9.9 2.8 2.1 4.2 2.9Zm33.9 5c1.2 2.2 1.2 2.9 0 5.4-1.1 2.3-2.3 3.1-5.7 3.7-2.4.4-6 .4-8 0l-3.7-.8 4.9-2.3c3-1.5 5.6-3.7 6.8-5.8 2.3-3.8 3.6-3.8 5.7-.2Zm13.8 1.1c2.3 2.6 3.6 5.8 2.4 5.8-1.4 0-9.1-5.9-9.1-7 0-1.9 4.6-1 6.7 1.2Zm-1.9 6.3c2.8 2.1 5.2 4.5 5.2 5.3 0 .7-.4 1.1-.9.8-.5-.3-2.6-.8-4.7-1.2-2.2-.3-5.4-1.2-7.3-2-3.2-1.3-3.3-1.5-1.9-3.6.8-1.3 1.8-2.9 2.2-3.7.5-.7 1.1-.9 1.5-.4.3.4 3 2.6 5.9 4.8Zm296.7-.3c2.7 1.8 5.4 3.7 6.1 4.3.9.6 2.5.3 5-.8 2-1 3.9-1.6 4.1-1.3 1 1-.9 4.2-3.5 6.1-3.3 2.4-14.5 3-16.3.9-.6-.8-1.8-1.4-2.5-1.4-1.4 0-1.6-.6-1.6-3.5 0-6.3.3-7.5 2-7.5 1 0 4 1.5 6.7 3.2ZM66 747c0 .5-.4 1-.9 1-.6 0-1.3-.5-1.6-1-.3-.6.1-1 .9-1 .9 0 1.6.4 1.6 1Zm341.4 15.3c13-.5 14.1.1 7.4 4.3-2.4 1.5-5.6 3.8-7.1 5-3.7 3.1-9.3 3.2-13.7.1-4.7-3.1-7.4-7-6.6-9.5.7-2 .9-2 4.5-.7 2.8.9 7.2 1.2 15.5.8Z"/>
  <path fill="#000" d="M232 72c0 .5.7 1 1.5 1s1.5-.5 1.5-1c0-.6-.7-1-1.5-1s-1.5.4-1.5 1Z"/>
  <path fill="#000" d="m277 94-3.5.6 4.5.8c5.7 1 12.8 4.1 15.8 6.8 1.6 1.6 2.5 1.9 3.3 1.1 1.4-1.4.4-3.2-2.4-4.3-12.3-4.9-14.4-5.5-17.7-5Z"/>
  <path fill="#000" d="M272.6 102c-.1.3-.2 1.6-.2 3 .1 2.1.9 2.7 5.5 4.1 4.4 1.3 5.8 2.2 7 4.8 1.6 3.5 5.1 4.3 5.1 1.2 0-1.2 1.2-2.5 3-3.3 3.8-1.6 3.8-2.9-.1-7.2l-3-3.5-8.6.2c-4.6.1-8.6.4-8.7.7Zm17.4 2.5c1.7.9 3 1.9 3 2.3 0 1.7-2.5 3.2-5.3 3.2-3.5 0-10.7-3.8-10.7-5.7 0-1.9 9.3-1.7 13 .2Z"/>
  <path fill="#000" d="M270.7 112.4c-.4.9-.4 2.4 0 3.3.8 2.3 9.4 11.3 10.8 11.3.5 0-.6-1.5-2.6-3.3-1.9-1.7-4.4-5.4-5.6-8-1.4-3.4-2.2-4.4-2.6-3.3Z"/>
  <path fill="#000" d="M268 126c0 1.3.7 2 2 2 2.3 0 2.6-1 .8-2.8-1.8-1.8-2.8-1.5-2.8.8Z"/>
  <path fill="#000" d="M270.8 135.4c-3.4 1.8-6.3 4.6-7.1 6.8-.9 2.4.6 2.3 2.9-.3 1-1.2 3.6-3 5.7-4 3.6-1.9 4.9-3.9 2.5-3.9-.7 0-2.5.6-4 1.4Z"/>
  <path fill="#000" d="M250 145.4c0 1.6 4.4 7.5 6.5 8.6 3.4 1.8 4.6.3 1.5-2.1-1.4-1.1-3.7-3.1-5.2-4.5-1.6-1.4-2.8-2.3-2.8-2Z"/>
  <path fill="#000" d="M246 155.9c0 2.5 6.8 8.1 9.7 8.1 3.7 0 2.9-3.4-1.1-4.8-1.8-.7-4.1-2.1-5.1-3.2-2.3-2.5-3.5-2.5-3.5-.1Z"/>
  <path fill="#000" d="M281.7 156.6c-.3.4.1 2 .9 3.7 1.9 3.6 1.5 4-7 5.8-5.6 1.2-5.8 1.4-2.5 1.7 2 .2 6-.6 8.9-1.7 5.6-2.1 9.5-1.5 8.4 1.4-.4.8-.1 1.5.5 1.5s1.1-.8 1.1-1.8c-.1-1.9-9.4-11.5-10.3-10.6Z"/>
  <path fill="#000" d="M467.6 210.7c-.4.9-1 5.2-1.3 9.5-.3 4.3-.8 7.8-1.1 7.8-.2 0-2.1-.9-4.1-2-11.6-6.3-24.3-9.4-28.2-6.9-1.1.7-.9.9.9.9 1.3 0 2.1.4 1.7 1-.3.5-1.2.7-2 .3-.8-.3-1.5 0-1.5.6 0 .7 2.4 1.1 6.4 1.1 8.1 0 18.4 3.1 21.6 6.5 2.3 2.5 2.5 2.5 3.8.8 1.3-1.7 1.4-1.7.8.4-.8 2.6.1 3.3 3.5 2.6 2.6-.5 2.6-.6 2.6-9.6 0-5.1.2-10.3.4-11.7.5-2.9-2.5-4.1-3.5-1.3Z"/>
  <path fill="#000" d="M445 234.5c-2.2.8-4.4 2.7-6 5.3-3.3 5.2-7.6 9.2-10.1 9.2-1 0-1.9.4-1.9 1 0 .5 1.5 1 3.4 1 2.9 0 4.2-.9 9.6-7 3.4-3.9 7-7 8-7 1.1 0 2.2-.5 2.5-1 .3-.6 2.3-1 4.3-1 2.8 0 3.3-.3 2.2-1-2-1.3-7.7-1.1-12 .5Z"/>
  <path fill="#000" d="M449.4 243.9c-1.7.9-4.4 2.8-6 4.3-1.6 1.6-3.7 2.8-4.7 2.8-3.1 0-10.7 2.2-10.7 3.1 0 1.4 8.4 1.5 11.2 0 2.2-1.2 2.9-1.2 4.2-.2.9.8 1.6 2 1.6 2.7 0 1.7 3.6 2.7 8.1 2.2l3.4-.3V247h3.3c4.2 0 4.2-2.2-.1-3.8-4.2-1.5-6.4-1.4-10.3.7Zm3.4 5.4c1.5 1.8-2 6.2-4.2 5.4-1.9-.7-2.2-5.3-.3-6 2.1-.9 3.4-.7 4.5.6Z"/>
  <path fill="#000" d="M479.2 251.8c-.7 1.5-1.5 5.3-1.9 8.4-.5 4.7-.3 5.9 1 6.3.8.4 1.8 2.3 2.2 4.3.6 3.5 3.2 9.1 4.7 10.2 1 .8 4.5 11.4 5.3 15.9.7 4.2 2.1 6 3.5 4.5 1.2-1.2-.8-11-3.1-15.8-1-2.2-1.9-4.4-1.9-4.8 0-.5-1.6-4.9-3.5-9.8-2.7-7-3.5-10.4-3.5-15.5 0-7-.8-8.1-2.8-3.7Z"/>
  <path fill="#000" d="M453.5 261.6c-2.2 1-5 1.2-10.2.8-4.5-.3-7.3-.2-7.3.4 0 1.4 3.7 2.2 10 2.1 7.8-.2 11.4-1.1 11.8-3.2.4-2-.3-2-4.3-.1Z"/>
  <path fill="#000" d="M436 270.9c0 1.4 1.2 2.7 3.8 3.9 4.2 2.1 13.7 2.9 14.7 1.2.9-1.5.6-1.7-3.7-2.4-3.3-.5-8.4-2.1-13-4.1-1.4-.5-1.8-.2-1.8 1.4Z"/>
  <path fill="#000" d="M479.6 281.2c.5 2.4.8 7.2.9 10.7 0 7.2 1.9 9.4 2.8 3.5.5-3.2.2-6.6-1.9-16.2-.2-1.2-.9-2.2-1.5-2.2-.7 0-.8 1.4-.3 4.2Z"/>
  <path fill="#000" d="M447.4 307c-2.3 3.6-5.3 8.9-6.9 11.9-1.5 3-3.6 6.7-4.8 8.3-1.7 2.3-1.8 3.1-.8 4.1 1 .9 1.5.8 2.7-.7.8-1.1 1.4-2.5 1.4-3.2 0-1.9 6.9-13.4 8-13.4.6 0 1-.6 1-1.4 0-.7.9-2.5 2.1-4 1.2-1.5 1.9-3.7 1.7-5.3-.3-2.5-.6-2.2-4.4 3.7Z"/>
  <path fill="#000" d="M448.2 345.7c-2.1 3-5.2 8.8-5.2 9.8 0 .3 2.7-2.2 6-5.6 3.3-3.4 6-6.3 6-6.5 0-.2-1.1-.4-2.4-.4-1.5 0-3.2 1-4.4 2.7Z"/>
  <path fill="#000" d="M462.6 383.3c-1.7 2.6-3.1 7.7-2.1 7.7 1.1 0 5-5.3 4.7-6.4-.2-.5.2-1.2.8-1.6.8-.5.7-.9-.4-1.3-1-.4-2.1.2-3 1.6Z"/>
  <path fill="#000" d="M471.4 382.8c-3.3 2.4-5.9 12.2-3.1 12.2 1.8-.1 6.9-11.7 5.3-12.3-.7-.3-1.7-.2-2.2.1Z"/>
  <path fill="#000" d="M477.1 387.2c-1 2.4-2.1 5.8-2.5 7.5-.5 2.8-.3 3.3 1.4 3.3s2-.7 2-4.5c0-2.5.7-5.6 1.6-6.9 1-1.7 1.2-2.6.4-3.1-.6-.4-1.8 1.1-2.9 3.7Z"/>
  <path fill="#000" d="M486.3 385.7c-4.6 6.8-5.9 14.3-2.4 14.3 1.4 0 2-1 2.5-4.8.3-2.6 1.3-6 2.1-7.6 2.7-5.2 1-6.6-2.2-1.9Z"/>
  <path fill="#000" d="M455 418.3c0 1.3.2 1.7 6.9 13.7 2.3 4.1 4.7 8.5 5.3 9.7 1.3 2.8 2.8 3 2.8.5 0-1 .7-2.7 1.5-3.8 2-2.6 1.9-3.4-.4-3.4-1.1 0-3.2-1.1-4.8-2.4-2.3-2-2.7-3.1-2.5-7 .1-3.7-.2-4.8-1.6-5.2-.9-.3-2.9-1.1-4.4-1.9-2.1-1-2.8-1.1-2.8-.2Z"/>
  <path fill="#FFF" d="M211.7 186.6c-.4.4-.7 1.4-.7 2.3 0 3.4-1.6 4.4-4.8 3.3-2.6-.9-3.3-.7-4.7.9-1.7 1.8-1.6 1.9 2.9 3.1 2.5.7 4.6 1.6 4.6 2.1 0 .4-1.1 2.8-2.5 5.3-2.8 5-1.9 5.6 2.9 1.9 1.8-1.4 3.6-2.5 4-2.5.4 0 2.1 1.6 3.8 3.6 1.7 1.9 3.5 3.1 4 2.6 1-1-2.6-8.8-4.4-9.5-1.2-.4 1.9-2.1 7.6-4.1 2.8-1 1.4-1.7-3.3-1.8-4.4 0-5.7-1-6.3-4.7-.3-2.5-1.9-3.7-3.1-2.5Z"/>
  <path fill="#000" d="M221 188.9c1.9 1.6 3.7 2.7 4 2.4.7-.7-4.8-5.3-6.3-5.3-.7 0 .4 1.4 2.3 2.9Z"/>
  <path fill="#000" d="M185.4 201.7c-1 3.4-4.9 10.8-8.2 15.8-3.1 4.6-3.1 6.4.2 5.2 1.7-.7 9.2-15.3 9.9-19.5.7-3.3-.9-4.6-1.9-1.5Z"/>
  <path fill="#000" d="M190.4 205.7c-2.4 7.3-4.1 10.4-8.2 14.5-3.9 4.1-4.3 4.8-2.5 4.8 3.6 0 10.5-10.2 11.9-17.6.6-3.5-.2-4.7-1.2-1.7Z"/>
  <path fill="#000" d="M192.7 214.8c-1.5 3.2-4 6.8-5.5 7.9-1.5 1.2-3.7 3-4.9 4l-2.2 1.8 2.4 1.7 2.3 1.8 4.7-6.5c4.7-6.6 7.5-12.2 7.5-15 0-3-1.6-1.4-4.3 4.3Z"/>
  <path fill="#000" d="M199.5 251c-.3.5-2 1.6-3.8 2.5-1.8.8-4.5 2.6-6.2 4-2.2 1.8-.8 1.3 5.2-1.8 4.4-2.3 7.9-4.5 7.6-4.9-.6-1.1-2.1-1-2.8.2Z"/>
  <path fill="#000" d="M178.4 258.8c-4 2.9-7.2 6.2-6 6.2 1.2 0 11.4-6.1 12.6-7.5 2.2-2.7-2.4-1.7-6.6 1.3Z"/>
  <path fill="#000" d="M178.3 275.2c-1.2 1.3-3.3 4.8-4.8 7.8-1.4 3-3.5 7.2-4.6 9.3-1 2.2-1.9 4.4-1.9 5 0 2.4 3.1-2.1 7-10.3 2.3-4.7 4.9-9.3 5.7-10.2 2.4-2.7 1-4.2-1.4-1.6Z"/>
  <path fill="#000" d="M250.5 243.9c-.6 1 9.1 11.1 10.7 11.1 2.2 0 1.5-2.5-1.4-5.4-4.5-4.6-8.5-7-9.3-5.7Z"/>
  <path fill="#FFF" d="M258.5 306.2c-.2 1.3-.6 3.6-.7 5.3-.2 2.3-.8 3-2.2 2.8-3-.2-6.6 1.5-6.6 3.1 0 .9 1.6 2 4.1 2.6 3 .8 3.9 1.5 3.5 2.8-1.7 5.7-1.8 7.5-.5 8.2.9.6 2.3-.2 4.4-2.5l3-3.4 3.8 1.8c2 1.1 3.7 1.7 3.7 1.5 0-.3-1.1-2.2-2.5-4.2-3.2-4.8-3.2-5.6.8-6.7 4.6-1.4 4.3-4-.5-3.9-3.5.1-3.9-.1-4.8-3.5-.5-2-1-4.2-1-4.9 0-2.2-3.9-1.3-4.5 1Z"/>
  <path fill="#FFF" d="M317.6 309.8c-.2.9-.7 3.8-1.1 6.4-.6 4.6-.7 4.8-4 4.8-3.1 0-6.5 2.1-6.5 4 0 .4 1.5 1.1 3.4 1.4 4.7.9 6.2 2.9 4.7 6.3-1.3 2.9-1.3 2.8 1.4 3.7 1.6.4 2.5-.1 3.8-2.4 2.1-3.5 2.2-3.6 7.3-1.1 2.1 1.1 4 1.8 4.2 1.6.2-.2-1.3-2.5-3.2-5.3-3.6-4.9-4.5-6.9-2.7-5.8 1.4.9 6.1-1.1 6.7-2.9.4-.8.3-2.2 0-3.2-.6-1.4-.9-1.4-2.7.6-1.9 2-2.2 2.1-3.8.6-1-.8-2.3-3.3-3-5.4-1.2-4.2-3.7-6-4.5-3.3Z"/>
  <path fill="#FFF" d="M291.8 318.9c-1.1 1.3-3.6 2.2-7.5 2.6-7.1.8-8.3 1.1-8.3 2.4 0 1.1 2 1.7 7.8 2.5 1.9.3 3.6.7 3.9 1 .3.3-.7 2.6-2.2 5.2-3.3 5.6-2.1 7.7 2 3.4 3.4-3.5 4.6-3.7 7-1 1 1.1 2.8 2 4.1 2h2.3l-2.6-4.5c-1.8-3.3-2.1-4.5-1.1-4.5.8 0 2.9-1.5 4.7-3.4 3.7-3.8 3-5-2.5-4.2-3 .5-3.7.3-4.1-1.4-.7-2.5-1.4-2.5-3.5-.1Z"/>
  <path fill="#000" d="M361 305.9c-.8.5-4.5 1.4-8.2 2.1-3.8.7-6.8 1.7-6.8 2.2 0 1.8 16.5-2.4 18.9-4.8.8-.7-2.4-.4-3.9.5Z"/>
  <path fill="#000" d="M96 317.5c.7.9 1.5 1.3 1.7 1.1.7-.7-.7-2.6-1.9-2.6-.6 0-.6.6.2 1.5Z"/>
  <path fill="#000" d="M96.3 326.4c3.2 4.4 6.2 6.2 7.3 4.4.7-1.1-7.5-8.8-9.3-8.8-.7 0 .2 2 2 4.4Z"/>
  <path fill="#000" d="M130.5 325.2c-.4.9-.3 2.3.1 3 .4.7 1.4 4.4 2.1 8.3l1.2 7-.5-7.8c-.6-8.9-1.8-13.3-2.9-10.5Z"/>
  <path fill="#FFF" d="M110 328.8c0 .7.7 2.9 1.5 4.9 1.8 4.3 1.8 4.5.3 4.1-1.7-.4-7.8 2.2-7.8 3.3 0 .5 2.5.9 5.6.9 5.5 0 5.6.1 5 2.5-.3 1.4-.9 3.6-1.2 5-.9 3.8 1 3 2.5-1.1 1.4-3.9 2-4 10.1-1.8 2.1.6 1.8-.1-2.3-4.3l-4.8-5 3.5-2.1c3.5-2.1 4.7-4.2 2.5-4.2-.7 0-2.7 1-4.7 2.2l-3.4 2.1-3.4-3.9c-1.8-2.1-3.3-3.3-3.4-2.6Z"/>
  <path fill="#FFF" d="M365.2 501.4c-1.1 1.5-2.4 4-2.7 5.6-.7 3.3-2.1 3.6-8.8 2.1-7.3-1.7-5.7 2.8 1.8 4.9 2.5.7 4.8 1.6 5.1 2.1.2.5-.7 3.1-2.1 5.9-2.5 4.9-2.6 7-.3 7 .9 0 3.3-1.7 8.7-6.2 1-.8 2.1-.1 5.2 3.3 3 3.5 3.8 4 3.8 2.4 0-1.1-.8-4-1.9-6.4-1.1-2.4-2-4.5-2-4.7 0-.2 1.5-.4 3.4-.4s3.8-.5 4.1-1c.4-.6 1.5-.8 2.6-.5 2 .7 2.3-.2 1.3-2.9-.4-.9-1.8-1.6-3.4-1.6-1.5 0-4.2-.3-5.9-.6-2.7-.6-3.2-1.2-3.7-4.5-.4-2.1-1.2-4.6-1.9-5.5-1-1.5-1.4-1.4-3.3 1Z"/>
  <path fill="#000" d="M223.1 475.9c0 6.5.3 10.1.8 9.5.6-.5.6-4.7.2-10.4l-.8-9.5-.2 10.4Z"/>
  <path fill="#000" d="M211 487.7c0 5.2.4 9.5 1 9.8.7.4 1-2.2.9-7.8-.2-11.8-1.9-13.6-1.9-2Z"/>
  <path fill="#FFF" d="M213 531.3c0 .7 1.1 2.9 2.5 4.9 1.4 2 2.5 4.1 2.5 4.5 0 .5-2.7 2.2-6 3.7-3.3 1.6-6 3.3-6 3.7 0 .5 3.4.9 7.5.9h7.4l.3 5.7c.2 4.6.7 5.9 2.1 6.1 1.1.2 1.7-.3 1.7-1.4 0-.9.8-4.1 1.7-7l1.6-5.3 2.7 1.9c3.9 2.7 7.5 4 8.9 3 1-.5 0-2-3.3-5-2.5-2.3-4.6-5-4.6-5.9 0-.9 1.1-3.5 2.4-5.8 3.6-6.3.8-7.3-6.3-2.2-4.2 3.1-4.2 3.1-6.4 1.3-4.7-4-8.7-5.5-8.7-3.1Z"/>
  <path fill="#000" d="M34 678.4c0 .5 1.8 3.3 4.1 6.2 4.5 5.8 7.3 7.2 16.6 8.1 5.6.5 6.4.3 10.1-2.3 5-3.6 6.1-5.3 5.2-7.9-.7-1.9-.9-1.8-1.8.7-1.1 2.8-4.2 5-7.7 5.4-12.9 1.8-12.3 1.8-16.6-1.2-2.2-1.5-5.4-4.4-7-6.3-1.6-2-2.9-3.2-2.9-2.7Z"/>
  <path fill="#FFF" d="m58.7 704.9.6 5-4.9.3c-4.1.2-4.9.6-4.9 2.3 0 1.4 1 2.2 4 2.8 2.2.6 4.2 1.1 4.4 1.3.2.2-.7 2.4-2 4.9-1.8 3.4-2.1 4.7-1.2 5.6 1.8 1.8 4 .4 4.8-3 1-4.8 3.1-5.8 6.1-3 2 1.8 2.7 2.1 3.3 1 .9-1.4-1.5-7.1-3-7.1-2.5 0-.4-2.1 3.1-3 3.8-1 5.5-3 2.6-3-.8 0-1.6-.6-1.9-1.3-.3-.9-.9-.9-2.4 0-1.8 1-2.2.7-4.1-3.3-3-6.2-5.3-5.9-4.5.5Z"/>
  <path fill="#FFF" d="M450.5 728.7c.5 1 .8 2.9.9 4.2.1 1.9-.5 2.4-2.8 2.7-1.5.1-3.1.5-3.3.8-1.2 1.1.8 3.6 2.8 3.6 2.2 0 2.3 1.7.4 7.7-1.3 4.1 2.4 2.7 4.2-1.5 2-4.9 1.8-4.8 4.7-1.6 1.8 2.2 2.7 2.6 3.6 1.8.9-.9.9-1.7.1-3.2-1.8-3.4-1.3-4.1 3.4-5.3 5.7-1.4 5.3-3.4-.7-3.3-4.2 0-4.6-.3-6.7-3.8-1.6-2.9-2.8-3.8-4.7-3.8-2.1 0-2.5.3-1.9 1.7Z"/>
  <path fill="#FFF" d="M126.5 62.7c-.4 2.1-1.1 4.6-1.6 5.5-.9 1.7-1.2 1.7-3.9.3-3.3-1.7-5-1.9-5-.6 0 .5 1.5 1.5 3.4 2.2l3.4 1.2-3.5 4.4c-3.9 4.8-3.9 5 1.1 2.7 4.4-2.1 6.2-1.4 8.1 3.2 1.9 4.7 3 3.8 1.6-1.2s.6-7.4 6.1-7.4c2.7 0 3.8-.4 3.8-1.5 0-1.2-1.3-1.5-5.5-1.5H129l.6-4.3c.3-2.3.7-4.8 1-5.5.2-.6-.5-1.2-1.5-1.2-1.4 0-2.1 1-2.6 3.7Z"/>
  <path fill="#000" d="M151.8 76.8c-7.4 4.8-10.9 8.2-15.2 14.7-2.6 3.8-6.8 9.1-9.3 11.7-5.1 5.4-4.5 6.1 1.4 2 7.2-4.9 7.9-5.6 11.3-11.6 1.8-3.3 6.2-8.8 9.6-12.3 6.4-6.4 7.1-7.7 2.2-4.5Z"/>
  <path fill="#FFF" d="M86.6 97.2c-.3 1.3-.7 3.2-.8 4.3-.3 1.6-1 1.9-3.6 1.7-4-.4-4.3 1.8-.5 4.6l2.6 1.9-4.6 3.2c-7.2 4.9-6.1 7.2 1.2 2.7l3.9-2.5 1.2 3.2c1.9 5.3 2.6 6.2 4.9 6.3 2.3.1 2.6-.8 1.2-3.4-.4-.9-1.1-3.2-1.4-5-.6-2.8-.4-3.2 1.5-3.2 1.8 0 8.4-1.8 9.7-2.7.2-.1-.1-.9-.8-1.6-1.1-1.4-4.7-1.4-9.8-.2-2.2.5-2.3.3-2.3-5.5 0-5.9-1.5-8.2-2.4-3.8Z"/>
  <path fill="#000" d="M215 97.7c-2.9 1.2-8 5.5-8 6.9 0 .7-.9 1.6-2 1.9-1.1.3-2 1.1-2 1.6 0 1.4 1.1 1.1 3.2-.8 1-.9 2-1.4 2.2-1.2.7.8-1.7 13.9-2.6 13.9-.4 0-.8.5-.8 1.1 0 .6.7.8 1.6.5.8-.3 2.8.1 4.4.9 1.6.8 4.7 1.5 6.9 1.5 3.5 0 4.3-.4 5.6-3.1 1.5-2.8 1.8-2.9 2.9-1.3.7 1 1.8 1.4 2.5 1 .9-.6.9-1.1 0-2.3-1.3-1.5-6.5-1.4-10.2.2-1.6.7-1.8.2-1.5-4.3.2-4.2.7-5.3 2.6-6.1 1.2-.6 2.2-1.9 2.3-2.8 0-1 .2-3 .4-4.6.2-1.6-.1-2.7-.8-2.7-.7 0-2.1-.2-3.2-.5-1.1-.2-2.7-.1-3.5.2Zm3 5.2c0 1.1-.5 3.2-1.1 4.8-.6 1.5-1.3 4.6-1.5 6.8-.5 4.4-1.6 6-3.7 5.2-2.2-.8-2.8-7.2-1.1-11.8.7-2.3 1.2-4.5.9-4.9-.3-.5.3-.6 1.4-.3 1 .3 2.2 0 2.5-.6 1.1-1.8 2.6-1.3 2.6.8Z"/>
  <path fill="#000" d="M177.4 101c-1.2.5-2.5 1.4-2.9 2-.9 1.5 2.3 3.9 5.3 4 1.2 0 2.2.5 2.2 1.1 0 .6.8.8 1.8.5.9-.2 3.6-.8 6-1.1 3.4-.6 4.2-.4 4.2.9 0 .9.7 1.6 1.5 1.6 2.1 0 1.9-2.6-.4-4.9-2.2-2.2-8.2-3.7-10.7-2.7-.9.4-2.4 0-3.3-.8-1.1-.9-2.3-1.1-3.7-.6Z"/>
  <path fill="#000" d="M117.5 108.7c-1.1.2-3.4 1-5 1.8-1.7.7-5.1 2.3-7.8 3.4-2.6 1.1-4.7 2.5-4.7 3.1 0 1.5.5 1.3 6.3-2 3-1.7 6-3 6.8-3.1 1.9-.1 9.8-3.8 7.9-3.7-.8 0-2.4.2-3.5.5Z"/>
  <path fill="#000" d="M147.4 112.2c-4.3 4.9-4.6 5.6-3.9 10.2.6 3.6 1.7 5.6 5.6 9.6 4.5 4.7 5.2 5.1 8.2 4.4 4.3-.9 9.7-3.6 9.2-4.4-.3-.4-2.3-.4-4.6 0-8.5 1.6-13.9-2.2-13.9-9.7 0-5.2 1.1-8.8 2.1-7.2.6 1 1.1 1 2.3 0 .9-.8 1.6-.9 1.6-.3 0 1.5 4.2 2.3 5.7 1 1.4-1.1 6.3-.3 6.3 1.2 0 .5-1.2 1.7-2.8 2.8-2 1.5-3.8 1.9-7 1.5-4.7-.5-5.5.7-2 3.1 3.6 2.5 5 2 11.8-4.3 5.5-5.2 6.6-5.8 8.7-5 4.2 1.6 4.8 1 1.9-2-2.3-2.4-3.5-2.9-6-2.5-1.7.3-4.4.7-6.1.9-4.5.7-4.7.7-9-.4-5.5-1.4-5.9-1.4-8.1 1.1Z"/>
  <path fill="#000" d="M151.1 118.6c0 1.1.3 1.4.6.6.3-.7.2-1.6-.1-1.9-.3-.4-.6.2-.5 1.3Z"/>
  <path fill="#000" d="M125 136.4c-3.8 1.4-4.7 3.4-4.9 11.1-.1 3.7.3 4.4 4.1 7.3 4.6 3.6 5.1 3.7 9.7 2.1 3.1-1.1 9.9-9.4 8.7-10.6-.8-.9-7.3 2.5-8 4.2-1.4 3.6-9.6.2-10.3-4.4-.8-5.6 6-9.4 9.1-5l1.5 2.2 3.6-3.2c2.7-2.4 4.5-3.1 7.5-3.1 2.2 0 4-.5 4-1 0-.6-2.4-1-5.3-1-4 0-5.7.5-7 2-.9 1.1-2.3 2-3 2-.8 0-2.2-.9-3.2-2-2.1-2.3-1.8-2.3-6.5-.6Z"/>
  <path fill="#000" d="M163.3 139.5c-.3.9-2 2.3-3.7 3.2-1.8.9-2.6 1.8-1.8 2.1 1.6.5 8.2-3.9 8.2-5.6 0-1.7-1.9-1.5-2.7.3Z"/>
  <path fill="#000" d="M134 145c0 .5.5 1 1.1 1 .5 0 .7-.5.4-1-.3-.6-.8-1-1.1-1-.2 0-.4.4-.4 1Z"/>
  <path fill="#000" d="M184.7 152.7c-.4.3-.7 1.1-.7 1.7 0 .6.5.5 1.2-.2.6-.6.9-1.4.7-1.7-.3-.3-.9-.2-1.2.2Z"/>
  <path fill="#FFF" d="M320.5 179.4c-.7 5.4-.8 5.5-3.3 4.5-2.9-1.1-5.7-.4-4.7 1.2.4.5 1.8 1.4 3.1 1.9 2.8 1.1 3 2.4.8 7.5-2.1 5-.9 5.7 2.7 1.7 1.7-1.9 3.6-3.1 4.2-2.8.7.4 2.7 1.5 4.5 2.6 3.6 2.2 3.9 1.6 1.7-3.6-1.5-3.6-1.2-6 .5-4.9.5.3 2.2 0 3.6-.8 3.1-1.6 2.2-2.5-3.7-3.5-3.8-.7-4.4-1.1-5.8-5-.8-2.3-1.8-4.2-2.2-4.2-.4 0-1.1 2.4-1.4 5.4Z"/>
  <path fill="#FFF" d="M57.3 221.8c-.9.6-1 2.2-.4 6 .4 2.9.5 5.3.2 5.3-1 .3-3.5.6-5.8.8-3.9.2-2.5 1.9 2 2.6 4.2.7 4.4.8 4.3 4.3-.1 4.2 1.7 6 2.2 2.2.6-4.3 1.9-4.6 6.1-1.2 4.7 3.8 6 2.8 3-2.4l-2.1-3.7 3.1-2.4c3-2.3 4.2-5.3 2.1-5.3-.5 0-2.6.8-4.5 1.7-3.6 1.7-3.7 1.7-5.6-.7-1-1.4-2.2-3.7-2.6-5.2-.5-1.8-1.2-2.5-2-2Z"/>
</svg>