<svg xmlns="http://www.w3.org/2000/svg" viewBox="0 0 800 796">
    <path fill="#FFF" d="M415.8 4c-1.3 2.2-2.6 4-3 4-.4 0-1.9-1.6-3.4-3.5-2.9-3.9-5.8-4.5-7.4-1.6-.8 1.6-.4 2.4 2.5 5 4.3 3.7 4.4 5 .5 7.6-3.3 2.2-4.3 6.2-1.2 5 7.3-3 11.2-2.9 11.2.4 0 1 .9 2.1 2 2.4 1.6.4 2 0 2-2.3 0-3.4 2.2-5.4 5-4.5 2 .6 5-.9 5-2.5 0-.5-1.3-1.1-2.9-1.5-4.5-1-5.6-2.8-4.2-7.4 1.5-5.1 1.5-5.1-1.4-5.1-1.8 0-3 1-4.7 4Z"/>
    <path fill="#000" d="M81.3 5.8c-4 .2-7.3.7-7.3 1.1 0 .5 3.6 3.2 8 6 4.4 2.9 8 5.6 8 6.1s2.4 2.5 5.3 4.4c4.7 3.2 10 8.4 14.7 14.5 1.2 1.6 3.2 2 11 2.5 10.1.6 14 1.3 14 2.6 0 .4-3.2 3.5-7.2 6.9-6.8 5.7-7.2 6.4-7.3 10.4-.1 2.4.7 5.8 1.8 8 2.3 4.5 1.8 7-2.3 12.2-2.7 3.4-2.9 4.3-2.4 8.4.3 2.5 1.4 5.9 2.4 7.6 1 1.6 2 5.1 2.3 7.7.6 5.9-.6 6.2-6.9 1.4-2.5-1.9-6.2-4-8.2-4.7-3.4-1.1-3.7-1-5.9 1.7-2.5 3.1-2.3 5.4.7 8.4 3.2 3.2 4.4 9.7 2.9 15.5-1.4 5.7-1.3 19.1.3 25 .6 2.2 2.8 7.5 4.9 11.8 3.2 6.4 4 9.6 5 18.2 1 8 1 11 .1 13-.7 1.4-1.2 3.5-1.2 4.6 0 1-2.1 6.3-4.6 11.7l-4.6 9.7.1 15.4v15.4l-3.9 5.6c-2.2 3.1-4 6.3-4 7.1 0 1.9-3.7 12-8.5 23-4.5 10.2-4.9 16.7-2.9 37 .8 7.4 1.3 14.2 1 15.1-.5 2.3 1.2 4.9 3.3 4.9 1.2 0 2.4-1.4 3.5-4.3.9-2.3 3-6.4 4.7-9.1l3.1-4.9 2.5 5.9c5.6 13.3 7.5 16.5 9.7 16.2 3-.4 3.1-4 .3-7.4-2.6-3.1-9.7-16.6-9.7-18.5 0-.6 1.3-2.7 3-4.6 1.6-1.8 3-4.3 3-5.4 0-2.1.1-2.1 2.8-.4 4.6 2.9 5 3.9 4 10.5-.5 3.4-.7 6.8-.4 7.6 1.1 2.8 2.4 1.3 3-3.4 1-7.4 2.5-9.4 7.1-9.8 14.5-1.3 17.2-1.7 19-3.3 5.1-4.4 5-4.4 8.3.8 1.7 2.6 3.4 5.6 3.8 6.5.8 2 5.5 4.6 8.2 4.6 1.4 0 2.1-1 2.8-4.1 1.1-5.3 3.7-7.2 5.8-4.4.9 1.1 1.6 2.7 1.6 3.6 0 1.9 2 2.9 5.5 2.9 2.8 0 6.5-4.3 6.5-7.7 0-1.3.7-2.6 1.5-2.9.9-.4 2-1.5 2.6-2.6.9-1.7.7-2.5-1.7-4.4-1.5-1.3-3.5-2.4-4.5-2.4-1.5 0-1.7.6-1.2 3.5s.3 3.5-1.2 3.5c-1.4 0-1.6.6-1.1 3.2.3 1.8.2 4-.4 4.8-.7 1.2-1.2 1.2-2.9-.4-5-4.5-9.8-23.7-10.8-43-.5-10.1-.4-11.3 1.7-15.2 2.2-3.9 2.2-4.5 1-8.8-.7-2.6-2.1-5.1-3.1-5.7-3.3-1.7-4-4.4-2.4-8.2 1.7-4.1 2.6-4.9 4.4-3.7 1 .5 1.2 2.2.9 5.5-.4 2.9-.1 5 .6 5.5 7.2 5.8 6.9 5.4 5.8 9.1-1.7 5.1-1.8 19.8-.2 33.3 1.5 12.8 1.3 12.4 8.6 14 2.5.6 3.3.3 3.8-1 .7-1.9-1.1-3.7-3.1-3-4.5 1.7-6.4-8.6-6.4-34.1v-18.2l-3-1.8c-1.6-1-3.1-2.7-3.4-3.8-.2-1.1-.8-4.2-1.3-6.9-.6-2.8-.6-6-.1-7.5 1.4-4.3 2.6-22.9 2.2-34.6-.3-8.1-1.1-13.2-3-19.5-1.4-4.7-2.6-10.1-2.6-12-.1-17.9-4.1-29.6-13.7-40.3-2-2.3-2.5-3.9-2.6-9-.1-3.4-.5-7.4-.9-8.9s-.5-4.2-.1-6c.5-2.7 1.4-3.7 5.4-5.5 3.8-1.8 5.7-3.6 9.3-9 2.5-3.7 6.1-10 7.9-13.8 1.9-3.9 3.5-7.2 3.7-7.4.1-.2 3.4 1 7.1 2.7 3.8 1.8 7.6 3.2 8.6 3.2s3.6 1.3 5.9 2.8c2.3 1.6 8.7 4.8 14.2 7.2 5.5 2.3 17.2 7.8 26 12 32.8 15.9 37.1 17.9 42.4 20 3 1.2 9.2 3.9 13.8 6.1 4.6 2.1 8.6 3.9 8.7 3.9.2 0 6.4 2.9 13.8 6.4 7.4 3.5 15.4 7 17.7 7.7 5.2 1.5 5.9 3 3.8 7.4-1.4 3-1.5 3.7-.2 6.2 2.7 5.1 1.4 10-2.2 8.9-1.2-.4-2.5-.1-3.3.9-1 1.3-.9 1.5.9 1.5 3.3 0 6.1 1.8 6.1 4 0 1.1 1 2.5 2.2 3.1 1.2.6 3.1 2 4.2 3 1.9 1.8 1.9 1.9.1 3.9-3 3.3-7 2.6-10-1.7-1.4-2.1-2.5-4.7-2.5-5.8 0-3.2-2-4.5-6.7-4.5-2.4 0-4.3-.2-4.3-.5 0-.4.7-1.9 1.5-3.5 1.4-2.7 1.4-3.3.1-5.9-1.6-3.1-3.4-4.1-7.1-4.1-2.4 0-5.5 3.3-5.5 5.9 0 2.7 4.3 10.4 7.4 13.2l3.1 2.7-2.7 1.2c-4.5 2.1-4.8 6-.5 6 3.2 0 4.6 1.2 5.6 4.7 1.6 5.5-.3 6.2-4.6 1.7-3.3-3.6-4.4-4.1-8.5-4.2-10.5-.3-12.7 4.1-6.4 12.8 3.2 4.3 3.5 4.5 8 4.3 3.8-.2 5.3-.8 7.6-3.3 3.2-3.4 4.6-3.7 7.2-1.3 2.1 1.8 11.9 2.6 15 1.1 2.5-1.2 16.8-15.5 16.1-16.2-1.8-1.8-5.2.1-11.1 6.3-5.6 5.7-7.2 6.8-9.7 6.6-1.6-.1-3.8-.3-4.8-.4-2.7-.2-6.4-4.7-7.1-8.7-.4-1.9-1.4-3.8-2.2-4.1-2.1-.8-1.7-4.1.6-4.8 2.8-.9 6 .3 6 2.3 0 2.9 3.6 7.8 6.8 9.1 2.9 1.2 3.3 1 8.4-3 5.4-4.2 10.5-6.9 13.3-6.9.8 0 2.9 1.4 4.7 3 1.9 1.8 4.7 3.3 7 3.6 2.1.4 3.8 1.1 3.8 1.6 0 1.7-4.3 2.5-8.8 1.6-4.7-.8-9.2.8-9.2 3.4 0 .7-2.1 3.4-4.7 6-3 3.1-4.2 4.8-3.1 4.8.8 0 2.1-.6 2.7-1.4 1.6-1.9 6-2.9 7.4-1.8.7.5 2.4 1.2 4 1.6 3 .7 3.8 4 1.1 5-1.4.5-1.6 2-1.2 9.4.4 7.8 1 9.6 5 17.9 2.5 5.1 6 11.2 7.9 13.5 9.8 12.2 16.5 24.6 19.4 35.8 2.2 8.5 4.3 12.6 5.8 11.1.8-.8.8-3-.1-8.2-.7-3.9-1-7.5-.6-8 .3-.6 0-1.6-.6-2.4-2.3-2.7 1.5-2.8 6.9-.1 3 1.5 6.7 2.6 9.1 2.6 2.3 0 5 .5 6.1 1 3.1 1.7 2.2-.1-2.6-5.5-4.3-4.8-11.7-16.8-11.3-18.3.1-.4-.4-3.8-1.1-7.5-2.2-11.1-.5-17.3 7.1-26.8 3.5-4.3 8.9-7.9 11.9-7.9 2.9 0 2.3 1.6-1.6 4-1.9 1.2-5.6 4.6-8.1 7.6-5.6 6.6-6.9 11.6-5.3 21.3 1 6.9 7.1 20.6 9.4 21.5.8.3 4.8 4.7 9.1 9.8 11.7 14.1 13.5 16.1 14.1 15.4.4-.3-.1-1.4-.9-2.3-.9-1-2.9-4.5-4.6-7.8-1.9-3.6-5.7-8.5-9.6-12.3-7.3-7.1-10.8-13.5-12.7-23.2-1.6-8.7-1.4-10.9 1.8-16.6 4.3-7.7 9.5-11.6 18.7-14l4.9-1.3 4.8 4.2c2.7 2.3 4.9 4.5 4.9 4.9 0 .5-2.7.8-5.9.8-5.7 0-6.1.2-9 3.9-3.7 4.6-2.6 6.2 2.2 3.3 3.8-2.4 10.7-3.9 10.7-2.4 0 .6-1.6 2.8-3.4 4.9-2.6 2.7-3.2 4-2.4 5 1.3 1.6 4.2.2 6.4-3.3 1.9-2.8 6.4-5.4 10.3-6 3.9-.5 34.7-.5 36.2.1 2.9 1 7.9 1.5 21.2 2.1l13.7.7v2.9c0 1.7-.8 4.3-1.7 5.9-1.6 2.6-1.6 3.1-.3 3.9 2.3 1.5 5.7 1.2 6.4-.6.3-.9.6-3.1.6-4.9 0-4.1 1.8-5.5 3.7-2.9 1 1.3 1.3 3.3.8 6.6-.5 4.3-.4 4.8 1.4 4.8 2.4 0 3.1-1.9 2.5-6.2-.3-1.8-.6-4.7-.7-6.3-.2-2.8 0-3 2.8-2.7 7.2.6 7.3.7 8 7.9.3 3.8 1.5 13.1 2.7 20.8l2 13.9-2.8 2.4c-1.6 1.2-4.1 2.5-5.7 2.9-1.5.3-3 .9-3.3 1.4-.6 1-4.9.3-12.9-2.1-4.4-1.4-10.5-2-23-2.4-9.4-.3-18.3-1-19.8-1.5-2.6-1-15-2.3-24.7-2.5-4.4-.1-4.5 0-5.8 3.9-.7 2.2-1.7 4.2-2.2 4.5-.5.3-1 2.8-1.2 5.5l-.3 5-1.4-4.3c-2.6-7.9-3.9-3.4-1.5 5 1 3.5-1.3 1.7-3.5-2.7-1.2-2.5-2.5-4.5-2.7-4.5-1.2 0 2.7 16.4 4.9 20.7 2.2 4.2 4.3 5.6 7.1 4.9 3.2-.8 4.1-4.7 2.1-8.7-2.9-5.5-1.1-20.7 2.8-24.1 3-2.7 3.6-1.4 2.1 4.8-1 4.4-1.1 7.7-.2 14.3.5 4.7 1.2 8.8 1.4 9 .8.9 1.6-.9 1.8-4 .1-1.8.7-3.4 1.4-3.7 1-.3 1.1 1.9.6 10.1-.7 10.2.1 13.4 2.3 10.4 3.4-4.4 3.4-21 0-27.3-2.2-4.2-3.2-10.9-1.8-11.8.6-.4 4.4-.7 8.4-.8 13.5-.1 12.3-.6 15.8 6.9 2 4.3 3.4 6.2 3.6 5.1.2-.9-.1-2.6-.6-3.7-2.3-4.3-1.4-5.9 3.5-6.3 5.9-.4 6.5.5 9.2 13.2 2.3 10.5 1.9 17-1.5 30.5-2.2 8.4-3 10-4.7 8.6-.8-.7-1.1-5.5-.9-16.7.2-15.8-.9-22.4-3.7-22.4-.6 0-.8.4-.5 1 .5.8.6 7.8.3 20.8-.2 6.5-1.5 5.9-2.1-1.1-1.3-12.8-3.7-25-5.3-26.8-2.8-3.2-3.3-1.2-1.4 6.3 1 4 2.3 11.3 2.9 16.3.6 4.9 1.6 12.5 2.2 16.8.6 4.2.9 8.3.6 9.1-.8 1.9-6.8 2.9-8.3 1.4-2.5-2.7-4.6-13-4.3-21.2.4-9.1-1.3-11.4-3.1-4.5-1.4 5-.8 19.6.9 22.8 1.4 2.6 1.2 2.7-8.4 3.5-4.4.4-10.1.1-15.5-.9-4.7-.8-9.6-1.5-11-1.5-5 .1.6 2.7 9.7 4.5 16.4 3.2 40.5 1.7 58.2-3.6 6.1-1.8 19.5-8.1 21.6-10 1.3-1.3 2.5-1.1 2.5.5s-9.4 10.6-11.2 10.6c-.7 0-3.5 1.2-6.3 2.6-6.2 3.1-9.9 4-26.1 5.9-18.4 2.1-26.1 1.9-35.8-.9-4.4-1.3-10.3-3-13-3.8-2.8-.8-5.4-2.2-6-3.3-1.6-3-2.8-3.6-5.8-3.1-3.8.7-8.4-3.4-11.5-10.3-2.4-5.2-13.1-20-16.6-22.9-.8-.7-2.1-3.3-2.8-5.7-1.1-3.8-1.5-4.2-3.2-3.3-2.8 1.5-1.6 4.5 5.6 14.4 7.5 10.4 11 15.4 16.2 23.5 3.7 5.8 4 6.9 4.4 14.6.4 9.7 0 10.4-8.7 16-6 3.9-12.5 5.8-22.7 6.8-10.1.9-19 4-23.3 8-8.4 7.7-19.3 13.5-29.4 15.6-2.9.6-6.4 1.7-7.8 2.4-3.9 1.9-13.2 3.4-28.5 4.6-23.1 1.9-37.5 2.4-39.8 1.6-1.2-.5-10.3-.9-20.2-1-11.8-.2-18.7-.7-20-1.5-2.6-1.5-20.1-5-29.5-5.8-7.7-.6-18.8 1-26.8 4-2 .8-6.7 2.5-10.4 3.9-3.7 1.3-9.3 4.4-12.3 6.8-7.1 5.6-6.5 5.2-16.5 9.7-4.7 2.1-13 4.9-18.5 6.1-15.4 3.5-21.9 5.5-27 8.7-6.4 3.9-19.3 15.6-22.4 20.2-4.9 7.5-5.8 8.8-8.8 14.2-1.7 3-4.1 8.4-5.3 12-1.2 3.6-3.2 9.2-4.5 12.5-4.2 10.8-6 22.3-7.5 48.5-1.2 20.5-2.4 23.9-14.4 39.8-3.9 5.2-7.7 10.3-8.4 11.3-1.5 2-9.2 20.4-9.2 21.9 0 .6.8 1 1.8 1 1.2 0 3-2.5 5.7-7.6 2.2-4.2 4.9-9.3 5.9-11.3 1.1-2 4.5-7.1 7.7-11.3 3.2-4.3 5.4-8 4.8-8.3-1.4-.9-1.1-2.5.6-2.5.9 0 2.5-1.6 3.6-3.5 1.2-1.9 2.5-3.5 3-3.5 2.1 0 3.8-11.3 4.4-29 .7-22.3 3.6-37.5 9.6-50.8 1-2.3 1.9-4.8 1.9-5.4 0-2.9 9.9-21.2 15.3-28.3 6.2-8.1 11.3-12.6 18.4-16.4 4.7-2.5 24.3-7.6 33.9-8.9 7.1-1 9.8-2.4 21.9-11 10.5-7.5 15.8-10.3 26-13.6 17.8-5.6 18.8-5.7 32.6-4 15.2 1.9 19.2 2.7 25.5 5.5 4.3 1.9 6.9 2.2 21.4 2.4 17.1.3 31.7 1.2 33.2 2.1.5.3 3.9.1 7.6-.5 3.7-.5 12.3-1.7 19.2-2.6 6.9-.8 15.9-2.2 20-3 4.1-.8 9.9-1.7 12.7-2 5.3-.7 5.5-.8 30.9-17.2 2.7-1.7 6.3-4.2 7.9-5.6 3.8-3.1 5.5-3.6 17.5-5.2 9.7-1.2 14.2-2.9 23.8-8.7 6.5-4 2.2 1.6-5.3 6.8-3.7 2.6-10.1 5.9-17.5 9.1-3.8 1.6-4.6 2.2-2.5 1.9 5-.8 15.8-4.1 19-6 13.9-7.9 15.5-9.1 19.2-15 2.4-3.7 2.6-3.8 6.6-3.1 10.5 1.7 15.6 2.5 21 3.1 3.1.4 5.7.9 5.7 1.2 0 .2-1.6 2.7-3.5 5.3-3.2 4.5-4.6 8.9-2.7 8.9.4 0 2.7-2.5 5.1-5.6 2.7-3.4 4.9-5.4 6-5.2 1.8.4 1.9 1.7.2 15.7-.6 5.2-.9 9.7-.7 9.9.9.8 3.6-10 4.8-19.1l1.2-9.8 3.6.6c1.9.4 3.6.8 3.8 1 .5.4.4 23.4-.1 24.2-.3.5-.1 1.7.3 2.8 1.6 4.2 3.1-3.4 2.8-14.7-.2-8.8 0-11 1.2-11.8 3-1.9 4.6-.5 5.4 4.4 1 6.2 1.8 8.8 3.9 13.3 2.7 5.9 3.8 5.4 2-1-2.2-7.6-3.2-17-1.9-17.9.6-.4 3.4-.8 6.1-.8 2.8 0 8.1-1.2 12-2.6 3.9-1.4 8.2-2.8 9.8-3.1 1.5-.3 3-.9 3.3-1.4 1.4-2.4 2.2-.1 2.8 9.1.3 5.5 1 10.8 1.5 11.8 3.2 6.3 5.2 11.8 6.3 17.4 1.1 5.5 2 7.1 7.1 12.8 3.3 3.6 6.7 8.1 7.8 10 2.3 4.5 2.5 2.5.2-2.6-2.4-5.2-7.2-11.4-8.9-11.4-1.3 0-2.4-3-4.4-13.2-.6-3.1-2.1-7.2-3.4-9.1-1.9-2.7-2.4-5.2-2.9-14-.4-5.9-.4-10.7 0-10.7.3 0 2.1 1.7 3.9 3.7 3.6 4.1 4.7 3.2 1.3-1.1-1.1-1.4-2.4-4-2.9-5.7-.8-2.7-.5-3.5 2.5-6.7 1.8-2 3.7-3.4 4-3 2.5 2.5 3.4 15.8 2 29.5-.7 6.8 1.2 14.7 4.6 19.2 1.1 1.3 1.9 2.9 1.9 3.5 0 .6 1.4 3.1 3 5.5 3.3 4.9 8.8 9 16.3 12.3 2.6 1.1 4.7 2.4 4.7 2.9 0 1.3-4.3 3.9-8.4 5-2.3.6-3.5 1.4-2.9 2 1.3 1.3 7.9-.8 10.9-3.6 2.8-2.6 7.8-3.3 9-1.4.8 1.3-1.4 5.8-4.1 8.2-4.2 3.7-5.2 3.8-8.3 1.2-3.6-3-3.9-3.1-3.7-.5.1 2 4.4 6 6.4 6 1.4 0 1.4 5.7 0 6.6-1.1.7-8.9-2.4-10-4-.4-.5-1-3.8-1.4-7.2-.5-4.6-1.1-6.4-2.1-6.4-1.1 0-1.4 1.4-1.3 6.2.2 7.5 1.2 9.3 6.2 11.9 3.3 1.8 3.7 2.3 3.7 6 0 2.2-.6 5.4-1.3 7.2-2.7 6.4-2.7 25.9-.1 33.5 1.9 5.8 3.6 13.6 3.7 17.8.1 3.4-4.1 9.5-9.9 14.6-2.4 2.2-3.3 3.8-3.7 7.5-.4 4.1-1.2 5.4-5.1 9-4.1 3.6-6.6 7.6-6.6 10.3 0 .5 2-1.1 4.5-3.5 2.4-2.5 4.9-4.5 5.4-4.5s1.4-1.5 2.1-3.3c3.2-8.6 4.6-11 8.6-14.7 3.9-3.6 6.4-4.9 6.4-3.5 0 2.1-8.3 16.8-13.1 23.2-7.9 10.6-20.9 22.2-20.9 18.7 0-.4 1.4-2.2 3-4.1 1.7-1.8 3-3.9 3-4.6-.1-.7-.8-.3-1.8.8-.9 1.1-2.8 2.5-4.2 3.1-18.7 8.6-20.6 9.7-25.1 14.7-3.6 3.9-5 4.9-5.9 4.1-.9-.9-.9-2.3.2-6 1.3-4.7 1.5-4.9 5.2-5.1 2.9-.2 4.8-1.1 7.3-3.5 1.8-1.7 3.3-3.5 3.3-4 0-.4.9-3.2 2-6.1 1.7-4.4 3.4-6.6 9.6-11.8 9.9-8.5 11.4-10.9 11.4-19.3 0-4.7.5-7.5 1.7-9.3 1.4-2.1 1.7-4.4 1.5-10.7-.2-4.5-.4-9.7-.5-11.6-.1-1.9.3-5.6.7-8.3 1.1-6.2-1-6.4-4.3-.5-2.1 4-2.2 4.7-1.1 11.3 2.5 15.3 2.5 14.3-1 18.6-2.8 3.5-3.1 4.6-2.9 9.2.5 10-2.5 16.6-8.7 18.9-3.8 1.3-7.7 7.1-8.9 13-1.2 6.1-1.6 6.8-4.8 8.4-4.3 2.3-8.6 3.4-9.2 2.4-1.1-1.8 3.3-10.6 7.4-14.8 5.7-5.9 9.6-14.6 11.4-25.2 1.6-9.9 1.5-31.6-.2-33.3-1-1-1.5 4.9-1.4 18.3.1 4.4-2.7 19.1-4.7 25.4-2.4 7.3-3.4 9.1-4.8 8.2-1-.6 1.6-11.6 3.8-15.6.6-1.2 1.4-6.3 1.7-11.3.4-8.1.1-10.5-2.7-20.7-4.8-17.2-7-27.9-7.1-34.2-.1-6.2-.9-7.7-2.9-5.3-1.9 2.3-.8 18.6 1.9 27.5 1.2 4.1 3 10 3.9 13 .8 3 1.8 5.8 2.2 6.2 1 1.3-.8 20-2.3 23.7-.9 2-2.3 7.1-3.2 11.5-1.9 8.2-4.5 14.6-6.7 16.2-1.2 1-6.3 3.1-13.8 5.9-5 1.9-5.3 4-.4 3.2 2.2-.3 4.8-.9 5.9-1.2 1.1-.3 2.6-.1 3.4.4 1.2.8.9 1.5-1.4 4.3-1.5 1.8-4.7 4.5-7.1 6.1-2.4 1.5-4.4 3.2-4.4 3.7 0 2.2 4 .8 8.1-3 7.5-6.9 7.9-6 5.3 11.5-1.6 10.8-1.6 11.2.5 19.2 2.5 9.9 2.6 12.1.5 19.8-2.8 10.3-1.8 16.5 4.7 30.1 2.1 4.5 3.9 8.8 3.9 9.6 0 .8.4 1.8 1 2.4 1.9 1.9 6 14.6 6 18.8 0 4.1-1.6 9.6-4.1 14-.8 1.4-.7 1.7.3 1.4 2.1-.6 7.1-11.8 7.6-17.1.5-4.7.5-4.8 3.5-4.1 1.6.3 5.6 2.7 8.8 5.4 6.8 5.4 10.7 7.5 16.7 9 5.1 1.3 5.3 2.8 1 7.5-3.7 3.8-15.8 10.5-19.2 10.5-1.2 0-4.1-1.6-6.3-3.5-2.3-1.9-4.5-3.5-5-3.5-.4.1.3 1 1.6 2.1 1.8 1.5 2.1 2.3 1.3 3.1-2.8 2.8-26.9 4.4-37.2 2.4-7.5-1.4-9-2.1-9-4.2 0-2.4 4.7-6.4 7.5-6.4 3.1 0 3.2-1.1.4-3.6-1.2-1-3.8-5.5-5.9-9.9-3.9-8.3-4.5-10-5.6-15-.9-4.5-2-28.5-1.3-29.8.4-.7.9-3.8 1.2-7 .5-5.1.4-5.8-1.1-5.5-2 .4-2.6 8.3-2.5 29.8.1 13.6 1 18.5 4.9 26.2 1.4 2.7 2.4 5.4 2.2 5.8-.6 1.8-7.1-2.4-8.2-5.2-1.2-3.3-2.6-3.5-5.1-.8-2.5 2.8-2.9 1.9-1.1-2.6.8-2.2 2-6.8 2.7-10.4 1.4-7.9 2-40.2.7-39.8-1.3.5-1.2.1-2 14-1.7 32.4-2 34.3-5.3 39.4-1.7 2.6-11.3 6-12.8 4.5-.5-.5-.3-3.1.7-6.4 1.4-4.9 4.3-24.2 4.3-29.2 0-1.1.1-6.7.3-12.5.1-5.8 0-11.2-.3-12-.3-.8-.8-4.7-1.2-8.5-1.4-16.2-6.5-25.9-17.5-33-6.9-4.4-8.2-7.3-7.4-15.8.8-7.1 2.2-10.4 5.5-12.8 3.3-2.3 3.7-4.4 1.2-5.7-1.2-.7-2.4-.4-4.3.9-2.5 1.9-2.6 1.9-6.7-.1-2.3-1.1-4.6-2-5.1-2-2.9 0-15.5-9.1-21.4-15.3-7.2-7.7-8.1-9.3-4.5-8.3 1.2.4 4.4 1.1 7.1 1.6 2.7.6 5.4 1.4 6 1.9 1.3 1.1 13.5 3.6 14.2 2.9 1.4-1.5-1.2-3.6-5.3-4.2-10.4-1.4-22.4-4.8-25.2-7.2-4.3-3.6-5.1-3.1-3.6 2 2 6.5 2.9 7.9 9.3 14 9.5 9 24 19 27.5 18.8.9 0 1.7.3 1.7.9 0 1-1.4 1.2-7.5 1-6.2-.2-13.6-2.1-18.1-4.7-2.2-1.3-5.1-2.4-6.3-2.4-2.9 0-13.6-6.5-16.2-9.8-1-1.4-1.9-3.5-1.9-4.7 0-1.2-.3-2.5-.7-2.9-.4-.4-1.3-3.1-1.9-5.9-1.5-6.9-8-22.1-11.8-27.7-3.4-5-11.6-14-12.8-14-1.6 0-.8 2.7 1.3 4.6 2.4 2.1 10.9 12.9 10.9 13.8 0 .3 1.8 4.8 4.1 9.8 2.2 5.1 4.9 11.1 5.8 13.3 1 2.2 2.4 6.2 3.2 8.8.9 3.1 2.9 6.4 5.5 9.2 6.9 7.1 24 14.5 34 14.5 2.3 0 6.2.3 8.8.6 4.6.7 4.7.7 4 3.8-1.4 6.6-2.5 7.1-15.3 7-6.4 0-13.7-.6-16.4-1.2-2.6-.7-6.8-1-9.2-.8-6.9.7-9.7-.6-21.1-9.9-6.2-5.1-11.2-8.4-12-8.1-2.2.9-1.6 2.4 1.6 4.1 4.4 2.3 8.8 5.4 15.8 11.3 3.5 2.8 7.1 5.2 8 5.3 2.3.1 26.7 1.1 31.9 1.3 2.2 0 3.9.5 3.6 1-.4.5 1.7.7 4.6.4l5.2-.5 2 4.3c1.2 2.4 1.8 4.7 1.5 5.3-.4.5-3.7 1.2-7.4 1.6-3.7.4-9.8 1.2-13.7 2-8.9 1.6-15.4.8-27.4-3.5-8.6-3.1-10.1-4-18.8-12.1-12-11.2-25.1-17.8-29.9-15.1-1.5.8-1 1.3 3.4 3.2 8 3.4 5.7 4.3-9.1 3.6-12.6-.7-16.7-1.6-16.7-3.6 0-.6-1.5-1-3.2-1h-3.3l4.8 3.2c4.5 2.9 5.6 3.2 15 3.5 24.6.8 25.2.8 31.4 4.6 3.2 2 7.6 5.4 9.8 7.7 4.6 4.8 18.1 12 22.4 12 1.6 0 5.2.5 8 1.2 4 .9 8 .9 17.9-.1 7-.6 14.3-1.7 16.2-2.2 3.1-.9 4.1-.7 8.6 1.8 10.3 5.7 11 6.8 14.1 19.3 3.3 14 1.9 61.7-2.1 71.2-.9 2.1-1.6 4.8-1.6 6.2 0 2.2.5 2.4 5.3 2.8 5.1.3 10.5-.8 17.9-3.9 3.6-1.5 3.7-1.5 8 1.9 2.4 2 5.3 4.1 6.6 4.7 3.2 1.7 2.8 2.8-1.8 5.1-4.8 2.5-6.1 5.3-6.3 13.6-.2 7.3.4 8.1 8.9 12.9 14.8 8.3 31.4 12.2 45 10.5 18.6-2.4 21.1-3.3 17.7-6.7-2.7-2.7-5.3-6.5-5.3-7.9 0-.7 3.6-1 11.3-1 10.5.1 11.5-.1 16.7-2.8 9.9-5.2 13.1-7.7 11.9-9.2-.6-.8-1.7-1.4-2.3-1.4-1.6 0-6.6-5.2-6.6-6.8 0-.7-.8-1.2-1.8-1.2-2.4 0-5.2-3.1-5.2-5.8 0-2.6-2.5-5.2-5.1-5.2-3.3 0-16.3-6.7-21-10.8-2.4-2.1-6.4-4.5-8.9-5.2-4.1-1.2-4.8-1.8-7.5-7.4-1.7-3.4-5.2-10.2-7.9-15.1-6-11.3-6.8-17.5-3.8-31 1.4-6.3 1.7-9.5 1-10.8-.5-1.1-1.2-6.9-1.5-13l-.4-11.2 3.3-3.9c7.8-9.1 16-16.1 20.2-17.2 2.2-.5 3.5.3 10.1 7.2 4.1 4.3 7.5 8.1 7.5 8.5 0 .8 22 20.2 30.4 26.9 3.2 2.5 7.7 6.2 10.1 8.3 4.5 4 10.5 14.3 10.5 18.2 0 3.5 3.9 15.5 5.1 15.5.6 0 3.1-1.6 5.7-3.6 4.5-3.4 7.9-9.4 6.6-11.5-1.3-2.2 1.5-.6 5.6 3.2 2.5 2.3 5.9 4.8 7.7 5.5l3.1 1.4-1.4 4.7c-1.3 4.4-1.3 15 .2 22 .5 2.8 6.9 5.7 18.4 8.5 14 3.3 36.7 2.6 41.8-1.5 2-1.6 1.4-3.6-2.3-8.1-5-6.2-4.7-7.6 3.3-13.2 3.7-2.6 7.5-5.7 8.5-7 1-1.3 2.6-2.4 3.6-2.4 2.9 0 7.1 2.4 7.1 4.1 0 3.3-5.4 8.5-12.2 11.7-3.7 1.8-6.8 3.5-6.8 3.9 0 1.1 9-.7 11.8-2.4 7-4.4 11.8-8.8 13.4-11.9l1.6-3.4-6.5-3c-3.6-1.7-6.9-3-7.4-3-.9 0-11-9.9-12.4-12.2-.7-1.1-3-1.9-7-2.3l-6-.6 4.6 2.8c4.9 2.9 16.9 13.3 16.9 14.5 0 1.1-17.1 13.8-18.6 13.8-1.9 0-4.1-3.6-6-9.8-1.9-5.9-4.8-9.3-13.7-16-9.7-7.3-9.7-10.4.1-10.6 4.7-.1 5.8-.4 5-1.4-.6-.6-2.8-1.2-5-1.2-4.2 0-8.8-3.4-8.8-6.5 0-3-4.8-9.9-12.5-17.9-5.5-5.8-8.7-10.3-12.1-17-2.5-5-5.7-10.7-7.2-12.6-4.8-6.4-16.6-17.2-21.1-19.4-3.5-1.6-4.7-2.8-5.1-5.1-1.1-5.2-6.1-13.8-10.6-18.4-6.3-6.4-9-11.6-9.7-18.7-.4-3.3-1.7-8.4-3.1-11.3-2-4.4-2.4-6.9-2.5-15.4 0-5.6.5-12.8 1.3-15.9.7-3.2 1.1-7 .8-8.4-.8-4.5 1.6-5.4 9.6-3.7 5.5 1.1 8.3 1.2 15.7.2 5-.7 10.6-1.3 12.5-1.4 8.7-.7 15.1-1.9 16.1-3.2.7-.7 1.3-5.2 1.5-9.8l.4-8.5h-4.5c-6.3 0-11.2-2.6-11.7-6.1-.4-2.5.1-3.1 3.6-5 2.3-1.2 4.3-2.5 4.6-2.9.3-.4 1.9-1.4 3.6-2.3 2.3-1.2 4.1-3.7 6.9-9.3 3.5-7.1 3.9-8.6 4.3-18.1l.5-10.3-4.8-9.7c-2.7-5.4-5.6-10.7-6.6-11.8-1.9-2.1-2.6-9-1.4-13.5l.7-2.5-2.1 2.4c-1.2 1.3-2.1 3.3-2.1 4.6 0 3-2.5 5.2-3.4 3-1.5-3.9 5.7-17.5 9.3-17.5 1.6 0 5.1 4.2 5.1 6.1 0 1.6-.3 1.8-1.9.9-3.1-1.6-3.1-1.2 0 2.1 1.6 1.7 3.4 2.9 4.1 2.7.6-.2 1.3-2.5 1.5-5 .5-5.2-1.7-8.1-6.6-9.1-2.5-.5-2.9-1.1-3.4-5.9-.4-2.9-.7-7.2-.7-9.5s-.5-4.5-1-4.8c-.7-.4-.7-1.3 0-2.6 1.5-2.7-.7-17.2-3.2-21.9-1.1-2.2-1.6-4.5-1.3-6.2.4-1.4.1-2.9-.4-3.3-1.4-.8-1.4-3.5 0-3.5.6 0 3.9 1.7 7.4 3.7 5.7 3.4 6.5 4.3 7.7 8.3.7 2.5 1.3 6.3 1.3 8.4 0 3.4.5 4.2 3.4 5.8 3.4 1.9 6.1 1.8 6.1-.2 0-.6-1.2-1.5-2.6-2-2.1-.8-2.5-1.5-2-3.5.3-1.3.2-2.7-.4-3-.5-.3-1-1.3-1-2 0-.8-1.4-3.8-3.1-6.5-2.3-3.7-4.2-5.5-7-6.7-6.1-2.4-5.3-3.7 2.2-3.3 3.7.1 5.3-1.1 5.4-4 0-2.2 19.6-2 24.5.3 1.9.9 8.8 2.8 15.3 4.1 7.5 1.6 13.8 3.6 17.4 5.5 6.4 3.5 8.7 3.7 15.7 1.6 5.1-1.6 21.2-2.2 25.7-1 1.7.4 3.2 0 4.9-1.3 2.8-2.3 2.1-4-3.4-7.7-3.8-2.6-4.5-2.7-15-2.4-7.8.2-12.2-.1-14.8-1.1-5-1.9-4.9-3.5.2-4.5 8.4-1.6 14.8-5.1 21.2-11.4 3.8-3.6 6.8-7.4 6.8-8.3 0-.9.5-2 1.1-2.4.6-.3.8-1.7.4-3.1-.3-1.4-.1-3.1.6-3.9.6-.8.9-2.3.6-3.5-.4-1.5.7-3.7 4-7.7 2.5-3.1 5.2-7 5.9-8.7 1.1-2.8 4.7-5.7 11.1-9.3 1.9-1 2.4-.9 3.3.7 1.3 2.5 1.3 12.1 0 12.1-.5 0-.7.7-.3 1.6.8 2-3.2 6.1-6.9 6.9-1.6.4-2.7 1.2-2.5 1.8.6 1.9 8.8 3.5 11.9 2.5 3.1-1.1 7.8-6.2 7.8-8.4 0-.7.9-2.8 2-4.6 3.1-5.1 2.3-17.8-1.1-17.8-.8 0-1 1.6-.5 5.5.5 4.4.2 6.4-1.7 10.7-1.3 2.9-3.2 6-4.2 6.8-1.7 1.4-1.8 1.3-.9-1.5.5-1.7.9-7.6.9-13.2 0-6.3.4-10.6 1.1-11.3.8-.8 1.4-.9 1.8-.1 1.3 2 2.4 1.1 3-2.4.8-4-1.5-8-5.1-8.9-1.9-.5-2.2-1.3-2.1-4.9 0-3.5-.7-5.4-4.1-10.3-3.4-4.8-4.1-6.7-4.1-10.5 0-3.9-.6-5.4-4.1-9.8-2.2-2.8-4.3-5.1-4.5-5.1-.3 0-3.4 1.6-7 3.5-4.6 2.4-7.4 3.3-9.2 2.9-2.7-.6-8.2 2.6-8.2 4.7 0 .5 2.3 2 5 3.4 6.2 3.2 5.9 4.2-3.8 11.3-6.2 4.5-9.1 8-13.8 16.7-.6 1.1-2.6 2.8-4.3 3.9l-3.3 1.9-4.6-4.8c-5.3-5.4-11.6-8.5-17.1-8.5-2.1 0-4-.2-4.3-.5-1.2-1.2 7.2-19.1 11.8-25.2 3.9-5.1 2.7-14.2-2.8-21.4-1.6-2-2.8-4.1-2.8-4.7 0-.6-2-4.9-4.3-9.6-3.2-6.1-4.6-10.1-5-14.6-.6-5.8-1-6.5-5.4-10.6-2.7-2.4-5.1-4.4-5.5-4.4-.4 0-1.4 1.5-2.1 3.3-.8 1.8-3 4.5-5 6-3.2 2.5-3.5 3-2.7 5.9.5 1.8 1.1 5.7 1.5 8.5l.7 5.3h4.9c5.8 0 7.8 2.3 4.1 4.8-1.2.8-2.2 1.9-2.2 2.4s2.3 3.6 5.2 6.9l5.2 6-1.3 11.7c-.7 6.4-1.4 12.8-1.6 14.2-.2 1.4-.7 5.5-1.1 9.2l-.7 6.6 3.9 2.5c3.8 2.4 9.4 10.9 9.4 14.2 0 .8.5 1.5 1.1 1.5 1.2 0 .8-8.3-.6-11.4-1.4-3.1 1.7-1.4 3.7 2s2.5 8.5 1.3 12.7c-.7 2.5-.5 2.8 1.1 2.5 2.4-.4 4-7.7 2.5-11.8-1.9-5.7 1.8-4.9 8.3 1.8l3.8 4 5-2.6c3.2-1.7 5.7-3.9 7.1-6.4 2.5-4.3 3.7-4.8 3.7-1.4 0 3 8.6 11.1 12.8 12.1 1.8.3 3.4 1 3.7 1.4.6 1.1-1.2 7.7-3.5 12.6-1.7 3.8-2.4 4.2-9.2 6.4-4 1.3-13 4.1-19.9 6.4-9 2.9-13.3 3.8-15.3 3.3l-2.9-.7 3-3.2c3.8-4 5.3-6.8 5.3-10 0-3.1-2.7-9.7-4-9.7-.5 0-2.5 1.5-4.4 3.2-5.7 5.4-9.3 7.8-14 9.4-2.8 1-5.5 2.8-7.1 5-1.5 2-3.8 3.9-5.2 4.5-1.8.6-2.3 1.4-1.8 2.8.8 2.5-1.1 3.7-7.3 4.5-4.4.6-6 .3-8.8-1.4-2-1.1-4.7-2-6.2-2s-7.4-1.2-13.2-2.6c-5.8-1.4-15.4-3.6-21.5-4.9-13.4-3-21.8-6.4-26.7-11-4-3.8-5.9-4.3-7.9-1.9-1.1 1.3-.5 2.2 3.7 6.4 4.7 4.6 5.3 4.9 17.8 8 7.1 1.7 18.6 4 25.5 5.1 6.9 1.1 16 2.9 20.1 4 11 3 12.1 4.6 5.3 7.4-4.4 1.9-7 1.9-8 .1-.5-.8-3.3-1.6-7.3-1.9-10-.8-27.3-3.5-30.4-4.7-1.5-.5-4.6-2.3-6.9-3.8-2.3-1.6-6.3-3.4-8.8-4-4.1-1-5.5-.9-11.7 1.2l-7 2.4-5.4-2.8c-2.9-1.6-5.8-2.9-6.4-3-1.1 0-10.5-4.2-13.4-6-.8-.5-6.4-3.3-12.4-6.2-9.9-4.8-11.1-5.7-14.5-10.7-2-3-5.7-7.4-8.3-9.9-2.8-2.6-5.9-7-7.7-10.8-2.9-6.1-3.2-6.4-6.5-6.4-4.1 0-4.4-.9-2.1-6.7.8-2.1 1.6-5.9 1.8-8.4.2-2.5.7-5.1 1.1-5.8.4-.6.9-2.1 1.2-3.3 3-14.1 3.1-18.4.7-21.8-1-1.3-1.8-4.7-2-7.9-.8-16.1-1.1-18.7-3.2-22.3-1.5-2.4-2.1-5-2-8 .1-3-.7-6-2.7-10.2-2.5-5-3.5-6.1-6.9-7.2-2.2-.7-5.4-2.9-7.1-4.8-2.2-2.5-4-3.6-5.9-3.6-1.7 0-4.2-1.3-6.6-3.4-2.1-1.9-5.6-4-7.7-4.6-2.2-.5-4.5-1.6-5.1-2.4-.6-.7-3.8-1.6-7-2-3.2-.4-8.2-1.6-11.2-2.6-8.7-3.2-16.9-2.3-20.8 2.3-.6.8-3.7 1.8-6.7 2.2-4.5.5-6.7 1.5-10.9 4.8-4.9 3.9-6.2 5.7-9.4 12.7-.7 1.4-2.4 3.2-3.9 4.1-2.5 1.4-3.5 2.9-6.2 9.1-1.6 4-3.9 12.2-4.4 16.3-2.6 20.2-2.8 22.6-1.6 23.9.9 1.2.7 1.7-1.2 2.7-1.3.7-4.6 3.6-7.4 6.6-4.4 4.5-5.3 6.2-6.3 11.3-.7 3.3-1.3 6-1.5 6-.3 0-16.5-8.3-29.6-15.2-3.6-1.9-14.6-7.1-24.5-11.7-9.9-4.5-19.1-8.9-20.5-9.7-3.8-2.3-19-9.4-23.4-11-2.2-.8-6-2.6-8.4-3.9-2.5-1.4-4.9-2.5-5.4-2.5-.6 0-3.8-1.3-7.2-2.9-21.7-10.3-33.9-15.7-38.2-17.1-2.1-.7-4.8-1.9-5.9-2.6-1.1-.8-2.6-1.4-3.3-1.4-1.3 0-2.5-1-5-4.2-1.1-1.4-1.1-2.1.4-4.3 1.5-2.2 2.3-2.6 4.8-2.1 3.2.7 11.8 4.3 25.1 10.7C228.4 65.5 258.1 79 259.7 79c.4 0 5.9 2.4 12.2 5.4 6.4 3 13.9 6.4 16.6 7.6 2.8 1.2 9.5 4.4 15 7 5.5 2.7 13.2 6 17 7.5 3.9 1.4 9.3 3.6 12 4.9 7.2 3.4 11.4 4.6 12 3.5.4-.5.4-1.3.1-1.8-.6-.9-11-6.1-26.6-13.4-12.1-5.5-33.4-14.7-34.4-14.7-.4 0-4.9-2-10.2-4.5-5.2-2.5-9.7-4.5-9.9-4.5-.3 0-2.4-1.2-4.8-2.7-2.3-1.5-7.6-4.1-11.7-5.9-4.1-1.7-10.7-4.7-14.6-6.7-3.9-2.1-7.7-3.7-8.4-3.7-.6 0-2.4-.6-3.8-1.3-7-3.5-12.7-6.2-13.2-6.2-.8 0-8.2-3.2-16.5-7.1-3.8-1.8-8.6-3.8-10.7-4.5-3.2-1.1-3.7-1.7-4.3-5.6-.7-4.9-1.9-5.3-6.8-2.6-4.9 2.7-8.7 6.5-8.7 8.6 0 1-.7 5.9-1.6 10.8-1.6 8.4-1.8 8.9-4.2 8.9-2.4 0-2.5-.1-1.8-6.3.3-3.5 1.5-8.9 2.6-12 1.1-3.2 1.8-6.7 1.5-8-.5-1.6.3-3.1 2.9-5.6 3.9-3.7 3.8-5.1-.1-5.1-1.6 0-2.7.7-3 2-.3 1.1-1.1 2-1.7 2-1.3 0-12.7-9.7-18.9-16.1L131.8 5h-15.3c-8.8 0-15.6.4-16 1-.3.5-1.9.7-3.5.5-5.5-.9-8.5-1-15.7-.7Zm53.5 7.8c4.2 3.6 8.8 7.5 10.2 8.7 1.4 1.2 3.9 2.8 5.6 3.7 3.1 1.5 3.1 1.5 1.5 4.1l-1.6 2.7-7-3c-3.9-1.6-8.7-3.8-10.7-4.9-2-1-4.2-1.9-4.8-1.9-3.5 0-32.6-12.7-31.6-13.8 1-.9 24.2-3.1 27.9-2.6 1.6.2 6 3.1 10.5 7ZM93.1 9.8c5.3 3.9 32 16 46.7 21.2 5.2 1.9 9.7 4 10 4.8.3.8 0 3.8-.7 6.6-.6 2.8-1.6 7.1-2.1 9.6-1.3 6.2-2.9 8.7-5.5 9.4-1.9.5-2.5 1.7-3.5 7.1-.7 3.6-1.5 6.7-1.9 6.9-.4.3-2.5-.4-4.8-1.4-4.2-1.9-4.3-2-6-11.8-.5-3 0-3.8 4.8-8.7l5.4-5.4 2.7 3.2c1.4 1.7 3 2.9 3.4 2.4.4-.4 0-1.5-.9-2.4-.8-1-1.7-3.4-1.9-5.3-.3-3.8.9-4.3 6-2.6 1.8.6 2.2.4 2.2-1.3 0-1.1-.4-2.2-.9-2.5-1.6-1-16.4-2.8-24.4-3l-7.8-.1-3.2-3.9c-6.4-7.9-15.1-16.6-19.9-19.8C88.2 11 86 9.2 86 8.7c0-1.4 4.7-.7 7.1 1.1Zm329.8 20.3c4 1.4 3.9 2.1-.4 4.2-4.4 2.1-5 2.1-10.2-.1-4.9-2-5.5-3.2-1.5-3.3 1.5 0 3.6-.4 4.7-.9 2.7-1.2 3.7-1.2 7.4.1Zm-251.4 5c.4.6-.2 2-1.3 3.2-1.4 1.5-2.7 5.9-4.3 14.2-1.2 6.6-2.6 12.4-3 12.9-.4.4-1.5-.6-2.4-2.3-1.2-2.5-1.4-3.9-.6-6.4.5-1.8 1.5-5.9 2.1-9.2.6-3.3 1.6-7.2 2.2-8.8 1.5-4 5.8-6.1 7.3-3.6Zm267.6 2.1c1.2 1.5 2.3 1.9 4 1.5 1.5-.4 3.3.1 4.8 1.2l2.4 1.9-4.1.7c-2.2.3-4.6 1.3-5.3 2.1-1.7 2.1-2.7 1.7-4.3-1.5-1.1-2-2.8-3.2-6.1-4.2-2.5-.7-4.5-1.6-4.5-1.9 0-1.3 5.6-2.8 8.5-2.4 1.7.2 3.7 1.4 4.6 2.6ZM411 38.5c1.3 1.3 1.2 1.5-.3 1.6-.9.1-2.1.3-2.7.4-.5.1-1.9.3-2.9.4-1.1 0-3.3 1.2-4.9 2.6-3.2 2.7-7.2 3.3-7.2 1.1 0-.7 2.1-3 4.7-5 4-3.1 5.2-3.6 8.3-3.1 1.9.3 4.2 1.2 5 2Zm-19.2 1.7c-1.8 2.7-5.8 4.9-7.2 4.1-1.2-.8 4.9-6.3 7-6.3 1.5 0 1.5.2.2 2.2Zm22.2 3.7c0 .5-.7 1.4-1.6 2.1-2.2 1.9-3.3 4.3-4 8.7-.6 4.2-1.8 5.8-5.2 6.8-2.2.6-2.3.5-1.6-1.7.4-1.2 1.2-4.8 1.8-7.8 1-4.8 1.5-5.7 4.6-7.2 3.8-2 6-2.3 6-.9Zm19.7 2.2c6.1 6.9 6 6.9 13.7 6.3 6.9-.6 7.2-.5 9.9 2.4l2.9 3-5.1-.1c-2.8 0-5.7.5-6.3 1.1-1.6 1.6-6.3 1.5-9.7-.3-1.6-.8-4.5-3.7-6.6-6.5-3.8-5.2-5.4-6.5-3.4-2.9 1.1 2.1 1 2.2-3.1 1.5-2.5-.4-5.7-.2-7.7.5-4.3 1.4-4.9.8-2.8-2.5 1.2-1.8 3-2.8 5.6-3.2 2.2-.4 4.2-1.1 4.5-1.5 1.2-2 5.5-.8 8.1 2.2Zm21.4.9c3.3 1.8 2.1 2.5-4.1 2.5-3.3 0-6-.2-6-.4s.8-1 1.8-1.7c2.1-1.6 5.6-1.8 8.3-.4Zm-69.6 3.1c-.5 1.6-.3 2 1.2 1.7 2.5-.4 3.1 5.6.8 8.2-2 2.2-7.3 4.5-8.2 3.6-.4-.3.4-2.4 1.6-4.7 1.3-2.2 2.1-4.2 1.9-4.5-.9-.9-7.3 4.2-7.6 6.1-.2 1.1-1.1 3.9-1.9 6.3-2 5.4-4.7 5.4-5.1.1-.4-4.5 4-10.2 11.8-15.3 3-2 5.6-3.6 5.8-3.6.2 0 0 .9-.3 2.1Zm11.5 2.1c0 4.7-2.4 14.6-3.8 16-.9.9-3.3 1.9-5.3 2.2-5.6.9-8.5 2.2-10.9 5.3-1.9 2.4-2.1 3.6-1.6 8 .6 4.8.4 5.3-1.4 5.3-2.4 0-4-2.8-4-7s6.8-11.6 12.2-13.2c4.4-1.3 8.1-5.5 9.2-10.3 1.3-5.3 5.6-10.2 5.6-6.3Zm32.2 4.9c2.2 2.5 1.4 4.3-1.1 2.7-2.6-1.6-6-.4-10.9 3.7l-4.2 3.7v-3c0-2.6 2.8-7.4 5.5-9.5 1.8-1.4 8.9.2 10.7 2.4Zm-253.6-.6c.3.8-1.2 4.4-3.5 8-2.3 3.5-4.1 6.9-4.1 7.5 0 .5-.4 1-1 1-.5 0-1.6 1.3-2.5 3-.9 1.6-2 3-2.5 3-1.8 0-1.1-4.6 1-6.5 1.1-1 2.2-2.7 2.6-3.8 1.1-3.4 7.4-13.7 8.5-13.7.5 0 1.2.7 1.5 1.5Zm296.5 2.2c2.3 2.3 3.9 4.7 3.9 6.1 0 3-.7 2.7-5.8-2.9-6.6-7.3-5-9.9 1.9-3.2Zm-7.1 4c2.4 3 2.1 4.9-.6 4.6-1-.2-5.6-.3-10.2-.3-10.9-.1-17-2.3-9.9-3.5 1.3-.3 4-1.2 5.8-2 1.9-.8 5.5-1.4 8.1-1.5 3.9 0 5 .4 6.8 2.7Zm-310.6-1.1c.9.3 1.6 1.2 1.6 2 0 .7.9 1.8 2.1 2.4 2 1.1 2 1.2.3 3.1-1.2 1.4-2.8 1.8-5.8 1.7-3.9-.3-4.1-.2-4.1 2.7 0 2.7-.3 3-3.7 3.3l-3.8.3v-5.5c0-5.4.1-5.5 4.3-8 4.3-2.6 6.3-3.1 9.1-2ZM429 64.4c0 2.1-2.7 8.1-4.2 9.3-.7.6-4.9 2.3-9.3 3.9-6.4 2.2-8.8 3.7-12.2 7.3-4.6 4.8-5.6 4-2.9-2.2 2.7-6.4 7.8-10.4 16.2-12.6 2.3-.6 5.4-2.4 7-4 3.1-3.2 5.4-3.9 5.4-1.7Zm8.2 3.1c2.4 2.1 4 2.5 8.6 2.4 3.1 0 6.6-.4 7.7-.8 1.2-.5 4-.1 7.3 1 2.8 1 5.2 1.5 5.2 1.2 0-.3.7 0 1.5.7 2.5 2.1 1.8 4.7-1.7 5.9-4.9 1.7-10.8 6.1-12.4 9.2-2.2 4.4-1.7 8 2.8 17.5 4.5 9.6 6.1 20 3.9 24.3-1.1 2-1.3 2-3.6.5-1.4-.9-2.5-2.2-2.5-2.9 0-1.8-3.1-4.3-6.5-5.1-4.5-1-4.7-1.3-2.3-4.5 1.7-2.3 1.9-3.2 1-4.1-1.6-1.6-3.7-.3-6.3 3.9l-2 3.2 2.1 2.1c1.6 1.6 2.8 2 5 1.5 2.3-.5 3.5-.1 5.5 1.9 1.4 1.4 2.5 3.4 2.5 4.5s.5 2.3 1 2.6c2.2 1.4.6 2.2-7.9 3.9-7.4 1.5-9 2.2-9.5 4-.9 3.6 1.1 4.3 5.4 1.8 3.3-1.8 5.4-2.2 13.2-2.2 9.2-.1 9.3-.1 7.1-1.9-3-2.5-2.9-4.4.1-6.1 1.4-.7 3-2.5 3.6-4.1 1.4-3.3.6-11.3-1.6-15.4-1.7-3.3-1.3-4.1 1.4-2.6 1 .5 2.8.8 3.9.5 1.5-.4 2.2 0 2.6 1.8 1.3 4.7.6 11.5-1.8 18.3-1.3 3.8-2.7 8.9-3.1 11.2-.3 2.4-1 4.3-1.5 4.3-.4 0-.7 2.3-.7 5.2.1 4.3-.2 5.4-2.5 7.4-4 3.4-9.6 4-15.2 1.4-5.3-2.4-12-2.4-12 0 0 1.1 1.3 1.6 4.8 1.8 2.6.2 4.7.6 4.7 1 0 .3-2.1 2.8-4.7 5.4-2.6 2.6-4.4 5.1-4 5.5.4.3 1.3.1 1.9-.5.7-.7 1.9-1.2 2.8-1.2 1 0 3.5-1.3 5.6-2.8 4.2-3 4.5-3 10.7 1.2 3.3 2.2 5.1 1.3 1.9-1-2.4-1.7-2.1-3.4.7-3.4s6.1-4.3 7.5-9.6l1.3-4.9 2.2 4.2c1.2 2.4 2.6 4.3 3.1 4.3 1.9 0 1 2.8-1 3.3-1.1.3-2.3 1.3-2.7 2.3-.3.9-1.9 3-3.6 4.5-2.8 2.7-2.9 4.9-.3 4.9 1.1 0 2.7-2.1 9.3-11.9.5-.8 5.3 1 5.3 2 0 .6-.9 2.2-2 3.6-3.4 4.3-2.2 4.9 1.8 1 2.3-2.2 4.8-3.7 6.2-3.7 2.9 0 8.5 3.2 11.7 6.6 3.4 3.6 10.4 16.1 12.9 22.9 1.3 3.3 3.6 8.8 5.3 12.3 4.4 8.8 4.3 9.2-2.6 8.5-8.5-.9-10.2-1.8-12.3-6.6-2.2-4.9-5.7-9.7-7.1-9.7-.5 0 .6 3 2.5 6.7s3.2 7.1 3 7.5c-.6.9-13.6.9-17.6-.1-2-.4-3.8-2.4-6.8-7.3-2.2-3.7-4-7.1-4-7.6 0-.4-1.4-1.9-3.1-3.1-3.3-2.5-3.3-2.2-.6-11.8 1.6-5.8 1.4-6.3-2-6.3-2.4 0-2.7.9-2.4 7 .1 1.4-.2 3-.6 3.5-1.4 1.9-19.6 10.3-23.3 10.8-1.9.2-4.6-.1-6-.6-2.5-1.1-12.3-7.2-21-13-2.7-1.9-6.5-3.3-9.7-3.8-5.1-.7-11.7-4.4-10.7-6.1 1.7-2.8 11.1.8 24.5 9.5 11.8 7.6 15.8 9.5 21.7 10.3 4.9.6 5.3.5 8.4-2.7 1.8-1.9 4.8-4.2 6.6-5.1 3.3-1.7 4.3-3.8 1.8-3.8-.7 0-2.8 1-4.7 2.3-10.3 6.9-20 6-30.4-2.7-8.1-6.8-14.1-9.7-21.7-10.3-3.8-.3-6.8-.8-6.8-1.1 0-.3 1.1-2.4 2.4-4.6 3.2-5.6 4.2-13.5 2.2-17.4-.9-1.7-1.6-3.8-1.6-4.8 0-1.5.2-1.5 2.5 0 2.2 1.5 2.6 1.4 6-.5 3.3-2 3.5-2.4 2.9-5.8-.8-4.5-1.2-4.9-2-2.5-1 2.7-3.5 5.4-5 5.4-.7 0-2.6-1.2-4.3-2.6-2.9-2.4-3.1-3-2.6-7.1.3-2.5 1.2-6.7 2.1-9.3 1.4-4.4 1.8-4.8 4.7-4.6 2.2.1 3.2-.4 3.5-1.7.2-.9-.4-1.9-1.2-2.2-.9-.3-2.3-.7-3.1-1-1.3-.4-1.3-.9 0-4.5.8-2.2 1-4 .5-4-.6 0-1 .5-1 1.1 0 .5-1.7 1.7-3.7 2.5-7.9 3.1-10.6 5-13 9.1-5.4 9.2-10.6 11-21.1 7.4-2.9-1-6.4-1.6-7.7-1.3-1.4.2-2.5 0-2.5-.6 0-1.6 5.8-2.4 12.6-2 5.1.4 6.4.1 10-2.4 2.2-1.5 5.2-4.3 6.5-6.3 1.7-2.5 4-4.1 7.7-5.5 2.9-1.1 5.7-2 6.2-2s2.5-.7 4.3-1.6c3.3-1.6 5.7-6.1 5.7-10.7 0-3.4 11-11.9 17-13.1 3.2-.6 10.9-8.2 12.2-11.9 1.2-3.3 1.3-3.3 5-.2Zm-28.7.7c-.4 1.3-1.9 3.2-3.3 4.3-4.6 3.4-10.2 9.5-10.2 11.1 0 3.4-4 9.2-7 10.3-4.3 1.5-4.6 0-1.5-8.4 2.9-8 6.4-12 14.5-16.4 6.7-3.7 8.4-3.9 7.5-.9Zm263.8 5.5c1.9 2.2 3.4 9.3 1.9 9.3-1.1 0-6.2-8.2-6.2-9.9 0-1.7 2.5-1.3 4.3.6Zm-515 .7c.8 2.1-2.5 7.9-5.3 9.4-5.1 2.7-24-1.3-24-5.1 0-2.5 1.2-2.6 6.1-.6 2.8 1 7.4 1.9 10.5 1.9 4.9 0 5.5-.2 6.4-2.6.6-1.4.8-2.9.6-3.2-.2-.4.9-.8 2.4-.9 1.6-.1 3 .4 3.3 1.1ZM483 83.1c1.8 5.3.6 6-3.1 1.8-3.6-4.1-5.9-8.8-5.2-10.7.9-2.1 6.8 4.2 8.3 8.9Zm-99-3.6c-1.1 2.5-1.9 5.1-1.7 5.8.5 2.8-2.8.9-3.6-2-1.2-4.2 1.2-8.3 4.8-8.3h2.4l-1.9 4.5Zm-17.1-.1c-1 2.2-.9 3.7 1.1 9.7l2.4 7-3.2 3.1c-1.7 1.8-3.4 2.9-3.8 2.6-.3-.4-.8-3.3-1.1-6.6-.4-4.6-.1-7.2 1.6-11.7 2.5-6.6 3.1-7.8 3.7-7.2.3.2-.1 1.6-.7 3.1Zm302.9 3.7c2.6 2.8 5.3 6.3 6.1 7.8 2.4 4.6 7.4 12.5 9.3 14.7 1.1 1.2 1.8 2.5 1.7 3-.1.5 1 3.4 2.4 6.4 1.5 3 2.7 6.8 2.7 8.3 0 1.6-2.2 6.5-5 11.3-2.7 4.7-5 8.8-5 9.3s-.7 1.4-1.5 2.1c-2.6 2.2-2.9-1.6-1-12.4 2.8-15.9 2.9-17.5 1.2-19.4-.8-.9-2.4-3.5-3.6-5.7-1.2-2.2-2.7-4.8-3.4-5.7-.9-1.4-.9-2.2 0-3.7 2.5-4-1.5-10.1-6.6-10.1-2.5 0-2.7-.4-3.6-6.3-.9-6.2.3-6.1 6.3.4Zm-197.6 2.3c1 4.6-.2 6.6-2.7 4.6-1-.8-3.4-1.1-7-.8-5.9.5-6 .3-4.5-3.7 1.2-3.1 4.2-4.5 9.5-4.2 3.7.2 4 .4 4.7 4.1Zm-343.3-.8c2 1.7 3.1 3.5 3.1 5.2 0 1.5.9 4.2 2 6 1.1 1.8 2 3.9 2 4.8 0 .8-2 4-4.5 7.1-2.5 3-4.5 5.9-4.5 6.4s-.4.9-1 .9-.7-2.8-.3-7.5c.6-7.2.1-10.5-2.9-18.7-.7-1.8-.6-3.3.2-4.7 1.4-2.7 2.2-2.6 5.9.5Zm350.9 4.8c3.1 3.5 6.9 12.2 5.9 13.2-2.2 2.3-8.8-6-9.7-12.2-.4-2.4-.4-4.4.1-4.4.4 0 2 1.5 3.7 3.4Zm-332.5 3.7c-.1 2.4.2 6.4.7 8.9.5 2.5.5 6.1.1 8-.6 2.9-.3 4.1 2 7 1.4 1.9 3.4 5.1 4.3 7 .9 1.9 3.2 6.5 5.1 10.1 5.2 10.2 7.3 26 4 30.3-1.7 2.3-1 3.9 1.5 3.1 2.1-.7 3.1 1.8 5 12.8 1.8 9.9.3 25.6-4.1 43.7-1.8 7.4-1.7 7.2-3.9 6-2.1-1.1-2.5-.4-1 2 .6 1 .3 2.5-1.1 4.7l-2.1 3.3 3.4 4.2c1.8 2.4 4.3 5.2 5.6 6.3l2.2 2-2.2 4.4c-2.1 4.3-2.1 4.8-1 18.9 1 12.2.9 15-.3 17.9-2.1 5-1.9 6.6 1.5 10.1 3.5 3.7 3.7 4.8 1.3 7.5-1 1-1.8 3.3-1.8 5 0 6.2-5.4 3.7-9.4-4.3-1.4-2.8-1.8-6.6-1.9-20-.2-15.6-1.7-29-3.3-29-.4 0-1 1.6-1.4 3.6-.8 4.3-1.5 3.7-4.4-3.6l-2.2-5.5.5 6.7c.3 4 .1 6.8-.4 6.8s-2.8-.7-5-1.6c-2.3-.9-4.4-1.3-4.8-.9-1 .9 2.7 3.5 6.1 4.2 4.8 1 3.1 3.1-4.3 5.3-5.9 1.8-7.2 3-3.1 3 2.5 0 3.2.4 2.7 1.5-.4 1 .1 1.5 1.5 1.5 1.6 0 1.9.4 1.4 2.1-.4 1.3-.3 1.9.2 1.6 1.6-1 8.2 1.3 10.3 3.6 2.9 3 2 4.2-3.1 4.2-6.4 0-6.5 1.9-.1 2.3 3.6.2 5.2.7 5.2 1.7 0 .8-.4 1.7-1 2-.5.3-1.7 2.2-2.6 4.1-2.3 4.8-4.5 5.7-14.4 5.9-4.7.1-9.4.5-10.5.9-1.3.4-3.7-.3-7.1-2.3l-5.2-3 2-5.8c2.4-7.3 4.6-19.8 4-22.9-.7-3.9-3.2-2.9-3.3 1.3-.2 7.7-.7 10.1-3.9 19.3-4.1 12.3-4.4 12.8-10.9 23.7-3.1 5.1-6.2 9.3-6.8 9.3-.7 0-1.3-.3-1.3-.8-1-22.6-.7-31.9.9-38.2 1-3.8 2.9-8.6 4.1-10.7 1.2-2.1 2.8-5.2 3.4-6.9 1.4-3.9 9.8-17.4 10.8-17.4.5 0 .8.6.8 1.3 0 1.7 6.8 9.7 8.2 9.7.6 0 .4-.8-.4-1.8-3.7-4.1-6.3-12.2-3.9-12.2.5 0 2.1 1.6 3.5 3.5 2.7 3.5 6.3 6.1 7.3 5.2.2-.3-1-1.8-2.7-3.4-6.5-5.8-13-18.8-13-26.2 0-3.7 1.4-2.2 4.8 4.9 1.8 3.9 3.7 7 4.3 7 .6 0-.1-2.1-1.5-4.8-1.4-2.6-3-6.1-3.7-7.7-1.4-4-2.8-12.6-2.2-14.2.9-2.2 2-1.4 2.7 1.7.8 4.5 2.2 3.6 1.8-1.1-.6-5.5 1.1-7 3.2-2.8.9 1.8 1.6 3.7 1.6 4.2 0 1.3 7.1 9.9 7.7 9.3.2-.2-1.1-2.7-3.1-5.6-3.6-5.2-5.1-9.9-4.4-14.1.3-2.1.8-1.6 3.7 3.3 1.8 3.2 3.7 5.8 4.1 5.8 2.2 0 2-2.4-.3-4.8-2.7-2.8-5.7-9-5.7-11.7 0-1.4.5-1.3 3 .5 3.7 2.6 3.9 1.4.4-2.3-2.3-2.5-4.6-9.7-3-9.7.3 0 2.3 1.8 4.5 4 3.6 3.7 6.1 5 6.1 3.2 0-.4-2-2.7-4.4-5.1-6.2-6.1-7-11-1.4-8 2.2 1.2 2.2 1.1.9-.7-.8-1-2.6-3.1-3.9-4.6-1.3-1.4-2.2-3.3-2-4.2.2-1.4 1.1-1.1 4.8 1.5l4.5 3.2-5-5.3c-2.7-3-5.6-6-6.2-6.8-.7-.7-1.6-2.5-2-3.9-.3-1.5-2.1-5.2-3.8-8.4-5.9-10.3-6.8-16.6-4.4-29.4.6-3.3 1.1-6.9 1-8 0-2.9-3.3-9.8-5.5-11.6-2.3-1.9-1.4-3.9 1.7-3.9 2.5 0 8.7 5.7 8.7 8 0 .9.5 2.1 1.2 2.8.8.8 1.1 3.6 1 7.3-.2 6.2 1.1 7.3 2.1 1.9.9-4.2 2.3-3.7 3.1 1 .7 4.6 2.6 5.4 2.6 1.1 0-4.8 1.8-8.3 7-13.6 6.2-6.3 7.2-9 5.4-13.5-1.1-2.6-1.2-4.1-.3-6.7 1.3-4 3.3-5.3 6.8-4.3 2.3.6 2.6 1.1 2.4 5.1Zm323.1-.1c2 .7 2.6 1.6 2.6 4.1 0 2.6-.3 3-1.7 2.4-5.2-2.2-9.3-2.7-10.8-1.5-1.9 1.6-3.9.1-3.3-2.6.5-2.9 8.2-4.3 13.2-2.4Zm-77 4.8c-1.4 3.6-2.3 4.4-7.1 6.2-3.1 1.1-7.2 2.1-9.2 2.1-4.1.1-9.1 1.7-9.1 3 0 .5 1.4.6 3.1.2l3.1-.6-2.1 4c-2.4 4.8-4.5 5.5-13 4.7-5.7-.6-7.7-2.4-2.6-2.4 2.9 0 4.1-1.6 2.1-2.7-1.2-.6-.3-1.8 4.1-5.2 7.1-5.5 11-7.1 17.2-7.1 3.9 0 5.9-.7 9.7-3.3 2.7-1.8 5-3.3 5.2-3.1.2.1-.5 2-1.4 4.2Zm75.5 3.8c1.7.8 3.6 2.5 4.2 3.6 1 1.9.9 2-1.2 1.4-1.3-.4-4.3-1-6.6-1.3-4.4-.6-6.9-2.4-5.8-4.3.9-1.5 5.7-1.2 9.4.6Zm16.9 12.1c-.2 2-.8 3.8-1.4 4-1.6.5-8.7-13.4-7.9-15.5.5-1.4 1.4-.9 5.1 3.1 3.9 4.1 4.5 5.2 4.2 8.4Zm-93.5 6.5c-2.9 8.2-4.3 10.2-9.3 12.9-1.9 1.1-4.5 2.6-5.7 3.5-2.3 1.6-2.3 1.6-2.3-2 0-3 .9-4.6 5.5-9.6 3-3.3 5.5-6.4 5.5-7 0-1.2 5.9-5 7.7-5 .8 0 .3 2.4-1.4 7.2Zm91.4 4.3c.8 2.4.6 4-.9 7.4-1.2 2.8-2.2 4.1-2.8 3.5-1.1-1.1-3.4-15.6-3.1-19.8.1-1.6.7-1.1 3 2 1.5 2.1 3.3 5.2 3.8 6.9Zm271 5.5c1.4 1.7 2.7 4 2.8 5.3.6 8.6 1.9 13.2 4.5 15.6 2.3 2.1 2.9 3.6 3.2 8.1.3 5.3.2 5.5-2.2 5.3-11.7-1.1-14.9-1.7-17.7-2.9-6.9-3.1-8.7-2.9-12.7 1.3l-3.6 3.8-2-2.5c-3.2-4.1-2.5-6 5.3-13.5 4.1-4 8.7-9.6 10.6-13 3.4-6.2 6.8-10.5 8.3-10.5.4 0 2 1.4 3.5 3Zm-404 6.5c-2 6.2-2 6.7-.5 11 1.7 4.4 1.2 10.1-.8 9.9-.5-.1-2.2-2.6-3.7-5.5-2.4-4.6-2.7-6.2-2.2-10.6.7-6.9 2.2-10 5.4-11.1 1.4-.5 2.9-.8 3.3-.6.3.2-.3 3.3-1.5 6.9Zm12.8-2.6c-1.7 3.4-1.9 5.5-1.6 14.6.2 3.3 0 7.5-.4 9.2-.5 2-.4 3.3.3 3.3 2.3 0 3.4-3.4 3.8-11.7.6-10.2 1.7-14.3 4.6-16.9l2-1.9-.7 4.5c-.5 2.5-.7 7.5-.6 11.3.3 13.2-5.8 21-12.7 16.1-1.8-1.2-2-1.9-1.2-3.4.7-1.4.6-3.1-.5-6.2-3.2-9.2-1.1-18.8 4.7-21.2 1.8-.8 3.4-1.3 3.6-1.1.2.2-.4 1.7-1.3 3.4Zm376.5-1.5c0 1.1-1.9 1.5-2.5.6-.3-.5.1-1 .9-1 .9 0 1.6.2 1.6.4Zm-263.4 3.8c3 5.8 3.4 8.6 1.7 13.4-.8 2.5-2 4.3-2.6 4.1-1.5-.5-4.7-11.4-4-13.6 1.1-3.6 2.6-7.1 2.9-7.1.2 0 1.1 1.4 2 3.2Zm-94.1 3.5c-1.7 4-2.5 9.2-2.5 16 0 6.2-.3 7.5-2.6 10.2-1.8 2.2-3.5 3.1-5.5 3.1-3.6 0-3.7-1.3-.3-5.7 1.9-2.5 2.7-5 3.1-9.6.6-6.8 4.6-15.7 7.1-15.7 1 0 1.2.6.7 1.7Zm7.4 3.5c1.6 4.4 2.2 13.6 1.2 17.6-1.2 4.1-4.9 10.3-6.6 10.9-.5.1-1.7-.2-2.5-.7-1.3-.8-1.1-1.6 1.2-5.8 1.5-2.7 2.5-5.2 2.2-5.5-.3-.3-.9-3.1-1.3-6.3-.7-4.9-.5-6.3 1.1-9.1 2.3-3.9 3.5-4.1 4.7-1.1Zm-67.9 6.4c0 .3-.6 1.2-1.4 1.9-1.7 1.7-3 .7-1.5-1.2 1.2-1.3 2.9-1.8 2.9-.7Zm166.5 8.7c2.5 1.9 1.3 3.2-2.7 3-1.8-.1-4.3-.2-5.6-.2-3.5-.1-2.1-2.5 1.9-3.2 1.9-.4 3.7-.7 4-.8.3 0 1.3.5 2.4 1.2Zm254.9 5.3c.9.8 1.6 2 1.6 2.5s1.6.9 3.5.7c4.4-.3 5.1.5 3.1 3.4-.9 1.2-1.6 3.1-1.6 4.2s-.7 2.8-1.7 3.8c-1.4 1.6-1.4 1.8-.1 1.8 6.5 0-2.2 16.8-11.4 22-2.2 1.2-4.1 2-4.3 1.8-.2-.2.9-1.8 2.5-3.7 1.6-1.8 4.5-6.6 6.4-10.5 2.7-5.8 3.3-8.2 3-11.7-.2-2.4-.4-5.6-.4-7.1 0-3.7-1.7-4.4-4.5-1.8-4.6 4.4-9-.5-4.5-5 2.4-2.4 6.3-2.6 8.4-.4Zm16.6 4.5c0 .6-.4 1.8-1 2.8-.5 1-1.2 3.3-1.5 5.2-.7 4-.8 4.1-2.9 3.3-3.3-1.3-.5-11.8 3.3-12.1 1.2-.1 2.1.3 2.1.8Zm11 .6c.2.2-.8 1.5-2.2 2.8-1.5 1.4-3.1 3.2-3.6 4.1-1.2 2.1-4.2 1.2-4.2-1.3 0-2.8 5.1-7.4 7.4-6.7 1.2.4 2.3.8 2.6 1.1Zm-459 14.6c.4.5 1.2-.5 1.8-2.2 1.2-3.3 3.2-4 5.2-1.6 2.4 2.9.8 5-4.3 5.6-4 .4-5 .2-5.8-1.3-.6-1.2-.5-2.4.3-3.8 1.3-2.1 1.3-2.1 1.6.2.2 1.3.7 2.7 1.2 3.1Zm58.7-2.3c3.7 0 4.4.3 4.1 1.7-.2 1-1.5 2.4-2.9 3.2-2.3 1.3-3.4 1.3-8.3.1-3.1-.7-5.5-1.8-5.3-2.4.5-1.6 5-3.7 6.5-3.1.8.3 3.4.5 5.9.5Zm13.2 3.7c-.5 2.1-.9 5.4-.9 7.4 0 3.6 0 3.6-5 4.3-6.1.8-6.9.4-6.2-3 .5-2.8 11-13.7 12.3-12.8.4.2.3 2.1-.2 4.1Zm14.2-.9c3.6 1.1 8.6 2.9 11 4.1 5.7 2.7 14.4 9 14.4 10.4 0 2-3.4 1.9-6.4-.2-1.6-1.2-3.5-2.1-4.3-2.1-.8 0-2.1-1.4-2.9-3.1-1.4-3.1-6.6-5.8-11.2-5.9-2.2 0-9.3-3.6-10.3-5.1-.5-.8-.1-1 1.2-.6 1 .3 4.9 1.4 8.5 2.5Zm-.1 7.4c0 1.3-2.4.9-4.9-.9-2.3-1.6-2.3-1.7-.5-2.4 1.9-.6 5.4 1.4 5.4 3.3Zm293.4-.6c3.4 3.4 1.3 7.7-7 14-3.2 2.5-3.9 2.6-6.8 1.6-5-1.8-6-1.6-4.2 1 2.4 3.3 2 3.8-2.6 3.8-6.3 0-7.4-1.1-4.2-4.1 1.4-1.3 3.2-3.6 4-5.1.8-1.5 2-2.5 2.7-2.2 1.8.7 12.5-5.4 14.4-8.2 1.8-2.8 1.7-2.8 3.7-.8Zm-281.2 7.5c2.6 1.7 4.8 3.4 4.8 3.8 0 1-2.2 3.1-3.2 3.1-1.4 0-8.8-7.2-8.8-8.6 0-2.1 1.9-1.7 7.2 1.7Zm56.6 2c5.7 6.3 10.2 12.5 10.2 14 0 .8-3 1-10 .7l-10.1-.4-5.4-5.9c-3-3.3-5.4-6.3-5.5-6.6 0-.3 1-1 2.3-1.6 8.5-4.1 11.4-5.3 12.5-5.3.8 0 3.5 2.3 6 5.1Zm72 2.9c8.9 4.4 16.9 8 17.7 8 2.3 0 2.4 1.4.4 5.9-1.5 3.4-2.3 4.2-3.6 3.6-1-.4-3.1-1.1-4.6-1.5-1.5-.5-5.9-2.3-9.7-4.1-6-2.7-7.3-3.8-10.4-8.8-1.9-3.1-4.4-6.5-5.5-7.5-2.1-1.9-2.7-3.6-1.3-3.6.4 0 8 3.6 17 8Zm-14.4 3.4c4.3 8.6 4.7 11.9 1.4 11.4-1.8-.2-2.6-1.8-4.9-9.3-1.4-5-3-9.9-3.4-11-.8-2-.8-2 1.3-.2 1.1 1 3.7 5.1 5.6 9.1Zm-120.8-4.8c3.4 2.7 4.2 3.9 3.5 5.2-.4.9-.6 2.3-.4 2.9 1 2.8-1.7 1-6.7-4.3-4.1-4.4-5-5.8-3.9-6.5 2.2-1.4 2.9-1.1 7.5 2.7Zm-25.9.6c2.9 1 3.6 1 4.3-.2 1.4-2.2 1.2 1.3-.4 8.2-1.9 7.8-2.2 8.1-5.8 6.1-3.4-2.1-4.3-3.4-5.2-8.4-1.2-6.7.6-8.1 7.1-5.7Zm17.3.3c0 .8-.9 1.5-2 1.5s-2-.7-2-1.5.9-1.5 2-1.5 2 .7 2 1.5Zm326 2.4c0 1.8-7.3 7.2-13.8 10.2-10 4.6-14.2 6-19.7 6.6-6 .6-6.4.9-4.3 2.9 1.4 1.5 2.7 1.3 13.8-1.5 13.1-3.4 17.1-5 26.7-11.1 3.4-2.1 6.9-4 7.9-4.2 3.5-.6 2.6 3.1-2 8-3.9 4.1-6.4 5.6-14.9 9-5.6 2.2-12.9 4.8-16.2 5.7-3.3 1-6.4 2.1-6.9 2.6-1.9 1.7 2.6 2.1 6.7.6 2.3-.8 6.4-2 9.1-2.7 6-1.4 16.8-6.3 18.5-8.4.8-.9 1.8-1.6 2.3-1.6.5 0 2.1-.9 3.5-2s2.9-1.7 3.4-1.4c1.5.9-1.6 5.7-6.8 10.5-3.8 3.6-6.7 5.2-12.8 7.2-4.4 1.4-9.4 2.8-11.2 3.2-3.6.7-5.8 2.9-4.8 4.6 1 1.5 11 5.9 13.8 6 1.2.1 5.1-.2 8.7-.6 8.7-1 18 1.5 14.2 3.9-.4.2-5.4.6-11.2.7-5.8.2-11.7.7-13.2 1.3-2.2.8-4.2.5-10-1.6-4-1.5-8.6-3.1-10.3-3.7-1.6-.6-8.8-2.3-16-3.7-11.9-2.5-15-2.8-37.6-2.9-15.3-.1-25.7-.5-27.5-1.2-2.6-1-9.6-2.5-10.9-2.3-.3 0-1.9-.7-3.6-1.6-2.2-1.1-3.4-1.3-4.2-.5-1.2 1.2 1.5 2.4 9.1 4.2 5.9 1.5 6.7 2.2 5.3 4.8-1.2 2.2-7.9 6.1-10.4 6.1-.8 0-2.1.7-2.8 1.7-1.7 2-6.8 4.2-13.9 5.9-7.7 1.8-8 1.8-8-1.5 0-2.8.1-2.8 6.9-3.5 9.7-.9 13.7-2.7 5.6-2.4-10.1.2-12.7-.1-12.2-1.5.2-.7 2.2-1.2 4.8-1.3 9.7-.2 12.2-.4 11.7-1-.4-.3-4.3-.8-8.9-1-8.6-.5-9.9-.8-9.9-2.6 0-.7 2.3-.9 7.3-.4 3.9.4 11.7.9 17.2 1.2 14.2.9 11.2-1.1-4-2.6-6.6-.7-14-1.8-16.5-2.5l-4.5-1.2v-15.8l6-1.3c3.3-.8 8.5-1.9 11.5-2.7 6.8-1.6 21.6-1.1 30.8 1 3.7.9 10.2 1.9 14.4 2.2 7 .5 8.3.3 16-2.7 4.6-1.8 9.9-4.4 12-5.7 3.1-2.1 4.1-2.3 7-1.5 6.1 1.7 33.4-2.1 44.3-6.2 7.3-2.7 10.5-3.2 10.5-1.7Zm-323.6 5.6c2.7 1.9 5.8 3.5 6.8 3.5 1.4 0 1.6.6 1.1 3.2-1.1 6.4-2 6.1-12.8-5.1-3.3-3.4-3.7-5.1-1.2-5.1.7 0 3.4 1.6 6.1 3.5Zm187 1c7 3.3 3.3 5.6-4.8 3-3.1-1-6.6-1.5-8-1.1-4.1 1-7.6 7.5-7.6 13.9 0 5.9 3.2 37.5 5.5 53.7 2.1 15.4 1.7 28-.9 28-.8 0-1.2-4-1.2-13.3-.1-9.4-.7-16.1-2.2-23.2-4-18.9-6-44.7-4.1-52.7 1.2-5.3 3.2-7.4 8.5-9.3 4.7-1.6 10.1-1.2 14.8 1Zm-188.5 8.4c6.1 5.6 7.1 6.9 7.1 9.8 0 3.1-.2 3.4-2.2 2.7-2.3-.7-7.4-4.2-11.2-7.7-1.1-.9-2.3-1.7-2.8-1.7-.4 0-1.2-.9-1.8-2-.8-1.5-.7-2.7.5-5.1.9-1.6 2-2.9 2.4-2.7.5.2 4 3.2 8 6.7Zm144.2-1c2.1 1.7 2.2 2 .7 2.6-2.8 1.1-5.3.1-5.6-2.3-.4-2.8 1.7-2.9 4.9-.3Zm11.4 2.1c.3.6-.4 1-1.7 1-1.8 0-2-.2-.8-1 1.9-1.2 1.8-1.2 2.5 0Zm-168.9 4.7c2.6 2.1 8 5.4 11.9 7.3 7.5 3.7 7.3 3.5 14.9 18.5 2 3.9 3.6 7.4 3.6 7.9s.8 1.5 1.7 2.2c4.9 3.5-4.3 2.1-12.4-1.9-4.1-2-6.2-4.7-2.5-3.2 2.4 1 8.4 2.5 10.2 2.5.8 0-1.9-1.7-6-3.8-8.1-4-10.6-6.9-5-5.7 4.3.9 3.2-.6-2-3-4.3-2-4.9-4.1-.9-3.8 2.7.2 5.4-.5 4.7-1.2-.2-.3-3.5-1.6-7.3-3-6.8-2.4-8.4-3.6-14.2-11-5.4-6.7-4.1-7.4 3.3-1.8ZM613 244c0 .5-.4 1-1 1-.5 0-1-.5-1-1 0-.6.5-1 1-1 .6 0 1 .4 1 1Zm18 4c0 .5-.2 1-.4 1-.3 0-.8-.5-1.1-1-.3-.6-.1-1 .4-1 .6 0 1.1.4 1.1 1Zm-22.6 3.7c.3 1 .8 3.4 1 5.3.3 1.9 1.9 7.3 3.7 12 1.7 4.7 3.5 11.4 4 15 .4 3.6 1 8.7 1.3 11.5.4 2.7 1.1 8.7 1.7 13.2.8 5.9.8 9.2 0 11.3-.5 1.7-.8 3.7-.5 4.5.9 2.3-2 2.8-6.2 1-2.2-1-5.9-1.8-8.4-2-2.5-.2-5-.4-5.7-.4-1.3-.1-2-3-2.9-11.5-.6-6.5.1-7.6 4.9-7.6 1.5 0 2.7-.5 2.7-1 0-.6-3-1-7-1-8.9 0-14.9-2.7-15-6.6 0-.8 3.1-1.2 10-1.2 8.9 0 10.5-.3 15.5-2.8 5.1-2.6 5.6-3.1 5.3-5.9-.2-2.4-1.2-3.5-5-5.5-2.6-1.4-5.8-4.1-7-6-1.9-2.8-3.1-3.6-6.2-3.8-4.6-.4-6.1.8-8.8 7-1.2 2.9-2.7 4.8-3.7 4.8-.9 0-2.7.9-4 1.9l-2.5 1.9 2.3 5.8c5 13.1 6.1 16.4 7.6 23.5.8 4.1 1.5 7.5 1.5 7.6 0 0-2.1.1-4.6.1-3.9-.1-4.9-.6-6.9-3.2-2.2-3-2.3-4-2.9-25.6-.3-12.4-.7-24.3-.8-26.5-.3-3.8-.1-4 2.7-4.3 1.7-.1 5.9-.9 9.5-1.6 3.6-.7 9.3-1.2 12.8-1.1 6.5.2 7.8-1 3.4-3-2.9-1.3-2.4-2.5 2.4-5.2 4.7-2.7 5.1-2.8 5.8-.6Zm9.7-.6c1.3.7 1.8 1.6 1.4 2.7-.7 1.8 1.4 16.1 5.1 35.5 2.5 13.4 2.9 17.4 1.6 19.4-.5.8-1.2-.3-1.9-3-1.4-5.1-4-18.8-4.7-24.2-.6-5.1-4.2-23-5.5-27.2-1.3-4.4 0-5.4 4-3.2ZM535 275c1.1 1.8.3 27.6-1 33.1-1.5 6.3-4.1 11.3-5.5 10.8-.6-.2-.8-3-.7-6.2.2-3.3 0-5.7-.6-5.7-1.3 0-4.4 5.5-6.2 10.9-.9 2.9-2.4 5-4.5 6.2-1.6 1.1-3.1 1.5-3.3 1-.2-.5.9-3.5 2.3-6.7 7.7-17 10.7-25.4 10.1-27.1-.9-2.2-2.6-.5-4.8 5l-1.7 4.2v-5.9c-.1-3.7-1.1-8.8-2.7-13.4-2.6-7.6-2.3-9.7 1.1-9 1.2.2 2.3 2.3 3.4 7 1 3.7 2 7.1 2.4 7.4 1.5 1.6 1.7-.7.7-7.1-.8-5.1-.8-7 .1-7.5 1.3-.9 10 1.6 10.9 3Zm25.9.7c1.6 6 3 17.1 3.3 26.2l.3 8.5-3.8.9c-4.2 1-5.7 3.4-5.7 9.3 0 3.4.1 3.4 4.4 3.4 7.1 0 8 2.8 2.8 9.2-5.6 7-7.1 8.3-7.5 6.8-.6-2.2-2.8-10.9-3.7-15-.5-1.9-1.6-6.2-2.5-9.5-2.9-10.6-3.3-13.6-2.4-17.3.5-2 .9-7.6.9-12.5 0-7.7.2-8.7 1.8-8.7 1 0 3.3-1.1 5.2-2.5 4.8-3.3 5.8-3.1 6.9 1.2Zm40.9 2.8c2.4 3 5 5.5 5.8 5.5 1.9 0 1.5 3-.6 4.1-8 4.3-13.1 5.2-19.4 3.4-5.9-1.7-7.9-3.4-6.7-5.4.7-1 1.4-1 3.9.3 4.5 2.3 13.2 2 13.2-.5 0-.5-2.4-.8-5.4-.6-3 .1-5.7-.1-6.1-.4-.6-.7 5.1-9.7 7-11.1 2.2-1.7 4.2-.5 8.3 4.7Zm-58.4 3.9c.7 7.3.8 7-2.5 21.3-2 8.6-2.7 10.3-4.3 10.3-1.3 0-1.6-.3-.8-1.3 2-2.4 3.5-16.6 2.9-27.2-.3-5.6-.3-10.5 0-10.9.3-.3 1.3-.1 2.3.4 1.2.7 1.9 2.8 2.4 7.4ZM151.5 281c.4 1.6.3 3.9 0 5.1-.6 1.9-.8 1.9-2.4.5-1-.9-2.3-1.6-2.9-1.6-1.7 0-1.5-.8 1.1-4 2.8-3.7 3.4-3.7 4.2 0Zm440.9 25.8c1.2 4.2 1.7 15 .8 15.6-1.3.8-2-.2-2.7-4.5-.3-1.9-1-5.1-1.6-7.3-.6-2.1-.8-4.4-.5-5.2.7-1.7 3.4-.8 4 1.4Zm-21.2 12.6c2.1 4.5 1.9 7.6-.5 7.6-.8 0-1.9-1.1-2.5-2.5-.7-1.4-2-2.5-3.1-2.5-2.3 0-4.3-2.2-3.3-3.6.9-1.4 4.4-3.3 6-3.4.7 0 2.2 2 3.4 4.4Zm-24.4 4.3c0 3.3-.9 4.6-6.2 9.6-4.4 4.1-7.9 6.4-12.6 8.1-16.3 6-29.3 8.3-45 7.8-6.8-.3-8-1-7.3-4.5.5-2.3 1-2.7 4.1-2.7 2 0 6.1-.4 9.1-1 3.1-.5 11-1.6 17.5-2.5 7.3-1 14-2.5 17-3.9 2.8-1.3 6.9-3.1 9.1-4 2.2-.9 6-3.7 8.4-6.1 2.5-2.5 4.8-4.5 5.3-4.5.4 0 .7 1.7.6 3.7Zm55.1 3.3c6.3 1.2 12 2.5 12.6 2.9.5.5 2.1 1.2 3.5 1.6 4.2 1.2 8.8 5.3 11.6 10.3 1.5 2.6 3.5 5.9 4.5 7.4 7 10.1-.3 38.9-12 47.6-6.9 5.1-22.3 7.9-32.1 5.9-3.6-.7-10.1-3.5-12-5.1-.8-.7-2.7-1.6-4.2-2-3.6-.8-8.7-6-14.4-14.6l-4.7-7.2-.1-9.2c-.1-7.1.3-10.2 1.9-13.6 5.6-12.7 16.7-24.6 23.3-25.2 2-.2 5.3-.4 7.1-.6 1.9-.1 8.7.7 15 1.8Zm-159.7 8c-.5 3.2-3 7.2-4.3 6.8-.6-.2-1-.7-1-1.1.1-.4.1-2.5.1-4.8 0-3.8.1-4 2.8-3.7 2.2.2 2.6.7 2.4 2.8Zm15.6 4.2c.2.8-.6 2.6-1.7 3.9-2.8 3.4-4.4 1.5-2.5-2.9 1.4-3.4 3.6-3.9 4.2-1ZM449 341c-.6 1-1.5 2.2-2 2.5-1.4.9-1.3-2.8.2-4.3 1.7-1.7 3-.4 1.8 1.8Zm17-1.1c0 3-1.1 5.1-3.1 6.2-1.7.9-1.9.6-1.9-3.6 0-4.1.2-4.5 2.5-4.5 1.8 0 2.5.5 2.5 1.9Zm6.8 4.2c-.3 2.3-3.3 4.8-4.4 3.7-.3-.4-.4-1.9 0-3.3.8-3.3 4.9-3.6 4.4-.4Zm139.9 62.5c-1.1 1.1 1.3 4.4 3.1 4.4 1.6 0 6.5 2.8 5.2 3-.3 0-4.1.7-8.5 1.5-9.9 1.8-19.5 2-19.5.3 0-.6.5-2.6 1.2-4.3 1-3 1.5-3.3 7.7-4.2 8.4-1.3 11.6-1.5 10.8-.7Zm17.6 9.6c-.2.5-.3 2-.3 3.6 0 2.2-.8 3.1-4.2 4.9-9 4.4-14 5.4-27.4 5.4-7-.1-13.2-.5-13.7-1s-.7-2.1-.3-3.5c.6-2.3 1.1-2.6 5.2-2.6 3 0 4.6-.5 5-1.5.4-1 2-1.5 5.2-1.5 4.7 0 13.1-1.4 21.7-3.6 5.3-1.3 9.2-1.4 8.8-.2Zm-45.1 90.4c.6.5.1 2.1-3 11.4-3.2 9.6-14.1 23.3-23.9 30.1-4.1 2.8-7.3 3.7-7.3 2 0-.4 3.2-4.4 7.1-8.7 3.9-4.4 8.8-10.2 10.8-12.9 2.1-2.8 4.5-5.6 5.4-6.4 1-.7 1.7-1.7 1.7-2.2 0-.5 1.3-3.9 2.9-7.4 2.7-5.8 4.6-7.6 6.3-5.9Zm7.8 10.1c1.6 2.4 3.3 5.6 3.6 7 .4 1.6 6 7.9 13.6 15.3 7.1 7 13.7 13.8 14.6 15.2.9 1.4 3.6 5 5.8 8 2.3 2.9 4.5 6.8 4.8 8.5.4 1.7 4.4 7.5 9.2 13.2 8.3 9.8 14.4 20.5 12.7 22.2-.4.4-2.6.4-4.8-.1-4.2-.9-10.8-7.2-16.3-15.5-3.3-5-5.2-6.9-9.4-9.5-3.9-2.4-5.8-2.6-5.8-.6 0 .8 2.2 2.7 4.9 4.1 3.9 2.2 11.1 9.9 11.1 12 0 1.1-4.6.3-6.4-1-2.1-1.6-5.6-2-5.6-.8 0 .8 9 6.3 23.7 14.5 3.6 2.1 7.7 3.8 9 3.8 1.4 0 2.3.6 2.3 1.5 0 .8.4 1.5.9 1.5s4.4 3.2 8.7 7.1c6.5 5.9 8.4 8.3 11.2 14.6 2.4 5.3 3.1 7.8 2.3 8.6-1.7 1.7-17 3.3-24.6 2.5-3.8-.4-9.6-1.5-12.7-2.5-5-1.5-5.8-2.2-5.9-4.3-.1-1.4-.2-4.8-.3-7.5-.1-2.8-.5-5.5-.9-6.2-.4-.6-.3-1.4.3-1.8 1.9-1.2 1-3.6-1.7-4.6-11.3-4.1-18.5-12.4-20.7-24-.3-2.1-1.5-4.8-2.5-6-1-1.3-3-4.5-4.5-7.2-1.6-2.6-3.4-4.7-4.2-4.7-1.8 0-1.8 2.4.1 4 1.3 1.1 7.5 11.4 7.5 12.5 0 1.5-2.7.1-5.1-2.8-4.4-5.2-4.3-2.5.2 4.2 2.3 3.4 3.9 6.4 3.6 6.7-.3.3-2.6-1.3-5-3.6-6.7-6.1-6.5-3.3.2 3.7 3.7 3.9 6.9 6.3 8.9 6.8 4.3.9 5.4 3.2 3.5 7-2.2 4.2-5.3 7.5-7.4 7.5-2.1 0-3.8-2-3.8-4.5.1-8.7-5.9-21.1-12.4-25.6-1.7-1.3-7.5-6.1-12.7-10.9-5.2-4.7-11.7-10.3-14.5-12.5-2.7-2.1-8.1-6.6-11.8-9.9l-6.8-6 2.3-1.8c1.3-1 6.4-5 11.5-8.8 8.1-6.2 16.9-16.1 19.7-22 .4-.8 1.3-2.6 2.1-4s1.5-4.2 1.5-6.4c0-3.3.2-3.7 1.5-2.6.9.7 2.9 3.3 4.5 5.7Zm49.4 131.2c1.8 2.8 25.3 4.9 33.3 3 2.7-.7 6-1.8 7.4-2.5 2.3-1.2 2.9-1.1 4.3.5.9 1 1.6 2.2 1.6 2.7s.9 2 2 3.4c2.4 3.1 2.5 4 .2 4-1 0-3.4.8-5.4 1.8-2.7 1.4-5.3 1.8-9.9 1.6-14.8-.7-23.6-1.8-26.1-3-1.5-.8-3.8-1.4-5.2-1.4-2.1 0-2.6-.6-3.1-3.8-.4-2-.9-4.5-1.2-5.5-.4-1.7 1.1-2.4 2.1-.8ZM566 685c0 3-8.2 9.3-15.1 11.7-8 2.8-11.5 1.6-4.8-1.7 2.4-1.2 5.8-3.5 7.4-5 7.2-7 10-8.8 11.2-7.8.7.6 1.3 1.9 1.3 2.8Zm11 8.9c0 1.4-11.1 7.3-16.5 8.7-5.7 1.6-13.3 1.8-15.4.5-1.6-1.1-1.2-1.3 6.9-4 3.6-1.1 9-3.9 12-6l5.5-3.9 3.7 1.9c2.1 1.1 3.8 2.3 3.8 2.8Zm-41.9 2.8c1.8 4.7-.5 5.4-17.6 5.8-6.6.1-14.9-.2-18.5-.8-8-1.2-16.5-4.6-15.1-6 .7-.7 1.9-.6 3.8.2 3 1.2 15.1 3 16.8 2.5.6-.1 4.1-.5 7.8-.8 3.8-.3 7.3-.8 7.8-1.2.5-.3 3.7-.9 7.2-1.3 3.4-.5 6.3-.9 6.5-1 .1 0 .7 1.1 1.3 2.6Zm-30.5 7.3c7.1.8 13.5.7 21.4 0 6.2-.6 11.6-.7 12-.3.9 1.1 5 11.3 5 12.6 0 1.8-32.6.1-38.9-2.1-3-1-5.6-2.3-5.8-2.8-.2-.5 6.4-1 15.5-1.1 8.6-.1 17.3-.7 19.2-1.2 2.6-.7-.6-.9-12.5-.9-16.5 0-19-.3-26.2-2.9-4.5-1.6-6-3.7-2-2.8 1.2.2 6.7.9 12.3 1.5Z"/>
    <path fill="#000" d="M132 65c0 .5.5 1 1.1 1 .5 0 .7-.5.4-1-.3-.6-.8-1-1.1-1-.2 0-.4.4-.4 1Z"/>
    <path fill="#000" d="M424.8 79.8c-1 .2-1.8.8-1.8 1.3s3.3.8 7.3.6c3.9-.1 8.3.2 9.5.6 2 .8 2.3.6 2-1-.3-1.5-1.4-1.8-7.8-1.8-4.1-.1-8.3.1-9.2.3Z"/>
    <path fill="#000" d="M423.6 90.7c-3.7.6-7.6 3.1-7.6 4.9 0 1.9 2 1.8 4.9-.2 3-2.2 13.8-2.1 18.5.1 2.4 1.2 4.3 3.3 6.3 7.1 1.5 3 3.4 5.4 4.1 5.4.8 0 1.2-.3 1-.8-.1-.4-1.4-3.5-2.8-7-1.5-3.7-3.1-6.2-4-6.2-.8-.1-4-.9-7-2-5.4-1.9-7.7-2.1-13.4-1.3Z"/>
    <path fill="#000" d="M421.3 100.6c-1.9 2-3.2 3.9-2.9 4.1.3.3 2.6-.9 5.2-2.6 5.1-3.3 7.3-3.7 10.6-2 1.8 1 2 .9 1.5-.6-.4-.9-.7-1.9-.7-2.1 0-.2-2.3-.4-5.1-.4-4.6 0-5.5.4-8.6 3.6Z"/>
    <path fill="#000" d="M426.2 105.5c-1.6 1.3-4.1 2.9-5.6 3.5-1.5.5-2.5 1.4-2.2 1.9.8 1.3 4.2.2 6.2-2 2.3-2.6 3.1-2.4 4.9 1.1 2.4 4.7 7.6 3.5 8.9-2.1.4-2.1.1-2.8-2-3.7-3.9-1.8-7-1.4-10.2 1.3Z"/>
    <path fill="#000" d="M398.9 123.2c-4 4.3-4.3 6.8-1.2 10 2.9 3 3.2 3.2 5 2 1-.6 1-1.6.1-4.6-.9-2.9-.9-4.2 0-5.7 2.7-4.2-.2-5.5-3.9-1.7Z"/>
    <path fill="#000" d="M425.2 139.2c-.6.6-1.2 1.7-1.2 2.3 0 1.2 4.7 6.5 5.9 6.5 1.4 0 2.1-1.3 1.2-2.4-.5-.6-1.1-2.4-1.3-4.1-.3-3.2-2.6-4.3-4.6-2.3Z"/>
    <path fill="#000" d="M451.7 145.7c-1.5.2-3.2 1.3-3.7 2.3-1.3 2.5.3 3.5 3.2 1.9 1.3-.7 3.9-1.2 5.8-1.1l3.5.2-2.4-2c-1.3-1.1-2.6-1.9-3-1.9-.3.1-1.8.4-3.4.6Z"/>
    <path fill="#000" d="M405 150.9c0 5.8 10.3 16.4 13.8 14.2.7-.4-1.3-3.2-5.7-7.9-6.5-6.9-8.1-8.2-8.1-6.3Z"/>
    <path fill="#000" d="M435.5 154c.3.5 1 1 1.6 1 .5 0 .9-.5.9-1 0-.6-.7-1-1.6-1-.8 0-1.2.4-.9 1Z"/>
    <path fill="#FFF" d="M483.5 171c-1.2 1.3-1.9 3.5-1.8 5.7l.1 3.5-4.4-.6c-3.7-.5-4.5-.2-5.4 1.4-.9 1.7-.7 2.2 1.5 3 1.5.6 3.2 1 4 1 2.7 0 2.6 2.2-.4 8.6-1.7 3.7-3.1 6.8-3.1 7 0 1.5 4.1-.1 6.4-2.5 4.4-4.6 7.7-5.6 12-3.6 5.8 2.8 7.6-.2 3.1-5.1-3.4-3.7-3.2-5 1.6-7.4 3.9-2.1 4-2.2 2.3-4.1-2.1-2.3-3.7-2.4-6.9-.3-3.1 2-4 1.4-5.4-4.1-.6-2.5-1.3-4.5-1.5-4.5-.1 0-1.1.9-2.1 2Z"/>
    <path fill="#000" d="M118 140.5c0 2.1 8.7 10.5 12.6 12.1 7.4 3.1 6.8 1-1-3.4-3.1-1.8-6.3-4.6-7.6-6.6-2.3-3.8-4-4.7-4-2.1Z"/>
    <path fill="#000" d="M119.4 150.7c3.2 6.4 15.6 17.6 17.4 15.8.4-.4-.6-1.7-2.1-2.8-5-3.8-12.7-11.9-14.3-14.8-.8-1.6-1.9-2.9-2.4-2.9-.6 0 .1 2.1 1.4 4.7Z"/>
    <path fill="#000" d="M115 154.4c0 .7.9 2.5 2 3.9s2 2.9 2 3.3c0 1.4 8.5 7.9 11.9 9.1 5 1.8 5.1 1.6.7-1.2-4.2-2.5-10.6-9.1-13.4-13.8-1.8-2.9-3.2-3.5-3.2-1.3Z"/>
    <path fill="#000" d="M146.2 217.2c.3.7 1.9 2.1 3.7 3.2 2.5 1.4 3.5 1.6 4.4.7.9-.9.6-1.7-1.3-3.1-2.8-2.2-7.4-2.7-6.8-.8Z"/>
    <path fill="#000" d="M141.2 225.8c-1.3.4-1.7 3.1-.4 3.3 3.7.5 8.4.4 8.7-.1 1.1-1.7-5.4-4.2-8.3-3.2Z"/>
    <path fill="#000" d="M115 227.1c0 3 9 15.4 10.9 14.8.6-.2-.8-2.6-3.2-5.4-2.4-2.8-5.1-6.4-6-8-.9-1.7-1.6-2.3-1.7-1.4Z"/>
    <path fill="#000" d="M152 232c0 .5.5 1 1 1 .6 0 1-.5 1-1 0-.6-.4-1-1-1-.5 0-1 .4-1 1Z"/>
    <path fill="#000" d="M100.7 283.8c-3.7 2.3-5.4 8.6-6.3 23.4-.7 12.9.4 15.5 3 7 2.4-7.8 5.6-16.6 6.6-18.4 1.2-2.1 1.4-13.8.3-13.8-.5 0-2.1.8-3.6 1.8Z"/>
    <path fill="#000" d="M120.2 295.2c-1.9 1.9-1.4 5.2 1.1 7.7 2 1.8 2.9 2 5 1.2 3.6-1.4 4-2.5 1.9-6.3-2-3.5-5.8-4.8-8-2.6Zm4.8 4.4c0 1.6-2.6 1.9-3.5.4-.3-.6-.4-1.4 0-2 .8-1.3 3.5-.1 3.5 1.6Z"/>
    <path fill="#000" d="M751.7 130.6c-1 1-.8 5.6.3 7.4 1.1 1.7 1.5 1.3 2.3-2.1.7-2.7-1.3-6.6-2.6-5.3Z"/>
    <path fill="#000" d="M748.5 144c-.3.5-1.7 1-3.1 1-1.6 0-2.4.6-2.4 1.7 0 .9-.8 2.5-1.7 3.5-2.8 3.2-.2 4.3 4.5 1.9 3.1-1.6 4.1-2.7 4.4-5.1.5-3.1-.5-4.9-1.7-3Z"/>
    <path fill="#000" d="M624.5 234c-.3.5.2 1 1.2 1.1 2.6.1 6.8.8 14.8 2.5 3.9.7 8.1 1.4 9.5 1.4 4.6-.1-.3-1.9-8-3-3.9-.6-8-1.5-9-2-2.4-1.3-7.7-1.3-8.5 0Z"/>
    <path fill="#000" d="M606 236c0 .5.9 1 2 1 1.2 0 3.3.6 4.8 1.4 4.5 2.2 10.2 2.9 10.2 1.3 0-1-2.3-2-7.1-3.1-8.3-1.9-9.9-2-9.9-.6Z"/>
    <path fill="#000" d="M611.7 295.8c-.9 2-2.4 4.8-3.2 6.2-1.6 2.7-2.1 14-.6 14 .5 0 1.6-3 2.6-6.7.9-3.7 2.6-8.4 3.7-10.5 1.9-3.3 2-6.8.1-6.8-.4 0-1.6 1.7-2.6 3.8Z"/>
    <path fill="#000" d="M588.5 339.4c-6 1.7-8 3.1-11.8 8.3-3 4.1-3.7 6.1-4.5 12.8-1.7 15.2-.6 18.3 7.3 20.5 2.4.7 4.6 1.8 4.9 2.5 1 2.8 18.5 3.5 24.1 1 5.9-2.7 10.2-7.7 12.4-14.2 2.1-6.5 1.8-9.2-1.9-19.4-1.5-4.3-9.2-9.3-17.4-11.5-5.9-1.6-7.6-1.6-13.1 0Zm14 3.5c2.2 1 6.4 4 9.4 6.7 5.3 4.9 5.3 5 5.8 12 .6 8.5-1.3 13.6-6.1 16.1-1.7.8-3.8 2.3-4.7 3.2-2.1 2.2-10.6 2.7-15.1.8-1.8-.8-4.9-1.7-6.8-2-4.6-.9-10.6-4.5-9.3-5.8.6-.6.6-3.3 0-7.2-.6-3.5-.7-8-.3-10.1.9-4.7 6-10.6 9.2-10.6 1.3 0 2.4-.4 2.4-1 0-1.3 5.8-3.8 9-3.9 1.4 0 4.3.8 6.5 1.8Z"/>
    <path fill="#000" d="M591.1 355.1c-2.5 1.5-3.1 2.3-2.3 3.1.8.8 1.8.8 3.7 0 5.2-2.4 10.6 2.8 7.1 6.7-.9 1-1.6 2.3-1.6 3 0 .6-.6 1.4-1.4 1.7-1.9.7-5.6-1.3-5.6-3 0-1.1-.5-1.2-2.4-.3-2.3 1.1-2.3 1.3-.8 2.7 3.1 2.9 7.9 4.2 12.1 3.5 4.8-.8 6-2 2.9-2.8-2.1-.6-2.1-.7-.5-2.5 2.3-2.5 3-7.3 1.4-9.3-.9-1.3-7.8-4.9-9.1-4.9 0 0-1.6.9-3.5 2.1Z"/>
    <path fill="#000" d="M585.5 372c-1.8 2.9 5.1 6.2 13.4 6.4 5.4.1 6.6-.2 6.9-1.6.3-1.4-.6-1.6-5.8-1.7-3.5 0-7.1-.6-8.3-1.4-3.4-2.1-5.6-2.7-6.2-1.7Z"/>
    <path fill="#000" d="M585.2 532.3c-3.7 6.2-19.6 22.1-23 23.1-2.8.9-2.4 3 .7 3.4 4.3.7 20-15.6 25.5-26.5 3.6-7.2 1.1-7.1-3.2 0Z"/>
    <path fill="#000" d="M590.6 543.1c-2.1 2.7-6.7 7.6-10.2 10.8-3.5 3.2-6.4 6-6.4 6.3 0 .2 1 .5 2.3.6 1.6.1 4-1.7 8.4-6.5 5.6-5.9 11.2-14.7 10.1-15.8-.2-.3-2.1 1.8-4.2 4.6Z"/>
    <path fill="#FFF" d="M593.5 562.9c-1.9 3.8-2.5 3.8-8.1.5-4-2.3-4.5-2.4-5-.9-.5 1.2.4 2.7 3.2 5.1l3.9 3.4-4.3 4c-2.4 2.1-4.1 4.4-3.7 5 .9 1.5 4.7 1.2 7.3-.6 2.7-1.8 3.3-1.5 4.8 2.9 1.3 3.7 4.1 5.3 3 1.6-1.7-5.5-1.4-8.9.9-8.9.6 0 2.6.7 4.3 1.6 1.8.8 3.6 1.3 4.2.9 2-1.2.9-3.1-3.1-5.5-4.1-2.5-4.5-4-2.8-9.9.8-3-3-2.3-4.6.8Z"/>
    <path fill="#FFF" d="M448 10.9c0 2.2-.5 4.3-1 4.6-.6.4-3-.1-5.4-1-7.2-2.8-9.6.9-2.6 4 2.2 1 4 2 4 2.3 0 .2-1.1 1.8-2.5 3.4-3.2 3.8-2.4 5 2.8 4.3 4-.6 4.3-.4 5.7 2.7 1.7 3.5 2.8 4.2 4.9 2.9 1.2-.8 1.2-1.4.1-4-1.9-4.7-.7-6.5 3.8-5.7 2.6.4 4.5.1 5.7-.8 1.7-1.2 1.8-1.6.4-3.7-1.2-1.7-2.5-2.3-5.5-2.3l-3.9-.1v-5c0-4.9-.1-5-3.2-5.3-3.2-.3-3.3-.2-3.3 3.7Z"/>
    <path fill="#FFF" d="M369.7 12.7c-1.3 1.2-.7 3.4 1.8 6.7 2.9 3.8 2.5 4.3-3.7 6.9-4 1.7-4.6 2.8-2.5 4.6 1 .8 2.2.7 4.4-.1 4.1-1.5 6.3-.5 6.3 2.9 0 3.5 1.4 5.8 2.9 4.9.6-.4 1.1-1.7 1.1-2.9 0-1.3.7-3.3 1.6-4.5 1.5-2.2 1.7-2.2 4-.8 1.3.9 2.6 1.6 2.9 1.6 1.2 0 .4-2.9-1.5-5.3-2.4-3-2.5-5-.5-6.7.8-.7 1.5-2.1 1.5-3.1 0-3.3-2.2-3.3-5 .1-3.3 4-5.3 3.6-7-1.4-.9-2.7-1.7-3.6-3.4-3.6-1.3 0-2.6.3-2.9.7Z"/>
    <path fill="#000" d="M162.5 26c.4.6 1.1.8 1.6.5 1.4-.9 1.1-1.5-.7-1.5-.8 0-1.2.5-.9 1Z"/>
    <path fill="#FFF" d="M674.5 40.2c-.2.7-.6 3.1-.7 5.3-.3 4.2-.9 4.5-6.3 3.4-1.3-.3-2.1.2-2.3 1.4-.3 1.3.7 2.2 3.7 3.4 4.6 1.8 4.7 2.2 2.5 6.5-2.3 4.5-.3 6 3.4 2.5 3.6-3.5 5.1-3.4 8.3.5 1.8 2.1 3.2 2.9 4.3 2.5 2.5-1 1.9-4.1-1.5-7.1s-2.9-4.5 2-6.9c1.5-.7 2.6-2.1 2.6-3.2 0-1.8-.6-2-5.2-1.9-4.6.2-5.3-.1-5.3-1.8 0-4.4-4.3-8-5.5-4.6Z"/>
    <path fill="#FFF" d="M607.6 52.9c-1.5 2.8-3.1 5.1-3.7 5.1-.6 0-2.7-1.8-4.6-4-6.5-7.4-8.6-4.2-2.7 4l3.6 5-3.8 1.8-3.9 1.7 4.3.3c4.2.3 4.2.3 4.2 4.3 0 2.1.4 3.9.9 3.9 1.4 0 3.9-2.7 4.6-5 .8-2.4 1.5-2.5 5.3-.3 3.3 1.9 6.5 1.1 6-1.4-.2-1-1.4-2.3-2.6-2.9-4.3-2.1-4.6-2.9-2.6-8.3 1.8-5.1 1.8-5.2-.3-7.3l-2.1-2.1-2.6 5.2Z"/>
    <path fill="#FFF" d="M648.2 51.3c-.7.8-.8 2.6-.2 5.2 1.5 6.4 1.5 6.5-4.1 6.5-4.9 0-5 .1-4.7 2.7.2 1.9 1 2.9 2.3 3.1 6.3.9 6.4 1 6.2 5.3-.3 5.7 1.6 5.9 4.3.4 2.4-5 2.7-5.2 5.6-3 1 .8 2.5 1.5 3.2 1.5 1.7 0 1.5-3.7-.3-4.4-2.5-.9-1.7-4.1 1.5-5.9 3.3-2 3.7-3.4 1.6-6.3-1.4-1.9-1.5-1.8-4.3.8-3.9 3.7-5 3.5-6.3-1.1-1.2-4.7-3.2-6.7-4.8-4.8Z"/>
    <path fill="#FFF" d="M535 66.9c-.5 1.1-1 2.9-1 4.1 0 2.8-2.5 3.6-5.5 1.6-3.2-2.1-5.2-2-5.8.4-.6 2.2.4 3.1 5.3 5 1.9.7 3.6 1.4 3.8 1.6.2.1-.9 2.5-2.5 5.2-2.1 3.9-2.5 5.4-1.6 6.3.9.9 2 .3 4.8-2.5 1.9-2 3.9-3.6 4.2-3.6.4 0 2.2 1.4 4 3.2 3.6 3.5 4 2.6 1.8-3.6-1.7-4.7-1.5-5.2 2.5-5.9 2.2-.5 3-1.2 3-2.7 0-1.8-.5-2-4.2-1.8l-4.3.3-.3-4.8c-.3-5.1-2.2-6.3-4.2-2.8Z"/>
    <path fill="#000" d="M559.1 68.2c-.6 1.8-1.3 5.2-1.7 7.5-.7 4.7-1.7 5.2-4.7 2.6-1.8-1.7-1.9-1.7-3 .2-1.1 2.1-1.4 3.3-2.1 9.7-.3 2.1-.7 4.6-1.1 5.7-.8 2.6.7 3.4 8.5 4 4.8.5 6.5 1 6.5 2.1 0 .8-1.4 1.7-3.5 2.1-3.5.8-7 4-7 6.6 0 .8 1.4 1.9 3 2.5 4.3 1.5 6.4 5.9 6.5 14.3.2 8.7 1.5 20.2 2.7 23.4.6 1.7 1.4 2.2 2.8 1.8 1.1-.3 1.7-.1 1.4.4-.6 1.1 4 .2 6.8-1.2 2.9-1.5 3.8-1 3.8 2.1 0 2.3.6 3.3 2.5 4 3.1 1.2 3.2 3.6.5 9.5-2.4 5.3-5.3 17.3-4.6 19.1.7 1.7 8.6 6.7 9.4 5.9.4-.3.2-.9-.4-1.3-4.1-2.7-4.9-14-1.4-19.8 7.4-12.5 7.4-12.8 2-17.7l-4.1-3.6 1.7-3.8c2.6-6 4.2-13.2 4.9-22 .7-8 .8-8.3 3-7.7 5.2 1.3 6.1-7.4 1.5-13.8-2.2-3-3-5.2-3-8.5 0-2.3.4-4.3.9-4.3 2.3 0 10 12.9 10.3 17.2.1 1.3-1 5.9-2.5 10.3-3.6 11-7.1 27.1-6.3 29.1.5 1.2 1.5 1.5 3.8 1.2 4.2-.7 13.5 2.7 17.2 6 3.4 3.2 6.5 9.6 6.6 13.4 0 1.9-.9 3.1-3.3 4.5-3.5 2.1-5.7 7.2-5.7 13.1 0 6.1 2.8 4.8 5-2.3 1.8-5.9 3-6.5 3-1.8 0 2.3.4 4.4.9 4.8 1 .6 3.4-2.9 2.6-3.7-1.1-1.1 2.8-9.5 5.8-12.6 4.8-5.1 7.9-6.3 15.2-6.1 3.6.1 6.5.3 6.5.5s-1.1 1.4-2.5 2.8c-2.4 2.4-4.3 7.2-3.2 8.3 1.2 1.1 3.8-.7 5.8-4.2 2.4-4 4.3-3.7 3.4.6-.5 2.2-.3 2.9.9 2.9.9 0 1.7-.7 1.7-1.5.5-5.5 1.1-8.4 4.4-20 2.8-9.9 3.4-13.4 2.6-14.7-.6-1-1.1-2.8-1.1-4.1 0-2.1-.6-2.4-8.7-3.6-8-1.1-8.8-1.1-10 .5-1.2 1.6-1.5 1.6-5.4-.1-3.7-1.7-4.4-1.7-6.8-.4-2 1.1-2.7 2.3-2.9 5.4-.3 4.5-2.3 6.5-6.4 6.5-3.4 0-3.5-1.4-.4-6 1.3-1.9 2.6-4.4 3-5.6 1.5-5 4.6-6.3 17.2-7.7 6.5-.8 14.7-1.3 18.2-1.2 4.7.2 6.5-.1 6.9-1.2 1.2-3.2-2.1-3.6-21.1-2.3-11.7.8-14.5 1.3-18 3.3-2.2 1.3-5.4 2.7-7.1 3.1-5.2 1.3-11.2 4.8-12.6 7.3-1.2 2.3-1.1 2.7 1 4.4 1.3 1 3.4 1.9 4.8 1.9 2.2 0 2.4.3 1.8 2.9-.5 2.5-.2 3 2.5 4.1 5.8 2.4 15-2.1 15-7.4 0-1.4 1-3 2.4-4 2.2-1.4 2.7-1.4 4-.1 2 2.1 4.2 2.2 11 .5 5.7-1.3 5.9-1.3 7.7.9 2.6 3.1 2.4 6.1-1 16l-2.8 8.4-9.9.1c-9.5.1-10.1.2-14.3 3.4-2.5 1.8-4.8 2.9-5.1 2.5-.4-.5-1.2-2.6-1.9-4.8-.6-2.2-3.1-6.1-5.4-8.8-4.1-4.5-4.7-4.8-12.7-6.2-4.5-.8-8.5-1.7-8.8-2-.3-.3-.1-2 .6-3.8.6-1.7 2.2-7.9 3.6-13.7 1.4-5.9 3.2-11.9 4-13.5.9-1.7 1.6-3.6 1.6-4.3 0-.7.7-2.7 1.6-4.4 1.4-2.7 1.4-4.3.4-13.3-.7-5.7-1.6-10.9-2-11.5-1.2-2-4.7.6-7 5-1.1 2.2-2.3 4-2.7 4-.3 0-2.6-1.8-5-4.1-4.5-4.1-7.1-4.7-6.4-1.3.3 1 .4 6 .4 11.1v9.2l2.9 1.2c3 1.2 4.9 4.4 4 6.7-.3.9-1.7 1.1-5 .6-4.4-.7-4.5-.6-3.7 1.7 1.5 4.8 1.7 11.3.5 17.1-1.1 5-1.6 5.9-3.3 5.6-1.6-.2-2.3-1.6-3.4-6.3-2.8-12.9-3.5-17.2-3.4-21 .1-2.2-.8-7.4-2-11.5-3-10.9-3.9-15.8-3.3-17.5.5-1.2-1.7-4.5-7.7-11.8-.4-.5-1.2.6-1.8 2.5Zm6.1 10.3c1.1 4.2.4 5.9-2.2 4.5-2.6-1.4-2.9-8.3-.3-7.8.9.2 2 1.6 2.5 3.3Zm39.2 10.8c.6 7 .2 10.8-1.3 10.7-.6-.1-5.1-9.1-5.1-10.3 0-1.2 4.2-7.7 5-7.7.4 0 1 3.3 1.4 7.3Zm-47.1-4.8c2 .8 4.7 1.5 6 1.5 2 0 2.7 1.1 5 7.8 1.5 4.3 2.7 8.9 2.6 10.2-.2 4.4 1.2 14.3 3.2 22.9 1.6 6.2 2.7 8.9 4.7 10.6 2.4 2 2.5 2.5 1.4 5-1.1 2.3-1.6 2.6-4.3 2-2.2-.5-3.6-.2-5 1.1-1.9 1.7-2 1.7-3.9-.2-1.6-1.6-2-4-2.6-15.4-.5-10.6-1.1-14.4-2.7-17.8-1.1-2.3-2.4-4.2-2.9-4.2-.4 0-.8-.4-.8-.9 0-.6 1.5-1.1 3.3-1.3 3.5-.3 3.7-1.1 2.1-8.6-.6-3.1-.8-3.2-5.4-3.2-5.7 0-6.8-1.2-6.2-6.8.5-4.7.6-4.8 5.5-2.7Zm62.7 41.8c0 .2-.7 1.8-1.6 3.5-1.7 3.5-3 3.9-5.9 1.8-1.8-1.3-1.7-1.5 1.5-3.5 3.1-1.9 6-2.7 6-1.8Z"/>
    <path fill="#FFF" d="M765.2 103c-2 4.6-3.1 4.9-6.8 1.5-3.1-2.8-5.2-3.2-6-1-.4.9.4 2.3 2 3.6 1.4 1.1 2.6 2.5 2.6 3.1 0 .6-1.7 2.6-3.7 4.4-2.8 2.4-3.5 3.5-2.7 4.4.9.9 2.2.9 5.4 0 4.9-1.3 6-.5 6 4.2 0 4.4 2.6 3.3 4-1.7l1.2-4.5 4.6.3c6 .3 6.8-2.1 2.2-6.8-2.8-2.9-3.2-3.8-2.6-6.8.5-2.7.3-3.6-1-4.1-2.8-1.1-3.5-.7-5.2 3.4Z"/>
    <path fill="#FFF" d="M773.3 124.2c-.4.7-1.3 2.9-1.9 4.8-.9 3.1-1.4 3.5-4.2 3.4-2.5-.2-3.2.2-3.2 1.7 0 1 .8 2.3 1.8 2.8 4.6 2.7 4.6 2.7 2.4 5.9-1.9 2.5-2 3.1-.7 4.2 1.1.9 2 .7 4.3-1 2.5-1.8 3.3-2 5.1-1 1.2.6 2.6 2.3 3.2 3.7.8 2.1 1.2 2.4 2.2 1.4.8-.8.8-1.4.2-1.9-1.3-.9-3.8-10.3-3-11.1.3-.3 2.2-.6 4.1-.7 3.5-.1 7.4-2.7 6.1-4-.4-.4-3-.8-5.9-.9-5.2-.2-5.3-.2-6.4-4-1.1-4.2-2.7-5.4-4.1-3.3Z"/>
    <path fill="#FFF" d="M543.9 147.4c-1.1 2.5-2.5 4.6-3.2 4.6-.7 0-3.4-1.2-6.2-2.5-6.1-3-6.5-3-6.5-.5 0 1 1.8 3.7 4 5.9s4 4.5 4 5.1c0 .6-1.2 2.2-2.7 3.5-2.5 2.1-2.6 2.4-1.1 3 1 .4 3.2.2 4.9-.4 3.9-1.3 4.9-1.4 4.9-.2 0 .5.5 2.2 1 3.6 1.6 4.2 4 1.6 3.3-3.5-.6-3.9-.5-4 2.5-4 4.2 0 5.1-1.9 2.1-4.3-2.1-1.6-2.4-2.8-2.4-8 0-7.7-1.8-8.6-4.6-2.3Z"/>
    <path fill="#FFF" d="M789.7 157.7c-.3.4-.8 2.7-1.2 5.1l-.7 4.4-4.9-.7c-5.8-.8-6.5.5-1.4 2.9l3.5 1.7-2.5 3.4c-3 3.8-1.8 5.6 2 3.1 3.4-2.2 3.8-2.1 6 1.9 2.6 5 5 4.3 5-1.4 0-3.4.5-4.7 2.3-5.8 3-2.1 2.8-3.9-.5-4.8-3.3-.8-4.3-2.1-4.3-5.6 0-2.7-2.4-5.7-3.3-4.2Z"/>
    <path fill="#FFF" d="M561.5 163.2c-.2.7-.6 2.9-.7 4.8-.3 3.4-.5 3.5-5.5 4.3-4.4.7-5.3 1.2-5.3 2.9 0 1.8.4 2 3.9 1.4 5.3-.8 6.8 1 5.4 6.7-1.8 8.2.9 9.1 5 1.7 2.4-4.4 3-4.9 4.6-4 2.8 1.4 4.6 1.3 3.3-.3-2-2.4-1.7-5.4.7-7.4 2.7-2.2 2.3-6-.5-4.9-5.3 2-6 1.8-7-2-.9-3.9-3-5.6-3.9-3.2Z"/>
    <path fill="#FFF" d="M658.5 177.4c-.8 1.9-1.5 3.8-1.5 4.1 0 .3-.7 1.7-1.6 3l-1.6 2.5-3.1-2.4c-1.8-1.3-4.1-2.6-5.2-2.8-1.1-.3-2.8-.9-3.7-1.3-2.9-1.2-2.1 1.6 1.5 5.5 6.3 6.9 6.3 6.3 1.1 11.5-6.5 6.3-4.9 7.8 3.9 3.6 3.6-1.7 6.7-3.1 7-3.1.2 0 1 1.4 1.7 3.1 1.1 2.6 1.5 2.8 2.7 1.6 1.2-1.2 1.3-1.9.3-3.7-1.9-3.6-.7-4.7 4.9-4.4 6.5.3 7.4-1.1 2.1-3.2l-4.2-1.7.4-7.6c.3-6.6.1-7.6-1.5-7.9-1.2-.2-2.2.7-3.2 3.2Z"/>
    <path fill="#000" d="M347.5 195.9c-.3.6-1.6 1.1-2.9 1.1-5.2 0-9.3 9.5-6.4 14.9 2.8 5.2 10.8 4.8 12.9-.7.8-2 1.3-2.2 4.4-1.6 4.2.8 4.4-.2.8-3.3l-2.8-2.3 4.3.6c4.9.8 5.7-.7 1-2.1-4.1-1.3-4.6-3.1-1.1-4.2 2.7-.9 2.6-1-2.1-1.7-2.7-.4-5.4-1-6.1-1.2-.7-.3-1.6-.1-2 .5ZM346 205c1.5 3.5.7 6.3-1.6 5.8-2.8-.5-3.9-3.3-2.6-6.2 1.5-3.4 2.7-3.3 4.2.4Z"/>
    <path fill="#000" d="m467.9 238.9-2.4 1.9 3 .7c1.7.4 4.1 1 5.5 1.5 1.4.4 4.8 1.3 7.5 2 9.2 2.1 17 4.2 22.5 6 6.2 2.1 18.2 3 19 1.5.3-.6-4.1-2.2-10-3.7-5.8-1.5-12.7-3.4-15.5-4.2-2.7-.9-7-2.1-9.5-2.7-2.5-.6-7.3-2-10.8-3-7.5-2.3-6.5-2.3-9.3 0Z"/>
    <path fill="#000" d="M458.9 245.1c-1.3.9-2.2 2-1.9 2.2.6.6 9.2 1.1 14.4.9 5-.3 4.4-.8-3.6-3.1-6.2-1.8-6.5-1.8-8.9 0Z"/>
    <path fill="#000" d="M479.8 248.7c.7.3 1.6.2 1.9-.1.4-.3-.2-.6-1.3-.5-1.1 0-1.4.3-.6.6Z"/>
    <path fill="#000" d="M452.6 249.7c-1.6 1.6.3 2 12.2 2 9.9.1 11.5-.1 7.2-.7-9.2-1.3-18.7-1.9-19.4-1.3Z"/>
    <path fill="#000" d="M644.7 250.6c-2.6 1.4-2.7 1.7-1.5 3.7 4.5 7 5.7 9.8 6.9 14.9 1.1 4.7 1.7 5.8 3.4 5.8 2.5 0 5 1.6 5 3.1 0 .9 22.5 14.2 30 17.8 1.1.5 4.9 2.6 8.5 4.6 3.6 2.1 9.2 5.2 12.5 7 3.3 1.8 9.8 5.3 14.4 7.9l8.3 4.7 4.3-2c2.6-1.2 4.5-2.9 4.8-4.2.8-3.1-.2-4.3-2.1-2.6-1 .8-3.2 1.7-5 2.1-2.8.5-5-.3-13-4.7-5.4-2.9-10.8-5.8-12.2-6.4-8.7-3.8-32.1-15.9-36.7-18.9-2.4-1.5-3.2-3.9-1-3.1.6.2 2 0 3.1-.5 1.8-1 1.7-1.1-.6-3.3-2.6-2.4-7.4-11.2-6.6-12.1.7-.6 13.6 10.8 13.7 12.2.1 1.2 2.3 2.4 9.1 4.9 2.5.9 8.8 4.1 14 7.1 10.2 5.9 11.3 6.5 14.7 8.2 8.7 4.5 16 8.5 17 9.4 1.6 1.3 5.5.6 6.1-1 .2-.8-4.6-3.6-13.5-7.9-7.6-3.6-14.9-7.3-16.3-8.3-1.4-1-8.3-4.7-15.5-8.4-12.5-6.4-20.2-12.5-23.4-18.3-.5-1-3-2.9-5.5-4.1-2.5-1.3-4.8-2.7-5.1-3.3-.4-.5-1.4-.9-2.3-.9-.9 0-3.9-1.2-6.7-2.5-5.8-2.9-5.2-2.8-8.8-.9Zm7.7 3.8c1.8.7 4.8 3.3 6.7 5.7 4.2 5.3 10.5 17.6 9.6 18.6-1.3 1.2-5.7-1.6-7.6-4.9-3.3-5.6-9.4-13.8-10.2-13.8-1.2 0-4-5.6-3.2-6.4.8-.8.9-.8 4.7.8Zm4.2 16.5c1.2 2.9 1.2 3.2-.3 2.9-1-.2-2-1.7-2.4-3.6-.8-4.2.8-3.8 2.7.7Z"/>
    <path fill="#000" d="M449.6 253.9c-1 1.6.9 2.1 9.2 2.8 4.8.3 8.6.2 9.7-.5 1.5-.8.5-1.1-5.1-1.6-3.8-.4-8.3-.9-10.1-1.2-1.7-.2-3.4 0-3.7.5Z"/>
    <path fill="#000" d="M474.2 255.9c.4 1.3 1.8 1.6 1.9.4 0-.4-.5-.9-1.1-1.2-.7-.2-1.1.2-.8.8Z"/>
    <path fill="#000" d="M482.8 256.1c-.7.5 3 .9 8.6.9 5.5 0 9.7-.2 9.4-.5-.9-.9-16.6-1.2-18-.4Z"/>
    <path fill="#000" d="M503.8 256.7c.6.2 1.8.2 2.5 0 .6-.3.1-.5-1.3-.5-1.4 0-1.9.2-1.2.5Z"/>
    <path fill="#000" d="M453 264c0 .5 1.1 1 2.4 1 1.4 0 2.8-.5 3.1-1 .4-.6-.7-1-2.4-1s-3.1.4-3.1 1Z"/>
    <path fill="#FFF" d="M410.7 268.7c-1.2 1.1-.8 4.8.8 6.9 2.1 2.7 1.8 3.9-1 5.4-3.7 2-2.8 4.6 1.3 4.2 3-.3 3.2-.2 3.2 3.1 0 3.8 1.8 9.7 3 9.7 1.1 0 2-3.7 2-8.3 0-3.7.7-4.5 2.6-2.8 1.5 1.5 5.4 2.3 5.4 1.2 0-.6-1.5-2.7-3.2-4.7-2.1-2.3-2.8-3.9-2.1-4.1 2.3-.8 6.3-4.5 6.3-5.8 0-2.7-1.9-2.5-4.8.5-3.8 3.7-5.3 3.8-7.4.2-2.1-3.5-5.3-6.4-6.1-5.5Z"/>
    <path fill="#000" d="M431 277c0 .5.5 1 1.1 1 .5 0 .7-.5.4-1-.3-.6-.8-1-1.1-1-.2 0-.4.4-.4 1Z"/>
    <path fill="#000" d="m435.2 282.6 2.1 3.5-2.2.6c-1.1.3-2.1.9-2.1 1.3 0 1.6 6.2 6 8.4 6 1.4 0 3.4 1.6 5.9 5 2 2.7 3.7 5.4 3.7 5.9 0 2.7 12 7.8 15.3 6.5 1.6-.6 3.1-3.3 2.3-4.1-.2-.3-1.7.2-3.3 1-5 2.6-7.4.7-22.6-18.8-1.3-1.7-3.3-4.7-4.6-6.8-1.2-2-2.9-3.7-3.6-3.7-1.1 0-.9.9.7 3.6Z"/>
    <path fill="#000" d="M428.7 293.7c-.9.8 1.2 3.3 2.9 3.3 2 0 2.8-2.1 1.3-3.1-1.7-1-3.3-1.1-4.2-.2Z"/>
    <path fill="#FFF" d="M662.5 298.2c-.9 3.1-1.2 3.3-5 3-2.2-.2-4.5-.8-5.2-1.3-1.7-1.5-2.7.9-1.1 2.8.7.9 3.1 2.4 5.3 3.4 2.2 1 3.3 1.8 2.5 1.9-1.6.1-5.5 4.6-6.7 7.5-.5 1.6-.2 1.7 2.3 1.1 1.6-.4 3.9-1.6 5-2.7l2.2-2 3.8 4.5c6.1 7.3 8.5 5.9 3.8-2.1-1.4-2.5-2.4-4.7-2.1-4.9.2-.2 2.4-1 4.8-1.7 5.8-1.7 5.9-4.1.2-4.5-4-.3-4.2-.4-4.5-4-.2-2.8-.8-3.8-2.3-4-1.6-.2-2.3.5-3 3Z"/>
    <path fill="#FFF" d="m438 303-1.4 5-3.5-.7c-6.2-1.1-7.6-.9-7.6 1.1 0 1.2 1.5 2.6 4.2 4 4.3 2.1 4.4 2.5 2.6 7.3-.9 2.4 2.7 2.6 5.1.4 2.8-2.6 4.3-2.7 5.1-.1.6 2 4.2 4.6 5.1 3.7.3-.2-.2-2.4-1-4.8-2.1-6-2.1-6 2.3-5.3 2.4.4 4.1.2 4.6-.5 1-1.8-1.6-4.3-3.8-3.7-3.5.9-6.7-1.1-6.7-4.1 0-4.2-1.1-7.3-2.4-7.3-.7 0-1.9 2.3-2.6 5Z"/>
    <path fill="#000" d="M421.7 299.7c-.9.9 1.2 3.3 2.9 3.3.8 0 1.4-.7 1.4-1.6 0-1-.5-1.4-1.6-1-.8.3-1.2.2-.9-.4.7-1.1-.8-1.4-1.8-.3Z"/>
    <path fill="#FFF" d="M450.1 355.9c-2.4 3.9-2.4 3.9-7.7 3.4-6.1-.7-6.7 0-2.4 2.2 3.9 2 3.8 3.5-.5 6.4-3.2 2.2-4.7 5.1-2.6 5.1.5 0 3-.9 5.6-2 2.6-1.1 4.8-2 5.1-2 .2 0 1.2 2 2.3 4.4 2 4.2 4.3 6.2 6.1 5.1.5-.3 0-2.4-1-4.8-2.9-6.3-2.7-7.8 1.2-7.5 2.8.3 3.4-.1 3.6-2 .3-1.6-.2-2.2-1.6-2.2-2.3 0-3.2-1.8-3.2-6.6 0-4.5-1.9-4.3-4.9.5Z"/>
    <path fill="#000" d="M428.3 367.2c-1.3.6-2.3 1.5-2.3 2 0 1.3-13.6 7.5-19.5 8.9-9.9 2.4-16.5 5.7-22.7 11.4-7.5 7.1-17.1 13.9-25.1 17.9-4.3 2.1-7.6 4.1-7.3 4.3.8.8 10.7-2.8 15.6-5.5 4.8-2.8 13.9-9.1 22.3-15.7 6.5-5.1 16.7-10.5 20.7-11 1.6-.2 4.3-1 5.9-1.8 1.9-1 3.4-1.1 4.5-.5 2.1 1.2 3.4.2 1.8-1.4-.8-.8-.2-1.8 2.4-3.9 2-1.6 4.4-3.1 5.5-3.4 1-.4 1.9-1.1 1.9-1.6 0-1.1-.9-1.1-3.7.3Z"/>
    <path fill="#FFF" d="M414.1 381.9c-1.1.7-1.1 1.5-.3 4 1 2.7.8 3.3-1.8 5.5-1.6 1.3-3.5 2.6-4.2 2.9-1.9.8 1.2 2.8 3.3 2.2 2.9-.9 4.7.6 5.3 4.6.5 3.3 1 3.9 3 3.9s2.4-.6 3-4c.6-4 1.8-4.8 4.6-3.1 2.3 1.5 3 .3 1.4-2.7-1.9-3.6-1.8-3.6 1.5-7.5 3.8-4.3 2.9-6.7-1.7-4.3-1.7.9-3.4 2-3.7 2.6-1.2 1.9-3.5 1-5-2-1.6-3.1-3-3.6-5.4-2.1Z"/>
    <path fill="#000" d="M519.2 386.6c-1.7 3 2.9 15 6.1 16 2.7.8 9.6 7.2 11.1 10.3.8 1.4 1.7 4.6 2.1 7.1.4 2.5.9 4.9 1.2 5.3.3.5.7 3.2.9 6 .2 2.9.6 7 1 9.2l.7 4 1.4-4c1-2.9 1.2-6.1.7-12-.8-10.2-4.1-16.6-13.3-26.3-5.6-5.9-7.2-8.3-8.1-12.3-1.3-5.1-2.3-6-3.8-3.3Z"/>
    <path fill="#000" d="M401.6 395.8c-1 1.7 7.2 22.3 9.4 23.7 2 1.2 2.2-.2.7-3.7-.8-1.8-2-5.6-2.7-8.3-2.6-11.4-3-12.5-5-12.5-1 0-2.1.4-2.4.8Z"/>
    <path fill="#000" d="M193 409.2c-1.9 1.2-6.4 4-10 6.3-3.6 2.3-8.3 4.8-10.5 5.5-2.2.7-5.8 2.2-8.1 3.2-2.2 1-4.5 1.8-5.1 1.8-.7 0-2.1 1.3-3.2 2.8-1.8 2.6-1.9 3.6-1 13.3 1.3 14.8 1.9 17.7 4.1 21.6 2.3 3.8 3.4 3.9 1.9.2-1.8-4.6-4.2-17.6-4.5-24.2l-.3-6.7 6.6-3.9c3.6-2.2 9.3-4.7 12.6-5.6 3.7-1.1 8.1-3.3 11.5-5.9 3.2-2.5 7.5-4.8 10.3-5.5 5.2-1.3 4.9-1.4 14.1 6.2 6.9 5.6 13.4 7.7 25.7 8.2 7.6.4 10.7.2 9.4-.4-1.1-.5-3.5-1-5.4-1-1.8-.1-5-.5-7-1.1-2-.5-5.5-1.4-7.8-2-9-2.2-2.3-5.7 9.2-4.8 3.3.2 4.9-.1 5.2-1 .4-.9-1-1.2-5.4-1.1-11.3.3-21.6-1.2-24.8-3.6-2.9-2.3-9.5-4.6-12.5-4.4-.8 0-3.1 1-5 2.1Z"/>
    <path fill="#000" d="M542.4 411.5c-1.8 1.4-1.8 1.4.3 1.5 2.3 0 3.9-1.5 2.5-2.4-.5-.3-1.8.1-2.8.9Z"/>
    <path fill="#000" d="M394.6 413.6c-.7 1.9 3.3 11.5 8.5 20.2 5.1 8.2 7.7 11.2 10.1 11.2 2.4 0 2.3-2.6-.3-5.3-3.5-3.6-9.5-12.8-13.4-20.5-2-4-3.8-7.2-4-7.2-.1 0-.6.7-.9 1.6Z"/>
    <path fill="#000" d="M245.9 418.5c1.8.9 3.6 1.4 3.9 1.1.9-1-.2-1.5-3.9-2.1l-3.4-.5 3.4 1.5Z"/>
    <path fill="#000" d="M253.4 419.1c-1.3.5-.3.8 2.9.8 2.6.1 4.7-.1 4.7-.3 0-.8-5.8-1.2-7.6-.5Z"/>
    <path fill="#000" d="M389.6 425.8c-1.4 2.2 5.9 14 13.3 21.6 7 7.3 9.3 8.7 10.6 6.7.5-.9-2-4.1-3.3-4.1-2.4-.1-17.2-17.9-17.2-20.8 0-1.8-2.7-4.5-3.4-3.4Z"/>
    <path fill="#FFF" d="M547.7 432.7c-1.1 1.1-.8 1.8 1.8 4.9 3.6 4.2 3.2 6-1.7 7.6-6.7 2.3-6.3 4.2.7 3.3 4-.5 5.5-.3 5.1.4-1.1 1.7.5 8.1 2 8.1.7 0 2-1.4 2.9-3 1.3-2.5 2.2-3 5-3 4.2 0 4.4-.8 1-4-2.8-2.7-3.1-4.6-1-7.4 1.5-1.9 2.1-5.6 1-5.6-.4 0-2.2 1.6-4.2 3.5s-4 3.5-4.4 3.5c-.4 0-1.7-1.5-2.8-3.4-2.5-4-4.5-5.8-5.4-4.9Z"/>
    <path fill="#000" d="M99 438.4c-4.5 1.3-16.5 13.6-22.7 23.1-6.1 9.2-12.8 23.9-15.9 34.3-1.3 4.6-2.6 8.7-2.8 9.1-.9 1.3-.7 18.7.2 27.4.9 8.6.7 10.9-2.4 24.2-.4 1.6-1.2 3.7-1.9 4.5-2.3 2.7-4.4 7.7-3.7 8.5.4.5.1.5-.6.1-1.5-.9-2.8.5-11.3 11.6-3.3 4.2-5.9 8.4-5.9 9.2 0 .9-.4 1.6-.9 1.6s-1.1.8-1.5 1.8c-.3.9-1.9 3.9-3.6 6.5-2.9 4.7-3.1 6.7-.7 6.7 1.2 0 10.7-16.3 10.7-18.4 0-1.1 15.2-18.5 19.1-21.8 1.3-1.1 3.3-6.2 5.4-14 3.2-11.1 3.4-12.8 2.5-17.7-4.7-25.5 6.8-64.3 24.3-82.1 10.6-10.8 12.9-12.2 20-12.6 5.9-.4 6.4-.2 11.2 3.4 4.5 3.4 5.1 4.3 5.6 8.7.5 3.9.2 6-1.4 9.4-5.3 11.4-6.7 30.5-3.2 43.6 2.9 10.9 3.4 13.2 4 19.5l.6 6.5-4.2 4.5c-2.3 2.5-3.8 3.9-3.5 3.2.8-1.4-1-1.7-1.9-.2-.4.6-2.4 1.9-4.6 3.1-2.2 1.1-7.1 5.2-10.8 9-4.1 4.3-7.1 6.7-7.5 6-.9-1.4-7.9-1.4-12.7-.1-5.4 1.5-11.2 10.2-12.4 18.8-.3 2.6-.1 7.6.5 11.2.6 3.6 1.5 9.9 2 14 .6 4.1 1.5 10.6 2.1 14.5.7 3.8 1.2 13.7 1.2 22-.1 12.4-.5 17.1-2.7 27-2.8 12.9-3.1 15.5-1.8 15.5 1.6 0 3.3-5.2 5.7-16.9 3.2-15.7 3.7-23.6 2.5-36.6-2.2-22.5-4.6-36.7-7.3-42.3-1.4-3 .6-11.5 3.6-15.6 1.3-1.7 2.6-3.9 3-4.8.8-2.2 8.1-4.1 12.9-3.4 11.7 1.8 12.3 1.8 11.1.5-.7-.7-1.3-1.8-1.3-2.4 0-2.1 10.8-12 15.7-14.3 2.6-1.3 6.1-3 7.6-3.8 1.6-.8 3.5-1.4 4.3-1.4 1.4 0 1.5.4 3.3 10.9.6 3.5 1.7 7.1 2.6 8.1.8.9 1.5 2.2 1.5 2.8 0 .7.7 1.2 1.6 1.2.9 0 1.4-.3 1.2-.8-.6-1.5-3.6-9.8-4.6-13.2-1.2-3.8-2.7-13.7-3.8-24.5-.3-3.8-1.1-8.1-1.6-9.5-5.1-12.9-4.9-30.4.6-50.2 2.1-7.7 1-16.9-2.5-20.2-5.8-5.5-16.6-7.8-24.9-5.2Z"/>
    <path fill="#FFF" d="M281 440.6c-.6 1.4-1 5.7-1 9.6v7.1l-3.2-.6c-1.8-.4-4.4-.9-5.7-1.3-3.8-1.1-2.1 1.7 2.7 4.4 2.3 1.3 4.2 2.7 4.2 3.2s-1.6 2.5-3.5 4.6c-1.9 2-3.5 3.8-3.5 4 0 1.3 3.8-.1 7.7-2.8l4.6-3.1 1.9 2.3c1 1.3 2.3 3 2.7 3.8.5.9 1.5 1.2 2.4.9 1.5-.5 1.5-1 0-5.3-1.8-5.3-1.1-6.4 4.5-6.4 5.1 0 3.6-3.1-2.3-4.6-4-.9-5.5-2.2-5.5-4.8 0-2.9-3.3-13.6-4.3-13.6-.4 0-1.2 1.2-1.7 2.6Z"/>
    <path fill="#000" d="M385 439.7c.1 2.3 3.6 7 4.6 6 .9-.9-2.2-7.7-3.6-7.7-.5 0-1 .8-1 1.7Z"/>
    <path fill="#000" d="M145.4 446.6c-.7 3.9.2 10.1 4.2 26.4 1.9 8.2 7.8 22.2 12.8 30.9 2.2 3.7 8.6 11.1 9.6 11.1 1.8 0 1-1.9-2.5-6.6-3.6-4.7-12.1-21.6-14.8-29.4-3.4-10-5-16.6-6.1-25.5-.7-5.2-1.5-9.8-1.9-10.1-.3-.3-.9 1.1-1.3 3.2Z"/>
    <path fill="#000" d="M390 447.5c0 3.6 13.5 17.5 16.9 17.5 2.8 0 2.7-1.4-.2-2.7-1.3-.6-5-4.3-8.3-8.2-5-6-8.4-8.7-8.4-6.6Z"/>
    <path fill="#000" d="M382 454.4c0 .7.7 1.9 1.5 2.6.8.7 1.5 1.8 1.5 2.4 0 1.5 20.7 21.9 23.9 23.6 1.6.8 2.6.9 3.3.2 1.7-1.7.2-3.9-4.4-6.2-2.4-1.2-5.6-3.4-7.3-4.9-3.6-3.2-11.4-12.5-14-16.4-1.8-2.8-4.5-3.7-4.5-1.3Z"/>
    <path fill="#000" d="M136.3 463.5c-1.8 4.8 5.2 31.9 12.2 47.2 3.9 8.5 15.1 23.3 17.6 23.3 1.5 0 1-3-.5-3.6-3-1.2-14.2-20.4-18.8-32.2-2.8-7.3-5.8-19.9-7.3-30.4-.7-5.1-2.1-7-3.2-4.3Z"/>
    <path fill="#000" d="M162.6 470c.3 1.4 1.5 3.4 2.5 4.5 3 3.1 2.4-.4-.7-4-2.4-2.9-2.5-2.9-1.8-.5Z"/>
    <path fill="#000" d="M382 470.8c0 1 3.9 5.6 8.8 10.3 13.8 13.5 26.5 21 24.8 14.6-.3-1.2-.6-2.7-.6-3.4 0-.6-1.5-1.5-3.2-1.8-1.8-.4-5.1-1.9-7.3-3.3-4.5-2.9-18.6-14.8-19.8-16.9-1.1-1.9-2.7-1.6-2.7.5Z"/>
    <path fill="#000" d="M131.3 478.5c-1.2 2.2-1.1 3.9 1.1 16.5 1 5.7 1.2 8.8.5 9.6-1 1.2-.7 4.5 2 21.9 2.1 12.9 10.1 36.2 12.8 37.2 3.2 1.2 2.9-.7-1.3-8.8-5-9.6-9.3-25.8-10-37.2l-.5-9.2 1.7 4c5.1 11.8 23.2 35.1 25.6 32.7.7-.7.4-1.6-1.1-3.1-1.2-1.2-2.1-2.4-2.1-2.9-.1-.4-2.1-3-4.6-5.7-13.1-14.3-20.1-31.2-22.7-54.5-.2-2.4-.3-2.4-1.4-.5Z"/>
    <path fill="#000" d="M280.8 483.7c-1.6 1.9-2.7 3.8-8.2 14.6-2.5 4.9-3.6 8.7-4.1 14-.4 3.9-1.2 8.3-1.7 9.7-.5 1.4-1.8 7.3-2.8 13.2-1.1 6.9-2.6 12.1-4.1 14.5-3.6 5.9-14 18.2-16.4 19.6-1.3.6-4.7 2.8-7.6 4.7-8.6 5.7-20.7 12.1-21.3 11.2-1.3-2.2 3.1-10.7 9-17.2 3.5-3.8 3.5-3.9 1.9-6.9-1.9-3.8-3.3-3.9-4.5-.4-.6 1.6-1.4 3.7-1.9 4.8-3.2 7.2-7 17.4-7.6 19.9-.9 4-5.5 8.3-9.8 9.1-2.1.4-3.7 1.1-3.7 1.5 0 1.5-6.7 2.9-16.2 3.4-1.4 0-3 .4-3.4.8-.4.5-1.6.8-2.6.8-2.4 0-1.4 1.8 1 2 .9 0 4.5.3 8 .6 5 .5 7 .2 10.5-1.5 4.9-2.4 7.5-2.6 14.6-1 8 1.7 9.3.8 3.8-2.4-4.7-2.8-5.6-4.4-3.6-6.4.8-.8 3-.1 7.7 2.2 3.7 1.7 8.5 3.2 10.6 3.3 5.4.2 6.5 1.7 2.8 3.6-1.7.9-3.7 1.6-4.5 1.6-.8 0-1.4.8-1.3 1.7 0 1.1-1.3 2.4-3.6 3.5-2.1 1-3.8 2.5-3.8 3.3 0 2.2.9 1.9 8.7-2.3 11.2-5.9 25.2-16.1 32.3-23.5 7-7.2 17.9-25.2 18.4-30.4.2-1.5.9-2.9 1.7-3.1 1.8-.3 11.9 5.5 11.9 6.8 0 .6.6 1 1.3 1 .6 0 2.5 2.3 4 5 2.9 5.1 4.7 5.7 4.7 1.6 0-3-4.8-10.4-10.9-16.7-2.8-2.9-5.1-5.5-5.1-5.7 0-.2 2.7-.2 5.9 0 3.3.1 6.2 0 6.6-.4.8-.8-3.9-1.5-18.3-2.7-5.7-.6-10.7-1.2-11-1.5-.3-.4.2-3.1 1.2-6.1.9-2.9 1.9-8.8 2.2-13 .8-12.6 5.2-26.8 10.6-33.6 1.5-2 2.8-4 2.8-4.3 0-1.3-2.8-.5-4.2 1.1Zm-8.3 60.3c1.1.5 1.6.9 1 .9-.5.1-2 .4-3.2.7-1.7.5-2.3.2-2.3-1 0-1.7 1.4-1.9 4.5-.6Zm5.3 5.5c-.9 2-1.9 2.5-5.2 2.7-3.7.1-3.8.2-.9.5l3.3.4-2 4c-2.1 4.1-1.9 4-11.9 4.3-3.7.1-3.5-1.6.5-6.8 4-5.3 8-7.5 13.6-7.6 3.6 0 3.7.1 2.6 2.5ZM259.5 563c.3.5 2.4 1 4.6 1 3.2 0 3.9.3 3.9 2 0 1-.9 2.4-2 3-1.1.6-2 1.9-2 2.8 0 3.1-2.2 4.2-8.6 4.2-10.6 0-14.6-2.8-8-5.5 2.9-1.2 4.1-1.2 7.3-.2 4.1 1.4 8.7 1.2 7.8-.4-.4-.5-2.6-.9-5-.9-5.5 0-6.4-1.3-2.8-4.5 3.1-2.7 3.9-3 4.8-1.5Zm-8.7 14.3c3.9.6 7.2 1.4 7.2 1.7 0 .3-1.7 2.5-3.8 4.9-2.8 3.3-4.7 4.5-6.9 4.7-1.7.1-4.4.5-6 .8-3.1.7-13.6-1.6-15.9-3.5-4.3-3.5 1.9-5.6 10-3.3 8.4 2.3 12.3 2.8 13 1.6.3-.5-2-1.5-5.3-2.1-5-1-9.4-3.4-8-4.4 1.9-1.3 5.7-2.5 6.9-2.1.8.3 4.8 1.1 8.8 1.7Zm-24 12.3c4.8 2.2 6.6 2.5 11.5 2 4.2-.4 5.7-.2 5.7.7-.1 1.6-4.6 4.8-6.8 4.8-9 0-20.2-4-20.2-7.1 0-1.7 1.2-2.7 3.3-2.9.5-.1 3.4 1.1 6.5 2.5Z"/>
    <path fill="#000" d="M383 486.9c0 2.6 8.1 9.2 17.1 13.7 4.9 2.4 9.6 4.4 10.4 4.4.9 0 2.6.7 3.9 1.5 2.8 1.9 6.3 1 4.5-1.1-.6-.8-2.4-1.4-3.9-1.4-5.2 0-26.9-11.9-30.6-16.8-1-1.3-1.3-1.4-1.4-.3Z"/>
    <path fill="#FFF" d="M292 508.5v8.5h-6.9c-5.3 0-7 .4-7.5 1.5-.6 1.8 1.6 2.9 8.2 4 4.6.7 5.4 2.5 2.7 6.1-1.4 1.8-2 5.4-1 5.4.3 0 1.9-1.6 3.6-3.5 4.9-5.5 6.4-5.5 11.9.7 6.1 6.7 8.2 5.8 4.5-1.9-1.4-2.8-2.3-5.7-2-6.5.3-.7 2.8-2.5 5.5-4 3.8-2.1 5-3.4 5-5.1 0-3.3-.6-3.6-4.8-2.1-2 .7-5.4 1.3-7.5 1.4-3.7 0-3.9-.2-6.8-6.5-1.7-3.6-3.5-6.5-4-6.5s-.9 3.8-.9 8.5Z"/>
    <path fill="#FFF" d="M338.5 504c-.4.6-.9 3.4-1.2 6.3-.3 2.9-.9 5.6-1.3 6-.4.5-3.5-.3-7-1.7-3.4-1.4-6.7-2.3-7.2-2-1.3.8 1.8 4 5.9 5.9 3.6 1.7 5.5 4.6 3.5 5.3-.7.2-1.2 1-1.2 1.8s-1.6 3.2-3.6 5.4c-5.9 6.5-3.2 6.3 8.1-.6 2.2-1.3 4.3-2.4 4.7-2.4.8 0 4.8 6.8 4.8 8.3.1 2.2 2.9 5 4.4 4.4 1.2-.5 1.1-1.7-1-7.7-1.4-4-2.3-7.5-1.9-7.8.3-.3 2.9-.8 5.8-1 5.8-.4 7.3-1.3 6.3-3.8-.5-1.3-1.6-1.6-6.4-1.2-3.1.3-6.4.8-7.2 1.2-1.3.5-1.6-.5-1.5-6.4 0-3.9-.3-8-.7-9.1-.8-2.1-2.3-2.5-3.3-.9Z"/>
    <path fill="#000" d="M122.4 559.2c1 14 3.1 20.3 6.1 19.1 1.2-.4 1.1-1.2-.6-4.4-1.1-2.3-2.4-8-3.1-13.9-1.6-12.7-3.3-13.3-2.4-.8Z"/>
    <path fill="#000" d="M446.7 552.8c-1.5 1.5-2.7 3.7-2.7 4.8 0 1.1 2.9 4.9 6.4 8.5 3.4 3.6 7.4 8.7 8.8 11.4 1.9 3.9 3.1 5.1 5.5 5.6l3.1.6-.6-4.1c-.2-2.3-1.5-7.8-2.8-12.4-1.3-4.5-2.4-9.1-2.4-10.1 0-2.2-2.5-4.5-3.9-3.7-1 .7-.2 5 2.4 11.6 3.5 9.1 1.8 12.4-2.4 4.6-1.4-2.8-4.2-6.5-6.2-8.4-3.4-3.3-3.6-3.6-2.3-6.1 2.9-5.4 1.3-6.7-2.9-2.3Zm18.3 25.8c0 .8-.4 1.4-1 1.4-.5 0-1-.9-1-2.1 0-1.1.5-1.7 1-1.4.6.3 1 1.3 1 2.1Z"/>
    <path fill="#000" d="M114.9 555.2c-1.7 3-1.8 18.3-.2 19.9 2 2 2.6.3 1.7-3.8-.5-2.1-.7-7-.3-10.8.4-3.9.5-7.2.4-7.3-.2-.2-.9.7-1.6 2Z"/>
    <path fill="#000" d="M105.1 558.4c-1.9 4.8 1.7 24.2 3.9 20.6.5-.7.4-2.4-.2-3.9-.6-1.4-1.4-6.4-1.7-11.1-.7-8-.8-8.3-2-5.6Z"/>
    <path fill="#000" d="M136 564.9c0 .5.5 1.3 1 1.6.6.3 1 .2 1-.4 0-.5-.4-1.3-1-1.6-.5-.3-1-.2-1 .4Z"/>
    <path fill="#FFF" d="M81.4 570.9c.7 6.4.4 7-4.6 8-4.4.9-3.8 2.5 1.2 3.1 4.3.5 4.5.6 4.6 3.9 0 2.1.7 3.9 1.7 4.5 2.1 1.3 2.4.9 3-3.7.6-4.8.8-5 4.1-3.7 1.5.5 3.2.7 3.8.4.7-.4.8-.2.4.4-.4.7-.1 1.2.8 1.2 2.6 0 1.8-1.7-1.9-4.6-1.9-1.4-3.5-3-3.5-3.3 0-.4 1.6-1.5 3.5-2.4 5.5-2.6 4.6-4.5-1.9-3.9-4.9.4-5.5.2-6.7-1.9-1.3-2.5-2.8-3.9-4.3-3.9-.5 0-.6 2.7-.2 5.9Z"/>
    <path fill="#FFF" d="M108.2 589.2c.3 4 .2 4.2-3 4.9-5.4 1.1-6 2.6-1.8 4.5 3.2 1.6 3.6 2.2 3.6 5.6 0 4.2 2.4 5.4 3.3 1.7.5-1.7 1-2 2.9-1.4 1.3.4 3.9.9 5.8 1.2l3.4.6-1.7-2.6c-1.9-3-2.1-3.7-.8-3.7.5 0 2.2-.5 3.7-1 2.6-1 2.6-1.1.9-3-1-1.1-3.1-2-4.6-2-2.3 0-3.2-.8-4.8-3.9-1.9-3.5-3.7-5.1-6.2-5.1-.6 0-.9 1.9-.7 4.2Z"/>
    <path fill="#FFF" d="M462.1 587.4c-.9 1.1-.7 2.2.9 5.2l2.2 3.8-2.4 1.8c-1.2.9-2.6 1.8-3 1.8-.5 0-.8.9-.8 1.9 0 1.2 1.1 2.3 3 3 2.7.9 3 1.4 3 5.5 0 2.6.3 4.6.8 4.6 1 0 4.7-4.2 5.4-6.1.5-1.3 1.5-1.5 5.5-.9 7 1.1 7.7-.4 2.4-4.9l-4.4-3.7 3.2-4.4c4.9-6.8 3.5-10-1.7-4-1.5 1.6-3.2 3-3.9 3-.7 0-2.3-1.8-3.5-4-2.4-4.1-4.7-5-6.7-2.6Z"/>
    <path fill="#000" d="M80.7 596c-.3 1.1.1 6.4.8 11.7 2.2 15.7 3.6 37.2 3 44.8-1.8 23.2-2.7 28.2-5.2 30.9-2.6 2.8-3.8 3-9.5 1.7-2.1-.5-3.8-.5-3.8-.1 0 1.2 5.8 2.4 10 2.1 4.2-.2 8.5-1.8 12.2-4.3 1.6-1.1 3.2-1.7 3.6-1.4.5.3 1.9 3.7 3.2 7.7 1.7 5 3.3 7.8 5.2 9.2 3.3 2.4 3.4 3 .9 5.4-2.3 2.2-4.7 11.8-3.4 13.6.5.6 2 4.6 3.2 8.7 2.9 10 3.2 10.4 7.9 11.2 2.2.4 5.4 1.4 7.1 2.3 1.7.8 3.1 1.3 3.1 1.1 0-.3 1.8.1 3.9.9 6.2 2.1 12.7 2.6 25.6 1.6 7.7-.5 14.3-1.7 18.5-3.1 3.6-1.2 6.7-2.3 6.9-2.5.2-.2-1.3-2.3-3.2-4.7-1.9-2.4-3.7-5.2-3.9-6.2-.4-2.4 3.3-4.6 7.9-4.6 2.5 0 4.3-1.1 8.3-5.2 2.7-2.8 4.8-5.3 4.5-5.6-.3-.3-1.6-1.2-2.9-2.1-6.1-4.1-17.5-13.2-21.1-16.9-3.5-3.7-4.6-4.2-8.5-4.2-2.5-.1-6.3-.7-8.5-1.5-5.9-2.1-6.5-2-5.9 1.5.8 3.8-.3 8-2 8-1.9 0-4.2-3.7-5-8.1-.7-4.1-3.2-9.5-4.7-10.4-1.3-.9-1.1.9.3 2.3.6.6 1.2 3.2 1.3 5.7.4 5.9-1.2 5.9-7 0-5-4.9-5.8-4.5-2 1.1 4 5.8 8.6 10.2 13.3 12.5 2.3 1.1 5.9 4.2 8 6.7 3.9 4.9 5.2 6.2 6.5 6.2 1.3 0 .7-2.7-.9-4.1-4.7-3.9-7.2-16.2-3.9-18.9 1.3-1 2.2-1 5.3.3 2 .9 5.5 2.1 7.7 2.8 4.2 1.4 9.5 5.5 9.5 7.4 0 .6-1.1 2.2-2.5 3.5-3.7 3.5-3 4.6 1 1.6 4-3.1 6.4-2.8 9.3.9 1.1 1.3 3.1 3 4.6 3.6 1.4.7 2.6 1.5 2.6 1.9 0 2.2-15.3 12-18.7 12-1.1 0-3-1.1-4.3-2.5-1.3-1.4-2.9-2.5-3.6-2.5-.7 0-1.8-.9-2.4-2-.6-1.1-1.7-2-2.5-2-1.8 0-1.9 1.2-.4 2.7 1.8 1.8.2 3.2-5.7 4.9-2.9.8-5.4 1.8-5.4 2.1 0 .7 7.8-.7 12.2-2.3 3.5-1.2 3.7-1.1 5.2 1.1.9 1.4 1.6 2.8 1.6 3.3 0 1.6-10.8 4.2-19.9 4.7-11.4.6-13.3 1.5-3 1.5 9.6 0 19.1-1.4 23-3.4 4.6-2.3 5.5-2 7.4 2 1.9 4 1.4 6.4-1.2 6.5-1 0-3.1.2-4.8.5-7.5 1.1-27.7 1.8-32.8 1.2-6.6-.8-14.7-4.1-14.7-5.9 0-.8 1.6-1 5.8-.6 3.1.3 6.6.1 7.7-.3 1.7-.7 1.6-.9-1-1-10.2-.6-13-1-15.6-2.1-5.7-2.3-2.7-3.4 8.3-3 15.7.5 17.1-1.4 1.7-2.3-6.8-.4-12.9-1.2-13.6-1.8-.7-.6-1.3-2.3-1.3-3.9 0-1.5-.4-3.1-1-3.4-2.1-1.3-1-6.4 2-9.8 1.7-1.9 3-3.8 3-4.2 0-.4-1.8-2.7-3.9-5-2.2-2.4-5.2-6.7-6.8-9.7l-2.8-5.3-.2-32.3c-.2-33.4-.8-39-5.1-47.7-3.1-6.3-7.4-8.6-8.5-4.5Zm7.1 9c1.2 3.1 2.7 8 3.2 11 1 6 .6 56.1-.5 59.7-.5 1.6-1.5 2.3-3.2 2.3-2.5 0-2.5-.1-1.7-4.3.5-2.3.8-15.5.7-29.2-.1-19.7-.6-27.1-2.1-35-1-5.5-1.7-10.6-1.4-11.3.6-1.9 2.5.6 5 6.8Z"/>
    <path fill="#000" d="M127.4 595.9c.3.4 2 1.1 3.8 1.5 1.8.3 6.2 2.1 9.8 4 6.9 3.5 14.9 5.2 17.8 3.7.9-.5 2.5-1.2 3.5-1.5 4-1.2 1.2-2.5-6.5-2.8-5.9-.3-10.3-1.2-15.2-3.1-6.6-2.6-14.3-3.6-13.2-1.8Z"/>
    <path fill="#FFF" d="M14 606.3c-.8 2.3-1.5 4.3-1.6 4.5-.1.2-1.4-.4-2.8-1.3-2.1-1.4-2.9-1.5-4.1-.5-2.2 1.8-1.8 3.6 1.2 5.8l2.8 2-2.5 2.7c-2.1 2.2-2.2 2.8-1 3.5 2.2 1.4 4.6 1.2 6-.5 1.3-1.6 4-2 4-.6 0 .4.9 2 2.1 3.5 1.6 2.1 2.4 2.4 3.4 1.6 1.2-1 1.1-1.7-.2-4.5-1.9-4.1-1.2-6.5 2.1-6.5 2.5 0 4.3-2.5 2.5-3.5-.5-.4-2.3-.4-3.9 0-2.7.6-2.9.4-3.9-3.2-.6-2.1-1.1-4.3-1.1-5 0-3-1.8-1.8-3 2Z"/>
    <path fill="#FFF" d="M167.5 603c-.4.6-.5 2.9-.3 5.2.2 4.1.1 4.3-3.1 4.9-3.3.7-5.4 2.6-4.5 4.1.3.4 2.3.8 4.4.8h4l-.6 4.4c-.8 5.7.9 6.7 3.8 2.1 2-3.1 2.7-3.5 5.8-3.3 2.9.3 3.6-.1 3.8-1.9.2-1.4-.3-2.2-1.5-2.5-1.3-.2-.8-.9 2.1-2.6 4.4-2.6 3.9-5-.7-3.3-3.7 1.4-5.4.5-6.8-3.7-1.6-4.8-4.7-6.9-6.4-4.2Z"/>
    <path fill="#FFF" d="M199.4 605.6c-.8 4.2-2.6 5.2-5.8 3-2.2-1.4-2.5-1.4-3.7.1-1.1 1.3-1 1.8 1 3.5 1.4 1 3.1 2.2 3.8 2.7 1.2.6 1.1 1.3-.6 4.2-1.2 1.9-2.1 4-2.1 4.6 0 1.7 3.7 1.6 4.7-.1.4-.7 1.8-1.8 3-2.5 1.9-1 2.5-.7 4.9 2.4 1.4 1.9 3.2 3.5 3.8 3.5 1.3 0 1.4-5.1.2-8.8-.6-1.9-.2-2.5 2.8-3.7 4.2-1.8 4-4.7-.3-4.4-4.9.4-5.8-.1-7.6-4.1-1-2.2-2.2-4-2.6-4-.4 0-1.1 1.6-1.5 3.6Z"/>
    <path fill="#000" d="M117.8 615.2c-.2 2.9 0 6.6.4 8.3.5 1.6 1.3 6.1 1.9 10 .6 3.8 1.4 8.3 1.9 10 .5 1.6 1.2 7.5 1.5 13l.5 10 5.7 5.2c3.2 2.9 6.1 5.2 6.6 5.3 1.9.1.3-2.9-3.8-6.9-4.4-4.4-4.5-4.6-4.7-11.5-.3-11.5-1.2-18.1-2.8-20.1-1.7-2.2-4-14.1-4-21.1 0-5.7-.3-7.4-1.4-7.4-1 0-1.5 1.6-1.8 5.2Z"/>
    <path fill="#000" d="M153.6 614.8c-1.4 4.3 3.7 13.7 13.9 25.7 8.6 10.1 13 16.5 19.3 28.5 4.7 9.1 8.7 19.1 9.5 24 0 .3.6 2.3 1.2 4.5 1.2 3.8 1.4 4 5.6 4.3 3.9.2 4.9-.2 8.8-3.5l4.3-3.8.1-9 .1-9-5-8.5c-2.7-4.7-6.7-12.3-8.8-17-2.2-4.7-5.2-10.3-6.8-12.4-1.5-2.2-2.8-4.5-2.8-5.2 0-.6-.7-1.4-1.5-1.8-2.3-.9-1.8.5 3.3 9 7.2 11.9 13.9 25.4 16.6 33.3 2 5.8 2.2 7.8 1.5 11.7-.8 4.3-4.9 12.6-6.7 13.8-2 1.2-3.8-2.1-7.7-13.4-2.7-7.9-3.6-9.9-12.9-27.5-4.3-8.2-7.4-12.5-12-17-5.9-5.7-14.2-16-16.5-20.3-.6-1.1-1.1-3.4-1.1-5.1 0-3.4-1.5-4.2-2.4-1.3Z"/>
    <path fill="#000" d="M213.6 623.9c-1.2 1.8 1.3 5.8 6.3 10.1 2.9 2.5 7.7 8.2 10.7 12.8 5.6 8.3 9.4 11.2 14.8 11.2 6 0 12.6 8.3 12.6 15.9 0 4 1.1 5.1 5 5.1 2.1 0 13 10.6 13 12.6 0 .8.9 2.2 2.1 3.2 1.9 1.6 10.9 12.8 10.9 13.6 0 .2-2.6.8-5.7 1.5-7.8 1.5-25 0-32.2-2.8-3-1.1-5.6-1.9-5.8-1.7-.2.2 2 1.6 4.9 3.2 5.2 2.8 5.5 2.9 21.8 2.9 9.1 0 17.7-.4 19.2-.8 2.1-.6 3.3-.2 4.8 1.3 2.5 2.5 1.7 4.4-1.6 3.6-1.4-.4-3.7 0-5.4.9-5.6 2.9-30.5.2-40.2-4.4-6.8-3.3-12.5-8.1-9.5-8.1 1.1 0 1.4-.5 1-1.7-.5-1.2-.3-1.4.7-.8.7.4 4 1.1 7.4 1.6 3.3.4 7.9 1.2 10.1 1.7 2.3.5 5.3.5 7 0 1.7-.5 5.1-1 7.8-1.1 7.2-.2 5.6-1.7-2-1.8-14.3-.1-23.5-1.4-29.4-4.1-3.8-1.8-4.9-2.8-5.1-4.8-.1-1.4-.2-3.2-.4-4-.1-.8-.2-2-.3-2.6-.1-.6-1.6-1.5-3.3-2.1-1.8-.6-4.9-1.8-6.9-2.6-5.7-2.5-6.9-.4-1.4 2.7 2.6 1.4 5.4 2.6 6.1 2.6 3.7 0 4.2 9.3.7 13.2-1.7 1.9-1.6 2.1 2.7 6.1 8 7.4 17.1 12.2 25.6 13.3 2.1.2 5.6.9 7.7 1.5 4 1.1 16.8.4 20.2-1.1 1.1-.5 4.5-1.6 7.5-2.6 9.6-2.9 9.7-3.1 4.8-6.6-5.6-4-13.8-11.9-13.8-13.4 0-.6 2.6-1.4 6.3-1.7 7.6-.7 13.6-2.8 20-6.9l5-3.2-4.4-1.9c-2.4-1.1-7.6-3.5-11.5-5.3-8-3.8-12.3-3.8-14.9 0-2.3 3.2-1.8 3.7 1.9 1.5 2.8-1.6 3.9-1.8 5.5-.9 2.6 1.4 2.6 1.8-.1 4.7-2.5 2.7-1.2 2.9 4 .7 4.5-1.8 9.8-1.1 11.2 1.6 1.4 2.6-.3 3.4-11 5.4-13.2 2.4-15.4 2.4-18.4-.5-1.4-1.3-2.6-2.9-2.6-3.5 0-1.4-4.6-5.6-9.1-8.3-4.3-2.5-5.8-4.2-6.3-6.7-.2-1.1-.6-2.6-.8-3.4-.4-1.8.9-1.6 6.5.9 4.1 1.9 14.1 5.1 16 5.1 2.1 0-1.7-3-5.1-4.1-2-.6-6.6-2.7-10.2-4.5-3.6-1.8-7.8-3.6-9.3-3.9-1.5-.3-3.2-1.6-3.8-2.8-1.2-2.7-7.9-6.7-11.3-6.7-4.8 0-7.2-1.6-8.4-5.9-.9-2.9-3-5.6-7.8-9.8-3.6-3.2-7.7-7.7-9.1-10.1-2.5-4.2-3.7-5-4.7-3.3Z"/>
    <path fill="#000" d="M2.3 625.2c-3.1 3.9-2.1 27.5 1.5 36.5 1.8 4.6 2 4.7 4.2 3.3 1.2-.8 1.1-2-.9-8.7-2.8-9.4-3.8-21.8-2.2-26.4.9-2.6.9-3.6-.2-4.6-1.1-1.2-1.6-1.2-2.4-.1Z"/>
    <path fill="#000" d="M179.4 627.1c-.3.6.5 2.3 1.8 3.7 1.4 1.5 4.6 6.3 7.2 10.7 2.6 4.4 6.4 10.7 8.4 14 2.1 3.3 5.7 9.8 8.1 14.5 2.4 4.7 4.7 8.9 5.3 9.5 1.1 1.1-2.2-7.4-3.4-9-.5-.6-2.5-4.4-4.6-8.5-7-13.7-20.4-36-21.7-36-.2 0-.7.5-1.1 1.1Z"/>
    <path fill="#000" d="M9.4 630.6c-1.6 7.7-.8 17 2.1 25 2.2 5.9 3 7.3 3.7 6 .6-1.1.3-3.4-1.1-7.2-3.5-9.2-4-13.1-2.8-19.5.8-4.4.8-6.2-.1-7.1-.8-.8-1.3 0-1.8 2.8Z"/>
    <path fill="#000" d="M21.8 631.7c-2.7 6.7-.1 25.1 4.5 31.8 3.4 5 13.8 15.3 20.2 19.9 8.3 6.1 10.9 9.1 14.4 16.6 4.3 9.1 5.2 21 2.3 29.5-7.4 22.1-7.7 28.2-1.6 35.4 3.9 4.5 2.9 6.8-1.3 3-4.7-4.4-7.7-10.3-9.4-18.4-1.2-6-1.8-7.5-2.4-6.1-1.2 2.7 1.1 15.3 3.8 20.6 3.8 7.7 15.7 12.9 22.8 10 4-1.7 3.3-4-1.6-5.5-6.3-1.8-8.4-3.3-10.5-7.5-2.4-4.7-2.5-10.3-.4-16.7 3.4-10 4.4-15.2 5-26.5.6-9.7.4-12.2-1-15.1-.9-1.9-1.6-4-1.6-4.5 0-1.7-14-15.6-18.5-18.5-4.7-3-12.9-11.3-17.4-17.7-3.7-5.4-5.6-14-5.5-25.3 0-4.2-.1-7.7-.3-7.7-.2 0-.9 1.2-1.5 2.7Zm49.6 137.9c2.2.8 2 3.4-.2 3.4-1.9 0-4.2-1.8-4.2-3.2 0-.9 2.2-1 4.4-.2Z"/>
    <path fill="#000" d="M212 635.5c0 1.8 6.7 12.4 10.7 16.9 2.4 2.6 4.3 5.2 4.3 5.7s.7.9 1.5.9c2.2 0 1.9-.7-2.1-4.8-2-2-5.8-7.1-8.6-11.2-5.6-8.4-5.8-8.7-5.8-7.5Z"/>
    <path fill="#000" d="M485.7 652.7c-1.3 2.1.4 8.9 3.7 14.6 4.3 7.6 14.2 18.1 15 16 .7-1.8-1-4.3-2.9-4.3-3.1 0-11.9-14.9-14.2-24-.5-2.1-1.2-3-1.6-2.3Z"/>
    <path fill="#FFF" d="M18.3 662.7c-.7.2-1.3 2-1.3 3.9 0 3.9-.8 4.2-4.2 1.4-2.5-1.9-2.5-1.9-4.7.4-2.7 2.9-2.7 3.3.7 4.1 3.5.7 6.2 5 5.5 8.8-.5 2.4-.2 2.7 2.1 2.7 1.7 0 2.9-.7 3.4-1.9.7-1.9.9-1.8 4.9.9 2.3 1.6 4.3 2.6 4.6 2.4.2-.2-.1-2.5-.6-5-.9-3.9-.8-4.8.5-5.8 2.1-1.5.4-4-3.4-4.9-2-.5-3-1.6-3.6-3.9-.8-3.3-1.8-4-3.9-3.1Z"/>
    <path fill="#000" d="M37.2 685.6c5.1 5.4 10.8 15.9 10.8 20 0 4.4 2.2 10.4 3.8 10.4 1.1 0 1.3-.7.7-3.3-.4-1.7-1-4.8-1.4-6.7-.8-4.8-6.9-15.7-10.8-19.7-5.5-5.4-8.3-6-3.1-.7Z"/>
    <path fill="#000" d="M19 688.3c0 .8.9 4 2.1 7.3 1.6 4.6 2 7.4 1.6 12.9-.3 3.8-.8 7.8-1.2 8.7-1.5 3.8 1.2 1.5 3.3-2.7 2.4-4.9 2.9-12.9 1.3-19.9-1.2-5.1-2.9-6.7-2.5-2.4.3 2.8.1 2.6-.8-1-1-3.9-3.8-6-3.8-2.9Z"/>
    <path fill="#000" d="M30 687.3c0 .2 1.1 3.5 2.5 7.3 2.6 7 3.4 16.7 1.5 17.9-1.2.7-1.3 4.5-.2 4.5.5 0 1.9-1.1 3.2-2.4 1.7-1.9 2.1-3.1 1.6-5.3-.4-1.5-1.3-5.5-2-8.8-1.3-6.1-3.8-11.9-5.6-13-.5-.3-1-.4-1-.2Z"/>
    <path fill="#000" d="M168 711c-3 2.3-4.6 4-3.7 4 .9 0 3-1.4 4.5-3 1.6-1.7 3.4-3 4.1-3 .6 0 1.1-.5 1.1-1 0-1.4-.1-1.4-6 3Z"/>
    <path fill="#FFF" d="M40.8 712.6c-.5.4-.8 2.7-.8 5.1 0 4-.2 4.3-2.8 4.3-2.6 0-5.2 1.5-5.2 3.1 0 .4 1 1 2.3 1.3 4.5 1.2 4.9 1.9 3.3 6.4-2.3 6.5-1 8.1 2.6 3.2 1.6-2.2 3.3-4 3.8-4 .4 0 1.9 1 3.4 2.1 4 3.2 5.3 1.2 2.7-4-1.2-2.2-1.8-4.1-1.4-4.1.5 0 2.3-.9 4.1-2 4.7-2.9 2.9-5-4.3-5-5.3 0-5.3 0-6.2-3.6-.4-2-1.1-3.2-1.5-2.8Z"/>
    <path fill="#000" d="M15.3 726.7c-2.1 5-2.8 7-4.3 12-1.1 3.7-1.1 4.5.2 6 2 2.3 5.3 8.8 7.9 15.8 3 8.1 2.1 13.9-3.2 18.9l-3.9 3.8 2.5 2c2.4 1.9 2.5 1.9 6.2-.1 5.9-3 9.4-7.3 10.4-12.7 1-5.4.2-14.4-1.3-14.4-.6 0-.8 1-.5 2.2.7 2.5-.9 11.2-2.6 14.6-.6 1.3-2 2.8-3.1 3.4-1.7.9-1.8.8-1.2-1.3 3.4-12 3-21.8-1-23.9-5.2-2.8-7.7-17.7-4-24.7 1.8-3.7 2-5.3.6-5.3-.6 0-1.8 1.7-2.7 3.7Z"/>
    <path fill="#000" d="M27.4 724.7c-.4 1-1.4 3.6-2.4 5.8-1.1 2.6-1.7 6.9-1.8 12v8l.9-5.4c.5-2.9 2.1-8.6 3.4-12.5 3.3-9.1 3.2-8.8 1.8-9.3-.7-.3-1.6.4-1.9 1.4Z"/>
    <path fill="#000" d="M33.3 744.5c-.9 2.4.2 10.7 1.8 13.7.8 1.5 3.1 5.5 5.2 8.9 4.6 7.5 5.4 11.8 3.3 17.4-1.8 4.5-3.3 5.5-14.6 9.4l-5.5 2h4c9 .1 16.9-3.6 20.4-9.5 2.3-3.8 2.7-15.7.7-19.3l-1.3-2.3-.6 2.3c-.7 2.5-.6 2.6-7.6-9.1-2.4-4-4.3-10.2-3.9-12.4.6-2.8-.9-3.6-1.9-1.1Z"/>
</svg>