<svg xmlns="http://www.w3.org/2000/svg" viewBox="0 0 634 536">
    <path fill="#000" d="M352.5 1.9c-.3 1.1-.2 2.8.2 3.6 2.4 4.2 11.1 11.6 17.4 14.9 8.3 4.3 28 12.6 35.9 15.1 3 1 5.9 2.1 6.4 2.6 2.5 2.3-1.4 1.5-15.5-3.1-8.5-2.7-16.2-5-17.2-5-.9 0-3.5-1.1-5.7-2.5s-4.2-2.5-4.6-2.5c-.9 0-11.6-9.2-14.3-12.3-1.7-2-2.7-2.5-3.4-1.8-.8.8-.3 1.9 1.6 3.9 3.1 3.2 3.4 4.2 1.1 4.2-.9 0-1.3.5-1 1.2.3.7.8 2 1.2 2.8 1.3 3.8 24.5 18.8 31.7 20.6 1.5.3 2.7 1.1 2.7 1.6 0 1.6-11-.3-16.3-2.8-5.1-2.3-12.7-8.9-12.7-10.9 0-1.7-3.7-4.8-4.4-3.7-.3.5.6 2.4 1.9 4.2 1.4 1.9 2.5 4 2.5 4.7 0 .8 2.3 2.8 5.1 4.5 4.4 2.8 4.8 3.4 3.5 4.4-.9.6-6.2 1.5-11.9 1.8-5.6.4-12.4 1-15.2 1.3-2.7.2-8.1.6-12 .7-3.8.2-11.3 1-16.5 1.9-35.9 6-51.6 8.2-58.7 8.2-3.5 0-6.3.3-6.3.8 0 2-40-.7-47-3.2-1.4-.5-5.4-1.7-9-2.7-3.6-.9-6.9-2.1-7.5-2.5-.5-.3-2.1-1-3.5-1.4-9.1-2.6-22.7-11.5-25.7-16.9-1.2-2-1.2-2-1.3-.1 0 1.1.6 3.2 1.4 4.7.8 1.5 1.2 3.6.9 4.6-.3 1.3 1.9 4.2 8 10.3 7.2 7.1 9.5 8.7 14.9 10.6 7.4 2.5 9.9 3 19.3 3.8 3.8.3 7.4 1 8 1.6.7.8-2.1 1-10 .6-10.5-.4-12.9-1-21.8-5.1-3.1-1.5-13.7-11.3-13.7-12.7 0-.5-.7-.9-1.5-.9-3.9 0 5 11.6 11.5 15 4.9 2.5 16.6 6 20.1 6 1.6 0 2.9.4 2.9 1s-3.3 1-8 1c-8.4 0-14.9-2.2-17.7-5.9-.7-.9-1.3-1.1-1.3-.5 0 2.2 6.7 7.1 11.6 8.3 3.6.9 4.4 1.5 3.4 2.2-.8.5-2.3.9-3.2.9-.9 0-2.1.6-2.5 1.3-.8 1.2-2.4 1.9-17.3 7.2-17.5 6.1-31.6 9.4-40.6 9.5-2.3 0-5.8.7-7.9 1.6-5.8 2.4-42.6 3.4-54.3 1.5-6.4-1-21.1-7.4-26.1-11.2-6.3-4.9-12.8-12.2-15.4-17.3-3.1-6.2-5.2-7-6.8-2.9-1.5 3.8-.5 8.4 3.1 15.7 4.1 8.1 10.4 13.2 27.8 22.2 6.8 3.6 17.4 5.5 28.1 5.2 14.2-.4 12.9-2.4-2.1-3.1-10.7-.5-13.4-1-20.8-3.8-11.8-4.6-22.3-12-28.8-20.3-3.5-4.6-5.2-7.7-5.2-9.7 0-4.2 1.2-3.5 4 2.3C16.2 81.6 24.2 90 26.3 90c.4 0 1.8.9 3 2.1 3.6 3.3 15.6 8.7 24.1 10.9 9.1 2.3 25 2.6 30.6.6 2.9-1 4.3-.9 7.8.2 2.3.8 6 1.2 8.2 1 2.8-.2 4 0 4 .9 0 .7.4 1.3 1 1.3.5 0-.7 3.4-2.7 7.5-3.3 7-3.7 10.5-1.3 10.5.5 0 1-.8 1-1.8 0-2.2 5.2-13.2 8.1-17.2 1.3-1.6 2.9-3 3.7-3 .9 0 .2 1.7-2.1 4.7-3.2 4.5-7.5 14.9-6.4 15.9.8.9 3.7-.8 3.7-2.2 0-2.1 7.6-16.8 9.4-18.3 2.5-2.1 3-.5.9 2.6-3.2 4.7-6.1 10.9-6.9 14.7-.5 3-.4 3.5.9 3 .8-.3 1.8-1.9 2.1-3.6 1.2-6.1 12.4-22.3 14.2-20.5.4.4-.4 2-1.8 3.5-2.9 3-7.1 11.8-8.3 17-.6 3-.5 3.3 1.2 3 1-.2 1.8-1.2 1.9-2.4.2-3.2 6.2-14.5 9.7-18.1 3.6-3.8 4.7-3.6 2 .4-4.3 6.3-7.3 12.2-6.3 12.8.5.3 2.1-1.4 3.6-3.7 3.5-5.7 11.3-14.8 12.6-14.8.5 0-.4 1.6-2.2 3.6-3.1 3.6-8.3 13.9-9.6 19-1.2 4.5 1.7 2.3 3.3-2.6 2.2-6.5 7.9-14.8 14.1-20.4 4.5-4.2 4-2-.9 3.9-4.2 5-8.2 12.5-9.4 17.8-.6 2.3-.4 2.6.9 2.1 1-.4 1.5-1.2 1.2-1.9-.6-1.7 10.1-18.1 14.9-22.8 5.2-4.9 6.5-4.7 2.4.5-6.2 7.8-13.9 22.1-12.6 23.4 1.3 1.4 3.4-.6 4.1-3.7.7-3.7 7.4-14.7 12-19.9 1.7-1.9 3.9-4.6 4.8-5.9 1-1.4 2-2.2 2.4-1.8.3.3-.9 2.4-2.9 4.7-1.9 2.3-5.1 7.3-7.1 11.3-3.8 7.8-5.9 17.3-3.6 16.5 1.7-.5 2.1-1.5 4.9-10.3 1.3-3.9 3.6-8.7 5.2-10.7s2.9-4 2.9-4.4c0-.4 1.9-3.1 4.3-6 3.1-4 5.2-5.6 8.2-6.4 2.2-.6 6.2-2 8.9-3 2.7-1.1 5.7-2 6.7-2s2.1-.5 2.4-1c1.5-2.4 2.4-.7 1 2-.8 1.6-1.5 3.4-1.5 4 0 1.9 2 1 2.9-1.3 1-2.5 5.8-7.3 6.6-6.5.3.3-.7 2.6-2.1 5.2-1.4 2.6-2.3 5-1.9 5.4.3.4 1.1-.1 1.7-1.1 1.5-2.7 7-8.8 7.5-8.3.4.4-5.2 10.5-13.7 24.6-4.1 6.8-4.6 8-3.1 8 .5 0 2.3-2.4 3.8-5.3 7.1-12.8 8.8-15.5 12.1-19.7 5.3-6.6 12-13.5 12.6-13 .3.3-1.4 2.6-3.6 5-4.2 4.6-12.5 17.1-19.1 29.1-3.5 6.3-4.7 10.9-2.8 10.9 1.3 0 2.6-2 4.6-7.5 3.6-9.9 15.9-28.2 22.8-34.2 7-6 8-5.5 2.1 1.2-7.1 8.3-12.1 15.8-15.8 24-3.6 7.8-5.9 14.6-5.2 15.2 1.5 1.5 3.5-1.2 5.4-7.2 2.8-8.5 10.8-21.7 16.9-28.1 2.6-2.7 6.2-6.7 7.9-8.8 1.7-2.1 3.6-3.7 4.2-3.5.7.2-3 5.7-8.3 12.4-5.2 6.6-10.3 13.8-11.3 15.9-.9 2.2-3.1 6.9-4.9 10.5-1.7 3.6-2.8 7-2.3 7.4 1 1.1 5-1 5-2.6 0-2.9 13.5-26.8 17.8-31.7 5.4-6.1 12.9-13 14-13 .8 0-1 2.4-4 5.2-9.5 9.3-16.7 20.7-20.2 32.5-1.8 5.9-2 9.3-.6 9.3.6 0 1-.7 1-1.5 0-3.6 6.7-17.8 12.5-26.5 7.5-11.1 17.6-21.8 21.4-22.5 2.3-.5 2.4-.4.8.7-9 6.5-15.1 14.6-22.7 30.2-6.8 14-8.3 19-5.6 18.5 1.2-.3 2.6-2.8 4.2-7.4 2.8-8.1 3.9-10.5 7.4-16 1.4-2.2 3.2-5.4 4-7 1.5-3.1 15.8-17.5 17.3-17.5 1.3 0-2.6 5-8.2 10.5-2.8 2.7-5.3 6.2-5.6 7.7-.4 1.5-1 3-1.5 3.3-1.1.7-7 12.8-7 14.3 0 .7-.4 1.2-.8 1.2-1 0-3.5 9.1-2.7 9.8 1.3 1.4 4-1.8 5.1-5.9C249.5 97.4 258 82 260.2 82c1.7 0 .6 3.7-4.8 15.2-3.1 6.5-5.4 12.1-5.2 12.3.2.2 1.4-.1 2.7-.8 1.5-.8 3-3.4 4.5-7.8 2.9-8.2 6.6-14.9 8.3-14.9.7 0 1.3.2 1.3.5 0 1.2-5.1 13.9-6.6 16.4-1.7 2.9-1.4 6.1.5 6.1.6 0 1.3-1.2 1.7-2.8 1.5-7 9.8-24.2 14.5-30.3 1.6-2 2.9-4.5 2.9-5.5 0-1.8 9.2-11.4 10.9-11.4.5 0 1.7-.3 2.7-.7 1.2-.4 1.5-.3 1 .5-.4.7-.1 1.2.8 1.2s1.6.4 1.6 1c0 .5.4 1 .9 1 .4 0 .6-1.1.3-2.5-.5-2.8 1.6-4.2 4.6-3 1.6.6 1.6.7 0 1.9-1.9 1.4-2.5 5.6-.8 5.6.6 0 1-.7 1-1.5 0-1.7 2.6-2 3.6-.4.3.6-.3 2.4-1.5 4-2 2.7-2.1 4.9-.2 4.9.4 0 2.5-2.5 4.7-5.5 2.1-3 4.4-5.5 5-5.5.6 0 1.7-.7 2.4-1.5.7-.9 1.5-1.4 1.7-1.1.3.2-2 3.5-5.1 7.3-7.2 8.9-16.6 28.1-16.6 34.1 0 4.6 2.3 1.5 5.5-7.5 4.2-11.8 7.4-17 14.9-24.7 8.1-8.2 11.4-10.6 5.2-3.6-2.6 3-5.2 6.4-5.8 7.5-.5 1.1-1.4 2.9-2.1 4-.7 1.1-2.5 4.3-4.2 7-4.9 8.3-9.7 21.5-7.7 21.5 2.2 0 4.2-1.3 4.2-2.7 0-.9 1.8-5.9 4.1-11.2 4.2-9.7 12.6-22.9 18.7-28.9 3.1-3.2 3.2-3.5 1.5-4.8-2.1-1.6-2.3-1.5 4.6-2l5.4-.4-4.6 4c-4 3.5-11.8 14-15.3 20.7-7.1 13-10.4 21.6-9 23 1 1 3.6-.6 3.6-2.3 0-.9.9-2.9 2-4.4 1.1-1.6 1.8-3.5 1.4-4.3-1.3-3.4 13.4-26.4 16.2-25.3.7.3 1.6.1 1.9-.4.4-.6.1-1-.4-1-2 0-1.1-1.6 2-3.9 1.7-1.3 3.7-2 4.6-1.7 1.4.6 1.4.9-.2 2.6-2 2.2-4 2.7-2.9.7.4-.6.3-.8-.1-.4-.5.4-1 1.4-1.1 2.2-.1.8-2.5 4-5.2 7.2-4.9 5.7-8.2 12.2-10.7 21.3-.6 2.5-1.5 5.5-1.9 6.7-.5 1.7-.3 2.3.8 2.3 1 0 1.9-1.6 2.6-4.3 2.1-8.1 4-13 6.3-16.1 1.2-1.7 2.9-4.3 3.6-5.8 1.9-3.7 8.8-10 9.6-8.8.3.5-.2 2.1-1.2 3.6-1.5 2.4-1.8 2.5-2.3.8-.6-1.7-.8-1.7-1.8.3-.9 1.6-.9 2.2-.1 2.5 1.4.5-1.6 6.8-3.1 6.8-.6 0-1 .5-1 1.1 0 .6-1.6 4.7-3.5 9-3.9 9-4.2 10.2-1.9 9.7 1-.2 2.6-2.9 3.9-6.6 2.2-6.2 12-22.2 13.6-22.2.4 0 1-.9 1.4-2 .8-2.4 9.7-11.4 13.6-13.7 1.6-1 2.9-2.1 2.9-2.5 0-.4.7-.8 1.5-.8 2.5 0 1.7 1.4-4.6 8.1-6.3 6.6-15.6 18.5-19.3 24.8-2.4 4-5.8 13.2-5.2 13.9 1.2 1.1 4.7-1.3 5.2-3.6 1.2-5.5 6.7-16.7 10.9-22.1 4.8-6.3 16.4-18.1 17.7-18.1.4 0 0 .8-.9 1.8-8.7 8.7-23.3 33.4-23.3 39.4 0 1.7.3 1.8 1.5.8.8-.7 1.5-1.9 1.5-2.8 0-2.3 6.7-14.9 11.2-20.9 2.5-3.5 4.3-5 5.3-4.7.8.4 1.5.2 1.5-.4 0-.5.7-1.3 1.6-1.6 1-.4.5.9-1.4 3.7-6.9 10-15.2 24.2-15.2 25.8 0 .5 1.2.7 2.8.3 3.8-1 4.2-1.3 4.2-3.7.1-4.8 6.7-15.9 16.3-27.3 3.9-4.8 4.7-6.7 2.2-5.8-.8.3-1.9.3-2.6-.1-1.5-1 6.9-8.5 9.5-8.5 1.5 0 1.6.3.6 1.5-1.6 2-.1 1.9 2.1-.1 1-.9 3.9-1.6 7.3-1.7 5-.2 5.5-.1 5 1.5-.7 2.3.2 2.3 3.3-.2 2.6-2 6.3-2.7 6.3-1.2 0 .5-1.1 1.9-2.5 3.2-1.6 1.5-2.2 2.7-1.6 3.3.6.6 2-.3 3.8-2.2 2-2.4 4-3.4 7.1-3.8 2.8-.4 4.2-.2 4.2.6 0 .6-.6 1.1-1.4 1.1-.7 0-4.2 2.7-7.7 6.1l-6.4 6 9.5-6.4c6.9-4.7 10-6.3 11.4-5.8 1.6.6.7 1.5-5 5.3-9.7 6.5-18.8 16.8-28.7 32.5-3.2 5.1-3.3 6.3-.8 6.3 1.3 0 2.3-1.1 3.1-3.4.6-1.9 2.4-5.3 4.1-7.5 1.6-2.3 2.9-4.4 2.9-4.9 0-1.8 12.3-14.2 14.1-14.2 1 0 1.9.2 1.9.5s-2.8 4.1-6.3 8.4c-6.5 7.9-12.7 16.5-12.7 17.5 0 1.7 2.8.3 3.8-1.8 1.2-2.7 1.7-3.3 11.5-14.9C425 63.2 436 55 444.3 53.5c4.9-.9 4.7 0-.5 2.6-6.1 3.1-8.9 5.3-19 14.9-7.5 7.2-9.6 9.8-13.4 17.4-2.4 5-4.4 9.1-4.4 9.3 0 .2.6.3 1.3.3.7 0 2.5-2.9 4.1-6.5 2.7-6.3 11.5-17.4 11.6-14.7 0 1 .5 1 2.3.1 1.9-1 2-1 1.1.2C422 83.8 416 92.5 416 93.6c0 3 2 1.1 6.4-5.9 4.5-7.3 9.8-12.7 12.3-12.7.7 0 1.3-.4 1.3-1 0-3.3 13.5-11.8 23.3-14.6 7.1-2.1 8-2.2 11.2-.8 2 .8 3.3 1.9 3 2.3-.2.5-3.4 1.4-6.9 2-3.6.6-7.7 1.7-9.3 2.4-2.4 1-16.6 11.3-24 17.4-2.9 2.4-11.4 13.5-10.8 14.1.3.3 4.2-3.3 8.7-8 4.6-4.6 10.9-10.1 14.1-12.2 5.3-3.4 19.5-10.5 22.1-11 .6-.2 3.8-.8 7-1.5 4.8-1.1 6.7-1.1 10-.1 3.9 1.2 4 1.3 1.6 2-1.4.5-6.5 2-11.4 3.5-18.1 5.4-37.9 17.1-44.7 26.3-4.1 5.6-2.6 5.2 4.1-.9 7.4-6.9 12.1-10 23.2-15.6 7.9-3.9 29.6-11.2 33.6-11.3 2.2 0 1.2 2.9-1.5 4.4-1.6.7-8.4 3.6-15.3 6.2-6.9 2.7-11.7 5-10.8 5.2 2.7.5 25-6.9 28.3-9.4 1.7-1.2 4.8-2.3 7-2.5 4.2-.3 13.2 2 18.1 4.6 1.6.8 3.5 1.5 4.3 1.5 2.2 0 17.3 7.7 20.6 10.6 1.7 1.4 6.2 5.6 10 9.3 4.9 4.8 9.6 8.1 15.5 11.1 6.7 3.4 10.2 6 16.8 12.7 4.5 4.6 8.2 8.8 8.2 9.3s1.7 2.1 3.8 3.5c2 1.3 5.5 4.8 7.7 7.6 4.7 6.2 6.2 7.7 14.3 14.7 6.1 5.2 10.2 11.3 10.2 15 0 2.8-2.7 4.8-10 7.3-3.6 1.2-7.6 3-8.9 4.1-1.3 1-6.1 2.9-10.6 4.3-7.2 2.2-9.9 2.5-24.1 2.5-15.4-.1-23.7-.9-47.1-4.5-6.2-.9-11.9-1.5-12.8-1.1-.8.3-2 1.8-2.6 3.3-.9 2.5-.7 3 1.8 5.1 2.6 2.2 3.4 2.3 11.3 1.8 4.7-.3 17.6-.9 28.8-1.2 18.5-.6 20.2-.5 20.2 1 0 2.7-8.5 5.8-16.5 6.1-13.9.6-37 4.2-47.9 7.5-3.7 1.2-7 1.9-7.4 1.6-.3-.3-1.1-.1-1.8.5-1.7 1.4-6.8 2.7-16.9 4.3-11.1 1.7-20.8 0-24.7-4.4-1.5-1.6-3.5-3-4.4-3-.9 0-1.4-.6-1.1-1.3.2-.7-1.1-3-2.9-5.2-1.9-2.2-3.4-3.4-3.4-2.6 0 .8.7 2.2 1.6 3.2.9 1 1.4 2.3 1.2 2.9-.6 1.9-17.5-13.1-19.8-17.6-.8-1.6-2-3.6-2.7-4.5-2.6-3.2-6.3-14.4-7.4-22.5-1.1-8.4-.1-20.2 2.1-24.2.5-.9 1.1-2.9 1.4-4.3.7-3.2 6.7-12.2 12.1-18.1 5.8-6.3 15.6-13.3 16.5-11.9.5.9 1.4.4 3.1-1.6 2.4-2.8 20-12.3 22.9-12.3.8 0 2.2-.5 3-1.1 2.4-1.6-15.1 0-22.6 2.1-3.5 1-7.1 2.6-8 3.5-.9.9-4.4 2.9-7.8 4.6-4.6 2.3-8.7 5.7-16.3 13.7-10.5 10.8-12.3 13.6-16.7 25.5-3 7.8-3.2 12.4-1.1 25.7 2.6 16.2 10.2 29.1 22.9 39 5.6 4.2 26.3 15.3 30.9 16.4 10.6 2.5-8.6 2.9-66.3 1.1-20.2-.6-29.3-1.3-41.5-3-25.7-3.8-47.7-6.5-48.6-5.9-1.6.9.1 2.4 2.7 2.4 3.4 0 3 1.6-.8 2.9-3.3 1.2-8.8 5.8-8.8 7.3 0 .5 1.5-.2 3.3-1.5 4.6-3.5 7.1-4.7 13.5-6.3 5.2-1.4 11.2-1.1 11.2.5 0 .4-3.7 1.5-8.2 2.4-9.6 2-15.4 4.7-19.4 8.8-3.8 4-2.1 5 1.9 1.1 4.4-4.2 8.5-5.8 21.8-8.2 12-2.1 24.4-2.6 25.4-1 .3.5.3 1 0 1-2.4 0-23.8 4.7-33 7.2-12.8 3.5-15.9 4.9-18.1 8.4-2.5 3.8-.8 4.2 2.9.6 3.8-3.7 11.1-6.4 26.2-9.6 19.1-4.1 30.7-5.7 39.5-5.4 10.4.4 9 1.1-6.5 3.2-16.1 2.2-41.3 8.6-50.5 12.8-8.8 4-14 7-14 8 0 1.4 1.8.8 9.7-3 19.5-9.6 38.4-14.1 70.8-16.7 1.7-.1 8-.7 14-1.3 6.1-.7 27.7-1.1 48.1-1.1 23.2 0 38-.4 39.5-1 1.3-.6 8.3-2.4 15.4-4.1 7.2-1.7 13.9-3.5 15-4 1.1-.4 5.2-1.6 9-2.5 3.9-.9 8.5-2.1 10.3-2.7 1.9-.5 10.2-1.4 18.5-1.9 18.4-1 21.3-1.7 28.3-6.3 4.3-2.9 5.8-3.4 7.3-2.6 1.1.5 2.1 1.5 2.4 2.2.2.7.8 1 1.2.6.5-.5 0-1.7-.9-2.7-1.7-1.9-1.6-2 4.1-2.6 7.2-.7 24.6-5.5 25.5-7 .4-.6 3.1-2.1 6-3.4 12.8-5.5 12.3-5.1 12.6-10.7.3-4.4-.2-5.8-2.8-9.8-1.7-2.5-5-5.9-7.3-7.5-5.6-3.8-11.3-9.8-14-14.6-1.2-2.2-4-5.3-6.2-7-2.2-1.6-6-5.3-8.5-8.2-10-11.5-15-16.2-19.1-18.1-2.4-1-6.1-3.6-8.1-5.7-2.1-2.1-3.8-3.3-3.8-2.7 0 2.4-2.2 1-8.3-5.1-8.4-8.5-20.3-16.6-24.5-16.7-.7 0-3.5-1.1-6.2-2.5-2.6-1.3-6.8-2.7-9.2-3.1-2.4-.3-8.3-2.7-13.3-5.2-11.7-5.9-38-15.7-44.6-16.7-1.4-.2-3.8-1.1-5.5-2-1.6-.8-3.4-1.5-4.1-1.5-.7 0-5.2-1.4-10-3-4.8-1.7-14.2-4.8-20.7-7-6.6-2.2-12.4-4.4-13-4.8-.6-.4-2.9-1.4-5.1-2.1-5.2-1.7-11.9-4.6-17-7.3-2.2-1.2-5.6-2.9-7.5-3.9-1.9-.9-4.5-2.7-5.7-3.8-1.2-1.2-2.6-2.1-3.2-2.1-.5 0-2.8-2.4-5.2-5.3-2.3-2.8-4.6-5.6-5-6.1-.4-.4-1 .1-1.4 1.3Zm16.6 27.8c4.3 2.5 19.3 7.3 30.4 9.8 13.8 3.1 15.4 3.5 16.1 4.7.5.8-.9.9-5 .4-15.8-1.8-39.3-10.1-45.8-16-3-2.7-3.9-4.9-1-2.4.9.8 3.3 2.4 5.3 3.5Zm54.2 12c4.5 1.5 7.4 2.9 6.4 3.1-2.2.5-15.7-3.8-15.7-5 0-1.1.2-1.1 9.3 1.9Zm-257.7 6.5c3.7 2.8 5.2 4.4 4.5 5.1-.7.7-2.6-.2-5.8-2.9-4.3-3.7-6.4-6.4-4.8-6.4.3 0 3.1 1.9 6.1 4.2ZM380 49.9c0 .5-1.1 1.1-2.5 1.3-2 .4-2.3.3-1.4-.8 1.3-1.6 3.9-1.9 3.9-.5Zm58 3.1c-2.4 1.5-3.7 1.1-1.6-.5 1.1-.8 2.2-1.2 2.5-.9.3.3-.1.9-.9 1.4Zm-85.5 0c-.3.5-1.3 1-2.1 1s-1.4-.5-1.4-1c0-.6.9-1 2.1-1 1.1 0 1.7.4 1.4 1ZM193 60.1c3.5 1 9.3 2.2 12.8 2.5 3.5.4 8 1.3 10 2l3.7 1.3h-5c-10.5.1-31.1-4-37.1-7.4-5.9-3.3-5.7-3.1-5-4.3.4-.6 3.3 0 7.4 1.5 3.7 1.4 9.6 3.3 13.2 4.4Zm165.5-6.3c-9.2 7.6-12.3 10-12.7 9.6-.6-.6 7.3-8.9 9.2-9.7 2.3-.9 4.5-.8 3.5.1Zm75.4.5c-.2.2-2.6 1.9-5.4 3.7-2.7 1.9-5.5 4.1-6.2 4.9-.6.9-1.5 1.3-1.9.8-.9-.9 3.6-5.8 4.7-5.1.5.3.9 0 .9-.5 0-.6.5-1.1 1.1-1.1.6 0 2.2-.9 3.6-2 1.5-1.1 2.8-1.8 3.1-1.5.3.3.3.7.1.8Zm22 .9c1.7 1 .7 1.8-8.7 6.5-5.9 2.9-11.3 6.1-12.1 7-1.3 1.7-1.3 1.7-.7-.1.7-1.9.6-1.9-1.3-.2-1.1 1-1.8 2.4-1.4 3 .4.8.2.8-.6 0-2.9-2.6 4.8-9.3 16.9-14.8 3-1.4 5.6-2.5 5.8-2.5.1-.1 1.1.4 2.1 1.1Zm-141.9.7c0 1.3-4.1 4.1-5.2 3.5-.4-.3-.5.2-.2 1.1.5 1.1.2 1.4-1 .9-2.1-.8-2-1.3.6-4.1 2.1-2.3 5.8-3.2 5.8-1.4Zm16 1.1c0 .5-.4 1-1 1-.5 0-1-.5-1-1 0-.6.5-1 1-1 .6 0 1 .4 1 1Zm-50.5 5c-.3.5-1.6 1.5-2.8 2.1-2.2 1.2-2.2 1.2-.3-1 1.9-2.1 4.3-3 3.1-1.1Zm1.1 3.6c-1.5 3.8-7.9 12.4-9.4 12.4-1.2 0-1.1-.4.6-2 1.2-1.2 2.2-2.6 2.2-3.3 0-1.3 5.7-8.7 6.7-8.7.3 0 .2.7-.1 1.6Zm-8.6 2.8c0 .3-.4.8-1 1.1-.5.3-1 .1-1-.4 0-.6.5-1.1 1-1.1.6 0 1 .2 1 .4Zm-5.4 6.8c-1.5 1.8-3.1 3.9-3.7 4.5-.5.7-1.5 1.3-2.2 1.3-.7-.1-.3-.8.9-1.8 1.1-1 2.9-3 3.8-4.5 1-1.5 2.3-2.7 2.8-2.7s-.2 1.5-1.6 3.2ZM463 89.9c0 .5-1.7 1.8-3.8 2.9-26.6 13.9-42.1 35.8-42.3 60.2-.1 7.2.3 9.5 3.3 19 2.8 9 7.7 16.6 14.8 23.3 5.3 5 7.2 7.7 5.4 7.7-2.8 0-16.6-12.7-22.2-20.5-8.1-11.3-10.2-32.4-4.8-47.9 6.3-18 19.7-31.7 41-41.7 9.5-4.4 8.6-4.1 8.6-3Zm-354 14.5c0 .3-.4.8-1 1.1-.5.3-1 .1-1-.4 0-.6.5-1.1 1-1.1.6 0 1 .2 1 .4Zm336 100.1c1.4 1.6 1 1.8-1.4.9-.9-.3-1.6-1-1.6-1.5 0-1.4 1.6-1.1 3 .6Z"/>
    <path fill="#FFF" d="M7.7 42.7c-.4.3-.7 2.4-.7 4.5 0 3.5-.2 3.8-2.9 3.8-2.8 0-4.9 1.5-3.8 2.7.3.3 2.1.7 3.9.8 1.8.2 3.5.4 3.8.4.2.1-.1.6-.8 1.3-.7.7-1.2 2.8-1.2 4.7l.1 3.6 2-2.8 2.1-2.7 2.9 2.1c1.9 1.3 3.4 1.7 4.4 1.2 1.3-.8 1-1.4-1.5-3.8-3.7-3.6-3.8-4.5-.1-4.5 3.9 0 6-2.5 3.9-4.6-1.2-1.3-2-1.4-3.6-.5-3.2 1.7-3.8 1.4-5.1-2.9-1.1-3.9-2-4.7-3.4-3.3Z"/>
    <path fill="#FFF" d="M390.6 51.9c-.4.7-.5 2.3-.2 3.5.5 2.1.2 2.4-3.5 2.9-2.2.3-4.3.8-4.6 1-1.2 1.3 1.1 2.7 4.3 2.7 3.8 0 4.4 1.4 1.4 3.2-2.6 1.6-2.5 3 .1 5.4 2.1 1.9 2.1 1.9 4.3-.9 2.2-2.7 5-3.5 6.1-1.7.3.5 1.3 1 2.2 1 1.4 0 1.3-.4-.5-2.3-3-3.2-2.8-4.5 1.1-5.5 3.5-.9 4.2-2.9 1.5-4.6-1.4-.8-2.3-.7-4 .3-2 1.2-2.3 1.2-3.3-.4-2.5-4.3-4.2-5.8-4.9-4.6Z"/>
    <path fill="#FFF" d="M289.1 63.4c-.6.8-.9 2.1-.5 3 .5 1.2-.1 1.8-2.5 2.2-4.3.9-4.7 2-1.4 4.1 1.5.9 3 1.8 3.2 2 .2.1-.4 1.4-1.3 2.7-1.5 2.4-1.5 2.6.4 3.6 1.7.9 2.5.6 5-2.1l2.9-3.2 1.2 2.6c.7 1.5 1.8 2.7 2.5 2.7 2.3 0 2.3-3-.1-5.9l-2.5-2.9 3.7-3.2 3.8-3.1-4.7.5c-4 .5-4.8.3-5.3-1.3-.8-2.5-3.1-3.3-4.4-1.7Z"/>
    <path fill="#000" d="M377.3 68.2c-4.2 6.2-13.2 24.1-13.3 26 0 3.6 2.7.6 4.4-4.8 1.8-5.6 6.4-14.1 11-20.3 2.8-3.7 3.2-5.1 1.6-5.1-.5 0-2.2 1.9-3.7 4.2Z"/>
    <path fill="#000" d="M447.6 67.5c-.3.9-1.2 1.2-2.3.9-1.5-.5-1.5-.4-.4.4 1.6 1.2 5.1-.1 5.1-1.8 0-1.5-1.7-1.2-2.4.5Z"/>
    <path fill="#000" d="M380 74.6c-4.3 6.1-10.1 18.7-9.1 19.7 1.1 1.1 4.1-.3 4.1-2 0-2.1 3.9-11 7.2-16.4 3-5 3.3-5.9 1.8-5.9-.5 0-2.3 2.1-4 4.6Z"/>
    <path fill="#000" d="M300.5 73.1c-.4.6-.5 1.3-.2 1.6.7.7 2.7-.6 2.7-1.8 0-1.2-1.7-1.2-2.5.2Z"/>
    <path fill="#000" d="M396.5 73c-2.5 1-5.4 4.9-8.7 12-3.3 6.8-4.2 10-3 10 .5 0 2.1-2.6 3.5-5.8 3.7-7.7 5.1-10.1 8.3-13.4 2.9-3.2 2.9-4-.1-2.8Z"/>
    <path fill="#000" d="M386.7 75c-1.9 3-7.2 14.5-8.2 17.9-.5 1.7-.4 2.2.6 1.9.8-.3 1.9-2.2 2.5-4.4.6-2.1 2.6-6.5 4.3-9.8 3.2-5.9 3.8-10.2.8-5.6Z"/>
    <path fill="#FFF" d="M497.5 76.1c-.6 1.8-1.2 2-4.6 1.4-4.6-.8-5.5 1.3-1.4 3.5l2.5 1.4-3.2 3.3c-3.6 3.7-3.4 4.8.6 3.3 4.5-1.7 6.3-1.2 7.6 2 1.2 2.9 3.3 3.9 4.4 2.1.3-.5-.1-2.5-.9-4.5-2-4.8-2-4.8 2.7-4.4 5.9.4 6.2-1.8.4-3.3-4.3-1.1-4.5-1.3-3.9-4 .5-2.4.2-2.9-1.5-2.9-1.2 0-2.3.9-2.7 2.1Z"/>
    <path fill="#000" d="M280.3 78.2c-1.1 1.3-2.8 3.6-3.7 5.3-.9 1.6-2.1 3.7-2.6 4.5-2 3.1-5.8 12.6-6.4 16.3-.7 3.6-.6 3.8 1.3 2.7 1.2-.6 2.1-1.9 2.1-3 0-3.6 4.6-14.5 8.8-20.8 2.3-3.5 4.2-6.5 4.2-6.8 0-1.1-1.9-.2-3.7 1.8Z"/>
    <path fill="#000" d="M3.7 80.7c-2.9 2.8 3.1 13.4 11.5 20.6 3 2.6 8.1 5.8 11.4 7.3 11 4.9 32.7 9.4 30.9 6.4-.4-.6-1-.8-1.6-.5-1.7 1.1-20.9-5.2-29.7-9.6-2-1.1-4.2-1.9-4.9-1.9-.7 0-1.3-.5-1.3-1.2 0-.6-1.7-2.8-3.7-4.8-6.5-6.4-7.3-7.5-8.9-12.3-1.5-4.6-2.3-5.4-3.7-4Z"/>
    <path fill="#000" d="M283.2 83.3c-2.1 2.5-8.2 18.2-8.2 21 0 3.9 2.4.8 4-5 .9-3.4 2.8-8.5 4.2-11.3 2.3-4.7 2.3-7.6 0-4.7Z"/>
    <path fill="#000" d="M293.2 86.6c-1.9 3-6.1 14.3-6.2 16.6 0 .5.9.8 1.9.8 1.5 0 2.1-1 2.6-4.1.4-2.2 1.8-6.8 3.1-10.2 2.7-6.9 2.7-6.7 1.7-6.7-.5 0-1.8 1.6-3.1 3.6Z"/>
    <path fill="#FFF" d="M187.2 86.6c.3 2.4 0 2.7-3.5 2.8-2 .1-4.2.7-4.8 1.3-1 1 .4 1.8 6.3 3.6 1.4.5 1.5 1 .5 3.6-1.6 4.3-.2 4.9 3.3 1.6l3-2.9 2.5 2.4c3.4 3.2 5.4 1.4 2.5-2.2l-2-2.6 3.5-2.7c3.5-2.6 3.9-5.3.6-4-6.1 2.5-7.1 2.5-8.6-.6-1.9-3.6-3.7-3.8-3.3-.3Z"/>
    <path fill="#000" d="M287.2 85.2c-3.5 4.4-7.2 19.6-4.7 19.8.5 0 1.4-2.3 2.1-5.2.6-2.9 2.1-7.5 3.2-10.1 1.2-2.7 2.2-5.1 2.2-5.3 0-.9-1.8-.3-2.8.8Z"/>
    <path fill="#000" d="M171.6 97.2c-4.1 5.4-9 14.6-10.1 19.1-.6 2.1-.4 2.7.9 2.7.9 0 1.8-1.2 2.2-2.8.8-3.1 4.2-9.5 9.2-17 4.7-7 3-8.6-2.2-2Z"/>
    <path fill="#000" d="M397.5 96c-.3.5.1 1 .9 1 .9 0 1.6-.5 1.6-1 0-.6-.4-1-.9-1-.6 0-1.3.4-1.6 1Z"/>
    <path fill="#000" d="M414 97c0 .5.5 1 1 1 .6 0 1-.5 1-1 0-.6-.4-1-1-1-.5 0-1 .4-1 1Z"/>
    <path fill="#000" d="M177.8 99.1c-1 .5-1.8 1.4-1.8 1.8 0 .5-1.8 4.1-4 8.1-4.3 7.9-4.8 9.3-2.6 8.8 1.4-.3 12.1-19.8 10.8-19.8-.4 0-1.5.5-2.4 1.1Z"/>
    <path fill="#000" d="M11.4 103.5c-1 2.5 6.8 9.9 14.4 13.5 4.5 2.1 9.1 3.4 14.6 4.1 11 1.2 34.6 1.2 34.6-.1 0-.6-4.5-1-11.2-1.1-6.2-.1-13.5-.3-16.3-.5-12.1-1.1-23.4-5.9-31.1-13.4-3.7-3.5-4.5-3.9-5-2.5Z"/>
    <path fill="#000" d="M446 106.7c-2.3 2.7-4.9 6.1-5.7 7.8-.9 1.6-2.1 3.7-2.8 4.5-2.1 2.4-5.7 20.9-6.8 34.5-.7 8.3 3.7 26.9 6.9 29.6 2 1.7 1.8-.5-.7-7.1-1.9-4.8-2.1-7.5-2.1-21.9.1-17.7.3-19.6 3.3-28.5 2.7-7.9 5.1-12.4 9.3-17.5 3.2-3.8 4.4-6.1 3.2-6.1-.2 0-2.3 2.1-4.6 4.7Z"/>
    <path fill="#000" d="M177.9 109.5c-1.7 3.6-2.9 6.8-2.6 7.2 1.5 1.4 3.5-.9 4.6-5.1.6-2.4 1.5-4.8 2.1-5.1 1.3-.8 1.3-3.5 0-3.5-.5 0-2.4 2.9-4.1 6.5Z"/>
    <path fill="#000" d="M193.3 103.8c-1.8 1.1-6.4 11.7-5.2 12 1.9.7 3.9-.8 3.9-2.9 0-1.1.7-3.6 1.6-5.5 1.7-3.6 1.6-4.8-.3-3.6Z"/>
    <path fill="#000" d="M184.1 109.6c-2.5 6.5-2.6 7.4-.8 7.4.7 0 1.9-2.2 2.6-5 .7-2.7 1.7-5.2 2.2-5.6 1.4-.8 1.1-2.4-.5-2.4-.7 0-2.3 2.5-3.5 5.6Z"/>
    <path fill="#000" d="M502.3 106.2c-1.7 1.3-4.1 4.2-5.2 6.6l-2.2 4.4 2.1 3.4c3.1 4.9 7.1 7.4 12 7.4 5.7 0 11-5 11-10.3 0-6.2-1.6-8.6-7.2-11.2-6.5-3-6.6-3-10.5-.3Zm10.3 4.1c2.1 1.9 2.7 3.2 2.7 6.6 0 5-.8 6-5.9 7.1-8.5 1.9-13.4-8-6.8-13.8 3.2-2.8 6.6-2.8 10 .1Z"/>
    <path fill="#000" d="M504.3 113.6c-.3.9-.1 1.9.6 2.3.7.4 1.1 1.4.9 2.2-.2 1 .6 1.4 2.7 1.4 3.9 0 4.7-3.5 1.3-5.9-2.9-2-4.7-2-5.5 0Z"/>
    <path fill="#FFF" d="M86.8 107.3c-.3 1.9-.9 2.2-4 2.1-4.8-.2-4.9 1.7-.3 4.2 1.9 1 3.5 2 3.5 2.2 0 .2-1.1 1.8-2.5 3.6-2.4 3.2-3.3 6.6-1.7 6.6.4 0 2.2-1.6 4.1-3.5l3.4-3.4 2.9 2.4c1.6 1.4 3.4 2.5 3.9 2.5 1.7 0 .9-3.7-1.2-5.6-1.9-1.7-1.9-1.9-.3-3.1 1-.7 2.6-1.3 3.6-1.3s1.8-.7 1.8-1.5c0-1.1-1.1-1.5-3.9-1.5-3.1 0-4.1-.4-4.6-2-.3-1.1-1.5-2.5-2.5-3-1.5-.8-1.9-.6-2.2 1.3Z"/>
    <path fill="#000" d="M21 118c0 1.4 4.7 4.3 6.1 3.8.7-.2-.4-1.4-2.4-2.6-2.1-1.2-3.7-1.7-3.7-1.2Z"/>
    <path fill="#000" d="M128 121c0 .5.5 1 1 1 .6 0 1-.5 1-1 0-.6-.4-1-1-1-.5 0-1 .4-1 1Z"/>
    <path fill="#000" d="M36 125.9c0 .6-.6 1.1-1.3 1.1-.7 0-2.1.6-3 1.2-1.4 1.1 0 1.3 8 1.3 5.4 0 15.1.4 21.7.9 10.1.8 11.8.7 11.4-.5-.3-.9-1.6-1.3-3.4-1.1-2.8.3-25.1-2.2-30.6-3.4-1.8-.4-2.8-.2-2.8.5Z"/>
    <path fill="#FFF" d="M582.8 130.7c-.3 3-1.6 3.3-7 1.8-3.7-1-3.8 1.6-.3 3.5 3 1.6 3.1 2.4.4 6.2-3 4.2-1.2 5.8 3.6 3.2l3.5-1.9 2.4 3c1.9 2.3 2.7 2.7 3.7 1.8.9-.9.8-1.8-.5-3.8-1-1.5-1.6-2.8-1.4-2.9.2-.1 1.5-1 3.1-1.9 3.7-2.3 3.4-3.7-.7-3.7-3.3 0-3.5-.2-3.8-3.7-.4-4.4-2.5-5.6-3-1.6Z"/>
    <path fill="#000" d="M27.3 133.6c-4.3 1.9-4.3 3.6-.1 2.3 4.8-1.3 20.7-1.1 33.3.6 6.7.9 11.3 1.1 11.9.5.5-.5 0-1.1-1.5-1.4-5.5-1.1-8.6-1.8-12.9-2.6-7.3-1.4-27-1.1-30.7.6Z"/>
    <path fill="#000" d="M18 138c0 .5.4 1 .9 1 .6 0 1.3-.5 1.6-1 .3-.6-.1-1-.9-1-.9 0-1.6.4-1.6 1Z"/>
    <path fill="#000" d="M28 139.6c-7.6 1.3-19 6-19 7.7 0 .5.8.6 1.8.2 12-5.1 15.7-5.8 32.2-6.1 21.2-.5 21.1-.5 17.1-1.4-6.8-1.6-24.4-1.9-32.1-.4Z"/>
    <path fill="#000" d="M31.5 145.5c-4.9 1.2-12.7 3.5-17.2 5.1-7.8 2.7-8.3 3.1-9.8 6.9-3.1 8.1-1.4 8.6 4.7 1.4 5-6 7.5-7.4 17.1-9.9 12.4-3.2 25.7-4.3 35.9-3 5.9.8 9.3.9 10 .2 1.9-1.9-1.4-2.4-16.5-2.7-12.8-.2-16.6.1-24.2 2Z"/>
    <path fill="#FFF" d="M124.3 146.6c-.3.8-.1 2.6.6 4 1.5 3.4 1.5 3.4-1.8 3.4-1.6 0-3.4.6-4 1.4-1 1.1-.6 1.8 1.7 3.2 2.7 1.5 2.9 2.1 2.5 5.8l-.6 4.1 3.7-3.5c3.1-2.9 3.9-3.3 5.4-2.2 3.9 2.8 6.2 3.6 7.4 2.4.8-.8.2-2-2.5-4.7l-3.6-3.6 4-2.5c3.2-2 3.8-2.8 2.9-3.9-1-1.2-1.7-1.1-4.3.6-4.1 2.4-4.4 2.4-5.1-.5-.7-2.6-3.1-5.6-4.7-5.6-.5 0-1.2.7-1.6 1.6Z"/>
    <path fill="#000" d="M37.5 149.6c-19.5 5.5-22.9 7-28.8 13-3.7 3.7-5.4 7.1-5.9 11.4-.2 3 0 3.5 2 3.8 1.9.3 2.2-.1 2.2-3.3 0-8.6 5.8-14.6 17.6-18.5 11-3.5 16.3-4.2 32.8-4.1 11.3 0 15.6-.3 14.9-1-1.2-1.2-31.3-2.2-34.8-1.3Z"/>
    <path fill="#000" d="M595 154c-2.1 1.3-.5 2.4 4 2.5 2.9.1 4.8.9 7 3 3.3 3.2 4.9 2.8 3.2-.9-.7-1.5-2.7-2.9-6.1-4-5.8-1.9-6.1-1.9-8.1-.6Z"/>
    <path fill="#000" d="M65.5 155c-2.6.7-2.2.8 2.3.9 2.9 0 5.2-.3 5.2-.9 0-1.1-3.1-1.1-7.5 0Z"/>
    <path fill="#000" d="M56.8 155.7c.6.2 1.8.2 2.5 0 .6-.3.1-.5-1.3-.5-1.4 0-1.9.2-1.2.5Z"/>
    <path fill="#000" d="M24.5 158.9c-7.9 2-11.7 5.4-13.8 12.7-1.4 4.7-1.4 5.1.4 6.2 1.9 1.2 4.9.7 4.9-.9 0-2.8 13-9.1 22.5-11 2.2-.4 5.8-1.2 8-1.8 5.8-1.5 24.5-1.3 36 .4 5.5.8 18.1 3.5 28 5.9 9.9 2.4 19.8 4.8 22 5.2 2.2.4 4.2.8 4.5.8.3.1 1.4.7 2.5 1.4 1.9 1.1 1.9 1.3.2 2.6-1.6 1.2-.7 1.3 6.6.9 8.7-.6 15.7.2 15.7 1.6 0 .5-5.4 1-12 1.3-11.4.4-12.1.5-16.2 3.5-6.3 4.6-5.8 5.9.8 2.1l5.9-3.3 20.5-.1c15.2-.1 21.1.2 23 1.2 2.2 1.1 0 1.3-15.5 1.3-22.7-.1-26.4.5-35.6 5-5.7 2.8-7.5 4.1-7.7 6l-.4 2.4 3.4-2.4c5.1-3.7 9.9-5.6 17.9-7 12.8-2.3 58.9-1.4 58.9 1.2 0 .5-10.6.9-24.8.9-13.7 0-27.5.5-30.8 1-8.7 1.5-14.7 3.2-16.4 4.5-.8.6-3.6 1.9-6.2 2.9-5.1 1.9-6.3 3-5.3 4.7.5.7 1.2.5 2.3-.5 2-1.8 15.1-6.2 24.2-8.2 9.7-2.2 37.7-2.8 61.4-1.5 20.4 1.2 45.8 4 53.3 6 12 3.1 39.3 6.5 40.6 5.2 1.6-1.6.8-1.9-9.9-3.5-5.5-.9-14.8-2.5-20.6-3.6-5.9-1.1-11-1.9-11.5-1.8-.4.1-2.1-.1-3.8-.5-1.6-.3-4.6-.9-6.5-1.1-7.8-1.2-25-4.6-32-6.5-4.1-1-12.4-2.9-18.5-4.1-6-1.1-16.2-3.4-22.5-5-21.8-5.4-24.5-6.1-27-6.4-1.4-.2-4.7-.9-7.5-1.5-2.7-.7-5.7-1.4-6.5-1.6-.8-.2-5.1-1.3-9.5-2.5-26-7-39.9-9.9-50.5-10.5-23.2-1.3-32-.8-44.8 2.7-8.1 2.2-13 4.9-17.9 10-3.7 3.8-4.4 2.2-1.3-2.9 2.1-3.6 9.4-9.3 11.9-9.4.9 0 3.4-.6 5.6-1.4l4-1.3H31c-1.9 0-4.8.3-6.5.7Z"/>
    <path fill="#FFF" d="M241.2 174.3c-.7.8-.6 1.9.3 3.7 2.1 3.6 1.9 3.8-3 4.6-5.1.7-5.9 2.1-1.7 3 1.5.3 3.1.7 3.7.8.5.2.8 1.9.7 3.9-.3 2.9 0 3.7 1.3 3.7.9 0 1.9-.9 2.2-2 .6-2.4 2.4-2.5 6.4-.5 2.6 1.4 3 1.4 3.5.1.3-.9-.5-2.5-2-3.9-3.2-3-3.2-3.4.1-6.9 3.3-3.4 2.3-4.8-1.7-2.4-3.6 2.1-4.5 1.6-5.3-2.4-.7-3.1-2.7-3.9-4.5-1.7Z"/>
    <path fill="#FFF" d="M4.5 182.1c-.4.5.1 1.9 1 2.9 1.9 2.1 1.6 4.4-.6 4.6-4.2.3-4.9.5-4.9 1.4 0 .5 1.6 1.2 3.4 1.6 3.1.5 3.5 1 3.8 4.2.4 5.1 3.3 5.6 4.2.8.8-4 1.6-4.3 5.1-2 2.5 1.6 5.5 1.3 5.5-.6 0-.5-1.6-2-3.5-3.2-4-2.6-4.4-4.2-1.5-6 1.1-.7 2-1.8 2-2.5 0-1.6-.5-1.6-3.9.2-2.7 1.3-3.1 1.3-5.4-.5-2.8-2.2-4.3-2.5-5.2-.9Z"/>
    <path fill="#FFF" d="M497.6 186.5c-.3.9-.6 2.8-.6 4.2 0 2.7-.3 2.7-8.2.7-4.1-1-3.5 1.2.7 2.7 1.9.7 3.5 1.6 3.5 2 0 .4-1.4 1.9-3.1 3.4-3.8 3.2-3.1 4.3 1.7 2.6 2-.7 3.6-1.1 3.8-.9.1.1.7 1.5 1.4 3 .6 1.6 1.9 2.8 2.8 2.8 1.3 0 1.5-.7.9-4l-.7-4h3.6c3.9 0 5.4-1.4 3.6-3.5-.8-.9-2.2-1.2-4.1-.8l-2.9.6.2-4.8c.3-4.8-1.3-7.2-2.6-4Z"/>
    <path fill="#000" d="M442.5 191.9c1.3 2.6 4.4 5.8 3.3 3.5-2-4.4-3.3-6.4-4-6.4-.5 0-.2 1.3.7 2.9Z"/>
    <path fill="#FFF" d="M360.6 192.9c-.4.5.2 2.3 1.1 4 1.6 2.8 1.6 3.3.3 4.1-.8.5-2.5 1-3.7 1-1.2 0-2.5.5-2.8 1-1.2 1.9 1.3 3.7 4.5 3.2 2.8-.4 3.1-.2 2.8 1.9-.5 4.1 1.7 3.5 3.9-.9 0-.2 1.9.6 4.1 1.7 2.9 1.5 4.2 1.7 5.1.8 1.7-1.7 1.4-2.3-1.9-3.7-3.7-1.5-3.7-2-.4-5.9 1.4-1.7 2.4-3.8 2.2-4.7-.2-1.3-.8-1.1-3.3 1-4 3.4-5.2 3.3-7.6-.9-2.1-3.5-3.3-4.3-4.3-2.6Z"/>
    <path fill="#FFF" d="M585.4 201.4c-.4 1-.2 2.7.4 3.7 2 3.1 1.4 4.5-2.7 6.4-4.9 2.2-4.5 4.5.7 4.2 3.5-.2 3.7 0 4 3 .4 4.1 2.9 5.1 4.2 1.7.6-1.4 1-3 1-3.5s1.8-.9 4.1-.9c4.2 0 5.2-2.1 1.3-2.8-3.3-.7-3.7-1.9-1.5-5 3.7-5.2 2.4-6.7-3.1-3.5-2.6 1.6-3 1.6-3.8.3-.5-.8-1.5-2.4-2.4-3.5-1.4-1.9-1.5-1.9-2.2-.1Z"/>
    <path fill="#FFF" d="M595.5 223.2c-.2.7-.5 2.6-.7 4.3-.3 2.7-.7 3.1-4.2 3.5-5.2.7-5.8 2.7-1.1 3.6 4.3.8 5 2 3.5 5.8-.8 2.1-.7 3.2.1 4.2 1.7 2.1 2.5 1.7 4.8-2.2l2.1-3.5 3 1.8c2.4 1.4 3.2 1.5 4.2.5s.6-1.8-2-3.8c-1.7-1.4-3.2-2.9-3.2-3.3 0-.3 1.4-1.2 3.1-1.8 2.6-1 2.9-1.4 1.9-3.2-.9-1.7-1.5-1.9-3.6-1.1-3.7 1.5-4.2 1.3-4.9-2-.7-3.3-2.3-4.8-3-2.8Z"/>
    <path fill="#FFF" d="M455.5 244.1c-1.6 2.9-1.7 3-3.8 1.5-3.5-2.6-4.8-2.9-5.9-1.8-.8.8-.4 1.7 1.5 3.2 1.5 1.2 2.7 2.5 2.7 3 0 .4-1.6 1.8-3.6 2.9-4.3 2.6-3.8 3.5 1.9 3.6 4.1 0 4.2.1 4.5 3.7.4 5.3 2.2 4.8 2.2-.6 0-5.6 1.8-7.3 5.9-5.6 1.7.6 3.4.9 4 .6 1.8-1.2 0-3.5-3.2-4.2-4.7-.9-4.8-1.2-3.2-4.5 1.5-2.9 1.3-4.9-.5-4.9-.5 0-1.7 1.4-2.5 3.1Z"/>
    <path fill="#FFF" d="M585.2 245.2c-.9 3.4-1.3 3.5-6.9 2.3-4.1-.9-4.2.3-.4 3.9 3.2 3.1 3 4.2-1.3 9.3-1 1.2-1.5 2.6-1.2 3.2.9 1.3 3.4.4 7-2.7l3-2.4 2.7 3.3c4.3 5.3 4.8 3.1 1.4-5.4-.6-1.5-.2-1.7 2.5-1.5 4.6.4 4.9-1.8.5-2.6-3.4-.7-3.6-.9-3-3.6.6-2.9-.8-7-2.5-7-.5 0-1.3 1.5-1.8 3.2Z"/>
    <path fill="#000" d="M466 247c-2 1.3-.5 1.7 9.5 2.5 7.6.6 20.8 3.5 25 5.5 5.4 2.5 27.8 11 34 12.8 11.2 3.4 21.5 3.8 30.9 1.3 4.4-1.1 8-2.2 8.2-2.4.2-.1-.1-.9-.6-1.6-.7-1.2-1.8-1.1-6.8.7-11 4.1-27.8 2.3-41.5-4.4-1.6-.8-3.4-1.4-4.1-1.4-.6 0-3-.9-5.1-2.1-13.7-7.1-44.7-14-49.5-10.9Z"/>
    <path fill="#FFF" d="M429.8 250.1c-1.3.7-1.5 1.8-1.1 4.5l.6 3.6-4.7-.3c-5.8-.5-6.3 1.6-.6 2.6 2.2.4 4 .9 4 1.2 0 .2-1.1 1.9-2.5 3.7-2.6 3.4-3.2 5.6-1.6 5.6.5 0 1.1-.6 1.4-1.4.3-.8 1.5-2 2.7-2.6 1.7-.9 2.1-.7 2.9 1.3 1.3 3.3 3.9 5.3 5.2 4 .8-.8.6-1.9-.7-3.7-1.9-3-1.2-4.3 2.6-4.8 1.9-.2 2.5-.9 2.5-2.8 0-2.2-.4-2.5-3.5-2.5-3.5 0-3.5 0-3.3-4.2.2-4.4-1.1-5.8-3.9-4.2Z"/>
    <path fill="#FFF" d="M250.7 256.7c-1.2 5.1-2.1 5.8-5.7 3.9-4-1.9-5-2-5-.3 0 .7 1.4 2.1 3.1 3.1l3.1 1.8-2.6 2.7c-1.7 1.8-2.4 3.4-2 4.4.8 2.1 1 2.1 4.4-.3l2.9-2 3.4 3c5.1 4.4 7.9 3.4 4.2-1.4-.8-1.1-1.5-2.8-1.5-3.8 0-1.5.5-1.7 2.5-1.2 1.4.3 3.2.3 4.1 0 1.5-.6 1.5-.8-.1-2.6-1-1.1-3.1-2-4.7-2-2.6 0-2.8-.3-2.8-4 0-4.7-2.4-5.6-3.3-1.3Z"/>
    <path fill="#000" d="M268 258.7c-3.9.5-6.5 2.2-5.3 3.4.4.4 3.1.3 5.8-.2 6.2-1.2 13.3.2 23 4.3 8.5 3.5 20.4 9.6 22.5 11.4 2.6 2.1 15 6.4 25 8.5 10.7 2.3 27.4 2.7 35.5.9 4.5-1 21.6-8.9 23.9-11 .4-.5.5-1.3.2-1.9-.4-.6-2-.1-4.3 1.5-2 1.3-5.4 2.9-7.7 3.5-2.3.6-5.7 1.7-7.6 2.4-5.1 1.9-7.8 2.4-17.4 3.1-4.9.3-8.6.2-8.6-.4 0-.5-2.4-.7-5.2-.4-10.5.8-19.7-2.2-36.8-12.3-13.2-7.7-16.6-9.4-22.5-10.5-3.3-.7-7.8-1.6-10-2.1-4.2-.8-4.7-.9-10.5-.2Z"/>
    <path fill="#FFF" d="M408.7 262.7c-.4.3-.7 2.4-.7 4.5 0 3.8 0 3.8-4.1 3.8-3.3 0-4 .3-3.7 1.7.2 1.1 1.5 2 3.3 2.3 2.8.5 3 .8 2.7 4.8-.3 3.6-.1 4.2 1.6 4.2 1.3 0 2.2-.9 2.6-2.5.7-2.8 3.6-3.4 5.6-1 1.6 1.9 4 1.9 4 .1 0-.8-1.1-2.8-2.5-4.5l-2.6-3 3.1-1.6c3.9-2 3.1-3.7-1.3-2.4-4.6 1.3-4.6 1.3-5.3-3.1-.6-3.9-1.3-4.7-2.7-3.3Z"/>
    <path fill="#FFF" d="M229.7 266.7c-.4.3-.7 2.4-.7 4.6v4l-4.5-.6c-2.5-.4-4.5-.3-4.5.1 0 1.4 2.3 3.2 4.1 3.2 2.9 0 3.3 2 .9 5.2-1.7 2.4-1.9 3.2-.9 4.4 1 1.3 1.6 1.1 4.1-1.3l2.9-2.8 4.1 2.4c4.9 2.8 6.6 1.6 3.4-2.4l-2.4-3 3.1-2.6c3.8-3.2 3-5.2-1.8-4.3-3.1.6-3.5.4-4-2.2-1.3-5.6-2-6.5-3.8-4.7Z"/>
    <path fill="#FFF" d="M210 280.7c0 4.4-1.2 5.6-4.4 4.3-3.8-1.4-5.6-1.3-5.6.5 0 .8 1.6 2.1 3.6 3l3.6 1.5-2.2 3.6c-3 4.8-1.2 6.9 2.4 2.8 2.7-3.1 2.3-3.2 9.4 1.4 1.9 1.3 2.2 1.3 2.2-.1 0-.8-.9-2.6-2-4-2.9-3.6-2.5-4.7 1.6-4.7 4.8 0 4-2.4-.9-2.8-3.1-.3-3.7-.7-3.7-2.7 0-3.4-1-5.5-2.6-5.5-.9 0-1.4 1.1-1.4 2.7Z"/>
    <path fill="#000" d="M70.3 288.4C62.4 290.6 51 296.9 51 299c0 1.7 1.5 1.2 9.3-3 9.1-4.9 22.4-7.7 28.5-6 2 .5 5.1 1 6.9 1 5.5 0 22.2 6.1 35.8 13 13.1 6.6 18.1 8.5 26.5 9.6 2.5.3 4.7.6 5 .7.3 0 4.3-.5 9-1.2 11.2-1.7 30-10.9 30-14.6 0-2.7-3-2.9-5.8-.3-6.3 5.7-14.3 10-20.1 10.7-3.1.4-6.1 1-6.6 1.3-1.2.7-19.8-2.4-23.5-3.9-1.4-.6-4.6-1.8-7.3-2.7-2.6-.9-7.9-3.4-11.8-5.6-3.9-2.2-7.7-4-8.5-4-.8 0-5.6-1.7-10.7-3.7-8.2-3.3-10.3-3.7-19.2-4-8-.2-11.7.2-18.2 2.1Z"/>
    <path fill="#FFF" d="M39.7 296.6c-.3.4.1 2 .9 3.6 1.9 3.6 1 5.2-2.6 4.4-1.8-.3-3.3 0-4 .9-1 1.2-.6 1.8 2.4 3 3.5 1.5 3.6 1.7 3 5.5-.6 3.6-.4 4 1.4 4 1.2 0 2.3-.8 2.7-1.9.3-1.1 1.2-2.5 2.1-3.2 1.2-1 1.9-.8 3.7 1 4 3.7 6.5 1.8 3.2-2.5-2.1-2.8-1.8-4.3 1-5.4 3.9-1.5 3-2.9-2.2-3.2-4.1-.3-4.8-.7-6.2-3.5-1.5-3-3.9-4.2-5.4-2.7Z"/>
    <path fill="#FFF" d="M616.7 309.6c-.4.4-.7 2.2-.7 4.1 0 3.6-1 4-5.5 2.3-2.1-.8-2.7-.7-3.2.7-.4.9-.2 1.8.5 2.1.6.2 2.3 1.2 3.7 2.4l2.6 2-2.6 3.3c-3.1 4.1-1.7 5.5 2.6 2.4 2.3-1.6 3.3-1.9 4.2-1 1.5 1.5 5.7 1.4 5.7-.2 0-.7-.7-2.3-1.6-3.5-1.7-2.4-1.2-2.8 3.6-3.4 1.7-.2 2.5-.9 2.5-2.3 0-1.6-.8-2.1-4.2-2.3-3.9-.3-4.2-.5-4.5-3.4-.3-3.1-1.7-4.5-3.1-3.2Z"/>
    <path fill="#FFF" d="M34.7 320.9c-.2 1-.1 2.5.4 3.2 1.6 2.5.9 3.9-1.7 3.9-1.4 0-3.4-.4-4.4-1-1.3-.7-2.1-.6-3 .5-1.5 1.8-1.6 1.6 3.3 3.9 3.5 1.6 3.7 2 3.5 5.4-.4 4.9 2.4 5.6 4.2 1.2 1.4-3.3 1.7-3.3 7.8-1.5 3.2 1 2.9-1.8-.3-3.3-3.3-1.5-3.2-2.8.5-4.7 4.3-2.2 3.8-3.6-1.1-2.9-4.5.7-5.9-.3-5.9-4.4 0-2.7-2.6-3-3.3-.3Z"/>
    <path fill="#000" d="M622.5 330.9c-2.5.5-3.2 1.5-5 6.6-3.6 10.5-16 21.4-28.7 25.4-9.9 3.2-22.4 4.9-30.3 4.2-4.6-.5-8.2-.3-10.6.6-4.3 1.4-43.5 2-57.9.8-10.3-.9-13-1.1-23.2-1.3-3.8-.1-6.8-.6-6.8-1.2s.9-1 2-1 2-.6 2-1.4c0-1.1-.8-1.2-3.7-.5-6.4 1.4-5.6-.5 1.2-2.9 5.7-2.1 6.7-2.9 9-6.9 2.8-5.1 2.9-5.3 1.5-5.3-.5 0-1 .6-1 1.4 0 4.7-12.7 11.4-23.4 12.3-8.7.8-8.2-.7 1.1-3.2 8.1-2.1 13.7-4.6 17.8-7.9 4.8-3.9 2.3-4-4.1-.2-3.3 1.9-10.3 4.9-15.7 6.6l-9.7 3.2-12.2-1.2c-6.7-.6-13.4-1.8-14.8-2.5-2.2-1.2-1.1-1.3 8.5-1 18.5.5 36.6-3.1 47.7-9.6 2.9-1.7 5.9-3.4 6.7-3.8.8-.4 1.7-1.4 2-2.2.3-1.2.2-1.2-1.1-.1-1.1.9-1.8 1-2.3.2-.3-.5.6-1.5 2.2-2.2l2.8-1.2-3.8-.4c-2.5-.2-4.5.2-5.5 1.1-1 .9-3.5 1.8-5.7 2.2-2.2.4-5.9 1.3-8.2 2.1-7.3 2.3-13.7 3.1-35.8 4.4-52.1 3-59.8 3.2-79.2 1.9-15.7-1-19.5-1-20.7 0-2.1 1.8-2 .2.1-2.1 2.4-2.7 1.1-3-3.5-.8-2.2 1.1-4.6 2-5.2 2-2 0-1-1.8 1.8-2.9 4.6-2 12.3-9.7 11.6-11.6-.6-1.4-1.4-1.6-4.3-1.1-4.5.8-20.6 1.9-48.6 3.2-4.9.2-13.5.9-19 1.5s-16.5 1.3-24.5 1.5c-8 .3-16.5.9-19 1.3-2.5.5-7.4.9-11 1-23.3.5-47.3 3.3-57.6 6.6-2.2.8-8.1 1.7-13 2-9.7.7-18.5 2.1-22.4 3.6-1.4.5-5.2 1.3-8.5 1.8-7.2 1.1-10.9 2.3-28.8 9.8l-6.8 2.8 3 2.5c1.6 1.4 3.9 3.2 5.2 4l2.2 1.6-2.9 1.8c-2.8 1.9-2.8 1.9-7.3-.6-2.6-1.4-6.2-4.6-8.1-7.2-2-2.6-4.3-4.6-5.4-4.6-4.3 0 2 7.8 9.4 11.7l5.5 2.8-8 1.1c-11.2 1.6-15.1 3-19.4 7-2.1 1.9-4.5 3.4-5.3 3.4-.8 0-2.9 1.5-4.7 3.4l-3.4 3.5 2.3 3.5c1.3 2.2 2.9 3.6 4.2 3.6 1.7 0 1.9-.4 1.3-3.9-.6-3.7-.4-4 3.2-6.2 2.1-1.2 5.1-3.4 6.7-4.7 1.7-1.3 4.1-2.9 5.5-3.4 4.1-1.7 14.2-3.7 18.4-3.8 2 0 5.8-1.1 8.5-2.4 7.2-3.7 13.2-4.5 32.4-4.8l17.6-.3 2.1-4.3c3.3-6.7 3-7.4-5.3-10.5-4-1.5-8.6-2.7-10.1-2.7-2.1 0-2.6-.3-1.8-1.1.6-.6 6.2-1.5 12.4-2.1 6.3-.5 12.2-1.4 13.1-1.9 1-.5 3.7-.9 6.2-.9 2.4 0 6-.7 7.9-1.5 8.9-3.7 30.6 4 42.7 15.2 8.5 7.9 12.4 13.5 15.1 21.9 2.3 7 4.6 8.8 3.4 2.6-1.4-7.5-5.9-14.7-16.2-25.5-3.9-4.1-8.3-7.2-14.9-10.7-5.2-2.8-10.3-5-11.4-5-1 0-2.2-.5-2.5-1-1-1.6 4-1.2 8.7.7 2.4.9 7.6 3.6 11.6 6 8.7 5.1 12.5 5.7 7.3 1.3-1.9-1.6-5.8-4.1-8.7-5.6-3-1.5-5.1-3.1-4.8-3.5.6-1 8.5 2.3 12.4 5.1 2 1.4 3.1 1.7 3.6.9.4-.6.1-1.5-.7-2-3.4-1.9-5.3-3.8-4.7-4.4.4-.4 2.3.2 4.3 1.4 4.3 2.5 12.6 2.9 14.4.7 1-1.1.8-1.5-.6-1.9-1.1-.3-.6-.5 1.2-.6 2.2-.1 4.4 1 7.9 3.9 2.6 2.2 5.2 4 5.6 4 .9 0 13.6 15.1 16.3 19.3 1 1.5 1.5 3.2 1.2 3.8-.4.5-.1.8.5.7.6-.2 1.9 1.7 2.9 4.2 3.4 8.9 5.4 13 6.3 13 1.9 0 0-6.5-4.9-16.3-1.9-3.7-3-6.7-2.4-6.7 1.5 0 5.1 5 5.1 7.1 0 1.1.4 1.9.9 1.9s1.9 2.9 3.1 6.5c1.2 3.6 2.6 6.5 3.1 6.5 1.4 0 1.1-1.3-2.1-10.1-3.6-10-7.9-17.8-13.2-24.2-2.2-2.7-3.8-5.1-3.4-5.4.5-.6 8.1 7.4 12.4 13.1 2.4 3.1 12.2 22.9 12.2 24.5 0 .9 2.4 2.1 4 2.1.8 0-1.1-6.5-3.2-11-3-6.3-11.5-18.9-15.7-23.2-2.4-2.6-4.1-5.1-3.7-5.5.9-.9 11.3 10.2 17.1 18.2 2.3 3.3 5.5 8.7 6.9 12 4.1 9 4.1 9 7.6 9.2 3.2.1 3.2.1 2.6-3.5-.7-4.5-7.3-17.9-12.6-25.4-4.4-6.3-12.3-14.8-13.7-14.8-1.3 0-5.8-4.9-5.1-5.5 1.3-1.3 5.7 1.8 10.8 7.5 3 3.4 5.8 6.8 6.3 7.5.6 1.1 1.3.8 3.2-1.1 1.3-1.3 2.9-2.4 3.5-2.4.5 0 1-.4 1-1 0-.5-.4-.9-.8-.7-.5.1-2.1-1.3-3.6-3.1-2.2-2.5-2.4-3.2-1.2-3.2.9 0 1.9.7 2.2 1.5.9 2.4 3.7 1.9 2.9-.5-.6-1.8-.2-2 4.2-2 2.6 0 5.5.5 6.3 1 .8.5 1.1 1 .5 1-.5 0 .6.8 2.5 1.8 4.8 2.3 6.2 5.5 5.5 11.9-.4 3.3-.3 5.3.4 5.3 1.1 0 5.9 9.6 9.1 18.5 2.6 6.9 3.6 8.3 5 6.9.6-.6.3-2.8-1.1-6.4-1.1-3-2.5-6.9-3.2-8.5-.6-1.7-2.6-5.4-4.4-8.2-4.7-7.5-2.7-6.6 2.4.9 4.8 7.2 9.3 16.4 9.3 18.9 0 2.4 2.8 4.5 4.2 3.1 1.4-1.4-4.1-13.3-11.3-24.4-2.7-4.2-4.9-8-4.9-8.5 0-.4.7.4 1.7 1.7.9 1.4 2.7 3.7 4 5.1 1.4 1.5 3.6 4.9 5 7.5 1.4 2.7 3.6 6.8 4.8 9.1 1.3 2.3 2.7 5.5 3.3 7.2 1.1 3.2 3.2 4.2 3.2 1.5 0-3-4.4-12-10.7-21.6-6.7-10.5-7.7-12.5-4-8.7 5.6 5.7 13.6 19.2 17.8 29.6.7 2 4.9 3.4 4.9 1.7 0-1.3-10.4-21.5-11.4-22.2-1.6-1-6.8-9.2-5.8-9.2 2.5 0 14.1 16.3 18.4 25.7 2.1 4.7 3.3 6.3 4.8 6.3 1.1 0 2-.2 2-.4 0-.4-8.2-15.5-11-20.4-1.1-1.8-3.8-5.5-6-8.3-5.5-6.9-4-7.8 1.7-1.1 7.9 9.1 12.7 16.7 16.4 25.7 1.6 3.9 3.9 5.9 3.9 3.3 0-2.1-5.8-13.7-10.3-20.8-5-7.7-5.8-8.8-11.7-15.4-3.9-4.4-4.1-4.7-1.3-2.8 1.7 1.2 4.7 4.1 6.5 6.5 1.8 2.3 3.6 4.3 4 4.5 1.4.6 13.5 21.6 14.8 25.4.6 2.1 1.8 3.8 2.5 3.8 2 0-3.5-13.5-9.6-23.5-2.9-4.7-7.2-10.5-9.7-13-2.4-2.5-4.2-4.8-3.9-5.1.7-.7 8.7 6.5 8.7 7.8 0 .5 1.7 3 3.9 5.6 2.1 2.6 4.6 6 5.4 7.7 4.7 9 8.7 17.3 8.7 18.2 0 1.7 2.7 3.6 3.5 2.3.8-1.3-6.2-17.7-9.2-21.3-1.3-1.6-2.6-4-2.9-5.3-.4-1.4-2.6-4.5-5.1-7-2.4-2.5-4.1-4.9-3.8-5.3.2-.5-.5-1.2-1.8-1.6l-2.2-.8 2.5-.4c2.5-.5 2.8-.2 7.6 6.3 2.8 3.7 4.2 2.4 2.1-2-2-4.3-1-5.5 1.8-2 1.9 2.4 2.2 2.5 3.7 1 1.2-1.1 3.4-1.6 7.5-1.6 5.8.1 6.8.5 16.2 6.7 4.8 3.1 16.7 18.5 21.2 27.5 2.3 4.5 4.6 7.8 5.4 7.8 1.9 0 1.9-.4 0-4-.9-1.7-1.3-3-1-3 .3 0-1.1-2.4-3.2-5.3-2.1-2.8-5-7-6.4-9.2-1.4-2.2-5.9-7.5-9.9-11.8-7.1-7.6-8-9.8-2.4-5.5 7.5 5.6 15.7 15.7 19.5 24 .7 1.6 1.5 2.8 1.9 2.8.3 0 1.9 2.7 3.5 6 2.7 5.6 5.5 8.5 5.5 5.6 0-.8-2-5.2-4.5-10-2.8-5.4-4-8.8-3.3-9.2 1.3-.8 1.7-.1 7.1 10.8 3.7 7.7 6.7 11.1 8.4 9.4.7-.7-9.1-18.9-13.4-24.8-1.8-2.5-6.1-7.4-9.4-10.7-3.4-3.4-5.7-6.1-5-6.1 1.7 0 13.8 11.8 18.8 18.3 4.2 5.5 12.3 20.4 12.3 22.5 0 1.4 2.8 2.3 3.5 1.2 1.6-2.6-12.6-25.1-21.9-34.5-3.7-3.7-6.4-7-6.2-7.3.7-.7 11.1 8.6 15.4 13.8 6 7 12.1 16.9 14.4 23.2 2.1 5.8 3.8 7.5 3.8 3.8 0-2.5-4.4-11.7-9.4-19.5-3.7-5.8-12-16.3-14-17.7-.6-.4-.7-1-.3-1.4.4-.4 2.7 1.1 5 3.4 2.4 2.3 4.6 4.2 5 4.2 1.4 0 .7-2.9-.9-3.8-1.4-.8-1.2-1 1-1.4 2-.4 3.1.1 4.6 1.9 1.9 2.5 2 2.5 6.1.9 4.8-2 10.6-.9 12.7 2.4.7 1.1 1.8 2 2.6 2 3.9 0 20.2 18.9 24.3 28.1 1.3 2.8 2.9 4.8 4.2 5.2 2.5.6 2.5.4.6-3.3-3.2-6.1-11-16.7-16.8-22.7-7.1-7.3-7.1-9.4-.1-3.1 9.4 8.3 20 21.7 21.8 27.5.5 1.6 1.5 2.3 3.2 2.3 2.4 0 2.4 0 .7-2.8-6.1-9.6-16-22.2-19.8-25.2-4.7-3.7-5.5-5-3-5 1.4 0 7.1 5.6 17.4 17 3.3 3.6 10.6 14.1 11.3 16.2.2.6.9.8 1.6.4.8-.5.4-1.9-1.5-4.9-4.8-7.7-11.2-16-16.3-21.3-2.8-2.8-5-5.5-5-5.8 0-5.3 22.2 19.6 26 29.1.8 2 4 3.3 4 1.7 0-1.3-4.7-8.2-12.3-18.2-4.3-5.6-7.5-10.2-7.2-10.2 1.8 0 4.7 2.5 8 7 2 2.7 4.1 5 4.6 5 1.1 0 1.2-2.7.2-3.2-.5-.2-2.1-2-3.6-4.1-3.4-4.5-1.2-5.3 2.8-1 1.9 2.2 2.5 2.4 2.5 1.1 0-.9-.5-2-1-2.3-2.3-1.4.4-2.3 7.2-2.3 8.6 0 13.1 1.6 15.1 5.5.8 1.5 2.5 3.7 3.7 4.8 1.2 1.1 4 4.6 6.2 7.7 2.1 3.2 4.3 5.8 4.9 5.8 1.7 0-2.2-6.2-8.7-14-3.5-4.1-6.4-7.9-6.4-8.3 0-3.7 18.2 17.6 20.5 23.8.5 1.6 1.4 3.6 1.8 4.2 1.1 1.7 3.7 1.6 3.7-.1 0-2.1-9.3-15.6-14.9-21.5-7.1-7.4-5.4-7.9 2-.5 7.1 6.9 10.8 12.1 13.5 18.6 1.8 4.4 3.4 6.2 3.4 3.8 0-2.9-7.2-15.3-12.1-20.9-6.3-7.1-3.3-6.2 3.5 1 5.7 6.3 9.2 11.7 11.5 18.1.9 2.4 4.1 4.1 4.1 2.2 0-2.8-8.5-16-13.6-21.1-6.5-6.5-6.9-9.5-.8-4.8 4.2 3.2 9 9.6 14 18.7 4.4 7.9 6.7 9.2 2.8 1.6-3.3-6.5-6.9-12.1-11.2-17.6-1.9-2.3-3-4.2-2.4-4.2 1.2 0 16.2 17.5 16.2 18.9 0 .4.7 1.4 1.5 2.1.8.7 1.5 2 1.5 3 0 1.9 2.7 4.6 3.6 3.7 1.5-1.5-12.7-22.4-17.1-25.3-3.6-2.3-3.1-3.3 1.7-3.2 3.6 0 4.8.7 8.9 4.9 2.7 2.6 5.1 4.4 5.4 3.9.2-.4-.2-1.3-1-2s-1.5-1.8-1.5-2.6c0-.7-.8-1.8-1.7-2.3-1.6-.9-1.6-1.2-.3-2.1.8-.5 3.1-1 5-1 1.9-.1 5.8-.7 8.5-1.4 3.2-.9 5.8-1 7.3-.5 2.5 1 19.6-1.3 27.3-3.5 10-3 18.1-8.5 27.7-18.7 4.6-5 6.1-7.3 6.7-10.7 1-5.9 2.5-5.3 2.5 1-.1 6.1-.8 7.7-7 14.5-11.3 12.5-26.8 19.4-46.5 20.6-2.8.2-4.1.8-4.3 2-.4 2 0 2.1 10.8.3 9.7-1.7 19.3-5 26.9-9.5 2.8-1.7 5.4-3.1 5.7-3.1.3 0 2.8-1.9 5.5-4.1 5.2-4.4 10.9-13.4 10.9-17.1 0-1.9.2-2 1-.8 1.3 2 1.3 7.2-.1 10.7-1.7 4.5-9.9 12.2-16.9 15.8-9.5 4.8-26.5 10.3-34.4 11.2-4.3.5-7.1 1.3-7.4 2.1-.3 1.1.8 1.2 5.4.7 11-1.1 12.9-1.5 25.3-5.5 6.1-2 23.1-12.2 23.1-13.8 0-.5 2.6-3.5 5.9-6.8 6.3-6.4 7.9-9.8 5.3-11.3-1.2-.7-1.6-2.2-1.4-6 .2-4.2-.2-5.2-2-6.5-1.2-.9-2.5-1.5-2.8-1.5-.3.1-1.8.4-3.5.8Zm6.3 4.3c-.2 1.3-1.1 2.4-2.1 2.6-1.5.3-1.8-1.1-.8-4.6.1-.1.8-.2 1.7-.2 1 0 1.4.7 1.2 2.2Zm-317.3-.2c-.3.5-1.3 1-2.1 1s-1.2-.5-.9-1c.3-.6 1.3-1 2.1-1s1.2.4.9 1Zm-5.1.9c1 1.5-14 4.8-26.7 5.7-10 .8-35.7-.4-35.7-1.7 0-.5 3.7-.9 8.3-.9 10.2 0 47.3-2.7 52.9-3.9.4 0 .9.3 1.2.8Zm11 .3c-1.1 2.6-6.7 6.1-13.7 8.5-6.1 2.2-8.4 2.5-15.3 2-11.7-.7-14.4-2.6-3.9-2.7 9.3 0 21-2.8 27.5-6.4 5.2-2.8 6.1-3.1 5.4-1.4Zm149.6 5.7c0 .8-5.3 3.2-6.9 3.1-.5-.1 5.9-3.8 6.7-4 .1 0 .2.4.2.9Zm-227.8 5.5c2.1 1.7 3.8 3.8 3.8 4.6 0 1-.8.5-2.4-1.3-1.3-1.5-3-2.7-3.7-2.7-2.2 0-5.9-2.9-5.9-4.6 0-1.9 2.8-.5 8.2 4Zm-10.7-3.2c1.4.6 2.5 1.7 2.5 2.5 0 1.1-.6 1.1-3-.4-1.6-.9-3-2.1-3-2.5 0-1.1.4-1 3.5.4Zm-30.7 1c.7.7 1.2 1.6 1.2 2.2 0 .6-.5.5-1.2-.2s-2-1.2-3-1.2-1.8-.5-1.8-1c0-1.4 3.3-1.3 4.8.2Zm26 0c1.9 1.9 1.4 3-.8 1.8-1.1-.6-2-1.5-2-2 0-1.4 1.4-1.2 2.8.2Zm-4.3 1.8c1.8 1.9 1.7 2-.4 2-2.7 0-6.1-1.7-6.1-3 0-1.8 4.7-1 6.5 1Zm35 1.4c1.9 1.9 3.7 4.7 4.1 6.3.6 2.3-.1 1.8-3.9-2.9-2.6-3.2-4.7-6-4.7-6.3 0-1.1 1.2-.3 4.5 2.9Zm204.1-2.5c-1 1.6-12.7 4.9-21.4 6.1-12.4 1.7-52.2 1.6-52.2-.1 0-.5.6-.9 1.3-1 .6 0 8-.2 16.2-.4 20.5-.6 34.1-1.4 39.5-2.6 2.5-.5 6.2-1 8.3-1.3 2.1-.2 4.1-.6 4.4-1 1-1 4.5-.7 3.9.3ZM292 356.4c0 .6-1.4-.3-3-2.1-3.9-4.1-3.9-5.5 0-1.8 1.7 1.6 3 3.4 3 3.9Zm91-5.4c0 .5-1.2 1-2.7.9-2.5 0-2.6-.1-.8-.9 2.7-1.2 3.5-1.2 3.5 0Zm-158 3c0 .5-.2 1-.4 1-.3 0-.8-.5-1.1-1-.3-.6-.1-1 .4-1 .6 0 1.1.4 1.1 1Zm72.8 2.1c1.3 2.1 1.3 2.1-1.2.3-2.7-2-3.5-3.7-1.3-2.8.7.2 1.8 1.4 2.5 2.5Zm78 5.3c8.4 8.8 10.8 12.1 9.3 13-.5.3-3.2-2.4-5.9-6.1-2.8-3.8-6.2-7.8-7.6-9-1.4-1.3-2.6-2.7-2.6-3.3 0-.5-.7-1-1.5-1s-1.5-.5-1.5-1c0-2.2 2.1-.6 9.8 7.4Zm-146.6-4.7c1.9 1.7 2.4 4.3.9 4.3-.8 0-4.1-4.3-4.1-5.5 0-1 1.3-.5 3.2 1.2Zm19.3.4c-.4.5 0 .9.7.9 2.5 0 15.7 19.2 17.9 25.8.6 2 1.5 4.1 2 4.6.5.6.9 1.5.9 2 0 1.2-3.9-3.4-4-4.7 0-.4-.5-1.3-1-2-.6-.7-2.9-4.1-5.2-7.7-2.3-3.6-6.1-8.7-8.5-11.4-2.6-2.9-4.3-5.8-4.3-7.3 0-1.4.4-2.2 1-1.8.6.4.8 1.1.5 1.6Zm-133.1 5c2.6 1.7 4.6 3.2 4.6 3.3 0 .2-.5 1.8-1.1 3.6l-1.2 3.3-11.1-.8c-22.5-1.5-30-1.5-32.4.1-1.9 1.3-2.6 1.3-5.2-.1-1.7-.9-3-1.7-3-1.9 0-.3-.3-1.1-.6-2-.4-1.1 0-1.6 1.3-1.6 1.1 0 3.9-.7 6.4-1.5 6.8-2.3 23.6-5.2 31.1-5.4 5.9-.1 7.2.3 11.2 3Zm120.8 3.9c3.6 5.2 1.9 5.2-2.2 0-1.9-2.4-2.6-4-1.8-4 .7.1 2.5 1.9 4 4Z"/>
    <path fill="#FFF" d="M37 347.5v3.5l-4.5-.7c-5.9-.8-6.3 1.8-.5 3.7 4.5 1.5 4.4 1.3 3.1 5.7-1.3 4.4.3 5.2 3.7 2 2.4-2.3 2.9-2.4 4.6-1.1 2.5 1.8 5.6 1.8 5.6.1 0-.8-1.1-2.4-2.5-3.7-3.2-3-3.1-3.3.5-4.7 3.8-1.4 3.9-3.3.1-3.3-1.8 0-3.2.7-3.6 1.7-.6 1.4-1.1.9-2.6-2.5-2.2-5.1-3.9-5.4-3.9-.7Z"/>
    <path fill="#FFF" d="M205.4 350.9c-2.1 3.5-2.7 3.7-4.8 1.6-1.4-1.4-6.6-2.1-6.6-.9 0 .3.9 1.8 2.1 3.2 1.9 2.5 1.9 2.6.2 3.3-2.5.9-4.6 3.6-3.9 4.8.3.5 2.3.7 4.5.4 3.5-.5 4-.2 5.7 2.6 2.5 4.2 4.4 4 4.4-.4 0-3.2.2-3.4 2.8-2.9 1.9.4 3.2.1 4.1-1 1.2-1.4.9-1.8-1.8-2.7-3-1.1-3.2-1.4-2.6-4.8.4-2.7.2-4.1-.9-5-1.2-1-1.7-.7-3.2 1.8Z"/>
    <path fill="#FFF" d="M267.5 351.3c.6 3.1.3 3.6-3.5 6.1-3.8 2.5-4.1 2.9-2.7 4.3 1.4 1.4 1.8 1.4 3.8-.1 3.3-2.2 3.9-2 3.9 1.3 0 6.5 2.5 8 5.3 3.2 1-1.6 2.7-3.1 4-3.3 2.6-.4 3.8-4.8 1.3-4.8-1.8 0-2.1-2.1-.5-3.7 1.8-1.8.1-3.3-3.1-2.7-2.2.5-3.1.1-4.2-1.5-.7-1.2-2.1-2.1-3.1-2.1-1.5 0-1.7.6-1.2 3.3Z"/>
    <path fill="#FFF" d="M130.3 355.7c.2 1 .8 2.6 1.2 3.6.6 1.3 0 2-2.4 2.8-4.4 1.5-3.8 4.3.9 4.3 3.6.1 3.5 0 3.9 5.8.2 3.1 2.6 2 4-1.7 1.4-4 1.8-4.1 5-1.9 1.7 1.3 2.5 1.4 3.4.4.9-.9.6-1.7-1.5-3.4-3.3-2.6-3.5-3.7-.8-6.1 2.3-2.1 2.6-4.5.7-4.5-.7 0-2.7 1.4-4.4 3l-3.1 3-2.6-3.5c-2.9-3.7-5.2-4.7-4.3-1.8Z"/>
    <path fill="#000" d="M215 355.5c0 .9 1.4 3.1 3.2 4.8 5.2 5.3 11.8 13.7 11.8 15.2 0 .8 1 2.5 2.3 3.8 1.2 1.4 3 4.8 4 7.5 1.8 5 4.2 8.1 5.4 6.9.3-.4-.2-2.3-1.2-4.4-.9-2.1-2.4-5.4-3.3-7.3-3.1-7-22.2-29.8-22.2-26.5Z"/>
    <path fill="#000" d="M150 355.9c0 .4 2.8 1.1 6.3 1.5 11.5 1.1 27.6 10.7 33.2 19.6 3 4.9 6.5 15.6 6.5 20.2 0 9.9-5.9 27.2-13 37.7-4.2 6.4-7.6 8.5-4.1 2.6 1.2-2.1 3.6-8.5 5.4-14.4 2.4-8.3 3.1-12.4 3.1-19.1 0-21.8-8.8-33-33-42.3-2.3-.9-4.4-1.3-4.8-1-1.7 1.7-.2 3.1 4 3.7 5.9.8 15 5.6 20.4 10.8 2.3 2.3 5.6 7 7.3 10.6 2.6 5.6 3.1 8 3.5 16.8.4 9.2.2 11.1-2.3 18.6-2.7 8.2-4.4 11.7-7.4 15-.9.9-2.4 3.8-3.3 6.5-1.2 3.4-3 5.8-5.9 8-6.4 5-6.7 4-.8-2.5 5.5-5.9 7.1-9.4 10.4-22.8 3.4-13.7.6-35.1-5.7-43.4-4.1-5.4-14.2-15-16.9-15.9-4.2-1.4-4.7.6-.6 2.3 4.5 1.8 13.9 13.7 18 22.4 2.9 6.3 3 7.4 3.1 19.2 0 12.9-1.4 22.2-3.8 24.9-.7.9-1.7 2.7-2.1 3.9-1.3 4.3-6.6 11.2-11.3 14.8-2.6 2-4.6 4-4.5 4.5.2.5-.4.9-1.3.9-1.5 0-13.6 3.7-16.4 5-.8.4-1.6 1.5-1.8 2.4-.4 2.1 4.7 2.2 8.6.2 1.5-.7 4.5-1.7 6.6-2 7.1-1.3 27.6-13.1 27.6-15.8 0-.5 2.7-3.5 5.9-6.9 8.1-8.3 13.4-19.1 16.2-33.2 2-10.2 2-11.1.5-17.7-2.1-9.6-5.5-15.6-12.3-22.1-7.8-7.4-21.6-13.9-29.7-13.9-3.1 0-5.6.4-5.6.9Z"/>
    <path fill="#FFF" d="M344.8 356.6c-1.2 1.2-2 1.4-3.6.5-3.4-1.8-4.5-1.4-3.9 1.7.4 2.1.1 3.1-1.4 4-2.4 1.5-2.2 5.9.1 5.3 5.8-1.5 6-1.4 6 1.7 0 1.7.5 3.4 1.1 3.8 1.7 1 3.2-1.2 3.1-4.4-.1-2.9.1-3 3.9-2.5 3.2.5 3.9.3 3.9-1.1 0-.9-1.2-2.2-2.7-2.8-1.6-.7-3-1.3-3.2-1.5-.2-.1.3-1.3 1.2-2.7.9-1.3 1.3-2.6 1-3-1.1-1.1-3.9-.6-5.5 1Z"/>
    <path fill="#000" d="M355.1 360.9c.8 1 4.7 5.8 8.7 10.7 4 4.9 8.8 12.2 10.8 16.1 1.9 4 4.2 7.3 5 7.3 1.9 0 1.8-1-.9-6.1-4.8-8.9-10-16.2-16.4-23-6.1-6.4-10.4-9.4-7.2-5Z"/>
    <path fill="#000" d="M623 365.6c-6.7 6.8-13 10.6-20.9 12.9-6.3 1.8-20.3 4.4-28.1 5.3-3.6.4-6.4 1.1-6.2 1.7.1.5.5 1 1 1 13-.4 23.6-2.1 32.9-5.1 12.8-4.2 17.2-6.7 24.2-13.9 3-3 6.2-5.5 7-5.5 1.3-.1 1.2-.3-.3-1.5-1.1-.8-2.2-1.5-2.6-1.5-.3 0-3.5 3-7 6.6Z"/>
    <path fill="#000" d="M215 362.2c0 .6 1.7 3.4 3.9 6.2 2.1 2.8 4.2 6.2 4.5 7.6.6 2.1-.1 1.7-3.7-2.3-2.4-2.6-4.8-4.7-5.5-4.7-1.2 0 3.8 11.6 7.1 16.3 1 1.6 1.7 3.1 1.3 3.4-.9.9 1.4 4.3 2.9 4.3 1.8 0 1.8-.3 0-6.2-1.3-4.6-.7-7 1.2-4.5 1.1 1.3 2.5 4.5 2.9 6.5.6 3.3 1.5 4.2 3.9 4.2 2.5 0 3.5-2.3 1.6-3.5-.5-.3-1.7-2.7-2.5-5.3-.9-2.6-2.6-5.8-3.9-7.2-1.2-1.4-3.5-4.5-5.1-7-4.8-7.5-8.6-11-8.6-7.8Z"/>
    <path fill="#FFF" d="M419 364.4c-1.2 1.2-2.3 1.3-5.7.3-5.1-1.3-6.1-.6-3.9 2.7 1.7 2.7 1.3 5.1-1 6-2.6 1-1.4 2.6 1.8 2.4 3-.3 3.3 0 3.8 3.2.8 5.3 3.4 4.7 3.8-.9.3-3.7.6-4.2 2.3-3.7 1 .3 2.8.9 3.9 1.2 3.2 1 2.5-2.4-1-4.4-3.2-1.8-3.6-2.7-2-3.7 1.2-.7 1.4-4.5.2-4.5-.4 0-1.4.6-2.2 1.4Z"/>
    <path fill="#000" d="M354.6 368.2c-1.6 1.8-1.6 2.2-.2 3.7 2 2.2 9.6 18.4 9.6 20.5 0 .9.8 1.6 2 1.6 1.1 0 2-.2 2-.5s-2.7-5.8-6-12.2c-3.3-6.3-6-11.8-6-12.1 0-.3 1.5 1.5 3.4 4 4.4 5.8 9.6 15.3 9.6 17.7 0 2.3 2.5 4.5 4 3.6 1.6-1-12.7-26.6-15.6-27.8-.6-.3-1.9.4-2.8 1.5Z"/>
    <path fill="#000" d="M279 368.1c0 .5 1.3 3.6 2.9 6.8 1.5 3.2 3.4 8.1 4.2 11 1.4 5.8 3 7.7 5.3 6.4 1.3-.7 1.2-1.5-.6-5.8-2.6-6.5-5.2-11.9-5.9-12.5-.3-.3-1.1-2-1.8-3.8-1.3-3-4.1-4.5-4.1-2.1Z"/>
    <path fill="#000" d="M266.2 369.7c.8 1 3 6.3 4.9 11.8 3.1 9.2 4.3 11.4 6 11.5 1.6 0 1.5-4.2 0-8.6-2-5.8-5.1-11.1-8.3-14.2-2.7-2.6-4.8-3-2.6-.5Z"/>
    <path fill="#000" d="M426.2 369.7c.9 1 1.3 2.3 1.1 3-.2.6 1.6 4.3 4.1 8.2 2.6 3.9 4.6 7.8 4.6 8.6 0 .7.5 1.7 1 2 2 1.3.9-2.4-3.1-10-2.3-4.2-3.6-7.5-3.1-7.1 2 1.2 9.9 13.2 11.3 17 1.3 3.7 3.3 5.5 4.6 4.2 1.7-1.7-9.3-18.4-16.2-24.5-3.8-3.3-6.9-4.3-4.3-1.4Z"/>
    <path fill="#000" d="M208.5 370c-.6.9 1.8 7.1 7.1 18.7 1.4 2.9 3.1 5.3 3.9 5.3 1.9 0 1.9-.9 0-5.2-.8-2-1.6-4.7-1.9-6.1-.4-2.4-7-13.7-8-13.7-.3 0-.8.4-1.1 1Z"/>
    <path fill="#000" d="M274 369.5c0 .4.5 1.7 4.4 10.7.9 2 1.6 4.5 1.6 5.6 0 3.3 1.9 7.4 3.3 6.9 3.2-1-4.4-23.7-8-23.7-.7 0-1.3.2-1.3.5Z"/>
    <path fill="#000" d="M202 371.3c0 .2.8 2.1 1.9 4.3 1 2.1 2.7 7.2 3.7 11.1 1.5 5.8 2.2 7.3 3.7 7.3 1.3 0 1.7-.5 1.3-1.8-.2-.9-1.2-4.9-2.2-8.7-2-8.3-4.2-12.5-6.6-12.5-1 0-1.8.1-1.8.3Z"/>
    <path fill="#FFF" d="M554.8 373.6c-1.1 2.4-1.5 2.5-5.7 1.9l-4.6-.7 3 3.1 2.9 3.2-2.9 2.4c-2.3 1.8-2.7 2.6-1.8 3.6.9.9 1.8.8 3.9-.6 2.8-1.8 2.8-1.8 5.4 1.4 4.1 4.8 7.3 3.8 4.5-1.5-1.5-2.9-1.5-2.9 1.5-3.2 2.2-.2 3-.8 3-2.3 0-1.8-1.3-2.3-5.2-2-1.3.2-1.5-.5-1.1-3.9.7-4.6-1.1-5.5-2.9-1.4Z"/>
    <path fill="#000" d="M620.9 375.5c-2.4 2.6-6.4 5.7-8.9 6.9-7.3 3.7-20.2 6.6-31 7-1.9.1-5.9.3-8.7.4-3 .1-5.3.7-5.3 1.3 0 1 19.1.5 26.4-.7 7.9-1.3 18.1-5.4 30-12.1 2.9-1.6 7.6-6.8 5.5-6-.9.3-2.1.1-2.7-.5-.6-.6-2.4.6-5.3 3.7Z"/>
    <path fill="#000" d="M350 372.4c0 .2 1.4 3.3 3 6.8 1.7 3.4 3.3 8 3.6 10 .7 3.8 2.8 6.6 3.8 5 1.4-2.3-6.7-22.2-9-22.2-.8 0-1.4.2-1.4.4Z"/>
    <path fill="#FFF" d="M478.7 373.6c-.3.4.1 1.6.9 2.9 1.4 2.1 1.3 2.4-1.6 4.8-1.6 1.4-3 2.9-3 3.2 0 .4 2 .4 4.5.1l4.5-.7v3.3c0 3.2 1.4 5.8 3.1 5.8.5 0 .9-1.9 1.1-4.3.3-4.1.4-4.2 3.6-3.9 4.2.4 4.3-1.9.2-3.5-2.9-1.1-4-3.6-2-4.8.6-.3 1-1 1-1.6 0-1.5-2.2-1.1-4.2.8-1.3 1.1-2.2 1.4-2.6.7-1-1.6-4.8-3.4-5.5-2.8Z"/>
    <path fill="#000" d="M347 375c0 .6 1.1 3.7 2.5 7s2.5 7.1 2.5 8.5c0 2.3 2.4 4.5 3.6 3.3 1-1.1-6.2-19.8-7.7-19.8-.5 0-.9.5-.9 1Z"/>
    <path fill="#000" d="M341.5 376.7c2.2 5.2 3.9 10.2 4.4 13.3.5 2.6 1.2 3.6 2.9 3.8 1.2.2 2.2-.1 2.2-.7 0-2.1-6-16.5-7.2-17.3-2.1-1.3-3.1-.9-2.3.9Z"/>
    <path fill="#000" d="M531.2 377.7c4.3 4.8 15.6 20.1 16.3 22.3.7 2.3 2.5 2.7 2.5.6 0-1.7-4.1-7.8-8.9-13.2-2-2.3-5.1-6-6.9-8.3-1.8-2.2-3.8-4.1-4.4-4.1-.7 0 0 1.2 1.4 2.7Z"/>
    <path fill="#000" d="M426 378.6c0 .8 6 9.4 6.6 9.4.2 0-.7-2.3-2.1-5-1.4-2.8-3-5-3.5-5-.6 0-1 .3-1 .6Z"/>
    <path fill="#000" d="M422.7 381.6c-.3.3.4 2.3 1.7 4.3 1.2 2 2.8 5.5 3.5 7.8 1.3 4 3.5 6.1 4.5 4.4.5-.7-3.4-9.9-6.2-15-1-1.7-2.6-2.4-3.5-1.5Z"/>
    <path fill="#000" d="M616 385.7c-10.7 6.8-20.8 9.8-37.4 11.1-6.5.4-10.1 1.1-10.4 1.9-.2.9.9 1.3 3.8 1.3 2.3 0 5 .5 6.1 1 1 .6 3.8 1.4 6.1 1.9 4.7 1 10.5 2.9 12.8 4.2 3.8 2.2 13.4 6.9 14.2 6.9 4.4 0-8.1-7.1-18-10.2-4.3-1.3-5-3-1.6-3.6 1.8-.4 17.7-7.4 20-9 6.8-4.5 9.3-6.3 9.9-7.2 1.4-2.3-.1-1.8-5.5 1.7Z"/>
    <path fill="#000" d="M419 384.5c0 .3.9 2.3 2 4.5s2 4.8 2 5.8c0 2.1 2.5 4.8 3.3 3.5.7-1.2-4.6-13.6-6-14.1-.7-.2-1.3-.1-1.3.3Z"/>
    <path fill="#000" d="M415 385.3c0 .9 1.9 9.4 2.6 11.6.3 1 .8 1.1 1.5.4 1.2-1.2-.7-9-2.8-11.3-.7-.8-1.3-1.1-1.3-.7Z"/>
    <path fill="#000" d="M497.9 385.5c-1 .9 8.2 15.5 9.8 15.5 1.8 0 1.6-2-.6-5.5-2.9-4.6-8.5-10.8-9.2-10Z"/>
    <path fill="#000" d="M476.7 390.2c1.1 1.3 2.7 4 3.4 6.2 1.3 3.5 3.3 5.5 4.5 4.4 1.5-1.6-6-12.8-8.6-12.8-.9 0-.6.8.7 2.2Z"/>
    <path fill="#000" d="M495 388.5c0 1.7 5.4 12.5 6.2 12.5 1.3 0 .9-1.7-1.3-5.7-2.9-5.2-4.9-7.9-4.9-6.8Z"/>
    <path fill="#000" d="M550.1 393.2c1.3 1.7 2.5 2.6 2.7 2 .5-1.7-1.7-5.2-3.4-5.2-1.2 0-1.1.6.7 3.2Z"/>
    <path fill="#000" d="M491 391.4c0 .2.9 2.4 2 4.9 2.2 4.9 3.5 6.3 4.4 4.8.8-1.3-3.6-10-5.1-10.1-.7 0-1.3.2-1.3.4Z"/>
    <path fill="#000" d="M555 392.7c0 1.7 2.9 8.1 4 8.8 2.2 1.4 3.1-.7 1.4-3.3-2.5-3.8-5.4-6.8-5.4-5.5Z"/>
    <path fill="#000" d="M486.9 397.7c.9 3.3 4.1 4.5 4.1 1.6 0-2.2-1.8-4.3-3.6-4.3-.8 0-1 .9-.5 2.7Z"/>
    <path fill="#000" d="M439.1 398.6c0 1.1.3 1.4.6.6.3-.7.2-1.6-.1-1.9-.3-.4-.6.2-.5 1.3Z"/>
    <path fill="#000" d="M511 399.9c0 .6.5 1.3 1 1.6.6.3 1-.1 1-.9 0-.9-.4-1.6-1-1.6-.5 0-1 .4-1 .9Z"/>
    <path fill="#000" d="M39.4 402.4c-1.5 3.9 5.6 9.6 11.9 9.6 4.3 0 4.9-2.4.6-2.6-5.7-.2-9.8-2.9-9.9-6.7 0-2.1-1.8-2.3-2.6-.3Z"/>
    <path fill="#000" d="M568 404.5c0 .9.6 1.7 1.3 1.9 12.7 3.5 26.7 6 26.7 4.9 0-1.6-9-5.2-16.8-6.8-9.2-1.9-11.2-1.9-11.2 0Z"/>
    <path fill="#FFF" d="M540.9 407.5c-1.5 4-2.4 4.2-5.9 1.5-1.4-1.1-2.8-2-3.2-2-1.5 0-.8 3.7 1.1 6.1 1.9 2.4 1.9 2.5 0 4.8-3.3 4-1.5 5.8 2.4 2.4 1.8-1.7 2-1.6 4.5 1.5 3.5 4.2 4.6 4.1 3.9-.4l-.6-3.6 3.5.5c2.6.4 3.7.2 4.1-1 .7-1.8-1.3-3.3-4.6-3.3-2.3 0-2.4-.2-1.8-5 .7-6.1-1.4-7-3.4-1.5Z"/>
    <path fill="#000" d="M26.5 406c-1.4 2.3 6.6 11.7 14.5 17.1 1.9 1.3 4 2.8 4.5 3.5.6.6 4.5 3.8 8.7 7.2 4.2 3.4 9.8 8.7 12.5 11.8 5 6 10.3 9.9 14.9 11 1.5.4 5.4 2.2 8.7 4.1 3.2 1.8 6.2 3.3 6.6 3.3.4 0 2.5 1.3 4.7 2.9 2.1 1.6 7.1 3.9 10.9 5.1 10.5 3.3 40.3 15 55 21.5 10.5 4.8 22.9 8.9 33.1 11 6.6 1.4 13.9 3.2 16.4 4 5.6 1.8 15.4 4 24.5 5.6 3.9.7 12.4 2.9 19 5.1 6.6 2.1 12.8 3.8 13.8 3.8s3 .6 4.5 1.4c1.5.7 4.8 1.8 7.3 2.4 4.7 1.2 15.9 6.1 19.1 8.4 1.4 1 2 1 3 0 .9-.9.7-1.8-1-4.2-2-2.7-2.1-3-.5-3 2.5 0 4.7 1.6 3.9 2.8-.3.5.1 1.2.9 1.6 1 .4 1.5-.1 1.5-1.4 0-2.5-.4-2.8-18.5-14.7-12.3-8.1-19.7-10.8-43.5-16-1.4-.3-1.9-.8-1.2-1 2.2-.8 20.5 2.9 28.2 5.8 8.9 3.2 17.9 7.8 22.5 11.4 1.9 1.4 3.7 2.5 4.1 2.5 1.2 0-6-7-9.6-9.3-6.1-3.8-20.7-9.3-27.4-10.2-3.1-.5-4.3-1.2-3.4-2.1 1.1-1 13.3 1.9 21.8 5.3 4.7 1.9 10.6 5.2 13.2 7.4 5.3 4.5 7.9 5.2 4.9 1.3-3.7-4.7-14.8-11.2-21.2-12.5-7.4-1.4-8-3.4-.8-2.6 2.9.4 7.8 2 11 3.7 5.9 3.1 7.9 3.6 7.9 2.2 0-.4-3.4-2.3-7.5-4.2-7.7-3.6-9.2-5-5.3-5 1.2 0 4.7-.6 7.7-1.4 3.1-.8 11-2.6 17.6-4.1 11.3-2.6 42.4-12.3 43.5-13.6.3-.3 3.7-.7 7.5-.8 6.1-.1 11.2-.6 25.5-2.5 1.9-.2 8.7-.9 15-1.5 29.9-2.8 34.8-2.8 48.3-.6 4.8.8 10.3 1.5 12.3 1.5s5 .6 6.7 1.4c1.8.7 5.2 1.9 7.7 2.6 6.1 1.6 17.6 6.8 22.7 10.2 4.7 3.1 6.8 3.6 5.9 1.2-.3-.9-.6-1.8-.6-2 0-.2-.7-.4-1.6-.4-.9 0-5.5-2-10.2-4.5-22.6-11.7-32.5-13.9-62.2-13.9-11.3 0-25 .5-30.5 1.2-5.5.8-12 1.6-14.5 1.8-2.5.2-6.9.9-9.8 1.5-3 .6-5.6.8-5.9.5-2.8-2.8 34.4-7.7 62.2-8.1 17.1-.3 21.2-.1 28 1.6 11.5 2.7 16.9 4.6 26.4 9 8.6 4 11.5 4.7 12.6 2.9 1.1-1.8-.9-3.7-9.4-9.4-10.1-6.6-17.6-9.2-40.1-13.3-4.5-.9-20-.2-29.4 1.3-3.3.5-4.7.4-4.3-.3.8-1.3 4.9-2.1 15.7-2.9 4.7-.4 10.3-1 12.5-1.4 3.8-.7 3.7-.8-2-.9-4.5-.1-5.6-.4-4.7-1.3 1.6-1.6 22.3-2.1 27.5-.6 2.3.6 4.5 1.1 4.8 1 1.2-.2 10.2 3.3 15.5 6.1 2.8 1.4 5.4 2.3 5.8 2 1.3-1.3-4.7-5.3-12.6-8.4-7.2-2.9-9.6-3.4-18.1-3.5-10.5-.2-12.8-1.3-5.8-2.8 4.1-.9 12.9-.1 22.4 2 1.5.4 2.7.2 2.7-.3s-3.1-1.6-7-2.3c-3.8-.7-7-1.6-7-2 0-.6 3.9-1.9 15.5-5.1 10.9-2.9 33.2-5 47-4.4 10.9.5 11.8.4 10.4-1.1-.9-.8-3.6-1.8-6-2.1-2.4-.3-4.8-.9-5.4-1.3-1.8-1.4-20.6.8-43 5-8.1 1.5-19.9 5.1-22.4 6.6-2.1 1.5-11.5 4.3-24.6 7.4-2.2.5-9.8 2.6-17 4.5-7.1 2-14.9 4.1-17.2 4.7-3.3.9-4.3 1.6-4.3 3.2-.1 1.9-.2 2-1.4.4-1.1-1.6-1.7-1.6-6.1-.3-2.6.8-6.1 1.5-7.6 1.5-1.6 0-4.8.9-7.1 1.9-2.4 1-8.8 3.6-14.3 5.7-5.5 2-12.7 5-16.1 6.6-3.4 1.5-9.9 4.2-14.5 5.9-4.6 1.7-10 3.7-11.9 4.4-1.9.7-4.7 1.1-6.2.8-1.4-.3-6.1.5-10.5 1.7-4.3 1.2-9.4 2.6-11.3 3.1-13.9 3.9-33.2 6.9-46.5 7.4-6 .2-15 .7-20 .9-4.9.3-11.7.1-15-.5-3.3-.6-8.9-1.4-12.5-1.9-13.2-1.7-21.2-3-22.1-3.6-.6-.3-3.8-.6-7.2-.5-5.8.1-7.1-.3-21.2-7.4-11.2-5.6-17.9-8.2-26.5-10.4-12.4-3.2-19.9-6.3-25.2-10.3-4.3-3.3-11.3-6.8-13.5-6.8-4 0-12.9-6.6-24.4-18-6.6-6.6-13.7-13.2-15.7-14.7-2.1-1.5-6.7-5.8-10.3-9.5-7-7.1-7.4-7.4-8.4-5.8Zm431 49.4c9.1 1.5 34.5 11.5 34.5 13.6 0 .5-2.4 0-5.2-1.1-2.9-1.2-7.3-2.7-9.8-3.4-2.5-.7-7-2.1-10-3.1-7.7-2.5-6.8-2.3-25-3-13.3-.5-18.1-.3-24.5 1-4.5.9-12.6 2.1-18 2.6-5.5.5-11 1.2-12.2 1.6-1.4.4-2.3.2-2.3-.4 0-.6 1.5-1.3 3.3-1.6 1.7-.3 5.7-1 8.7-1.6 25.5-4.8 48.7-6.6 60.5-4.6ZM208 500c0 1.2-1.7 1.2-4.5 0-1.7-.7-1.5-.9 1.3-.9 1.7-.1 3.2.3 3.2.9Zm13 2c5.7.9 14.8 3 23.5 5.5 2.8.8 7.9 2.1 11.5 3 8.1 2.1 26.7 8.2 30 9.9 1.4.8 4.2 1.9 6.2 2.5 3.8 1.2 8.8 4.7 8.8 6 0 .4-3.6-1-7.9-3-13.1-6.2-38.2-14-66.8-20.6-9-2-16.3-4.1-16.3-4.6s1.2-.6 2.8-.2c1.5.4 5.2 1.1 8.2 1.5Zm25.8-.4c11.2 2.2 30.1 8.2 34.7 11 5.1 3.1 3 3-7-.1-17.8-5.5-31.2-9.4-34.7-10.1-2.1-.3-3.8-1-3.8-1.5 0-1.3 1.9-1.1 10.8.7Zm46 16.5c6.6 3.5 8.3 4.9 6.1 4.9-1.4 0-12.9-6.7-12.9-7.6 0-.8 1.3-.3 6.8 2.7Z"/>
    <path fill="#000" d="M570 411.7c0 .6 2.6 1.3 5.7 1.7 7.2.8 16.3 3.5 16.3 4.7 0 .5-.4.9-1 .9-.5 0-1 .4-1 1 0 1.6 3 1.1 3.2-.5 0-.8.1-2 .2-2.7.1-.6-2.4-2-5.4-3-6.5-2.2-18-3.6-18-2.1Z"/>
    <path fill="#FFF" d="m69.4 414.7-2 2.7-3.8-2.2c-5.9-3.5-7.5-2.4-3.6 2.5 2.6 3.3 2.5 3.7-.5 5.3-3.9 2.1-3.2 4 1.1 3.3 3.9-.6 5.4.5 5.4 4.4 0 1.3.6 2.3 1.3 2.3.8 0 1.4-1.2 1.4-3 0-4.2.6-4.5 5.2-2.7 2.2.9 4.2 1.3 4.5.8.6-.8-2.9-5.1-4.2-5.1-.4 0-1.3-.4-2-.9-1.2-.7-1.1-1.4.3-4.1 1.6-3.1 1.5-6-.3-6-.4 0-1.7 1.2-2.8 2.7Z"/>
    <path fill="#000" d="M599 413.8c0 .5.7 1.5 1.5 2.2 2.1 1.8 1.9 3.2-.5 2.5-3-1-2.6 2.3.5 3.7 2.2 1 2.9.9 4.7-1 1.2-1.2 2-2.3 1.7-2.5-.2-.1-2.1-1.5-4.1-3-2.1-1.6-3.8-2.4-3.8-1.9Z"/>
    <path fill="#FFF" d="M456.4 415.4c-.3.9-.3 2.7 0 4.1.7 2.6-.3 3-6 2.6-1.1-.1-2.6.5-3.3 1.3-1 1.2-.9 1.7.8 2.5 1.1.6 3.1 1.1 4.5 1.1 3.1 0 3-.2 1 3.9-2.1 4.2-1.4 4.7 2.8 2.2 2.3-1.2 4-1.6 4.9-1 .8.5 2.2.9 3.2.9 1.7 0 1.7-.2-.3-3.1-1.2-1.6-2-3.2-1.8-3.4.3-.3 4.3-1.1 7.1-1.4.4-.1.7-.8.7-1.6 0-1.1-1.2-1.5-4.5-1.5-4.1 0-4.5-.2-4.5-2.3 0-1.3-.9-3.2-2-4.2-1.8-1.6-2-1.6-2.6-.1Z"/>
    <path fill="#000" d="M88.4 418.4c-5.2 5.2-4.3 10.4 2.3 13.1 5.6 2.4 9.3 1.9 12.9-1.6l3.2-3.1-2.4-4.9c-2.8-5.4-4.8-6.9-9.4-6.9-2.3 0-4.2 1-6.6 3.4Zm12.5 2.5c1.2 1.6 2.1 3.5 2.1 4.2 0 4.9-10.6 7-13.4 2.6-4.6-7.1 6.4-13.7 11.3-6.8Z"/>
    <path fill="#000" d="M94.7 422.2c-2.1 1.1-2.2 4.8-.1 4.8 2.6 0 5.4-2 4.8-3.4-.8-2-2.7-2.6-4.7-1.4Z"/>
    <path fill="#000" d="M572 418c0 .5.7 1 1.6 1 .8 0 1.2-.5.9-1-.3-.6-1-1-1.6-1-.5 0-.9.4-.9 1Z"/>
    <path fill="#000" d="M581 421.5c4.3 2.3 10.5 3.5 8.5 1.6-1.1-1-10.3-4.1-11.9-4.1-.6.1.9 1.2 3.4 2.5Z"/>
    <path fill="#000" d="M568.9 421.4c.6.8 2.4 1.6 3.9 1.9 6.8 1.4 8.9 2.1 11.1 3.8 1.3 1.1 3.1 1.9 4 1.8 3.9-.1-9.9-6.9-17-8.3-2.6-.5-2.9-.4-2 .8Z"/>
    <path fill="#000" d="M594.5 426.1c-.8 1.3-.6 1.5 2.3 2.4 2.2.6 2.2.5 1-1.4-1.4-2.3-2.4-2.6-3.3-1Z"/>
    <path fill="#000" d="M545.8 426.7c-1 .3-1.8.8-1.8 1.2 0 1.2 6.1 2.2 17 2.7 5.4.3 12 1.4 15.2 2.5 6.1 2 10.9 2.5 9.3 1-.6-.5-5-2.4-10-4.2-7.5-2.6-10.6-3.2-18.5-3.4-5.2-.1-10.3 0-11.2.2Z"/>
    <path fill="#FFF" d="M384.2 433.2c-.5.5-.8 2.7-.5 4.8l.5 3.7-4.8-.7c-2.7-.5-5.2-.5-5.6-.2-1.2 1.2 1.6 3.9 5.5 5.1 2.7.9 3.7 1.7 3.3 2.8-1.7 4.4-1.8 6.3-.2 6.3.9 0 1.6-.3 1.6-.8 0-.4 1.1-1.5 2.4-2.4 2-1.5 3-1.6 5.6-.7 4.1 1.5 4.9.5 2-2.6-1.3-1.4-2.2-2.6-1.9-2.8.2-.2 1.7-.8 3.2-1.5 3.9-1.7 2.9-3.7-1.9-3.8-3.6 0-3.9-.3-4.7-3.6-.9-3.8-2.8-5.3-4.5-3.6Z"/>
    <path fill="#FFF" d="m119.8 446.2-2.5 3.2-2.8-1.9c-1.5-1.1-3.4-2.4-4.1-3-2.4-1.7-2.6.2-.5 4.4 1.2 2.2 2.1 4.3 2.1 4.6 0 .3-1.5.5-3.4.5-3.8 0-5.7 1.7-3.5 3.1.8.5 2.6.9 4.2.9 2.3 0 2.7.4 2.7 2.8 0 3 1.6 5.2 3.7 5.2.8 0 1.3-1.3 1.3-3.4 0-3.4.1-3.5 4.8-3.8 3.4-.2 4.7-.7 4.7-1.8 0-.8-1-1.6-2.2-1.8-3.8-.6-4.5-2.5-2.3-6.7 3.3-6.4 2-7.7-2.2-2.3Z"/>
    <path fill="#000" d="M465 450.2c0 .5.9.8 2 .8s2.8.4 3.8.9c.9.6 4.7 1.9 8.4 3.1 3.8 1.2 8.8 3.8 11.5 5.9 6.6 5.2 9.9 6.2 7.5 2.4-2-3.2-18.3-11.3-22.6-11.3-.8 0-1.7-.4-2-.9-.7-1.1-8.6-1.9-8.6-.9Z"/>
    <path fill="#FFF" d="m316.2 462.7.3 4.8-4 .1c-2.2 0-4.4.2-4.9.2-1.7.4 1.6 3.1 4.5 3.7 2.3.5 2.9 1.1 2.3 2.3-.3 1-.9 2.8-1.1 4.2-.5 2.5-.5 2.5 2.7-.7l3.3-3.1 2.1 2.5c1.3 1.5 3 2.4 4.1 2.2 1.7-.4 1.8-.5.2-2.1-2.5-2.5-2.1-3.3 2.4-5.1 5.3-2.1 4.7-4.1-1.3-4.5-4.5-.3-4.6-.4-5.7-4.8-.9-3.4-1.6-4.4-3.2-4.4-1.8 0-2 .5-1.7 4.7Z"/>
    <path fill="#FFF" d="m172.3 469.1-3.1 3.2-2.7-2.1c-1.5-1.2-3.1-1.9-3.6-1.6-1.6.9-1 3.2 1.3 4.8 2.5 1.8 2.5 1.7-1.9 4-4.3 2.2-4.2 3.4.4 3.8 3 .2 3.8.8 4.3 2.8.9 3.6 4.6 3.5 4.3-.2-.2-2.6 0-2.7 5.4-3 6.7-.4 7.9-2.1 2.6-3.8-5.4-1.8-5.4-1.8-3.8-5 1.6-3.1 2-6 .7-6-.4 0-2.2 1.4-3.9 3.1Z"/>
    <path fill="#FFF" d="M245 474.1c0 4.1 0 4.2-3.2 3.6-1.8-.3-4.1-.9-5.1-1.3-1.5-.5-1.8-.3-1.5 1.5.2 1.9 1.7 3.1 6.7 5.8.2.1-.6 1.4-1.8 2.9-1.1 1.5-2.1 3.3-2.1 4 0 1.2.5 1.2 3.4 0 3.1-1.3 3.5-1.2 5.4.6 2.9 2.9 5.5 1.8 4.2-1.7-1.3-3.5-.6-4.5 3.6-4.5 3.1 0 3.5-.3 3.2-2.3-.2-1.4-1-2.2-2.3-2.3-5.9-.3-5.8-.2-5.2-3.8.4-2.5.1-3.9-1.2-5-2.9-2.7-4.1-1.9-4.1 2.5Z"/>
</svg>